<?xml version="1.0" encoding="iso-8859-1"?>
<!-- Generator: Adobe Illustrator 19.0.0, SVG Export Plug-In . SVG Version: 6.00 Build 0)  -->
<svg version="1.1" id="Capa_1" xmlns="http://www.w3.org/2000/svg" xmlns:xlink="http://www.w3.org/1999/xlink" x="0px" y="0px"
	 viewBox="0 0 504.123 504.123" style="enable-background:new 0 0 504.123 504.123;" xml:space="preserve">
<path style="fill:#E1E6E7;" d="M252.849,503.335c-138.634,0-251.274-112.64-251.274-251.274S114.215,0.788,252.849,0.788
	s251.274,112.64,251.274,251.274S391.483,503.335,252.849,503.335z"/>
<polygon style="fill:#F06151;" points="427.717,370.215 372.578,332.406 317.44,370.215 317.44,192.197 427.717,192.197 "/>
<path style="fill:#183651;" d="M313.502,376.517c-2.363-1.575-3.938-3.938-3.938-7.089V192.197c0-4.726,3.151-7.877,7.877-7.877
	h110.277c4.726,0,7.877,3.151,7.877,7.877v178.018c0,3.151-1.575,5.514-3.938,7.089c-2.363,1.575-5.514,0.788-7.877-0.788
	l-50.412-34.658l-50.412,34.658C319.803,378.092,316.652,378.092,313.502,376.517z M372.578,324.529
	c1.575,0,3.151,0.788,4.726,1.575l42.535,29.145V200.074h-94.523v155.175l42.535-29.145
	C369.428,324.529,371.003,324.529,372.578,324.529z"/>
<polygon style="fill:#FFFFFF;" points="348.948,223.705 396.209,223.705 396.209,310.351 372.578,293.809 348.948,310.351 "/>
<circle style="fill:#2CA0DA;" cx="372.578" cy="132.332" r="103.975"/>
<path style="fill:#183651;" d="M372.578,244.185c-61.44,0-111.852-50.412-111.852-111.852S310.351,20.48,372.578,20.48
	s111.852,49.625,111.852,111.852S434.018,244.185,372.578,244.185z M372.578,36.234c-52.775,0-96.098,43.323-96.098,96.098
	s42.535,96.098,96.098,96.098c52.775,0,96.098-43.323,96.098-96.098S425.354,36.234,372.578,36.234z"/>
<path style="fill:#FFFFFF;" d="M372.578,208.738c-41.748,0-76.406-33.871-76.406-76.406c0-41.748,33.871-76.406,76.406-76.406
	c41.748,0,76.406,33.871,76.406,76.406C448.985,174.08,414.326,208.738,372.578,208.738z"/>
<polygon style="fill:#2CA0DA;" points="372.578,81.92 386.757,111.065 419.84,115.791 396.209,139.422 401.723,171.717 
	372.578,155.963 343.434,171.717 348.948,139.422 325.317,115.791 357.612,111.065 "/>
<path style="fill:#FBBD5E;" d="M225.28,297.748c-18.117,27.569-45.686,45.686-77.982,45.686c-31.508,0-59.865-17.329-77.982-45.686
	c-34.658,1.575-62.228,30.72-62.228,65.378v132.332H286.72V363.126C287.508,328.468,259.938,300.111,225.28,297.748z"/>
<path style="fill:#183651;" d="M287.508,503.335H7.877c-4.726,0-7.877-3.151-7.877-7.877V363.126
	c0-39.385,30.72-70.892,69.317-73.255c2.363,0,5.514,1.575,7.089,3.938c17.329,26.782,43.323,41.748,70.892,41.748
	s53.563-14.966,70.892-41.748c1.575-2.363,3.938-3.938,7.089-3.938c38.597,2.363,69.317,33.871,69.317,73.255v132.332
	C295.385,500.185,291.446,503.335,287.508,503.335z M15.754,488.369h263.877V363.126c0-29.145-22.055-53.563-50.412-57.502
	c-20.48,28.357-49.625,44.898-81.92,44.898c-31.508,0-61.44-16.542-81.92-44.898c-28.357,3.938-50.412,28.357-50.412,57.502v125.243
	H15.754z"/>
<g>
	<path style="fill:#FFFFFF;" d="M39.385,464.738V363.914c0-13.391,7.089-24.418,18.117-29.932
		c23.631,26.782,55.926,41.748,89.797,41.748c34.658,0,66.166-14.966,89.797-41.748c11.028,5.514,18.117,17.329,18.117,29.932
		v100.825H39.385z"/>
	<ellipse style="fill:#FFFFFF;" cx="147.298" cy="207.951" rx="66.954" ry="92.16"/>
</g>
<path style="fill:#183651;" d="M147.298,307.2c-40.96,0-74.831-44.898-74.831-100.037s33.871-100.037,74.831-100.037
	s74.831,44.898,74.831,100.037S189.046,307.2,147.298,307.2z M147.298,123.668c-32.295,0-59.077,37.809-59.077,84.283
	s26.782,84.283,59.077,84.283s59.077-37.809,59.077-84.283S180.382,123.668,147.298,123.668z"/>
<path style="fill:#F06151;" d="M220.554,143.36c-1.575-17.329-14.966-28.357-29.932-36.234c-27.569-14.178-59.865-14.178-87.434,0
	c-14.178,7.877-27.569,18.905-29.932,36.234c0,0-20.48,14.966,7.089,78.769c0,0-6.302-15.754,14.178-31.508
	c0,0-9.452-29.145,16.542-29.932c0,0,22.055,11.815,35.446,9.452c13.391,2.363,35.446-9.452,35.446-9.452
	c26.782,0.788,16.542,29.932,16.542,29.932c20.48,15.754,14.178,31.508,14.178,31.508
	C241.822,157.538,220.554,143.36,220.554,143.36z"/>
<g>
	<path style="fill:#183651;" d="M213.465,230.006c-0.788,0-2.363,0-3.151-0.788c-3.938-1.575-5.514-6.302-3.938-10.24
		c0.788-1.575,3.151-11.028-11.815-22.843c-2.363-2.363-3.938-5.514-2.363-8.665c0.788-3.151,3.151-11.815-0.788-16.542
		c-1.575-1.575-3.938-3.151-7.089-3.151c-6.302,3.151-24.418,11.028-37.022,9.452c-12.603,1.575-30.72-6.302-37.022-9.452
		c-3.151,0-5.514,1.575-7.089,3.151c-3.151,4.726-1.575,13.391-0.788,16.542c0.788,3.151,0,6.302-2.363,8.665
		c-12.603,10.24-12.603,18.905-11.815,22.055c0.788,0.788,0.788,2.363,0.788,3.938c0,4.726-3.151,7.877-7.877,7.877
		c-0.788,0-1.575,0-2.363-0.788c-2.363-0.788-3.938-2.363-4.726-3.938c-24.418-55.926-13.391-78.769-7.089-85.858
		c3.151-15.754,14.178-29.145,33.083-39.385c29.145-14.966,65.378-14.966,94.523,0c18.905,9.452,30.72,23.631,33.083,39.385
		c6.302,7.089,17.329,29.932-7.089,85.858C219.766,227.643,216.615,230.006,213.465,230.006z M78.769,149.662
		c0,0-10.24,9.452,0.788,45.686c1.575-2.363,3.938-4.726,7.089-7.877c-1.575-6.302-1.575-16.542,3.938-25.206
		c3.151-4.726,9.452-9.452,21.268-10.24c1.575,0,2.363,0,3.938,0.788c4.726,2.363,21.268,10.24,29.932,8.665
		c0.788,0,2.363,0,3.151,0c9.452,1.575,25.206-5.514,29.932-8.665c1.575-0.788,2.363-0.788,3.938-0.788
		c11.815,0,18.117,5.514,21.268,10.24c5.514,7.877,4.726,18.905,3.938,25.206c3.151,2.363,4.726,5.514,7.089,7.877
		c11.028-35.446,0.788-45.686,0.788-45.686c-1.575-1.575-2.363-3.151-3.151-5.514c-1.575-11.815-10.24-22.055-25.206-29.932
		c-24.418-12.603-55.926-12.603-80.345,0c-15.754,7.877-23.631,18.117-25.206,29.932C81.92,146.511,80.345,148.086,78.769,149.662
		L78.769,149.662z"/>
	<rect x="84.283" y="415.114" style="fill:#183651;" width="15.754" height="15.754"/>
	<rect x="139.422" y="415.114" style="fill:#183651;" width="15.754" height="15.754"/>
	<rect x="195.348" y="415.114" style="fill:#183651;" width="15.754" height="15.754"/>
</g>
<g>
</g>
<g>
</g>
<g>
</g>
<g>
</g>
<g>
</g>
<g>
</g>
<g>
</g>
<g>
</g>
<g>
</g>
<g>
</g>
<g>
</g>
<g>
</g>
<g>
</g>
<g>
</g>
<g>
</g>
</svg>
