<?xml version="1.0" encoding="iso-8859-1"?>
<!-- Generator: Adobe Illustrator 19.0.0, SVG Export Plug-In . SVG Version: 6.00 Build 0)  -->
<svg version="1.1" id="Capa_1" xmlns="http://www.w3.org/2000/svg" xmlns:xlink="http://www.w3.org/1999/xlink" x="0px" y="0px"
	 viewBox="0 0 504.123 504.123" style="enable-background:new 0 0 504.123 504.123;" xml:space="preserve">
<circle style="fill:#FBBD5E;" cx="252.062" cy="252.062" r="252.062"/>
<path style="fill:#E0E4E8;" d="M407.237,7.877H96.098c-17.329,0-31.508,14.178-31.508,31.508v425.354
	c0,17.329,14.178,31.508,31.508,31.508h161.477l181.957-95.311V39.385C438.745,22.055,424.566,7.877,407.237,7.877z"/>
<path style="fill:#183651;" d="M257.575,504.123H96.098c-22.055,0-39.385-17.329-39.385-39.385V39.385
	C56.714,17.329,74.043,0,96.098,0h311.926c22.055,0,39.385,17.329,39.385,39.385v361.551c0,3.151-1.575,5.514-3.938,7.089
	l-182.745,95.311C259.938,504.123,258.363,504.123,257.575,504.123z M96.098,15.754c-13.391,0-23.631,10.24-23.631,23.631v425.354
	c0,13.391,10.24,23.631,23.631,23.631H256l175.655-92.16V39.385c0-13.391-10.24-23.631-23.631-23.631H96.098z"/>
<polygon style="fill:#FFFFFF;" points="96.098,464.738 96.098,39.385 407.237,39.385 407.237,400.935 257.575,464.738 "/>
<path style="fill:#4FBF9F;" d="M257.575,496.246l181.957-95.311H289.083c-17.329,0-31.508,14.178-31.508,31.508L257.575,496.246z"/>
<g>
	<path style="fill:#183651;" d="M257.575,504.123c-1.575,0-3.151,0-3.938-0.788c-2.363-1.575-3.938-3.938-3.938-7.089v-63.803
		c0-22.055,17.329-39.385,39.385-39.385h150.449c3.938,0,7.089,2.363,7.877,6.302c0.788,3.151-0.788,7.089-3.938,8.665
		l-182.745,95.311C259.938,504.123,258.363,504.123,257.575,504.123z M289.083,408.812c-13.391,0-23.631,10.24-23.631,23.631v51.2
		l141.785-74.831H289.083z"/>
	<path style="fill:#183651;" d="M200.074,143.36h-80.345V63.015h80.345V143.36z M135.483,127.606h48.837V78.769h-48.837V127.606z"/>
	<path style="fill:#183651;" d="M200.074,265.452h-80.345v-80.345h80.345V265.452z M135.483,249.698h48.837v-48.837h-48.837V249.698
		z"/>
	<path style="fill:#183651;" d="M200.074,387.545h-80.345V307.2h80.345V387.545z M135.483,371.791h48.837v-48.837h-48.837V371.791z"
		/>
	<rect x="237.095" y="70.892" style="fill:#183651;" width="130.757" height="15.754"/>
	<rect x="237.095" y="119.729" style="fill:#183651;" width="15.754" height="15.754"/>
	<rect x="275.692" y="119.729" style="fill:#183651;" width="15.754" height="15.754"/>
	<rect x="314.289" y="119.729" style="fill:#183651;" width="15.754" height="15.754"/>
	<rect x="352.098" y="119.729" style="fill:#183651;" width="15.754" height="15.754"/>
	<rect x="237.095" y="185.108" style="fill:#183651;" width="130.757" height="15.754"/>
	<rect x="237.095" y="233.945" style="fill:#183651;" width="15.754" height="15.754"/>
	<rect x="275.692" y="233.945" style="fill:#183651;" width="15.754" height="15.754"/>
	<rect x="314.289" y="233.945" style="fill:#183651;" width="15.754" height="15.754"/>
	<rect x="352.098" y="233.945" style="fill:#183651;" width="15.754" height="15.754"/>
	<rect x="237.095" y="307.2" style="fill:#183651;" width="130.757" height="15.754"/>
	<rect x="237.095" y="356.037" style="fill:#183651;" width="15.754" height="15.754"/>
	<rect x="275.692" y="356.037" style="fill:#183651;" width="15.754" height="15.754"/>
	<rect x="314.289" y="356.037" style="fill:#183651;" width="15.754" height="15.754"/>
	<rect x="352.098" y="356.037" style="fill:#183651;" width="15.754" height="15.754"/>
</g>
<g>
</g>
<g>
</g>
<g>
</g>
<g>
</g>
<g>
</g>
<g>
</g>
<g>
</g>
<g>
</g>
<g>
</g>
<g>
</g>
<g>
</g>
<g>
</g>
<g>
</g>
<g>
</g>
<g>
</g>
</svg>
