<?xml version="1.0" encoding="iso-8859-1"?>
<!-- Generator: Adobe Illustrator 19.0.0, SVG Export Plug-In . SVG Version: 6.00 Build 0)  -->
<svg version="1.1" id="Capa_1" xmlns="http://www.w3.org/2000/svg" xmlns:xlink="http://www.w3.org/1999/xlink" x="0px" y="0px"
	 viewBox="0 0 504.123 504.123" style="enable-background:new 0 0 504.123 504.123;" xml:space="preserve">
<circle style="fill:#E0E4E8;" cx="252.062" cy="252.062" r="252.062"/>
<polygon style="fill:#4FBF9F;" points="141.785,414.326 362.338,414.326 362.338,89.797 240.246,89.797 141.785,181.957 "/>
<path style="fill:#183651;" d="M362.338,422.203H141.785c-4.726,0-7.877-3.151-7.877-7.877V181.957c0-2.363,0.788-3.938,2.363-5.514
	l98.462-92.16c1.575-1.575,3.151-2.363,5.514-2.363h122.092c4.726,0,7.877,3.151,7.877,7.877v324.529
	C370.215,418.265,366.277,422.203,362.338,422.203z M149.662,406.449h204.012V97.674H243.397l-93.735,88.222V406.449z"/>
<polygon style="fill:#FFFFFF;" points="170.929,382.818 170.929,181.957 240.246,121.305 333.194,121.305 333.194,382.818 "/>
<polygon style="fill:#E0E4E8;" points="240.246,89.797 141.785,181.957 240.246,181.957 "/>
<path style="fill:#183651;" d="M240.246,189.834h-98.462c-3.151,0-6.302-2.363-7.089-4.726s-0.788-6.302,1.575-8.665l98.462-92.16
	c2.363-2.363,5.514-2.363,8.665-1.575c3.151,1.575,4.726,3.938,4.726,7.089v92.16C248.123,186.683,244.185,189.834,240.246,189.834z
	 M162.265,174.08h70.105v-66.166L162.265,174.08z"/>
<path style="fill:#FFFFFF;" d="M7.877,67.742v276.48c0,52.775,11.815,105.551,35.446,152.025l0,0
	c22.843-46.474,35.446-99.249,35.446-152.812V67.742H7.877z"/>
<path style="fill:#183651;" d="M43.323,504.123c-3.151,0-5.514-1.575-7.089-4.726C12.603,451.348,0,397.785,0,343.434V67.742
	c0-4.726,3.151-7.877,7.877-7.877h70.892c4.726,0,7.877,3.151,7.877,7.877v276.48c0,54.351-12.603,107.914-36.234,155.963
	C48.837,502.548,46.474,504.123,43.323,504.123z M15.754,75.618v268.603c0,46.474,9.452,92.16,27.569,133.908
	c18.117-41.748,27.569-87.434,27.569-133.908V75.618H15.754z"/>
<rect x="21.268" y="7.877" style="fill:#E0E4E8;" width="43.323" height="59.865"/>
<path style="fill:#183651;" d="M64.591,75.618H21.268c-4.726,0-7.877-3.151-7.877-7.877V7.877C13.391,3.151,16.542,0,21.268,0
	h43.323c4.726,0,7.877,3.151,7.877,7.877v59.865C72.468,71.68,69.317,75.618,64.591,75.618z M29.145,59.865h27.569V15.754H29.145
	V59.865z"/>
<path style="fill:#FFFFFF;" d="M425.354,67.742v276.48c0,53.563,11.815,105.551,35.446,152.812l0,0
	c22.843-46.474,35.446-99.249,35.446-152.812V67.742H425.354z"/>
<path style="fill:#183651;" d="M460.8,504.123c-3.151,0-5.514-1.575-7.089-4.726c-23.631-48.049-36.234-101.612-36.234-155.963
	V67.742c0-4.726,3.151-7.877,7.877-7.877h70.892c4.726,0,7.877,3.151,7.877,7.877v276.48c0,54.351-12.603,107.914-36.234,155.963
	C466.314,502.548,463.951,504.123,460.8,504.123z M433.231,75.618v268.603c0,46.474,9.452,92.16,27.569,133.908
	c18.117-41.748,27.569-87.434,27.569-133.908V75.618H433.231z"/>
<path style="fill:#F06151;" d="M7.877,192.197v152.025c0,52.775,11.815,105.551,35.446,152.025l0,0
	c22.843-46.474,35.446-99.249,35.446-152.812V192.197"/>
<path style="fill:#183651;" d="M43.323,504.123c-3.151,0-5.514-1.575-7.089-4.726C12.603,451.348,0,397.785,0,343.434V192.197
	c0-4.726,3.151-7.877,7.877-7.877s7.877,3.151,7.877,7.877v152.025c0,46.474,9.452,92.16,27.569,133.908
	c18.117-41.748,27.569-87.434,27.569-133.908V192.197c0-4.726,3.151-7.877,7.877-7.877c4.726,0,7.877,3.151,7.877,7.877v152.025
	c0,54.351-12.603,107.914-36.234,155.963C48.837,502.548,46.474,504.123,43.323,504.123z"/>
<path style="fill:#2EA0DA;" d="M425.354,192.197v152.025c0,53.563,11.815,105.551,35.446,152.812l0,0
	c22.843-46.474,35.446-99.249,35.446-152.812V192.197"/>
<path style="fill:#183651;" d="M460.8,504.123c-3.151,0-5.514-1.575-7.089-4.726c-23.631-48.049-36.234-101.612-36.234-155.963
	V192.197c0-4.726,3.151-7.877,7.877-7.877s7.877,3.151,7.877,7.877v152.025c0,46.474,9.452,92.16,27.569,133.908
	c18.117-41.748,27.569-87.434,27.569-133.908V192.197c0-4.726,3.151-7.877,7.877-7.877s7.877,3.151,7.877,7.877v152.025
	c0,54.351-12.603,107.914-36.234,155.963C466.314,502.548,463.951,504.123,460.8,504.123z"/>
<rect x="439.532" y="7.877" style="fill:#E0E4E8;" width="43.323" height="59.865"/>
<g>
	<path style="fill:#183651;" d="M482.855,75.618h-43.323c-4.726,0-7.877-3.151-7.877-7.877V7.877c0-4.726,3.151-7.877,7.877-7.877
		h43.323c4.726,0,7.877,3.151,7.877,7.877v59.865C490.732,71.68,486.794,75.618,482.855,75.618z M447.409,59.865h27.569V15.754
		h-27.569V59.865z"/>
	<rect x="200.074" y="222.917" style="fill:#183651;" width="15.754" height="15.754"/>
	<rect x="244.185" y="222.917" style="fill:#183651;" width="15.754" height="15.754"/>
	<rect x="288.295" y="222.917" style="fill:#183651;" width="15.754" height="15.754"/>
	<rect x="200.074" y="263.877" style="fill:#183651;" width="103.188" height="15.754"/>
	<rect x="200.074" y="303.262" style="fill:#183651;" width="103.188" height="15.754"/>
	<rect x="200.074" y="342.646" style="fill:#183651;" width="53.563" height="15.754"/>
	<rect x="35.446" y="105.551" style="fill:#183651;" width="15.754" height="15.754"/>
	<rect x="35.446" y="166.991" style="fill:#183651;" width="15.754" height="15.754"/>
	<rect x="35.446" y="229.218" style="fill:#183651;" width="15.754" height="15.754"/>
	<rect x="452.923" y="105.551" style="fill:#183651;" width="15.754" height="15.754"/>
	<rect x="452.923" y="166.991" style="fill:#183651;" width="15.754" height="15.754"/>
	<rect x="452.923" y="229.218" style="fill:#183651;" width="15.754" height="15.754"/>
</g>
<g>
</g>
<g>
</g>
<g>
</g>
<g>
</g>
<g>
</g>
<g>
</g>
<g>
</g>
<g>
</g>
<g>
</g>
<g>
</g>
<g>
</g>
<g>
</g>
<g>
</g>
<g>
</g>
<g>
</g>
</svg>
