<?xml version="1.0" encoding="iso-8859-1"?>
<!-- Generator: Adobe Illustrator 19.0.0, SVG Export Plug-In . SVG Version: 6.00 Build 0)  -->
<svg version="1.1" id="Capa_1" xmlns="http://www.w3.org/2000/svg" xmlns:xlink="http://www.w3.org/1999/xlink" x="0px" y="0px"
	 viewBox="0 0 504.517 504.517" style="enable-background:new 0 0 504.517 504.517;" xml:space="preserve">
<circle style="fill:#2EA0DA;" cx="287.017" cy="234.338" r="217.403"/>
<polygon style="fill:#FBBD5E;" points="8.174,496.64 370.513,496.64 370.513,8.271 200.371,8.271 8.174,121.698 "/>
<path style="fill:#183651;" d="M370.513,504.517H8.174c-4.726,0-7.877-3.151-7.877-7.877V121.698c0-3.151,1.575-5.514,3.938-7.089
	L195.645,1.182c1.575-0.788,2.363-0.788,3.938-0.788h170.142c4.726,0,7.877,3.151,7.877,7.877V496.64
	C378.39,501.366,374.451,504.517,370.513,504.517z M16.051,488.763h346.585V16.148H201.947L16.051,126.425V488.763z"/>
<polygon style="fill:#FFFFFF;" points="39.682,121.698 200.371,39.778 339.005,39.778 339.005,465.132 39.682,465.132 "/>
<polygon style="fill:#E0E4E8;" points="200.371,8.271 8.174,121.698 200.371,121.698 "/>
<path style="fill:#183651;" d="M200.371,129.575H8.174c-3.938,0-6.302-2.363-7.877-5.514c-0.788-3.938,0.788-7.089,3.938-9.452
	L195.645,1.182c2.363-1.575,5.514-1.575,7.877,0s3.938,3.938,3.938,7.089v113.428C208.248,126.425,204.31,129.575,200.371,129.575z
	 M37.319,113.822h155.175V22.449L37.319,113.822z"/>
<g>
	<polygon style="fill:#F06151;" points="84.58,449.378 76.703,429.686 56.223,436.775 89.307,376.123 117.663,388.726 	"/>
	<polygon style="fill:#F06151;" points="128.691,449.378 137.356,429.686 157.836,436.775 124.753,376.123 96.396,388.726 	"/>
</g>
<circle style="fill:#4FBF9F;" cx="106.636" cy="366.671" r="45.686"/>
<path style="fill:#FFFFFF;" d="M106.636,394.24c-14.966,0-27.569-12.603-27.569-27.569c0-14.966,12.603-27.569,27.569-27.569
	s27.569,12.603,27.569,27.569C134.205,381.637,122.39,394.24,106.636,394.24z"/>
<g>
	<rect x="96.396" y="188.652" style="fill:#183651;" width="15.754" height="15.754"/>
	<rect x="136.568" y="188.652" style="fill:#183651;" width="15.754" height="15.754"/>
	<rect x="177.528" y="188.652" style="fill:#183651;" width="15.754" height="15.754"/>
	<rect x="96.396" y="236.702" style="fill:#183651;" width="148.086" height="15.754"/>
	<rect x="96.396" y="284.751" style="fill:#183651;" width="148.086" height="15.754"/>
	<rect x="174.377" y="333.588" style="fill:#183651;" width="70.105" height="15.754"/>
</g>
<rect x="309.86" y="148.48" style="fill:#E0E4E8;" width="120.517" height="77.194"/>
<path style="fill:#183651;" d="M439.042,232.763H301.983v-92.16h137.058L439.042,232.763L439.042,232.763z M317.737,217.009h105.551
	v-61.44H317.737V217.009z"/>
<path style="fill:#E0E4E8;" d="M460.31,137.452h-21.268c-4.726,0-8.665,3.938-8.665,8.665v81.132c0,4.726,3.938,8.665,8.665,8.665
	h21.268c4.726,0,8.665-3.938,8.665-8.665v-81.132C468.974,141.391,465.036,137.452,460.31,137.452z"/>
<path style="fill:#183651;" d="M460.31,243.791h-21.268c-8.665,0-16.542-7.089-16.542-16.542v-81.132
	c0-8.665,7.089-16.542,16.542-16.542h21.268c8.665,0,16.542,7.089,16.542,16.542v81.132
	C476.851,236.702,469.762,243.791,460.31,243.791z M439.042,145.329C439.042,145.329,439.042,146.117,439.042,145.329l-0.788,81.92
	c0,0,0,0.788,0.788,0.788h21.268c0,0,0.788,0,0.788-0.788v-81.132c0,0,0-0.788-0.788-0.788H439.042z"/>
<path style="fill:#E0E4E8;" d="M301.196,137.452h-21.268c-4.726,0-8.665,3.938-8.665,8.665v81.132c0,4.726,3.938,8.665,8.665,8.665
	h21.268c4.726,0,8.665-3.938,8.665-8.665v-81.132C309.86,141.391,305.922,137.452,301.196,137.452z"/>
<path style="fill:#183651;" d="M301.196,243.791h-21.268c-8.665,0-16.542-7.089-16.542-16.542v-81.132
	c0-8.665,7.089-16.542,16.542-16.542h21.268c8.665,0,16.542,7.089,16.542,16.542v81.132
	C317.737,236.702,310.648,243.791,301.196,243.791z M279.928,145.329C279.928,145.329,279.928,146.117,279.928,145.329v81.92
	c0,0,0,0.788,0.788,0.788h21.268c0,0,0.788,0,0.788-0.788v-81.132c0,0,0-0.788-0.788-0.788H279.928z"/>
<path style="fill:#FFFFFF;" d="M351.608,224.886v204.012c0,10.24,8.665,18.905,18.905,18.905c10.24,0,18.905-8.665,18.905-18.905
	V224.886H351.608z"/>
<path style="fill:#183651;" d="M370.513,455.68c-14.966,0-26.782-11.815-26.782-26.782V217.009h53.563v211.889
	C397.294,443.865,385.479,455.68,370.513,455.68z M359.485,232.763v196.135c0,6.302,4.726,11.028,11.028,11.028
	s11.028-4.726,11.028-11.028V232.763H359.485z"/>
<g>
</g>
<g>
</g>
<g>
</g>
<g>
</g>
<g>
</g>
<g>
</g>
<g>
</g>
<g>
</g>
<g>
</g>
<g>
</g>
<g>
</g>
<g>
</g>
<g>
</g>
<g>
</g>
<g>
</g>
</svg>
