<?xml version="1.0" encoding="iso-8859-1"?>
<!-- Generator: Adobe Illustrator 19.0.0, SVG Export Plug-In . SVG Version: 6.00 Build 0)  -->
<svg version="1.1" id="Capa_1" xmlns="http://www.w3.org/2000/svg" xmlns:xlink="http://www.w3.org/1999/xlink" x="0px" y="0px"
	 viewBox="0 0 504.155 504.155" style="enable-background:new 0 0 504.155 504.155;" xml:space="preserve">
<circle style="fill:#E0E4E8;" cx="252.077" cy="252.093" r="252.062"/>
<path style="fill:#FFFFFF;" d="M332.422,7.909H97.69c-17.329,0-31.508,14.178-31.508,31.508V464.77
	c0,17.329,14.178,31.508,31.508,31.508h307.988c17.329,0,31.508-14.178,31.508-31.508V112.672L332.422,7.909z"/>
<path style="fill:#183651;" d="M404.89,504.155H97.69c-22.055,0-39.385-17.329-39.385-39.385V39.417
	c0-22.055,17.329-39.385,39.385-39.385h234.732c2.363,0,3.938,0.788,5.514,2.363l104.763,104.763
	c1.575,1.575,2.363,3.151,2.363,5.514V464.77C444.274,486.826,426.945,504.155,404.89,504.155z M97.69,15.786
	c-13.391,0-23.631,10.24-23.631,23.631V464.77c0,13.391,10.24,23.631,23.631,23.631h307.988c13.391,0,23.631-10.24,23.631-23.631
	V115.823L329.271,15.786H97.69z"/>
<path style="fill:#FBBD5E;" d="M363.93,112.672h73.255L332.422,7.909v73.255C332.422,98.493,346.601,112.672,363.93,112.672z"/>
<path style="fill:#183651;" d="M436.398,120.549h-73.255c-22.055,0-39.385-17.329-39.385-39.385V7.909
	c0-3.151,1.575-6.302,4.726-7.089c3.151-1.575,6.302-0.788,8.665,1.575l104.763,104.763c2.363,2.363,3.151,5.514,1.575,8.665
	C442.699,118.186,439.548,120.549,436.398,120.549z M340.299,26.813v54.351c0,13.391,10.24,23.631,23.631,23.631h54.351
	L340.299,26.813z"/>
<rect x="118.957" y="54.383" style="fill:#F06151;" width="168.566" height="19.692"/>
<g>
	<rect x="118.957" y="101.644" style="fill:#E0E4E8;" width="168.566" height="19.692"/>
	<rect x="118.957" y="148.118" style="fill:#E0E4E8;" width="122.88" height="19.692"/>
</g>
<g>
	<path style="fill:#183651;" d="M348.964,268.635c7.877-2.363,12.603-9.452,12.603-17.329c0-3.151-2.363-5.514-4.726-5.514
		s-4.726,2.363-4.726,5.514c0,4.726-3.938,7.877-7.877,7.877c-3.938,0-7.877-3.938-7.877-7.877c0-3.151-2.363-5.514-4.726-5.514
		h-62.228c-2.363-7.089-8.665-11.815-15.754-11.815c-7.089,0-13.391,4.726-15.754,11.815h-62.228c-3.151,0-4.726,2.363-4.726,5.514
		c0,4.726-3.938,7.877-7.877,7.877s-7.877-3.938-7.877-7.877c0-3.151-2.363-5.514-4.726-5.514s-4.726,2.363-4.726,5.514
		c0,7.877,4.726,14.966,12.603,17.329l-21.268,48.049c-12.603,28.357-14.966,34.658-15.754,36.234l0,0
		c0,23.631,19.692,42.535,43.323,42.535s43.323-19.692,43.323-43.323l-37.022-84.283c5.514-1.575,10.24-6.302,11.815-11.815h58.289
		c1.575,4.726,5.514,9.452,11.028,11.028v162.265h-34.658c-12.603,0-22.055,10.24-22.055,22.055v1.575h123.668v-1.575
		c0-12.603-10.24-22.055-22.055-22.055h-34.658V267.06c4.726-1.575,9.452-5.514,11.028-11.028h58.289
		c1.575,5.514,5.514,10.24,11.028,11.815l-21.268,48.049c-12.603,28.357-14.966,34.658-15.754,37.022l0,0
		c0,23.631,19.692,42.535,43.323,42.535s43.323-19.692,43.323-43.323L348.964,268.635z M375.745,347.404h-66.166l33.083-73.255
		L375.745,347.404z M193.001,347.404h-66.166l33.083-73.255L193.001,347.404z"/>
	<rect x="289.887" y="185.927" style="fill:#183651;" width="15.754" height="15.754"/>
	<rect x="329.271" y="185.927" style="fill:#183651;" width="15.754" height="15.754"/>
	<rect x="368.656" y="185.927" style="fill:#183651;" width="15.754" height="15.754"/>
</g>
<g>
</g>
<g>
</g>
<g>
</g>
<g>
</g>
<g>
</g>
<g>
</g>
<g>
</g>
<g>
</g>
<g>
</g>
<g>
</g>
<g>
</g>
<g>
</g>
<g>
</g>
<g>
</g>
<g>
</g>
</svg>
