<?xml version="1.0" encoding="iso-8859-1"?>
<!-- Generator: Adobe Illustrator 19.0.0, SVG Export Plug-In . SVG Version: 6.00 Build 0)  -->
<svg version="1.1" id="Capa_1" xmlns="http://www.w3.org/2000/svg" xmlns:xlink="http://www.w3.org/1999/xlink" x="0px" y="0px"
	 viewBox="0 0 503.853 503.853" style="enable-background:new 0 0 503.853 503.853;" xml:space="preserve">
<circle style="fill:#FBBD5E;" cx="251.926" cy="253.367" r="250.486"/>
<g>
	<rect x="419.705" y="110.007" style="fill:#183651;" width="15.754" height="15.754"/>
	<rect x="419.705" y="162.782" style="fill:#183651;" width="15.754" height="15.754"/>
	<rect x="419.705" y="215.557" style="fill:#183651;" width="15.754" height="15.754"/>
	<rect x="68.394" y="110.007" style="fill:#183651;" width="15.754" height="15.754"/>
	<rect x="68.394" y="162.782" style="fill:#183651;" width="15.754" height="15.754"/>
	<rect x="68.394" y="215.557" style="fill:#183651;" width="15.754" height="15.754"/>
</g>
<path style="fill:#FFFFFF;" d="M118.806,332.924h276.48c0-55.926-33.083-103.188-80.345-125.243
	c-13.391,12.603-31.508,21.268-55.926,21.268c-7.877,0-16.542-0.788-25.994-3.151c-9.452-1.575-22.843-7.089-34.658-17.329
	C151.102,229.736,118.806,277.785,118.806,332.924z"/>
<path style="fill:#183651;" d="M395.286,340.8h-276.48c-3.938,0-7.877-3.151-7.877-7.877c0-55.926,33.083-107.914,84.283-132.332
	c3.151-1.575,6.302-0.788,8.665,1.575c13.391,11.815,26.782,14.966,30.72,15.754c8.665,1.575,16.542,3.151,24.418,3.151
	c20.48,0,37.022-6.302,51.2-18.905c2.363-2.363,5.514-2.363,8.665-1.575c51.2,23.631,84.283,75.618,84.283,132.332
	C403.163,336.862,399.225,340.8,395.286,340.8z M126.683,325.047h259.938c-3.151-45.686-29.932-87.434-70.892-107.914
	c-22.055,18.117-51.2,23.631-85.071,16.542c-5.514-0.788-19.692-4.726-34.658-15.754C156.616,238.4,129.834,279.36,126.683,325.047z
	"/>
<path style="fill:#4FBF9F;" d="M155.04,301.416c7.089-22.843,22.055-43.323,41.748-56.714c9.452,5.514,20.48,9.452,30.72,11.028
	c11.028,2.363,22.055,3.938,32.295,3.938c21.268,0,40.96-5.514,58.289-14.966c19.692,13.391,34.658,33.871,41.748,56.714H155.04z"/>
<path style="fill:#FFFFFF;" d="M322.819,131.274c0,0-6.302,82.708-85.858,64.591c0,0-37.022-5.514-41.748-50.412l-3.938-12.603
	l-9.452-63.015l42.535-29.145l68.529-3.151l32.295,23.631v50.412L322.819,131.274z"/>
<path style="fill:#183651;" d="M259.016,206.105c-7.089,0-14.966-0.788-22.843-3.151c-14.178-2.363-43.323-16.542-47.262-55.926
	L184.973,136v-0.788l-9.452-63.015c-0.788-3.151,0.788-5.514,3.151-7.877l42.535-29.932c1.575-0.788,2.363-1.575,3.938-1.575
	l68.529-3.151c1.575,0,3.151,0.788,4.726,1.575l32.295,23.631c2.363,1.575,3.151,3.938,3.151,6.302v50.412v0.788l-2.363,19.692
	C329.12,158.056,311.791,206.105,259.016,206.105z M199.939,132.062l3.938,11.815c0,0.788,0,0.788,0,1.575
	c3.938,37.809,33.871,42.535,35.446,43.323c7.089,1.575,14.178,2.363,20.48,2.363c51.2,0,55.926-57.502,56.714-59.865l2.363-19.692
	V65.896l-27.569-19.692l-63.015,3.151l-36.234,25.994L199.939,132.062z"/>
<path style="fill:#F06151;" d="M192.062,133.637c0,0,3.151-11.815-11.815-20.48c0,0-26.782-70.892,37.809-91.372
	c0,0-4.726-5.514-3.151-13.391c0,0,9.452,5.514,55.138,3.151c0,0,29.932,3.151,38.597,27.569c0,0,46.474,0,25.994,73.255
	c0,0-11.815,6.302-10.24,20.48c0,0,9.452-78.769-29.932-70.105c0,0-36.234,17.329-61.44-7.089
	C232.234,54.08,184.973,51.717,192.062,133.637z"/>
<path style="fill:#183651;" d="M192.062,141.514L192.062,141.514c-4.726,0-7.089-3.151-7.877-7.089c0-2.363-0.788-4.726-0.788-7.089
	c-1.575-2.363-3.938-4.726-7.089-7.089c-1.575-0.788-3.151-2.363-3.151-3.938c-0.788-1.575-14.178-37.022,0.788-67.742
	c6.302-14.178,18.117-24.418,33.871-31.508c-0.788-3.151-1.575-6.302-0.788-10.24c0-2.363,2.363-4.726,4.726-6.302
	c2.363-0.788,5.514-0.788,7.089,0.788l0,0c0,0,7.089,2.363,30.72,2.363c6.302,0,12.603,0,20.48-0.788h0.788
	c1.575,0,31.508,3.151,43.323,27.569c6.302,1.575,16.542,4.726,24.418,14.966c11.028,14.966,12.603,37.022,3.938,67.742
	c-0.788,1.575-1.575,3.938-3.938,4.726l0,0c0,0-4.726,3.151-6.302,7.877c0,3.938-0.788,6.302-0.788,6.302
	c-0.788,3.938-3.938,7.089-7.877,7.089c-3.938,0-7.089-3.151-7.877-7.089c0-3.151,0-5.514,0.788-8.665
	c1.575-24.418-1.575-44.111-8.665-51.2c-3.151-3.151-6.302-3.938-11.815-3.151c-3.151,1.575-15.754,6.302-30.72,6.302
	c-14.178,0-25.994-3.938-36.234-12.603c-3.938,0.788-10.24,2.363-16.542,8.665c-9.452,10.24-14.178,28.357-13.391,52.775
	c1.575,6.302,0.788,11.028,0,11.815C199.151,139.151,196,141.514,192.062,141.514z M225.145,17.847c0.788,1.575,0.788,3.938,0,5.514
	c-0.788,2.363-2.363,4.726-4.726,5.514c-15.754,5.514-26.782,14.178-32.295,25.994c-7.089,14.966-5.514,33.083-3.151,44.111
	c2.363-16.542,7.877-29.145,16.542-38.597c12.603-13.391,27.569-14.178,30.72-14.178c2.363,0,4.726,0.788,5.514,2.363
	c7.089,7.089,16.542,11.028,27.569,11.028c13.391,0,24.418-5.514,24.418-5.514c0.788,0,0.788-0.788,1.575-0.788
	c11.028-2.363,20.48,0.788,26.782,7.877c6.302,7.089,10.24,17.329,11.815,28.357c2.363-14.966,0-26.782-5.514-34.658
	c-6.302-8.665-16.542-9.452-17.329-9.452c-3.151,0-6.302-2.363-7.089-5.514c-6.302-18.117-28.357-21.268-31.508-22.055
	c-6.302,1.575-13.391,1.575-19.692,1.575C238.536,19.422,230.659,18.634,225.145,17.847z"/>
<circle style="fill:#2EA0DA;" cx="455.151" cy="457.379" r="38.597"/>
<path style="fill:#183651;" d="M455.151,503.853c-25.994,0-46.474-21.268-46.474-46.474c0-25.206,21.268-46.474,46.474-46.474
	c25.206,0,46.474,21.268,46.474,46.474C501.625,482.585,481.145,503.853,455.151,503.853z M455.151,426.659
	c-17.329,0-30.72,14.178-30.72,30.72c0,17.329,14.178,30.72,30.72,30.72c17.329,0,30.72-14.178,30.72-30.72
	C486.659,440.05,472.48,426.659,455.151,426.659z"/>
<circle style="fill:#FFFFFF;" cx="455.151" cy="457.379" r="14.966"/>
<circle style="fill:#FBBD5E;" cx="251.926" cy="457.379" r="38.597"/>
<path style="fill:#183651;" d="M251.926,503.853c-25.994,0-46.474-21.268-46.474-46.474c0-25.206,21.268-46.474,46.474-46.474
	s46.474,21.268,46.474,46.474C298.4,482.585,277.92,503.853,251.926,503.853z M251.926,426.659c-17.329,0-30.72,14.178-30.72,30.72
	c0,17.329,14.178,30.72,30.72,30.72c16.542,0,30.72-14.178,30.72-30.72C282.646,440.05,269.256,426.659,251.926,426.659z"/>
<circle style="fill:#FFFFFF;" cx="251.926" cy="457.379" r="14.966"/>
<circle style="fill:#2EA0DA;" cx="48.702" cy="457.379" r="38.597"/>
<path style="fill:#183651;" d="M48.702,503.853c-25.994,0-46.474-21.268-46.474-46.474c0-25.206,21.268-46.474,46.474-46.474
	s46.474,21.268,46.474,46.474C95.176,482.585,73.908,503.853,48.702,503.853z M48.702,426.659c-17.329,0-30.72,14.178-30.72,30.72
	c0,17.329,14.178,30.72,30.72,30.72s30.72-14.178,30.72-30.72C79.422,440.05,65.243,426.659,48.702,426.659z"/>
<circle style="fill:#FFFFFF;" cx="48.702" cy="457.379" r="14.966"/>
<g>
	<path style="fill:#183651;" d="M455.151,426.659c-3.938,0-7.877-3.151-7.877-7.877v-28.357c0-8.665-7.089-15.754-15.754-15.754
		H71.545c-8.665,0-15.754,7.089-15.754,15.754v28.357c0,3.938-3.151,7.877-7.877,7.877s-7.877-3.151-7.877-7.877v-28.357
		c0-17.329,14.178-31.508,31.508-31.508H431.52c17.329,0,31.508,14.178,31.508,31.508v28.357
		C463.028,422.72,459.877,426.659,455.151,426.659z"/>
	<path style="fill:#183651;" d="M251.139,426.659c-3.938,0-7.877-3.151-7.877-7.877v-51.988c0-3.938,3.151-7.877,7.877-7.877
		c3.938,0,7.877,3.151,7.877,7.877v51.988C259.016,422.72,255.865,426.659,251.139,426.659z"/>
</g>
<g>
</g>
<g>
</g>
<g>
</g>
<g>
</g>
<g>
</g>
<g>
</g>
<g>
</g>
<g>
</g>
<g>
</g>
<g>
</g>
<g>
</g>
<g>
</g>
<g>
</g>
<g>
</g>
<g>
</g>
</svg>
