<?xml version="1.0" encoding="iso-8859-1"?>
<!-- Generator: Adobe Illustrator 19.0.0, SVG Export Plug-In . SVG Version: 6.00 Build 0)  -->
<svg version="1.1" id="Capa_1" xmlns="http://www.w3.org/2000/svg" xmlns:xlink="http://www.w3.org/1999/xlink" x="0px" y="0px"
	 viewBox="0 0 504.123 504.123" style="enable-background:new 0 0 504.123 504.123;" xml:space="preserve">
<circle style="fill:#E1E6E7;" cx="352.098" cy="152.025" r="152.025"/>
<g>
	<path style="fill:#183651;" d="M327.68,165.415c-1.575-3.151-2.363-6.302-3.151-9.452c-0.788-3.938,1.575-8.665,5.514-9.452
		c3.938-0.788,8.665,1.575,9.452,5.514c0.788,2.363,1.575,3.938,2.363,5.514c7.089,14.178,24.418,19.692,37.809,12.603
		l62.228-31.508c14.178-7.089,19.692-24.418,12.603-37.809c-7.089-14.178-24.418-19.692-37.809-12.603l-28.357,14.966
		c-3.938,2.363-8.665,0.788-10.24-3.151c-2.363-3.938-0.788-8.665,3.151-10.24L409.6,74.831
		c21.268-11.028,48.049-2.363,59.077,18.905c11.028,21.268,2.363,48.049-18.905,59.077l-62.228,31.508
		C365.489,195.348,338.708,186.683,327.68,165.415z"/>
	<path style="fill:#183651;" d="M242.609,208.738c-11.028-21.268-2.363-48.049,18.905-59.077l62.228-31.508
		c21.268-11.028,48.049-2.363,59.077,18.905c1.575,3.151,2.363,6.302,3.151,9.452c0.788,3.938-1.575,8.665-5.514,9.452
		c-3.938,0.788-8.665-1.575-9.452-5.514c-0.788-2.363-1.575-3.938-2.363-5.514c-7.089-14.178-24.418-19.692-37.809-12.603
		l-62.228,31.508c-14.178,7.089-19.692,24.418-12.603,37.809c7.089,13.391,23.631,19.692,37.809,12.603l28.357-14.966
		c3.938-2.363,8.665-0.788,10.24,3.151c2.363,3.938,0.788,8.665-3.151,10.24l-28.357,14.966
		C279.631,239.458,253.637,230.794,242.609,208.738z"/>
</g>
<path style="fill:#FFFFFF;" d="M158.326,103.975c0,0-4.726,63.803-66.166,49.625c0,0-29.145-4.726-32.295-38.597l-3.151-9.452
	l-7.877-36.234l33.871-23.631l52.775-14.178l25.206,18.117v38.597L158.326,103.975z"/>
<path style="fill:#183651;" d="M108.702,163.84c-5.514,0-11.815-0.788-18.117-2.363c-11.815-1.575-34.658-13.391-38.597-44.898
	l-2.363-8.665l-7.877-37.022c0-3.938,0.788-7.089,3.938-8.665l32.295-22.843c0.788-0.788,1.575-0.788,2.363-0.788l52.775-14.178
	c2.363-0.788,4.726,0,7.089,1.575l25.206,17.329c2.363,1.575,3.151,3.938,3.151,6.302v38.597v0.788l-1.575,14.966
	C164.628,125.243,151.237,163.84,108.702,163.84z M58.289,72.468l6.302,31.508l2.363,8.665c0,0.788,0,0.788,0,1.575
	c2.363,27.569,24.418,31.508,25.994,31.508c5.514,1.575,11.028,1.575,14.966,1.575c37.809,0,41.748-42.535,41.748-44.111
	l1.575-14.966V53.563l-18.905-14.178L84.283,52.775L58.289,72.468z"/>
<path style="fill:#F06151;" d="M57.502,105.551c0,0,2.363-9.452-8.665-15.754c0,0-21.268-54.351,29.145-70.892
	c0,0-3.938-3.938-2.363-10.24c0,0,7.089,4.726,42.535,2.363c0,0,23.631,2.363,29.932,21.268c0,0,36.234,0,19.692,55.926
	c0,0-8.665,4.726-7.877,15.754c0,0,7.877-48.837-22.843-42.535c0,0-27.569,13.391-47.262-5.514
	C88.222,55.926,51.2,42.535,57.502,105.551z"/>
<path style="fill:#183651;" d="M57.502,113.428C57.502,113.428,56.714,113.428,57.502,113.428c-4.726,0-7.877-3.151-7.877-7.089
	c0-1.575,0-3.938-0.788-5.514c-0.788-1.575-2.363-3.151-4.726-3.938c-1.575-0.788-3.151-2.363-3.151-3.938
	c-0.788-1.575-11.028-29.145,0.788-53.563c4.726-11.815,13.391-19.692,25.206-25.206c-0.788-2.363-0.788-4.726,0-7.089
	c0-3.151,1.575-4.726,4.726-6.302C74.043,0,77.194,0,79.557,1.575l0,0c0,0,9.452,3.151,37.809,1.575h0.788
	c0.788,0,24.418,2.363,34.658,22.055c5.514,1.575,13.391,4.726,18.905,11.815c8.665,11.815,10.24,29.932,3.151,53.563
	c-0.788,2.363-1.575,3.938-3.938,4.726l0,0c0,0-2.363,1.575-3.938,4.726c0,3.151-0.788,5.514-0.788,5.514
	c-0.788,3.938-3.938,7.089-7.877,6.302c-3.938,0-7.089-3.151-7.089-7.089c0-2.363,0-4.726,0.788-7.089
	c0.788-11.815-0.788-22.055-4.726-25.994c-1.575-2.363-4.726-2.363-8.665-1.575c-3.151,1.575-12.603,4.726-24.418,4.726
	S92.16,70.892,84.283,63.803c-0.788,0-2.363-0.788-3.938-0.788c-3.938,0-6.302,0.788-8.665,3.938
	c-3.151,3.938-7.089,11.815-6.302,30.72c1.575,4.726,0.788,9.452,0,10.24C63.803,111.065,60.652,113.428,57.502,113.428z
	 M85.071,18.117c0,0.788,0,1.575,0,2.363c-0.788,2.363-2.363,4.726-4.726,5.514c-11.815,3.938-19.692,10.24-23.631,18.905
	c-3.938,7.877-3.938,16.542-3.938,23.631c1.575-5.514,4.726-10.24,7.877-13.391c5.514-5.514,12.603-8.665,20.48-8.665
	c5.514,0,10.24,1.575,11.028,1.575c0.788,0,1.575,0.788,2.363,1.575c5.514,5.514,11.815,7.877,20.48,7.877
	c10.24,0,18.117-3.938,18.117-3.938c0.788,0,0.788-0.788,1.575-0.788c10.24-2.363,18.117,0,24.418,6.302
	c1.575,2.363,3.151,4.726,4.726,7.089c0.788-9.452-0.788-16.542-3.938-21.268c-4.726-6.302-11.815-6.302-11.815-6.302
	c-3.151,0-6.302-2.363-7.089-5.514c-4.726-12.603-19.692-15.754-22.843-15.754C101.612,18.905,92.16,18.905,85.071,18.117z"/>
<path style="fill:#FFFFFF;" d="M172.505,155.963c-13.391,17.329-33.871,30.72-63.015,30.72c-7.877,0-15.754-0.788-23.631-2.363
	c-11.815-2.363-30.72-10.24-44.111-27.569c-18.905,3.938-33.871,21.268-33.871,41.748v140.997h199.286V197.711
	C207.163,177.231,192.197,159.902,172.505,155.963z"/>
<path style="fill:#183651;" d="M207.163,346.585H7.877c-4.726,0-7.877-3.151-7.877-7.877V197.711
	c0-23.631,16.542-44.111,40.172-48.837c3.151-0.788,6.302,0.788,7.877,3.151c11.815,14.966,27.569,22.843,39.385,25.206
	c34.658,7.877,60.652-1.575,78.769-25.206c1.575-2.363,4.726-3.151,7.877-3.151c23.631,3.938,40.96,25.206,40.96,49.625v140.997
	C215.04,342.646,211.102,346.585,207.163,346.585z M15.754,330.831h183.532v-133.12c0-14.966-9.452-28.357-23.631-32.295
	c-12.603,14.178-33.083,29.932-66.166,29.932c-7.877,0-16.542-0.788-25.206-3.151c-12.603-2.363-31.508-11.028-44.898-26.782
	c-13.391,4.726-22.843,18.117-22.843,32.295v133.12H15.754z"/>
<path style="fill:#4FBF9F;" d="M39.385,307.2V197.711c16.542,11.815,33.083,16.542,40.172,17.329
	c10.24,2.363,20.48,3.151,29.932,3.151c25.206,0,47.262-7.877,66.166-21.268v0.788V307.2H39.385z"/>
<rect x="44.111" y="338.708" style="fill:#FFFFFF;" width="126.818" height="157.538"/>
<g>
	<path style="fill:#183651;" d="M170.929,504.123H44.111c-4.726,0-7.877-3.151-7.877-7.877V338.708c0-4.726,3.151-7.877,7.877-7.877
		h126.818c4.726,0,7.877,3.151,7.877,7.877v157.538C178.806,500.185,175.655,504.123,170.929,504.123z M51.988,488.369h111.065
		V346.585H51.988V488.369z"/>
	<path style="fill:#183651;" d="M107.126,504.123c-4.726,0-7.877-3.151-7.877-7.877V379.668c0-4.726,3.151-7.877,7.877-7.877
		c4.726,0,7.877,3.151,7.877,7.877v116.578C115.003,500.185,111.852,504.123,107.126,504.123z"/>
	<rect x="60.652" y="255.212" style="fill:#183651;" width="15.754" height="15.754"/>
	<rect x="99.249" y="255.212" style="fill:#183651;" width="15.754" height="15.754"/>
	<rect x="138.634" y="255.212" style="fill:#183651;" width="15.754" height="15.754"/>
</g>
<rect x="237.883" y="298.535" style="fill:#FFFFFF;" width="258.363" height="197.711"/>
<path style="fill:#183651;" d="M496.246,504.123H237.883c-4.726,0-7.877-3.151-7.877-7.877V298.535c0-4.726,3.151-7.877,7.877-7.877
	h258.363c4.726,0,7.877,3.151,7.877,7.877v197.711C504.123,500.185,500.185,504.123,496.246,504.123z M245.76,488.369h242.609
	V306.412H245.76V488.369z"/>
<path style="fill:#FBBD5E;" d="M269.391,433.231v-71.68c17.329,0,31.508-14.178,31.508-31.508h132.332
	c0,17.329,14.178,31.508,31.508,31.508v71.68c-17.329,0-31.508,14.178-31.508,31.508H300.898
	C300.898,447.409,286.72,433.231,269.391,433.231z"/>
<g>
	<path style="fill:#183651;" d="M415.902,304.837H317.44c-4.726,0-7.877-3.151-7.877-7.877v-41.748c0-4.726,3.151-7.877,7.877-7.877
		h97.674c4.726,0,7.877,3.151,7.877,7.877v41.748C423.778,301.686,419.84,304.837,415.902,304.837z M325.317,289.083h81.92v-25.994
		h-81.92V289.083z"/>
	<rect x="310.351" y="389.12" style="fill:#183651;" width="15.754" height="15.754"/>
	<rect x="359.188" y="389.12" style="fill:#183651;" width="15.754" height="15.754"/>
	<rect x="407.237" y="389.12" style="fill:#183651;" width="15.754" height="15.754"/>
</g>
<g>
</g>
<g>
</g>
<g>
</g>
<g>
</g>
<g>
</g>
<g>
</g>
<g>
</g>
<g>
</g>
<g>
</g>
<g>
</g>
<g>
</g>
<g>
</g>
<g>
</g>
<g>
</g>
<g>
</g>
</svg>
