<?xml version="1.0" encoding="iso-8859-1"?>
<!-- Generator: Adobe Illustrator 19.0.0, SVG Export Plug-In . SVG Version: 6.00 Build 0)  -->
<svg version="1.1" id="Capa_1" xmlns="http://www.w3.org/2000/svg" xmlns:xlink="http://www.w3.org/1999/xlink" x="0px" y="0px"
	 viewBox="0 0 504.123 504.123" style="enable-background:new 0 0 504.123 504.123;" xml:space="preserve">
<rect x="40.172" y="7.877" style="fill:#FFFFFF;" width="33.871" height="345.009"/>
<path style="fill:#183651;" d="M74.043,360.763H40.172c-4.726,0-7.877-3.151-7.877-7.877V7.877C32.295,3.151,35.446,0,40.172,0
	h33.871c4.726,0,7.877,3.151,7.877,7.877v345.009C81.92,357.612,78.769,360.763,74.043,360.763z M48.049,345.009h18.117V15.754
	H48.049V345.009z"/>
<polygon style="fill:#FBBD5E;" points="454.498,200.862 358.4,296.172 314.289,252.062 231.582,333.982 175.655,278.055 
	100.825,352.886 23.631,352.886 23.631,496.246 454.498,496.246 "/>
<path style="fill:#183651;" d="M454.498,504.123H23.631c-4.726,0-7.877-3.151-7.877-7.877v-143.36c0-4.726,3.151-7.877,7.877-7.877
	h73.255l72.468-72.468c3.151-3.151,7.877-3.151,11.028,0l50.412,50.412l77.194-77.194c1.575-1.575,3.151-2.363,5.514-2.363l0,0
	c2.363,0,3.938,0.788,5.514,2.363l38.597,38.597l90.585-90.585c2.363-2.363,5.514-3.151,8.665-1.575
	c3.151,1.575,4.726,3.938,4.726,7.089v295.385C462.375,500.972,458.437,504.123,454.498,504.123z M31.508,488.369h415.114V219.766
	l-82.708,81.92c-1.575,1.575-3.151,2.363-5.514,2.363l0,0c-2.363,0-3.938-0.788-5.514-2.363l-38.597-38.597l-77.194,77.194
	c-3.151,3.151-7.877,3.151-11.028,0l-50.412-50.412L106.338,358.4c-1.575,1.575-3.151,2.363-5.514,2.363H31.508V488.369z"/>
<polygon style="fill:#FFFFFF;" points="55.138,464.738 55.138,384.394 113.428,384.394 175.655,322.954 231.582,378.88 
	314.289,296.172 358.4,341.071 422.991,276.48 422.991,464.738 "/>
<g>
	<polygon style="fill:#183651;" points="504.123,203.225 488.369,203.225 488.369,166.991 451.348,166.991 451.348,151.237 
		504.123,151.237 	"/>
	<path style="fill:#183651;" d="M454.498,208.738c-2.363,0-3.938-0.788-5.514-2.363c-3.151-3.151-3.151-7.877,0-11.028
		l41.748-41.748c3.151-3.151,7.877-3.151,11.028,0c3.151,3.151,3.151,7.877,0,11.028l-41.748,41.748
		C458.437,207.951,456.862,208.738,454.498,208.738z"/>
	<path style="fill:#183651;" d="M23.631,360.763H7.877c-4.726,0-7.877-3.151-7.877-7.877c0-4.726,3.151-7.877,7.877-7.877h15.754
		c4.726,0,7.877,3.151,7.877,7.877C31.508,357.612,28.357,360.763,23.631,360.763z"/>
	<path style="fill:#183651;" d="M85.071,504.123c-4.726,0-7.877-3.151-7.877-7.877v-143.36c0-4.726,3.151-7.877,7.877-7.877
		s7.877,3.151,7.877,7.877v143.36C92.948,500.972,89.797,504.123,85.071,504.123z"/>
	<path style="fill:#183651;" d="M147.298,504.123c-4.726,0-7.877-3.151-7.877-7.877V306.412c0-4.726,3.151-7.877,7.877-7.877
		c4.726,0,7.877,3.151,7.877,7.877v189.834C155.175,500.972,151.237,504.123,147.298,504.123z"/>
	<path style="fill:#183651;" d="M208.738,504.123c-4.726,0-7.877-3.151-7.877-7.877V311.138c0-4.726,3.151-7.877,7.877-7.877
		c4.726,0,7.877,3.151,7.877,7.877v185.108C216.615,500.972,212.677,504.123,208.738,504.123z"/>
	<path style="fill:#183651;" d="M270.178,504.123c-4.726,0-7.877-3.151-7.877-7.877V296.172c0-4.726,3.151-7.877,7.877-7.877
		c4.726,0,7.877,3.151,7.877,7.877v200.074C278.055,500.972,274.117,504.123,270.178,504.123z"/>
	<path style="fill:#183651;" d="M331.618,504.123c-4.726,0-7.877-3.151-7.877-7.877V269.391c0-4.726,3.151-7.877,7.877-7.877
		c4.726,0,7.877,3.151,7.877,7.877v226.855C339.495,500.972,335.557,504.123,331.618,504.123z"/>
	<path style="fill:#183651;" d="M393.058,504.123c-4.726,0-7.877-3.151-7.877-7.877V263.089c0-4.726,3.151-7.877,7.877-7.877
		s7.877,3.151,7.877,7.877v233.157C400.935,500.972,396.997,504.123,393.058,504.123z"/>
</g>
<polygon style="fill:#E1E6E7;" points="268.603,175.655 74.043,175.655 74.043,27.569 268.603,27.569 342.646,101.612 "/>
<path style="fill:#183651;" d="M268.603,183.532H74.043c-4.726,0-7.877-3.151-7.877-7.877V27.569c0-4.726,3.151-7.877,7.877-7.877
	h194.56c2.363,0,3.938,0.788,5.514,2.363l74.043,74.043c3.151,3.151,3.151,7.877,0,11.028l-74.043,74.043
	C272.542,182.745,270.966,183.532,268.603,183.532z M81.92,167.778h183.532l66.166-66.166l-66.166-66.166H81.92V167.778z"/>
<polygon style="fill:#FFFFFF;" points="105.551,144.148 105.551,59.077 256,59.077 297.748,101.612 256,144.148 "/>
<g>
	<rect x="128.394" y="77.982" style="fill:#183651;" width="9.452" height="48.049"/>
	<path style="fill:#183651;" d="M170.142,77.982H153.6v48.049h9.452V112.64h7.089c7.089,0,11.815-1.575,15.754-3.938
		c3.151-2.363,5.514-7.089,5.514-12.603c0-5.514-1.575-10.24-4.726-13.391C182.745,79.557,177.231,77.982,170.142,77.982z
		 M179.594,101.612c-1.575,1.575-3.938,2.363-7.877,2.363h-7.877V87.434h7.089c3.938,0,7.089,0.788,8.665,1.575
		c1.575,0.788,2.363,3.151,2.363,6.302C181.957,97.674,181.169,100.037,179.594,101.612z"/>
	<path style="fill:#183651;" d="M243.397,84.283c-4.726-4.726-11.028-7.089-18.117-7.089c-7.089,0-13.391,2.363-18.117,7.089
		c-4.726,4.726-7.089,10.24-7.089,17.329s2.363,12.603,7.089,17.329s11.028,7.089,18.117,7.089c7.089,0,13.391-2.363,18.117-7.089
		s7.089-10.24,7.089-17.329C250.486,94.523,248.123,89.009,243.397,84.283z M241.034,101.612c0,4.726-1.575,7.877-4.726,11.028
		c-3.151,3.151-6.302,4.726-11.028,4.726c-4.726,0-7.877-1.575-11.028-4.726c-3.151-3.151-4.726-7.089-4.726-11.028
		c0-4.726,1.575-7.877,4.726-11.028c3.151-3.151,6.302-4.726,11.028-4.726c3.938,0,7.877,1.575,11.028,4.726
		C239.458,93.735,241.034,97.674,241.034,101.612z"/>
</g>
<g>
</g>
<g>
</g>
<g>
</g>
<g>
</g>
<g>
</g>
<g>
</g>
<g>
</g>
<g>
</g>
<g>
</g>
<g>
</g>
<g>
</g>
<g>
</g>
<g>
</g>
<g>
</g>
<g>
</g>
</svg>
