<?xml version="1.0" encoding="iso-8859-1"?>
<!-- Generator: Adobe Illustrator 19.0.0, SVG Export Plug-In . SVG Version: 6.00 Build 0)  -->
<svg version="1.1" id="Capa_1" xmlns="http://www.w3.org/2000/svg" xmlns:xlink="http://www.w3.org/1999/xlink" x="0px" y="0px"
	 viewBox="0 0 504.911 504.911" style="enable-background:new 0 0 504.911 504.911;" xml:space="preserve">
<circle style="fill:#4FBF9F;" cx="252.455" cy="252.849" r="252.062"/>
<path style="fill:#FFFFFF;" d="M406.843,298.535c-12.603,9.452-28.357,15.754-45.686,15.754c-17.329,0-33.083-6.302-45.686-15.754
	c-33.871,16.542-57.502,51.988-57.502,92.948v33.871h206.375v-33.871C465.132,350.523,441.502,315.865,406.843,298.535z"/>
<path style="fill:#183651;" d="M465.132,433.231H257.969c-4.726,0-7.877-3.151-7.877-7.877v-33.871
	c0-42.535,23.631-81.132,62.228-100.037c2.363-1.575,6.302-0.788,8.665,0.788c11.815,9.452,25.994,14.178,40.96,14.178
	c14.966,0,29.145-4.726,40.96-14.178c2.363-1.575,5.514-2.363,8.665-0.788c38.597,18.905,62.228,56.714,62.228,100.037v33.871
	C473.009,429.292,469.071,433.231,465.132,433.231z M265.846,417.477h190.622v-25.994c0-34.658-18.905-66.166-48.837-83.495
	c-13.391,9.452-29.932,14.178-46.474,14.178s-32.295-4.726-46.474-14.178c-30.72,16.542-48.837,48.049-48.837,83.495
	L265.846,417.477L265.846,417.477z"/>
<path style="fill:#F06151;" d="M284.751,399.36v-7.877c0-25.206,11.815-47.262,31.508-62.228
	c14.178,7.089,29.932,11.028,45.686,11.028c16.542,0,31.508-3.938,45.686-11.028c19.692,14.178,31.508,37.022,31.508,62.228v7.877
	H284.751z"/>
<circle style="fill:#FFFFFF;" cx="361.945" cy="240.246" r="48.049"/>
<path style="fill:#183651;" d="M361.945,296.172c-30.72,0-55.926-25.206-55.926-55.926s25.206-55.926,55.926-55.926
	s55.926,25.206,55.926,55.926S392.665,296.172,361.945,296.172z M361.945,200.862c-22.055,0-40.172,18.117-40.172,40.172
	c0,22.055,18.117,40.172,40.172,40.172c22.055,0,40.172-18.117,40.172-40.172S383.212,200.862,361.945,200.862z"/>
<circle style="fill:#FFFFFF;" cx="113.034" cy="57.502" r="48.837"/>
<path style="fill:#183651;" d="M113.034,113.428c-30.72,0-56.714-25.206-56.714-56.714S81.526,0,113.034,0
	s56.714,25.994,56.714,57.502S144.542,113.428,113.034,113.428z M113.034,16.542c-22.055,0-40.96,18.117-40.96,40.96
	s18.117,40.96,40.96,40.96s40.96-18.905,40.96-40.96S135.877,16.542,113.034,16.542z"/>
<rect x="226.462" y="425.354" style="fill:#FFFFFF;" width="270.178" height="71.68"/>
<path style="fill:#183651;" d="M496.64,504.911H226.462c-4.726,0-7.877-3.151-7.877-7.877v-71.68c0-4.726,3.151-7.877,7.877-7.877
	H496.64c4.726,0,7.877,3.151,7.877,7.877v71.68C504.517,501.76,501.366,504.911,496.64,504.911z M234.338,489.157h254.425v-55.926
	H234.338V489.157z"/>
<rect x="252.455" y="451.348" style="fill:#E0E4E8;" width="217.403" height="37.809"/>
<path style="fill:#FBBD5E;" d="M180.775,100.037c-14.178,22.055-39.385,37.022-67.742,37.022s-53.563-14.966-67.742-37.022
	c-21.268,6.302-37.809,25.994-37.809,49.625v173.292h210.314V149.662C218.585,126.031,202.043,106.338,180.775,100.037z"/>
<path style="fill:#183651;" d="M218.585,330.831H8.271c-4.726,0-7.877-3.151-7.877-7.877V149.662
	c0-26.782,18.117-50.412,43.323-57.502c3.151-0.788,7.089,0,8.665,3.151c13.391,21.268,36.234,33.871,60.652,33.871
	s47.262-12.603,60.652-33.871c1.575-3.151,5.514-3.938,8.665-3.151c25.206,7.089,43.323,30.72,43.323,57.502v173.292
	C226.462,326.892,222.523,330.831,218.585,330.831z M16.148,315.077h194.56V149.662c0-17.329-11.028-33.083-26.782-40.172
	c-16.542,22.843-42.535,35.446-70.892,35.446s-54.351-13.391-70.892-35.446c-15.754,7.089-26.782,22.843-26.782,40.172v165.415
	H16.148z"/>
<path style="fill:#FFFFFF;" d="M39.778,291.446V149.662c0-2.363,0.788-4.726,1.575-7.089c19.692,16.542,44.898,26.782,71.68,26.782
	s51.988-9.452,71.68-26.782c0.788,2.363,1.575,4.726,1.575,7.089v141.785H39.778z"/>
<rect x="60.258" y="322.954" style="fill:#FBBD5E;" width="107.126" height="174.08"/>
<path style="fill:#183651;" d="M166.597,504.911H60.258c-4.726,0-7.877-3.151-7.877-7.877v-174.08c0-4.726,3.151-7.877,7.877-7.877
	h107.126c4.726,0,7.877,3.151,7.877,7.877v174.08C174.474,501.76,171.323,504.911,166.597,504.911z M68.135,489.157h91.372V330.831
	H68.135V489.157z"/>
<rect x="91.766" y="354.462" style="fill:#FFFFFF;" width="44.111" height="134.695"/>
<path style="fill:#183651;" d="M113.034,504.911c-4.726,0-7.877-3.151-7.877-7.877V385.182c0-4.726,3.151-7.877,7.877-7.877
	s7.877,3.151,7.877,7.877v111.852C120.911,501.76,117.76,504.911,113.034,504.911z"/>
<path style="fill:#183651;" d="M179.2,330.831c-4.726,0-7.877-3.151-7.877-7.877V198.498c0-4.726,3.151-7.877,7.877-7.877
	c4.726,0,7.877,3.151,7.877,7.877v124.455C187.077,326.892,183.138,330.831,179.2,330.831z"/>
<g>
	<path style="fill:#183651;" d="M47.655,330.831c-4.726,0-7.877-3.151-7.877-7.877V198.498c0-4.726,3.151-7.877,7.877-7.877
		s7.877,3.151,7.877,7.877v124.455C55.532,326.892,51.594,330.831,47.655,330.831z"/>
	<rect x="105.157" y="184.32" style="fill:#183651;" width="15.754" height="15.754"/>
	<rect x="105.157" y="225.28" style="fill:#183651;" width="15.754" height="15.754"/>
	<rect x="105.157" y="265.452" style="fill:#183651;" width="15.754" height="15.754"/>
</g>
<path style="fill:#F06151;" d="M369.034,8.665H247.729c-9.452,0-17.329,7.877-17.329,17.329v64.591
	c0,9.452,7.877,17.329,17.329,17.329h19.692v29.932l52.775-29.932h48.837c9.452,0,17.329-7.877,17.329-17.329V25.994
	C385.575,16.542,378.486,8.665,369.034,8.665z"/>
<path style="fill:#183651;" d="M263.483,144.935c-2.363-1.575-3.938-3.938-3.938-7.089v-22.055h-11.815
	c-14.178,0-25.206-11.028-25.206-25.206V25.994c0-14.178,11.028-25.206,25.206-25.206h121.305c14.178,0,25.206,11.028,25.206,25.206
	v64.591c0,14.178-11.028,25.206-25.206,25.206h-47.262l-50.412,29.145C268.997,145.723,265.846,145.723,263.483,144.935z
	 M247.729,16.542c-4.726,0-9.452,3.938-9.452,9.452v64.591c0,4.726,3.938,9.452,9.452,9.452h19.692c4.726,0,7.877,3.151,7.877,7.877
	v16.542l40.96-23.631c1.575-0.788,2.363-0.788,3.938-0.788h48.837c4.726,0,9.452-3.938,9.452-9.452V25.994
	c0-4.726-3.938-9.452-9.452-9.452H247.729z"/>
<rect x="254.031" y="32.295" style="fill:#FFFFFF;" width="107.914" height="51.988"/>
<path style="fill:#FBBD5E;" d="M358.006,37.809h121.305c9.452,0,17.329,7.877,17.329,17.329v64.591
	c0,9.452-7.877,17.329-17.329,17.329h-19.692v29.932l-52.775-29.932h-48.837c-9.452,0-17.329-7.877-17.329-17.329V55.138
	C341.465,45.686,348.554,37.809,358.006,37.809z"/>
<path style="fill:#183651;" d="M455.68,174.08l-50.412-29.145h-47.262c-14.178,0-25.206-11.028-25.206-25.206V55.138
	c0-14.178,11.028-25.206,25.206-25.206h121.305c14.178,0,25.206,11.028,25.206,25.206v64.591c0,14.178-11.028,25.206-25.206,25.206
	h-11.815v22.055c0,3.151-1.575,5.514-3.938,7.089C461.194,175.655,458.043,175.655,455.68,174.08z M358.006,45.686
	c-4.726,0-9.452,3.938-9.452,9.452v64.591c0,4.726,3.938,9.452,9.452,9.452h48.837c1.575,0,2.363,0,3.938,0.788l40.96,23.631
	v-16.542c0-4.726,3.151-7.877,7.877-7.877h19.692c4.726,0,9.452-3.938,9.452-9.452V55.138c0-4.726-3.938-9.452-9.452-9.452H358.006z
	"/>
<rect x="365.095" y="61.44" style="fill:#FFFFFF;" width="107.914" height="51.988"/>
<g>
	<rect x="379.274" y="79.557" style="fill:#183651;" width="15.754" height="15.754"/>
	<rect x="410.782" y="79.557" style="fill:#183651;" width="15.754" height="15.754"/>
	<rect x="442.289" y="79.557" style="fill:#183651;" width="15.754" height="15.754"/>
	<rect x="268.997" y="50.412" style="fill:#183651;" width="15.754" height="15.754"/>
	<rect x="300.505" y="50.412" style="fill:#183651;" width="15.754" height="15.754"/>
</g>
<g>
</g>
<g>
</g>
<g>
</g>
<g>
</g>
<g>
</g>
<g>
</g>
<g>
</g>
<g>
</g>
<g>
</g>
<g>
</g>
<g>
</g>
<g>
</g>
<g>
</g>
<g>
</g>
<g>
</g>
</svg>
