<?xml version="1.0" encoding="iso-8859-1"?>
<!-- Generator: Adobe Illustrator 19.0.0, SVG Export Plug-In . SVG Version: 6.00 Build 0)  -->
<svg version="1.1" id="Capa_1" xmlns="http://www.w3.org/2000/svg" xmlns:xlink="http://www.w3.org/1999/xlink" x="0px" y="0px"
	 viewBox="0 0 504.123 504.123" style="enable-background:new 0 0 504.123 504.123;" xml:space="preserve">
<circle style="fill:#FBBD5E;" cx="252.062" cy="252.062" r="252.062"/>
<path style="fill:#FFFFFF;" d="M36.234,252.062c0-118.942,96.886-215.828,215.828-215.828s215.828,96.886,215.828,215.828
	s-96.886,215.828-215.828,215.828S36.234,371.003,36.234,252.062z"/>
<path style="fill:#183651;" d="M252.062,475.766L252.062,475.766c-123.668,0-223.705-100.037-223.705-223.705
	S128.394,28.357,252.062,28.357s223.705,100.037,223.705,223.705S375.729,475.766,252.062,475.766z M252.062,44.111
	c-114.215,0-207.951,92.948-207.951,207.951s92.948,207.951,207.951,207.951s207.951-92.948,207.951-207.951
	S367.065,44.111,252.062,44.111z"/>
<circle style="fill:#E1E6E7;" cx="252.062" cy="252.062" r="185.895"/>
<g>
	<path style="fill:#2CA0DA;" d="M252.062,437.957c-59.865,0-113.428-28.357-147.298-72.468l18.905-17.329v-4.726h11.028
		l11.028-9.452h12.603l7.089-4.726l14.966,6.302l22.843-11.815h15.754v-10.24l5.514-3.938v-8.665l-4.726-3.151l2.363-11.815
		l-3.151-7.877l18.905-16.542h15.754v3.151l7.089,0.788l3.151-7.089h4.726l11.028,21.268c0,0,18.117-3.151,14.966,21.268
		l4.726,24.418h-10.24c0,0-0.788,12.603-7.877,19.692l8.665,1.575v9.452l-7.089,6.302l0.788,15.754l11.028,55.138
		C281.206,436.382,266.24,437.957,252.062,437.957z"/>
	<path style="fill:#2CA0DA;" d="M177.231,232.369h-18.117l-7.877-7.089l1.575-8.665c0.788-10.24-16.542-3.151-16.542-3.151
		l-18.117-12.603c-9.452-7.877-9.452-20.48-9.452-20.48l-4.726,6.302l-7.089-6.302c-3.151,2.363-4.726,10.24-4.726,10.24
		l-8.665-2.363l-6.302,8.665l-0.788-7.089c2.363-5.514,4.726-11.028,7.089-16.542c6.302-4.726,14.966-6.302,14.966-6.302
		l14.966,1.575l6.302-7.089l12.603,3.938l2.363-4.726l29.932,1.575l7.877-18.117l7.877-0.788l13.391-11.815l15.754,3.151
		l7.877,7.877l8.665-16.542l14.178-9.452l3.151-9.452C238.671,86.646,256,83.495,256,83.495c3.938-7.089,7.877-11.815,12.603-14.966
		c39.385,3.151,74.831,18.905,103.188,43.323c-4.726,7.089-7.089,14.178-1.575,18.905c12.603,9.452,11.028,14.966,7.877,26.782
		c-3.151,11.028-4.726,37.022,6.302,33.083c11.028-3.151,7.089,21.268,7.089,21.268l-21.268-4.726
		c10.24-22.843-7.877-28.357-7.877-28.357c10.24-4.726-2.363-25.206-8.665-31.508c-6.302-6.302-22.843,10.24-21.268,18.117
		c1.575,8.665,7.089,18.905,17.329,16.542c10.24-2.363,5.514,0.788,7.877,10.24c2.363,9.452-9.452,2.363-9.452,7.089
		c0.788,3.938,3.151,8.665,3.151,8.665s-7.877,0.788-11.028,6.302c-3.938,4.726-3.938,2.363-7.089-0.788
		c-3.151-3.151-5.514,3.151-7.877,5.514c-2.363,2.363-3.938,0.788-2.363-7.877c1.575-8.665,5.514-3.151,6.302-3.151
		c0.788,0,8.665,1.575,3.938-2.363c-3.938-3.938-3.151-8.665-3.151-8.665c6.302-4.726,3.151-8.665,3.151-8.665
		c-4.726-6.302-7.877,5.514-7.877,5.514c1.575-9.452-5.514-12.603-5.514-12.603l-19.692-23.631l-6.302-3.151l-9.452-12.603
		l-11.028-1.575c3.151-8.665,8.665-6.302,8.665-6.302c7.877-14.966-5.514-48.837-22.055-37.809
		c-15.754,11.028,3.938,25.206,3.938,25.206l-13.391-3.938l-2.363,11.028h-14.966l-3.938,15.754
		c0.788,0.788,2.363,2.363,4.726,3.151c9.452,6.302,7.089,7.877,2.363,13.391c-4.726,6.302-5.514,9.452-0.788,16.542
		c4.726,7.089-13.391,9.452-12.603,12.603c0.788,3.151,3.938,11.028-7.877,12.603c-11.028,1.575-11.815,10.24-11.815,10.24
		l-1.575,19.692l-4.726,1.575v7.089C187.471,245.76,177.231,232.369,177.231,232.369z"/>
</g>
<g>
	<rect x="379.668" y="240.246" style="fill:#183651;" width="15.754" height="15.754"/>
	<rect x="379.668" y="281.206" style="fill:#183651;" width="15.754" height="15.754"/>
	<rect x="379.668" y="322.954" style="fill:#183651;" width="15.754" height="15.754"/>
	<rect x="108.702" y="240.246" style="fill:#183651;" width="15.754" height="15.754"/>
	<rect x="108.702" y="281.206" style="fill:#183651;" width="15.754" height="15.754"/>
	<rect x="108.702" y="322.954" style="fill:#183651;" width="15.754" height="15.754"/>
</g>
<path style="fill:#F06151;" d="M346.585,82.708c0,40.96,74.831,135.483,74.831,135.483s74.831-93.735,74.831-135.483
	S462.375,7.877,421.415,7.877S346.585,41.748,346.585,82.708z"/>
<path style="fill:#183651;" d="M421.415,226.068c-2.363,0-4.726-0.788-6.302-3.151c-7.877-9.452-76.406-97.674-76.406-140.209
	C338.708,37.022,375.729,0,421.415,0s82.708,37.022,82.708,82.708c0,42.535-68.529,129.969-76.406,140.209
	C426.142,224.492,423.778,226.068,421.415,226.068z M421.415,15.754c-37.022,0-66.954,29.932-66.954,66.954
	c0,29.145,43.323,92.16,66.954,122.092c22.843-30.72,66.954-93.735,66.954-122.092C488.369,45.686,458.437,15.754,421.415,15.754z"
	/>
<circle style="fill:#FFFFFF;" cx="421.415" cy="81.92" r="33.871"/>
<path style="fill:#F06151;" d="M7.877,82.708c0,40.96,74.831,135.483,74.831,135.483s74.831-93.735,74.831-135.483
	S123.668,7.877,82.708,7.877S7.877,41.748,7.877,82.708z"/>
<path style="fill:#183651;" d="M82.708,226.068c-2.363,0-4.726-0.788-6.302-3.151C68.529,213.465,0,125.243,0,82.708
	C0,37.022,37.022,0,82.708,0s82.708,37.022,82.708,82.708c0,42.535-68.529,129.969-76.406,140.209
	C87.434,224.492,85.071,226.068,82.708,226.068z M82.708,15.754c-37.022,0-66.954,29.932-66.954,66.954
	c0,29.145,43.323,92.16,66.954,122.092c22.843-30.72,66.954-93.735,66.954-122.092C149.662,45.686,119.729,15.754,82.708,15.754z"/>
<circle style="fill:#FFFFFF;" cx="82.708" cy="81.92" r="33.871"/>
<path style="fill:#F06151;" d="M185.895,360.763c0,40.96,74.831,135.483,74.831,135.483s74.831-93.735,74.831-135.483
	s-33.083-74.831-74.831-74.831C219.766,285.932,185.895,319.803,185.895,360.763z"/>
<path style="fill:#183651;" d="M260.726,504.123c-2.363,0-4.726-0.788-6.302-3.151c-7.877-9.452-76.406-97.674-76.406-140.209
	c0-45.686,37.022-82.708,82.708-82.708s82.708,37.022,82.708,82.708c0,42.535-68.529,129.969-76.406,140.209
	C265.452,502.548,263.089,504.123,260.726,504.123z M260.726,293.809c-37.022,0-66.954,29.932-66.954,66.954
	c0,28.357,43.323,92.16,66.954,122.092c22.843-30.72,66.954-93.735,66.954-122.092C327.68,323.742,297.748,293.809,260.726,293.809z
	"/>
<circle style="fill:#FFFFFF;" cx="260.726" cy="359.975" r="33.871"/>
<g>
</g>
<g>
</g>
<g>
</g>
<g>
</g>
<g>
</g>
<g>
</g>
<g>
</g>
<g>
</g>
<g>
</g>
<g>
</g>
<g>
</g>
<g>
</g>
<g>
</g>
<g>
</g>
<g>
</g>
</svg>
