<?xml version="1.0" encoding="iso-8859-1"?>
<!-- Generator: Adobe Illustrator 19.0.0, SVG Export Plug-In . SVG Version: 6.00 Build 0)  -->
<svg version="1.1" id="Capa_1" xmlns="http://www.w3.org/2000/svg" xmlns:xlink="http://www.w3.org/1999/xlink" x="0px" y="0px"
	 viewBox="0 0 505.306 505.306" style="enable-background:new 0 0 505.306 505.306;" xml:space="preserve">
<path style="fill:#FFFFFF;" d="M495.274,401.435c-4.726-10.24-18.117-14.966-28.357-11.028l-132.332,44.111l-108.702-30.72
	c-11.028-19.692,1.575-34.658,15.754-34.658l63.803,2.363c9.452,2.363,19.692-0.788,25.206-8.665
	c8.665-12.603,2.363-29.145-11.815-33.871l-122.88-26.782L58.893,354.961l33.083,112.64l35.446-12.603l177.231,40.96l177.231-63.803
	C495.274,427.429,500.788,413.25,495.274,401.435z"/>
<path style="fill:#183651;" d="M305.441,503.835c-0.788,0-1.575,0-1.575,0l-174.868-40.172l-33.871,11.815
	c-2.363,0.788-3.938,0.788-6.302-0.788c-1.575-0.788-3.151-2.363-3.938-4.726l-33.083-112.64c-0.788-3.938,0.788-7.877,4.726-9.452
	l137.058-53.563c1.575-0.788,3.151-0.788,4.726,0l122.88,26.782h0.788c18.905,6.302,26.782,29.145,15.754,45.686
	c-7.089,10.24-20.48,14.966-33.083,12.603l-63.015-2.363c-3.938,0-7.877,2.363-10.24,5.514c-2.363,3.938-2.363,8.665,0,14.178
	l103.188,29.145l129.969-43.323c14.178-4.726,31.508,1.575,37.809,15.754c7.877,15.754-0.788,35.446-17.329,40.96l-177.231,63.803
	C307.016,503.047,306.228,503.835,305.441,503.835z M128.21,447.121c0.788,0,1.575,0,1.575,0l174.868,40.172l175.655-63.015
	c7.877-3.151,11.815-11.815,7.877-19.692c-2.363-5.514-11.815-9.452-18.905-7.089l-132.332,44.111c-1.575,0.788-3.151,0.788-4.726,0
	l-108.702-30.72c-2.363-0.788-3.938-1.575-4.726-3.938c-6.302-11.815-7.089-23.631-1.575-33.083
	c4.726-7.877,13.391-13.391,22.843-13.391h0.788l63.803,2.363c0.788,0,0.788,0,1.575,0c6.302,1.575,13.391-0.788,16.542-5.514
	c5.514-7.877,1.575-18.905-7.089-22.055l-120.517-26.782l-126.818,51.2l29.145,97.674l27.569-9.452
	C126.634,447.121,127.422,447.121,128.21,447.121z"/>
<polygon style="fill:#FFFFFF;" points="95.914,478.629 54.167,337.632 10.056,348.66 47.078,491.232 "/>
<path style="fill:#183651;" d="M47.078,499.109c-3.151,0-6.302-2.363-7.877-5.514L2.179,351.023c-0.788-2.363,0-3.938,0.788-6.302
	c0.788-1.575,3.151-3.151,4.726-3.938l44.111-11.815c4.726-0.788,8.665,2.363,10.24,6.302l41.748,140.997
	c0.788,2.363,0,3.938-0.788,6.302c-0.788,1.575-3.151,3.151-4.726,3.938l-48.837,12.603
	C48.653,499.109,47.865,499.109,47.078,499.109z M19.508,354.173l33.083,126.818l33.083-8.665L48.653,346.297L19.508,354.173z"/>
<path style="fill:#FBBD5E;" d="M193.588,469.964l111.065,25.994l177.231-63.803c11.815-4.726,18.117-18.117,12.603-29.932
	c-4.726-10.24-18.117-14.966-28.357-11.028l-132.332,44.111l-108.702-30.72c-11.028-19.692,1.575-34.658,15.754-34.658l63.803,2.363
	c9.452,2.363,19.692-0.788,25.206-8.665c8.665-12.603,2.363-29.145-11.815-33.871l-122.88-26.782l-41.748,16.542"/>
<path style="fill:#183651;" d="M305.441,503.835c-0.788,0-1.575,0-1.575,0l-111.065-25.994c-3.938-0.788-7.089-5.514-5.514-9.452
	c1.575-3.938,5.514-7.089,9.452-5.514l107.914,24.418l175.655-63.015c7.877-3.151,11.815-11.815,7.877-19.692
	c-3.151-5.514-11.815-9.452-18.905-7.089l-132.332,44.111c-1.575,0.788-3.151,0.788-4.726,0l-108.702-30.72
	c-2.363-0.788-3.938-1.575-4.726-3.938c-6.302-11.815-7.089-23.631-0.788-33.083c4.726-7.877,14.178-13.391,23.631-12.603
	l63.803,2.363c0.788,0,0.788,0,1.575,0c6.302,1.575,13.391-0.788,16.542-5.514c5.514-7.877,1.575-18.905-7.089-22.055
	l-120.517-26.782l-40.172,15.754c-3.938,1.575-8.665-0.788-10.24-4.726c-1.575-3.938,0.788-8.665,4.726-10.24l41.748-16.542
	c1.575-0.788,3.151-0.788,4.726,0l122.88,26.782h0.788c18.905,6.302,26.782,29.145,15.754,45.686
	c-7.089,10.24-19.692,14.966-33.083,12.603l-63.015-2.363c-3.938,0-7.877,1.575-10.24,5.514c-2.363,3.938-2.363,9.452,0,14.966
	l103.188,29.145l131.545-43.323c14.178-4.726,31.508,2.363,37.809,15.754c7.877,15.754-0.788,35.446-17.329,40.96l-177.231,63.803
	C307.016,503.047,306.228,503.835,305.441,503.835z"/>
<circle style="fill:#E0E4E8;" cx="367.668" cy="179.306" r="137.058"/>
<g>
	
		<rect x="130.612" y="354.056" transform="matrix(-0.2632 -0.9647 0.9647 -0.2632 -174.2352 590.7953)" style="fill:#183651;" width="15.755" height="15.755"/>
	
		<rect x="139.209" y="386.656" transform="matrix(-0.2632 -0.9647 0.9647 -0.2632 -194.8272 640.2692)" style="fill:#183651;" width="15.755" height="15.755"/>
	
		<rect x="147.79" y="419.256" transform="matrix(-0.2632 -0.9647 0.9647 -0.2632 -215.4391 689.7278)" style="fill:#183651;" width="15.755" height="15.755"/>
</g>
<path style="fill:#FFFFFF;" d="M191.225,164.34l13.391-29.145l-20.48-12.603c1.575-7.877,1.575-15.754,0.788-22.843l21.268-11.028
	l-11.028-29.932l-22.843,5.514c-3.938-6.302-9.452-11.815-15.754-17.329l7.089-22.843L134.511,10.74l-12.603,20.48
	c-7.877-1.575-15.754-1.575-22.843-0.788L88.038,9.164L58.893,20.192l5.514,23.631c-6.302,3.938-12.603,9.452-17.329,15.754
	L24.234,51.7L10.844,80.844l20.48,12.603c-1.575,7.877-1.575,15.754-0.788,22.843L9.268,127.318l11.028,29.932l22.843-5.514
	c3.938,6.302,9.452,11.815,15.754,17.329l-7.089,22.843L80.948,205.3l12.603-20.48c7.877,1.575,15.754,1.575,22.843,0.788
	l11.028,21.268l29.932-11.028l-5.514-22.843c6.302-3.938,11.815-9.452,17.329-15.754L191.225,164.34z"/>
<path style="fill:#183651;" d="M126.634,213.964c-3.151,0-5.514-1.575-7.089-3.938l-7.877-16.542c-4.726,0-9.452,0-14.966-0.788
	L87.25,208.45c-2.363,3.151-6.302,4.726-10.24,3.151L47.865,198.21c-3.938-1.575-5.514-5.514-3.938-9.452l5.514-17.329
	c-3.938-3.151-7.089-7.089-10.24-11.028l-18.117,3.938c-3.938,0.788-7.877-1.575-9.452-4.726L0.604,129.681
	c-1.575-3.938,0-7.877,3.938-9.452l16.542-8.665c0-4.726,0-9.452,0.788-14.966L6.118,87.146c-3.151-2.363-4.726-6.302-3.151-10.24
	l13.391-29.145c1.575-3.938,5.514-5.514,9.452-3.938l18.905,6.302c3.151-3.938,7.089-7.089,11.028-10.24l-4.726-17.329
	c-0.788-3.938,1.575-7.877,4.726-9.452L85.674,2.075c3.938-1.575,7.877,0,9.452,3.938l8.665,16.542c4.726,0,9.452,0,14.966,0.788
	l9.452-15.754c2.363-3.151,6.302-4.726,10.24-3.151l29.145,13.391c3.938,1.575,5.514,5.514,3.938,9.452l-5.514,17.329
	c3.938,3.151,7.089,7.089,10.24,11.028l18.117-3.938c3.938-0.788,7.877,1.575,9.452,4.726l11.028,29.932
	c1.575,3.938,0,7.877-3.938,9.452l-16.542,8.665c0,4.726,0,9.452-0.788,14.966l15.754,9.452c3.151,2.363,4.726,6.302,3.151,10.24
	l-13.391,29.145c-1.575,3.938-5.514,5.514-9.452,3.938l-18.905-6.302c-3.151,3.938-7.089,7.089-11.028,10.24l3.938,18.117
	c0.788,3.938-1.575,7.877-4.726,9.452l-29.932,11.028C128.998,213.964,128.21,213.964,126.634,213.964z M116.394,177.73
	c3.151,0,5.514,1.575,7.089,3.938l7.877,14.966l16.542-6.302l-3.938-16.542c-0.788-3.151,0.788-6.302,3.151-8.665
	c5.514-3.938,11.028-8.665,14.966-14.178c2.363-2.363,5.514-3.938,8.665-2.363l15.754,5.514l7.877-16.542l-14.178-8.665
	c-3.151-1.575-3.938-4.726-3.938-7.877c1.575-7.089,1.575-14.178,0.788-20.48c0-3.151,1.575-6.302,3.938-7.877l14.966-7.877
	l-6.302-16.542l-16.542,3.938c-3.151,0.788-6.302-0.788-8.665-3.151c-3.938-5.514-8.665-11.028-14.178-14.966
	c-2.363-2.363-3.938-5.514-2.363-8.665l5.514-15.754l-16.542-7.877l-7.877,14.178c-1.575,3.151-4.726,3.938-7.877,3.938
	c-7.089-1.575-14.178-1.575-20.48-0.788c-3.151,0-6.302-1.575-7.877-3.938l-7.877-14.966l-17.329,5.514l3.938,16.542
	c0.788,2.363,0,6.302-3.151,7.877c-5.514,3.938-11.028,8.665-14.966,14.178c-2.363,2.363-5.514,3.151-8.665,2.363l-15.754-5.514
	l-7.877,16.542l14.178,8.665c3.151,1.575,3.938,4.726,3.938,7.877c-1.575,7.089-1.575,14.178-0.788,20.48
	c0,3.151-1.575,6.302-3.938,7.877l-14.966,7.877l6.302,16.542l16.542-3.938c3.151-0.788,6.302,0.788,8.665,3.151
	c3.938,5.514,8.665,11.028,14.178,14.966c2.363,2.363,3.938,5.514,2.363,8.665l-5.514,15.754l16.542,7.877l8.665-14.178
	c1.575-3.151,4.726-3.938,7.877-3.938c7.089,1.575,14.178,1.575,20.48,0.788C115.607,177.73,115.607,177.73,116.394,177.73z"/>
<circle style="fill:#F06151;" cx="107.73" cy="107.626" r="55.138"/>
<circle style="fill:#FFFFFF;" cx="107.73" cy="107.626" r="22.055"/>
<path style="fill:#183651;" d="M95.127,135.195c-14.966-7.089-21.268-24.418-14.178-39.385s24.418-21.268,39.385-14.178
	s21.268,24.418,14.178,39.385C128.21,135.195,110.093,142.284,95.127,135.195z M95.127,102.112c-3.151,7.089,0,15.754,7.089,18.905
	c7.089,3.151,15.754,0,18.905-7.089c3.151-7.089,0-15.754-7.089-18.905C106.154,91.872,98.278,95.023,95.127,102.112z"/>
<path style="fill:#FFFFFF;" d="M457.465,239.958l14.178-31.508l-22.055-13.391c1.575-8.665,1.575-16.542,0.788-25.206l22.843-11.815
	l-11.028-31.508l-25.206,5.514c-4.726-7.089-10.24-13.391-17.329-18.117l7.877-24.418L396.025,75.33l-12.603,21.268
	c-8.665-1.575-16.542-1.575-25.206-0.788l-11.815-22.843l-32.295,11.815l5.514,25.206c-7.089,4.726-13.391,10.24-18.117,17.329
	l-24.418-7.877l-14.178,31.508l22.055,13.391c-1.575,8.665-1.575,16.542-0.788,25.206l-22.843,11.815l11.815,31.508l25.206-5.514
	c4.726,7.089,10.24,13.391,17.329,18.117l-7.877,24.418l31.508,14.178l13.391-22.055c8.665,1.575,16.542,1.575,25.206,0.788
	l11.815,22.843l32.295-11.815l-7.089-24.418c7.089-4.726,13.391-10.24,18.117-17.329L457.465,239.958z"/>
<path style="fill:#183651;" d="M388.148,293.521c-3.151,0-5.514-1.575-7.089-3.938l-9.452-18.117c-5.514,0-11.028,0-16.542-0.788
	l-10.24,17.329c-2.363,3.151-6.302,4.726-10.24,3.151l-31.508-14.178c-3.938-1.575-5.514-5.514-3.938-9.452l6.302-19.692
	c-3.938-3.938-7.877-7.877-11.028-11.815l-19.692,4.726c-3.938,0.788-7.877-1.575-9.452-4.726l-11.815-32.295
	c-1.575-3.938,0-7.877,3.938-9.452l18.117-9.452c0-5.514,0-11.028,0.788-16.542l-17.329-11.028
	c-3.151-2.363-4.726-6.302-3.151-10.24l14.178-31.508c1.575-3.938,5.514-5.514,9.452-3.938l19.692,6.302
	c3.938-3.938,7.877-7.877,11.815-11.028l-4.726-19.692c-0.788-3.938,1.575-7.877,4.726-9.452l33.083-11.815
	c3.938-1.575,7.877,0,9.452,3.938l9.452,18.117c5.514,0,11.028,0,16.542,0.788l11.028-17.329c1.575-3.938,6.302-5.514,10.24-3.938
	l31.508,14.178c3.938,1.575,5.514,5.514,3.938,9.452l-6.302,19.692c3.938,3.938,7.877,7.877,11.028,11.815l19.692-4.726
	c3.938-0.788,7.877,1.575,9.452,4.726l11.815,32.295c1.575,3.938,0,7.877-3.938,9.452l-18.117,9.452c0,5.514,0,11.028-0.788,16.542
	l17.329,11.028c3.151,2.363,4.726,6.302,3.151,10.24l-14.178,31.508c-1.575,3.938-5.514,5.514-9.452,3.938l-19.692-6.302
	c-3.938,3.938-7.877,7.877-11.815,11.028l4.726,19.692c0.788,3.938-1.575,7.877-4.726,9.452l-33.083,12.603
	C390.511,293.521,388.936,293.521,388.148,293.521z M376.333,255.712c3.151,0,5.514,1.575,7.089,3.938l8.665,16.542l18.905-7.089
	l-3.938-18.117c-0.788-3.151,0.788-6.302,3.151-8.665c6.302-3.938,11.815-9.452,16.542-15.754c2.363-2.363,5.514-3.938,8.665-2.363
	l18.117,5.514l8.665-18.905l-15.754-9.452c-3.151-1.575-3.938-4.726-3.938-7.877c1.575-7.877,1.575-14.966,0.788-22.843
	c0-3.151,1.575-6.302,3.938-7.877l16.542-8.665l-7.089-18.905l-18.117,3.938c-3.151,0.788-6.302-0.788-8.665-3.151
	c-3.938-6.302-9.452-11.815-15.754-16.542c-2.363-2.363-3.938-5.514-2.363-8.665l5.514-18.117l-18.905-8.665l-9.452,15.754
	c-1.575,3.151-4.726,3.938-7.877,3.938c-7.089-1.575-14.966-1.575-22.843-0.788c-3.151,0-6.302-1.575-7.877-3.938l-8.665-16.542
	l-18.905,7.089l3.938,18.117c0.788,3.151-0.788,6.302-3.151,8.665c-6.302,3.938-11.815,9.452-16.542,15.754
	c-2.363,2.363-5.514,3.938-8.665,2.363l-18.117-5.514l-7.089,18.117l15.754,9.452c3.151,1.575,3.938,4.726,3.938,7.877
	c-1.575,7.877-1.575,14.966-0.788,22.843c0,3.151-1.575,6.302-3.938,7.877l-16.542,8.665l7.089,18.905l18.117-3.938
	c3.151-0.788,6.302,0.788,8.665,3.151c3.938,6.302,9.452,11.815,15.754,16.542c2.363,2.363,3.938,5.514,2.363,8.665l-5.514,18.117
	l18.905,8.665l9.452-15.754c1.575-3.151,4.726-3.938,7.877-3.938c7.089,1.575,14.966,1.575,22.843,0.788
	C376.333,255.712,376.333,255.712,376.333,255.712z"/>
<circle style="fill:#4FBF9F;" cx="367.668" cy="179.306" r="63.015"/>
<circle style="fill:#FFFFFF;" cx="367.668" cy="179.306" r="23.631"/>
<path style="fill:#183651;" d="M354.278,208.45c-15.754-7.089-22.843-25.994-15.754-41.748s25.994-22.843,41.748-15.754
	s22.843,25.994,15.754,41.748C388.936,208.45,370.031,215.54,354.278,208.45z M352.702,173.004c-3.938,7.877,0,17.329,7.877,21.268
	s17.329,0,21.268-7.877c3.938-7.877,0-17.329-7.877-21.268S356.641,165.127,352.702,173.004z"/>
<g>
</g>
<g>
</g>
<g>
</g>
<g>
</g>
<g>
</g>
<g>
</g>
<g>
</g>
<g>
</g>
<g>
</g>
<g>
</g>
<g>
</g>
<g>
</g>
<g>
</g>
<g>
</g>
<g>
</g>
</svg>
