<?xml version="1.0" encoding="iso-8859-1"?>
<!-- Generator: Adobe Illustrator 19.0.0, SVG Export Plug-In . SVG Version: 6.00 Build 0)  -->
<svg version="1.1" id="Capa_1" xmlns="http://www.w3.org/2000/svg" xmlns:xlink="http://www.w3.org/1999/xlink" x="0px" y="0px"
	 viewBox="0 0 504.911 504.911" style="enable-background:new 0 0 504.911 504.911;" xml:space="preserve">
<circle style="fill:#4FBF9F;" cx="252.455" cy="178.806" r="178.806"/>
<path style="fill:#E0E4E8;" d="M65.772,364.702L65.772,364.702c-10.24-25.206-5.514-54.351,14.178-74.043
	c26.782-26.782,69.317-26.782,96.098,0c4.726-23.631,22.843-44.111,48.049-49.625c33.871-7.089,66.954,14.178,74.831,47.262v1.575
	c7.877-24.418,33.871-38.597,58.289-30.72c24.418,7.877,38.597,33.871,30.72,58.289c22.843-8.665,29.932-5.514,47.262,0
	c24.418,7.877,38.597,33.871,30.72,58.289c-3.151,11.028-11.028,20.48-20.48,25.994c25.994,0,51.2,21.268,51.2,47.262
	s-21.268,47.262-47.262,47.262H76.012c-37.809,0-67.742-26.782-67.742-64.591C8.271,397.785,33.477,370.215,65.772,364.702z"/>
<g>
	<path style="fill:#183651;" d="M449.379,504.123H76.012c-43.323,0-75.618-30.72-75.618-72.468
		c0-34.658,22.843-63.803,54.351-72.468c-7.089-25.994,0-54.351,19.692-74.043c14.178-14.178,33.083-22.055,53.563-22.055
		c15.754,0,30.72,4.726,44.111,14.178c8.665-22.055,26.782-38.597,50.412-43.323c4.726-0.788,10.24-1.575,14.966-1.575
		c26.782,0,51.2,15.754,63.015,38.597c10.24-12.603,25.994-20.48,42.535-20.48c5.514,0,11.028,0.788,16.542,2.363
		c14.178,3.938,25.206,14.178,32.295,26.782c4.726,8.665,6.302,18.117,6.302,27.569c14.178-3.938,24.418-0.788,37.022,3.151
		l2.363,0.788c28.357,8.665,44.898,39.385,36.234,68.529c-2.363,7.089-5.514,13.391-10.24,18.905
		c23.631,7.089,40.96,28.357,40.96,51.988C504.517,479.705,480.099,504.123,449.379,504.123z M72.074,360.763
		c0.788,1.575,1.575,3.938,0.788,6.302c-0.788,3.151-3.151,5.514-6.302,5.514c-29.145,4.726-50.412,29.145-50.412,59.077
		c0,32.295,25.994,56.714,59.865,56.714h373.366c21.268,0,39.385-17.329,39.385-39.385c0-20.48-20.48-39.385-43.323-39.385
		c-3.151,0-6.302-2.363-7.877-5.514c-0.788-3.151,0.788-7.089,3.151-8.665c7.877-4.726,14.178-12.603,17.329-22.055
		c3.151-10.24,2.363-20.48-2.363-29.145c-4.726-9.452-12.603-15.754-22.843-18.905l-3.151-0.788
		c-7.877-2.363-13.391-3.938-18.905-3.938s-11.815,1.575-20.48,4.726c-3.151,0.788-6.302,0.788-7.877-1.575
		c-2.363-2.363-3.151-5.514-2.363-7.877c3.151-10.24,2.363-20.48-2.363-29.145c-4.726-9.452-12.603-15.754-22.843-18.905
		c-3.938-0.788-7.877-1.575-11.815-1.575c-17.329,0-31.508,11.028-37.022,27.569c-0.788,3.938-4.726,6.302-8.665,5.514
		c-3.938-0.788-7.089-3.938-7.089-7.877v-0.788c-5.514-24.418-27.569-41.748-52.775-41.748c-3.938,0-7.877,0.788-11.815,1.575
		c-21.268,4.726-37.809,22.055-41.748,43.323c-0.788,3.151-2.363,5.514-5.514,6.302c-3.151,0.788-5.514,0-7.877-1.575
		c-11.028-11.028-26.782-17.329-42.535-17.329s-30.72,6.302-42.535,17.329C68.923,313.502,63.409,338.708,72.074,360.763z"/>
	<path style="fill:#183651;" d="M367.458,352.098c-2.363,0-5.514-1.575-7.089-3.938c-2.363-3.938-0.788-8.665,2.363-11.028
		c7.877-4.726,14.178-12.603,17.329-22.055c1.575-3.938,5.514-6.302,10.24-5.514c3.938,1.575,6.302,5.514,5.514,10.24
		c-3.938,12.603-12.603,23.631-23.631,30.72C369.822,352.098,368.246,352.098,367.458,352.098z"/>
	<path style="fill:#183651;" d="M262.695,504.123c-3.151,0-6.302-1.575-7.089-4.726c-16.542-44.111-5.514-92.948,29.145-124.455
		c3.151-3.151,7.877-3.151,11.028,0.788c3.151,3.151,3.151,7.877-0.788,11.028c-29.932,27.569-39.385,70.105-25.206,107.914
		c1.575,3.938-0.788,8.665-4.726,10.24C264.271,504.123,263.483,504.123,262.695,504.123z"/>
	<path style="fill:#183651;" d="M261.12,415.114c-3.151-3.151-2.363-8.665,0.788-11.028c3.151-3.151,8.665-2.363,11.028,0.788
		c35.446,40.96,99.249,46.474,140.997,11.028c3.151-3.151,8.665-2.363,11.028,0.788c3.151,3.151,2.363,8.665-0.788,11.028
		C376.123,468.677,302.08,463.163,261.12,415.114z"/>
	<path style="fill:#183651;" d="M99.643,449.772c-3.938-1.575-6.302-6.302-4.726-10.24c5.514-16.542,4.726-33.871-2.363-46.474
		c-6.302-11.028-15.754-18.117-28.357-20.48c-3.938-0.788-7.089-5.514-6.302-9.452c0.788-3.938,5.514-7.089,9.452-6.302
		c17.329,3.938,30.72,13.391,39.385,28.357c9.452,16.542,10.24,39.385,3.151,59.865C108.308,449.772,103.582,451.348,99.643,449.772
		z"/>
	<path style="fill:#183651;" d="M178.412,432.443c-7.089-14.966-19.692-26.782-34.658-30.72
		c-11.815-3.151-24.418-1.575-35.446,5.514c-3.938,2.363-8.665,1.575-11.028-2.363c-2.363-3.938-1.575-8.665,2.363-11.028
		c14.966-9.452,32.295-12.603,48.049-7.089c18.117,5.514,34.658,19.692,44.111,39.385c1.575,3.938,0,8.665-3.938,10.24
		C184.714,437.957,179.988,436.382,178.412,432.443z"/>
	<rect x="112.246" y="148.874" style="fill:#183651;" width="15.754" height="15.754"/>
	<rect x="376.911" y="148.874" style="fill:#183651;" width="15.754" height="15.754"/>
	
		<rect x="122.426" y="99.381" transform="matrix(-0.9261 -0.3774 0.3774 -0.9261 210.4934 255.7602)" style="fill:#183651;" width="15.755" height="15.755"/>
	
		<rect x="366.572" y="199.165" transform="matrix(-0.9261 -0.3774 0.3774 -0.9261 643.0763 540.0862)" style="fill:#183651;" width="15.755" height="15.755"/>
	
		<rect x="150.001" y="56.74" transform="matrix(-0.7154 -0.6988 0.6988 -0.7154 225.6658 221.1608)" style="fill:#183651;" width="15.755" height="15.755"/>
	
		<rect x="191.29" y="27.971" transform="matrix(-0.3989 -0.917 0.917 -0.3989 245.7427 232.783)" style="fill:#183651;" width="15.754" height="15.754"/>
	
		<rect x="241.038" y="16.795" transform="matrix(-0.0234 -0.9997 0.9997 -0.0234 230.0853 274.0963)" style="fill:#183651;" width="15.753" height="15.753"/>
	
		<rect x="291.925" y="25.323" transform="matrix(-0.9346 -0.3558 0.3558 -0.9346 568.1754 170.8947)" style="fill:#183651;" width="15.754" height="15.754"/>
	
		<rect x="335.317" y="52.371" transform="matrix(-0.7315 -0.6819 0.6819 -0.7315 553.1494 338.3337)" style="fill:#183651;" width="15.754" height="15.754"/>
	
		<rect x="364.609" y="94.088" transform="matrix(-0.4201 -0.9075 0.9075 -0.4201 436.4326 482.8248)" style="fill:#183651;" width="15.754" height="15.754"/>
	
		<rect x="124.491" y="204.914" transform="matrix(-0.4201 -0.9075 0.9075 -0.4201 -5.1299 422.3041)" style="fill:#183651;" width="15.754" height="15.754"/>
</g>
<path style="fill:#FFFFFF;" d="M249.305,56.714c-54.351,1.575-98.462,48.049-97.674,101.612c0,31.508,14.966,59.865,38.597,77.982
	c11.815,9.452,18.117,22.843,18.905,37.809h86.646c0-15.754,7.877-29.145,20.48-39.385c22.843-18.117,37.022-46.474,37.022-77.982
	C353.28,100.825,306.806,55.138,249.305,56.714z"/>
<path style="fill:#183651;" d="M295.779,282.782h-86.646c-3.938,0-7.877-3.151-7.877-7.877
	c-0.788-13.391-6.302-24.418-15.754-32.295c-25.994-20.48-40.96-51.2-41.748-84.283c-0.788-59.077,46.474-107.914,105.551-109.489
	c61.44-1.575,111.852,47.262,111.852,108.702c0,33.083-14.966,63.803-40.172,84.283c-11.028,8.665-17.329,20.48-17.329,33.083
	C303.655,279.631,300.505,282.782,295.779,282.782z M216.222,267.028h72.468c2.363-14.178,10.24-27.569,22.055-37.809
	c22.055-18.117,33.871-44.111,33.871-71.68c0-51.988-43.323-94.523-96.098-92.948c-49.625,1.575-90.585,44.111-89.797,93.735
	c0,28.357,13.391,54.351,35.446,72.468C205.982,239.458,213.859,252.849,216.222,267.028z"/>
<path style="fill:#FFFFFF;" d="M198.892,274.905v23.631c0,29.145,23.631,53.563,53.563,53.563l0,0
	c29.145,0,53.563-23.631,53.563-53.563v-23.631H198.892z"/>
<path style="fill:#183651;" d="M252.455,359.975c-33.871,0-61.44-27.569-61.44-61.44v-23.631c0-4.726,3.151-7.877,7.877-7.877
	h106.338c4.726,0,7.877,3.151,7.877,7.877v23.631C313.895,332.406,286.326,359.975,252.455,359.975z M206.769,282.782v15.754
	c0,25.206,20.48,45.686,45.686,45.686c25.206,0,45.686-20.48,45.686-45.686v-15.754H206.769z"/>
<path style="fill:#FBBD5E;" d="M252.455,86.646h-2.363c-37.809,0.788-69.317,33.871-68.529,71.68
	c0,21.268,10.24,41.748,26.782,55.138c11.028,8.665,18.905,19.692,23.631,31.508v22.843h39.385v-22.843
	c5.514-12.603,13.391-23.631,25.206-32.295c16.542-13.391,25.994-33.871,25.994-55.138
	C323.348,118.154,291.84,86.646,252.455,86.646z"/>
<g>
	<path style="fill:#183651;" d="M252.455,282.782c-4.726,0-7.877-3.151-7.877-7.877v-75.618c0-4.726,3.151-7.877,7.877-7.877
		c4.726,0,7.877,3.151,7.877,7.877v75.618C260.332,279.631,257.182,282.782,252.455,282.782z"/>
	<path style="fill:#183651;" d="M252.455,207.163c-2.363,0-4.726-0.788-6.302-3.151l-31.508-40.172
		c-2.363-3.151-2.363-8.665,1.575-11.028c3.151-2.363,8.665-2.363,11.028,1.575l25.206,32.295l25.206-32.295
		c2.363-3.151,7.877-3.938,11.028-1.575s3.938,7.877,1.575,11.028l-31.508,40.172C257.182,205.588,254.819,207.163,252.455,207.163z
		"/>
</g>
<g>
</g>
<g>
</g>
<g>
</g>
<g>
</g>
<g>
</g>
<g>
</g>
<g>
</g>
<g>
</g>
<g>
</g>
<g>
</g>
<g>
</g>
<g>
</g>
<g>
</g>
<g>
</g>
<g>
</g>
</svg>
