<?xml version="1.0" encoding="iso-8859-1"?>
<!-- Generator: Adobe Illustrator 19.0.0, SVG Export Plug-In . SVG Version: 6.00 Build 0)  -->
<svg version="1.1" id="Capa_1" xmlns="http://www.w3.org/2000/svg" xmlns:xlink="http://www.w3.org/1999/xlink" x="0px" y="0px"
	 viewBox="0 0 503.335 503.335" style="enable-background:new 0 0 503.335 503.335;" xml:space="preserve">
<path style="fill:#FFFFFF;" d="M493.933,180.382c0-100.037-81.92-180.382-178.018-168.566
	c-74.043,8.665-133.12,72.468-140.997,151.237c-6.302,65.378,22.843,124.455,69.317,157.538c15.754,11.815,25.206,30.72,25.206,51.2
	v91.372h129.182v-90.585c0-20.48,9.452-40.172,25.206-51.2C465.576,290.658,493.933,238.671,493.933,180.382z"/>
<path style="fill:#183651;" d="M398.623,471.828H269.441c-3.938,0-7.877-3.151-7.877-7.877v-91.372
	c0-18.117-7.877-35.446-22.055-44.898c-51.2-37.022-78.769-100.037-72.468-164.628C174.918,80.345,237.146,13.391,314.34,4.726
	c7.089-1.575,13.391-2.363,19.692-2.363c92.16,0,167.779,79.557,167.779,178.018c0,59.077-27.569,114.215-73.255,147.298
	c-13.391,9.452-22.055,26.782-22.055,44.898v91.372C405.712,468.677,402.561,471.828,398.623,471.828z M277.318,456.074h113.428
	v-83.495c0-23.631,10.24-44.898,28.357-57.502c41.748-29.932,66.954-80.345,66.954-134.695c0-89.797-68.529-162.265-152.025-162.265
	c-5.514,0-11.815,0-17.329,0.788C245.81,27.569,189.884,88.222,182.795,163.84c-5.514,59.865,19.692,117.366,66.166,151.237
	c18.117,12.603,28.357,34.658,28.357,57.502L277.318,456.074L277.318,456.074z"/>
<path style="fill:#E0E4E8;" d="M260.776,294.597c23.631,17.329,37.809,46.474,37.809,77.194v6.302h69.317v-6.302
	c0-31.508,14.178-60.652,37.809-77.194c36.234-25.994,57.502-68.529,57.502-115.003c0-76.406-58.289-138.634-129.969-138.634
	c-4.726,0-10.24,0-14.966,0.788c-59.865,8.665-107.914,59.865-114.215,124.455C199.336,217.403,221.392,266.24,260.776,294.597z"/>
<rect x="302.524" y="463.951" style="fill:#FFFFFF;" width="63.015" height="31.508"/>
<path style="fill:#183651;" d="M365.54,503.335h-63.015c-3.938,0-7.877-3.151-7.877-7.877v-31.508c0-3.938,3.151-7.877,7.877-7.877
	h63.015c3.938,0,7.877,3.151,7.877,7.877v31.508C372.629,500.185,369.478,503.335,365.54,503.335z M310.401,487.582h47.262v-15.754
	h-47.262V487.582z"/>
<path style="fill:#183651;" d="M404.924,444.258H263.14c-3.938,0-7.877-3.151-7.877-7.877c0-4.726,3.151-7.877,7.877-7.877h141.785
	c3.938,0,7.877,3.151,7.877,7.877C412.801,441.108,408.863,444.258,404.924,444.258z"/>
<path style="fill:#183651;" d="M404.924,416.689H263.14c-3.938,0-7.877-3.151-7.877-7.877c0-3.938,3.151-7.877,7.877-7.877h141.785
	c3.938,0,7.877,3.151,7.877,7.877S408.863,416.689,404.924,416.689z"/>
<path style="fill:#183651;" d="M404.924,389.12H263.14c-3.938,0-7.877-3.151-7.877-7.877c0-3.938,3.151-7.877,7.877-7.877h141.785
	c3.938,0,7.877,3.151,7.877,7.877C412.801,385.182,408.863,389.12,404.924,389.12z"/>
<g>
	<path style="fill:#183651;" d="M337.97,385.182c-3.938,0-7.877-3.151-7.877-7.877V224.492c0-3.938,3.151-7.877,7.877-7.877
		c3.938,0,7.877,3.151,7.877,7.877v153.6C345.847,382.031,342.696,385.182,337.97,385.182z"/>
	<path style="fill:#183651;" d="M334.032,235.52L334.032,235.52c-2.363,0-4.726-1.575-6.302-3.151l-44.111-61.44
		c-2.363-3.151-1.575-8.665,1.575-11.028c3.151-2.363,8.665-1.575,11.028,1.575l37.809,52.775l37.809-53.563
		c2.363-3.151,7.089-3.938,11.028-1.575c3.151,2.363,3.938,7.089,1.575,11.028l-44.111,62.228
		C338.758,234.732,336.395,235.52,334.032,235.52z"/>
</g>
<g>
	<path style="fill:#FFFFFF;" d="M419.103,155.963c-6.302-27.569-24.418-50.412-48.049-61.44c-3.938-1.575-5.514-6.302-3.938-10.24
		c1.575-3.938,6.302-5.514,9.452-3.938c28.357,13.391,49.625,40.172,56.714,72.468c0.788,3.938-1.575,8.665-5.514,9.452
		C423.829,163.052,419.89,159.902,419.103,155.963z"/>
	<path style="fill:#FFFFFF;" d="M328.518,177.231c0-100.825-81.132-180.382-178.018-169.354
		C76.456,16.542,17.38,81.132,9.503,159.902C3.201,225.28,32.346,284.357,78.82,317.44c15.754,11.815,25.206,30.72,25.206,51.2
		v91.372h129.182V368.64c0-20.48,9.452-40.172,25.206-51.2C300.949,287.508,328.518,235.52,328.518,177.231z"/>
</g>
<path style="fill:#183651;" d="M233.207,468.677H104.026c-3.938,0-7.877-3.151-7.877-7.877v-92.16
	c0-18.117-7.877-35.446-22.055-44.898C23.681,287.508-3.888,223.705,2.413,159.114C10.29,76.406,72.518,9.452,149.712,0.788
	C156.013,0,162.315,0,168.616,0c92.16,0,167.778,79.557,167.778,178.018c0,59.077-27.569,114.215-74.043,147.298
	c-13.391,9.452-22.055,26.782-22.055,44.898v91.372C241.084,464.738,237.146,468.677,233.207,468.677z M111.903,452.923H225.33
	V368.64c0-23.631,10.24-44.898,28.357-57.502c41.748-29.932,66.954-80.345,66.954-134.695c0-89.797-68.529-162.265-152.025-162.265
	c-5.514,0-11.815,0-17.329,0.788C80.395,23.631,24.469,84.283,17.38,159.902c-5.514,59.865,19.692,117.366,66.166,151.237
	c18.117,12.603,28.357,34.658,28.357,57.502C111.903,368.64,111.903,452.923,111.903,452.923z"/>
<path style="fill:#2EA0DA;" d="M96.149,291.446c23.631,17.329,37.809,46.474,37.809,77.194v9.452h69.317v-9.452
	c0-31.508,14.178-60.652,37.809-77.194c36.234-25.994,57.502-68.529,57.502-115.003c0-76.406-58.289-138.634-129.969-138.634
	c-4.726,0-10.24,0-14.966,0.788C93.786,46.474,44.949,98.462,39.435,163.052C34.709,213.465,55.976,263.089,96.149,291.446z"/>
<rect x="137.109" y="460.8" style="fill:#FFFFFF;" width="63.015" height="31.508"/>
<path style="fill:#183651;" d="M200.124,500.185h-63.015c-3.938,0-7.877-3.151-7.877-7.877V460.8c0-3.938,3.151-7.877,7.877-7.877
	h63.015c3.938,0,7.877,3.151,7.877,7.877v31.508C208.001,496.246,204.063,500.185,200.124,500.185z M144.986,484.431h47.262v-15.754
	h-47.262V484.431z"/>
<g>
	<path style="fill:#183651;" d="M168.616,385.182c-3.938,0-7.877-3.151-7.877-7.877V224.492c0-3.938,3.151-7.877,7.877-7.877
		c3.938,0,7.877,3.151,7.877,7.877v153.6C176.493,382.031,173.343,385.182,168.616,385.182z"/>
	<path style="fill:#183651;" d="M168.616,232.369c-2.363,0-4.726-1.575-6.302-3.151l-44.111-61.44
		c-2.363-3.151-1.575-8.665,1.575-11.028c3.151-2.363,8.665-1.575,11.028,1.575l37.809,52.775l37.809-53.563
		c2.363-3.151,7.089-3.938,11.028-1.575c3.151,2.363,3.938,7.089,1.575,11.028l-44.111,62.228
		C174.13,230.794,171.767,232.369,168.616,232.369z"/>
</g>
<g>
	<path style="fill:#FFFFFF;" d="M254.475,152.812c-6.302-27.569-24.418-50.412-48.049-61.44c-3.938-1.575-5.514-6.302-3.938-10.24
		s6.302-5.514,9.452-3.938c28.357,13.391,49.625,40.172,56.714,72.468c0.788,3.938-1.575,8.665-5.514,9.452
		C259.201,159.114,255.263,156.751,254.475,152.812z"/>
</g>
<path style="fill:#183651;" d="M239.509,440.32H97.724c-3.938,0-7.877-3.151-7.877-7.877s3.151-7.877,7.877-7.877h141.785
	c3.938,0,7.877,3.151,7.877,7.877S244.235,440.32,239.509,440.32z"/>
<path style="fill:#183651;" d="M239.509,412.751H97.724c-3.938,0-7.877-3.151-7.877-7.877c0-3.938,3.151-7.877,7.877-7.877h141.785
	c3.938,0,7.877,3.151,7.877,7.877C247.386,409.6,244.235,412.751,239.509,412.751z"/>
<g>
	<path style="fill:#183651;" d="M239.509,385.182H97.724c-3.938,0-7.877-3.151-7.877-7.877c0-3.938,3.151-7.877,7.877-7.877h141.785
		c3.938,0,7.877,3.151,7.877,7.877S244.235,385.182,239.509,385.182z"/>
	<rect x="28.407" y="374.154" style="fill:#183651;" width="15.754" height="15.754"/>
	<rect x="28.407" y="413.538" style="fill:#183651;" width="15.754" height="15.754"/>
	<rect x="28.407" y="452.923" style="fill:#183651;" width="15.754" height="15.754"/>
	<rect x="454.549" y="374.154" style="fill:#183651;" width="15.754" height="15.754"/>
	<rect x="454.549" y="413.538" style="fill:#183651;" width="15.754" height="15.754"/>
	<rect x="454.549" y="452.923" style="fill:#183651;" width="15.754" height="15.754"/>
</g>
<g>
</g>
<g>
</g>
<g>
</g>
<g>
</g>
<g>
</g>
<g>
</g>
<g>
</g>
<g>
</g>
<g>
</g>
<g>
</g>
<g>
</g>
<g>
</g>
<g>
</g>
<g>
</g>
<g>
</g>
</svg>
