<?xml version="1.0" encoding="iso-8859-1"?>
<!-- Generator: Adobe Illustrator 19.0.0, SVG Export Plug-In . SVG Version: 6.00 Build 0)  -->
<svg version="1.1" id="Capa_1" xmlns="http://www.w3.org/2000/svg" xmlns:xlink="http://www.w3.org/1999/xlink" x="0px" y="0px"
	 viewBox="0 0 504.187 504.187" style="enable-background:new 0 0 504.187 504.187;" xml:space="preserve">
<polygon style="fill:#E1E6E7;" points="87.466,7.925 346.617,7.925 346.617,415.949 7.909,415.949 7.909,87.482 "/>
<path style="fill:#183651;" d="M346.617,423.826H7.909c-4.726,0-7.877-3.151-7.877-7.877V87.482c0-2.363,0.788-3.938,2.363-5.514
	L81.952,2.411c1.575-1.575,3.151-2.363,5.514-2.363h259.151c4.726,0,7.877,3.151,7.877,7.877v408.025
	C354.493,420.676,350.555,423.826,346.617,423.826z M15.786,408.072H338.74V15.802H90.617L15.786,90.632V408.072z"/>
<polygon style="fill:#FFFFFF;" points="315.109,384.442 315.109,39.432 100.069,39.432 39.417,100.085 39.417,384.442 "/>
<polygon style="fill:#F06151;" points="87.466,87.482 7.909,87.482 87.466,7.925 "/>
<path style="fill:#183651;" d="M7.909,95.359c-3.151,0-6.302-1.575-7.089-4.726c-1.575-3.151-0.788-6.302,1.575-8.665L81.952,2.411
	c2.363-2.363,5.514-3.151,8.665-1.575c3.151,1.575,4.726,3.938,4.726,7.089v79.557c0,4.726-3.151,7.877-7.877,7.877H7.909z
	 M79.589,26.829L26.813,79.605h52.775V26.829z"/>
<polygon style="fill:#FBBD5E;" points="416.721,130.805 236.34,130.805 236.34,460.06 496.278,460.06 496.278,210.362 "/>
<path style="fill:#183651;" d="M496.278,467.937H236.34c-4.726,0-7.877-3.151-7.877-7.877V130.805c0-4.726,3.151-7.877,7.877-7.877
	h180.382c2.363,0,3.938,0.788,5.514,2.363l79.557,79.557c1.575,1.575,2.363,3.151,2.363,5.514V460.06
	C504.155,464.786,501.004,467.937,496.278,467.937z M244.217,452.183h244.185V213.512l-74.831-74.831H244.217V452.183z"/>
<polygon style="fill:#FFFFFF;" points="267.847,428.552 267.847,162.312 404.118,162.312 464.77,223.752 464.77,428.552 "/>
<polygon style="fill:#4FBF9F;" points="416.721,210.362 496.278,210.362 416.721,130.805 "/>
<g>
	<path style="fill:#183651;" d="M496.278,218.239L496.278,218.239h-79.557c-4.726,0-7.877-3.151-7.877-7.877v-79.557
		c0-3.151,1.575-6.302,4.726-7.089c3.151-1.575,6.302-0.788,8.665,1.575l79.557,79.557c2.363,2.363,3.151,5.514,1.575,8.665
		C502.58,216.663,499.429,218.239,496.278,218.239z M424.598,202.485h52.775l-52.775-52.775V202.485z"/>
	<rect x="292.266" y="194.608" style="fill:#183651;" width="15.754" height="15.754"/>
	<rect x="331.65" y="194.608" style="fill:#183651;" width="15.754" height="15.754"/>
	<rect x="370.247" y="194.608" style="fill:#183651;" width="15.754" height="15.754"/>
	<rect x="292.266" y="241.869" style="fill:#183651;" width="136.271" height="15.754"/>
	<rect x="292.266" y="289.131" style="fill:#183651;" width="136.271" height="15.754"/>
	<rect x="292.266" y="336.392" style="fill:#183651;" width="136.271" height="15.754"/>
	<rect x="292.266" y="384.442" style="fill:#183651;" width="100.037" height="15.754"/>
</g>
<path style="fill:#FFFFFF;" d="M109.521,362.386v111.852c0,11.815,10.24,22.055,22.055,22.055s22.055-10.24,22.055-22.055V362.386
	H109.521z"/>
<path style="fill:#183651;" d="M131.577,504.171c-16.542,0-29.932-13.391-29.932-29.932V362.386c0-4.726,3.151-7.877,7.877-7.877
	h44.111c4.726,0,7.877,3.151,7.877,7.877v111.852C161.509,490.78,148.118,504.171,131.577,504.171z M117.398,370.263v103.975
	c0,7.877,6.302,14.178,14.178,14.178s14.178-6.302,14.178-14.178V370.263H117.398z"/>
<circle style="fill:#2CA0DA;" cx="131.577" cy="306.46" r="80.345"/>
<path style="fill:#183651;" d="M131.577,394.682c-48.837,0-88.222-39.385-88.222-88.222s39.385-88.222,88.222-88.222
	s88.222,39.385,88.222,88.222S179.626,394.682,131.577,394.682z M131.577,233.205c-40.172,0-72.468,32.295-72.468,72.468
	s32.295,72.468,72.468,72.468s72.468-32.295,72.468-72.468C204.044,266.288,170.961,233.205,131.577,233.205z"/>
<path style="fill:#FFFFFF;" d="M131.577,360.023c-29.932,0-53.563-24.418-53.563-53.563s24.418-53.563,53.563-53.563
	c29.932,0,53.563,24.418,53.563,53.563S160.721,360.023,131.577,360.023z"/>
<g>
	<rect x="92.192" y="299.371" style="fill:#183651;" width="15.754" height="14.178"/>
	<rect x="154.42" y="299.371" style="fill:#183651;" width="15.754" height="14.178"/>
	<rect x="124.487" y="267.076" style="fill:#183651;" width="14.178" height="15.754"/>
	<rect x="124.487" y="329.303" style="fill:#183651;" width="14.178" height="15.754"/>
	<rect x="131.577" y="53.611" style="fill:#183651;" width="153.6" height="15.754"/>
	<rect x="131.577" y="92.996" style="fill:#183651;" width="53.563" height="15.754"/>
	<rect x="131.577" y="131.592" style="fill:#183651;" width="53.563" height="15.754"/>
	<rect x="131.577" y="170.977" style="fill:#183651;" width="53.563" height="15.754"/>
</g>
<g>
</g>
<g>
</g>
<g>
</g>
<g>
</g>
<g>
</g>
<g>
</g>
<g>
</g>
<g>
</g>
<g>
</g>
<g>
</g>
<g>
</g>
<g>
</g>
<g>
</g>
<g>
</g>
<g>
</g>
</svg>
