<?xml version="1.0" encoding="iso-8859-1"?>
<!-- Generator: Adobe Illustrator 19.0.0, SVG Export Plug-In . SVG Version: 6.00 Build 0)  -->
<svg version="1.1" id="Capa_1" xmlns="http://www.w3.org/2000/svg" xmlns:xlink="http://www.w3.org/1999/xlink" x="0px" y="0px"
	 viewBox="0 0 504.123 504.123" style="enable-background:new 0 0 504.123 504.123;" xml:space="preserve">
<circle style="fill:#E0E4E8;" cx="327.68" cy="176.443" r="176.443"/>
<path style="fill:#2EA0DA;" d="M450.56,356.825h-98.462v89.797c0,27.569,22.055,49.625,49.625,49.625l0,0
	c27.569,0,49.625-22.055,49.625-49.625v-89.797H450.56z"/>
<path style="fill:#183651;" d="M400.935,504.123c-31.508,0-57.502-25.994-57.502-57.502v-89.797c0-4.726,3.151-7.877,7.877-7.877
	h99.249c4.726,0,7.877,3.151,7.877,7.877v89.797C458.437,478.129,433.231,504.123,400.935,504.123z M359.975,364.702v81.92
	c0,22.843,18.905,41.748,41.748,41.748c22.843,0,41.748-18.905,41.748-41.748v-81.92H359.975z"/>
<path style="fill:#FFFFFF;" d="M400.935,464.738c-10.24,0-18.117-7.877-18.117-18.117v-58.289h36.234v58.289
	C419.052,456.862,411.175,464.738,400.935,464.738z"/>
<path style="fill:#FBBD5E;" d="M352.098,446.622V94.523H7.877v352.098c0,27.569,22.055,49.625,49.625,49.625h344.222l0,0
	C374.154,496.246,352.098,474.191,352.098,446.622z"/>
<path style="fill:#183651;" d="M400.935,504.123H57.502C25.994,504.123,0,478.129,0,446.622V94.523c0-4.726,3.151-7.877,7.877-7.877
	h344.222c4.726,0,7.877,3.151,7.877,7.877v352.098c0,22.843,18.905,41.748,41.748,41.748c4.726,0,7.877,3.151,7.877,7.877
	C408.812,500.972,405.662,504.123,400.935,504.123z M15.754,102.4v344.222c0,22.843,18.905,41.748,41.748,41.748h304.837
	c-11.028-10.24-18.117-25.206-18.117-41.748V102.4H15.754z"/>
<path style="fill:#FFFFFF;" d="M57.502,464.738c-10.24,0-18.117-7.877-18.117-18.117V126.031h281.206v320.591
	c0,6.302,0.788,11.815,2.363,18.117H57.502z"/>
<polygon style="fill:#F06151;" points="462.375,127.606 328.468,19.692 195.348,127.606 "/>
<path style="fill:#183651;" d="M462.375,135.483H195.348c-3.151,0-6.302-2.363-7.089-5.514c-0.788-3.151,0-6.302,2.363-8.665
	l133.12-107.914c3.151-1.575,7.089-1.575,10.24,0l133.12,108.702c2.363,2.363,3.938,5.514,2.363,8.665
	C468.677,133.908,465.526,135.483,462.375,135.483z M217.403,119.729h222.129L328.468,29.932L217.403,119.729z"/>
<rect x="204.8" y="248.911" style="fill:#FFFFFF;" width="248.123" height="32.295"/>
<path style="fill:#183651;" d="M452.923,288.295H204.8c-4.726,0-7.877-3.151-7.877-7.877v-32.295c0-4.726,3.151-7.877,7.877-7.877
	h248.123c4.726,0,7.877,3.151,7.877,7.877v32.295C460.8,285.145,457.649,288.295,452.923,288.295z M212.677,272.542h232.369V256
	H212.677V272.542z"/>
<rect x="225.28" y="127.606" style="fill:#FFFFFF;" width="39.385" height="120.517"/>
<path style="fill:#183651;" d="M264.665,256.788H225.28c-2.363,0-3.938-0.788-5.514-2.363c-1.575-1.575-2.363-3.151-2.363-5.514
	V128.394c0-4.726,3.151-7.877,7.877-7.877h39.385c2.363,0,3.938,0.788,5.514,2.363c1.575,1.575,2.363,3.151,2.363,5.514v120.517
	C272.542,252.849,268.603,256.788,264.665,256.788z M233.157,241.034h23.631V136.271h-23.631L233.157,241.034z"/>
<rect x="309.563" y="127.606" style="fill:#FFFFFF;" width="39.385" height="120.517"/>
<path style="fill:#183651;" d="M348.16,256.788h-39.385c-2.363,0-3.938-0.788-5.514-2.363c-1.575-1.575-2.363-3.151-2.363-5.514
	V128.394c0-4.726,3.151-7.877,7.877-7.877h39.385c2.363,0,3.938,0.788,5.514,2.363c1.575,1.575,2.363,3.151,2.363,5.514v120.517
	C356.037,252.849,352.886,256.788,348.16,256.788z M317.44,241.034h23.631V136.271H317.44V241.034z"/>
<rect x="393.058" y="127.606" style="fill:#FFFFFF;" width="39.385" height="120.517"/>
<path style="fill:#183651;" d="M432.443,256.788h-39.385c-2.363,0-3.938-0.788-5.514-2.363c-1.575-1.575-2.363-3.151-2.363-5.514
	V128.394c0-4.726,3.151-7.877,7.877-7.877h39.385c2.363,0,3.938,0.788,5.514,2.363c1.575,1.575,2.363,3.151,2.363,5.514v120.517
	C440.32,252.849,437.169,256.788,432.443,256.788z M400.935,241.034h23.631V136.271h-23.631V241.034z"/>
<circle style="fill:#FFFFFF;" cx="328.468" cy="81.92" r="22.055"/>
<path style="fill:#183651;" d="M149.662,416.689c-2.363,0-3.938-0.788-5.514-2.363l-61.44-61.44c-3.151-3.151-3.151-7.877,0-11.028
	c3.151-3.151,7.877-3.151,11.028,0l55.926,55.926l56.714-56.714c3.151-3.151,7.877-3.151,11.028,0l61.44,61.44
	c3.151,3.151,3.151,7.877,0,11.028c-3.151,3.151-7.877,3.151-11.028,0l-55.926-55.926l-56.714,56.714
	C153.6,415.902,152.025,416.689,149.662,416.689z"/>
<circle style="fill:#FFFFFF;" cx="211.889" cy="346.585" r="21.268"/>
<path style="fill:#183651;" d="M211.889,375.729c-15.754,0-29.145-13.391-29.145-29.145s13.391-29.145,29.145-29.145
	s29.145,13.391,29.145,29.145S227.643,375.729,211.889,375.729z M211.889,333.194c-7.089,0-13.391,6.302-13.391,13.391
	c0,7.089,6.302,13.391,13.391,13.391c7.089,0,13.391-6.302,13.391-13.391C225.28,339.495,218.978,333.194,211.889,333.194z"/>
<circle style="fill:#FFFFFF;" cx="88.222" cy="346.585" r="21.268"/>
<path style="fill:#183651;" d="M88.222,375.729c-15.754,0-29.145-13.391-29.145-29.145s13.391-29.145,29.145-29.145
	s29.145,13.391,29.145,29.145S104.763,375.729,88.222,375.729z M88.222,333.194c-7.089,0-13.391,6.302-13.391,13.391
	c0,7.089,6.302,13.391,13.391,13.391c7.089,0,13.391-6.302,13.391-13.391C101.612,339.495,96.098,333.194,88.222,333.194z"/>
<circle style="fill:#FFFFFF;" cx="151.237" cy="408.812" r="21.268"/>
<path style="fill:#183651;" d="M151.237,437.957c-15.754,0-29.145-13.391-29.145-29.145s13.391-29.145,29.145-29.145
	s29.145,13.391,29.145,29.145S166.991,437.957,151.237,437.957z M151.237,395.422c-7.089,0-13.391,6.302-13.391,13.391
	s6.302,13.391,13.391,13.391s13.391-6.302,13.391-13.391C164.628,401.723,158.326,395.422,151.237,395.422z"/>
<circle style="fill:#FFFFFF;" cx="273.329" cy="408.812" r="21.268"/>
<g>
	<path style="fill:#183651;" d="M273.329,437.957c-15.754,0-29.145-13.391-29.145-29.145s13.391-29.145,29.145-29.145
		s29.145,13.391,29.145,29.145S289.083,437.957,273.329,437.957z M273.329,395.422c-7.089,0-13.391,6.302-13.391,13.391
		s6.302,13.391,13.391,13.391c7.089,0,13.391-6.302,13.391-13.391S280.418,395.422,273.329,395.422z"/>
	<rect x="79.557" y="159.902" style="fill:#183651;" width="15.754" height="15.754"/>
	<rect x="122.092" y="159.902" style="fill:#183651;" width="15.754" height="15.754"/>
	<rect x="163.84" y="159.902" style="fill:#183651;" width="15.754" height="15.754"/>
	<rect x="79.557" y="198.498" style="fill:#183651;" width="100.037" height="15.754"/>
	<rect x="79.557" y="237.883" style="fill:#183651;" width="100.037" height="15.754"/>
</g>
<g>
</g>
<g>
</g>
<g>
</g>
<g>
</g>
<g>
</g>
<g>
</g>
<g>
</g>
<g>
</g>
<g>
</g>
<g>
</g>
<g>
</g>
<g>
</g>
<g>
</g>
<g>
</g>
<g>
</g>
</svg>
