<?xml version="1.0" encoding="iso-8859-1"?>
<!-- Generator: Adobe Illustrator 19.0.0, SVG Export Plug-In . SVG Version: 6.00 Build 0)  -->
<svg version="1.1" id="Capa_1" xmlns="http://www.w3.org/2000/svg" xmlns:xlink="http://www.w3.org/1999/xlink" x="0px" y="0px"
	 viewBox="0 0 504.123 504.123" style="enable-background:new 0 0 504.123 504.123;" xml:space="preserve">
<rect x="7.877" y="8.665" style="fill:#FBBD5E;" width="488.369" height="267.815"/>
<path style="fill:#183651;" d="M496.246,284.357H7.877c-4.726,0-7.877-3.151-7.877-7.877V8.665c0-4.726,3.151-7.877,7.877-7.877
	h488.369c4.726,0,7.877,3.151,7.877,7.877V276.48C504.123,280.418,500.972,284.357,496.246,284.357z M15.754,268.603h472.615V16.542
	H15.754V268.603z"/>
<path style="fill:#FFFFFF;" d="M47.262,207.163V77.194c16.542,0,29.932-13.391,29.932-29.932h350.523
	c0,16.542,13.391,29.932,29.932,29.932v129.969c-16.542,0-29.932,13.391-29.932,29.932H77.194
	C77.194,220.554,63.803,207.163,47.262,207.163z"/>
<g>
	<ellipse style="fill:#FBBD5E;" cx="252.062" cy="142.572" rx="70.892" ry="94.523"/>
	<circle style="fill:#FBBD5E;" cx="402.511" cy="142.572" r="18.905"/>
	<circle style="fill:#FBBD5E;" cx="101.612" cy="142.572" r="18.905"/>
</g>
<path style="fill:#FFFFFF;" d="M249.698,186.683v-7.877c-9.452-0.788-18.905-4.726-26.782-11.815l7.877-9.452
	c6.302,5.514,11.815,8.665,18.905,9.452v-20.48c-7.877-1.575-14.178-4.726-18.117-7.877c-3.938-3.151-5.514-7.877-5.514-14.178
	s2.363-11.028,6.302-14.966c4.726-3.938,10.24-6.302,16.542-6.302v-5.514H256v5.514c7.877,0.788,14.966,3.151,22.055,7.877
	l-6.302,10.24c-4.726-3.151-9.452-5.514-14.966-6.302v20.48l0,0c7.877,1.575,14.178,4.726,18.117,7.877
	c3.938,3.151,5.514,7.877,5.514,14.178c0,6.302-2.363,11.028-6.302,14.966c-4.726,3.938-10.24,6.302-17.329,6.302v7.877
	L249.698,186.683L249.698,186.683z M241.822,117.366c-1.575,1.575-2.363,3.938-2.363,6.302c0,2.363,0.788,3.938,2.363,5.514
	c1.575,1.575,3.938,2.363,7.877,3.938v-18.905C246.548,115.003,244.185,115.791,241.822,117.366z M264.665,164.628
	c2.363-1.575,3.151-3.938,3.151-6.302s-0.788-4.726-2.363-6.302c-1.575-1.575-4.726-3.151-8.665-3.938v19.692
	C259.938,166.991,263.089,166.203,264.665,164.628z"/>
<circle style="fill:#E0E4E8;" cx="145.723" cy="359.188" r="136.271"/>
<path style="fill:#183651;" d="M145.723,503.335c-79.557,0-144.148-64.591-144.148-144.148
	C0.788,279.631,66.166,215.04,145.723,215.04s144.148,64.591,144.148,144.148S225.28,503.335,145.723,503.335z M145.723,230.794
	c-70.892,0-128.394,57.502-128.394,128.394s57.502,128.394,128.394,128.394s128.394-57.502,128.394-128.394
	S216.615,230.794,145.723,230.794z"/>
<circle style="fill:#F06151;" cx="382.031" cy="381.243" r="114.215"/>
<path style="fill:#183651;" d="M382.031,503.335c-67.742,0-122.092-55.138-122.092-122.092s55.138-122.092,122.092-122.092
	s122.092,55.138,122.092,122.092S448.985,503.335,382.031,503.335z M382.031,274.117c-59.077,0-106.338,48.049-106.338,106.338
	s47.262,107.126,106.338,107.126s106.338-48.049,106.338-106.338S440.32,274.117,382.031,274.117z"/>
<path style="fill:#FFFFFF;" d="M145.723,460.012c-55.926,0-100.825-45.686-100.825-100.825s44.898-100.825,100.825-100.825
	s100.825,44.898,100.825,100.825S201.649,460.012,145.723,460.012z"/>
<g>
	<path style="fill:#E0E4E8;" d="M142.572,412.751v-9.452c-11.815-1.575-22.055-5.514-31.508-14.178l9.452-11.028
		c7.089,6.302,14.966,10.24,22.055,11.028v-25.206c-9.452-2.363-16.542-5.514-21.268-9.452c-4.726-3.938-7.089-9.452-7.089-16.542
		c0-7.089,2.363-13.391,7.877-18.117c5.514-4.726,11.815-7.089,20.48-7.877v-6.302h7.877v6.302
		c9.452,0.788,18.117,3.938,26.782,9.452l-7.877,12.603c-5.514-3.938-11.815-6.302-18.117-7.089v23.631l0,0
		c10.24,2.363,17.329,5.514,22.055,9.452c4.726,3.938,7.089,9.452,7.089,17.329s-2.363,13.391-7.877,18.117
		s-12.603,7.089-21.268,7.877v9.452H142.572z M133.908,329.255c-2.363,1.575-3.151,3.938-3.151,7.089
		c0,3.151,0.788,5.514,2.363,7.089c1.575,1.575,4.726,3.151,9.452,4.726v-22.055C138.634,326.105,136.271,327.68,133.908,329.255z
		 M160.689,385.969c2.363-1.575,3.938-4.726,3.938-7.089c0-3.151-0.788-5.514-3.151-7.089c-1.575-1.575-5.514-3.151-10.24-4.726
		v22.843C155.175,389.12,158.326,387.545,160.689,385.969z"/>
	<circle style="fill:#E0E4E8;" cx="219.766" cy="359.188" r="10.24"/>
	<circle style="fill:#E0E4E8;" cx="70.892" cy="359.188" r="10.24"/>
</g>
<path style="fill:#FFFFFF;" d="M381.243,464.738c-45.686,0-83.495-37.022-83.495-83.495c0-45.686,37.022-83.495,83.495-83.495
	c45.686,0,83.495,37.022,83.495,83.495C464.738,426.929,427.717,464.738,381.243,464.738z"/>
<g>
	<polygon style="fill:#F06151;" points="360.763,431.655 341.858,431.655 402.511,330.831 421.415,330.831 	"/>
	<circle style="fill:#F06151;" cx="403.298" cy="416.689" r="14.966"/>
	<circle style="fill:#F06151;" cx="359.975" cy="345.797" r="14.966"/>
</g>
<g>
</g>
<g>
</g>
<g>
</g>
<g>
</g>
<g>
</g>
<g>
</g>
<g>
</g>
<g>
</g>
<g>
</g>
<g>
</g>
<g>
</g>
<g>
</g>
<g>
</g>
<g>
</g>
<g>
</g>
</svg>
