<?xml version="1.0" encoding="iso-8859-1"?>
<!-- Generator: Adobe Illustrator 19.0.0, SVG Export Plug-In . SVG Version: 6.00 Build 0)  -->
<svg version="1.1" id="Capa_1" xmlns="http://www.w3.org/2000/svg" xmlns:xlink="http://www.w3.org/1999/xlink" x="0px" y="0px"
	 viewBox="0 0 504.123 504.123" style="enable-background:new 0 0 504.123 504.123;" xml:space="preserve">
<circle style="fill:#4FBF9F;" cx="252.062" cy="252.062" r="252.062"/>
<path style="fill:#FFFFFF;" d="M176.443,115.791H95.311c-14.178,0-26.782,8.665-30.72,20.48L7.877,311.926v89.009h488.369v-89.009
	l-56.714-176.443c-3.938-11.815-15.754-20.48-30.72-20.48H327.68"/>
<path style="fill:#183651;" d="M496.246,408.812H7.877c-4.726,0-7.877-3.151-7.877-7.877v-89.009c0-0.788,0-1.575,0-2.363
	L56.714,133.12c4.726-14.966,20.48-25.994,37.809-25.994h81.132c4.726,0,7.877,3.151,7.877,7.877s-3.151,7.877-7.877,7.877H95.311
	c-11.028,0-20.48,6.302-22.843,14.966L15.754,313.502v79.557h472.615v-79.557l-56.714-174.868
	c-2.363-8.665-11.815-14.966-22.843-14.966H327.68c-4.726,0-7.877-3.151-7.877-7.877c0-4.726,3.151-7.877,7.877-7.877h81.132
	c18.117,0,33.871,10.24,37.809,25.994l56.714,176.443c0,0.788,0,1.575,0,2.363v89.009
	C504.123,405.662,500.972,408.812,496.246,408.812z"/>
<polygon style="fill:#E1E6E7;" points="39.385,374.154 39.385,328.468 95.311,142.572 408.812,142.572 464.738,328.468 
	464.738,374.154 "/>
<polygon style="fill:#FFFFFF;" points="496.246,311.926 496.246,496.246 7.877,496.246 7.877,311.926 151.237,311.926 
	151.237,369.428 352.886,369.428 352.886,311.926 "/>
<path style="fill:#183651;" d="M496.246,504.123H7.877c-4.726,0-7.877-3.151-7.877-7.877v-184.32c0-4.726,3.151-7.877,7.877-7.877
	h143.36c4.726,0,7.877,3.151,7.877,7.877v49.625h185.895v-49.625c0-4.726,3.151-7.877,7.877-7.877h143.36
	c4.726,0,7.877,3.151,7.877,7.877v184.32C504.123,500.972,500.972,504.123,496.246,504.123z M15.754,488.369h472.615V319.803
	H360.763v49.625c0,4.726-3.151,7.877-7.877,7.877H151.237c-4.726,0-7.877-3.151-7.877-7.877v-49.625H15.754V488.369z"/>
<polygon style="fill:#FBBD5E;" points="39.385,464.738 39.385,343.434 119.729,343.434 119.729,400.935 384.394,400.935 
	384.394,343.434 464.738,343.434 464.738,464.738 "/>
<polygon style="fill:#FFFFFF;" points="288.295,66.166 215.828,66.166 215.828,248.911 171.717,248.911 252.062,333.982 
	332.406,248.911 288.295,248.911 "/>
<g>
	<path style="fill:#183651;" d="M252.062,341.858c-2.363,0-3.938-0.788-5.514-2.363l-80.345-85.071
		c-2.363-2.363-3.151-5.514-1.575-8.665c1.575-3.151,3.938-4.726,7.089-4.726h36.234V66.166c0-4.726,3.151-7.877,7.877-7.877h72.468
		c4.726,0,7.877,3.151,7.877,7.877v174.868h36.234c3.151,0,6.302,1.575,7.089,4.726c1.575,3.151,0.788,6.302-1.575,8.665
		l-80.345,85.071C256,341.071,254.425,341.858,252.062,341.858z M189.834,256.788l62.228,65.378l62.228-65.378h-25.994
		c-4.726,0-7.877-3.151-7.877-7.877V74.043h-56.714v174.868c0,4.726-3.151,7.877-7.877,7.877H189.834z"/>
	<rect x="192.197" y="427.717" style="fill:#183651;" width="15.754" height="15.754"/>
	<rect x="244.185" y="427.717" style="fill:#183651;" width="15.754" height="15.754"/>
	<rect x="296.172" y="427.717" style="fill:#183651;" width="15.754" height="15.754"/>
</g>
<g>
</g>
<g>
</g>
<g>
</g>
<g>
</g>
<g>
</g>
<g>
</g>
<g>
</g>
<g>
</g>
<g>
</g>
<g>
</g>
<g>
</g>
<g>
</g>
<g>
</g>
<g>
</g>
<g>
</g>
</svg>
