<?xml version="1.0" encoding="iso-8859-1"?>
<!-- Generator: Adobe Illustrator 19.0.0, SVG Export Plug-In . SVG Version: 6.00 Build 0)  -->
<svg version="1.1" id="Capa_1" xmlns="http://www.w3.org/2000/svg" xmlns:xlink="http://www.w3.org/1999/xlink" x="0px" y="0px"
	 viewBox="0 0 504.123 504.123" style="enable-background:new 0 0 504.123 504.123;" xml:space="preserve">
<circle style="fill:#E0E4E8;" cx="252.062" cy="252.062" r="252.062"/>
<polygon style="fill:#FFFFFF;" points="85.858,202.437 26.782,231.582 85.858,260.726 "/>
<path style="fill:#183651;" d="M85.858,268.603c-1.575,0-2.363,0-3.151-0.788l-59.077-29.145c-2.363-1.575-4.726-3.938-4.726-7.089
	c0-3.151,1.575-5.514,4.726-7.089l59.077-29.145c2.363-1.575,5.514-0.788,7.877,0c2.363,0.788,3.938,3.938,3.938,6.302v58.289
	c0,2.363-1.575,5.514-3.938,6.302C89.009,267.815,87.434,268.603,85.858,268.603z M44.111,231.582l33.871,16.542V215.04
	L44.111,231.582z"/>
<rect x="85.858" y="202.437" style="fill:#F06151;" width="91.372" height="58.289"/>
<path style="fill:#183651;" d="M177.231,268.603H85.858c-4.726,0-7.877-3.151-7.877-7.877v-58.289c0-4.726,3.151-7.877,7.877-7.877
	h91.372c4.726,0,7.877,3.151,7.877,7.877v58.289C185.108,264.665,181.957,268.603,177.231,268.603z M93.735,252.849h75.618v-42.535
	H93.735V252.849z"/>
<polygon style="fill:#FFFFFF;" points="418.265,260.726 477.342,231.582 418.265,202.437 "/>
<path style="fill:#183651;" d="M418.265,268.603c-1.575,0-3.151-0.788-3.938-1.575c-2.363-1.575-3.938-3.938-3.938-6.302v-58.289
	c0-2.363,1.575-5.514,3.938-6.302c2.363-1.575,5.514-1.575,7.877,0l59.077,29.145c2.363,1.575,4.726,3.938,4.726,7.089
	s-1.575,5.514-4.726,7.089l-59.865,28.357C420.628,267.815,419.052,268.603,418.265,268.603z M426.142,215.04v33.083l33.871-16.542
	L426.142,215.04z"/>
<rect x="326.892" y="202.437" style="fill:#F06151;" width="91.372" height="58.289"/>
<path style="fill:#183651;" d="M418.265,268.603h-91.372c-4.726,0-7.877-3.151-7.877-7.877v-58.289c0-2.363,0.788-3.938,2.363-5.514
	c1.575-1.575,3.151-2.363,5.514-2.363l0,0h91.372c4.726,0,7.877,3.151,7.877,7.877v58.289
	C426.142,264.665,422.203,268.603,418.265,268.603z M334.769,252.849h75.618v-42.535h-75.618V252.849z"/>
<polygon style="fill:#FFFFFF;" points="275.692,77.194 246.548,17.329 217.403,77.194 "/>
<path style="fill:#183651;" d="M275.692,85.071h-58.289c-2.363,0-5.514-1.575-6.302-3.938s-1.575-5.514,0-7.877l29.145-59.077
	c1.575-2.363,3.938-4.726,7.089-4.726l0,0c3.151,0,5.514,1.575,7.089,4.726l29.145,59.077c1.575,2.363,0.788,5.514,0,7.877
	C282.782,83.495,278.843,85.071,275.692,85.071z M230.006,69.317h33.083l-16.542-33.871L230.006,69.317z"/>
<rect x="217.403" y="77.194" style="fill:#4FBF9F;" width="58.289" height="91.372"/>
<path style="fill:#183651;" d="M275.692,175.655h-58.289c-4.726,0-7.877-3.151-7.877-7.877V77.194c0-4.726,3.151-7.877,7.877-7.877
	h58.289c4.726,0,7.877,3.151,7.877,7.877v91.372C283.569,172.505,280.418,175.655,275.692,175.655z M225.28,159.902h42.535V84.283
	H225.28V159.902z"/>
<path style="fill:#FFFFFF;" d="M199.286,363.126v14.178h95.311v-14.178c0-17.329,7.089-33.871,18.117-47.262
	c22.055-25.994,36.234-62.228,36.234-92.16c0-53.563-45.686-96.886-102.4-96.886s-102.4,43.323-102.4,96.886
	c0,29.932,14.178,66.166,36.234,92.16C192.197,329.255,199.286,345.797,199.286,363.126z"/>
<path style="fill:#183651;" d="M302.474,385.182H191.409v-22.055c0-14.966-5.514-29.145-16.542-41.748
	c-23.631-27.569-38.597-65.378-38.597-96.886c0-57.502,49.625-104.763,110.277-104.763s110.277,47.262,110.277,104.763
	c0,31.508-14.966,70.105-38.597,96.886c-10.24,12.603-16.542,26.782-16.542,41.748v22.055H302.474z M207.163,369.428h79.557v-6.302
	c0-18.117,7.089-37.022,20.48-51.988c21.268-24.418,34.658-59.077,34.658-86.646c0-48.837-42.535-89.009-94.523-89.009
	s-94.523,40.172-94.523,89.009c0,28.357,13.391,62.228,34.658,86.646c12.603,14.966,20.48,33.871,20.48,51.988v6.302H207.163z"/>
<path style="fill:#FBBD5E;" d="M246.548,155.963c-40.172,0-73.255,30.72-73.255,67.742c0,22.843,11.815,52.775,29.932,73.255
	c12.603,14.966,21.268,32.295,23.631,50.412v22.055h39.385v-22.055c3.151-18.117,11.028-35.446,23.631-50.412
	c17.329-20.48,29.932-50.412,29.932-73.255C319.803,186.683,287.508,155.963,246.548,155.963z"/>
<g>
	
		<rect x="370.011" y="148.816" transform="matrix(-0.5547 -0.8321 0.8321 -0.5547 457.1152 558.0358)" style="fill:#183651;" width="15.754" height="15.754"/>
	
		<rect x="321.483" y="101.561" transform="matrix(-0.8513 -0.5247 0.5247 -0.8513 552.3199 375.4155)" style="fill:#183651;" width="15.754" height="15.754"/>
	
		<rect x="106.951" y="149.045" transform="matrix(-0.8321 -0.5547 0.5547 -0.8321 123.3319 351.1852)" style="fill:#183651;" width="15.754" height="15.754"/>
	
		<rect x="103.113" y="300.708" transform="matrix(-0.555 -0.8318 0.8318 -0.555 -84.0993 572.1817)" style="fill:#183651;" width="15.753" height="15.753"/>
	
		<rect x="144.293" y="347.445" transform="matrix(-0.8511 -0.5249 0.5249 -0.8511 95.1688 737.6301)" style="fill:#183651;" width="15.753" height="15.753"/>
	
		<rect x="374.768" y="301.032" transform="matrix(-0.8318 -0.555 0.555 -0.8318 529.4893 778.2466)" style="fill:#183651;" width="15.753" height="15.753"/>
	
		<rect x="334.163" y="347.626" transform="matrix(-0.5246 -0.8514 0.8514 -0.5246 218.8049 833.1924)" style="fill:#183651;" width="15.755" height="15.755"/>
	
		<rect x="155.383" y="101.493" transform="matrix(-0.5246 -0.8514 0.8514 -0.5246 155.7884 305.7372)" style="fill:#183651;" width="15.755" height="15.755"/>
</g>
<path style="fill:#FFFFFF;" d="M192.985,377.305v74.043c31.508,22.843,75.618,22.843,107.126,0v-74.043H192.985z"/>
<path style="fill:#183651;" d="M246.548,476.554c-21.268,0-41.748-6.302-58.289-18.905c-2.363-1.575-3.151-3.938-3.151-6.302
	v-74.043c0-4.726,3.151-7.877,7.877-7.877h107.126c4.726,0,7.877,3.151,7.877,7.877v74.043c0,2.363-1.575,4.726-3.151,6.302
	C288.295,469.465,267.815,476.554,246.548,476.554z M200.862,447.409c13.391,8.665,29.145,13.391,45.686,13.391
	s32.295-4.726,45.686-13.391v-62.228h-91.372V447.409z"/>
<path style="fill:#183651;" d="M300.111,412.751H192.985c-4.726,0-7.877-3.151-7.877-7.877c0-4.726,3.151-7.877,7.877-7.877h107.126
	c4.726,0,7.877,3.151,7.877,7.877C307.988,409.6,304.837,412.751,300.111,412.751z"/>
<g>
	<path style="fill:#183651;" d="M300.111,442.683H192.985c-4.726,0-7.877-3.151-7.877-7.877s3.151-7.877,7.877-7.877h107.126
		c4.726,0,7.877,3.151,7.877,7.877S304.837,442.683,300.111,442.683z"/>
	<path style="fill:#183651;" d="M246.548,299.323c-17.329,0-30.72-25.206-30.72-58.289c0-4.726,3.151-7.877,7.877-7.877
		c4.726,0,7.877,3.151,7.877,7.877c0,25.994,9.452,42.535,14.966,42.535c4.726,0,14.966-14.966,14.966-42.535
		c0-4.726,3.151-7.877,7.877-7.877s7.877,3.151,7.877,7.877C277.268,274.117,264.665,299.323,246.548,299.323z"/>
	<path style="fill:#183651;" d="M246.548,385.182c-4.726,0-7.877-3.151-7.877-7.877v-85.858c0-4.726,3.151-7.877,7.877-7.877
		c4.726,0,7.877,3.151,7.877,7.877v85.858C254.425,381.243,251.274,385.182,246.548,385.182z"/>
</g>
<g>
</g>
<g>
</g>
<g>
</g>
<g>
</g>
<g>
</g>
<g>
</g>
<g>
</g>
<g>
</g>
<g>
</g>
<g>
</g>
<g>
</g>
<g>
</g>
<g>
</g>
<g>
</g>
<g>
</g>
</svg>
