<?xml version="1.0" encoding="iso-8859-1"?>
<!-- Generator: Adobe Illustrator 19.0.0, SVG Export Plug-In . SVG Version: 6.00 Build 0)  -->
<svg version="1.1" id="Capa_1" xmlns="http://www.w3.org/2000/svg" xmlns:xlink="http://www.w3.org/1999/xlink" x="0px" y="0px"
	 viewBox="0 0 504.123 504.123" style="enable-background:new 0 0 504.123 504.123;" xml:space="preserve">
<circle style="fill:#E1E6E7;" cx="252.062" cy="252.062" r="252.062"/>
<g>
	<rect x="179.594" y="200.862" style="fill:#183651;" width="15.754" height="15.754"/>
	<rect x="179.594" y="154.388" style="fill:#183651;" width="15.754" height="15.754"/>
	<rect x="179.594" y="107.126" style="fill:#183651;" width="15.754" height="15.754"/>
	<rect x="308.775" y="381.243" style="fill:#183651;" width="15.754" height="15.754"/>
	<rect x="308.775" y="333.982" style="fill:#183651;" width="15.754" height="15.754"/>
	<rect x="308.775" y="287.508" style="fill:#183651;" width="15.754" height="15.754"/>
</g>
<rect x="7.877" y="268.603" style="fill:#FFFFFF;" width="211.889" height="227.643"/>
<path style="fill:#183651;" d="M219.766,504.123H7.877c-4.726,0-7.877-3.151-7.877-7.877V268.603c0-4.726,3.151-7.877,7.877-7.877
	h211.889c4.726,0,7.877,3.151,7.877,7.877v227.643C227.643,500.972,224.492,504.123,219.766,504.123z M15.754,488.369h196.135
	V276.48H15.754V488.369z"/>
<path style="fill:#2CA0DA;" d="M183.532,423.778v45.686H44.898v-45.686c0-15.754,13.391-29.145,30.72-29.932
	c8.665,12.603,22.843,20.48,38.597,20.48s29.145-7.877,38.597-20.48C169.354,394.634,183.532,408.025,183.532,423.778z"/>
<ellipse style="fill:#FBBD5E;" cx="114.215" cy="351.311" rx="37.022" ry="46.474"/>
<path style="fill:#F06151;" d="M154.388,319.015c-0.788-8.665-7.877-14.178-16.542-18.117c-14.966-7.089-33.083-7.089-48.049,0
	c-7.877,3.938-14.966,9.452-16.542,18.117c0,0-11.815,7.089,3.938,40.172c0,0-3.938-7.877,7.877-15.754
	c0,0-5.514-14.966,9.452-14.966c0,0,12.603,6.302,19.692,4.726c7.089,1.575,19.692-4.726,19.692-4.726
	c14.178,0,9.452,14.966,9.452,14.966c11.028,7.877,7.877,15.754,7.877,15.754C165.415,326.105,154.388,319.015,154.388,319.015z"/>
<rect x="284.357" y="7.877" style="fill:#FFFFFF;" width="211.889" height="227.643"/>
<path style="fill:#183651;" d="M496.246,243.397H284.357c-4.726,0-7.877-3.151-7.877-7.877V7.877c0-4.726,3.151-7.877,7.877-7.877
	h211.889c4.726,0,7.877,3.151,7.877,7.877V235.52C504.123,240.246,500.972,243.397,496.246,243.397z M292.234,227.643h196.135
	V15.754H292.234V227.643z"/>
<path style="fill:#2CA0DA;" d="M459.225,163.052v45.686H320.591v-45.686c0-15.754,13.391-29.145,30.72-29.932
	c8.665,12.603,22.843,20.48,38.597,20.48s29.145-7.877,38.597-20.48C445.834,133.908,459.225,147.298,459.225,163.052z"/>
<ellipse style="fill:#FBBD5E;" cx="389.908" cy="91.372" rx="37.022" ry="46.474"/>
<path style="fill:#F06151;" d="M430.868,58.289c-0.788-8.665-7.877-14.178-16.542-18.117c-14.966-7.089-33.083-7.089-48.049,0
	c-7.877,3.938-14.966,9.452-16.542,18.117c0,0-11.815,7.089,3.938,40.172c0,0-3.938-7.877,7.877-15.754
	c0,0-5.514-14.966,9.452-14.966c0,0,12.603,6.302,19.692,4.726c7.089,0.788,18.905-5.514,18.905-5.514
	c14.178,0,9.452,14.966,9.452,14.966c11.028,7.877,7.877,15.754,7.877,15.754C441.895,65.378,430.868,58.289,430.868,58.289z"/>
<path style="fill:#E1E6E7;" d="M455.286,338.708l-38.597-51.988l-38.597,51.988h22.843v72.468c0,11.028-8.665,19.692-19.692,19.692
	h-87.434v31.508h87.434c28.357,0,51.2-22.843,51.2-51.2v-72.468H455.286z"/>
<path style="fill:#183651;" d="M381.243,470.252h-87.434c-4.726,0-7.877-3.151-7.877-7.877v-31.508c0-4.726,3.151-7.877,7.877-7.877
	h87.434c6.302,0,11.815-5.514,11.815-11.815v-64.591h-14.966c-3.151,0-5.514-1.575-7.089-3.938
	c-1.575-2.363-0.788-5.514,0.788-7.877l38.597-51.988c1.575-2.363,3.938-3.151,6.302-3.151l0,0c2.363,0,4.726,1.575,6.302,3.151
	l38.597,51.988c1.575,2.363,2.363,5.514,0.788,7.877c-1.575,2.363-3.938,3.938-7.089,3.938H440.32v64.591
	C440.32,444.258,414.326,470.252,381.243,470.252z M301.686,454.498h79.557c23.631,0,43.323-19.692,43.323-43.323v-72.468
	c0-4.726,3.151-7.877,7.877-7.877h7.089l-22.843-31.508l-22.843,31.508h7.089c4.726,0,7.877,3.151,7.877,7.877v72.468
	c0,14.966-12.603,27.569-27.569,27.569h-79.557V454.498z"/>
<path style="fill:#E1E6E7;" d="M48.837,165.415l38.597,51.988l38.597-51.988h-22.843V92.948c0-11.028,8.665-19.692,19.692-19.692
	h87.434V41.748H122.88c-28.357,0-51.2,22.843-51.2,51.2v72.468H48.837z"/>
<path style="fill:#183651;" d="M87.434,225.28L87.434,225.28c-2.363,0-4.726-1.575-6.302-3.151l-38.597-51.988
	c-1.575-2.363-2.363-5.514-0.788-7.877s3.938-3.938,7.089-3.938h14.966V93.735c0-32.295,26.782-59.077,59.077-59.077h87.434
	c4.726,0,7.877,3.151,7.877,7.877v31.508c0,4.726-3.151,7.877-7.877,7.877H122.88c-6.302,0-11.815,5.514-11.815,11.815v64.591
	h14.966c3.151,0,5.514,1.575,7.089,3.938c1.575,2.363,0.788,5.514-0.788,7.877l-38.597,51.988
	C92.16,224.492,89.797,225.28,87.434,225.28z M64.591,173.292L87.434,204.8l22.843-31.508h-7.089c-4.726,0-7.877-3.151-7.877-7.877
	V92.948c0-14.966,12.603-27.569,27.569-27.569h79.557V49.625H122.88c-23.631,0-43.323,19.692-43.323,43.323v72.468
	c0,4.726-3.151,7.877-7.877,7.877H64.591z"/>
<g>
</g>
<g>
</g>
<g>
</g>
<g>
</g>
<g>
</g>
<g>
</g>
<g>
</g>
<g>
</g>
<g>
</g>
<g>
</g>
<g>
</g>
<g>
</g>
<g>
</g>
<g>
</g>
<g>
</g>
</svg>
