<?xml version="1.0" encoding="iso-8859-1"?>
<!-- Generator: Adobe Illustrator 19.0.0, SVG Export Plug-In . SVG Version: 6.00 Build 0)  -->
<svg version="1.1" id="Capa_1" xmlns="http://www.w3.org/2000/svg" xmlns:xlink="http://www.w3.org/1999/xlink" x="0px" y="0px"
	 viewBox="0 0 504.911 504.911" style="enable-background:new 0 0 504.911 504.911;" xml:space="preserve">
<circle style="fill:#2EA0DA;" cx="252.455" cy="252.849" r="252.062"/>
<rect x="62.622" y="71.68" style="fill:#FFFFFF;" width="378.88" height="425.354"/>
<path style="fill:#183651;" d="M442.289,504.911H62.622c-4.726,0-7.877-3.151-7.877-7.877V71.68c0-4.726,3.151-7.877,7.877-7.877
	h378.88c4.726,0,7.877,3.151,7.877,7.877v425.354C450.166,501.76,446.228,504.911,442.289,504.911z M70.498,489.157h363.126v-409.6
	H70.498V489.157z"/>
<rect x="94.129" y="103.188" style="fill:#FBBD5E;" width="315.865" height="362.338"/>
<polygon style="fill:#FFFFFF;" points="342.252,113.428 162.658,113.428 183.926,44.898 320.985,44.898 "/>
<path style="fill:#183651;" d="M342.252,121.305L342.252,121.305H162.658c-2.363,0-4.726-1.575-6.302-3.151
	s-1.575-4.726-0.788-7.089l21.268-69.317c0.788-3.151,3.938-5.514,7.877-5.514h137.058c3.151,0,6.302,2.363,7.877,5.514
	l21.268,67.742c0.788,0.788,0.788,2.363,0.788,3.938C350.129,118.154,346.978,121.305,342.252,121.305z M172.898,105.551h158.326
	l-16.542-53.563H189.44L172.898,105.551z"/>
<circle style="fill:#FFFFFF;" cx="252.455" cy="44.898" r="36.234"/>
<path style="fill:#183651;" d="M252.455,88.222c-24.418,0-44.111-19.692-44.111-44.111S228.037,0,252.455,0
	s44.111,19.692,44.111,44.111S276.874,88.222,252.455,88.222z M252.455,16.542c-15.754,0-28.357,12.603-28.357,28.357
	s12.603,28.357,28.357,28.357s28.357-12.603,28.357-28.357S268.209,16.542,252.455,16.542z"/>
<path style="fill:#FFFFFF;" d="M367.458,267.815c-12.603,0-23.631,7.877-28.357,18.117v-74.043h-74.043
	c11.028-4.726,18.117-15.754,18.117-28.357c0-16.542-13.391-30.72-30.72-30.72s-30.72,13.391-30.72,30.72
	c0,12.603,7.877,23.631,18.117,28.357h-74.043v74.043c-4.726-11.028-15.754-18.117-28.357-18.117
	c-16.542,0-30.72,13.391-30.72,30.72c0,16.542,13.391,30.72,30.72,30.72c12.603,0,23.631-7.877,28.357-18.117v74.043h74.043
	c-11.028,4.726-18.117,15.754-18.117,28.357c0,16.542,13.391,30.72,30.72,30.72c16.542,0,30.72-13.391,30.72-30.72
	c0-12.603-7.877-23.631-18.117-28.357h74.043v-74.043c4.726,11.028,15.754,18.117,28.357,18.117c16.542,0,30.72-13.391,30.72-30.72
	C398.178,281.206,384,267.815,367.458,267.815z"/>
<g>
	<path style="fill:#183651;" d="M252.455,449.772c-20.48,0-36.234-16.542-36.234-36.234c0-7.877,2.363-15.754,7.877-22.055h-57.502
		c-3.151,0-6.302-2.363-6.302-6.302V327.68c-6.302,4.726-14.178,7.877-22.055,7.877c-20.48,0-36.234-16.542-36.234-36.234
		c0-19.692,16.542-36.234,36.234-36.234c7.877,0,15.754,2.363,22.055,7.877v-57.502c0-3.151,2.363-6.302,6.302-6.302h57.502
		c-4.726-6.302-7.877-14.178-7.877-22.055c0-20.48,16.542-36.234,36.234-36.234s36.234,16.542,36.234,36.234
		c0,7.877-2.363,15.754-7.877,22.055h57.502c3.151,0,6.302,2.363,6.302,6.302v57.502c6.302-4.726,14.178-7.877,22.055-7.877
		c20.48,0,36.234,16.542,36.234,36.234c0,19.692-16.542,36.234-36.234,36.234c-7.877,0-15.754-2.363-22.055-7.877v57.502
		c0,3.151-2.363,6.302-6.302,6.302h-57.502c4.726,6.302,7.089,14.178,7.089,22.055C288.689,433.231,272.935,449.772,252.455,449.772
		z M171.323,378.88h68.529c3.151,0,5.514,1.575,5.514,4.726c0.788,2.363-0.788,5.514-3.151,6.302
		c-8.665,3.938-14.966,12.603-14.966,22.843c0,13.391,11.028,24.418,24.418,24.418s24.418-11.028,24.418-24.418
		c0-9.452-5.514-18.905-14.966-22.843c-2.363-0.788-3.938-3.938-3.151-6.302s3.151-4.726,5.514-4.726h68.529v-68.529
		c0-3.151,1.575-5.514,4.726-5.514c2.363-0.788,5.514,0.788,6.302,3.151c3.938,8.665,12.603,14.966,22.843,14.966
		c13.391,0,24.418-11.028,24.418-24.418c0-13.391-11.028-24.418-24.418-24.418c-9.452,0-18.905,5.514-22.843,14.966
		c-0.788,2.363-3.938,3.938-6.302,3.151c-2.363-0.788-4.726-3.151-4.726-5.514v-69.317h-68.529c-3.151,0-5.514-1.575-5.514-4.726
		c-0.788-2.363,0.788-5.514,3.151-6.302c8.665-3.938,14.966-12.603,14.966-22.843c0-13.391-11.028-24.418-24.418-24.418
		c-13.391,0-24.418,11.028-24.418,24.418c0,9.452,5.514,18.905,14.966,22.843c2.363,0.788,3.938,3.938,3.151,6.302
		c-0.788,2.363-3.151,4.726-5.514,4.726h-68.529v68.529c0,3.151-1.575,5.514-4.726,5.514c-2.363,0.788-5.514-0.788-6.302-3.151
		c-3.938-8.665-12.603-14.966-22.843-14.966c-13.391,0-24.418,11.028-24.418,24.418c0,13.391,11.028,24.418,24.418,24.418
		c9.452,0,18.905-5.514,22.843-14.966c0.788-2.363,3.938-3.938,6.302-3.151s4.726,3.151,4.726,5.514V378.88z"/>
	<rect x="187.077" y="231.582" style="fill:#183651;" width="15.754" height="15.754"/>
	<rect x="302.08" y="231.582" style="fill:#183651;" width="15.754" height="15.754"/>
	<rect x="187.077" y="349.735" style="fill:#183651;" width="15.754" height="15.754"/>
	<rect x="302.08" y="349.735" style="fill:#183651;" width="15.754" height="15.754"/>
	<polygon style="fill:#183651;" points="285.538,270.178 279.237,276.48 300.505,298.535 279.237,319.803 285.538,326.105 
		313.108,298.535 	"/>
	<polygon style="fill:#183651;" points="219.372,270.178 191.803,298.535 219.372,326.105 225.674,319.803 204.406,298.535 
		225.674,276.48 	"/>
	
		<rect x="220.576" y="293.561" transform="matrix(-0.4257 0.9049 -0.9049 -0.4257 629.5107 196.2423)" style="fill:#183651;" width="63.805" height="8.665"/>
</g>
<g>
</g>
<g>
</g>
<g>
</g>
<g>
</g>
<g>
</g>
<g>
</g>
<g>
</g>
<g>
</g>
<g>
</g>
<g>
</g>
<g>
</g>
<g>
</g>
<g>
</g>
<g>
</g>
<g>
</g>
</svg>
