<?xml version="1.0" encoding="iso-8859-1"?>
<!-- Generator: Adobe Illustrator 19.0.0, SVG Export Plug-In . SVG Version: 6.00 Build 0)  -->
<svg version="1.1" id="Capa_1" xmlns="http://www.w3.org/2000/svg" xmlns:xlink="http://www.w3.org/1999/xlink" x="0px" y="0px"
	 viewBox="0 0 504.123 504.123" style="enable-background:new 0 0 504.123 504.123;" xml:space="preserve">
<circle style="fill:#E1E6E7;" cx="252.849" cy="252.062" r="251.274"/>
<path style="fill:#FFFFFF;" d="M462.375,200.862c0,0-3.938,48.837-50.412,37.809c0,0-22.055-3.151-24.418-29.145l-2.363-7.089
	l-5.514-27.569l25.206-17.329l40.172-11.028l18.905,14.178v29.932L462.375,200.862z"/>
<path style="fill:#183651;" d="M424.566,248.123c-4.726,0-9.452-0.788-14.178-1.575c-9.452-1.575-27.569-11.028-30.72-35.446
	l-2.363-6.302l-6.302-28.357c-0.788-3.151,0.788-6.302,3.151-7.877l25.206-17.329c0.788-0.788,1.575-0.788,2.363-0.788
	l40.172-11.028c2.363-0.788,4.726,0,7.089,1.575l19.692,12.603c2.363,1.575,3.151,3.938,3.151,6.302v29.932v0.788l-1.575,11.815
	C469.465,218.191,457.649,248.123,424.566,248.123z M388.332,178.018l4.726,22.843l2.363,7.089c0,0.788,0,0.788,0,1.575
	c1.575,18.905,16.542,22.055,18.117,22.843c4.726,0.788,7.877,1.575,11.028,1.575c26.782,0,29.932-30.72,29.932-32.295l1.575-11.028
	v-25.206l-12.603-9.452l-35.446,9.452L388.332,178.018z"/>
<path style="fill:#F06151;" d="M385.182,202.437c0,0,1.575-7.089-7.089-11.815c0,0-15.754-41.748,22.055-54.351
	c0,0-3.151-3.151-2.363-7.877c0,0,5.514,3.151,32.295,2.363c0,0,18.117,1.575,22.843,15.754c0,0,27.569,0,14.966,43.323
	c0,0-7.089,3.938-6.302,11.815c0,0,5.514-37.022-17.329-32.295c0,0-21.268,10.24-36.234-3.938
	C408.812,164.628,380.455,154.388,385.182,202.437z"/>
<path style="fill:#183651;" d="M385.182,210.314C385.182,210.314,384.394,210.314,385.182,210.314c-4.726,0-7.089-3.151-7.877-7.089
	c0-1.575,0-2.363,0-3.938c-0.788-0.788-1.575-1.575-2.363-2.363c-1.575-0.788-3.151-2.363-3.151-3.938
	c0-0.788-8.665-22.843,0.788-42.535c3.938-7.877,10.24-14.966,18.905-18.905c0-1.575,0-3.151,0-4.726
	c0-2.363,2.363-4.726,4.726-6.302c2.363-0.788,4.726-0.788,7.089,0c0.788,0,7.877,2.363,28.357,0.788h0.788
	c0.788,0,18.905,1.575,27.569,16.542c3.938,0.788,10.24,3.938,14.966,9.452c7.089,9.452,7.877,23.631,2.363,42.535
	c-0.788,1.575-1.575,3.938-3.938,4.726l0,0c0,0-1.575,0.788-1.575,2.363c0,2.363-0.788,3.938-0.788,3.938
	c-0.788,3.938-3.938,7.089-7.877,6.302c-3.938,0-7.089-3.151-7.089-7.089c0-2.363,0-3.938,0.788-6.302
	c0.788-8.665-0.788-15.754-3.151-18.117c-0.788-0.788-2.363-1.575-4.726-0.788s-10.24,3.938-18.905,3.938
	c-8.665,0-17.329-3.151-23.631-8.665c-0.788,0-1.575,0-2.363,0c-3.151,0-4.726,1.575-5.514,2.363
	c-1.575,2.363-4.726,7.877-4.726,22.055c0.788,3.938,0.788,7.089,0,8.665C391.483,207.951,388.332,210.314,385.182,210.314z
	 M448.985,160.689c5.514,0,11.028,2.363,14.178,6.302c0,0,0,0,0.788,0.788c0-3.938-1.575-7.089-3.151-8.665
	c-3.151-3.938-7.877-3.938-7.877-3.938c-3.151,0-6.302-2.363-7.089-5.514c-3.151-8.665-13.391-10.24-15.754-11.028
	c-10.24,0.788-17.329,0-22.843,0c0,0,0,0,0,0.788c-0.788,2.363-2.363,4.726-4.726,5.514c-8.665,3.151-14.178,7.089-17.329,13.391
	c-1.575,3.151-2.363,6.302-2.363,9.452c0.788-1.575,1.575-2.363,2.363-3.151c4.726-4.726,10.24-7.089,16.542-7.089
	c4.726,0,7.877,1.575,8.665,1.575c0.788,0,1.575,0.788,2.363,1.575c3.938,3.938,8.665,5.514,14.178,5.514
	c7.089,0,13.391-3.151,13.391-3.151c0.788,0,0.788-0.788,1.575-0.788C445.046,160.689,447.409,160.689,448.985,160.689z"/>
<path style="fill:#FFFFFF;" d="M470.252,248.911c-9.452,12.603-24.418,22.055-45.686,22.055c-5.514,0-11.028-0.788-17.329-1.575
	c-8.665-1.575-22.055-7.877-31.508-20.48c-14.178,3.151-24.418,14.966-24.418,29.932v102.4h144.148v-102.4
	C495.458,263.877,484.431,251.274,470.252,248.911z"/>
<path style="fill:#183651;" d="M495.458,389.12H351.311c-4.726,0-7.877-3.151-7.877-7.877v-102.4
	c0-18.117,12.603-33.871,30.72-37.809c3.151-0.788,6.302,0.788,7.877,3.151c7.877,10.24,18.905,15.754,26.782,17.329
	c24.418,5.514,42.535-0.788,55.138-17.329c1.575-2.363,4.726-3.151,7.877-3.151c18.117,3.151,31.508,18.905,31.508,37.809v102.4
	C503.335,385.969,500.185,389.12,495.458,389.12z M359.188,373.366h129.182v-94.523c0-9.452-6.302-18.117-14.178-21.268
	c-16.542,18.117-40.172,25.206-67.742,18.905c-9.452-1.575-22.843-7.877-33.083-18.905c-8.665,3.151-14.178,11.815-14.178,21.268
	V373.366z"/>
<path style="fill:#FBBD5E;" d="M374.154,358.4v-79.557c12.603,8.665,24.418,11.815,29.145,12.603
	c7.089,1.575,14.966,2.363,21.268,2.363c18.117,0,34.658-5.514,48.049-15.754c0,0,0,0,0,0.788V358.4H374.154z"/>
<rect x="377.305" y="381.243" style="fill:#FFFFFF;" width="92.16" height="114.215"/>
<g>
	<path style="fill:#183651;" d="M469.465,503.335h-92.16c-4.726,0-7.877-3.151-7.877-7.877V381.243c0-4.726,3.151-7.877,7.877-7.877
		h92.16c4.726,0,7.877,3.151,7.877,7.877v114.215C477.342,500.185,474.191,503.335,469.465,503.335z M385.182,487.582h76.406V389.12
		h-76.406V487.582z"/>
	<path style="fill:#183651;" d="M423.778,503.335c-4.726,0-7.877-3.151-7.877-7.877v-84.283c0-4.726,3.151-7.877,7.877-7.877
		c4.726,0,7.877,3.151,7.877,7.877v84.283C431.655,500.185,427.717,503.335,423.778,503.335z"/>
</g>
<path style="fill:#FFFFFF;" d="M118.942,200.862c0,0-3.938,48.837-50.412,37.809c0,0-22.055-3.151-24.418-29.145l-2.363-7.089
	l-5.514-27.569l25.206-17.329l40.172-11.028l18.905,14.178v29.932L118.942,200.862z"/>
<path style="fill:#183651;" d="M81.132,248.123c-4.726,0-9.452,0-14.178-1.575c-9.452-1.575-27.569-11.028-30.72-35.446
	l-2.363-6.302l-6.302-28.357c-0.788-3.151,0.788-6.302,3.151-7.877l25.206-17.329c0.788-0.788,1.575-0.788,2.363-0.788
	l40.172-11.028c2.363-0.788,4.726,0,7.089,1.575l18.905,14.178c2.363,1.575,3.151,3.938,3.151,6.302v29.932v0.788l-1.575,11.815
	C126.031,218.191,115.003,248.123,81.132,248.123z M44.898,178.018l4.726,22.843l2.363,7.089c0,0.788,0,0.788,0,1.575
	c1.575,18.905,16.542,22.055,18.117,22.843c4.726,0.788,7.877,1.575,11.028,1.575c26.782,0,29.932-30.72,29.932-32.295l1.575-11.028
	v-25.206l-12.603-9.452l-35.446,9.452L44.898,178.018z"/>
<path style="fill:#F06151;" d="M41.748,202.437c0,0,1.575-7.089-7.089-11.815c0,0-15.754-41.748,22.055-54.351
	c0,0-3.151-3.151-2.363-7.877c0,0,5.514,3.151,32.295,2.363c0,0,18.117,1.575,22.843,15.754c0,0,27.569,0,14.966,43.323
	c0,0-7.089,3.938-6.302,11.815c0,0,5.514-37.022-17.329-32.295c0,0-21.268,10.24-36.234-3.938
	C65.378,164.628,37.809,154.388,41.748,202.437z"/>
<path style="fill:#183651;" d="M41.748,210.314L41.748,210.314c-4.726,0-7.089-3.151-7.877-7.089c0-1.575,0-2.363,0-3.938
	c-0.788-0.788-1.575-1.575-2.363-2.363c-1.575-0.788-3.151-2.363-3.938-3.938c0-0.788-8.665-22.843,0.788-42.535
	c3.938-7.877,10.24-14.966,18.905-18.905c0-1.575,0-3.151,0-4.726c0-2.363,2.363-4.726,4.726-6.302c2.363-0.788,4.726-0.788,7.089,0
	c0.788,0,7.877,2.363,28.357,0.788h0.788c0.788,0,18.905,1.575,27.569,16.542c3.938,0.788,10.24,3.938,14.966,9.452
	c7.089,9.452,7.877,23.631,2.363,42.535c-0.788,1.575-1.575,3.938-3.938,4.726l0,0c0,0-1.575,0.788-1.575,2.363
	c0,2.363-0.788,3.938-0.788,3.938c-0.788,3.938-3.938,7.089-7.877,6.302c-3.938,0-7.089-3.151-7.089-7.089
	c0-2.363,0-3.938,0.788-6.302c0.788-8.665-0.788-15.754-3.151-18.117c-0.788-0.788-2.363-1.575-4.726-0.788
	c-2.363,0.788-10.24,3.938-18.905,3.938s-17.329-3.151-23.631-8.665c-0.788,0-1.575,0-2.363,0c-3.151,0-4.726,1.575-5.514,2.363
	c-1.575,2.363-4.726,7.877-4.726,22.055c0.788,3.938,0.788,7.089,0,8.665C48.837,207.951,45.686,210.314,41.748,210.314z
	 M105.551,160.689c5.514,0,11.028,2.363,14.178,6.302c0,0,0,0,0.788,0.788c0-3.938-1.575-7.089-3.151-8.665
	c-3.151-3.938-7.877-3.938-7.877-3.938c-3.151,0-6.302-2.363-7.089-5.514c-3.151-8.665-13.391-10.24-15.754-11.028
	c-10.24,0.788-17.329,0-22.843,0l0,0c-0.788,2.363-2.363,4.726-4.726,5.514c-8.665,3.151-14.178,7.089-17.329,13.391
	c-1.575,3.151-2.363,6.302-2.363,9.452c0.788-1.575,1.575-2.363,2.363-3.151c4.726-4.726,10.24-7.089,16.542-7.089
	c4.726,0,7.877,1.575,8.665,1.575c0.788,0,1.575,0.788,2.363,1.575c3.938,3.938,8.665,5.514,14.178,5.514
	c7.089,0,13.391-3.151,13.391-3.151c0.788,0,0.788-0.788,1.575-0.788C101.612,160.689,103.975,160.689,105.551,160.689z"/>
<path style="fill:#FFFFFF;" d="M126.818,248.911c-9.452,12.603-24.418,22.055-45.686,22.055c-5.514,0-11.028-0.788-17.329-1.575
	c-8.665-1.575-22.055-7.877-31.508-20.48c-14.178,3.151-24.418,14.966-24.418,29.932v102.4h144.148v-102.4
	C152.025,263.877,141.785,251.274,126.818,248.911z"/>
<path style="fill:#183651;" d="M152.025,389.12H7.877c-4.726,0-7.877-3.151-7.877-7.877v-102.4c0-18.117,12.603-33.871,30.72-37.809
	c3.151-0.788,6.302,0.788,7.877,3.151c7.877,10.24,18.905,15.754,26.782,17.329c5.514,1.575,11.028,1.575,15.754,1.575
	c16.542,0,29.932-6.302,39.385-18.905c1.575-2.363,4.726-3.151,7.877-3.151c18.117,3.151,31.508,18.905,31.508,37.809v102.4
	C159.902,385.969,156.751,389.12,152.025,389.12z M15.754,373.366h129.182v-94.523c0-9.452-6.302-18.117-14.178-21.268
	c-16.542,18.117-40.172,25.206-67.742,18.905c-9.452-1.575-22.843-7.877-33.083-18.905c-8.665,3.151-14.178,11.815-14.178,21.268
	C15.754,278.843,15.754,373.366,15.754,373.366z"/>
<path style="fill:#FBBD5E;" d="M30.72,358.4v-79.557c12.603,8.665,24.418,11.815,29.145,12.603
	c7.089,1.575,14.966,2.363,21.268,2.363c18.117,0,34.658-5.514,48.049-15.754c0,0,0,0,0,0.788V358.4H30.72z"/>
<rect x="33.871" y="381.243" style="fill:#FFFFFF;" width="92.16" height="114.215"/>
<g>
	<path style="fill:#183651;" d="M126.031,503.335h-92.16c-4.726,0-7.877-3.151-7.877-7.877V381.243c0-4.726,3.151-7.877,7.877-7.877
		h92.16c4.726,0,7.877,3.151,7.877,7.877v114.215C133.908,500.185,130.757,503.335,126.031,503.335z M41.748,487.582h76.406V389.12
		H41.748V487.582z"/>
	<path style="fill:#183651;" d="M80.345,503.335c-4.726,0-7.877-3.151-7.877-7.877v-84.283c0-4.726,3.151-7.877,7.877-7.877
		s7.877,3.151,7.877,7.877v84.283C88.222,500.185,84.283,503.335,80.345,503.335z"/>
</g>
<path style="fill:#FFFFFF;" d="M302.474,103.975c0,0-4.726,63.803-66.166,49.625c0,0-29.145-4.726-32.295-38.597l-3.151-9.452
	l-7.877-36.234l32.295-22.843l54.351-14.966l25.206,18.117v38.597L302.474,103.975z"/>
<path style="fill:#183651;" d="M253.637,163.84c-5.514,0-11.815-0.788-18.117-2.363c-11.028-1.575-34.658-13.391-37.809-44.898
	l-2.363-8.665l-7.877-37.022c-0.788-3.151,0.788-6.302,3.151-7.877l32.295-22.843c0.788-0.788,1.575-0.788,2.363-0.788
	l52.775-14.178c2.363-0.788,4.726,0,7.089,1.575l25.206,18.117c2.363,1.575,3.151,3.938,3.151,6.302v38.597v0.788l-1.575,14.966
	C308.775,125.243,295.385,163.84,253.637,163.84z M203.225,72.468l6.302,31.508l2.363,8.665c0,0.788,0,0.788,0,1.575
	c2.363,27.569,24.418,31.508,25.206,31.508c5.514,1.575,11.028,1.575,14.966,1.575c37.809,0,41.748-42.535,41.748-44.111
	l1.575-14.966V54.351L276.48,40.172l-47.262,13.391L203.225,72.468z"/>
<path style="fill:#F06151;" d="M201.649,105.551c0,0,2.363-9.452-8.665-15.754c0,0-21.268-54.351,29.145-70.892
	c0,0-3.938-3.938-2.363-10.24c0,0,7.089,4.726,42.535,2.363c0,0,22.843,2.363,29.932,21.268c0,0,36.234,0,19.692,55.926
	c0,0-8.665,4.726-7.877,15.754c0,0,7.877-48.837-22.843-41.748c0,0-27.569,13.391-47.262-5.514
	C232.369,56.714,196.135,42.535,201.649,105.551z"/>
<path style="fill:#183651;" d="M201.649,113.428L201.649,113.428c-4.726,0-7.089-3.151-7.877-7.089c0-1.575,0-3.938-0.788-5.514
	c-0.788-1.575-2.363-3.151-4.726-3.938c-1.575-0.788-3.151-2.363-3.151-3.938c-0.788-1.575-11.028-29.145,0.788-53.563
	c4.726-11.028,13.391-18.905,25.206-24.418c-0.788-2.363-0.788-4.726,0-7.089c0-2.363,2.363-4.726,4.726-6.302
	c2.363-0.788,5.514-0.788,7.089,0.788c0,0,4.726,1.575,22.055,1.575c4.726,0,9.452,0,15.754-0.788h0.788
	c0.788,0,24.418,2.363,34.658,22.055c5.514,1.575,13.391,4.726,18.905,11.815c8.665,11.815,10.24,29.932,3.151,53.563
	c-0.788,2.363-1.575,3.938-3.938,4.726l0,0c0,0-2.363,1.575-3.938,4.726c0,3.151-0.788,5.514-0.788,5.514
	c-0.788,3.938-3.938,7.089-7.877,6.302c-3.938,0-7.089-3.151-7.089-7.089c0-2.363,0-4.726,0.788-7.089
	c0.788-11.815-0.788-22.055-4.726-25.994c-2.363-2.363-4.726-2.363-8.665-1.575c-3.151,1.575-12.603,4.726-23.631,4.726
	c-11.028,0-21.268-3.938-29.932-11.028c-0.788,0-2.363-0.788-3.938-0.788c-3.938,0-6.302,0.788-8.665,3.938
	c-3.151,3.938-7.089,11.815-6.302,30.72c1.575,4.726,0.788,8.665,0,10.24C208.738,111.065,205.588,113.428,201.649,113.428z
	 M229.218,18.905c0,0.788,0,1.575,0,2.363c-0.788,2.363-2.363,4.726-4.726,5.514c-11.815,3.938-19.692,10.24-23.631,18.905
	c-3.938,7.877-3.938,16.542-3.938,23.631c1.575-5.514,4.726-10.24,7.877-13.391c4.726-5.514,11.815-8.665,19.692-8.665
	c5.514,0,10.24,1.575,11.028,1.575c0.788,0,1.575,0.788,2.363,1.575c5.514,5.514,11.815,7.877,20.48,7.877
	c9.452,0,18.117-3.938,18.117-3.938c0.788,0,0.788-0.788,1.575-0.788c10.24-2.363,18.117,0,24.418,6.302
	c1.575,2.363,3.151,4.726,4.726,7.089c0.788-8.665-0.788-15.754-3.938-20.48c-4.726-6.302-11.815-6.302-11.815-6.302
	c-3.151,0-6.302-2.363-7.089-5.514c-4.726-12.603-19.692-15.754-22.843-15.754C246.548,19.692,236.308,19.692,229.218,18.905z"/>
<path style="fill:#FFFFFF;" d="M316.652,156.751c-13.391,17.329-33.871,30.72-63.015,30.72c-7.877,0-15.754-0.788-23.631-2.363
	c-11.815-2.363-30.72-10.24-44.111-27.569c-18.905,3.938-33.871,21.268-33.871,40.96v140.209h198.498V197.711
	C351.311,177.231,336.345,159.902,316.652,156.751z"/>
<path style="fill:#183651;" d="M351.311,346.585H152.025c-4.726,0-7.877-3.151-7.877-7.877V197.711
	c0-23.631,16.542-44.111,40.172-48.837c3.151-0.788,6.302,0.788,7.877,3.151c11.815,14.966,27.569,22.843,38.597,25.206
	c34.658,7.877,60.652-1.575,78.769-25.206c1.575-2.363,4.726-3.151,7.877-3.151c23.631,3.938,40.96,25.206,40.96,48.837V337.92
	C359.188,342.646,355.249,346.585,351.311,346.585z M159.902,330.831h182.745v-133.12c0-14.966-9.452-28.357-23.631-32.295
	c-22.055,25.206-54.351,34.658-91.372,26.782c-12.603-2.363-31.508-10.24-44.898-26.782c-13.391,4.726-22.843,17.329-22.843,32.295
	L159.902,330.831L159.902,330.831z"/>
<path style="fill:#4FBF9F;" d="M183.532,307.2V197.711c16.542,11.815,33.083,16.542,40.172,17.329
	c10.24,2.363,20.48,3.151,29.932,3.151c24.418,0,47.262-7.877,66.166-21.268v0.788V307.2H183.532z"/>
<rect x="188.258" y="338.708" style="fill:#FFFFFF;" width="126.818" height="156.751"/>
<g>
	<path style="fill:#183651;" d="M315.077,503.335H188.258c-4.726,0-7.877-3.151-7.877-7.877V338.708
		c0-4.726,3.151-7.877,7.877-7.877h126.818c4.726,0,7.877,3.151,7.877,7.877v156.751
		C322.954,500.185,319.803,503.335,315.077,503.335z M196.135,487.582H307.2V346.585H196.135V487.582z"/>
	<path style="fill:#183651;" d="M252.062,503.335c-4.726,0-7.877-3.151-7.877-7.877V378.88c0-4.726,3.151-7.877,7.877-7.877
		s7.877,3.151,7.877,7.877v116.578C259.938,500.185,256,503.335,252.062,503.335z"/>
	<rect x="204.8" y="252.062" style="fill:#183651;" width="15.754" height="15.754"/>
	<rect x="244.185" y="252.062" style="fill:#183651;" width="15.754" height="15.754"/>
	<rect x="282.782" y="252.062" style="fill:#183651;" width="15.754" height="15.754"/>
	<rect x="392.271" y="317.44" style="fill:#183651;" width="15.754" height="15.754"/>
	<rect x="438.745" y="317.44" style="fill:#183651;" width="15.754" height="15.754"/>
	<rect x="48.837" y="317.44" style="fill:#183651;" width="15.754" height="15.754"/>
	<rect x="95.311" y="317.44" style="fill:#183651;" width="15.754" height="15.754"/>
</g>
<g>
</g>
<g>
</g>
<g>
</g>
<g>
</g>
<g>
</g>
<g>
</g>
<g>
</g>
<g>
</g>
<g>
</g>
<g>
</g>
<g>
</g>
<g>
</g>
<g>
</g>
<g>
</g>
<g>
</g>
</svg>
