<?xml version="1.0" encoding="iso-8859-1"?>
<!-- Generator: Adobe Illustrator 19.0.0, SVG Export Plug-In . SVG Version: 6.00 Build 0)  -->
<svg version="1.1" id="Capa_1" xmlns="http://www.w3.org/2000/svg" xmlns:xlink="http://www.w3.org/1999/xlink" x="0px" y="0px"
	 viewBox="0 0 504.123 504.123" style="enable-background:new 0 0 504.123 504.123;" xml:space="preserve">
<path style="fill:#2EA0DA;" d="M480.492,27.569H23.631c-8.665,0-15.754,7.089-15.754,15.754v334.769
	c0,8.665,7.089,15.754,15.754,15.754h456.862c8.665,0,15.754-7.089,15.754-15.754V43.323
	C496.246,34.658,489.157,27.569,480.492,27.569z"/>
<path style="fill:#183651;" d="M480.492,401.723H23.631C10.24,401.723,0,391.483,0,378.092V43.323
	c0-13.391,10.24-23.631,23.631-23.631h456.862c13.391,0,23.631,10.24,23.631,23.631v334.769
	C504.123,390.695,493.883,401.723,480.492,401.723z M23.631,35.446c-4.726,0-7.877,3.151-7.877,7.877v334.769
	c0,4.726,3.151,7.877,7.877,7.877h456.862c4.726,0,7.877-3.151,7.877-7.877V43.323c0-4.726-3.151-7.877-7.877-7.877H23.631z"/>
<g>
	<rect x="39.385" y="59.077" style="fill:#FFFFFF;" width="425.354" height="256.788"/>
	<rect x="161.477" y="393.846" style="fill:#FFFFFF;" width="181.957" height="52.775"/>
</g>
<path style="fill:#183651;" d="M342.646,453.711H161.477c-4.726,0-7.877-3.151-7.877-7.877v-52.775c0-4.726,3.151-7.877,7.877-7.877
	h181.169c4.726,0,7.877,3.151,7.877,7.877v52.775C350.523,450.56,347.372,453.711,342.646,453.711z M169.354,437.957h165.415
	v-37.022H169.354V437.957z"/>
<rect x="118.942" y="445.834" style="fill:#CECFD0;" width="266.24" height="30.72"/>
<g>
	<path style="fill:#183651;" d="M385.182,484.431h-266.24c-4.726,0-7.877-3.151-7.877-7.877v-30.72c0-4.726,3.151-7.877,7.877-7.877
		h266.24c4.726,0,7.877,3.151,7.877,7.877v30.72C393.058,481.28,389.908,484.431,385.182,484.431z M126.818,468.677h250.486v-14.966
		H126.818V468.677z"/>
	<path style="fill:#183651;" d="M204.012,337.92c-6.302,0-11.815,5.514-11.815,11.815l0,0c0,6.302,5.514,11.815,11.815,11.815
		c6.302,0,11.815-5.514,11.815-11.815l0,0C215.828,343.434,211.102,337.92,204.012,337.92z"/>
	<path style="fill:#183651;" d="M252.062,337.92c-6.302,0-11.815,5.514-11.815,11.815l0,0c0,6.302,5.514,11.815,11.815,11.815
		s11.815-5.514,11.815-11.815l0,0C263.877,343.434,258.363,337.92,252.062,337.92z"/>
	<path style="fill:#183651;" d="M300.111,337.92c-6.302,0-11.815,5.514-11.815,11.815l0,0c0,6.302,5.514,11.815,11.815,11.815
		c6.302,0,11.815-5.514,11.815-11.815l0,0C311.926,343.434,306.412,337.92,300.111,337.92z"/>
	<path style="fill:#183651;" d="M127.606,233.157c-3.151-3.151-3.151-7.877,0-11.028l79.557-79.557
		c3.151-3.151,7.877-3.151,11.028,0l73.255,73.255l69.317-69.317c3.151-3.151,7.877-3.151,11.028,0s3.151,7.877,0,11.028
		l-74.831,74.831c-3.151,3.151-7.877,3.151-11.028,0l-73.255-73.255l-74.043,74.043C136.271,235.52,130.757,235.52,127.606,233.157z
		"/>
</g>
<circle style="fill:#FBBD5E;" cx="291.446" cy="226.855" r="25.994"/>
<circle style="fill:#4FBF9F;" cx="133.12" cy="226.855" r="25.994"/>
<circle style="fill:#F06151;" cx="371.003" cy="148.086" r="25.994"/>
<circle style="fill:#E0E4E8;" cx="212.677" cy="148.086" r="25.994"/>
<g>
	<rect x="421.415" y="124.455" style="fill:#183651;" width="15.754" height="15.754"/>
	<rect x="421.415" y="179.594" style="fill:#183651;" width="15.754" height="15.754"/>
	<rect x="421.415" y="233.945" style="fill:#183651;" width="15.754" height="15.754"/>
	<rect x="66.954" y="124.455" style="fill:#183651;" width="15.754" height="15.754"/>
	<rect x="66.954" y="179.594" style="fill:#183651;" width="15.754" height="15.754"/>
	<rect x="66.954" y="233.945" style="fill:#183651;" width="15.754" height="15.754"/>
</g>
<g>
</g>
<g>
</g>
<g>
</g>
<g>
</g>
<g>
</g>
<g>
</g>
<g>
</g>
<g>
</g>
<g>
</g>
<g>
</g>
<g>
</g>
<g>
</g>
<g>
</g>
<g>
</g>
<g>
</g>
</svg>
