<?xml version="1.0" encoding="iso-8859-1"?>
<!-- Generator: Adobe Illustrator 19.0.0, SVG Export Plug-In . SVG Version: 6.00 Build 0)  -->
<svg version="1.1" id="Capa_1" xmlns="http://www.w3.org/2000/svg" xmlns:xlink="http://www.w3.org/1999/xlink" x="0px" y="0px"
	 viewBox="0 0 504.123 504.123" style="enable-background:new 0 0 504.123 504.123;" xml:space="preserve">
<path style="fill:#2EA0DA;" d="M252.062,504.123c-71.68,0-130.757-58.289-130.757-130.757s58.289-130.757,130.757-130.757
	s130.757,58.289,130.757,130.757S323.742,504.123,252.062,504.123z"/>
<g>
	<rect x="416.689" y="181.957" style="fill:#183651;" width="14.966" height="14.966"/>
	<rect x="416.689" y="233.945" style="fill:#183651;" width="14.966" height="14.966"/>
	<rect x="416.689" y="285.145" style="fill:#183651;" width="14.966" height="14.966"/>
	<rect x="72.468" y="181.957" style="fill:#183651;" width="14.966" height="14.966"/>
	<rect x="72.468" y="233.945" style="fill:#183651;" width="14.966" height="14.966"/>
	<rect x="72.468" y="285.145" style="fill:#183651;" width="14.966" height="14.966"/>
</g>
<path style="fill:#FFFFFF;" d="M163.052,7.877v163.84c0,20.48,16.542,37.022,37.022,37.022h103.975
	c20.48,0,37.022-16.542,37.022-37.022V7.877H163.052z"/>
<path style="fill:#183651;" d="M304.049,215.828H200.074c-24.418,0-44.898-19.692-44.898-44.898V7.877
	c0-3.938,3.151-7.877,7.877-7.877h178.018c3.938,0,7.877,3.151,7.877,7.877v163.84C348.16,196.135,328.468,215.828,304.049,215.828z
	 M170.929,14.966v155.963c0,16.542,13.391,29.145,29.145,29.145h103.975c16.542,0,29.145-13.391,29.145-29.145V14.966H170.929z"/>
<g>
	<rect x="269.391" y="14.966" style="fill:#F06151;" width="34.658" height="185.895"/>
	<rect x="200.074" y="14.966" style="fill:#F06151;" width="34.658" height="185.895"/>
</g>
<circle style="fill:#FBBD5E;" cx="252.062" cy="373.366" r="100.037"/>
<path style="fill:#183651;" d="M252.062,481.28c-59.077,0-107.126-48.049-107.126-107.126s48.049-107.126,107.126-107.126
	s107.126,48.049,107.126,107.126S311.138,481.28,252.062,481.28z M252.062,281.206c-51.2,0-92.16,40.96-92.16,92.16
	s40.96,92.16,92.16,92.16s92.16-40.96,92.16-92.16S303.262,281.206,252.062,281.206z"/>
<path style="fill:#FFFFFF;" d="M252.062,444.258c-38.597,0-70.105-31.508-70.105-70.105s31.508-70.105,70.105-70.105
	c38.597,0,70.105,31.508,70.105,70.105S290.658,444.258,252.062,444.258z"/>
<path style="fill:#183651;" d="M252.062,281.206L252.062,281.206c-2.363,0-4.726-0.788-6.302-3.151l-51.988-65.378
	c-1.575-2.363-2.363-5.514-0.788-7.877c1.575-2.363,3.938-3.938,7.089-3.938h103.975c3.151,0,5.514,1.575,7.089,3.938
	c1.575,2.363,0.788,5.514-0.788,7.877l-51.988,65.378C256.788,280.418,254.425,281.206,252.062,281.206z M215.828,215.828
	l36.234,45.686l36.234-45.686L215.828,215.828L215.828,215.828z"/>
<polygon style="fill:#FBBD5E;" points="252.062,335.557 263.089,358.4 288.295,362.338 270.178,379.668 274.905,404.874 
	252.062,393.058 229.218,404.874 233.945,379.668 215.828,362.338 241.034,358.4 "/>
<g>
</g>
<g>
</g>
<g>
</g>
<g>
</g>
<g>
</g>
<g>
</g>
<g>
</g>
<g>
</g>
<g>
</g>
<g>
</g>
<g>
</g>
<g>
</g>
<g>
</g>
<g>
</g>
<g>
</g>
</svg>
