<?xml version="1.0" encoding="iso-8859-1"?>
<!-- Generator: Adobe Illustrator 19.0.0, SVG Export Plug-In . SVG Version: 6.00 Build 0)  -->
<svg version="1.1" id="Capa_1" xmlns="http://www.w3.org/2000/svg" xmlns:xlink="http://www.w3.org/1999/xlink" x="0px" y="0px"
	 viewBox="0 0 504.123 504.123" style="enable-background:new 0 0 504.123 504.123;" xml:space="preserve">
<path style="fill:#E0E4E8;" d="M447.803,296.96l48.837-5.514v-77.982l-48.837-5.514c-4.726-22.055-13.391-42.535-25.206-61.44
	l29.932-38.597l-55.138-55.138L358.794,81.92c-18.905-11.815-39.385-20.48-61.44-25.206L291.84,7.877h-77.982l-5.514,48.837
	c-22.843,4.726-44.111,13.391-62.228,25.206L107.52,51.988l-55.138,55.138l29.932,38.597c-11.815,18.905-20.48,39.385-25.206,61.44
	l-48.837,5.514v77.982l48.837,5.514c4.726,22.055,13.391,42.535,25.206,61.44l-29.932,38.597l55.138,55.138l38.597-29.932
	c18.905,11.815,39.385,20.48,61.44,25.206l5.514,48.837h77.982l5.514-48.837c22.055-4.726,42.535-13.391,61.44-25.206l38.597,29.932
	l55.138-55.138L422.597,358.4C434.412,340.283,443.077,319.015,447.803,296.96z"/>
<g>
	<path style="fill:#183651;" d="M291.84,504.123h-77.982c-3.938,0-7.089-3.151-7.877-7.089l-5.514-43.323
		c-18.905-4.726-37.022-12.603-53.563-22.055l-33.871,26.782c-3.151,2.363-7.877,2.363-10.24-0.788l-55.138-55.138
		c-3.938-2.363-3.938-7.089-1.575-10.24L72.862,358.4c-10.24-16.542-17.329-34.658-22.055-53.563l-43.323-5.514
		c-3.938-0.788-7.089-3.938-7.089-7.877v-77.982c0-3.938,3.151-7.089,7.089-7.877l43.323-5.514
		c4.726-18.905,12.603-37.022,22.055-53.563L46.08,112.64c-2.363-3.151-2.363-7.877,0.788-10.24l55.138-55.138
		c2.363-3.938,7.089-3.938,10.24-1.575l33.871,26.782c16.542-10.24,34.658-17.329,53.563-22.055l5.514-43.323
		C205.982,3.151,209.132,0,213.071,0h77.982c3.938,0,7.089,3.151,7.877,7.089l5.514,43.323
		c18.905,4.726,37.022,12.603,53.563,22.055l33.871-26.782c3.151-2.363,7.877-2.363,10.24,0.788l55.138,55.138
		c3.151,3.151,3.151,7.089,0.788,10.24l-26.782,33.871c10.24,16.542,17.329,34.658,22.055,53.563l43.323,5.514
		c3.938,0.788,7.089,3.938,7.089,7.877v77.982c0,3.938-3.151,7.089-7.089,7.877l-43.323,5.514
		c-4.726,18.905-12.603,37.022-22.055,53.563l26.782,33.871c2.363,3.151,2.363,7.877-0.788,10.24l-55.138,55.138
		c-3.151,3.151-7.089,3.151-10.24,0.788l-33.871-26.782c-16.542,10.24-34.658,17.329-53.563,22.055l-5.514,43.323
		C298.929,500.972,295.778,504.123,291.84,504.123z M220.16,488.369h64.591l4.726-41.748c0.788-3.151,3.151-6.302,6.302-7.089
		c21.268-4.726,40.96-13.391,59.077-24.418c3.151-1.575,6.302-1.575,8.665,0.788l33.083,25.994l45.686-45.686l-25.994-33.083
		c-2.363-2.363-2.363-6.302-0.788-8.665c11.028-18.117,19.692-37.809,24.418-59.077c0.788-3.151,3.151-5.514,7.089-6.302
		l41.748-4.726v-64.591l-41.748-4.726c-3.151-0.788-6.302-3.151-7.089-6.302c-4.726-21.268-13.391-40.96-24.418-59.077
		c-1.575-3.151-1.575-6.302,0.788-8.665l25.994-33.083l-45.686-45.686L363.52,88.222c-2.363,2.363-6.302,2.363-8.665,0.788
		c-18.117-11.028-37.809-19.692-59.077-24.418c-3.151-0.788-5.514-3.151-6.302-7.089l-4.726-41.748H220.16l-4.726,41.748
		c-0.788,3.151-3.151,6.302-6.302,7.089c-21.268,4.726-40.96,13.391-59.077,24.418c-3.151,1.575-6.302,1.575-8.665-0.788
		l-33.083-25.994l-45.686,45.686l25.994,33.083c2.363,2.363,2.363,6.302,0.788,8.665c-11.028,18.117-19.692,37.809-24.418,59.077
		c-0.788,3.151-3.151,5.514-7.089,6.302l-41.748,4.726v64.591l41.748,4.726c3.151,0.788,6.302,3.151,7.089,6.302
		c4.726,21.268,13.391,40.96,24.418,59.077c1.575,3.151,1.575,6.302-0.788,8.665l-25.994,33.083l45.686,45.686l33.083-25.994
		c2.363-2.363,6.302-2.363,8.665-0.788c18.117,11.028,37.809,19.692,59.077,24.418c3.151,0.788,5.514,3.151,6.302,7.089
		L220.16,488.369z"/>
	
		<rect x="22.43" y="337.427" transform="matrix(-0.3884 -0.9215 0.9215 -0.3884 -276.1172 507.3461)" style="fill:#183651;" width="15.754" height="15.754"/>
	
		<rect x="466.731" y="150.97" transform="matrix(-0.3884 -0.9215 0.9215 -0.3884 512.5683 657.89)" style="fill:#183651;" width="15.754" height="15.754"/>
	
		<rect x="154.014" y="467.165" transform="matrix(-0.9262 -0.3771 0.3771 -0.9262 132.6962 976.062)" style="fill:#183651;" width="15.754" height="15.754"/>
	
		<rect x="335.188" y="21.236" transform="matrix(-0.9263 -0.3769 0.3769 -0.9263 649.8608 185.3761)" style="fill:#183651;" width="15.755" height="15.755"/>
	
		<rect x="337.836" y="466.375" transform="matrix(-0.3883 -0.9215 0.9215 -0.3883 42.9015 976.9834)" style="fill:#183651;" width="15.755" height="15.755"/>
	
		<rect x="151.355" y="22.044" transform="matrix(-0.3883 -0.9215 0.9215 -0.3883 193.485 188.2794)" style="fill:#183651;" width="15.755" height="15.755"/>
	
		<rect x="467.57" y="334.756" transform="matrix(-0.9262 -0.3769 0.3769 -0.9262 786.6814 839.1999)" style="fill:#183651;" width="15.753" height="15.753"/>
	
		<rect x="21.616" y="153.578" transform="matrix(-0.9262 -0.3769 0.3769 -0.9262 -4.0458 322.1177)" style="fill:#183651;" width="15.753" height="15.753"/>
</g>
<circle style="fill:#FFFFFF;" cx="252.455" cy="252.062" r="162.265"/>
<path style="fill:#183651;" d="M252.455,422.203c-93.735,0-170.142-76.406-170.142-170.142S158.72,81.92,252.455,81.92
	s170.142,76.406,170.142,170.142S346.191,422.203,252.455,422.203z M252.455,97.674c-85.071,0-154.388,69.317-154.388,154.388
	s69.317,154.388,154.388,154.388s154.388-69.317,154.388-154.388S337.526,97.674,252.455,97.674z"/>
<path style="fill:#2EA0DA;" d="M252.455,382.818c-71.68,0-130.757-58.289-130.757-130.757s58.289-130.757,130.757-130.757
	s130.757,58.289,130.757,130.757S324.923,382.818,252.455,382.818z"/>
<g>
	<path style="fill:#FFFFFF;" d="M267.422,267.028c0,0-21.268,14.178-20.48-15.754c0,0-29.932-38.597-48.837,0
		c0,0-19.692,22.055,6.302,37.809c0,0-11.028,11.028,15.754,22.055c0,0-3.938,47.262,11.028,65.378
		c1.575,2.363,5.514,0.788,4.726-2.363c-1.575-8.665,0-22.843,18.117-38.597c0,0,7.877-0.788,4.726-15.754
		c0,0,14.178-3.151,11.028-16.542C269.785,304.837,308.382,274.117,267.422,267.028z"/>
	<path style="fill:#FFFFFF;" d="M380.849,238.671c0,0-28.357-42.535-30.72-42.535s-4.726-13.391-14.178,0
		s-21.268,0.788-21.268,0.788c-37.022-5.514-24.418,40.96-24.418,40.96C297.354,270.966,332.012,256,332.012,256
		c14.966,31.508,0,81.132,0,81.132c5.514,17.329,25.994-30.72,25.994-30.72l12.603,2.363c5.514-11.815,9.452-23.631,11.028-37.022
		L380.849,238.671z"/>
	<path style="fill:#FFFFFF;" d="M150.055,219.766c0.788,22.055,11.815,30.72,22.055,33.871c3.151,0.788,6.302-2.363,4.726-5.514
		c-3.151-5.514-1.575-11.028-1.575-11.028c-19.692-22.843,7.089-28.357,7.089-28.357c3.938-23.631,33.871-30.72,33.871-30.72
		c14.178-28.357-18.117-6.302-18.117-6.302c-10.24-7.877,20.48-22.843,20.48-22.843l-10.24-18.905l-11.815,3.938
		c-16.542,7.877-31.508,19.692-43.323,33.871l3.938,16.542C133.514,214.252,150.055,219.766,150.055,219.766z"/>
</g>
<g>
</g>
<g>
</g>
<g>
</g>
<g>
</g>
<g>
</g>
<g>
</g>
<g>
</g>
<g>
</g>
<g>
</g>
<g>
</g>
<g>
</g>
<g>
</g>
<g>
</g>
<g>
</g>
<g>
</g>
</svg>
