<?xml version="1.0" encoding="iso-8859-1"?>
<!-- Generator: Adobe Illustrator 19.0.0, SVG Export Plug-In . SVG Version: 6.00 Build 0)  -->
<svg version="1.1" id="Capa_1" xmlns="http://www.w3.org/2000/svg" xmlns:xlink="http://www.w3.org/1999/xlink" x="0px" y="0px"
	 viewBox="0 0 504.123 504.123" style="enable-background:new 0 0 504.123 504.123;" xml:space="preserve">
<rect x="30.326" y="200.074" style="fill:#E1E6E7;" width="387.545" height="254.425"/>
<path style="fill:#183651;" d="M417.871,462.375H30.326c-4.726,0-7.877-3.151-7.877-7.877V200.074c0-4.726,3.151-7.877,7.877-7.877
	h387.545c4.726,0,7.877,3.151,7.877,7.877v254.425C425.748,459.225,421.809,462.375,417.871,462.375z M38.203,446.622h371.791
	V207.951H38.203V446.622z"/>
<rect x="61.834" y="231.582" style="fill:#FFFFFF;" width="324.529" height="222.917"/>
<polygon style="fill:#CFD0D1;" points="439.926,436.382 439.926,463.951 398.178,496.246 50.018,496.246 8.271,463.951 
	8.271,436.382 167.385,436.382 167.385,454.498 280.025,454.498 280.025,436.382 "/>
<path style="fill:#183651;" d="M398.178,504.123H50.018c-1.575,0-3.151-0.788-4.726-1.575L3.545,470.252
	c-1.575-1.575-3.151-3.938-3.151-6.302v-28.357c0-4.726,3.151-7.877,7.877-7.877h159.902c4.726,0,7.877,3.151,7.877,7.877v10.24
	h96.098v-10.24c0-4.726,3.151-7.877,7.877-7.877h159.902c4.726,0,7.877,3.151,7.877,7.877v28.357c0,2.363-0.788,4.726-3.151,6.302
	l-41.748,32.295C401.329,503.335,399.754,504.123,398.178,504.123z M52.382,488.369h342.646l36.234-28.357v-16.542h-143.36v10.24
	c0,4.726-3.151,7.877-7.877,7.877h-112.64c-4.726,0-7.877-3.151-7.877-7.877v-10.24H16.148v16.542L52.382,488.369z"/>
<circle style="fill:#FBBD5E;" cx="161.871" cy="334.769" r="77.982"/>
<path style="fill:#F06151;" d="M224.098,382.031v-3.938c0-13.391-11.028-25.206-25.206-25.206h-4.726
	c-7.877,10.24-19.692,16.542-32.295,16.542s-24.418-5.514-32.295-15.754h-4.726c-13.391,0-25.206,11.028-25.206,25.206v3.151
	c14.178,18.117,37.022,30.72,61.44,30.72C187.077,412.751,209.132,400.935,224.098,382.031z"/>
<ellipse style="fill:#E1E6E7;" cx="161.871" cy="313.502" rx="29.145" ry="40.172"/>
<path style="fill:#173651;" d="M194.166,285.145c-0.788-7.089-6.302-12.603-12.603-15.754c-11.815-6.302-25.994-6.302-37.809,0
	c-6.302,3.151-11.815,8.665-12.603,15.754c0,0-9.452,6.302,3.151,34.658c0,0-3.151-7.089,6.302-14.178
	c0,0-3.938-12.603,7.089-13.391c0,0,9.452,5.514,15.754,3.938c5.514,0.788,15.754-3.938,15.754-3.938
	c11.815,0,7.089,13.391,7.089,13.391c8.665,7.089,6.302,14.178,6.302,14.178C202.831,291.446,194.166,285.145,194.166,285.145z"/>
<path style="fill:#FFFFFF;" d="M210.708,150.449c0-78.769,63.803-142.572,142.572-142.572S495.852,71.68,495.852,150.449
	S432.049,293.022,353.28,293.022S210.708,229.218,210.708,150.449z"/>
<path style="fill:#183651;" d="M353.28,300.898c-82.708,0-150.449-67.742-150.449-150.449S270.572,0,353.28,0
	s150.449,67.742,150.449,150.449C502.942,233.157,435.988,300.898,353.28,300.898z M353.28,15.754
	c-74.043,0-134.695,60.652-134.695,134.695s60.652,134.695,134.695,134.695s134.695-60.652,134.695-134.695
	S427.323,15.754,353.28,15.754z"/>
<circle style="fill:#2CA0DA;" cx="353.28" cy="150.449" r="112.64"/>
<g>
	<path style="fill:#E1E6E7;" d="M444.652,215.04c6.302-8.665,10.24-17.329,14.178-26.782l-10.24-4.726l-10.24-6.302l-1.575-6.302
		l-6.302-4.726l-4.726,4.726c-1.575-7.877-8.665-14.178-8.665-14.178l4.726-6.302l-17.329-7.877c-14.178-12.603-20.48,0-20.48,0
		l-18.117-2.363l-2.363,3.151l3.151,4.726l-3.151,3.938l-1.575-1.575l-7.877,11.028l2.363,18.905l6.302,1.575l7.089,7.089
		l3.938-1.575l5.514,3.938v4.726l6.302,4.726l-7.089,10.24l-3.151,19.692l-11.028,6.302v7.089l-5.514,7.877l0.788,11.028
		C392.665,260.726,424.172,244.185,444.652,215.04z"/>
	<path style="fill:#E1E6E7;" d="M293.415,76.406c0,0-3.938,2.363,0,7.877l5.514-6.302h11.815l4.726-2.363l23.631-2.363
		c0,0,4.726-3.151,10.24,2.363c0,0-5.514-7.089,0-7.089c0,0,3.938,0,4.726,5.514c0,0,2.363,2.363,6.302,1.575
		c4.726-0.788,0,3.151,0,3.938c-0.788,0-5.514,0-0.788,5.514c4.726,4.726,6.302,4.726,6.302,1.575c0-2.363-3.151-6.302,0-7.089
		c3.151-0.788,5.514,0.788,3.938-3.938c-1.575-4.726,1.575-10.24,1.575-10.24s-3.938-0.788-7.089-2.363s7.089-6.302,0-8.665
		c-7.089-3.151-7.089-7.089-10.24,0c-3.151,7.089-12.603,6.302-18.117,3.151c-3.938-1.575-7.089-11.028-5.514-17.329
		c-19.692,3.938-37.022,12.603-51.2,25.994C284.751,67.742,291.052,71.68,293.415,76.406z"/>
	<path style="fill:#E1E6E7;" d="M262.695,209.526l16.542-5.514c0,0,3.151-14.178,9.452-8.665l4.726,4.726l7.877-1.575l7.877-11.815
		c0,0,13.391,0,14.966-8.665l-3.938-3.151l1.575-3.938l-12.603-9.452c0,0-4.726-4.726-1.575-12.603
		c3.938-7.877-2.363-9.452-4.726-10.24c-2.363-0.788,4.726-13.391-2.363-13.391s-7.877-2.363-10.24-7.877
		c-1.575-5.514-1.575-7.877-9.452-4.726c-1.575,0.788-3.151,1.575-3.938,1.575l-8.665-9.452l6.302-9.452l-5.514-6.302l8.665-7.089
		c0,0-8.665,2.363-13.391,0c-0.788,0.788-1.575,2.363-2.363,3.151c-0.788,0.788-1.575,2.363-2.363,3.151l3.938,5.514v13.391
		l7.089,12.603l-8.665,1.575l-9.452,8.665l1.575,14.178l-3.151,5.514l7.877,13.391l-14.178,18.117c0,0.788,0.788,1.575,0.788,2.363
		l0.788,1.575l0,0c3.151,8.665,6.302,17.329,11.815,25.206C259.545,210.314,261.12,210.314,262.695,209.526z"/>
</g>
<path style="fill:#183651;" d="M38.203,170.929H22.449v-15.754h15.754V170.929z M38.203,139.422H22.449v-15.754h15.754V139.422z
	 M38.203,107.914H22.449V92.16h15.754V107.914z M38.203,76.406H22.449V60.652h15.754V76.406z M38.203,45.686l-15.754-1.575
	c0.788-6.302,2.363-12.603,5.514-18.117l14.178,7.089C39.778,37.809,38.203,41.748,38.203,45.686z M50.018,23.631l-10.24-11.815
	c4.726-3.938,10.24-7.089,15.754-9.452l5.514,14.966C57.108,18.905,53.169,21.268,50.018,23.631z M246.942,15.754h-15.754V0h15.754
	V15.754z M215.434,15.754H199.68V0h15.754V15.754z M183.926,15.754h-15.754V0h15.754V15.754z M152.418,15.754h-15.754V0h15.754
	V15.754z M120.911,15.754h-15.754V0h15.754V15.754z M89.403,15.754H73.649V0h15.754V15.754z"/>
<g>
</g>
<g>
</g>
<g>
</g>
<g>
</g>
<g>
</g>
<g>
</g>
<g>
</g>
<g>
</g>
<g>
</g>
<g>
</g>
<g>
</g>
<g>
</g>
<g>
</g>
<g>
</g>
<g>
</g>
</svg>
