<?xml version="1.0" encoding="iso-8859-1"?>
<!-- Generator: Adobe Illustrator 19.0.0, SVG Export Plug-In . SVG Version: 6.00 Build 0)  -->
<svg version="1.1" id="Capa_1" xmlns="http://www.w3.org/2000/svg" xmlns:xlink="http://www.w3.org/1999/xlink" x="0px" y="0px"
	 viewBox="0 0 504.123 504.123" style="enable-background:new 0 0 504.123 504.123;" xml:space="preserve">
<circle style="fill:#4FBF9F;" cx="311.926" cy="311.397" r="192.197"/>
<path style="fill:#FFFFFF;" d="M311.926,476.813c-91.372,0-165.415-74.043-165.415-165.415s74.043-165.415,165.415-165.415
	s165.415,74.043,165.415,165.415S402.511,476.813,311.926,476.813z"/>
<path style="fill:#183651;" d="M311.926,484.689c-95.311,0-173.292-77.982-173.292-173.292s77.982-173.292,173.292-173.292
	s173.292,77.982,173.292,173.292C484.431,406.708,407.237,484.689,311.926,484.689z M311.926,153.859
	c-86.646,0-157.538,70.892-157.538,157.538s70.892,157.538,157.538,157.538s157.538-70.892,157.538-157.538
	S398.572,153.859,311.926,153.859z"/>
<circle style="fill:#E1E6E7;" cx="311.926" cy="311.397" r="130.757"/>
<g>
	<path style="fill:#2CA0DA;" d="M387.545,205.059c33.871,24.418,53.563,62.228,55.138,100.825l-18.117,2.363l-2.363,3.151
		l-6.302-4.726l-10.24,0.788l-7.089-5.514h-6.302l-6.302-9.452l-18.117-3.151l-8.665-6.302l-3.938,5.514h-4.726l-3.151,4.726
		l1.575,3.938l-6.302,7.089l-1.575,5.514l-17.329,1.575l-8.665-6.302l0.788-1.575l-3.938-3.151l-3.938,3.151l-2.363-1.575
		l1.575-17.329c0,0-11.028-5.514,0-18.117l7.089-15.754l5.514,3.938c0,0,5.514-7.089,12.603-7.877l-3.938-3.938l3.938-5.514
		l6.302-0.788l6.302-9.452l15.754-36.234C370.215,194.031,378.88,198.757,387.545,205.059z"/>
	<path style="fill:#2CA0DA;" d="M346.585,353.145l10.24,7.877l1.575,7.089l-4.726,3.938c-4.726,5.514,7.877,8.665,7.877,8.665
		l4.726,14.966c2.363,8.665-3.151,15.754-3.151,15.754l4.726-1.575l1.575,6.302c2.363,0,7.089-3.938,7.089-3.938l3.938,4.726
		l7.089-2.363l-2.363,4.726c-3.151,2.363-7.089,4.726-11.028,7.089c-5.514,0-11.028-2.363-11.028-2.363l-7.877-7.089l-4.726,0
		l-5.514-7.877l-3.151,2.363l-16.542-12.603l-12.603,7.089l-4.726-3.151l-12.603,1.575l-7.877-7.877l-0.788-7.877l-11.815,6.302
		h-11.815l-6.302,3.151c-5.514,13.391-16.542,8.665-16.542,8.665c-4.726,3.151-9.452,3.938-13.391,3.938
		c-21.268-18.117-35.446-40.96-41.748-66.166c5.514-2.363,10.24-5.514,8.665-10.24c-3.151-10.24,0-13.391,6.302-18.117
		c6.302-4.726,17.329-18.905,9.452-22.055c-7.877-2.363,4.726-14.966,4.726-14.966l10.24,11.028
		c-14.966,8.665-7.089,18.905-7.089,18.905c-7.877-1.575-8.665,15.754-7.877,22.055c0.788,6.302,17.329,3.151,19.692-2.363
		c2.363-5.514,3.151-14.178-3.151-16.542c-6.302-2.363-3.151-2.363,0-9.452c2.363-6.302,6.302,2.363,7.877,0
		s1.575-6.302,1.575-6.302s4.726,2.363,8.665,0.788c3.938-1.575,3.151,0.788,3.938,3.151c0.788,3.151,3.938,0,6.302,0
		c2.363,0,3.151,1.575-1.575,5.514c-4.726,3.938-4.726-0.788-4.726-0.788s-3.938-3.938-3.151,0c0.788,3.938-1.575,6.302-1.575,6.302
		c-5.514,0-5.514,3.938-5.514,3.938c0,5.514,6.302,0,6.302,0c-4.726,4.726-1.575,9.452-1.575,9.452l2.363,21.268l2.363,3.938v11.028
		l5.514,5.514c-4.726,3.938-7.089,0-7.089,0c-10.24,5.514-16.542,30.72-3.151,30.72s7.877-16.542,7.877-16.542l6.302,7.877
		l5.514-5.514l8.665,6.302l8.665-7.877c0-0.788-0.788-2.363-1.575-3.938c-3.151-7.877-0.788-7.089,3.938-8.665
		s7.089-3.151,7.089-9.452c0-6.302,11.028,0,11.815-2.363c0.788-2.363,2.363-7.877,9.452-3.938
		c7.089,3.151,11.028-0.788,11.028-0.788l9.452-11.028l3.151,0.788l3.151-3.938C346.585,341.329,346.585,353.145,346.585,353.145z"
		/>
</g>
<rect x="7.877" y="84.542" style="fill:#FFFFFF;" width="29.932" height="90.585"/>
<path style="fill:#183651;" d="M37.809,183.003H7.877c-4.726,0-7.877-3.151-7.877-7.877V84.542c0-4.726,3.151-7.877,7.877-7.877
	h29.932c4.726,0,7.877,3.151,7.877,7.877v90.585C45.686,179.065,41.748,183.003,37.809,183.003z M15.754,167.249h14.178V92.419
	H15.754V167.249z"/>
<rect x="37.809" y="73.514" style="fill:#FFFFFF;" width="103.188" height="111.852"/>
<path style="fill:#183651;" d="M140.997,194.031H37.809c-4.726,0-7.877-3.151-7.877-7.877V73.514c0-4.726,3.151-7.877,7.877-7.877
	h103.188c4.726,0,7.877,3.151,7.877,7.877v111.852C148.874,190.093,144.935,194.031,140.997,194.031z M45.686,178.277h87.434V81.391
	H45.686V178.277z"/>
<rect x="61.44" y="97.933" style="fill:#E1E6E7;" width="55.138" height="64.591"/>
<polygon style="fill:#FFFFFF;" points="319.803,250.745 140.997,186.154 140.997,73.514 319.803,8.923 "/>
<path style="fill:#183651;" d="M319.803,258.622c-0.788,0-1.575,0-2.363-0.788l-178.806-64.591
	c-3.151-0.788-5.514-3.938-5.514-7.089V73.514c0-3.151,2.363-6.302,5.514-7.089L317.44,1.046c2.363-0.788,4.726-0.788,7.089,0.788
	c2.363,1.575,3.151,3.938,3.151,6.302v241.822c0,2.363-1.575,4.726-3.151,6.302C322.954,258.622,321.378,258.622,319.803,258.622z
	 M148.874,180.64l163.052,59.077V19.951L148.874,79.028L148.874,180.64L148.874,180.64z"/>
<polygon style="fill:#E1E6E7;" points="164.628,168.825 164.628,90.843 295.385,42.794 295.385,216.874 "/>
<path style="fill:#FBBD5E;" d="M51.988,186.154v132.332h21.268c16.542,0,29.932-13.391,29.932-29.932v-102.4L51.988,186.154
	L51.988,186.154z"/>
<path style="fill:#183651;" d="M73.255,325.576H51.988c-4.726,0-7.877-3.151-7.877-7.877V186.154c0-4.726,3.151-7.877,7.877-7.877
	h51.2c4.726,0,7.877,3.151,7.877,7.877v102.4C111.065,309.034,93.735,325.576,73.255,325.576z M59.865,309.822h13.391
	c11.815,0,22.055-9.452,22.055-22.055v-94.523H59.865V309.822z"/>
<path style="fill:#FFFFFF;" d="M116.578,226.326h-13.391v-40.172h23.631v29.932C126.031,221.6,122.092,226.326,116.578,226.326z"/>
<path style="fill:#183651;" d="M116.578,234.203h-13.391c-4.726,0-7.877-3.151-7.877-7.877v-40.172c0-4.726,3.151-7.877,7.877-7.877
	h23.631c4.726,0,7.877,3.151,7.877,7.877v29.932C133.908,226.326,126.031,234.203,116.578,234.203z M111.065,218.449h5.514
	c1.575,0,2.363-0.788,2.363-2.363v-22.055h-7.877V218.449z"/>
<path style="fill:#FBBD5E;" d="M319.803,76.665v106.338c29.145,0,53.563-23.631,53.563-53.563
	C372.578,100.296,348.948,76.665,319.803,76.665z"/>
<g>
	<path style="fill:#183651;" d="M319.803,190.88c-4.726,0-7.877-3.151-7.877-7.877V76.665c0-4.726,3.151-7.877,7.877-7.877
		c33.871,0,61.44,27.569,61.44,61.44S353.674,190.88,319.803,190.88z M327.68,85.329v89.797
		c21.268-3.938,37.809-22.055,37.809-44.898S348.948,88.48,327.68,85.329z"/>
	<rect x="254.425" y="86.905" style="fill:#183651;" width="15.754" height="15.754"/>
	<rect x="254.425" y="122.351" style="fill:#183651;" width="15.754" height="15.754"/>
	<rect x="254.425" y="157.009" style="fill:#183651;" width="15.754" height="15.754"/>
</g>
<g>
</g>
<g>
</g>
<g>
</g>
<g>
</g>
<g>
</g>
<g>
</g>
<g>
</g>
<g>
</g>
<g>
</g>
<g>
</g>
<g>
</g>
<g>
</g>
<g>
</g>
<g>
</g>
<g>
</g>
</svg>
