<?xml version="1.0" encoding="iso-8859-1"?>
<!-- Generator: Adobe Illustrator 19.0.0, SVG Export Plug-In . SVG Version: 6.00 Build 0)  -->
<svg version="1.1" id="Capa_1" xmlns="http://www.w3.org/2000/svg" xmlns:xlink="http://www.w3.org/1999/xlink" x="0px" y="0px"
	 viewBox="0 0 504.418 504.418" style="enable-background:new 0 0 504.418 504.418;" xml:space="preserve">
<path style="fill:#FFFFFF;" d="M495.212,311.138c0-76.406-61.44-137.846-137.846-137.846S219.52,234.732,219.52,311.138
	s61.44,137.846,137.846,137.846c12.603,0,25.206-1.575,37.022-5.514l52.775,52.775v-81.132
	C476.308,389.908,495.212,352.098,495.212,311.138z"/>
<path style="fill:#183651;" d="M441.649,501.76l-49.625-49.625c-11.815,3.151-23.631,4.726-34.658,4.726
	c-80.345,0-145.723-65.378-145.723-145.723s65.378-145.723,145.723-145.723s145.723,65.378,145.723,145.723
	c0,40.96-17.329,80.345-48.049,107.914v77.982c0,3.151-1.575,6.302-4.726,7.089C447.163,504.911,444.012,504.123,441.649,501.76z
	 M394.388,435.594c2.363,0,3.938,0.788,5.514,2.363l39.385,39.385v-62.228c0-2.363,0.788-4.726,2.363-6.302
	c28.357-24.418,44.898-60.652,44.898-98.462c0-71.68-58.289-129.969-129.969-129.969s-129.182,59.077-129.182,130.757
	s58.289,129.969,129.969,129.969c11.815,0,23.631-1.575,35.446-4.726C392.812,435.594,393.6,435.594,394.388,435.594z"/>
<path style="fill:#F06151;" d="M357.366,311.138L321.92,411.175c11.028,3.938,22.843,6.302,35.446,6.302
	c55.138,0,100.825-42.535,105.551-96.886L357.366,311.138z"/>
<path style="fill:#FBBD5E;" d="M432.197,235.52c-18.905-18.905-45.686-30.72-74.831-30.72c-58.289,0-106.338,47.262-106.338,106.338
	h106.338L432.197,235.52z"/>
<path style="fill:#2EA0DA;" d="M462.917,320.591c0-3.151,0.788-6.302,0.788-9.452c0-29.145-11.815-55.926-30.72-74.831
	l-75.618,74.831L462.917,320.591z"/>
<path style="fill:#E0E4E8;" d="M251.028,311.138c0,46.474,29.145,85.071,70.892,100.037l35.446-100.037H251.028z"/>
<path style="fill:#F06151;" d="M39.138,7.877h253.637c16.542,0,29.932,13.391,29.932,29.932v174.08
	c0,16.542-13.391,29.932-29.932,29.932h-122.88l-85.071,70.892v-70.892H39.138c-16.542,0-29.932-13.391-29.932-29.932V37.809
	C8.418,21.268,22.597,7.877,39.138,7.877z"/>
<path style="fill:#183651;" d="M81.674,319.803c-3.151-1.575-4.726-3.938-4.726-7.089v-63.015H39.138
	c-20.48,0-37.809-17.329-37.809-37.809V37.809C1.329,17.329,18.658,0,39.138,0h253.637c20.48,0,37.809,17.329,37.809,37.809v174.08
	c0,20.48-17.329,37.809-37.809,37.809H173.046l-82.708,68.529C87.975,320.591,84.037,320.591,81.674,319.803z M39.138,15.754
	c-11.815,0-22.055,10.24-22.055,22.055v174.08c0,11.815,10.24,22.055,22.055,22.055h46.474c4.726,0,7.877,3.151,7.877,7.877v53.563
	l71.68-59.865c1.575-1.575,3.151-1.575,4.726-1.575h122.092c11.815,0,22.055-10.24,22.055-22.055V37.809
	c0-11.815-10.24-22.055-22.055-22.055C291.988,15.754,39.138,15.754,39.138,15.754z"/>
<path style="fill:#FFFFFF;" d="M159.655,213.465h132.332c0.788,0,1.575-0.788,1.575-1.575V37.809c0-0.788-0.788-1.575-1.575-1.575
	H39.138c-0.788,0-1.575,0.788-1.575,1.575v174.08c0,0.788,0.788,1.575,1.575,1.575h74.043v38.597L159.655,213.465z"/>
<g>
	<rect x="218.732" y="66.166" style="fill:#4FBF9F;" width="33.871" height="114.215"/>
	<rect x="148.628" y="108.702" style="fill:#4FBF9F;" width="33.871" height="72.468"/>
	<rect x="77.735" y="94.523" style="fill:#4FBF9F;" width="33.871" height="86.646"/>
</g>
<g>
	<rect x="40.714" y="448.197" style="fill:#183651;" width="15.754" height="15.754"/>
	<rect x="99.003" y="448.197" style="fill:#183651;" width="15.754" height="15.754"/>
	<rect x="157.292" y="448.197" style="fill:#183651;" width="15.754" height="15.754"/>
	<rect x="356.578" y="44.111" style="fill:#183651;" width="15.754" height="15.754"/>
	<rect x="414.868" y="44.111" style="fill:#183651;" width="15.754" height="15.754"/>
	<rect x="473.157" y="44.111" style="fill:#183651;" width="15.754" height="15.754"/>
</g>
<g>
</g>
<g>
</g>
<g>
</g>
<g>
</g>
<g>
</g>
<g>
</g>
<g>
</g>
<g>
</g>
<g>
</g>
<g>
</g>
<g>
</g>
<g>
</g>
<g>
</g>
<g>
</g>
<g>
</g>
</svg>
