<?xml version="1.0" encoding="iso-8859-1"?>
<!-- Generator: Adobe Illustrator 19.0.0, SVG Export Plug-In . SVG Version: 6.00 Build 0)  -->
<svg version="1.1" id="Capa_1" xmlns="http://www.w3.org/2000/svg" xmlns:xlink="http://www.w3.org/1999/xlink" x="0px" y="0px"
	 viewBox="0 0 504.123 504.123" style="enable-background:new 0 0 504.123 504.123;" xml:space="preserve">
<circle style="fill:#F06151;" cx="252.062" cy="252.062" r="252.062"/>
<path style="fill:#2CA0DA;" d="M69.317,449.772v-92.948c-2.363-72.468,122.092-122.092,122.092-122.092l115.791-3.151
	C458.437,307.2,432.443,356.825,432.443,356.825v92.948H69.317z"/>
<path style="fill:#183651;" d="M433.231,457.649H69.317c-2.363,0-3.938-0.788-5.514-2.363c-1.575-1.575-2.363-3.151-2.363-5.514
	v-92.948c-2.363-76.406,122.092-126.818,127.606-129.182c0.788,0,1.575-0.788,2.363-0.788l115.791-3.151
	c1.575,0,2.363,0,3.938,0.788c92.948,46.474,121.305,84.283,129.182,107.914c3.938,12.603,2.363,22.055,0.788,25.994v91.372
	C441.108,453.711,437.169,457.649,433.231,457.649z M77.194,441.895h347.372v-85.071c0-1.575,0-2.363,0.788-3.938
	c0,0,17.329-44.111-120.517-113.428l-111.852,3.151c-12.603,5.514-118.154,51.2-115.791,113.428V441.895z"/>
<path style="fill:#FBBD5E;" d="M215.828,194.56c0,0,2.363,23.631-24.418,40.172c0,0,63.015,45.686,115.791-3.151
	c0,0-15.754-11.028-15.754-40.96L215.828,194.56z"/>
<path style="fill:#183651;" d="M251.274,262.302L251.274,262.302c-35.446,0-63.015-19.692-64.591-20.48
	c-2.363-1.575-3.151-3.938-3.151-6.302s1.575-4.726,3.938-6.302c22.055-13.391,20.48-32.295,20.48-33.083
	c0-2.363,0.788-3.938,1.575-5.514c0.788-1.575,3.151-2.363,5.514-2.363l75.618-4.726c2.363,0,3.938,0.788,5.514,2.363
	c1.575,1.575,2.363,3.938,2.363,5.514c0,25.206,11.815,34.658,12.603,34.658c1.575,1.575,3.151,3.938,3.151,6.302
	c0,2.363-0.788,4.726-2.363,6.302C294.597,253.637,274.117,262.302,251.274,262.302z M205.588,233.945
	c10.24,5.514,26.782,11.815,45.686,11.815c16.542,0,31.508-5.514,44.111-14.966c-4.726-6.302-10.24-16.542-11.815-32.295
	l-60.652,3.938C222.129,210.314,218.191,222.917,205.588,233.945z"/>
<path style="fill:#FFFFFF;" d="M187.471,148.874c0,0,11.028,52.775,63.015,61.44c0,0,51.988-1.575,69.317-72.468l10.24-17.329
	V78.769l-18.905-25.206l-47.262-5.514l-68.529,22.055l-22.843,43.323L187.471,148.874z"/>
<path style="fill:#183651;" d="M250.486,217.403c-0.788,0-0.788,0-1.575,0c-53.563-7.877-67.742-59.077-69.317-66.166
	l-14.966-35.446c-0.788-2.363-0.788-4.726,0-7.089l22.843-43.323c0.788-1.575,2.363-3.151,4.726-3.938l68.529-22.055
	c0.788,0,2.363-0.788,3.151,0l46.474,5.514c2.363,0,3.938,1.575,5.514,3.151l18.905,25.206c0.788,1.575,1.575,3.151,1.575,4.726
	v41.748c0,1.575,0,2.363-0.788,3.938l-8.665,16.542C307.988,215.828,252.849,217.403,250.486,217.403L250.486,217.403z
	 M181.169,113.428l13.391,32.295c0,0.788,0,0.788,0.788,1.575c0.788,1.575,11.028,47.262,55.926,55.138
	c5.514-0.788,46.474-5.514,61.44-66.166c0-0.788,0.788-1.575,0.788-2.363l8.665-15.754V81.132l-15.754-20.48l-41.748-4.726
	l-63.803,20.48L181.169,113.428z"/>
<path style="fill:#E1E6E7;" d="M161.477,57.502c0,0,33.871-77.194,126.031-39.385s31.508,118.942,31.508,118.942
	c22.843-68.529-39.385-77.982-39.385-77.982C256,86.646,229.218,83.495,229.218,83.495c-66.954,8.665-42.535,65.378-42.535,65.378
	C141.785,114.215,161.477,57.502,161.477,57.502z"/>
<g>
	<path style="fill:#183651;" d="M187.471,156.751L187.471,156.751c-1.575,0-3.151-0.788-4.726-1.575
		c-49.625-37.809-28.357-99.249-28.357-100.037C155.963,51.988,179.594,0,240.246,0c15.754,0,33.083,3.938,51.2,11.028
		c29.145,11.815,47.262,29.932,53.563,52.775c11.028,38.597-17.329,77.194-18.905,78.769c-2.363,3.151-6.302,3.938-10.24,2.363
		c-3.151-1.575-4.726-5.514-3.938-9.452c6.302-19.692,6.302-35.446-0.788-47.262c-7.877-12.603-21.268-18.117-28.357-19.692
		c-20.48,21.268-41.748,23.631-51.2,23.631c-0.788,0-1.575,0-2.363,0c-17.329,2.363-29.145,8.665-35.446,18.117
		c-7.877,13.391-2.363,30.72-0.788,34.658c0.788,1.575,1.575,2.363,1.575,3.938C195.348,152.812,192.197,156.751,187.471,156.751z
		 M240.246,15.754c-50.412,0-70.105,43.323-70.892,44.898c0,1.575-11.028,34.658,6.302,63.015c0-7.089,1.575-14.966,6.302-22.055
		c8.665-14.178,24.418-23.631,47.262-25.994c0.788,0,1.575,0,1.575,0c0.788,0,23.631,1.575,44.111-21.268
		c1.575-2.363,3.938-3.151,7.089-3.151c0.788,0,29.145,4.726,43.323,28.357c2.363,3.938,3.938,8.665,5.514,12.603
		c1.575-7.877,1.575-16.542-0.788-25.206c-4.726-18.117-19.692-31.508-44.111-41.748C268.603,18.905,253.637,15.754,240.246,15.754z
		"/>
	<rect x="47.262" y="140.997" style="fill:#183651;" width="15.754" height="15.754"/>
	<rect x="47.262" y="86.646" style="fill:#183651;" width="15.754" height="15.754"/>
	<rect x="47.262" y="33.083" style="fill:#183651;" width="15.754" height="15.754"/>
	<rect x="47.262" y="194.56" style="fill:#183651;" width="15.754" height="15.754"/>
	<rect x="47.262" y="248.123" style="fill:#183651;" width="15.754" height="15.754"/>
	<rect x="441.108" y="140.997" style="fill:#183651;" width="15.754" height="15.754"/>
	<rect x="441.108" y="86.646" style="fill:#183651;" width="15.754" height="15.754"/>
	<rect x="441.108" y="33.083" style="fill:#183651;" width="15.754" height="15.754"/>
	<rect x="441.108" y="194.56" style="fill:#183651;" width="15.754" height="15.754"/>
	<rect x="441.108" y="248.123" style="fill:#183651;" width="15.754" height="15.754"/>
</g>
<rect x="7.877" y="378.092" style="fill:#FBBD5E;" width="488.369" height="118.154"/>
<path style="fill:#183651;" d="M496.246,504.123H7.877c-4.726,0-7.877-3.151-7.877-7.877V378.092c0-4.726,3.151-7.877,7.877-7.877
	h488.369c4.726,0,7.877,3.151,7.877,7.877v118.154C504.123,500.972,500.972,504.123,496.246,504.123z M15.754,488.369h472.615
	v-102.4H15.754V488.369z"/>
<polygon style="fill:#E1E6E7;" points="388.332,496.246 115.791,496.246 70.105,421.415 434.018,421.415 "/>
<path style="fill:#183651;" d="M388.332,504.123H115.791c-2.363,0-5.514-1.575-7.089-3.938l-45.686-74.831
	c-1.575-2.363-1.575-5.514,0-7.877c1.575-2.363,4.726-3.938,7.089-3.938h363.914c3.151,0,5.514,1.575,7.089,3.938
	s1.575,5.514,0,7.877l-45.686,74.831C393.846,502.548,391.483,504.123,388.332,504.123z M119.729,488.369h263.877l35.446-59.077
	H84.283L119.729,488.369z"/>
<path style="fill:#E1E6E7;" d="M388.332,496.246H115.791V326.105c0-9.452,7.877-18.117,18.117-18.117h237.095
	c9.452,0,18.117,7.877,18.117,18.117v170.142H388.332z"/>
<path style="fill:#183651;" d="M388.332,504.123H115.791c-4.726,0-7.877-3.151-7.877-7.877V326.105
	c0-14.178,11.815-25.994,25.994-25.994h237.095c14.178,0,25.994,11.815,25.994,25.994v170.142
	C396.209,500.972,393.058,504.123,388.332,504.123z M123.668,488.369h256.788V326.105c0-5.514-4.726-10.24-10.24-10.24H133.12
	c-5.514,0-10.24,4.726-10.24,10.24v162.265H123.668z"/>
<g>
	<rect x="147.298" y="339.495" style="fill:#FFFFFF;" width="209.526" height="125.243"/>
	<circle style="fill:#FFFFFF;" cx="252.062" cy="402.511" r="23.631"/>
</g>
<path style="fill:#183651;" d="M252.062,434.018c-17.329,0-31.508-14.178-31.508-31.508c0-17.329,14.178-31.508,31.508-31.508
	s31.508,14.178,31.508,31.508C283.569,419.84,269.391,434.018,252.062,434.018z M252.062,385.969
	c-8.665,0-15.754,7.089-15.754,15.754s7.089,15.754,15.754,15.754c8.665,0,15.754-7.089,15.754-15.754
	S260.726,385.969,252.062,385.969z"/>
<g>
</g>
<g>
</g>
<g>
</g>
<g>
</g>
<g>
</g>
<g>
</g>
<g>
</g>
<g>
</g>
<g>
</g>
<g>
</g>
<g>
</g>
<g>
</g>
<g>
</g>
<g>
</g>
<g>
</g>
</svg>
