<?xml version="1.0" encoding="iso-8859-1"?>
<!-- Generator: Adobe Illustrator 19.0.0, SVG Export Plug-In . SVG Version: 6.00 Build 0)  -->
<svg version="1.1" id="Capa_1" xmlns="http://www.w3.org/2000/svg" xmlns:xlink="http://www.w3.org/1999/xlink" x="0px" y="0px"
	 viewBox="0 0 504.123 504.123" style="enable-background:new 0 0 504.123 504.123;" xml:space="preserve">
<path style="fill:#E0E4E8;" d="M348.16,234.732H23.631c-8.665,0-15.754,7.089-15.754,15.754v230.006
	c0,8.665,7.089,15.754,15.754,15.754H348.16c8.665,0,15.754-7.089,15.754-15.754V250.486
	C363.914,241.822,356.825,234.732,348.16,234.732z"/>
<g>
	<path style="fill:#183651;" d="M348.16,504.123H23.631C10.24,504.123,0,493.883,0,480.492V250.486
		c0-13.391,10.24-23.631,23.631-23.631H348.16c13.391,0,23.631,10.24,23.631,23.631v230.006
		C371.791,493.883,360.763,504.123,348.16,504.123z M23.631,242.609c-4.726,0-7.877,3.151-7.877,7.877v230.006
		c0,4.726,3.151,7.877,7.877,7.877H348.16c4.726,0,7.877-3.151,7.877-7.877V250.486c0-4.726-3.151-7.877-7.877-7.877H23.631z"/>
	<path style="fill:#183651;" d="M252.849,242.609c-4.726,0-7.877-3.151-7.877-7.877v-37.022c0-3.151-2.363-5.514-5.514-5.514
		H132.332c-3.151,0-5.514,2.363-5.514,5.514v37.022c0,4.726-3.151,7.877-7.877,7.877s-7.877-3.151-7.877-7.877v-37.022
		c0-11.815,9.452-21.268,21.268-21.268h106.338c11.815,0,21.268,9.452,21.268,21.268v37.022
		C260.726,239.458,256.788,242.609,252.849,242.609z"/>
</g>
<g>
	<path style="fill:#4FBF9F;" d="M104.763,266.24H39.385v65.378C75.618,331.618,104.763,302.474,104.763,266.24z"/>
	<path style="fill:#4FBF9F;" d="M266.24,266.24c0,36.234,29.145,65.378,65.378,65.378V266.24H266.24z"/>
	<path style="fill:#4FBF9F;" d="M39.385,399.36v65.378h65.378C104.763,428.505,75.618,399.36,39.385,399.36z"/>
	<path style="fill:#4FBF9F;" d="M266.24,464.738h65.378V399.36C296.172,399.36,266.24,428.505,266.24,464.738z"/>
</g>
<path style="fill:#FFFFFF;" d="M266.24,266.24H104.763c0,36.234-29.145,65.378-65.378,65.378v67.742
	c36.234,0,65.378,29.145,65.378,65.378H266.24c0-36.234,29.145-65.378,65.378-65.378v-67.742
	C296.172,331.618,266.24,302.474,266.24,266.24z"/>
<circle style="fill:#FBBD5E;" cx="185.895" cy="365.489" r="60.652"/>
<path style="fill:#FFFFFF;" d="M183.532,399.36v-6.302c-7.877-0.788-14.178-3.938-20.48-8.665l6.302-7.089
	c4.726,3.938,9.452,6.302,14.178,7.089V368.64c-6.302-1.575-11.028-3.151-13.391-5.514c-3.151-2.363-3.938-6.302-3.938-11.028
	s1.575-8.665,4.726-11.815c3.151-3.151,7.877-4.726,12.603-4.726v-3.938h5.514v3.938c6.302,0.788,11.815,2.363,17.329,6.302
	l-5.514,7.877c-3.938-2.363-7.877-3.938-11.815-4.726v15.754l0,0c6.302,1.575,11.028,3.151,14.178,6.302
	c3.151,2.363,4.726,6.302,4.726,11.028s-1.575,8.665-4.726,11.815s-7.877,4.726-13.391,4.726v6.302h-6.302V399.36z M178.018,346.585
	c-1.575,1.575-2.363,3.151-2.363,4.726s0.788,3.151,1.575,4.726c0.788,0.788,3.151,2.363,6.302,3.151v-14.178
	C181.169,344.222,179.594,345.009,178.018,346.585z M195.348,382.818c1.575-1.575,2.363-3.151,2.363-4.726
	c0-1.575-0.788-3.151-1.575-4.726c-1.575-0.788-3.151-2.363-7.089-3.151v14.966C192.197,384.394,193.772,383.606,195.348,382.818z"
	/>
<circle style="fill:#4FBF9F;" cx="413.538" cy="141.785" r="90.585"/>
<g>
	<rect x="346.585" y="133.12" style="fill:#183651;" width="15.754" height="16.542"/>
	<rect x="465.526" y="133.12" style="fill:#183651;" width="15.754" height="16.542"/>
	
		<rect x="363.318" y="175.524" transform="matrix(-0.7071 -0.7071 0.7071 -0.7071 504.6575 575.8374)" style="fill:#183651;" width="16.541" height="15.754"/>
	
		<rect x="447.623" y="91.269" transform="matrix(-0.707 -0.7072 0.7072 -0.707 708.0974 491.653)" style="fill:#183651;" width="16.541" height="15.754"/>
	<rect x="405.662" y="192.985" style="fill:#183651;" width="16.542" height="15.754"/>
	<rect x="405.662" y="74.043" style="fill:#183651;" width="16.542" height="15.754"/>
	
		<rect x="447.987" y="175.726" transform="matrix(-0.7071 -0.7071 0.7071 -0.7071 648.1024 636.4465)" style="fill:#183651;" width="15.754" height="16.541"/>
	
		<rect x="363.759" y="91.412" transform="matrix(-0.7071 -0.7071 0.7071 -0.7071 563.9354 432.9551)" style="fill:#183651;" width="15.754" height="16.541"/>
</g>
<polygon style="fill:#F06151;" points="72.468,98.462 266.24,98.462 343.434,52.775 266.24,7.877 72.468,7.877 "/>
<path style="fill:#183651;" d="M266.24,106.338H72.468c-4.726,0-7.877-3.151-7.877-7.877V7.877C64.591,3.151,67.742,0,72.468,0
	h194.56c1.575,0,3.151,0,3.938,0.788l77.194,44.898c2.363,1.575,3.938,3.938,3.938,7.089s-1.575,5.514-3.938,7.089l-77.194,44.898
	C269.391,105.551,267.815,106.338,266.24,106.338z M80.345,90.585h184.32l63.803-37.022l-63.803-37.022H80.345V90.585z"/>
<g>
	<polygon style="fill:#FFFFFF;" points="103.975,66.954 103.975,39.385 257.575,39.385 281.206,52.775 257.575,66.954 	"/>
	<path style="fill:#FFFFFF;" d="M7.877,27.569v51.2c0,11.028,8.665,19.692,19.692,19.692h44.898V7.877H27.569
		C16.542,7.877,7.877,16.542,7.877,27.569z"/>
</g>
<g>
	<path style="fill:#183651;" d="M72.468,106.338H27.569C12.603,106.338,0,93.735,0,78.769v-51.2C0,12.603,12.603,0,27.569,0h44.898
		c4.726,0,7.877,3.151,7.877,7.877v90.585C80.345,102.4,76.406,106.338,72.468,106.338z M27.569,15.754
		c-6.302,0-11.815,5.514-11.815,11.815v51.2c0,6.302,5.514,11.815,11.815,11.815h37.022V15.754H27.569z"/>
	<rect x="343.434" y="323.742" style="fill:#183651;" width="108.702" height="15.754"/>
	<rect x="343.434" y="369.428" style="fill:#183651;" width="108.702" height="15.754"/>
	<rect x="343.434" y="415.902" style="fill:#183651;" width="108.702" height="15.754"/>
</g>
<g>
</g>
<g>
</g>
<g>
</g>
<g>
</g>
<g>
</g>
<g>
</g>
<g>
</g>
<g>
</g>
<g>
</g>
<g>
</g>
<g>
</g>
<g>
</g>
<g>
</g>
<g>
</g>
<g>
</g>
</svg>
