<?xml version="1.0" encoding="iso-8859-1"?>
<!-- Generator: Adobe Illustrator 19.0.0, SVG Export Plug-In . SVG Version: 6.00 Build 0)  -->
<svg version="1.1" id="Capa_1" xmlns="http://www.w3.org/2000/svg" xmlns:xlink="http://www.w3.org/1999/xlink" x="0px" y="0px"
	 viewBox="0 0 504.911 504.911" style="enable-background:new 0 0 504.911 504.911;" xml:space="preserve">
<path style="fill:#FFFFFF;" d="M267.028,201.976c0-32.295-25.994-58.289-58.289-58.289H66.954
	c-32.295,0-58.289,25.994-58.289,58.289V340.61c0,9.452,7.089,18.117,16.542,18.905c11.028,0.788,19.692-7.089,19.692-18.117
	V235.847c0-10.24,7.089-18.905,17.329-19.692c11.028-0.788,21.268,7.877,21.268,18.905v241.822c0,9.452,7.089,18.117,16.542,18.905
	c11.028,0.788,20.48-7.089,20.48-18.117V370.543c0-10.24,7.877-18.117,18.117-18.117c10.24,0,18.117,7.877,18.117,18.117v106.338
	c0,9.452,7.089,18.117,16.542,18.905c11.028,0.788,20.48-7.089,20.48-18.117V235.847c0-10.24,7.089-18.905,17.329-19.692
	c11.028-0.788,21.268,7.877,21.268,18.905v106.338c0,9.452,7.089,18.117,16.542,18.905c11.028,0.788,19.692-7.089,19.692-18.117
	L267.028,201.976z"/>
<path style="fill:#183651;" d="M171.717,504.45c-13.391-1.575-23.631-13.391-23.631-26.782V370.543c0-5.514-4.726-10.24-10.24-10.24
	s-10.24,4.726-10.24,10.24v107.914c0,14.966-13.391,27.569-29.145,25.994c-13.391-1.575-23.631-13.391-23.631-26.782V235.059
	c0-6.302-5.514-11.815-12.603-11.028c-5.514,0.788-10.24,5.514-10.24,11.815v106.338c0,14.966-13.391,27.569-28.357,25.994
	C10.24,366.604,0,354.789,0,341.398V202.764c0-37.022,29.932-66.166,66.166-66.166h140.997c37.022,0,66.166,29.932,66.166,66.166
	v140.209c0,14.178-11.815,25.994-25.994,25.994l0,0c-0.788,0-1.575,0-2.363,0c-13.391-1.575-23.631-13.391-23.631-26.782V235.059
	c0-6.302-5.514-11.815-12.603-11.028c-5.514,0.788-10.24,5.514-10.24,11.815v242.609
	C200.862,493.423,187.471,506.026,171.717,504.45z M137.846,344.549c14.178,0,25.994,11.815,25.994,25.994v106.338
	c0,5.514,3.938,11.028,9.452,11.028c6.302,0.788,11.815-3.938,11.815-10.24V235.847c0-14.178,10.24-26.782,24.418-27.569
	c15.754-1.575,29.932,11.028,29.932,26.782v106.338c0,5.514,3.938,11.028,9.452,11.028h0.788l0,0c5.514,0,10.24-4.726,10.24-10.24
	V201.976c0-27.569-22.843-50.412-50.412-50.412H66.954c-27.569,0-50.412,22.843-50.412,50.412V340.61
	c0,5.514,3.938,11.028,9.452,11.028c6.302,0.788,11.028-3.938,11.028-10.24V235.847c0-14.178,10.24-26.782,24.418-27.569
	c15.754-1.575,29.932,11.028,29.932,26.782v241.822c0,5.514,3.938,11.028,9.452,11.028c6.302,0.788,11.815-3.938,11.815-10.24
	V370.543C111.852,356.364,123.668,344.549,137.846,344.549z"/>
<path style="fill:#FBBD5E;" d="M192.985,314.616v-78.769c0-10.24,7.089-18.905,17.329-19.692
	c11.028-0.788,21.268,7.877,21.268,18.905v106.338c0,9.452,7.089,18.117,16.542,18.905c11.028,0.788,19.692-7.089,19.692-18.117
	V201.976c0-32.295-25.994-58.289-58.289-58.289H66.954c-32.295,0-58.289,25.994-58.289,58.289V340.61
	c0,9.452,7.089,18.117,16.542,18.905c11.028,0.788,19.692-7.089,19.692-18.117V235.847c0-10.24,7.089-18.905,17.329-19.692
	c11.028-0.788,21.268,7.877,21.268,18.905v79.557"/>
<path style="fill:#183651;" d="M245.76,368.179c-13.391-1.575-23.631-13.391-23.631-26.782V235.059
	c0-6.302-5.514-11.815-12.603-11.028c-5.514,0.788-10.24,5.514-10.24,11.815v78.769c0,4.726-3.151,7.877-7.877,7.877
	c-4.726,0-7.877-3.151-7.877-7.877v-78.769c0-14.178,10.24-26.782,24.418-27.569c15.754-1.575,29.932,11.028,29.932,26.782v106.338
	c0,5.514,3.938,11.028,9.452,11.028c6.302,0.788,11.028-3.938,11.028-10.24V201.976c0-27.569-22.843-50.412-50.412-50.412H66.954
	c-27.569,0-50.412,22.843-50.412,50.412V340.61c0,5.514,3.938,11.028,9.452,11.028c6.302,0.788,11.028-3.938,11.028-10.24V235.847
	c0-14.178,10.24-26.782,24.418-27.569c15.754-1.575,29.932,11.028,29.932,26.782v79.557c0,4.726-3.151,7.877-7.877,7.877
	s-7.877-3.151-7.877-7.877v-79.557c0-6.302-5.514-11.815-12.603-11.028c-5.514,0.788-10.24,5.514-10.24,11.815v106.338
	c0,14.966-13.391,27.569-28.357,25.994c-13.391-1.575-23.631-13.391-23.631-26.782V202.764c0-37.022,29.932-66.166,66.166-66.166
	h140.997c37.022,0,66.166,29.932,66.166,66.166v140.209C274.905,357.152,261.514,369.755,245.76,368.179z"/>
<ellipse style="fill:#E1E6E7;" cx="137.846" cy="61.767" rx="57.502" ry="53.563"/>
<path style="fill:#183651;" d="M137.846,123.995c-36.234,0-65.378-27.569-65.378-61.44s29.145-61.44,65.378-61.44
	s65.378,27.569,65.378,61.44S173.292,123.995,137.846,123.995z M137.846,16.081c-27.569,0-49.625,20.48-49.625,45.686
	s22.055,45.686,49.625,45.686s49.625-20.48,49.625-45.686S164.628,16.081,137.846,16.081z"/>
<circle style="fill:#E1E6E7;" cx="406.449" cy="405.989" r="90.585"/>
<path style="fill:#183651;" d="M406.449,504.45c-54.351,0-98.462-44.111-98.462-98.462s44.111-99.249,98.462-99.249
	s98.462,44.898,98.462,99.249S460.8,504.45,406.449,504.45z M406.449,322.493c-45.686,0-82.708,37.022-82.708,82.708
	s37.022,83.495,82.708,83.495s82.708-37.022,82.708-82.708S452.135,322.493,406.449,322.493z"/>
<path style="fill:#FFFFFF;" d="M406.449,468.216c-34.658,0-62.228-28.357-62.228-62.228s27.569-63.015,62.228-63.015
	s62.228,28.357,62.228,62.228S440.32,468.216,406.449,468.216z"/>
<g>
	<circle style="fill:#CFD0D1;" cx="447.409" cy="405.989" r="7.089"/>
	<circle style="fill:#CFD0D1;" cx="365.489" cy="405.989" r="7.089"/>
	<path style="fill:#CFD0D1;" d="M404.874,436.709v-5.514c-7.089-0.788-13.391-3.151-18.117-7.877l5.514-6.302
		c3.938,3.938,8.665,5.514,12.603,6.302v-14.178c-5.514-1.575-9.452-3.151-12.603-5.514c-2.363-2.363-3.938-5.514-3.938-9.452
		c0-3.938,1.575-7.877,4.726-10.24c3.151-2.363,7.089-3.938,11.815-4.726v-4.726h4.726v3.938c5.514,0.788,11.028,2.363,15.754,5.514
		l-4.726,7.089c-3.151-2.363-7.089-3.938-11.028-4.726v14.178l0,0c5.514,1.575,10.24,3.151,12.603,5.514s3.938,5.514,3.938,10.24
		c0,4.726-1.575,7.877-4.726,11.028c-3.151,2.363-7.089,3.938-12.603,4.726v5.514h-3.938V436.709z M399.36,388.659
		c-1.575,0.788-1.575,2.363-1.575,3.938c0,1.575,0.788,3.151,1.575,3.938c0.788,0.788,3.151,1.575,5.514,3.151v-12.603
		C402.511,386.296,400.148,387.084,399.36,388.659z M415.114,420.955c1.575-0.788,2.363-2.363,2.363-4.726
		c0-1.575-0.788-3.151-1.575-3.938c-0.788-0.788-3.151-2.363-6.302-3.151v13.391C411.963,423.318,413.538,422.53,415.114,420.955z"
		/>
</g>
<circle style="fill:#E1E6E7;" cx="406.449" cy="252.389" r="90.585"/>
<path style="fill:#183651;" d="M406.449,350.85c-54.351,0-98.462-44.111-98.462-98.462s44.111-98.462,98.462-98.462
	s98.462,44.111,98.462,98.462S460.8,350.85,406.449,350.85z M406.449,169.681c-45.686,0-82.708,37.022-82.708,82.708
	s37.022,82.708,82.708,82.708s82.708-37.022,82.708-82.708S452.135,169.681,406.449,169.681z"/>
<path style="fill:#FFFFFF;" d="M406.449,314.616c-34.658,0-62.228-28.357-62.228-62.228s28.357-62.228,62.228-62.228
	s62.228,28.357,62.228,62.228S440.32,314.616,406.449,314.616z"/>
<g>
	<circle style="fill:#CFD0D1;" cx="447.409" cy="252.389" r="7.089"/>
	<circle style="fill:#CFD0D1;" cx="365.489" cy="252.389" r="7.089"/>
	<path style="fill:#CFD0D1;" d="M404.874,283.109v-5.514c-7.089-0.788-13.391-3.151-18.117-7.877l5.514-6.302
		c3.938,3.938,8.665,5.514,12.603,6.302v-14.178c-5.514-1.575-9.452-3.151-12.603-5.514c-2.363-2.363-3.938-5.514-3.938-9.452
		s1.575-7.877,4.726-10.24c3.151-2.363,7.089-3.938,11.815-4.726v-3.938h4.726v3.151c5.514,0.788,11.028,2.363,15.754,5.514
		l-4.726,7.089c-3.151-2.363-7.089-3.938-11.028-4.726v14.178l0,0c5.514,1.575,10.24,3.151,12.603,5.514s3.938,5.514,3.938,10.24
		c0,4.726-1.575,7.877-4.726,11.028c-3.151,2.363-7.089,3.938-12.603,4.726v5.514h-3.938V283.109z M399.36,235.059
		c-1.575,0.788-1.575,2.363-1.575,3.938s0.788,3.151,1.575,3.938c0.788,0.788,3.151,1.575,5.514,3.151v-13.391
		C402.511,233.484,400.148,234.272,399.36,235.059z M415.114,268.143c1.575-0.788,2.363-2.363,2.363-4.726
		c0-1.575-0.788-3.151-1.575-3.938c-0.788-0.788-3.151-2.363-6.302-3.151v13.391C411.963,269.718,413.538,268.93,415.114,268.143z"
		/>
</g>
<circle style="fill:#E1E6E7;" cx="406.449" cy="98.789" r="90.585"/>
<path style="fill:#183651;" d="M406.449,198.038c-54.351,0-98.462-44.111-98.462-98.462s44.111-99.249,98.462-99.249
	s98.462,44.111,98.462,98.462S460.8,198.038,406.449,198.038z M406.449,16.081c-45.686,0-82.708,37.022-82.708,82.708
	s37.022,83.495,82.708,83.495s82.708-37.809,82.708-83.495S452.135,16.081,406.449,16.081z"/>
<path style="fill:#FFFFFF;" d="M406.449,161.804c-34.658,0-63.015-28.357-63.015-63.015s28.357-62.228,62.228-62.228
	s62.228,28.357,62.228,62.228S440.32,161.804,406.449,161.804z"/>
<g>
	<circle style="fill:#CFD0D1;" cx="447.409" cy="98.789" r="7.089"/>
	<circle style="fill:#CFD0D1;" cx="365.489" cy="98.789" r="7.089"/>
	<path style="fill:#CFD0D1;" d="M404.874,130.296v-5.514c-7.089-0.788-13.391-3.151-18.117-7.877l5.514-6.302
		c3.938,3.938,8.665,5.514,12.603,6.302v-14.178c-5.514-1.575-9.452-3.151-12.603-5.514c-2.363-2.363-3.938-5.514-3.938-9.452
		s1.575-7.877,4.726-10.24c3.151-2.363,7.089-3.938,11.815-4.726v-4.726h4.726v3.938c5.514,0.788,11.028,2.363,15.754,5.514
		l-4.726,7.089c-3.151-2.363-7.089-3.938-11.028-4.726v14.178l0,0c5.514,1.575,10.24,3.151,12.603,5.514
		c2.363,2.363,3.938,5.514,3.938,10.24s-1.575,7.877-4.726,11.028c-3.151,2.363-7.089,3.938-12.603,4.726v4.726H404.874z
		 M399.36,81.459c-1.575,0.788-1.575,2.363-1.575,3.938c0,1.575,0.788,3.151,1.575,3.938c0.788,0.788,3.151,1.575,5.514,3.151
		V79.884C402.511,79.884,400.148,80.672,399.36,81.459z M415.114,114.543c1.575-0.788,2.363-2.363,2.363-4.726
		c0-1.575-0.788-3.151-1.575-3.938c-0.788-0.788-3.151-2.363-6.302-3.151v13.391C411.963,116.118,413.538,116.118,415.114,114.543z"
		/>
</g>
<g>
	<rect x="129.969" y="175.195" style="fill:#183651;" width="15.754" height="15.754"/>
	<rect x="129.969" y="223.244" style="fill:#183651;" width="15.754" height="15.754"/>
	<rect x="129.969" y="270.506" style="fill:#183651;" width="15.754" height="15.754"/>
</g>
<g>
</g>
<g>
</g>
<g>
</g>
<g>
</g>
<g>
</g>
<g>
</g>
<g>
</g>
<g>
</g>
<g>
</g>
<g>
</g>
<g>
</g>
<g>
</g>
<g>
</g>
<g>
</g>
<g>
</g>
</svg>
