<?xml version="1.0" encoding="iso-8859-1"?>
<!-- Generator: Adobe Illustrator 19.0.0, SVG Export Plug-In . SVG Version: 6.00 Build 0)  -->
<svg version="1.1" id="Capa_1" xmlns="http://www.w3.org/2000/svg" xmlns:xlink="http://www.w3.org/1999/xlink" x="0px" y="0px"
	 viewBox="0 0 504.155 504.155" style="enable-background:new 0 0 504.155 504.155;" xml:space="preserve">
<circle style="fill:#FBBD5E;" cx="252.093" cy="252.093" r="221.342"/>
<path style="fill:#FFFFFF;" d="M322.198,222.161c-3.938-14.178-17.329-25.206-33.083-25.206c-2.363,0-4.726,0-6.302,0.788
	c-7.877-13.391-22.055-22.055-38.597-22.055c-25.206,0-45.686,20.48-45.686,45.686v0.788c-21.268,1.575-37.022,18.117-37.022,38.597
	c0,21.268,17.329,38.597,38.597,38.597h122.092c21.268,0,38.597-17.329,38.597-38.597
	C360.007,239.49,342.678,222.161,322.198,222.161z"/>
<path style="fill:#183651;" d="M321.41,307.232H200.106c-25.206,0-46.474-20.48-46.474-46.474c0-22.055,15.754-40.96,37.022-45.686
	c3.151-26.782,25.206-47.262,52.775-47.262c17.329,0,32.295,7.877,42.535,21.268c18.117-1.575,34.658,9.452,41.748,25.206
	c22.843,3.151,40.172,22.843,40.172,45.686C367.884,286.752,347.404,307.232,321.41,307.232z M243.429,183.564
	c-20.48,0-37.809,16.542-37.809,37.809v0.788c0,3.938-3.151,7.877-7.877,7.877c-16.542,0.788-29.145,14.178-29.145,30.72
	s13.391,30.72,30.72,30.72H321.41c16.542,0,30.72-13.391,30.72-30.72c0-16.542-13.391-30.72-30.72-30.72
	c-3.151,0-6.302-2.363-7.877-5.514c-3.938-13.391-17.329-22.055-30.72-18.905c-3.151,0.788-6.302-0.788-7.877-3.938
	C268.635,190.653,256.032,183.564,243.429,183.564z"/>
<path style="fill:#2EA0DA;" d="M359.22,256.82c-2.363-18.905-18.117-33.871-37.809-33.871
	c-3.938-14.178-17.329-25.206-33.083-25.206c-2.363,0-4.726,0-6.302,0.788c-7.877-13.391-22.055-22.055-38.597-22.055
	c-25.206,0-45.686,20.48-45.686,45.686v0.788c-18.905,0.788-33.871,15.754-36.234,33.871"/>
<path style="fill:#183651;" d="M161.509,264.697h-0.788c-3.938-0.788-7.089-4.726-7.089-8.665
	c2.363-20.48,17.329-36.234,36.234-40.172c3.151-26.782,25.206-47.262,52.775-47.262c17.329,0,32.295,7.877,42.535,21.268
	c18.117-1.575,34.658,9.452,41.748,25.206c20.48,2.363,37.809,19.692,40.172,40.96c0.788,3.938-2.363,7.877-7.089,8.665
	c-3.938,0.788-7.877-2.363-8.665-7.089c-1.575-15.754-14.966-26.782-29.932-27.569c-3.151,0-6.302-2.363-7.877-5.514
	c-3.938-13.391-17.329-22.055-30.72-18.905c-3.151,0.788-6.302-0.788-7.877-3.938c-7.089-11.028-18.905-18.117-32.295-18.117
	c-20.48,0-37.809,16.542-37.809,37.809v0.788c0,3.938-3.151,7.877-7.877,7.877c-14.966,0.788-26.782,11.815-29.145,26.782
	C169.386,261.546,165.447,264.697,161.509,264.697z"/>
<rect x="7.909" y="7.909" style="fill:#FFFFFF;" width="182.745" height="132.332"/>
<path style="fill:#183651;" d="M190.653,148.118H7.909c-4.726,0-7.877-3.151-7.877-7.877V7.909c0-4.726,3.151-7.877,7.877-7.877
	h182.745c4.726,0,7.877,3.151,7.877,7.877v132.332C198.53,144.18,195.38,148.118,190.653,148.118z M15.786,132.364h166.991V15.786
	H15.786V132.364z"/>
<polygon style="fill:#E0E4E8;" points="182.777,132.364 143.392,78.013 111.884,108.733 67.773,55.958 15.786,132.364 "/>
<circle style="fill:#FBBD5E;" cx="137.878" cy="47.293" r="17.329"/>
<rect x="313.533" y="363.946" style="fill:#FFFFFF;" width="182.745" height="132.332"/>
<path style="fill:#183651;" d="M496.278,504.155H313.533c-4.726,0-7.877-3.151-7.877-7.877V363.946c0-4.726,3.151-7.877,7.877-7.877
	h182.745c4.726,0,7.877,3.151,7.877,7.877v132.332C504.155,501.004,501.004,504.155,496.278,504.155z M321.41,488.401h166.991
	V371.823H321.41V488.401z"/>
<polygon style="fill:#E0E4E8;" points="488.401,488.401 448.229,434.05 417.509,464.77 373.398,412.783 321.41,488.401 "/>
<circle style="fill:#FBBD5E;" cx="443.503" cy="403.33" r="17.329"/>
<polygon style="fill:#4FBF9F;" points="7.909,367.097 7.909,496.278 148.118,496.278 148.118,305.657 69.349,305.657 "/>
<path style="fill:#183651;" d="M148.118,504.155H7.909c-4.726,0-7.877-3.151-7.877-7.877V367.097c0-2.363,0.788-3.938,2.363-5.514
	l61.44-61.44c1.575-1.575,3.151-2.363,5.514-2.363h77.982c4.726,0,7.877,3.151,7.877,7.877v190.622
	C155.995,501.004,152.057,504.155,148.118,504.155z M15.786,488.401h124.455V313.533H73.287l-57.502,57.502V488.401z"/>
<g>
	<polygon style="fill:#FFFFFF;" points="116.61,464.77 39.417,464.77 39.417,367.097 69.349,337.164 116.61,337.164 	"/>
	<polygon style="fill:#FFFFFF;" points="69.349,367.097 69.349,305.657 7.909,367.097 	"/>
</g>
<path style="fill:#183651;" d="M69.349,374.973H7.909c-3.151,0-6.302-1.575-7.089-4.726c-1.575-3.151-0.788-6.302,1.575-8.665
	l61.44-61.44c2.363-2.363,5.514-3.151,8.665-1.575c3.151,1.575,4.726,3.938,4.726,7.089v61.44
	C77.226,371.823,74.075,374.973,69.349,374.973z M26.813,359.22h34.658v-34.658L26.813,359.22z"/>
<polygon style="fill:#4FBF9F;" points="356.069,69.349 356.069,198.53 495.49,198.53 495.49,7.909 417.509,7.909 "/>
<path style="fill:#183651;" d="M495.49,206.407H356.069c-4.726,0-7.877-3.151-7.877-7.877V69.349c0-2.363,0.788-3.938,2.363-5.514
	l61.44-61.44c1.575-1.575,3.151-2.363,5.514-2.363h77.982c4.726,0,7.877,3.151,7.877,7.877V198.53
	C503.367,203.257,500.217,206.407,495.49,206.407z M363.946,190.653h124.455V15.786h-66.954l-57.502,57.502V190.653z"/>
<g>
	<polygon style="fill:#FFFFFF;" points="463.983,167.023 387.577,167.023 387.577,69.349 417.509,39.417 463.983,39.417 	"/>
	<polygon style="fill:#FFFFFF;" points="417.509,69.349 417.509,7.909 356.069,69.349 	"/>
</g>
<g>
	<path style="fill:#183651;" d="M417.509,77.226h-61.44c-3.151,0-6.302-1.575-7.089-4.726c-1.575-3.151-0.788-6.302,1.575-8.665
		l61.44-61.44c2.363-2.363,5.514-3.151,8.665-1.575s4.726,3.938,4.726,7.089v61.44C425.386,74.075,422.235,77.226,417.509,77.226z
		 M374.973,61.472h34.658V26.813L374.973,61.472z"/>
	<rect x="404.118" y="254.457" style="fill:#183651;" width="15.754" height="15.754"/>
	<rect x="445.866" y="254.457" style="fill:#183651;" width="15.754" height="15.754"/>
	<rect x="488.401" y="254.457" style="fill:#183651;" width="15.754" height="15.754"/>
	<rect x="271.786" y="0.032" style="fill:#183651;" width="15.754" height="15.754"/>
	<rect x="271.786" y="42.567" style="fill:#183651;" width="15.754" height="15.754"/>
	<rect x="271.786" y="84.315" style="fill:#183651;" width="15.754" height="15.754"/>
	<rect x="207.195" y="404.118" style="fill:#183651;" width="15.754" height="15.754"/>
	<rect x="207.195" y="445.866" style="fill:#183651;" width="15.754" height="15.754"/>
	<rect x="207.195" y="488.401" style="fill:#183651;" width="15.754" height="15.754"/>
	<rect x="0.032" y="254.457" style="fill:#183651;" width="15.754" height="15.754"/>
	<rect x="42.567" y="254.457" style="fill:#183651;" width="15.754" height="15.754"/>
	<rect x="84.315" y="254.457" style="fill:#183651;" width="15.754" height="15.754"/>
</g>
<g>
</g>
<g>
</g>
<g>
</g>
<g>
</g>
<g>
</g>
<g>
</g>
<g>
</g>
<g>
</g>
<g>
</g>
<g>
</g>
<g>
</g>
<g>
</g>
<g>
</g>
<g>
</g>
<g>
</g>
</svg>
