<?xml version="1.0" encoding="iso-8859-1"?>
<!-- Generator: Adobe Illustrator 19.0.0, SVG Export Plug-In . SVG Version: 6.00 Build 0)  -->
<svg version="1.1" id="Capa_1" xmlns="http://www.w3.org/2000/svg" xmlns:xlink="http://www.w3.org/1999/xlink" x="0px" y="0px"
	 viewBox="0 0 504.123 504.123" style="enable-background:new 0 0 504.123 504.123;" xml:space="preserve">
<circle style="fill:#2EA0DA;" cx="252.062" cy="252.062" r="252.062"/>
<path style="fill:#183651;" d="M252.062,483.643c-2.363,0-5.514,0-7.877,0l0.788-15.754c4.726,0,10.24,0,14.966,0l0.788,15.754
	C257.575,483.643,255.212,483.643,252.062,483.643z M228.431,482.068c-5.514-0.788-11.028-1.575-15.754-2.363l2.363-15.754
	c4.726,0.788,10.24,1.575,14.966,2.363L228.431,482.068z M276.48,482.068l-1.575-15.754c4.726-0.788,10.24-1.575,14.966-2.363
	l2.363,15.754C287.508,481.28,281.994,482.068,276.48,482.068z M196.135,476.554c-5.514-1.575-10.24-3.151-15.754-4.726
	l4.726-14.966c4.726,1.575,9.452,3.151,14.178,3.938L196.135,476.554z M307.988,476.554l-3.938-14.966
	c4.726-1.575,9.452-2.363,14.178-3.938l4.726,14.966C319.015,474.191,313.502,474.978,307.988,476.554z M165.415,467.102
	c-4.726-2.363-10.24-3.938-14.966-6.302l7.089-14.178c4.726,2.363,9.452,3.938,13.391,6.302L165.415,467.102z M338.708,466.314
	l-6.302-14.966c4.726-1.575,9.452-3.938,13.391-6.302l7.089,14.178C348.948,462.375,344.222,464.738,338.708,466.314z
	 M136.271,452.923c-4.726-2.363-9.452-5.514-13.391-8.665l8.665-13.391c3.938,3.151,8.665,5.514,12.603,7.877L136.271,452.923z
	 M367.852,452.135l-7.877-13.391c3.938-2.363,8.665-5.514,12.603-7.877l8.665,13.391
	C377.305,446.622,372.578,449.772,367.852,452.135z M109.489,434.806c-3.938-3.151-8.665-7.089-12.603-10.24l10.24-11.815
	c3.938,3.151,7.877,6.302,11.815,9.452L109.489,434.806z M394.634,434.018l-9.452-12.603c3.938-3.151,7.877-6.302,11.815-9.452
	l10.24,11.815C403.298,427.717,398.572,430.868,394.634,434.018z M85.858,412.751c-3.938-3.938-7.089-7.877-11.028-11.815
	l11.815-10.24c3.151,3.938,6.302,7.877,10.24,11.028L85.858,412.751z M418.265,412.751l-11.028-11.028
	c3.151-3.938,7.089-7.089,10.24-11.028l11.815,10.24C426.142,404.874,422.203,408.812,418.265,412.751z M64.591,388.332
	c-3.151-3.938-6.302-8.665-8.665-13.391l13.391-8.665c2.363,3.938,5.514,8.665,8.665,12.603L64.591,388.332z M439.532,388.332
	l-12.603-9.452c3.151-3.938,5.514-8.665,8.665-12.603l13.391,8.665C445.834,378.88,442.683,383.606,439.532,388.332z
	 M48.049,360.763c-2.363-4.726-4.726-9.452-7.089-14.178l14.178-6.302c2.363,4.726,3.938,9.452,6.302,13.391L48.049,360.763z
	 M456.862,360.763l-14.178-7.089c2.363-4.726,4.726-8.665,6.302-13.391l14.178,6.302
	C461.588,351.311,459.225,356.037,456.862,360.763z M34.658,331.618c-1.575-4.726-3.151-10.24-4.726-14.966l14.966-4.726
	c1.575,4.726,3.151,9.452,4.726,14.178L34.658,331.618z M469.465,330.831l-14.966-5.514c1.575-4.726,3.151-9.452,4.726-14.178
	l14.966,4.726C473.403,320.591,471.828,326.105,469.465,330.831z M25.994,300.898c-0.788-5.514-2.363-10.24-3.151-15.754
	l15.754-2.363c0.788,4.726,1.575,10.24,2.363,14.966L25.994,300.898z M478.917,300.111l-15.754-3.151
	c0.788-4.726,1.575-10.24,2.363-14.966l15.754,2.363C480.492,289.871,479.705,294.597,478.917,300.111z M21.268,268.603
	c0-5.514-0.788-11.028-0.788-15.754h15.754c0,4.726,0,10.24,0.788,14.966L21.268,268.603z M482.855,267.815l-15.754-0.788
	c0-4.726,0.788-10.24,0.788-14.966v-0.788h15.754v0.788C483.643,257.575,483.643,263.089,482.855,267.815z M37.022,237.095
	l-15.754-0.788c0-5.514,0.788-11.028,1.575-15.754l15.754,2.363C37.809,227.643,37.022,232.369,37.022,237.095z M467.102,236.308
	c0-4.726-0.788-10.24-1.575-14.966l15.754-2.363c0.788,5.514,1.575,11.028,1.575,15.754L467.102,236.308z M40.96,207.951
	L25.206,204.8c0.788-5.514,2.363-10.24,3.938-15.754l15.754,3.938C43.323,197.711,41.748,202.437,40.96,207.951z M463.163,206.375
	c-0.788-4.726-2.363-9.452-3.938-14.966l14.966-4.726c1.575,5.514,3.151,10.24,3.938,15.754L463.163,206.375z M48.837,178.806
	l-14.966-5.514c1.575-4.726,3.938-10.24,6.302-14.966l14.178,6.302C52.775,169.354,51.2,174.08,48.837,178.806z M454.498,177.231
	c-1.575-4.726-3.938-9.452-5.514-14.178l14.178-6.302c2.363,4.726,3.938,10.24,6.302,14.966L454.498,177.231z M61.44,151.237
	l-14.178-7.089c2.363-4.726,5.514-9.452,7.877-14.178l13.391,7.877C66.166,142.572,63.803,146.511,61.44,151.237z M441.895,150.449
	c-2.363-4.726-4.726-8.665-7.877-12.603l13.391-8.665c3.151,4.726,5.514,9.452,7.877,14.178L441.895,150.449z M77.194,126.031
	l-12.603-9.452c3.151-4.726,6.302-8.665,10.24-12.603l11.815,10.24C83.495,117.366,80.345,121.305,77.194,126.031z M426.142,124.455
	c-3.151-3.938-6.302-7.877-9.452-11.815l11.815-10.24c3.151,3.938,7.089,8.665,10.24,12.603L426.142,124.455z M96.886,102.4
	L85.858,91.372c3.938-3.938,7.877-7.877,11.815-11.028l10.24,11.815C103.975,95.311,100.037,99.249,96.886,102.4z M406.449,101.612
	c-3.151-3.938-7.089-7.089-11.028-10.24l10.24-11.815c3.938,3.938,7.877,7.089,11.815,11.028L406.449,101.612z M118.942,82.708
	l-9.452-12.603c3.938-3.151,7.877-6.302,12.603-9.452l8.665,13.391C126.818,76.406,122.88,79.557,118.942,82.708z M384.394,81.92
	c-3.938-3.151-7.877-6.302-11.815-8.665l8.665-13.391c4.726,3.151,8.665,6.302,13.391,9.452L384.394,81.92z M143.36,65.378
	l-7.877-13.391c4.726-2.363,9.452-5.514,14.178-7.877l7.089,14.178C152.812,60.652,148.086,63.015,143.36,65.378z M359.188,64.591
	c-4.726-2.363-8.665-4.726-13.391-7.089l7.089-14.178c4.726,2.363,9.452,4.726,14.178,7.877L359.188,64.591z M170.929,51.988
	l-6.302-14.966c4.726-1.575,10.24-3.151,14.966-4.726l5.514,14.966C180.382,48.837,175.655,50.412,170.929,51.988z M332.406,51.988
	c-4.726-1.575-9.452-3.938-14.178-4.726l4.726-14.966c5.514,1.575,10.24,3.151,14.966,5.514L332.406,51.988z M199.286,42.535
	l-3.938-14.966c5.514-1.575,10.24-2.363,15.754-3.151l3.151,15.754C208.738,40.96,204.012,41.748,199.286,42.535z M303.262,42.535
	c-4.726-1.575-9.452-2.363-14.966-3.151l2.363-15.754c5.514,0.788,10.24,2.363,15.754,3.151L303.262,42.535z M229.218,37.809
	l-1.575-15.754c5.514-0.788,11.028-0.788,15.754-0.788l0.788,15.754C238.671,37.022,233.945,37.022,229.218,37.809z M274.117,37.809
	c-4.726-0.788-10.24-0.788-14.966-0.788l0.788-15.754c5.514,0,11.028,0.788,15.754,0.788L274.117,37.809z"/>
<path style="fill:#FBBD5E;" d="M278.843,270.966h-60.652c-3.938,0-7.877,1.575-11.028,4.726l-24.418,27.569
	c-2.363,3.151-6.302,4.726-11.028,4.726H22.055c-7.877,0-14.178,6.302-14.178,14.178v158.326c0,7.877,6.302,14.178,14.178,14.178
	h256.788c7.877,0,14.178-6.302,14.178-14.178v-194.56C293.022,278.055,286.72,270.966,278.843,270.966z"/>
<path style="fill:#183651;" d="M278.843,504.123H22.055C9.452,504.123,0,493.883,0,482.068V322.954
	c0-12.603,10.24-22.055,22.055-22.055h149.662c1.575,0,3.938-0.788,4.726-2.363l24.418-27.569c3.938-4.726,10.24-7.877,16.542-7.877
	h60.652c12.603,0,22.055,10.24,22.055,22.055V481.28C300.898,493.883,290.658,504.123,278.843,504.123z M22.055,316.652
	c-3.938,0-6.302,3.151-6.302,6.302V481.28c0,3.938,3.151,6.302,6.302,6.302h256.788c3.938,0,6.302-3.151,6.302-6.302V285.932
	c0-3.938-3.151-6.302-6.302-6.302h-60.652c-1.575,0-3.938,0.788-4.726,2.363l-24.418,27.569c-3.938,4.726-10.24,7.877-16.542,7.877
	H22.055V316.652z"/>
<path style="fill:#FFFFFF;" d="M39.385,464.738V340.283h139.422c9.452,0,18.117-3.938,23.631-11.028l23.631-26.782h36.234v162.265
	H39.385z"/>
<g>
	<rect x="147.298" y="437.169" style="fill:#E0E4E8;" width="82.708" height="10.24"/>
	<rect x="147.298" y="414.326" style="fill:#E0E4E8;" width="82.708" height="10.24"/>
</g>
<g>
	<rect x="64.591" y="371.791" style="fill:#183651;" width="15.754" height="15.754"/>
	<rect x="97.674" y="371.791" style="fill:#183651;" width="15.754" height="15.754"/>
	<rect x="131.545" y="371.791" style="fill:#183651;" width="15.754" height="15.754"/>
</g>
<path style="fill:#F06151;" d="M482.068,7.877h-60.652c-3.938,0-7.877,1.575-11.028,4.726l-24.418,27.569
	c-2.363,3.151-6.302,4.726-11.028,4.726H225.28c-7.877,0-14.178,6.302-14.178,14.178v158.326c0,7.877,6.302,14.178,14.178,14.178
	h256.788c7.877,0,14.178-6.302,14.178-14.178V22.055C496.246,14.178,489.945,7.877,482.068,7.877z"/>
<path style="fill:#183651;" d="M482.068,241.034H225.28c-12.603,0-22.055-10.24-22.055-22.055V59.865
	c0-12.603,10.24-22.055,22.055-22.055h149.662c1.575,0,3.938-0.788,4.726-2.363l24.418-27.569C408.025,3.151,414.326,0,420.628,0
	h60.652c12.603,0,22.055,10.24,22.055,22.055v196.135C504.123,230.794,493.883,241.034,482.068,241.034z M225.28,53.563
	c-3.938,0-6.302,3.151-6.302,6.302v158.326c0,3.938,3.151,6.302,6.302,6.302h256.788c3.938,0,6.302-3.151,6.302-6.302V22.055
	c0-3.938-3.151-6.302-6.302-6.302h-60.652c-1.575,0-3.938,0.788-4.726,2.363l-24.418,27.569c-3.938,4.726-10.24,7.877-16.542,7.877
	H225.28z"/>
<path style="fill:#FFFFFF;" d="M242.609,201.649V77.194h139.422c9.452,0,18.117-3.938,23.631-11.028l23.631-26.782h36.234v162.265
	H242.609z"/>
<g>
	<rect x="350.523" y="173.292" style="fill:#E0E4E8;" width="82.708" height="10.24"/>
	<rect x="350.523" y="151.237" style="fill:#E0E4E8;" width="82.708" height="10.24"/>
</g>
<g>
	<rect x="267.815" y="108.702" style="fill:#183651;" width="15.754" height="15.754"/>
	<rect x="300.898" y="108.702" style="fill:#183651;" width="15.754" height="15.754"/>
	<rect x="333.982" y="108.702" style="fill:#183651;" width="15.754" height="15.754"/>
</g>
<g>
</g>
<g>
</g>
<g>
</g>
<g>
</g>
<g>
</g>
<g>
</g>
<g>
</g>
<g>
</g>
<g>
</g>
<g>
</g>
<g>
</g>
<g>
</g>
<g>
</g>
<g>
</g>
<g>
</g>
</svg>
