<?xml version="1.0" encoding="iso-8859-1"?>
<!-- Generator: Adobe Illustrator 19.0.0, SVG Export Plug-In . SVG Version: 6.00 Build 0)  -->
<svg version="1.1" id="Capa_1" xmlns="http://www.w3.org/2000/svg" xmlns:xlink="http://www.w3.org/1999/xlink" x="0px" y="0px"
	 viewBox="0 0 504.123 504.123" style="enable-background:new 0 0 504.123 504.123;" xml:space="preserve">
<circle style="fill:#2EA0DA;" cx="252.062" cy="234.732" r="234.732"/>
<path style="fill:#183651;" d="M442.683,410.388h-11.815v-14.966h11.815c0.788,0,1.575,0,2.363,0l0.788,14.966
	C445.046,410.388,444.258,410.388,442.683,410.388z M415.902,410.388h-14.966v-14.966h14.966V410.388z M386.757,410.388h-14.966
	v-14.966h14.966V410.388z M356.825,410.388h-14.966v-14.966h14.966V410.388z M327.68,410.388h-14.966v-14.966h14.966V410.388z
	 M297.748,410.388h-14.966v-14.966h14.966V410.388z M268.603,410.388h-14.966v-14.966h14.966V410.388z M238.671,410.388h-14.966
	v-14.966h14.966V410.388z M208.738,410.388h-14.966v-14.966h14.966V410.388z M179.594,410.388h-14.966v-14.966h14.966V410.388z
	 M149.662,410.388h-14.966v-14.966h14.966V410.388z M120.517,410.388h-14.966v-14.966h14.966V410.388z M90.585,410.388H75.618
	v-14.966h14.966V410.388z M60.652,410.388c-6.302,0-11.815-1.575-17.329-3.938l5.514-13.391c3.938,1.575,7.877,2.363,11.815,2.363
	V410.388z M463.163,404.874l-7.089-12.603c3.151-1.575,6.302-4.726,9.452-7.089l11.028,9.452
	C473.403,398.572,468.677,402.511,463.163,404.874z M29.145,396.209c-3.938-4.726-7.089-9.452-9.452-14.966l13.391-4.726
	c1.575,3.938,3.151,7.089,6.302,10.24L29.145,396.209z M485.218,378.092l-14.178-3.938c0.788-2.363,0.788-5.514,0.788-7.877v-4.726
	h14.966v4.726C486.794,370.215,486.006,374.154,485.218,378.092z M32.295,364.702H17.329v-14.966h14.966V364.702z M486.794,346.585
	h-14.966v-14.966h14.966V346.585z M32.295,334.769H17.329v-14.966h14.966V334.769z M486.794,317.44h-14.966v-14.966h14.966V317.44z
	 M32.295,304.837H17.329v-14.966h14.966V304.837z M486.794,287.508h-14.966v-14.966h14.966V287.508z M32.295,275.692H17.329v-14.966
	h14.966V275.692z M486.794,258.363h-14.966v-14.966h14.966V258.363z M32.295,245.76H17.329v-14.966h14.966V245.76z M486.794,228.431
	h-14.966v-14.966h14.966V228.431z M32.295,216.615H17.329v-14.966h14.966V216.615z M486.794,198.498h-14.966v-14.966h14.966V198.498
	z M32.295,186.683H17.329v-14.966h14.966V186.683z M486.794,169.354h-14.966v-14.966h14.966V169.354z M32.295,157.538H17.329
	v-14.966h14.966V157.538z M486.794,139.422h-14.966v-14.966h14.966V139.422z M32.295,127.606H17.329V112.64h14.966V127.606z
	 M486.794,110.277h-14.966V95.311h14.966V110.277z M32.295,97.674H17.329V82.708h14.966V97.674z M486.794,80.345h-14.966v-1.575
	c0-3.151-0.788-7.089-1.575-10.24l14.178-5.514c1.575,4.726,2.363,10.24,2.363,14.966V80.345z M33.083,70.892l-14.178-4.726
	c1.575-5.514,3.938-11.028,7.877-15.754l11.815,9.452C36.234,63.015,33.871,66.954,33.083,70.892z M463.951,58.289
	c-2.363-3.151-6.302-5.514-9.452-7.089l6.302-13.391c5.514,2.363,10.24,5.514,14.178,10.24L463.951,58.289z M47.262,52.775
	l-7.089-13.391c5.514-2.363,11.028-3.938,17.329-4.726l1.575,14.966C54.351,49.625,51.2,50.412,47.262,52.775z M443.471,48.837
	h-14.966V34.658h14.966V48.837z M413.538,48.837h-14.966V34.658h14.966V48.837z M383.606,48.837H368.64V34.658h14.966V48.837z
	 M353.674,48.837h-14.966V34.658h14.966V48.837z M324.529,48.837h-14.966V34.658h14.966V48.837z M294.597,48.837h-14.966V34.658
	h14.966V48.837z M265.452,48.837h-14.966V34.658h14.966V48.837z M235.52,48.837h-14.966V34.658h14.966V48.837z M206.375,48.837
	h-14.966V34.658h14.966V48.837z M176.443,48.837h-14.966V34.658h14.966V48.837z M146.511,48.837h-14.966V34.658h14.966V48.837z
	 M117.366,48.837H102.4V34.658h14.966V48.837z M87.434,48.837H73.255V34.658h14.966v14.178H87.434z"/>
<path style="fill:#E0E4E8;" d="M194.56,255.212h116.578c0-23.631-14.178-43.323-33.871-52.775
	c-5.514,5.514-13.391,8.665-23.631,8.665c-3.151,0-7.089-0.788-11.028-1.575c-3.938-0.788-9.452-3.151-14.966-7.089
	C208.738,211.889,194.56,231.582,194.56,255.212z"/>
<path style="fill:#FFFFFF;" d="M281.206,170.142c0,0-2.363,34.658-36.234,26.782c0,0-15.754-2.363-17.329-21.268l-1.575-5.514
	l-3.938-26.782l18.117-12.603l29.145-1.575l13.391,10.24v21.268L281.206,170.142z"/>
<path style="fill:#F06151;" d="M226.068,170.929c0,0,1.575-5.514-4.726-8.665c0,0-11.815-29.932,15.754-38.597
	c0,0-2.363-2.363-1.575-5.514c0,0,3.938,2.363,22.843,1.575c0,0,12.603,0.788,16.542,11.815c0,0,19.692,0,11.028,30.72
	c0,0-4.726,2.363-4.726,8.665c0,0,3.938-33.083-12.603-29.932c0,0-14.966,7.089-25.994-3.151
	C242.609,137.846,222.917,137.058,226.068,170.929z"/>
<path style="fill:#E0E4E8;" d="M58.289,208.738h116.578c0-23.631-14.178-43.323-33.871-52.775
	c-5.514,5.514-13.391,8.665-23.631,8.665c-3.151,0-7.089-0.788-11.028-1.575c-3.938-0.788-9.452-3.151-14.966-7.089
	C72.468,165.415,58.289,185.108,58.289,208.738z"/>
<path style="fill:#FFFFFF;" d="M144.935,123.668c0,0-2.363,34.658-36.234,26.782c0,0-15.754-2.363-17.329-21.268l-1.575-5.514
	l-3.938-26.782l18.117-12.603l29.145-1.575l13.391,10.24v21.268L144.935,123.668z"/>
<path style="fill:#F06151;" d="M89.797,124.455c0,0,1.575-5.514-4.726-8.665c0,0-11.815-29.932,15.754-38.597
	c0,0-2.363-2.363-1.575-5.514c0,0,3.938,2.363,22.843,1.575c0,0,12.603,0.788,16.542,11.815c0,0,19.692,0,11.028,30.72
	c0,0-4.726,2.363-4.726,8.665c0,0,3.938-33.083-12.603-29.932c0,0-14.966,7.089-25.994-3.151
	C106.338,91.372,85.858,90.585,89.797,124.455z"/>
<path style="fill:#E0E4E8;" d="M330.831,208.738h116.578c0-23.631-14.178-43.323-33.871-52.775
	c-5.514,5.514-13.391,8.665-23.631,8.665c-3.151,0-7.089-0.788-11.028-1.575c-3.938-0.788-9.452-3.151-14.966-7.089
	C345.009,165.415,330.831,185.108,330.831,208.738z"/>
<path style="fill:#FFFFFF;" d="M417.477,123.668c0,0-2.363,34.658-36.234,26.782c0,0-15.754-2.363-17.329-21.268l-1.575-5.514
	L358.4,96.886l18.117-12.603l29.145-1.575l13.391,10.24v21.268L417.477,123.668z"/>
<path style="fill:#F06151;" d="M362.338,124.455c0,0,1.575-5.514-4.726-8.665c0,0-11.815-29.932,15.754-38.597
	c0,0-2.363-2.363-1.575-5.514c0,0,3.938,2.363,22.843,1.575c0,0,12.603,0.788,16.542,11.815c0,0,19.692,0,11.028,30.72
	c0,0-4.726,2.363-4.726,8.665c0,0,3.938-33.083-12.603-29.932c0,0-14.966,7.089-25.994-3.151
	C378.88,91.372,359.188,90.585,362.338,124.455z"/>
<circle style="fill:#FBBD5E;" cx="252.849" cy="400.935" r="96.098"/>
<path style="fill:#183651;" d="M252.849,504.123c-56.714,0-103.188-46.474-103.188-103.188s46.474-103.188,103.188-103.188
	s103.188,46.474,103.188,103.188S310.351,504.123,252.849,504.123z M252.849,311.926c-48.837,0-89.009,39.385-89.009,89.009
	s39.385,89.009,89.009,89.009s89.009-39.385,89.009-89.009S301.686,311.926,252.849,311.926z"/>
<path style="fill:#FFFFFF;" d="M252.849,469.465c-37.809,0-68.529-30.72-68.529-68.529s30.72-68.529,68.529-68.529
	s68.529,30.72,68.529,68.529S290.658,469.465,252.849,469.465z"/>
<g>
	<path style="fill:#FBBD5E;" d="M251.274,438.745v-7.089c-8.665-0.788-15.754-3.938-22.843-10.24l7.089-7.877
		c5.514,4.726,10.24,7.089,15.754,7.877v-18.117c-7.089-1.575-11.815-3.938-14.966-6.302c-3.151-2.363-4.726-7.089-4.726-11.815
		c0-5.514,1.575-9.452,5.514-13.391c3.938-3.151,8.665-5.514,14.178-5.514v-4.726h6.302v4.726
		c7.089,0.788,13.391,3.151,18.905,7.089l-6.302,8.665c-3.938-3.151-8.665-4.726-13.391-5.514v17.329l0,0
		c7.089,1.575,12.603,3.938,15.754,7.089s4.726,7.089,4.726,12.603c0,5.514-1.575,9.452-5.514,13.391
		c-3.938,3.151-8.665,5.514-14.966,5.514v6.302H251.274z M244.185,379.668c-1.575,1.575-2.363,3.151-2.363,5.514
		s0.788,3.938,1.575,4.726c1.575,1.575,3.938,2.363,7.089,3.151v-15.754C248.123,377.305,245.76,378.092,244.185,379.668z
		 M263.877,419.84c1.575-1.575,2.363-3.151,2.363-5.514s-0.788-3.938-2.363-5.514c-1.575-1.575-3.938-2.363-7.877-3.938v16.542
		C259.938,422.203,262.302,421.415,263.877,419.84z"/>
	<circle style="fill:#FBBD5E;" cx="301.686" cy="400.935" r="7.089"/>
	<circle style="fill:#FBBD5E;" cx="204.8" cy="400.935" r="7.089"/>
</g>
<g>
	<rect x="245.76" y="255.212" style="fill:#183651;" width="14.966" height="49.625"/>
	<polygon style="fill:#183651;" points="396.997,347.372 327.68,347.372 327.68,333.194 382.031,333.194 382.031,208.738 
		396.997,208.738 	"/>
	<polygon style="fill:#183651;" points="178.806,347.372 109.489,347.372 109.489,208.738 123.668,208.738 123.668,333.194 
		178.806,333.194 	"/>
</g>
<g>
</g>
<g>
</g>
<g>
</g>
<g>
</g>
<g>
</g>
<g>
</g>
<g>
</g>
<g>
</g>
<g>
</g>
<g>
</g>
<g>
</g>
<g>
</g>
<g>
</g>
<g>
</g>
<g>
</g>
</svg>
