<?xml version="1.0" encoding="iso-8859-1"?>
<!-- Generator: Adobe Illustrator 19.0.0, SVG Export Plug-In . SVG Version: 6.00 Build 0)  -->
<svg version="1.1" id="Capa_1" xmlns="http://www.w3.org/2000/svg" xmlns:xlink="http://www.w3.org/1999/xlink" x="0px" y="0px"
	 viewBox="0 0 504.911 504.911" style="enable-background:new 0 0 504.911 504.911;" xml:space="preserve">
<circle style="fill:#FBBD5E;" cx="252.788" cy="252.849" r="251.274"/>
<g>
	<rect x="244.911" y="384.394" style="fill:#183651;" width="15.754" height="15.754"/>
	<rect x="244.911" y="422.991" style="fill:#183651;" width="15.754" height="15.754"/>
	<rect x="244.911" y="462.375" style="fill:#183651;" width="15.754" height="15.754"/>
	<rect x="381.182" y="123.668" style="fill:#183651;" width="15.754" height="15.754"/>
	<rect x="381.182" y="162.265" style="fill:#183651;" width="15.754" height="15.754"/>
	<rect x="381.182" y="201.649" style="fill:#183651;" width="15.754" height="15.754"/>
	<rect x="108.64" y="123.668" style="fill:#183651;" width="15.754" height="15.754"/>
	<rect x="108.64" y="162.265" style="fill:#183651;" width="15.754" height="15.754"/>
	<rect x="108.64" y="201.649" style="fill:#183651;" width="15.754" height="15.754"/>
</g>
<path style="fill:#2CA0DA;" d="M179.533,441.895v56.714H7.028v-56.714c0-19.692,17.329-36.234,38.597-37.022
	c11.028,15.754,28.357,25.994,48.049,25.994s37.022-10.24,48.049-25.994C162.203,405.662,179.533,422.203,179.533,441.895z"/>
<path style="fill:#183651;" d="M179.533,504.911H7.028c-3.151,0-6.302-3.151-6.302-6.302v-56.714
	c0-22.843,19.692-42.535,44.111-43.323c2.363,0,3.938,0.788,5.514,2.363c10.24,14.966,25.994,22.843,42.535,22.843
	s32.295-8.665,42.535-22.843c1.575-1.575,3.151-3.151,5.514-2.363c24.418,1.575,44.111,20.48,44.111,43.323v56.714
	C185.834,501.76,182.683,504.911,179.533,504.911z M13.33,492.308h159.902v-50.412c0-15.754-12.603-28.357-29.145-30.72
	c-12.603,16.542-30.72,25.206-51.2,25.206c-19.692,0-37.809-9.452-51.2-25.206c-16.542,2.363-29.145,14.966-29.145,30.72v50.412
	H13.33z"/>
<g>
	<path style="fill:#FFFFFF;" d="M30.659,474.978v-33.083c0-3.938,2.363-7.877,6.302-11.028
		c15.754,14.966,35.446,22.843,55.926,22.843c21.268,0,40.96-7.877,55.926-22.843c3.938,2.363,6.302,6.302,6.302,11.028v33.083
		H30.659z"/>
	<ellipse style="fill:#FFFFFF;" cx="92.886" cy="337.92" rx="45.686" ry="58.289"/>
</g>
<path style="fill:#183651;" d="M92.886,402.511c-29.145,0-51.988-29.145-51.988-64.591s23.631-64.591,51.988-64.591
	s51.988,29.145,51.988,64.591S122.031,402.511,92.886,402.511z M92.886,285.932c-22.055,0-39.385,22.843-39.385,51.988
	c0,28.357,18.117,51.988,39.385,51.988s39.385-22.843,39.385-51.988C133.059,309.563,114.942,285.932,92.886,285.932z"/>
<path style="fill:#E1E6E7;" d="M143.299,296.96c-1.575-11.028-10.24-18.117-20.48-22.843c-18.905-8.665-40.96-8.665-59.865,0
	c-10.24,4.726-18.905,11.815-20.48,22.843c0,0-14.178,9.452,4.726,49.625c0,0-4.726-10.24,9.452-19.692
	c0,0-6.302-18.905,11.815-18.905c0,0,14.966,7.877,24.418,6.302c8.665,1.575,24.418-6.302,24.418-6.302
	c18.117,0,11.815,18.905,11.815,18.905c14.178,10.24,9.452,19.692,9.452,19.692C157.477,306.412,143.299,296.96,143.299,296.96z"/>
<path style="fill:#183651;" d="M138.573,352.886c-0.788,0-1.575,0-2.363-0.788c-3.151-1.575-4.726-4.726-3.151-7.877
	c0-0.788,1.575-6.302-7.089-12.603c-3.151-0.788-3.938-3.939-3.151-7.089c0.788-2.363,1.575-6.302,0-8.665
	c-0.788-0.788-2.363-1.575-3.938-1.575c-4.726,2.363-16.542,7.089-25.206,6.302c-8.665,0.788-21.268-3.938-25.206-6.302
	c-1.575,0-3.151,0.788-3.938,1.575c-1.575,1.575-0.788,6.302,0,8.665c0.788,2.363,0,5.514-2.363,7.089
	c-7.877,5.514-7.877,10.24-7.877,11.815c0.788,0.788,0.788,1.575,0.788,3.151c0,3.938-4.726,7.089-8.665,5.514
	c-2.363,0-3.151-0.788-3.938-2.363c-17.329-35.446-10.24-50.412-4.726-55.926c1.575-7.877,7.089-17.329,23.631-25.206
	c19.692-9.452,44.898-9.452,65.378,0c15.754,7.877,22.055,17.329,23.631,25.206c4.726,5.514,11.815,19.692-4.726,55.926
	C143.299,352.098,140.936,352.886,138.573,352.886z M46.413,302.474c0,0-5.514,5.514,0.788,25.206
	c0.788-0.788,2.363-2.363,3.151-3.151c-0.788-3.938-0.788-10.24,2.363-15.754c2.363-3.151,7.089-7.089,15.754-7.089
	c0.788,0,2.363,0,3.151,0.788c3.151,1.575,14.178,6.302,20.48,5.514c0.788,0,1.575,0,2.363,0c6.302,0.788,17.329-3.938,20.48-5.514
	c0.788-0.788,1.575-0.788,3.151-0.788c8.665,0,13.391,3.938,15.754,7.089c3.151,4.726,3.151,11.028,2.363,15.754
	c1.575,0.788,2.363,2.363,3.151,3.151c6.302-19.692,0-25.206,0-25.994c-1.575-0.788-2.363-2.363-2.363-3.938
	c-0.788-7.089-6.302-12.603-16.542-18.117c-16.542-7.877-37.809-7.877-54.351,0c-10.24,4.726-15.754,11.028-16.542,18.117
	C48.776,300.111,47.988,301.686,46.413,302.474L46.413,302.474z"/>
<path style="fill:#4FBF9F;" d="M498.548,441.895v56.714H326.043v-56.714c0-19.692,17.329-36.234,38.597-37.022
	c11.028,15.754,28.357,25.994,48.049,25.994c19.692,0,37.022-10.24,48.049-25.994C481.219,405.662,498.548,422.203,498.548,441.895z
	"/>
<path style="fill:#183651;" d="M498.548,504.911H326.043c-3.151,0-6.302-3.151-6.302-6.302v-56.714
	c0-22.843,19.692-42.535,44.111-43.323c2.363,0,3.938,0.788,5.514,2.363c10.24,14.966,25.994,22.843,42.535,22.843
	c16.542,0,32.295-8.665,42.535-22.843c1.575-1.575,3.151-3.151,5.514-2.363c24.418,1.575,44.111,20.48,44.111,43.323v56.714
	C504.85,501.76,501.699,504.911,498.548,504.911z M332.345,492.308h159.902v-50.412c0-15.754-12.603-28.357-29.145-30.72
	c-12.603,16.542-30.72,25.206-51.2,25.206c-19.692,0-37.809-9.452-51.2-25.206c-16.542,2.363-29.145,14.966-29.145,30.72v50.412
	H332.345z"/>
<g>
	<path style="fill:#FFFFFF;" d="M349.674,474.978v-33.083c0-3.938,2.363-7.877,6.302-11.028
		c14.966,14.966,34.658,22.843,55.926,22.843s40.96-7.877,55.926-22.843c3.938,2.363,6.302,6.302,6.302,11.028v33.083H349.674z"/>
	<ellipse style="fill:#FFFFFF;" cx="412.69" cy="337.92" rx="45.686" ry="58.289"/>
</g>
<path style="fill:#183651;" d="M412.69,402.511c-29.145,0-51.988-29.145-51.988-64.591s23.631-64.591,51.988-64.591
	c29.145,0,51.988,29.145,51.988,64.591S441.046,402.511,412.69,402.511z M412.69,285.932c-22.055,0-39.385,22.843-39.385,51.988
	c0,28.357,18.117,51.988,39.385,51.988c22.055,0,39.385-22.843,39.385-51.988C452.074,309.563,433.957,285.932,412.69,285.932z"/>
<path style="fill:#E1E6E7;" d="M462.314,296.96c-1.575-11.028-10.24-18.117-20.48-22.843c-18.905-8.665-40.96-8.665-59.865,0
	c-10.24,4.726-18.905,11.815-20.48,22.843c0,0-14.178,9.452,4.726,49.625c0,0-4.726-10.24,9.452-19.692
	c0,0-6.302-18.905,11.815-18.905c0,0,14.966,7.877,24.418,6.302c8.665,1.575,24.418-6.302,24.418-6.302
	c18.117,0,11.815,18.905,11.815,18.905c14.178,10.24,9.452,19.692,9.452,19.692C476.493,306.412,462.314,296.96,462.314,296.96z"/>
<path style="fill:#183651;" d="M457.588,352.886c-0.788,0-1.575,0-2.363-0.788c-3.151-1.575-4.726-4.726-3.151-7.877
	c0-0.788,1.575-6.302-7.089-12.603c-2.363-1.575-3.151-4.726-2.363-7.089c0.788-2.363,1.575-6.302,0-8.665
	c-0.788-0.788-2.363-1.575-3.938-1.575c-4.726,2.363-16.542,7.089-25.206,6.302c-8.665,0.788-21.268-3.938-25.206-6.302
	c-1.575,0-3.151,0.788-3.938,1.575c-1.575,1.575-0.788,6.302,0,8.665c0.788,2.363,0,5.514-2.363,7.089
	c-7.877,5.514-7.877,10.24-7.877,11.815c0.788,0.788,0.788,2.363,0.788,3.151c0,3.151-3.151,6.302-6.302,6.302l0,0
	c-2.363,0-4.726-1.575-5.514-3.938c-17.329-35.446-10.24-50.412-4.726-55.926c1.575-7.877,7.089-17.329,23.631-25.206
	c19.692-9.452,44.898-9.452,65.378,0c15.754,7.877,22.055,17.329,23.631,25.206c4.726,5.514,11.815,19.692-4.726,55.926
	C462.314,352.098,459.951,352.886,457.588,352.886z M455.225,324.529c1.575,0.788,2.363,2.363,3.151,3.151
	c6.302-19.692,0-25.206,0-25.994c-1.575-0.788-2.363-2.363-2.363-3.938c-0.788-7.089-6.302-12.603-16.542-18.117
	c-16.542-7.877-37.809-7.877-54.351,0c-10.24,4.726-15.754,11.028-16.542,18.117c0,1.575-1.575,3.151-3.151,4.726l0,0
	c0,0-5.514,5.514,0.788,25.206c0.788-0.788,2.363-2.363,3.151-3.151c-0.788-3.938-0.788-10.24,2.363-15.754
	c2.363-3.151,7.089-7.089,15.754-7.089c0.788,0,2.363,0,3.151,0.788c3.151,1.575,14.178,6.302,20.48,5.514c0.788,0,1.575,0,2.363,0
	c6.302,0.788,16.542-3.938,20.48-5.514c0.788-0.788,1.575-0.788,3.151-0.788c8.665,0,13.391,3.938,15.754,7.089
	C456.013,314.289,456.013,320.591,455.225,324.529z"/>
<path style="fill:#F06151;" d="M338.646,181.169v56.714H166.142v-56.714c0-19.692,17.329-36.234,38.597-37.022
	c11.028,15.754,28.357,25.994,48.049,25.994s37.022-10.24,48.049-25.994C322.105,144.935,338.646,160.689,338.646,181.169z"/>
<path style="fill:#183651;" d="M338.646,244.185H166.93c-3.151,0-6.302-3.151-6.302-6.302v-56.714
	c0-22.843,19.692-42.535,44.111-43.323c2.363,0,3.938,0.788,5.514,2.363c10.24,14.966,25.994,22.843,42.535,22.843
	c16.542,0,32.295-8.665,42.535-22.843c1.575-1.575,3.151-3.151,5.514-2.363c24.418,1.575,44.111,20.48,44.111,43.323v56.714
	C344.948,241.034,342.585,244.185,338.646,244.185z M173.231,231.582h159.902v-50.412c0-15.754-12.603-28.357-29.145-30.72
	c-12.603,16.542-30.72,25.206-51.2,25.206c-19.692,0-37.809-9.452-51.2-25.206c-16.542,2.363-29.145,14.966-29.145,30.72v50.412
	H173.231z"/>
<g>
	<path style="fill:#FFFFFF;" d="M190.56,214.252v-33.083c0-3.938,2.363-7.877,6.302-11.028
		c14.966,14.966,34.658,22.843,55.926,22.843s40.96-7.877,55.926-22.843c3.938,2.363,6.302,6.302,6.302,11.028v33.083
		L190.56,214.252z"/>
	<ellipse style="fill:#FFFFFF;" cx="252.788" cy="77.194" rx="45.686" ry="58.289"/>
</g>
<path style="fill:#183651;" d="M252.788,141.785c-29.145,0-51.988-29.145-51.988-64.591s23.631-64.591,51.988-64.591
	c29.145,0,51.988,29.145,51.988,64.591S281.933,141.785,252.788,141.785z M252.788,25.206c-22.055,0-39.385,22.843-39.385,51.988
	s18.117,51.988,39.385,51.988c22.055,0,39.385-22.843,39.385-51.988S274.843,25.206,252.788,25.206z"/>
<path style="fill:#E1E6E7;" d="M303.2,36.234c-1.575-11.028-10.24-18.117-20.48-22.843c-18.905-8.665-40.96-8.665-59.865,0
	c-10.24,4.726-18.905,11.815-20.48,22.843c0,0-14.178,9.452,4.726,49.625c0,0-4.726-10.24,9.452-19.692
	c0,0-6.302-18.905,11.815-18.905c0,0,14.966,7.877,24.418,6.302c8.665,1.575,24.418-6.302,24.418-6.302
	c18.117,0,11.815,18.905,11.815,18.905c14.178,10.24,9.452,19.692,9.452,19.692C317.379,45.686,303.2,36.234,303.2,36.234z"/>
<g>
	<path style="fill:#183651;" d="M297.686,92.16c-0.788,0-1.575,0-2.363-0.788c-3.151-1.575-4.726-4.726-3.151-7.877
		c0-0.788,1.575-6.302-7.089-12.603c-2.363-1.575-3.151-4.726-2.363-7.089c0.788-2.363,1.575-6.302,0-8.665
		c-0.788-0.788-2.363-1.575-3.938-1.575c-4.726,2.363-16.542,7.089-25.206,6.302c-8.665,0.788-21.268-3.938-25.206-6.302
		c-1.575,0-3.151,0.788-3.938,1.575c-1.575,1.575-0.788,6.302,0,8.665c0.788,2.363,0,5.514-2.363,7.089
		c-7.877,5.514-7.877,10.24-7.877,11.815c0.788,0.788,0.788,1.575,0.788,3.151c0,3.938-4.726,7.089-8.665,5.514
		c-1.575-0.788-3.151-1.575-3.151-3.151c-17.329-35.446-10.24-50.412-4.726-55.926c1.575-7.877,7.089-17.329,23.631-25.206
		c19.692-9.452,44.898-9.452,65.378,0c15.754,7.877,22.055,17.329,23.631,25.206c4.726,5.514,11.815,19.692-4.726,55.926
		C302.413,91.372,300.05,92.16,297.686,92.16z M206.314,41.748c0,0-5.514,5.514,0.788,25.206c0.788-0.788,2.363-2.363,3.151-3.151
		c-0.788-3.938-0.788-10.24,2.363-15.754c2.363-3.151,7.089-7.089,15.754-7.089c0.788,0,2.363,0,3.151,0.788
		c3.151,1.575,14.178,6.302,20.48,5.514c0.788,0,1.575,0,2.363,0c6.302,0.788,17.329-3.938,20.48-5.514
		c0.788-0.788,1.575-0.788,3.151-0.788c8.665,0,13.391,3.938,15.754,7.089c2.363,5.514,2.363,11.815,1.575,15.754
		c1.575,0.788,2.363,2.363,3.151,3.151c6.302-19.692,0-25.206,0-25.994c-1.575-0.788-2.363-2.363-2.363-3.938
		c0-7.089-5.514-12.603-15.754-17.329c-16.542-7.877-37.809-7.877-54.351,0c-10.24,4.726-15.754,11.028-16.542,18.117
		C208.677,38.597,207.89,40.96,206.314,41.748L206.314,41.748z"/>
	<polygon style="fill:#183651;" points="200.8,363.914 169.293,333.194 200.8,301.686 211.828,312.714 191.348,333.194 
		211.828,352.886 	"/>
	<polygon style="fill:#183651;" points="304.776,363.914 293.748,352.886 314.228,333.194 293.748,312.714 304.776,301.686 
		336.283,333.194 	"/>
	<rect x="180.32" y="325.317" style="fill:#183651;" width="144.148" height="15.754"/>
	<polygon style="fill:#183651;" points="358.339,77.194 326.831,46.474 358.339,14.966 369.366,25.994 349.674,46.474 
		369.366,66.166 	"/>
	<polygon style="fill:#183651;" points="459.163,187.471 427.656,156.751 438.683,145.723 459.163,165.415 478.856,144.935 
		490.671,155.963 	"/>
	<path style="fill:#183651;" d="M467.04,176.443h-15.754l0.788-74.831c0-12.603-4.726-24.418-13.391-33.083
		c-8.665-8.665-20.48-14.178-33.083-14.178h-66.954V38.597H405.6c16.542,0,32.295,6.302,44.111,18.117
		c11.815,11.815,18.117,27.569,18.117,44.898L467.04,176.443z"/>
	<polygon style="fill:#183651;" points="147.237,77.194 136.21,66.166 156.69,46.474 136.21,25.994 147.237,14.966 178.745,46.474 	
		"/>
	<polygon style="fill:#183651;" points="46.413,187.471 15.693,155.963 26.72,144.935 46.413,165.415 66.893,145.723 77.92,156.751 
			"/>
	<path style="fill:#183651;" d="M38.536,176.443l-0.788-74.831c0-16.542,6.302-32.295,18.117-44.898s27.569-18.117,44.111-18.117
		h66.954v15.754H99.976c-11.815,0-23.631,4.726-32.295,13.391S54.29,88.222,54.29,100.825l0.788,74.831L38.536,176.443z"/>
</g>
<g>
</g>
<g>
</g>
<g>
</g>
<g>
</g>
<g>
</g>
<g>
</g>
<g>
</g>
<g>
</g>
<g>
</g>
<g>
</g>
<g>
</g>
<g>
</g>
<g>
</g>
<g>
</g>
<g>
</g>
</svg>
