<?xml version="1.0" encoding="iso-8859-1"?>
<!-- Generator: Adobe Illustrator 19.0.0, SVG Export Plug-In . SVG Version: 6.00 Build 0)  -->
<svg version="1.1" id="Capa_1" xmlns="http://www.w3.org/2000/svg" xmlns:xlink="http://www.w3.org/1999/xlink" x="0px" y="0px"
	 viewBox="0 0 504.123 504.123" style="enable-background:new 0 0 504.123 504.123;" xml:space="preserve">
<circle style="fill:#4FBF9F;" cx="252.062" cy="252.062" r="252.062"/>
<polygon style="fill:#E1E6E7;" points="496.246,301.686 454.498,271.754 454.498,286.72 317.44,286.72 317.44,316.652 
	454.498,316.652 454.498,332.406 "/>
<path style="fill:#183651;" d="M451.348,338.708c-2.363-1.575-3.938-3.938-3.938-7.089v-7.089H317.44
	c-4.726,0-7.877-3.151-7.877-7.877V286.72c0-4.726,3.151-7.877,7.877-7.877h129.182v-7.089c0-3.151,1.575-5.514,3.938-7.089
	c2.363-1.575,5.514-0.788,7.877,0.788l41.748,29.932c2.363,1.575,3.151,3.938,3.151,6.302s-1.575,4.726-3.151,6.302l-41.748,29.932
	C456.862,340.283,453.711,340.283,451.348,338.708z M325.317,308.775h129.182c3.938,0,7.877,3.151,7.877,7.877l20.48-14.966
	l-20.48-14.966c0,3.938-3.938,7.877-7.877,7.877H325.317V308.775z"/>
<polygon style="fill:#E1E6E7;" points="496.246,163.84 454.498,133.12 454.498,148.874 317.44,148.874 317.44,178.806 
	454.498,178.806 454.498,193.772 "/>
<path style="fill:#183651;" d="M451.348,200.862c-2.363-1.575-3.938-3.938-3.938-7.089v-7.089H317.44
	c-4.726,0-7.877-3.151-7.877-7.877v-29.932c0-4.726,3.151-7.877,7.877-7.877h129.182v-7.089c0-3.151,1.575-5.514,3.938-7.089
	c2.363-1.575,5.514-0.788,7.877,0.788l41.748,29.932c2.363,1.575,3.151,3.938,3.151,6.302s-1.575,4.726-3.151,6.302l-40.96,30.72
	C456.862,202.437,453.711,202.437,451.348,200.862z M325.317,170.929h129.182c3.938,0,7.877,3.151,7.877,7.877l20.48-14.966
	l-20.48-14.966c0,3.938-3.938,7.877-7.877,7.877H325.317V170.929z"/>
<polygon style="fill:#E1E6E7;" points="7.877,66.954 49.625,37.022 49.625,51.988 218.191,51.988 218.191,81.92 49.625,81.92 
	49.625,97.674 "/>
<path style="fill:#183651;" d="M44.898,103.975L3.151,73.255C1.575,71.68,0,69.317,0,66.954c0-2.363,1.575-4.726,3.151-6.302
	L44.898,30.72c2.363-1.575,5.514-2.363,7.877-0.788c2.363,1.575,3.938,3.938,3.938,7.089v7.089h160.689
	c4.726,0,7.877,3.151,7.877,7.877V81.92c0,4.726-3.151,7.877-7.877,7.877H57.502v7.089c0,3.151-1.575,5.514-3.938,7.089
	C50.412,105.551,47.262,105.551,44.898,103.975z M21.268,66.954l20.48,14.966c0-3.938,3.938-7.877,7.877-7.877h160.689V59.865
	H49.625c-3.938,0-7.877-3.151-7.877-7.877L21.268,66.954z"/>
<polygon style="fill:#E1E6E7;" points="7.877,229.218 49.625,198.498 49.625,214.252 218.191,214.252 218.191,244.185 
	49.625,244.185 49.625,259.151 "/>
<path style="fill:#183651;" d="M44.898,266.24L3.151,236.308C0.788,234.732,0,232.369,0,230.006s1.575-4.726,3.151-6.302
	l41.748-29.932c2.363-1.575,5.514-2.363,7.877-0.788c2.363,1.575,3.938,3.938,3.938,7.089v7.089h160.689
	c4.726,0,7.877,3.151,7.877,7.877v29.932c0,4.726-3.151,7.877-7.877,7.877H57.502v7.089c0,3.151-1.575,5.514-3.938,7.089
	C50.412,267.815,47.262,267.815,44.898,266.24z M21.268,229.218l20.48,14.966c0-3.938,3.938-7.877,7.877-7.877h160.689v-14.178
	H49.625c-3.938,0-7.877-3.151-7.877-7.877L21.268,229.218z"/>
<polygon style="fill:#E1E6E7;" points="496.246,439.532 454.498,409.6 454.498,424.566 317.44,424.566 317.44,454.498 
	454.498,454.498 454.498,470.252 "/>
<path style="fill:#183651;" d="M451.348,477.342c-2.363-1.575-3.938-3.938-3.938-7.089v-7.089H317.44
	c-4.726,0-7.877-3.151-7.877-7.877v-29.932c0-4.726,3.151-7.877,7.877-7.877h129.182v-7.089c0-3.151,1.575-5.514,3.938-7.089
	c2.363-1.575,5.514-0.788,7.877,0.788l41.748,29.932c2.363,1.575,3.151,3.938,3.151,6.302s-1.575,4.726-3.151,6.302l-40.96,29.932
	C456.862,478.129,453.711,478.129,451.348,477.342z M325.317,446.622h129.182c3.938,0,7.877,3.151,7.877,7.877l20.48-14.966
	l-20.48-14.966c0,3.938-3.938,7.877-7.877,7.877H325.317V446.622z"/>
<path style="fill:#FFFFFF;" d="M361.551,176.443v145.723H144.148V176.443c0-22.055,18.117-40.172,40.172-40.172h22.055
	c13.391,8.665,29.145,14.178,45.686,14.178s33.083-5.514,45.686-14.178h22.843C343.434,136.271,361.551,154.388,361.551,176.443z"/>
<path style="fill:#183651;" d="M361.551,330.043H144.148c-4.726,0-7.877-3.151-7.877-7.877V176.443
	c0-26.782,22.055-48.049,48.049-48.049h22.843c1.575,0,3.151,0.788,4.726,1.575c24.418,16.542,58.289,16.542,82.708,0
	c1.575-0.788,3.151-1.575,4.726-1.575h22.843c26.782,0,48.049,21.268,48.049,48.049v145.723
	C369.428,326.892,366.277,330.043,361.551,330.043z M152.025,314.289h201.649V176.443c0-18.117-14.966-32.295-32.295-32.295h-20.48
	c-29.145,18.117-67.742,18.117-96.886,0h-20.48c-18.117,0-32.295,14.178-32.295,32.295v137.846H152.025z"/>
<path style="fill:#FBBD5E;" d="M175.655,290.658v-86.646c0-15.754,12.603-28.357,28.357-28.357h97.674
	c15.754,0,28.357,12.603,28.357,28.357v86.646H175.655z"/>
<circle style="fill:#FFFFFF;" cx="252.849" cy="63.015" r="55.138"/>
<path style="fill:#183651;" d="M252.849,126.031c-34.658,0-63.015-28.357-63.015-63.015S218.191,0,252.849,0
	s63.015,28.357,63.015,63.015S287.508,126.031,252.849,126.031z M252.849,15.754c-25.994,0-47.262,21.268-47.262,47.262
	s21.268,47.262,47.262,47.262c25.994,0,47.262-21.268,47.262-47.262S278.843,15.754,252.849,15.754z"/>
<rect x="188.258" y="322.166" style="fill:#FBBD5E;" width="129.182" height="174.08"/>
<path style="fill:#183651;" d="M317.44,504.123H188.258c-4.726,0-7.877-3.151-7.877-7.877v-174.08c0-4.726,3.151-7.877,7.877-7.877
	H317.44c4.726,0,7.877,3.151,7.877,7.877v174.08C325.317,500.972,322.166,504.123,317.44,504.123z M196.135,488.369h113.428V330.043
	H196.135V488.369z"/>
<g>
	<rect x="219.766" y="353.674" style="fill:#FFFFFF;" width="66.166" height="134.695"/>
</g>
<path style="fill:#183651;" d="M311.926,330.043c-4.726,0-7.877-3.151-7.877-7.877V217.403c0-4.726,3.151-7.877,7.877-7.877
	s7.877,3.151,7.877,7.877v105.551C319.803,326.892,316.652,330.043,311.926,330.043z"/>
<path style="fill:#183651;" d="M193.772,330.043c-4.726,0-7.877-3.151-7.877-7.877V217.403c0-4.726,3.151-7.877,7.877-7.877
	c4.726,0,7.877,3.151,7.877,7.877v105.551C201.649,326.892,198.498,330.043,193.772,330.043z"/>
<g>
	<path style="fill:#183651;" d="M252.849,504.123c-4.726,0-7.877-3.151-7.877-7.877v-91.372c0-4.726,3.151-7.877,7.877-7.877
		c4.726,0,7.877,3.151,7.877,7.877v91.372C260.726,500.972,257.575,504.123,252.849,504.123z"/>
	<rect x="393.058" y="221.342" style="fill:#183651;" width="15.754" height="15.754"/>
	<rect x="432.443" y="221.342" style="fill:#183651;" width="15.754" height="15.754"/>
	<rect x="471.04" y="221.342" style="fill:#183651;" width="15.754" height="15.754"/>
	<rect x="393.058" y="359.975" style="fill:#183651;" width="15.754" height="15.754"/>
	<rect x="432.443" y="359.975" style="fill:#183651;" width="15.754" height="15.754"/>
	<rect x="471.04" y="359.975" style="fill:#183651;" width="15.754" height="15.754"/>
	<rect x="16.542" y="144.148" style="fill:#183651;" width="15.754" height="15.754"/>
	<rect x="55.926" y="144.148" style="fill:#183651;" width="15.754" height="15.754"/>
	<rect x="95.311" y="144.148" style="fill:#183651;" width="15.754" height="15.754"/>
	<rect x="16.542" y="298.535" style="fill:#183651;" width="15.754" height="15.754"/>
	<rect x="55.926" y="298.535" style="fill:#183651;" width="15.754" height="15.754"/>
	<rect x="95.311" y="298.535" style="fill:#183651;" width="15.754" height="15.754"/>
</g>
<g>
</g>
<g>
</g>
<g>
</g>
<g>
</g>
<g>
</g>
<g>
</g>
<g>
</g>
<g>
</g>
<g>
</g>
<g>
</g>
<g>
</g>
<g>
</g>
<g>
</g>
<g>
</g>
<g>
</g>
</svg>
