<?xml version="1.0" encoding="iso-8859-1"?>
<!-- Generator: Adobe Illustrator 19.0.0, SVG Export Plug-In . SVG Version: 6.00 Build 0)  -->
<svg version="1.1" id="Capa_1" xmlns="http://www.w3.org/2000/svg" xmlns:xlink="http://www.w3.org/1999/xlink" x="0px" y="0px"
	 viewBox="0 0 504.123 504.123" style="enable-background:new 0 0 504.123 504.123;" xml:space="preserve">
<circle style="fill:#F06151;" cx="252.062" cy="252.062" r="252.062"/>
<circle style="fill:#FFFFFF;" cx="357.612" cy="146.511" r="138.634"/>
<path style="fill:#183651;" d="M357.612,293.022c-81.132,0-146.511-65.378-146.511-146.511S276.48,0,357.612,0
	s146.511,65.378,146.511,146.511S438.745,293.022,357.612,293.022z M357.612,15.754c-72.468,0-130.757,58.289-130.757,130.757
	s58.289,130.757,130.757,130.757s130.757-58.289,130.757-130.757S430.08,15.754,357.612,15.754z"/>
<path style="fill:#FBBD5E;" d="M357.612,39.385L357.612,39.385c-59.077,0-107.126,48.049-107.126,107.126
	c0,29.932,11.815,56.714,31.508,75.618l75.618-75.618V39.385z"/>
<path style="fill:#E1E6E7;" d="M281.994,222.129c19.692,19.692,46.474,31.508,75.618,31.508
	c59.077,0,107.126-48.049,107.126-107.126H357.612L281.994,222.129z"/>
<path style="fill:#F06151;" d="M357.612,39.385v107.126h107.126C464.738,87.434,416.689,39.385,357.612,39.385z"/>
<g>
	<rect x="437.169" y="389.908" style="fill:#183651;" width="15.754" height="15.754"/>
	<rect x="437.169" y="429.292" style="fill:#183651;" width="15.754" height="15.754"/>
	<rect x="437.169" y="468.677" style="fill:#183651;" width="15.754" height="15.754"/>
	<rect x="44.111" y="45.686" style="fill:#183651;" width="15.754" height="15.754"/>
	<rect x="44.111" y="85.071" style="fill:#183651;" width="15.754" height="15.754"/>
	<rect x="44.111" y="124.455" style="fill:#183651;" width="15.754" height="15.754"/>
</g>
<polygon style="fill:#F06151;" points="221.342,277.268 160.689,277.268 178.018,304.837 167.778,419.052 214.252,419.052 
	204.8,303.262 "/>
<path style="fill:#E0E4E8;" d="M267.028,166.203c0,41.748-33.871,83.495-75.618,83.495s-75.618-40.96-75.618-83.495
	s33.871-75.618,75.618-75.618S267.028,124.455,267.028,166.203z"/>
<path style="fill:#183651;" d="M190.622,256.788c-44.898,0-83.495-42.535-83.495-91.372c0-46.474,37.809-83.495,83.495-83.495
	s83.495,37.809,83.495,83.495C274.905,214.252,235.52,256.788,190.622,256.788z M190.622,98.462
	c-37.022,0-67.742,30.72-67.742,67.742c0,39.385,32.295,75.618,67.742,75.618s67.742-36.234,67.742-75.618
	C259.151,128.394,228.431,98.462,190.622,98.462z"/>
<path style="fill:#4FBF9F;" d="M122.092,277.268l69.317,103.975l69.317-103.975c66.166,27.569,113.428,92.948,113.428,169.354
	v49.625H7.877v-49.625C7.877,370.215,55.138,304.837,122.092,277.268z"/>
<path style="fill:#183651;" d="M382.031,504.123H0v-57.502c0-77.982,46.474-147.298,118.942-176.443l6.302-2.363l66.166,99.249
	l66.166-99.249l6.302,2.363c71.68,29.145,118.154,99.249,118.154,176.443V504.123z M15.754,488.369h350.523v-41.748
	c0-69.317-40.172-131.545-103.188-159.902l-72.468,108.702l-71.68-107.914C55.926,315.865,15.754,378.092,15.754,447.409V488.369z"
	/>
<path style="fill:#FFFFFF;" d="M44.111,460.012v-12.603c0-49.625,25.206-95.311,65.378-122.092l81.132,113.428l81.132-113.428
	c40.172,26.782,65.378,72.468,65.378,122.092v12.603H44.111z"/>
<g>
</g>
<g>
</g>
<g>
</g>
<g>
</g>
<g>
</g>
<g>
</g>
<g>
</g>
<g>
</g>
<g>
</g>
<g>
</g>
<g>
</g>
<g>
</g>
<g>
</g>
<g>
</g>
<g>
</g>
</svg>
