<?xml version="1.0" encoding="iso-8859-1"?>
<!-- Generator: Adobe Illustrator 19.0.0, SVG Export Plug-In . SVG Version: 6.00 Build 0)  -->
<svg version="1.1" id="Capa_1" xmlns="http://www.w3.org/2000/svg" xmlns:xlink="http://www.w3.org/1999/xlink" x="0px" y="0px"
	 viewBox="0 0 504.2 504.2" style="enable-background:new 0 0 504.2 504.2;" xml:space="preserve">
<circle style="fill:#E0E4E8;" cx="252.1" cy="252.1" r="252.1"/>
<path style="fill:#FFFFFF;" d="M31.5,155.2h441.1c13.4,0,23.6,10.2,23.6,23.6v293.8c0,13.4-10.2,23.6-23.6,23.6H31.5
	c-13.4,0-23.6-10.2-23.6-23.6V178.8C7.9,165.5,18.2,155.2,31.5,155.2z"/>
<path style="fill:#183651;" d="M472.7,504.2H31.5C14.2,504.2,0,490,0,472.7V178.8c0-17.3,14.2-31.5,31.5-31.5h441.1
	c17.3,0,31.5,14.2,31.5,31.5v293.8C504.2,490,490,504.2,472.7,504.2z M31.5,163.1c-8.7,0-15.8,7.1-15.8,15.8v293.8
	c0,8.7,7.1,15.8,15.8,15.8h441.1c8.7,0,15.8-7.1,15.8-15.8V178.8c0-8.7-7.1-15.8-15.8-15.8H31.5V163.1z"/>
<rect x="92.2" y="186.7" style="fill:#2EA0DA;" width="341.1" height="278.1"/>
<g>
	<path style="fill:#183651;" d="M461.6,365.5c-4.7,0-7.9-3.2-7.9-7.9v-64.5c0-4.7,3.2-7.9,7.9-7.9c4.7,0,7.9,3.2,7.9,7.9v64.6
		C469.5,362.4,466.4,365.5,461.6,365.5z"/>
	<circle style="fill:#183651;" cx="56.8" cy="331.7" r="21.3"/>
	<rect x="127.6" y="211.9" style="fill:#183651;" width="121.3" height="15.8"/>
	<rect x="127.6" y="248.9" style="fill:#183651;" width="121.3" height="15.8"/>
	<rect x="127.6" y="285.2" style="fill:#183651;" width="121.3" height="15.8"/>
</g>
<circle style="fill:#E0E4E8;" cx="341.1" cy="241.1" r="28.4"/>
<path style="fill:#FFFFFF;" d="M341.1,269.4c31.5,0,56.7,25.2,56.7,56.7H285.2C285.2,295.4,310.4,269.4,341.1,269.4z"/>
<g>
	<rect x="287.5" y="360" style="fill:#183651;" width="107.9" height="15.8"/>
	<rect x="287.5" y="395.5" style="fill:#183651;" width="107.9" height="15.8"/>
	<rect x="287.5" y="430.9" style="fill:#183651;" width="15.8" height="15.8"/>
	<rect x="319.1" y="430.9" style="fill:#183651;" width="15.8" height="15.8"/>
	<rect x="350.6" y="430.9" style="fill:#183651;" width="15.8" height="15.8"/>
	<rect x="382.1" y="430.9" style="fill:#183651;" width="15.8" height="15.8"/>
	<rect x="127.6" y="321.4" style="fill:#183651;" width="121.3" height="15.8"/>
	<rect x="127.6" y="430.9" style="fill:#183651;" width="121.3" height="15.8"/>
	<rect x="127.6" y="394.7" style="fill:#183651;" width="121.3" height="15.8"/>
	<rect x="127.6" y="357.7" style="fill:#183651;" width="121.3" height="15.8"/>
</g>
<path style="fill:#FFFFFF;" d="M36.3,33.1c-15.8,0-28.4,12.6-28.4,28.4l0,0c0,15.8,12.6,28.4,28.4,28.4s28.4-12.6,28.4-28.4l0,0
	C64.6,45.7,52,33.1,36.3,33.1z"/>
<path style="fill:#183651;" d="M36.3,97.7c-19.7,0-36.2-16.5-36.2-36.2s16.5-36.2,36.2-36.2s36.2,16.5,36.2,36.2S56,97.7,36.3,97.7z
	 M36.3,41c-11,0-20.5,9.5-20.5,20.5S25.3,82,36.3,82s20.5-9.5,20.5-20.5S47.3,41,36.3,41z"/>
<path style="fill:#FFFFFF;" d="M467.9,7.9c-15.8,0-28.4,12.6-28.4,28.4l0,0c0,15.8,12.6,28.4,28.4,28.4s28.4-12.6,28.4-28.4l0,0
	C496.3,20.5,483.7,7.9,467.9,7.9z"/>
<g>
	<path style="fill:#183651;" d="M467.9,72.5c-19.7,0-36.2-16.5-36.2-36.2s16.5-36.2,36.2-36.2s36.2,16.5,36.2,36.2
		S487.6,72.5,467.9,72.5z M467.9,15.8c-11,0-20.5,9.5-20.5,20.5s9.5,20.5,20.5,20.5s20.5-9.5,20.5-20.5S479,15.8,467.9,15.8z"/>
	<path style="fill:#183651;" d="M236.3,155.2h-15.8v-5.5h15.8V155.2z M236.3,133.9h-15.8v-15.8h15.8V133.9z M236.3,102.4h-15.8V86.7
		h15.8V102.4z M236.3,70.9h-15.8V53.6h15.8V70.9z M206.4,69.4h-15.8V53.6h15.8V69.4z M174.9,69.4h-15.8V53.6h15.8V69.4z M143.4,69.4
		h-15.8V53.6h15.8V69.4z M111.9,69.4H96.1V53.6h15.8V69.4z M80.4,69.4H64.6V53.6h15.8V69.4z"/>
	<path style="fill:#183651;" d="M319.1,143.4h-15.8v-15.8h15.8V143.4z M319.1,111.9h-15.8V96.1h15.8V111.9z M319.1,80.4h-15.8V64.6
		h15.8V80.4z M319.1,48.9h-15.8V28.4h15.8V48.9z M439.6,44.1h-15.8V28.4h15.8V44.1z M408.1,44.1h-15.8V28.4h15.8V44.1z M376.6,44.1
		h-15.8V28.4h15.8V44.1z M345,44.1h-15.8V28.4H345V44.1z"/>
</g>
<g>
</g>
<g>
</g>
<g>
</g>
<g>
</g>
<g>
</g>
<g>
</g>
<g>
</g>
<g>
</g>
<g>
</g>
<g>
</g>
<g>
</g>
<g>
</g>
<g>
</g>
<g>
</g>
<g>
</g>
</svg>
