<?xml version="1.0" encoding="iso-8859-1"?>
<!-- Generator: Adobe Illustrator 19.0.0, SVG Export Plug-In . SVG Version: 6.00 Build 0)  -->
<svg version="1.1" id="Capa_1" xmlns="http://www.w3.org/2000/svg" xmlns:xlink="http://www.w3.org/1999/xlink" x="0px" y="0px"
	 viewBox="0 0 505.108 505.108" style="enable-background:new 0 0 505.108 505.108;" xml:space="preserve">
<path style="fill:#F06151;" d="M363.618,332.603c-77.982,0-140.997-63.015-140.997-140.997S285.637,49.822,363.618,49.822
	s140.997,63.803,140.997,140.997S441.6,332.603,363.618,332.603z"/>
<circle style="fill:#FBBD5E;" cx="363.618" cy="190.818" r="116.578"/>
<path style="fill:#183651;" d="M363.618,316.062c-68.529,0-124.455-55.926-124.455-124.455S295.089,67.151,363.618,67.151
	s124.455,55.926,124.455,124.455C488.074,260.135,432.148,316.062,363.618,316.062z M363.618,82.117
	c-59.865,0-108.702,48.837-108.702,108.702S303.754,299.52,363.618,299.52S472.32,250.683,472.32,190.818
	S423.483,82.117,363.618,82.117z"/>
<path style="fill:#FFFFFF;" d="M363.618,279.828c-48.837,0-89.009-40.172-89.009-89.009s40.172-89.009,89.009-89.009
	s89.009,40.172,89.009,89.009S412.455,279.828,363.618,279.828z"/>
<g>
	<path style="fill:#FBBD5E;" d="M361.255,235.717v-7.877c-10.24-0.788-18.905-4.726-26.782-11.815l7.877-9.452
		c6.302,5.514,12.603,8.665,18.905,9.452v-21.268c-7.877-1.575-14.178-4.726-18.117-7.877c-3.938-3.151-5.514-7.877-5.514-14.178
		c0-6.302,2.363-11.028,6.302-14.966c4.726-3.938,10.24-6.302,17.329-6.302v-5.514h7.089v5.514
		c7.877,0.788,15.754,3.151,22.843,7.877l-7.089,10.24c-4.726-3.151-10.24-5.514-15.754-6.302v20.48l0,0
		c8.665,1.575,14.178,4.726,18.117,7.877c3.938,3.151,5.514,7.877,5.514,14.178c0,6.302-2.363,11.815-7.089,15.754
		c-4.726,3.938-10.24,6.302-18.117,6.302v7.877H361.255z M353.378,165.612c-1.575,1.575-2.363,3.938-2.363,6.302
		s0.788,3.938,2.363,5.514c1.575,1.575,3.938,3.151,7.877,3.938v-18.905C357.317,163.249,354.954,164.037,353.378,165.612z
		 M376.222,213.662c2.363-1.575,3.151-3.938,3.151-6.302s-0.788-4.726-2.363-6.302c-1.575-1.575-4.726-3.151-8.665-3.938v19.692
		C371.495,216.025,373.858,215.237,376.222,213.662z"/>
	<circle style="fill:#FBBD5E;" cx="425.846" cy="190.818" r="8.665"/>
	<circle style="fill:#FBBD5E;" cx="300.603" cy="190.818" r="8.665"/>
</g>
<path style="fill:#2CA0DA;" d="M350.228,334.966v162.265H8.369V334.966c0-42.535,33.871-77.982,75.618-80.345
	c22.055,33.871,56.714,55.138,95.311,55.138s72.468-21.268,95.311-55.138C316.357,256.985,350.228,292.431,350.228,334.966z"/>
<path style="fill:#183651;" d="M350.228,505.108H8.369c-4.726,0-7.877-3.151-7.877-7.877V334.966
	c0-46.474,36.234-85.071,83.495-88.222c3.151,0,5.514,1.575,7.089,3.938c21.268,33.083,53.563,51.988,88.222,51.988
	s66.954-18.905,88.222-51.988c1.575-2.363,3.938-3.938,7.089-3.938c46.474,2.363,83.495,40.96,83.495,88.222v162.265
	C358.105,501.169,354.954,505.108,350.228,505.108z M16.246,489.354h326.105V334.966c0-37.022-27.569-67.742-63.803-71.68
	c-24.418,35.446-59.865,55.138-99.249,55.138c-38.597,0-74.831-19.692-99.249-55.138c-36.234,3.938-63.803,34.658-63.803,71.68
	L16.246,489.354L16.246,489.354z"/>
<path style="fill:#FFFFFF;" d="M43.028,462.572V334.966c0-18.905,11.028-34.658,26.782-41.748
	c29.145,33.083,67.742,51.988,109.489,51.988s80.345-18.905,109.489-51.988c15.754,7.089,26.782,22.843,26.782,41.748v127.606
	L43.028,462.572L43.028,462.572z"/>
<ellipse style="fill:#E1E6E7;" cx="179.298" cy="144.345" rx="81.92" ry="112.64"/>
<path style="fill:#183651;" d="M179.298,264.862c-49.625,0-89.797-54.351-89.797-120.517s40.172-119.729,89.797-119.729
	s89.797,54.351,89.797,120.517S228.923,264.862,179.298,264.862z M179.298,40.369c-40.96,0-74.043,47.262-74.043,104.763
	s33.083,103.975,74.043,103.975s74.043-47.262,74.043-104.763S220.258,40.369,179.298,40.369z"/>
<path style="fill:#FFFFFF;" d="M269.095,65.575c-2.363-20.48-18.117-34.658-36.234-44.111c-33.083-17.329-73.255-17.329-107.126,0
	c-18.117,9.452-33.871,22.843-36.234,44.111c0,0-25.206,18.117,8.665,96.098c0,0-7.877-19.692,17.329-38.597
	c0,0-11.815-36.234,20.48-36.234c0,0,26.782,14.966,43.323,11.815c16.542,3.151,43.323-11.815,43.323-11.815
	c32.295,0.788,20.48,36.234,20.48,36.234c25.206,18.905,17.329,38.597,17.329,38.597C294.302,83.692,269.095,65.575,269.095,65.575z
	"/>
<g>
	<path style="fill:#183651;" d="M260.431,169.551c-0.788,0-2.363,0-3.151-0.788c-3.938-1.575-5.514-6.302-3.938-10.24
		c0-0.788,4.726-14.966-14.966-29.932c-2.363-2.363-3.938-5.514-2.363-8.665c0.788-3.938,3.938-15.754-0.788-21.268
		c-0.788-0.788-3.151-3.938-10.24-4.726c-7.089,3.151-29.932,13.391-44.898,11.815c-14.966,2.363-38.597-7.877-44.898-11.815
		c-7.877,0.788-9.452,3.938-10.24,4.726c-3.938,6.302-1.575,18.117-0.788,21.268s0,6.302-2.363,8.665
		c-17.329,13.391-15.754,25.206-14.966,28.357c0.788,0.788,0.788,2.363,0.788,3.938c0,5.514-5.514,8.665-10.24,7.877
		c-2.363-0.788-3.938-2.363-5.514-4.726C61.932,94.72,76.111,68.726,82.412,60.849c3.151-19.692,16.542-35.446,40.172-47.262
		c34.658-18.117,79.557-18.117,114.215,0c23.631,11.815,37.022,27.569,40.172,47.262c7.089,7.877,21.268,33.871-9.452,103.188
		C265.945,167.975,262.794,169.551,260.431,169.551z M251.766,120.714c4.726,3.938,8.665,8.665,11.028,12.603
		c15.754-48.049,1.575-60.652,1.575-61.44c-1.575-1.575-3.151-3.151-3.151-5.514c-1.575-14.966-12.603-27.569-32.295-37.809
		c-30.72-15.754-69.317-15.754-100.037,0c-19.692,10.24-29.932,22.843-32.295,37.809c0,2.363-1.575,3.938-3.151,5.514l0,0
		c0,0-14.178,12.603,1.575,60.652c2.363-3.938,6.302-8.665,11.028-12.603c-1.575-7.089-2.363-20.48,3.938-29.932
		c3.938-4.726,11.028-11.028,25.206-11.028c1.575,0,2.363,0,3.938,0.788c6.302,3.151,26.782,12.603,37.809,11.028
		c0.788,0,2.363,0,3.151,0c11.815,2.363,31.508-7.089,37.809-11.028c1.575-0.788,2.363-0.788,3.938-0.788
		c14.178,0,21.268,6.302,25.206,11.028C254.917,100.234,253.342,112.837,251.766,120.714z"/>
	<rect x="106.831" y="418.462" style="fill:#183651;" width="15.754" height="17.329"/>
	<rect x="171.422" y="418.462" style="fill:#183651;" width="15.754" height="17.329"/>
	<rect x="236.012" y="418.462" style="fill:#183651;" width="15.754" height="17.329"/>
	<rect x="106.831" y="374.351" style="fill:#183651;" width="15.754" height="17.329"/>
	<rect x="171.422" y="374.351" style="fill:#183651;" width="15.754" height="17.329"/>
	<rect x="236.012" y="374.351" style="fill:#183651;" width="15.754" height="17.329"/>
</g>
<g>
</g>
<g>
</g>
<g>
</g>
<g>
</g>
<g>
</g>
<g>
</g>
<g>
</g>
<g>
</g>
<g>
</g>
<g>
</g>
<g>
</g>
<g>
</g>
<g>
</g>
<g>
</g>
<g>
</g>
</svg>
