<?xml version="1.0" encoding="iso-8859-1"?>
<!-- Generator: Adobe Illustrator 19.0.0, SVG Export Plug-In . SVG Version: 6.00 Build 0)  -->
<svg version="1.1" id="Capa_1" xmlns="http://www.w3.org/2000/svg" xmlns:xlink="http://www.w3.org/1999/xlink" x="0px" y="0px"
	 viewBox="0 0 504.911 504.911" style="enable-background:new 0 0 504.911 504.911;" xml:space="preserve">
<circle style="fill:#FBBD5E;" cx="252.062" cy="252.455" r="252.062"/>
<rect x="37.809" y="188.652" style="fill:#2EA0DA;" width="428.505" height="273.329"/>
<path style="fill:#183651;" d="M466.314,469.858H37.809c-4.726,0-7.877-3.151-7.877-7.877V188.652c0-4.726,3.151-7.877,7.877-7.877
	h428.505c4.726,0,7.877,3.151,7.877,7.877v273.329C474.191,466.708,471.04,469.858,466.314,469.858z M45.686,454.105h412.751
	V196.529H45.686V454.105z"/>
<g>
	<rect x="69.317" y="220.16" style="fill:#FFFFFF;" width="365.489" height="241.822"/>
	<path style="fill:#FFFFFF;" d="M109.489,242.215c3.938,3.938,9.452,6.302,15.754,6.302H378.88c6.302,0,11.815-2.363,15.754-6.302
		L252.062,95.705L109.489,242.215z"/>
</g>
<path style="fill:#183651;" d="M378.88,257.182H125.243c-7.877,0-15.754-3.151-21.268-8.665c-3.151-3.151-3.151-7.877,0-11.028
	L246.548,90.978c3.151-3.151,8.665-3.151,11.028,0l142.572,146.511c3.151,3.151,3.151,7.877,0,11.028
	C394.634,254.031,386.757,257.182,378.88,257.182z M122.092,240.64c0.788,0,2.363,0,3.151,0H378.88c0.788,0,2.363,0,3.151,0
	L252.062,106.732L122.092,240.64z"/>
<polygon style="fill:#4FBF9F;" points="173.292,219.372 252.062,138.24 330.831,219.372 "/>
<path style="fill:#F06151;" d="M394.634,50.018c-3.938-3.938-9.452-6.302-15.754-6.302H125.243c-6.302,0-11.028,2.363-14.966,6.302
	l142.572,130.757L394.634,50.018z"/>
<path style="fill:#183651;" d="M252.062,188.652c-1.575,0-3.938-0.788-5.514-2.363L104.763,55.532
	c-1.575-1.575-2.363-3.151-2.363-5.514s0.788-3.938,2.363-5.514c5.514-6.302,12.603-8.665,20.48-8.665H378.88
	c7.877,0,14.966,3.151,20.48,8.665c1.575,1.575,2.363,3.938,2.363,5.514c0,1.575-0.788,3.938-2.363,5.514L257.575,186.289
	C256,187.865,253.637,188.652,252.062,188.652z M123.668,51.594l128.394,118.154L380.455,51.594c-0.788,0-1.575,0-1.575,0H125.243
	C124.455,51.594,123.668,51.594,123.668,51.594z"/>
<g>
	<polygon style="fill:#FFFFFF;" points="178.806,72.862 325.317,72.862 252.062,140.603 	"/>
	<path style="fill:#FFFFFF;" d="M103.188,65.772v161.477c0,6.302,2.363,11.815,6.302,15.754l99.249-102.4l-99.249-90.585
		C105.551,53.957,103.188,59.471,103.188,65.772z"/>
</g>
<path style="fill:#183651;" d="M109.489,250.092c-2.363,0-3.938-0.788-5.514-2.363c-5.514-5.514-8.665-13.391-8.665-21.268V65.772
	c0-7.877,3.151-15.754,9.452-21.268c3.151-3.151,7.877-3.151,11.028,0l98.462,91.372c1.575,1.575,2.363,3.151,2.363,5.514
	c0,2.363-0.788,3.938-2.363,5.514l-99.249,100.825C113.428,249.305,111.852,250.092,109.489,250.092L109.489,250.092z
	 M111.065,61.834c0,1.575-0.788,2.363-0.788,3.938v161.477c0,0.788,0,1.575,0,2.363l85.858-88.222L111.065,61.834z"/>
<path style="fill:#FFFFFF;" d="M394.634,50.018l-99.249,90.585l99.249,101.612c3.938-3.938,6.302-9.452,6.302-15.754V65.772
	C400.935,59.471,398.572,53.957,394.634,50.018z"/>
<path style="fill:#183651;" d="M394.634,250.092L394.634,250.092c-2.363,0-3.938-0.788-5.514-2.363l-99.249-101.612
	c-1.575-1.575-2.363-3.938-2.363-5.514c0-2.363,0.788-3.938,2.363-5.514l99.249-91.372c3.151-3.151,7.877-3.151,11.028,0
	c6.302,5.514,9.452,13.391,9.452,21.268v161.477c0,7.877-3.151,15.754-8.665,21.268
	C398.572,249.305,396.997,250.092,394.634,250.092z M307.2,140.603l85.858,88.222c0-0.788,0-1.575,0-2.363V65.772
	c0-1.575,0-2.363-0.788-3.938L307.2,140.603z"/>
<path style="fill:#FFFFFF;" d="M333.982,443.865v18.117H169.354v-18.117H7.877c0,29.145,23.631,52.775,52.775,52.775h383.606
	c29.145,0,52.775-23.631,52.775-52.775H333.982z"/>
<g>
	<path style="fill:#183651;" d="M443.471,504.517H60.652C27.569,504.517,0,477.735,0,443.865c0-4.726,3.151-7.877,7.877-7.877
		h162.265c4.726,0,7.877,3.151,7.877,7.877v10.24h148.874v-10.24c0-4.726,3.151-7.877,7.877-7.877h162.265
		c4.726,0,7.877,3.151,7.877,7.877C504.123,477.735,477.342,504.517,443.471,504.517z M16.542,451.742
		c3.938,21.268,22.055,37.022,44.111,37.022h383.606c22.055,0,40.172-15.754,44.111-37.022H341.858v10.24
		c0,4.726-3.151,7.877-7.877,7.877H169.354c-4.726,0-7.877-3.151-7.877-7.877v-10.24H16.542z"/>
	<rect x="197.711" y="333.588" style="fill:#183651;" width="15.754" height="15.754"/>
	<rect x="244.185" y="333.588" style="fill:#183651;" width="15.754" height="15.754"/>
	<rect x="290.658" y="333.588" style="fill:#183651;" width="15.754" height="15.754"/>
</g>
<g>
</g>
<g>
</g>
<g>
</g>
<g>
</g>
<g>
</g>
<g>
</g>
<g>
</g>
<g>
</g>
<g>
</g>
<g>
</g>
<g>
</g>
<g>
</g>
<g>
</g>
<g>
</g>
<g>
</g>
</svg>
