<?xml version="1.0" encoding="iso-8859-1"?>
<!-- Generator: Adobe Illustrator 19.0.0, SVG Export Plug-In . SVG Version: 6.00 Build 0)  -->
<svg version="1.1" id="Capa_1" xmlns="http://www.w3.org/2000/svg" xmlns:xlink="http://www.w3.org/1999/xlink" x="0px" y="0px"
	 viewBox="0 0 504.155 504.155" style="enable-background:new 0 0 504.155 504.155;" xml:space="preserve">
<path style="fill:#F06151;" d="M57.502,495.868h268.603c27.569,0,49.625-22.055,49.625-49.625V57.911
	c0-27.569-22.055-49.625-49.625-49.625H57.502c-27.569,0-49.625,22.055-49.625,49.625v388.332
	C7.877,473.025,29.932,495.868,57.502,495.868z"/>
<path style="fill:#183651;" d="M326.105,503.745H57.502C25.994,503.745,0,477.751,0,446.244V57.911
	C0,26.404,25.994,0.41,57.502,0.41h268.603c31.508,0,57.502,25.994,57.502,57.502v388.332
	C383.606,477.751,357.612,503.745,326.105,503.745z M57.502,15.376c-22.843,0-41.748,18.905-41.748,41.748v388.332
	c0,22.843,18.905,41.748,41.748,41.748h268.603c22.843,0,41.748-18.905,41.748-41.748V57.911c0-22.843-18.905-41.748-41.748-41.748
	H57.502V15.376z"/>
<rect x="45.686" y="76.816" style="fill:#FFFFFF;" width="293.022" height="330.043"/>
<g>
	<circle style="fill:#E0E4E8;" cx="192.197" cy="443.093" r="21.268"/>
	<path style="fill:#E0E4E8;" d="M232.369,39.794h-83.495c-6.302,0-11.028,4.726-11.028,11.028s4.726,11.028,11.028,11.028h83.495
		c6.302,0,11.028-4.726,11.028-11.028S238.671,39.794,232.369,39.794z"/>
</g>
<rect x="203.225" y="140.619" style="fill:#FFFFFF;" width="293.022" height="202.437"/>
<path style="fill:#183651;" d="M496.246,350.933H203.225c-4.726,0-7.877-3.151-7.877-7.877V140.619c0-4.726,3.151-7.877,7.877-7.877
	h293.022c4.726,0,7.877,3.151,7.877,7.877v202.437C504.123,347.782,500.972,350.933,496.246,350.933z M211.102,335.179h277.268
	V148.496H211.102V335.179z"/>
<polygon style="fill:#4FBF9F;" points="496.246,343.056 349.735,192.607 203.225,343.056 "/>
<path style="fill:#183651;" d="M496.246,350.933H203.225c-3.151,0-6.302-1.575-7.089-4.726c-1.575-3.151-0.788-6.302,1.575-8.665
	l146.511-150.449c3.151-3.151,8.665-3.151,11.028,0L501.76,337.542c2.363,2.363,3.151,5.514,1.575,8.665
	C502.548,349.358,499.397,350.933,496.246,350.933z M222.129,335.179h255.212L349.735,203.634L222.129,335.179z"/>
<polygon style="fill:#4FBF9F;" points="203.225,140.619 349.735,272.164 496.246,140.619 "/>
<g>
	<path style="fill:#183651;" d="M349.735,280.041c-1.575,0-3.938-0.788-5.514-2.363L198.498,146.921
		c-2.363-2.363-3.151-5.514-2.363-8.665c0.788-3.151,3.938-4.726,7.089-4.726h293.022c3.151,0,6.302,2.363,7.089,4.726
		c0.788,3.151,0,6.302-2.363,8.665L355.249,277.678C353.674,279.253,351.311,280.041,349.735,280.041z M223.705,148.496
		l126.031,112.64l126.031-112.64L223.705,148.496L223.705,148.496z"/>
	<rect x="300.111" y="174.49" style="fill:#183651;" width="15.754" height="15.754"/>
	<rect x="341.858" y="174.49" style="fill:#183651;" width="15.754" height="15.754"/>
	<rect x="384.394" y="174.49" style="fill:#183651;" width="15.754" height="15.754"/>
</g>
<g>
</g>
<g>
</g>
<g>
</g>
<g>
</g>
<g>
</g>
<g>
</g>
<g>
</g>
<g>
</g>
<g>
</g>
<g>
</g>
<g>
</g>
<g>
</g>
<g>
</g>
<g>
</g>
<g>
</g>
</svg>
