<?xml version="1.0" encoding="iso-8859-1"?>
<!-- Generator: Adobe Illustrator 19.0.0, SVG Export Plug-In . SVG Version: 6.00 Build 0)  -->
<svg version="1.1" id="Capa_1" xmlns="http://www.w3.org/2000/svg" xmlns:xlink="http://www.w3.org/1999/xlink" x="0px" y="0px"
	 viewBox="0 0 504.911 504.911" style="enable-background:new 0 0 504.911 504.911;" xml:space="preserve">
<path style="fill:#FFFFFF;" d="M371.791,16.366c-35.446,3.938-63.803,32.295-66.954,67.742
	c-3.151,31.508,12.603,59.077,37.809,74.043c6.302,3.938,10.24,10.24,10.24,18.117v1.575h55.926v-2.363
	c0-7.089,3.938-13.391,10.24-17.329c22.843-13.391,38.597-37.809,38.597-66.166C456.862,47.086,417.477,11.64,371.791,16.366z"/>
<path style="fill:#183651;" d="M408.025,184.933h-55.926c-3.938,0-7.877-3.151-7.877-7.877v-1.575c0-4.726-2.363-8.665-7.089-11.028
	c-28.357-16.542-44.898-48.049-40.96-81.132c3.938-38.597,34.658-70.105,74.043-74.831c3.151,0,6.302-0.788,9.452-0.788
	c46.474,0,83.495,37.809,83.495,83.495c0,29.932-15.754,57.502-41.748,72.468c-3.938,2.363-6.302,6.302-6.302,10.24v3.938
	C415.902,181.782,412.751,184.933,408.025,184.933z M359.975,169.966h41.748c1.575-7.877,6.302-14.178,13.391-18.117
	c21.268-12.603,34.658-34.658,34.658-59.077c0-40.172-35.446-72.468-76.406-68.529c-31.508,3.151-57.502,29.145-60.652,60.652
	c-2.363,27.569,10.24,52.775,33.871,66.166C352.886,155.788,357.612,162.09,359.975,169.966z"/>
<path style="fill:#183651;" d="M130.757,496.859c-3.938,0-7.877-3.151-7.877-7.877V151.85c0-3.938,3.151-7.877,7.877-7.877
	c3.938,0,7.877,3.151,7.877,7.877v337.132C138.634,493.708,135.483,496.859,130.757,496.859z"/>
<ellipse transform="matrix(-0.4597 -0.8881 0.8881 -0.4597 63.8784 218.3357)" style="fill:#FBBD5E;" cx="98.357" cy="89.736" rx="71.682" ry="22.844"/>
<path style="fill:#183651;" d="M127.606,162.09c-18.117,0-40.96-29.145-55.926-58.289C54.351,69.93,43.323,28.97,62.228,19.517
	c2.363-1.575,4.726-1.575,7.089-1.575c18.117,0,40.96,29.145,55.926,58.289c17.329,33.871,28.357,74.831,9.452,84.283
	C133.12,161.302,130.757,162.09,127.606,162.09z M69.317,32.908c-3.938,3.151-2.363,28.357,15.754,63.803
	c16.542,32.295,35.446,49.625,42.535,49.625l0,0c3.938-3.151,2.363-27.569-15.754-63.803C95.311,51.025,76.406,32.908,69.317,32.908
	z"/>
<ellipse transform="matrix(-0.5393 0.8421 -0.8421 -0.5393 323.2664 250.9055)" style="fill:#FBBD5E;" cx="93.002" cy="213.878" rx="71.679" ry="22.843"/>
<path style="fill:#183651;" d="M50.412,281.031c-21.268-13.391,3.151-62.228,16.542-83.495
	c15.754-24.418,40.96-52.775,59.865-52.775c3.151,0,6.302,0.788,8.665,2.363c17.329,11.028,3.151,51.2-17.329,83.495
	C104.763,251.887,70.892,294.422,50.412,281.031z M127.606,159.727c-7.877,0-27.569,14.178-47.262,45.686
	c-22.055,33.871-25.206,59.077-22.055,62.228h0.788c7.089,0,26.782-14.178,46.474-45.686
	C127.606,188.083,130.757,162.877,127.606,159.727L127.606,159.727z"/>
<ellipse transform="matrix(0.9989 0.046 -0.046 0.9989 7.4254 -9.1891)" style="fill:#FBBD5E;" cx="203.536" cy="156.876" rx="71.677" ry="22.842"/>
<path style="fill:#183651;" d="M201.649,187.296c-19.692-0.788-38.597-3.938-52.775-9.452
	c-21.268-7.877-25.206-17.329-25.206-24.418c0.788-24.418,55.926-27.569,80.345-26.782c19.692,0.788,38.597,3.938,52.775,9.452
	c21.268,7.877,25.206,17.329,25.206,24.418C281.206,184.933,226.855,188.083,201.649,187.296z M139.422,154.213
	c0.788,4.726,22.843,16.542,63.015,18.117c29.145,1.575,63.015-4.726,64.591-11.815c-0.788-4.726-22.843-16.542-63.015-18.117
	C174.868,140.034,140.997,146.336,139.422,154.213z"/>
<path style="fill:#183651;" d="M496.246,496.859H7.877c-3.938,0-7.877-3.151-7.877-7.877s3.151-7.877,7.877-7.877h489.157
	c3.938,0,7.877,3.151,7.877,7.877S500.972,496.859,496.246,496.859z"/>
<circle style="fill:#FBBD5E;" cx="133.12" cy="156.576" r="23.631"/>
<path style="fill:#183651;" d="M133.12,188.083c-17.329,0-31.508-14.178-31.508-31.508s14.178-31.508,31.508-31.508
	s31.508,14.178,31.508,31.508S150.449,188.083,133.12,188.083z M133.12,140.822c-8.665,0-15.754,7.089-15.754,15.754
	s7.089,15.754,15.754,15.754s15.754-7.089,15.754-15.754C149.662,147.911,142.572,140.822,133.12,140.822z"/>
<path style="fill:#183651;" d="M238.671,496.071c-3.151-2.363-4.726-7.089-2.363-10.24l37.809-57.502
	c2.363-3.151,7.089-4.726,10.24-2.363c3.151,2.363,4.726,7.089,2.363,10.24l-37.809,57.502
	C246.548,496.859,241.822,498.434,238.671,496.071z"/>
<path style="fill:#183651;" d="M402.511,493.708l-37.809-57.502c-2.363-3.151-1.575-7.877,2.363-10.24
	c3.151-2.363,7.877-1.575,10.24,2.363l37.809,57.502c2.363,3.151,1.575,7.877-2.363,10.24
	C409.6,498.434,404.874,496.859,402.511,493.708z"/>
<polygon style="fill:#2EA0DA;" points="187.471,248.736 463.163,248.736 489.157,432.268 162.265,432.268 "/>
<path style="fill:#183651;" d="M489.157,439.357L489.157,439.357H162.265c-2.363,0-3.938-0.788-5.514-2.363
	c-1.575-1.575-2.363-3.938-1.575-6.302l25.206-183.532c0.788-3.938,3.938-6.302,7.877-6.302h275.692
	c3.938,0,7.089,3.151,7.877,6.302l25.206,181.957c0,0.788,0.788,1.575,0.788,2.363C496.246,436.206,493.095,439.357,489.157,439.357
	z M170.929,424.391h308.775l-23.631-167.778H194.56L170.929,424.391z"/>
<polygon style="fill:#FFFFFF;" points="188.258,409.425 207.951,271.579 443.471,271.579 462.375,409.425 "/>
<path style="fill:#183651;" d="M435.594,336.17h37.022v-7.877h-37.809l-3.151-36.234h35.446v-7.877h-36.234l-3.151-36.234h-7.877
	l3.151,36.234h-43.323l-1.575-36.234h-7.877l1.575,36.234h-43.323v-36.234h-7.877v36.234h-43.323l1.575-36.234h-7.877l-1.575,36.234
	h-43.323l3.151-36.234h-7.877l-3.151,36.234h-37.022v7.877h36.234l-3.151,36.234h-39.385v7.877h38.597l-3.938,39.385h-40.172v7.877
	h39.385l-2.363,46.474h7.877l4.726-45.686h48.049l-3.151,45.686h7.877l2.363-45.686h48.049v45.686h7.877v-45.686h48.049
	l2.363,45.686h7.877l-2.363-45.686h48.049l3.151,45.686h7.877l-4.726-45.686h39.385v-7.877h-40.172L435.594,336.17z M266.24,376.342
	h-47.262l3.938-39.385h45.686L266.24,376.342z M268.603,329.08h-44.898l3.151-36.234h43.323L268.603,329.08z M321.378,376.342
	h-47.262l1.575-39.385h45.686V376.342z M321.378,329.08H276.48l1.575-36.234h43.323V329.08z M329.255,292.846h43.323l1.575,36.234
	h-44.898V292.846z M329.255,376.342v-39.385h45.686l1.575,39.385H329.255z M380.455,292.846h43.323l3.151,36.234h-44.898
	L380.455,292.846z M384.394,376.342l-1.575-39.385h45.686l3.938,39.385H384.394z"/>
<path style="fill:#F06151;" d="M380.455,226.68L380.455,226.68c17.329,0,30.72-14.178,30.72-30.72v-18.117h-61.44v18.905
	C349.735,213.29,363.126,226.68,380.455,226.68z"/>
<path style="fill:#183651;" d="M380.455,234.557c-21.268,0-38.597-17.329-38.597-38.597v-18.117c0-3.938,3.151-7.877,7.877-7.877
	h61.44c3.938,0,7.877,3.151,7.877,7.877v18.905C419.052,217.228,401.723,234.557,380.455,234.557z M357.612,184.933v11.028
	c0,12.603,10.24,22.843,22.843,22.843s22.843-10.24,22.843-22.843v-11.028H357.612z"/>
<path style="fill:#E0E4E8;" d="M380.455,41.573c-0.788,0-0.788,0-1.575,0c-21.268,0.788-43.323,18.905-47.262,40.172
	c-3.938,21.268,5.514,40.96,23.631,51.2c11.028,6.302,18.117,18.117,18.117,31.508v5.514h13.391v-3.938
	c0-13.391,7.089-25.994,18.905-33.083l0,0c7.877-4.726,14.178-11.028,18.117-18.905C441.108,77.806,415.114,41.573,380.455,41.573z"
	/>
<path style="fill:#FFFFFF;" d="M408.812,80.17c-3.938-9.452-12.603-16.542-22.843-18.117c-2.363,0-3.151-2.363-3.151-4.726
	c0-2.363,2.363-3.151,4.726-3.151c12.603,2.363,23.631,10.24,29.145,22.843c0.788,1.575,0,3.938-2.363,4.726
	C411.963,82.533,409.6,81.745,408.812,80.17z"/>
<g>
	<rect x="151.237" y="39.21" style="fill:#183651;" width="14.966" height="14.966"/>
	<rect x="197.711" y="39.21" style="fill:#183651;" width="14.966" height="14.966"/>
	<rect x="244.185" y="39.21" style="fill:#183651;" width="14.966" height="14.966"/>
	<rect x="49.625" y="348.773" style="fill:#183651;" width="14.966" height="14.966"/>
	<rect x="49.625" y="395.246" style="fill:#183651;" width="14.966" height="14.966"/>
	<rect x="49.625" y="441.72" style="fill:#183651;" width="14.966" height="14.966"/>
</g>
<g>
</g>
<g>
</g>
<g>
</g>
<g>
</g>
<g>
</g>
<g>
</g>
<g>
</g>
<g>
</g>
<g>
</g>
<g>
</g>
<g>
</g>
<g>
</g>
<g>
</g>
<g>
</g>
<g>
</g>
</svg>
