<?xml version="1.0" encoding="iso-8859-1"?>
<!-- Generator: Adobe Illustrator 19.0.0, SVG Export Plug-In . SVG Version: 6.00 Build 0)  -->
<svg version="1.1" id="Capa_1" xmlns="http://www.w3.org/2000/svg" xmlns:xlink="http://www.w3.org/1999/xlink" x="0px" y="0px"
	 viewBox="0 0 504.943 504.943" style="enable-background:new 0 0 504.943 504.943;" xml:space="preserve">
<polygon style="fill:#4FBF9F;" points="101.644,8.303 7.909,102.038 7.909,241.46 353.706,241.46 353.706,8.303 "/>
<path style="fill:#183651;" d="M353.706,249.337H7.909c-4.726,0-7.877-3.151-7.877-7.877V102.038c0-2.363,0.788-3.938,2.363-5.514
	L96.13,2.789c1.575-1.575,3.151-2.363,5.514-2.363h252.849c4.726,0,7.877,3.151,7.877,7.877V241.46
	C361.583,245.398,358.432,249.337,353.706,249.337z M15.786,233.583h330.043V16.18H104.795l-89.009,89.009V233.583z"/>
<polygon style="fill:#FFFFFF;" points="39.417,209.952 39.417,114.641 114.247,39.81 322.198,39.81 322.198,209.952 "/>
<path style="fill:#E1E6E7;" d="M354.493,436.807c0-87.434-70.892-157.538-157.538-157.538c-87.434,0-157.538,70.892-157.538,157.538
	H7.909v59.865h378.092v-59.865H354.493z M92.192,422.629c4.726-53.563,49.625-96.098,104.763-96.098s100.037,42.535,104.763,96.098
	H92.192z"/>
<path style="fill:#183651;" d="M386.001,504.549H7.909c-4.726,0-7.877-3.151-7.877-7.877v-59.865c0-4.726,3.151-7.877,7.877-7.877
	H31.54c3.938-87.434,76.406-157.538,165.415-157.538S358.432,341.497,362.37,428.93h23.631c4.726,0,7.877,3.151,7.877,7.877v59.865
	C393.878,501.398,390.727,504.549,386.001,504.549z M15.786,488.795h362.338v-44.111h-23.631c-4.726,0-7.877-3.151-7.877-7.877
	c0-82.708-66.954-149.662-149.662-149.662S47.293,354.1,47.293,436.807c0,4.726-3.151,7.877-7.877,7.877H15.786V488.795z
	 M301.718,430.506H92.192c-2.363,0-3.938-0.788-5.514-2.363c-1.575-1.575-2.363-3.938-2.363-6.302
	c4.726-58.289,54.351-103.188,112.64-103.188s107.914,45.686,112.64,103.188c0,2.363-0.788,4.726-2.363,6.302
	C306.444,429.718,304.081,430.506,301.718,430.506z M100.857,414.752h192.197c-7.877-45.686-48.837-80.345-96.098-80.345
	S109.521,369.066,100.857,414.752z"/>
<rect x="333.226" y="469.103" style="fill:#183651;" width="15.754" height="27.569"/>
<rect x="292.266" y="469.103" style="fill:#183651;" width="15.754" height="27.569"/>
<rect x="250.518" y="469.103" style="fill:#183651;" width="15.754" height="27.569"/>
<rect x="209.558" y="469.103" style="fill:#183651;" width="15.754" height="27.569"/>
<rect x="168.598" y="469.103" style="fill:#183651;" width="15.754" height="27.569"/>
<rect x="127.638" y="469.103" style="fill:#183651;" width="15.754" height="27.569"/>
<rect x="86.678" y="469.103" style="fill:#183651;" width="15.754" height="27.569"/>
<rect x="44.93" y="469.103" style="fill:#183651;" width="15.754" height="27.569"/>
<rect x="400.18" y="96.524" style="fill:#F06151;" width="96.098" height="309.563"/>
<path style="fill:#183651;" d="M496.278,414.752L496.278,414.752H400.18c-4.726,0-7.877-3.151-7.877-7.877V97.312
	c0-2.363,0.788-3.938,2.363-5.514c1.575-1.575,3.151-2.363,5.514-2.363l0,0h96.098c4.726,0,7.877,3.151,7.877,7.877v309.563
	c0,2.363-0.788,3.938-2.363,5.514C500.216,413.964,498.641,414.752,496.278,414.752z M408.057,398.998h80.345V104.401h-80.345
	V398.998z"/>
<rect x="431.687" y="128.032" style="fill:#FFFFFF;" width="33.083" height="246.548"/>
<path style="fill:#E1E6E7;" d="M475.01,9.09H420.66c-11.815,0-21.268,9.452-21.268,21.268v66.954h96.098V30.358
	C496.278,18.543,486.826,9.09,475.01,9.09z"/>
<path style="fill:#183651;" d="M496.278,104.401L496.278,104.401H400.18c-4.726,0-7.877-3.151-7.877-7.877V30.358
	c0-15.754,12.603-29.145,29.145-29.145h54.351c15.754,0,29.145,12.603,29.145,29.145v66.954c0,2.363-0.788,3.938-2.363,5.514
	C501.004,104.401,498.641,104.401,496.278,104.401z M408.057,88.647h80.345V30.358c0-7.089-5.514-13.391-13.391-13.391H420.66
	c-7.089,0-13.391,5.514-13.391,13.391v58.289H408.057z"/>
<polygon style="fill:#FBBD5E;" points="448.229,496.672 496.278,406.875 400.18,406.875 "/>
<path style="fill:#183651;" d="M448.229,504.549c-3.151,0-5.514-1.575-7.089-3.938l-48.049-89.797c-1.575-2.363-1.575-5.514,0-7.877
	c1.575-2.363,3.938-3.938,7.089-3.938l0,0h96.098c3.151,0,5.514,1.575,7.089,3.938c1.575,2.363,1.575,5.514,0,7.877l-48.049,89.797
	C453.743,502.973,451.38,504.549,448.229,504.549z M412.783,414.752l34.658,65.378l34.658-65.378H412.783z"/>
<polygon style="fill:#FFFFFF;" points="101.644,102.038 101.644,8.303 7.909,102.038 "/>
<g>
	<path style="fill:#183651;" d="M101.644,109.915H7.909c-3.151,0-6.302-1.575-7.089-4.726c-1.575-3.151-0.788-6.302,1.575-8.665
		L96.13,2.789c2.363-2.363,5.514-3.151,8.665-1.575s4.726,3.938,4.726,7.089v93.735
		C109.521,105.977,105.583,109.915,101.644,109.915z M26.813,94.161H92.98V27.207L26.813,94.161z"/>
	<rect x="134.727" y="81.558" style="fill:#183651;" width="15.754" height="15.754"/>
	<rect x="134.727" y="120.155" style="fill:#183651;" width="15.754" height="15.754"/>
	<rect x="134.727" y="159.54" style="fill:#183651;" width="15.754" height="15.754"/>
	<rect x="185.14" y="81.558" style="fill:#183651;" width="15.754" height="93.735"/>
	<rect x="234.764" y="81.558" style="fill:#183651;" width="15.754" height="93.735"/>
	<rect x="284.389" y="113.066" style="fill:#183651;" width="15.754" height="62.228"/>
</g>
<g>
</g>
<g>
</g>
<g>
</g>
<g>
</g>
<g>
</g>
<g>
</g>
<g>
</g>
<g>
</g>
<g>
</g>
<g>
</g>
<g>
</g>
<g>
</g>
<g>
</g>
<g>
</g>
<g>
</g>
</svg>
