<?xml version="1.0" encoding="iso-8859-1"?>
<!-- Generator: Adobe Illustrator 19.0.0, SVG Export Plug-In . SVG Version: 6.00 Build 0)  -->
<svg version="1.1" id="Capa_1" xmlns="http://www.w3.org/2000/svg" xmlns:xlink="http://www.w3.org/1999/xlink" x="0px" y="0px"
	 viewBox="0 0 504.123 504.123" style="enable-background:new 0 0 504.123 504.123;" xml:space="preserve">
<circle style="fill:#FBBD5E;" cx="252.062" cy="252.062" r="252.062"/>
<polygon style="fill:#FFFFFF;" points="368.64,237.883 341.858,296.96 162.265,296.96 135.483,237.883 7.877,237.883 7.877,496.246 
	496.246,496.246 496.246,237.883 "/>
<path style="fill:#183651;" d="M496.246,504.123H7.877c-4.726,0-7.877-3.151-7.877-7.877V237.883c0-4.726,3.151-7.877,7.877-7.877
	h127.606c3.151,0,6.302,1.575,7.089,4.726l24.418,54.351h170.142l24.418-54.351c1.575-3.151,3.938-4.726,7.089-4.726h127.606
	c4.726,0,7.877,3.151,7.877,7.877v258.363C504.123,500.972,500.972,504.123,496.246,504.123z M15.754,488.369h472.615V245.76
	H373.366l-24.418,54.351c-1.575,3.151-3.938,4.726-7.089,4.726H162.265c-3.151,0-6.302-1.575-7.089-4.726l-24.418-54.351H15.754
	V488.369z"/>
<polygon style="fill:#F06151;" points="39.385,464.738 39.385,269.391 115.003,269.391 141.785,328.468 362.338,328.468 
	389.12,269.391 464.738,269.391 464.738,464.738 "/>
<g>
	<rect x="332.406" y="431.655" style="fill:#FFFFFF;" width="100.825" height="9.452"/>
	<rect x="332.406" y="407.237" style="fill:#FFFFFF;" width="100.825" height="9.452"/>
	<rect x="332.406" y="382.818" style="fill:#FFFFFF;" width="100.825" height="9.452"/>
	<rect x="63.015" y="396.209" style="fill:#FFFFFF;" width="135.483" height="44.898"/>
</g>
<g>
	<rect x="81.92" y="411.175" style="fill:#183651;" width="15.754" height="15.754"/>
	<rect x="122.88" y="411.175" style="fill:#183651;" width="15.754" height="15.754"/>
	<rect x="163.84" y="411.175" style="fill:#183651;" width="15.754" height="15.754"/>
</g>
<polygon style="fill:#FFFFFF;" points="252.062,252.062 322.166,152.025 284.357,152.025 284.357,34.658 219.766,34.658 
	219.766,152.025 181.957,152.025 "/>
<path style="fill:#183651;" d="M252.062,259.938c-2.363,0-4.726-1.575-6.302-3.151l-70.105-100.037
	c-1.575-2.363-1.575-5.514-0.788-7.877c1.575-2.363,3.938-3.938,7.089-3.938h29.145V34.658c0-4.726,3.151-7.877,7.877-7.877h65.378
	c4.726,0,7.877,3.151,7.877,7.877v109.489h29.145c3.151,0,5.514,1.575,7.089,3.938c1.575,2.363,0.788,5.514-0.788,7.877L257.575,256
	C256.788,258.363,254.425,259.938,252.062,259.938z M196.923,159.902l55.138,77.982l55.138-77.982h-22.055
	c-4.726,0-7.877-3.151-7.877-7.877V42.535h-49.625v109.489c0,4.726-3.151,7.877-7.877,7.877H196.923z"/>
<polyline style="fill:#E0E4E8;" points="219.766,122.88 219.766,152.025 181.957,152.025 252.062,252.062 322.166,152.025 
	284.357,152.025 284.357,122.88 "/>
<path style="fill:#183651;" d="M252.062,259.938c-2.363,0-4.726-1.575-6.302-3.151l-70.105-100.037
	c-1.575-2.363-1.575-5.514-0.788-7.877c1.575-2.363,3.938-3.938,7.089-3.938h29.145v-21.268c0-4.726,3.151-7.877,7.877-7.877
	s7.877,3.151,7.877,7.877v29.145c0,4.726-3.151,7.877-7.877,7.877h-22.055l55.138,77.982l55.138-77.982h-22.055
	c-4.726,0-7.877-3.151-7.877-7.877v-29.145c0-4.726,3.151-7.877,7.877-7.877s7.877,3.151,7.877,7.877v21.268h29.145
	c3.151,0,5.514,1.575,7.089,3.938c1.575,2.363,0.788,5.514-0.788,7.877l-70.105,100.037
	C256.788,258.363,254.425,259.938,252.062,259.938z"/>
<g>
</g>
<g>
</g>
<g>
</g>
<g>
</g>
<g>
</g>
<g>
</g>
<g>
</g>
<g>
</g>
<g>
</g>
<g>
</g>
<g>
</g>
<g>
</g>
<g>
</g>
<g>
</g>
<g>
</g>
</svg>
