<?xml version="1.0" encoding="iso-8859-1"?>
<!-- Generator: Adobe Illustrator 19.0.0, SVG Export Plug-In . SVG Version: 6.00 Build 0)  -->
<svg version="1.1" id="Capa_1" xmlns="http://www.w3.org/2000/svg" xmlns:xlink="http://www.w3.org/1999/xlink" x="0px" y="0px"
	 viewBox="0 0 504.123 504.123" style="enable-background:new 0 0 504.123 504.123;" xml:space="preserve">
<circle style="fill:#F06151;" cx="252.062" cy="247.335" r="247.335"/>
<path style="fill:#FFFFFF;" d="M469.465,363.126c-21.268-16.542-40.96-43.323-40.96-43.323l-12.603-2.363l-62.228,40.96
	c-66.954,27.569-50.412,90.585-50.412,90.585c74.043,62.228,148.874,49.625,188.258,36.234v-76.406
	C491.52,390.695,483.643,373.366,469.465,363.126z"/>
<path style="fill:#183651;" d="M427.717,504.123L427.717,504.123c-46.474,0-89.797-16.542-128.394-49.625
	c-1.575-0.788-2.363-2.363-2.363-3.938c0-0.788-17.329-70.105,53.563-99.249l62.228-40.172c1.575-0.788,3.938-1.575,5.514-0.788
	l12.603,2.363c1.575,0,3.938,1.575,4.726,3.151c0,0,18.905,25.994,39.385,41.748c15.754,11.815,25.206,31.508,25.206,51.988v76.406
	c0,3.151-2.363,6.302-5.514,7.089C472.615,500.185,449.772,504.123,427.717,504.123z M310.351,445.046
	c35.446,29.145,74.831,44.111,116.578,44.111l0,0c18.905,0,37.809-3.151,56.714-8.665V409.6c0-15.754-7.089-29.932-18.905-39.385
	c-18.117-14.178-34.658-34.658-40.172-41.748l-7.089-1.575l-59.865,39.385c-0.788,0-0.788,0.788-1.575,0.788
	C303.262,387.545,308.775,434.018,310.351,445.046z"/>
<path style="fill:#CECFD0;" d="M491.52,420.628v-11.815c0-18.117-7.877-34.658-22.055-45.686
	c-21.268-16.542-40.96-43.323-40.96-43.323l-12.603-2.363l-62.228,40.96c-37.022,14.966-48.049,41.748-51.2,62.228"/>
<path style="fill:#183651;" d="M302.474,427.717h-0.788c-3.938-0.788-7.089-4.726-6.302-8.665
	c3.151-22.055,14.966-51.2,55.138-67.742l62.228-40.172c1.575-0.788,3.938-1.575,5.514-0.788l12.603,2.363
	c1.575,0,3.938,1.575,4.726,3.151c0,0,18.905,25.994,39.385,41.748c15.754,11.815,25.206,31.508,25.206,51.988v11.815
	c0,3.938-3.151,7.877-7.877,7.877c-3.938,0-7.877-3.151-7.877-7.877V409.6c0-15.754-7.089-29.932-18.905-39.385
	c-18.117-14.178-34.658-34.658-40.172-41.748l-7.089-1.575L358.4,366.277c-0.788,0-0.788,0.788-1.575,0.788
	c-27.569,11.028-42.535,29.932-46.474,55.926C309.563,425.354,306.412,427.717,302.474,427.717z"/>
<path style="fill:#FBBD5E;" d="M422.991,237.883l-29.932-17.329l-51.988,9.452l-5.514,12.603c0,0-21.268,55.138,11.815,106.338
	c8.665,13.391,25.994,17.329,40.172,10.24c11.815-6.302,25.994-18.117,41.748-39.385l15.754-23.631l2.363-29.932L422.991,237.883z"
	/>
<path style="fill:#183651;" d="M372.578,370.215L372.578,370.215c-13.391,0-25.206-6.302-32.295-17.329
	c-34.658-54.351-13.391-111.065-12.603-113.428l6.302-12.603c0.788-2.363,3.151-3.938,5.514-3.938l51.988-9.452
	c1.575,0,3.938,0,5.514,0.788l29.932,17.329c0.788,0.788,1.575,0.788,2.363,1.575l23.631,28.357
	c1.575,1.575,1.575,3.938,1.575,5.514l-2.363,29.932c0,1.575-0.788,2.363-1.575,3.938l-15.754,23.631
	c-14.178,18.905-29.145,33.083-44.898,41.748C385.182,368.64,378.88,370.215,372.578,370.215z M342.646,245.76
	c0,0-19.692,51.988,11.028,99.249c3.938,6.302,11.028,10.24,18.905,10.24l0,0c3.938,0,7.877-0.788,11.028-3.151
	c13.391-7.089,26.782-19.692,39.385-37.022l14.178-21.268l1.575-24.418l-21.268-25.206l-25.994-14.966l-44.898,8.665L342.646,245.76
	z"/>
<path style="fill:#E0E4E8;" d="M335.557,242.609c0,0-8.665-15.754-2.363-24.418c6.302-8.665,78.769-33.871,111.065,7.089
	s-14.966,94.523-14.966,94.523s24.418-35.446,5.514-41.748c0,0-8.665-3.938-15.754,11.028c0,0,5.514-46.474-22.843-48.049
	c0,0-11.815-7.089-36.234,12.603C360.763,254.425,350.523,237.095,335.557,242.609z"/>
<path style="fill:#183651;" d="M429.292,327.68c-1.575,0-3.151-0.788-4.726-1.575c-3.151-2.363-3.938-7.089-1.575-10.24
	c5.514-8.665,12.603-22.843,11.028-28.357c0-0.788,0-0.788-1.575-1.575h-0.788c-0.788,0-3.151,1.575-5.514,7.089
	c-1.575,3.151-5.514,5.514-9.452,3.938c-3.938-0.788-6.302-4.726-5.514-8.665c0.788-7.089,1.575-25.994-6.302-34.658
	c-2.363-2.363-5.514-3.938-8.665-3.938c-1.575,0-2.363-0.788-3.938-0.788c0,0-0.788,0-2.363,0c-3.938,0-11.815,1.575-25.206,12.603
	c-1.575,1.575-3.938,2.363-6.302,1.575c-2.363-0.788-3.938-1.575-5.514-3.938c0,0-7.089-11.028-15.754-8.665
	c-3.938,1.575-7.877,0-9.452-3.938c-0.788-2.363-10.24-20.48-1.575-32.295c6.302-8.665,37.022-18.905,63.803-18.905
	c25.994,0,46.474,8.665,59.077,25.206c35.446,45.686-13.391,102.4-15.754,104.763C433.231,326.892,430.868,327.68,429.292,327.68z
	 M437.169,270.966c3.151,0.788,5.514,2.363,7.877,4.726c4.726-14.966,4.726-31.508-6.302-45.686
	c-10.24-12.603-25.994-19.692-47.262-19.692c-25.206,0-48.049,9.452-51.988,12.603c-1.575,1.575-0.788,6.302,0.788,10.24
	c9.452-0.788,17.329,4.726,22.055,9.452c10.24-6.302,19.692-10.24,27.569-10.24c3.938,0,6.302,0.788,7.877,1.575
	c7.089,0.788,14.178,3.938,18.905,9.452c6.302,7.877,8.665,18.117,10.24,27.569C432.443,269.391,435.594,270.178,437.169,270.966z"
	/>
<path style="fill:#FFFFFF;" d="M34.658,363.126c21.268-16.542,40.96-43.323,40.96-43.323l12.603-2.363l62.228,40.96
	c66.954,27.569,49.625,90.585,49.625,90.585C126.031,511.212,51.2,498.609,12.603,485.218v-76.406
	C12.603,390.695,20.48,373.366,34.658,363.126z"/>
<path style="fill:#183651;" d="M76.406,504.123c-22.843,0-44.898-3.938-66.954-11.815c-3.151-0.788-5.514-3.938-5.514-7.089v-76.406
	c0-20.48,9.452-39.385,25.206-51.988c19.692-15.754,38.597-40.96,39.385-41.748c0.788-1.575,3.151-2.363,4.726-3.151l12.603-2.363
	c2.363,0,3.938,0,5.514,0.788l62.228,40.172c71.68,29.932,53.563,99.249,53.563,99.249c-0.788,1.575-1.575,3.151-2.363,3.938
	C166.203,487.582,122.88,504.123,76.406,504.123z M20.48,479.705c18.905,6.302,37.809,8.665,56.714,8.665
	c41.748,0,81.132-14.966,116.578-44.111c2.363-11.028,7.089-57.502-45.686-79.557c-0.788,0-0.788-0.788-1.575-0.788l-59.865-39.385
	l-7.089,2.363c-5.514,7.089-22.055,28.357-40.172,41.748c-11.815,9.452-18.905,23.631-18.905,39.385
	C20.48,408.025,20.48,479.705,20.48,479.705z"/>
<path style="fill:#2EA0DA;" d="M201.649,420.628c-2.363-20.48-14.178-46.474-51.2-62.228l-62.228-40.96l-13.391,2.363
	c0,0-19.692,26.782-40.96,43.323c-14.178,11.028-22.055,27.569-22.055,45.686v11.815"/>
<path style="fill:#183651;" d="M201.649,427.717c-3.938,0-7.089-3.151-7.877-7.089c-3.151-25.994-18.905-44.898-46.474-55.926
	c-0.788,0-0.788-0.788-1.575-0.788l-59.865-39.385l-6.302,2.363c-5.514,7.089-22.055,28.357-40.172,41.748
	c-11.815,9.452-18.905,23.631-18.905,39.385v11.815c0,3.938-3.151,7.877-7.877,7.877s-7.877-3.151-7.877-7.877v-11.815
	c0-20.48,9.452-39.385,25.206-51.988c19.692-15.754,38.597-40.96,39.385-41.748c0.788-1.575,3.151-2.363,4.726-3.151l12.603-2.363
	c2.363,0,3.938,0,5.514,0.788l62.228,40.172c40.172,16.542,51.988,46.474,55.138,67.742c0.788,3.938-2.363,7.877-6.302,8.665
	C202.437,427.717,201.649,427.717,201.649,427.717z"/>
<path style="fill:#FBBD5E;" d="M168.566,242.609l-5.514-12.603l-51.988-9.452l-29.932,17.329L57.502,266.24l2.363,29.932
	l15.754,23.631c15.754,21.268,30.72,32.295,41.748,39.385c14.178,7.877,31.508,3.151,40.172-10.24
	C189.834,297.748,168.566,242.609,168.566,242.609z"/>
<path style="fill:#183651;" d="M131.545,370.215L131.545,370.215c-6.302,0-12.603-1.575-18.117-4.726
	c-14.966-8.665-29.932-22.055-44.111-40.96l-15.754-23.631c-0.788-0.788-0.788-2.363-1.575-3.938l-2.363-29.932
	c0-2.363,0.788-3.938,1.575-5.514l23.631-28.357c0.788-0.788,1.575-1.575,2.363-1.575l29.932-17.329
	c1.575-0.788,3.151-1.575,5.514-0.788l51.988,9.452c2.363,0.788,4.726,2.363,5.514,3.938l5.514,12.603
	c0.788,3.151,22.843,59.865-11.815,114.215C156.751,363.914,144.935,370.215,131.545,370.215z M66.954,293.809l14.178,21.268
	c12.603,16.542,25.994,29.145,39.385,36.234c3.151,1.575,7.089,3.151,11.028,3.151c7.877,0,14.966-3.938,18.905-10.24
	c30.72-47.262,11.028-99.249,11.028-99.249l-3.938-8.665l-44.898-8.665l-25.994,14.966l-21.268,25.206L66.954,293.809z"/>
<path style="fill:#E0E4E8;" d="M168.566,242.609c0,0,8.665-15.754,2.363-24.418c-6.302-8.665-78.769-33.871-111.065,7.089
	s14.966,94.523,14.966,94.523s-24.418-35.446-5.514-41.748c0,0,8.665-3.938,15.754,11.028c0,0-5.514-46.474,22.843-48.049
	c0,0,11.815-7.089,36.234,12.603C143.36,254.425,153.6,237.095,168.566,242.609z"/>
<path style="fill:#183651;" d="M74.831,327.68c-2.363,0-3.938-0.788-5.514-2.363c-2.363-2.363-51.2-59.077-15.754-104.763
	c13.391-16.542,33.871-25.206,59.077-25.206c26.782,0,57.502,10.24,63.803,18.905c8.665,11.815-0.788,29.932-1.575,32.295
	c-1.575,3.151-5.514,4.726-9.452,3.938c-8.665-3.151-15.754,7.877-15.754,8.665c-0.788,1.575-3.151,3.151-5.514,3.938
	c-2.363,0-4.726,0-6.302-1.575c-18.905-15.754-27.569-11.815-27.569-11.815c-0.788,0.788-1.575,0.788-3.151,0.788
	c-3.938,0-6.302,1.575-8.665,3.938c-7.089,7.877-7.089,25.994-6.302,33.871c0,0.788,0,1.575,0,2.363
	c0,3.938-3.151,7.877-7.877,7.877l0,0c-3.151,0-5.514-1.575-7.089-4.726c-2.363-5.514-4.726-7.089-5.514-7.089
	c-1.575,0.788-2.363,0.788-2.363,1.575c-1.575,5.514,4.726,18.905,10.24,27.569c1.575,1.575,2.363,3.151,2.363,5.514
	C82.708,324.529,79.557,327.68,74.831,327.68L74.831,327.68z M113.428,210.314c-21.268,0-37.022,6.302-47.262,19.692
	c-11.028,14.178-11.028,31.508-6.302,45.686c2.363-2.363,4.726-3.938,7.877-4.726c1.575-0.788,4.726-1.575,10.24,0
	c0.788-9.452,3.151-19.692,10.24-27.569c4.726-5.514,11.028-8.665,18.905-9.452c1.575-0.788,4.726-1.575,7.877-1.575
	c8.665,0,18.117,3.938,28.357,11.028c4.726-4.726,11.815-10.24,22.055-9.452c1.575-3.938,2.363-8.665,0.788-11.028
	C161.477,219.766,138.634,210.314,113.428,210.314z"/>
<path style="fill:#CECFD0;" d="M180.382,17.329c-46.474,0-84.283,25.994-84.283,58.289c0,19.692,14.178,37.022,35.446,47.262
	l-7.877,42.535l48.049-31.508c3.151,0,6.302,0.788,9.452,0.788c46.474,0,84.283-25.994,84.283-58.289
	C265.452,43.323,227.643,17.329,180.382,17.329z"/>
<path style="fill:#183651;" d="M118.942,171.717c-2.363-1.575-3.938-4.726-3.151-7.877l7.089-37.022
	c-21.268-12.603-33.871-31.508-33.871-51.988c0-36.234,40.96-66.166,92.16-66.166s92.16,29.932,92.16,66.166
	s-40.96,66.166-92.16,66.166c-2.363,0-4.726,0-7.089,0l-45.686,30.72C125.243,174.08,121.305,174.08,118.942,171.717z
	 M180.382,24.418c-42.535,0-76.406,22.843-76.406,51.2c0,15.754,11.815,30.72,30.72,40.96c3.151,1.575,4.726,4.726,3.938,8.665
	l-4.726,24.418l32.295-21.268c1.575-0.788,3.151-1.575,4.726-1.575c3.151,0,5.514,0,8.665,0c42.535,0,76.406-22.843,76.406-51.2
	S222.917,24.418,180.382,24.418z"/>
<ellipse style="fill:#FFFFFF;" cx="180.382" cy="75.618" rx="59.077" ry="30.72"/>
<path style="fill:#2EA0DA;" d="M323.742,17.329c46.474,0,84.283,25.994,84.283,58.289c0,19.692-14.178,37.022-35.446,47.262
	l7.877,42.535l-48.049-31.508c-3.151,0-6.302,0.788-9.452,0.788c-46.474,0-84.283-25.994-84.283-58.289
	C238.671,43.323,276.48,17.329,323.742,17.329z"/>
<path style="fill:#183651;" d="M376.517,171.717l-45.686-30.72c-2.363,0-4.726,0-7.089,0c-50.412,0-92.16-29.932-92.16-66.166
	s40.96-66.166,92.16-66.166s92.16,29.932,92.16,66.166c0,20.48-12.603,39.385-33.871,51.988l7.089,37.022
	c0.788,3.151-0.788,6.302-3.151,7.877C382.818,174.08,378.88,174.08,376.517,171.717z M333.194,126.031
	c1.575,0,3.151,0.788,3.938,1.575l32.295,21.268l-4.726-24.418c-0.788-3.151,0.788-7.089,3.938-8.665
	c19.692-9.452,30.72-25.206,30.72-40.96c0-28.357-34.658-51.2-76.406-51.2c-42.535,0-76.406,22.843-76.406,51.2
	s34.658,51.2,76.406,51.2C326.105,126.818,329.255,126.031,333.194,126.031C332.406,126.031,332.406,126.031,333.194,126.031z"/>
<ellipse style="fill:#FFFFFF;" cx="323.742" cy="75.618" rx="59.077" ry="30.72"/>
<g>
	<rect x="293.809" y="67.742" style="fill:#183651;" width="15.754" height="15.754"/>
	<rect x="337.132" y="67.742" style="fill:#183651;" width="15.754" height="15.754"/>
	<rect x="151.237" y="67.742" style="fill:#183651;" width="15.754" height="15.754"/>
	<rect x="194.56" y="67.742" style="fill:#183651;" width="15.754" height="15.754"/>
	<rect x="368.64" y="441.895" style="fill:#183651;" width="15.754" height="15.754"/>
	<rect x="402.511" y="441.895" style="fill:#183651;" width="15.754" height="15.754"/>
	<rect x="437.169" y="441.895" style="fill:#183651;" width="15.754" height="15.754"/>
	<rect x="51.2" y="441.895" style="fill:#183651;" width="15.754" height="15.754"/>
	<rect x="85.858" y="441.895" style="fill:#183651;" width="15.754" height="15.754"/>
	<rect x="120.517" y="441.895" style="fill:#183651;" width="15.754" height="15.754"/>
</g>
<g>
</g>
<g>
</g>
<g>
</g>
<g>
</g>
<g>
</g>
<g>
</g>
<g>
</g>
<g>
</g>
<g>
</g>
<g>
</g>
<g>
</g>
<g>
</g>
<g>
</g>
<g>
</g>
<g>
</g>
</svg>
