<?xml version="1.0" encoding="iso-8859-1"?>
<!-- Generator: Adobe Illustrator 19.0.0, SVG Export Plug-In . SVG Version: 6.00 Build 0)  -->
<svg version="1.1" id="Capa_1" xmlns="http://www.w3.org/2000/svg" xmlns:xlink="http://www.w3.org/1999/xlink" x="0px" y="0px"
	 viewBox="0 0 504.911 504.911" style="enable-background:new 0 0 504.911 504.911;" xml:space="preserve">
<circle style="fill:#F06151;" cx="252.062" cy="252.455" r="252.062"/>
<path style="fill:#4FBF9F;" d="M186.683,422.597c-17.329-11.028-31.508-17.329-31.508-17.329l-85.858-3.151
	c-14.178,7.877-25.994,14.966-36.234,22.055c-15.754,10.24-24.418,27.569-24.418,46.474v25.994h204.8v-26.782
	C212.677,450.954,203.225,432.837,186.683,422.597z"/>
<path style="fill:#183651;" d="M212.677,504.517H7.877c-4.726,0-7.877-3.151-7.877-7.877v-25.994
	c0-21.268,10.24-40.96,28.357-52.775c11.028-7.089,23.631-14.966,37.022-22.055c1.575-0.788,2.363-0.788,3.938-0.788l85.858,2.363
	c0.788,0,1.575,0,3.151,0.788c0.788,0,14.966,6.302,33.083,18.117c18.905,11.815,29.932,32.295,29.932,54.351v26.782
	C220.554,501.366,217.403,504.517,212.677,504.517z M15.754,488.763H204.8v-18.905c0-16.542-8.665-32.295-22.843-40.96
	c-13.391-8.665-25.206-14.178-29.145-15.754l-81.92-3.151c-12.603,7.089-23.631,13.391-33.871,20.48
	c-13.391,8.665-21.268,23.631-21.268,40.172C15.754,470.646,15.754,488.763,15.754,488.763z"/>
<path style="fill:#FFFFFF;" d="M136.271,372.972c0,0-1.575,18.905,18.117,32.295c0,0-46.474,36.234-85.858-2.363
	c0,0,11.815-8.665,11.815-33.083L136.271,372.972z"/>
<path style="fill:#183651;" d="M110.277,428.111c-17.329,0-33.083-7.089-46.474-20.48c-1.575-1.575-2.363-3.938-2.363-6.302
	c0-2.363,1.575-4.726,3.151-5.514c0,0,8.665-7.089,8.665-26.782c0-2.363,0.788-3.938,2.363-5.514
	c1.575-1.575,3.938-2.363,5.514-2.363l55.926,3.151c2.363,0,3.938,0.788,5.514,2.363c1.575,1.575,2.363,3.938,1.575,5.514
	c0,0.788-0.788,14.178,14.966,25.206c2.363,1.575,3.151,3.938,3.151,6.302c0,2.363-0.788,4.726-3.151,6.302
	C158.326,411.569,137.058,428.111,110.277,428.111z M80.345,401.329c9.452,7.089,18.905,11.028,29.932,11.028
	c12.603,0,23.631-4.726,30.72-8.665c-7.877-8.665-11.028-17.329-11.815-23.631l-40.96-2.363
	C86.646,388.726,83.495,396.603,80.345,401.329z"/>
<path style="fill:#FFFFFF;" d="M150.449,349.342c0,0-7.089,36.234-39.385,40.96c0,0-32.295-0.788-43.323-48.837l-6.302-11.815
	v-28.357l11.815-17.329l29.145-3.938l43.323,15.754l14.178,29.145L150.449,349.342z"/>
<path style="fill:#183651;" d="M111.065,398.966L111.065,398.966c-1.575,0-38.597-1.575-51.2-54.351l-5.514-11.028
	c-0.788-0.788-0.788-2.363-0.788-3.938v-28.357c0-1.575,0.788-3.151,1.575-4.726l11.815-16.542c1.575-1.575,3.151-3.151,5.514-3.151
	l29.145-3.938c1.575,0,2.363,0,3.151,0l43.323,14.966c1.575,0.788,3.938,2.363,4.726,3.938l14.178,29.145
	c0.788,2.363,0.788,3.938,0,6.302l-9.452,23.631c-1.575,5.514-11.028,40.96-45.686,46.474
	C111.852,398.966,111.852,398.966,111.065,398.966z M69.317,328.074l5.514,10.24c0,0.788,0.788,1.575,0.788,2.363
	c8.665,37.809,31.508,42.535,35.446,42.535c25.994-4.726,32.295-34.658,32.295-34.658c0-0.788,0-0.788,0-1.575l7.877-21.268
	l-11.815-22.843l-38.597-13.391l-23.631,3.151l-8.665,12.603v22.843H69.317z"/>
<path style="fill:#E1E6E7;" d="M150.449,349.342c0,0,15.754-38.597-26.782-44.111c0,0-16.542,2.363-31.508-16.542
	c0,0-38.597,6.302-24.418,52.775c0,0-37.809-55.138,19.692-80.345c57.502-25.206,79.557,26.781,79.557,26.781
	S179.594,325.711,150.449,349.342z"/>
<path style="fill:#183651;" d="M150.449,357.218c-1.575,0-3.151-0.788-4.726-1.575c-3.151-2.363-3.938-6.302-2.363-9.452
	c0,0,5.514-13.391,0-22.843c-3.151-5.514-9.452-8.665-18.905-10.24c-4.726,0-19.692,0-33.871-15.754
	c-3.938,1.575-10.24,4.726-13.391,11.028c-4.726,7.089-4.726,18.117-0.788,30.72c0.788,3.938-0.788,7.877-3.938,9.452
	c-3.151,1.575-7.877,0.788-10.24-2.363c-0.788-0.788-19.692-28.357-11.815-55.926c4.726-15.754,16.542-27.569,34.658-36.234
	c11.815-5.514,22.843-7.877,33.083-7.877c40.172,0,55.926,37.022,56.714,38.597c0.788,2.363,14.178,44.111-18.905,70.892
	C154.388,357.218,152.812,357.218,150.449,357.218z M123.668,297.354c0.788,0,0.788,0,1.575,0
	c14.966,2.363,25.994,7.877,31.508,18.117c1.575,2.363,2.363,4.726,3.151,7.089c4.726-16.542,0-32.295,0-32.295
	c0-0.788-11.815-28.357-41.748-28.357c-8.665,0-17.329,2.363-26.782,6.302c-14.178,6.302-22.843,14.966-25.994,25.994
	c0,1.575-0.788,3.151-0.788,3.938c10.24-14.178,26.782-17.329,27.569-17.329c3.151-0.788,5.514,0.788,7.089,3.151
	C109.489,296.566,120.517,297.354,123.668,297.354C122.88,297.354,123.668,297.354,123.668,297.354z"/>
<path style="fill:#FBBD5E;" d="M470.252,422.597c-17.329-11.028-31.508-17.329-31.508-17.329l-85.858-2.363
	c-14.178,7.877-25.994,14.966-36.234,22.055c-15.754,10.24-24.418,27.569-24.418,46.474v25.994h204.8v-26.782
	C496.246,450.954,486.006,432.837,470.252,422.597z"/>
<path style="fill:#183651;" d="M496.246,504.517h-204.8c-4.726,0-7.877-3.151-7.877-7.877v-25.994
	c0-21.268,10.24-40.96,28.357-52.775c11.028-7.089,23.631-14.966,37.022-22.055c1.575-0.788,2.363-0.788,3.938-0.788l85.858,2.363
	c0.788,0,1.575,0,3.151,0.788c0.788,0,14.966,6.302,33.083,18.117c18.905,11.815,29.932,32.295,29.932,54.351v26.782
	C504.123,501.366,500.972,504.517,496.246,504.517z M299.323,488.763h189.046v-18.905c0-16.542-8.665-32.295-22.843-40.96
	c-13.391-8.665-25.206-14.178-29.145-15.754l-81.92-2.363c-12.603,7.089-23.631,13.391-33.871,20.48
	c-13.391,8.665-21.268,23.631-21.268,40.172V488.763z"/>
<path style="fill:#FFFFFF;" d="M419.84,372.972c0,0-1.575,18.905,18.117,32.295c0,0-46.474,36.234-85.858-2.363
	c0,0,11.815-8.665,11.815-33.083L419.84,372.972z"/>
<path style="fill:#183651;" d="M393.846,428.111c-17.329,0-33.083-7.089-46.474-20.48c-1.575-1.575-2.363-3.938-2.363-6.302
	c0-2.363,1.575-4.726,3.151-5.514c0,0,8.665-7.089,8.665-26.782c0-2.363,0.788-3.938,2.363-5.514
	c1.575-1.575,3.938-2.363,5.514-2.363l55.926,3.151c2.363,0,3.938,0.788,5.514,2.363c1.575,1.575,2.363,3.938,1.575,5.514
	c0,0.788-0.788,14.178,14.966,25.206c2.363,1.575,3.151,3.938,3.151,6.302c0,2.363-0.788,4.726-3.151,6.302
	C441.895,411.569,420.628,428.111,393.846,428.111z M363.126,401.329c9.452,7.089,18.905,11.028,29.932,11.028
	c12.603,0,23.631-4.726,30.72-8.665c-7.877-8.665-11.028-17.329-11.815-23.631l-40.96-2.363
	C370.215,388.726,366.277,396.603,363.126,401.329z"/>
<path style="fill:#FFFFFF;" d="M434.018,349.342c0,0-7.089,36.234-39.385,40.96c0,0-32.295-0.788-43.323-48.837l-6.302-11.815
	v-28.357l11.815-17.329l29.145-3.938l43.323,15.754l14.178,29.145L434.018,349.342z"/>
<path style="fill:#183651;" d="M394.634,398.966L394.634,398.966c-1.575,0-38.597-1.575-51.2-54.351l-5.514-11.028
	c-0.788-0.788-0.788-2.363-0.788-3.938v-28.357c0-1.575,0.788-3.151,1.575-4.726l11.815-16.542c1.575-1.575,3.151-3.151,5.514-3.151
	l29.145-3.938c1.575,0,2.363,0,3.151,0l43.323,14.966c1.575,0.788,3.938,2.363,4.726,3.938l14.178,29.145
	c0.788,2.363,0.788,3.938,0,6.302l-9.452,23.631c-1.575,5.514-11.028,40.96-45.686,46.474
	C395.422,398.966,395.422,398.966,394.634,398.966z M352.886,328.074l5.514,10.24c0,0.788,0.788,1.575,0.788,2.363
	c8.665,37.809,31.508,42.535,35.446,42.535c25.994-4.726,32.295-34.658,32.295-34.658c0-0.788,0-0.788,0-1.575l7.877-21.268
	l-11.815-22.843l-38.597-13.391l-23.631,3.151l-8.665,12.603v22.843H352.886z"/>
<path style="fill:#E1E6E7;" d="M434.018,349.342c0,0,15.754-38.597-26.782-44.111c0,0-16.542,2.363-31.508-16.542
	c0,0-38.597,6.302-24.418,52.775c0,0-37.809-55.138,19.692-80.345c57.502-25.206,79.557,26.781,79.557,26.781
	S463.163,325.711,434.018,349.342z"/>
<path style="fill:#183651;" d="M434.018,357.218c-1.575,0-3.151-0.788-4.726-1.575c-3.151-2.363-3.938-6.302-2.363-9.452
	c0,0,5.514-13.391,0-22.843c-3.151-5.514-9.452-8.665-18.905-10.24c-4.726,0-19.692,0-33.871-15.754
	c-3.938,1.575-10.24,4.726-13.391,11.028c-4.726,7.089-4.726,18.117-0.788,30.72c0.788,3.938-0.788,7.877-3.938,9.452
	c-3.151,1.575-7.877,0.788-10.24-2.363c-0.788-0.788-19.692-28.357-11.815-55.926c4.726-15.754,16.542-27.569,34.658-36.234
	c11.815-5.514,22.843-7.877,33.083-7.877c40.172,0,55.926,37.022,56.714,38.597c0.788,2.363,14.178,44.111-18.905,70.892
	C437.957,357.218,435.594,357.218,434.018,357.218z M407.237,297.354c0.788,0,0.788,0,1.575,0
	c14.966,2.363,25.994,7.877,31.508,18.117c1.575,2.363,2.363,4.726,3.151,7.089c4.726-16.542,0-32.295,0-32.295
	c0-0.788-11.815-28.357-41.748-28.357c-8.665,0-17.329,2.363-26.782,6.302c-14.178,6.302-22.843,14.966-25.994,25.994
	c0,1.575-0.788,3.151-0.788,3.938c10.24-14.178,26.782-17.329,27.569-17.329c3.151-0.788,5.514,0.788,7.089,3.151
	C393.059,296.566,404.086,297.354,407.237,297.354C406.449,297.354,406.449,297.354,407.237,297.354z"/>
<path style="fill:#FFFFFF;" d="M421.415,8.271c40.96,0,74.831,33.871,74.831,74.831l0,0c0,40.96-33.871,74.831-74.831,74.831
	s-74.831-33.871-74.831-74.831l0,0C346.585,42.142,379.668,8.271,421.415,8.271z"/>
<path style="fill:#183651;" d="M421.415,165.809c-45.686,0-82.708-37.022-82.708-82.708s37.022-82.708,82.708-82.708
	s82.708,37.022,82.708,82.708S467.102,165.809,421.415,165.809z M421.415,16.148c-37.022,0-66.954,29.932-66.954,66.954
	s29.932,66.954,66.954,66.954s66.954-29.932,66.954-66.954S458.437,16.148,421.415,16.148z"/>
<circle style="fill:#FFFFFF;" cx="368.64" cy="197.317" r="23.631"/>
<path style="fill:#183651;" d="M368.64,228.825c-17.329,0-31.508-14.178-31.508-31.508s14.178-31.508,31.508-31.508
	c17.329,0,31.508,14.178,31.508,31.508S385.969,228.825,368.64,228.825z M368.64,180.775c-8.665,0-15.754,7.089-15.754,15.754
	c0,8.665,7.089,15.754,15.754,15.754c8.665,0,15.754-7.089,15.754-15.754C384.394,187.865,377.305,180.775,368.64,180.775z"/>
<g>
	<circle style="fill:#E1E6E7;" cx="380.455" cy="83.102" r="11.815"/>
	<circle style="fill:#E1E6E7;" cx="421.415" cy="83.102" r="11.815"/>
	<circle style="fill:#E1E6E7;" cx="462.375" cy="83.102" r="11.815"/>
</g>
<path style="fill:#FFFFFF;" d="M82.708,8.271c-40.96,0-74.831,33.871-74.831,74.831l0,0c0,40.96,33.871,74.831,74.831,74.831
	s74.831-33.871,74.831-74.831l0,0C157.538,42.142,124.455,8.271,82.708,8.271z"/>
<path style="fill:#183651;" d="M82.708,165.809C37.022,165.809,0,128.788,0,83.102S37.022,0.394,82.708,0.394
	s82.708,37.022,82.708,82.708S128.394,165.809,82.708,165.809z M82.708,16.148c-37.022,0-66.954,29.932-66.954,66.954
	s29.932,66.954,66.954,66.954s66.954-29.932,66.954-66.954S119.729,16.148,82.708,16.148z"/>
<circle style="fill:#FFFFFF;" cx="135.483" cy="197.317" r="23.631"/>
<path style="fill:#183651;" d="M135.483,228.825c-17.329,0-31.508-14.178-31.508-31.508s14.178-31.508,31.508-31.508
	s31.508,14.178,31.508,31.508S152.812,228.825,135.483,228.825z M135.483,180.775c-8.665,0-15.754,7.089-15.754,15.754
	c0,8.665,7.089,15.754,15.754,15.754c8.665,0,15.754-7.089,15.754-15.754C151.237,187.865,144.148,180.775,135.483,180.775z"/>
<g>
	<circle style="fill:#E1E6E7;" cx="123.668" cy="83.102" r="11.815"/>
	<circle style="fill:#E1E6E7;" cx="82.708" cy="83.102" r="11.815"/>
	<circle style="fill:#E1E6E7;" cx="41.748" cy="83.102" r="11.815"/>
</g>
<g>
</g>
<g>
</g>
<g>
</g>
<g>
</g>
<g>
</g>
<g>
</g>
<g>
</g>
<g>
</g>
<g>
</g>
<g>
</g>
<g>
</g>
<g>
</g>
<g>
</g>
<g>
</g>
<g>
</g>
</svg>
