<?xml version="1.0" encoding="iso-8859-1"?>
<!-- Generator: Adobe Illustrator 19.0.0, SVG Export Plug-In . SVG Version: 6.00 Build 0)  -->
<svg version="1.1" id="Capa_1" xmlns="http://www.w3.org/2000/svg" xmlns:xlink="http://www.w3.org/1999/xlink" x="0px" y="0px"
	 viewBox="0 0 504.911 504.911" style="enable-background:new 0 0 504.911 504.911;" xml:space="preserve">
<circle style="fill:#E0E4E8;" cx="252.455" cy="159.902" r="159.902"/>
<path style="fill:#FFFFFF;" d="M465.132,170.142c-7.877,1.575-13.391,9.452-12.603,17.329l6.302,99.249l-40.96,69.317
	c-15.754,3.938-23.631-7.089-21.268-17.329l12.603-43.323c3.151-6.302,3.151-14.178-1.575-18.905
	c-7.089-7.877-19.692-7.089-25.206,1.575l-40.96,80.345l11.815,104.763l84.283-2.363l-2.363-26.782l60.652-115.003l-11.815-133.908
	C483.249,175.655,474.585,168.566,465.132,170.142z"/>
<path style="fill:#183651;" d="M354.068,471.04c-3.938,0-7.089-3.151-7.877-7.089l-11.815-104.763c0-1.575,0-3.151,0.788-4.726
	l40.96-80.345c0,0,0-0.788,0.788-0.788c8.665-13.391,27.569-14.966,37.809-3.151c6.302,7.089,7.877,18.117,3.151,27.569
	l-12.603,42.535c-0.788,1.575,0,3.938,0.788,4.726c1.575,2.363,3.938,3.151,7.877,2.363l37.809-64.591l-6.302-96.886
	c-0.788-11.815,7.877-23.631,18.905-25.994c14.178-2.363,26.782,7.089,27.569,21.268l11.815,133.908c0,1.575,0,3.151-0.788,4.726
	l-59.077,113.428l1.575,24.418c0,2.363-0.788,3.938-2.363,5.514c-1.575,1.575-3.151,2.363-5.514,2.363L354.068,471.04
	C354.855,471.04,354.068,471.04,354.068,471.04z M350.129,360.763l11.028,94.523l68.529-2.363l-1.575-18.905
	c0-1.575,0-3.151,0.788-3.938l59.077-112.64L476.16,185.108c-0.788-4.726-4.726-7.877-9.452-7.089
	c-3.151,0.788-6.302,5.514-6.302,9.452l6.302,99.249c0,1.575,0,3.151-0.788,4.726l-40.96,69.317
	c-0.788,1.575-3.151,3.151-4.726,3.938c-11.028,3.151-21.268,0-26.782-7.877c-3.938-5.514-5.514-12.603-3.151-18.905l12.603-43.323
	c0-0.788,0-0.788,0.788-1.575c1.575-3.151,1.575-7.877-0.788-10.24c-3.151-3.938-10.24-3.151-12.603,0.788L350.129,360.763z"/>
<polygon style="fill:#FFFFFF;" points="446.228,460.012 341.465,463.951 341.465,496.246 446.228,496.246 "/>
<path style="fill:#183651;" d="M341.465,504.123c-2.363,0-3.938-0.788-5.514-2.363c-1.575-1.575-2.363-3.151-2.363-5.514v-32.295
	c0-3.938,3.151-7.877,7.877-7.877l104.763-3.151c2.363,0,3.938,0.788,5.514,2.363c1.575,1.575,2.363,3.151,2.363,5.514v36.234
	c0,4.726-3.151,7.877-7.877,7.877L341.465,504.123L341.465,504.123z M349.341,471.04v17.329h89.009v-19.692L349.341,471.04z"/>
<path style="fill:#FFFFFF;" d="M39.778,170.142c7.877,1.575,13.391,9.452,12.603,17.329L46.08,286.72l40.96,69.317
	c15.754,3.938,23.631-7.089,21.268-17.329l-12.603-43.323c-3.151-6.302-3.151-14.178,1.575-18.905
	c7.089-7.877,19.692-7.089,25.206,1.575l40.96,80.345l-11.815,104.763L67.348,460.8l2.363-26.782L9.058,319.015l11.815-133.908
	C21.661,175.655,30.326,168.566,39.778,170.142z"/>
<path style="fill:#183651;" d="M150.843,471.04C150.843,471.04,150.055,471.04,150.843,471.04l-84.283-2.363
	c-2.363,0-3.938-0.788-5.514-2.363c-1.575-1.575-2.363-3.938-1.575-6.302l1.575-24.418L1.969,322.166
	c-0.788-1.575-0.788-3.151-0.788-4.726l11.815-133.908c1.575-13.391,14.178-23.631,27.569-21.268
	c11.815,2.363,19.692,13.391,18.905,25.994l-5.514,96.886l37.809,64.591c3.151,0,6.302-0.788,7.877-2.363
	c0.788-1.575,1.575-3.151,0.788-4.726l-12.603-42.535c-4.726-10.24-3.938-21.268,3.151-28.357
	c10.24-11.815,29.145-10.24,37.809,3.151c0,0,0,0.788,0.788,0.788l40.172,79.557c0.788,1.575,0.788,3.151,0.788,4.726
	L158.72,464.738C157.932,468.677,154.781,471.04,150.843,471.04z M75.225,452.923l68.529,2.363l11.028-94.523l-39.385-77.194
	c-3.151-3.938-9.452-4.726-12.603-0.788c-2.363,2.363-2.363,6.302-0.788,10.24c0,0.788,0.788,0.788,0.788,1.575l12.603,43.323
	c1.575,6.302,0.788,13.391-3.151,18.905c-5.514,7.877-15.754,11.028-26.782,7.877c-2.363-0.788-3.938-1.575-4.726-3.938
	l-40.96-69.317c-0.788-1.575-0.788-3.151-0.788-4.726l6.302-99.249c0-3.938-3.151-8.665-6.302-9.452
	c-5.514-0.788-9.452,2.363-10.24,7.089L16.935,317.44l59.077,112.64c0.788,1.575,0.788,3.151,0.788,3.938L75.225,452.923z"/>
<path style="fill:#FBBD5E;" d="M458.043,390.695l37.809-72.468L484.037,184.32c-0.788-9.452-9.452-15.754-18.905-14.178
	c-7.877,1.575-13.391,9.452-12.603,17.329l6.302,99.249l-40.96,69.317c-15.754,3.938-23.631-7.089-21.268-17.329l12.603-43.323
	c3.151-6.302,3.151-14.178-1.575-18.905c-7.089-7.877-19.692-7.089-25.206,1.575l-40.96,80.345l3.938,32.295"/>
<path style="fill:#183651;" d="M458.043,398.572c-1.575,0-2.363,0-3.938-0.788c-3.938-2.363-5.514-7.089-3.151-10.24l37.022-70.105
	L476.16,185.108c-0.788-4.726-4.726-7.877-9.452-7.089c-3.151,0.788-6.302,5.514-6.302,9.452l6.302,99.249
	c0,1.575,0,3.151-0.788,4.726l-40.96,69.317c-0.788,1.575-3.151,3.151-4.726,3.938c-10.24,2.363-19.692,0.788-25.206-5.514
	c-5.514-5.514-7.089-13.391-4.726-21.268l12.603-43.323c0-0.788,0-0.788,0.788-1.575c1.575-3.151,1.575-7.877-0.788-10.24
	c-3.151-3.938-9.452-3.938-12.603,0.788l-39.385,77.194l3.151,29.932c0.788,3.938-2.363,7.877-7.089,8.665
	c-3.938,0.788-7.877-2.363-8.665-7.089l-3.938-32.295c0-1.575,0-3.151,0.788-4.726l40.96-80.345c0,0,0-0.788,0.788-0.788
	c8.665-13.391,27.569-14.966,37.809-3.151c6.302,7.089,7.877,18.117,3.151,27.569l-12.603,42.535c-0.788,1.575,0,3.938,1.575,5.514
	c1.575,1.575,3.938,2.363,7.089,2.363l37.809-64.591l-6.302-96.886c-0.788-11.815,7.877-23.631,18.905-25.994
	c14.178-2.363,26.782,7.089,27.569,21.268l11.815,133.908c0,1.575,0,3.151-0.788,4.726l-37.809,72.468
	C463.557,396.997,461.194,398.572,458.043,398.572z"/>
<path style="fill:#FBBD5E;" d="M158.72,390.695l3.938-32.295l-40.96-80.345c-5.514-8.665-18.117-10.24-25.206-1.575
	c-4.726,5.514-4.726,12.603-1.575,18.905l12.603,43.323c3.151,9.452-5.514,21.268-21.268,17.329l-40.96-69.317l6.302-99.249
	c0.788-7.877-5.514-15.754-12.603-17.329c-9.452-1.575-18.117,4.726-18.905,14.178L9.058,319.015l37.809,72.468"/>
<path style="fill:#183651;" d="M46.868,398.572c-3.151,0-5.514-1.575-7.089-3.938L1.969,322.166
	c-0.788-1.575-0.788-3.151-0.788-4.726l11.815-133.908c1.575-13.391,14.178-23.631,27.569-21.268
	c11.815,2.363,19.692,13.391,18.905,25.994l-5.514,96.886l37.809,64.591c3.151,0,5.514-0.788,7.089-2.363
	c1.575-1.575,1.575-3.938,1.575-5.514l-12.603-42.535c-4.726-9.452-3.938-20.48,3.151-27.569
	c10.24-11.815,29.145-10.24,37.809,3.151c0,0,0,0.788,0.788,0.788l40.172,79.557c0.788,1.575,0.788,3.151,0.788,4.726l-3.938,32.295
	c-0.788,3.938-4.726,7.089-8.665,7.089c-3.938-0.788-7.089-4.726-7.089-8.665l3.151-29.932l-39.385-77.194
	c-3.151-3.938-9.452-4.726-12.603-0.788c-2.363,2.363-2.363,6.302-0.788,10.24c0,0.788,0.788,0.788,0.788,1.575l12.603,43.323
	c2.363,7.089,0,15.754-4.726,21.268c-6.302,6.302-14.966,8.665-25.206,5.514c-2.363-0.788-3.938-1.575-4.726-3.938l-40.96-69.317
	c-0.788-1.575-0.788-3.151-0.788-4.726l6.302-99.249c0-3.938-3.151-8.665-6.302-9.452c-4.726-0.788-8.665,2.363-9.452,7.089
	L16.935,317.44l37.022,70.105c2.363,3.938,0.788,8.665-3.151,10.24C49.231,398.572,47.655,398.572,46.868,398.572z"/>
<polygon style="fill:#FFFFFF;" points="58.683,460.012 163.446,463.951 163.446,496.246 58.683,496.246 "/>
<path style="fill:#183651;" d="M163.446,504.123L163.446,504.123H58.683c-4.726,0-7.877-3.151-7.877-7.877v-36.234
	c0-2.363,0.788-3.938,2.363-5.514c1.575-1.575,3.938-2.363,5.514-2.363l104.763,3.151c3.938,0,7.877,3.938,7.877,7.877v32.295
	c0,2.363-0.788,3.938-2.363,5.514C167.385,503.335,165.809,504.123,163.446,504.123z M66.56,488.369h89.009V471.04l-89.009-2.363
	V488.369z"/>
<path style="fill:#FFFFFF;" d="M252.455,27.569L252.455,27.569c-73.255,0-132.332,59.077-132.332,132.332l0,0
	c0,73.255,59.077,132.332,132.332,132.332l0,0c73.255,0,132.332-59.077,132.332-132.332l0,0
	C384.788,86.646,325.711,27.569,252.455,27.569z"/>
<path style="fill:#183651;" d="M252.455,299.323c-77.194,0-140.209-63.015-140.209-140.209S175.261,19.692,252.455,19.692
	s140.209,63.015,140.209,140.209S329.649,299.323,252.455,299.323z M252.455,35.446C183.926,35.446,128,91.372,128,159.902
	s55.926,124.455,124.455,124.455s124.455-55.926,124.455-124.455S320.985,35.446,252.455,35.446z"/>
<path style="fill:#2EA0DA;" d="M252.455,262.302c-56.714,0-103.188-46.474-103.188-103.188s46.474-102.4,103.188-102.4
	s103.188,46.474,103.188,103.188S309.169,262.302,252.455,262.302z"/>
<path style="fill:#183651;" d="M252.455,299.323c-43.323,0-77.194-61.44-77.194-140.209s33.871-139.422,77.194-139.422
	s77.194,61.44,77.194,140.209S295.778,299.323,252.455,299.323z M252.455,35.446c-33.083,0-61.44,56.714-61.44,124.455
	c0,66.954,28.357,124.455,61.44,124.455s61.44-56.714,61.44-124.455S285.538,35.446,252.455,35.446z"/>
<path style="fill:#183651;" d="M252.455,299.323c-4.726,0-7.877-3.151-7.877-7.877V27.569c0-4.726,3.151-7.877,7.877-7.877
	s7.877,3.151,7.877,7.877v263.877C260.332,296.172,257.181,299.323,252.455,299.323z"/>
<path style="fill:#183651;" d="M365.883,234.732H139.028c-4.726,0-7.877-3.151-7.877-7.877c0-4.726,3.151-7.877,7.877-7.877h226.855
	c4.726,0,7.877,3.151,7.877,7.877C373.76,231.582,370.609,234.732,365.883,234.732z"/>
<path style="fill:#183651;" d="M384.788,167.778H120.123c-4.726,0-7.877-3.151-7.877-7.877c0-4.726,3.151-7.877,7.877-7.877H384
	c4.726,0,7.877,3.151,7.877,7.877C391.877,164.628,388.726,167.778,384.788,167.778z"/>
<g>
	<path style="fill:#183651;" d="M365.883,100.037H139.028c-4.726,0-7.877-3.151-7.877-7.877c0-4.726,3.151-7.877,7.877-7.877
		h226.855c4.726,0,7.877,3.151,7.877,7.877C373.76,96.886,370.609,100.037,365.883,100.037z"/>
	<rect x="198.892" y="427.717" style="fill:#183651;" width="15.754" height="15.754"/>
	<rect x="244.578" y="427.717" style="fill:#183651;" width="15.754" height="15.754"/>
	<rect x="290.265" y="427.717" style="fill:#183651;" width="15.754" height="15.754"/>
	<rect x="198.892" y="372.578" style="fill:#183651;" width="15.754" height="15.754"/>
	<rect x="244.578" y="372.578" style="fill:#183651;" width="15.754" height="15.754"/>
	<rect x="290.265" y="372.578" style="fill:#183651;" width="15.754" height="15.754"/>
</g>
<g>
</g>
<g>
</g>
<g>
</g>
<g>
</g>
<g>
</g>
<g>
</g>
<g>
</g>
<g>
</g>
<g>
</g>
<g>
</g>
<g>
</g>
<g>
</g>
<g>
</g>
<g>
</g>
<g>
</g>
</svg>
