<?xml version="1.0" encoding="iso-8859-1"?>
<!-- Generator: Adobe Illustrator 19.0.0, SVG Export Plug-In . SVG Version: 6.00 Build 0)  -->
<svg version="1.1" id="Capa_1" xmlns="http://www.w3.org/2000/svg" xmlns:xlink="http://www.w3.org/1999/xlink" x="0px" y="0px"
	 viewBox="0 0 504.123 504.123" style="enable-background:new 0 0 504.123 504.123;" xml:space="preserve">
<rect x="7.877" y="68.529" style="fill:#FFFFFF;" width="358.4" height="344.222"/>
<path style="fill:#183651;" d="M366.277,420.628H7.877c-4.726,0-7.877-3.151-7.877-7.877V68.529c0-4.726,3.151-7.877,7.877-7.877
	h358.4c4.726,0,7.877,3.151,7.877,7.877v344.222C374.154,416.689,371.003,420.628,366.277,420.628z M15.754,404.874H358.4V76.406
	H15.754V404.874z"/>
<rect x="39.385" y="100.037" style="fill:#2EA0DA;" width="295.385" height="281.206"/>
<path style="fill:#FFFFFF;" d="M366.277,68.529V39.385c0-17.329-14.178-31.508-31.508-31.508H39.385
	c-17.329,0-31.508,14.178-31.508,31.508v29.145H366.277z"/>
<path style="fill:#183651;" d="M366.277,76.406H7.877C3.151,76.406,0,73.255,0,68.529V39.385C0,17.329,17.329,0,39.385,0h295.385
	c22.055,0,39.385,17.329,39.385,39.385v29.145C374.154,73.255,371.003,76.406,366.277,76.406z M15.754,60.652H358.4V39.385
	c0-13.391-10.24-23.631-23.631-23.631H39.385c-13.391,0-23.631,10.24-23.631,23.631V60.652z"/>
<path style="fill:#FFFFFF;" d="M7.877,412.751v51.988c0,17.329,14.178,31.508,31.508,31.508h295.385
	c17.329,0,31.508-14.178,31.508-31.508v-51.988H7.877z"/>
<g>
	<path style="fill:#183651;" d="M334.769,504.123H39.385C17.329,504.123,0,486.794,0,464.738v-51.988
		c0-4.726,3.151-7.877,7.877-7.877h358.4c4.726,0,7.877,3.151,7.877,7.877v51.988C374.154,486.794,356.825,504.123,334.769,504.123z
		 M15.754,420.628v44.111c0,13.391,10.24,23.631,23.631,23.631h295.385c13.391,0,23.631-10.24,23.631-23.631v-44.111H15.754z"/>
	<path style="fill:#183651;" d="M218.978,46.474h-48.049c-4.726,0-7.877-3.151-7.877-7.877s3.151-7.877,7.877-7.877h48.049
		c4.726,0,7.877,3.151,7.877,7.877S223.705,46.474,218.978,46.474z"/>
	<path style="fill:#183651;" d="M137.058,46.474h-10.24c-4.726,0-7.877-3.151-7.877-7.877s3.151-7.877,7.877-7.877h10.24
		c4.726,0,7.877,3.151,7.877,7.877S140.997,46.474,137.058,46.474z"/>
	<circle style="fill:#183651;" cx="187.471" cy="454.498" r="19.692"/>
</g>
<rect x="123.668" y="119.729" style="fill:#E0E4E8;" width="372.578" height="241.822"/>
<path style="fill:#183651;" d="M496.246,369.428H123.668c-4.726,0-7.877-3.151-7.877-7.877V119.729c0-4.726,3.151-7.877,7.877-7.877
	h372.578c4.726,0,7.877,3.151,7.877,7.877v241.822C504.123,365.489,500.972,369.428,496.246,369.428z M131.545,353.674h356.825
	V127.606H131.545V353.674z"/>
<rect x="155.175" y="151.237" style="fill:#FFFFFF;" width="309.563" height="178.806"/>
<g>
	<path style="fill:#183651;" d="M396.209,305.625c-4.726,0-7.877-3.151-7.877-7.877c0-29.145-23.631-53.563-53.563-53.563H276.48
		c-37.809,0-69.317-33.083-69.317-72.468c0-4.726,3.151-7.877,7.877-7.877s7.877,3.151,7.877,7.877
		c0,29.932,25.206,56.714,53.563,56.714h58.289c37.809,0,69.317,30.72,69.317,69.317
		C404.086,302.474,400.935,305.625,396.209,305.625z"/>
	<path style="fill:#183651;" d="M192.197,203.225c-3.151-2.363-4.726-7.089-1.575-11.028l17.329-24.418
		c2.363-3.938,7.089-4.726,11.028-1.575l24.418,17.329c3.151,2.363,4.726,7.089,1.575,11.028c-2.363,3.151-7.089,4.726-11.028,1.575
		l-17.329-12.603l-13.391,18.117C200.862,204.8,196.135,205.588,192.197,203.225z"/>
	<path style="fill:#183651;" d="M396.997,206.375c-3.151-3.151-3.151-7.877,0-11.028l30.72-30.72c3.151-3.151,7.877-3.151,11.028,0
		c3.151,3.151,3.151,7.877,0,11.028l-30.72,30.72C404.874,209.526,400.148,209.526,396.997,206.375z"/>
	<path style="fill:#183651;" d="M427.717,206.375l-30.72-30.72c-3.151-3.151-3.151-7.877,0-11.028c3.151-3.151,7.877-3.151,11.028,0
		l30.72,30.72c3.151,3.151,3.151,7.877,0,11.028C435.594,209.526,430.868,209.526,427.717,206.375z"/>
</g>
<circle style="fill:#FFFFFF;" cx="207.951" cy="289.871" r="21.268"/>
<path style="fill:#183651;" d="M207.951,319.015c-15.754,0-29.145-13.391-29.145-29.145s13.391-29.145,29.145-29.145
	s29.145,13.391,29.145,29.145C237.095,306.412,224.492,319.015,207.951,319.015z M207.951,276.48
	c-7.089,0-13.391,6.302-13.391,13.391s6.302,13.391,13.391,13.391c7.089,0,13.391-6.302,13.391-13.391
	S215.828,276.48,207.951,276.48z"/>
<g>
</g>
<g>
</g>
<g>
</g>
<g>
</g>
<g>
</g>
<g>
</g>
<g>
</g>
<g>
</g>
<g>
</g>
<g>
</g>
<g>
</g>
<g>
</g>
<g>
</g>
<g>
</g>
<g>
</g>
</svg>
