<?xml version="1.0" encoding="iso-8859-1"?>
<!-- Generator: Adobe Illustrator 19.0.0, SVG Export Plug-In . SVG Version: 6.00 Build 0)  -->
<svg version="1.1" id="Capa_1" xmlns="http://www.w3.org/2000/svg" xmlns:xlink="http://www.w3.org/1999/xlink" x="0px" y="0px"
	 viewBox="0 0 504.123 504.123" style="enable-background:new 0 0 504.123 504.123;" xml:space="preserve">
<circle style="fill:#F06151;" cx="252.062" cy="300.111" r="204.012"/>
<path style="fill:#2CA0DA;" d="M472.615,382.818H31.508c-13.391,0-23.631-10.24-23.631-23.631V86.646h488.369v272.542
	C496.246,372.578,486.006,382.818,472.615,382.818z"/>
<path style="fill:#183651;" d="M472.615,390.695H31.508C14.178,390.695,0,376.517,0,359.188V86.646c0-4.726,3.151-7.877,7.877-7.877
	h488.369c4.726,0,7.877,3.151,7.877,7.877v272.542C504.123,376.517,489.945,390.695,472.615,390.695z M15.754,94.523v264.665
	c0,8.665,7.089,15.754,15.754,15.754h441.108c8.665,0,15.754-7.089,15.754-15.754V94.523H15.754z"/>
<g>
	<rect x="39.385" y="118.154" style="fill:#FFFFFF;" width="425.354" height="233.157"/>
	<path style="fill:#FFFFFF;" d="M496.246,86.646H7.877V31.508c0-13.391,10.24-23.631,23.631-23.631h441.108
		c13.391,0,23.631,10.24,23.631,23.631V86.646z"/>
</g>
<path style="fill:#183651;" d="M496.246,94.523H7.877C3.151,94.523,0,91.372,0,86.646V31.508C0,14.178,14.178,0,31.508,0h441.108
	c17.329,0,31.508,14.178,31.508,31.508v55.138C504.123,91.372,500.972,94.523,496.246,94.523z M15.754,78.769h472.615V31.508
	c0-8.665-7.089-15.754-15.754-15.754H31.508c-8.665,0-15.754,7.089-15.754,15.754V78.769z"/>
<path style="fill:#CFD0D1;" d="M278.055,295.385h-51.2v-48.837c0-14.178,11.815-25.994,25.994-25.994l0,0
	c14.178,0,25.994,11.815,25.994,25.994v48.837H278.055z"/>
<path style="fill:#183651;" d="M278.055,303.262h-51.2c-4.726,0-7.877-3.151-7.877-7.877v-48.837
	c0-18.905,14.966-33.871,33.871-33.871c18.905,0,33.871,14.966,33.871,33.871v48.837
	C285.932,300.111,281.994,303.262,278.055,303.262z M233.945,287.508h35.446v-40.96c0-10.24-7.877-18.117-18.117-18.117
	c-10.24,0-18.117,7.877-18.117,18.117v40.96H233.945z"/>
<path style="fill:#E1E6E7;" d="M360.763,221.342c-14.178,0-25.994,11.815-25.994,25.994v204.8H143.36v-204.8
	c0-14.178,11.815-25.994,25.994-25.994L360.763,221.342L360.763,221.342z"/>
<path style="fill:#183651;" d="M334.769,460.012H143.36c-4.726,0-7.877-3.151-7.877-7.877v-204.8
	c0-18.905,14.966-33.871,33.871-33.871h192.197c4.726,0,7.877,3.151,7.877,7.877c0,4.726-3.151,7.877-7.877,7.877
	c-10.24,0-18.117,7.877-18.117,18.117v204.8C342.646,456.862,339.495,460.012,334.769,460.012z M151.237,444.258h175.655V247.335
	c0-6.302,1.575-12.603,5.514-18.117H169.354c-10.24,0-18.117,7.877-18.117,18.117V444.258z"/>
<rect x="184.32" y="249.698" style="fill:#FFFFFF;" width="134.695" height="174.08"/>
<g>
	<rect id="SVGCleanerId_0" x="244.972" y="271.754" style="fill:#183651;" width="14.178" height="15.754"/>
</g>
<g>
	<rect id="SVGCleanerId_0_1_" x="244.972" y="271.754" style="fill:#183651;" width="14.178" height="15.754"/>
</g>
<g>
	<rect id="SVGCleanerId_0_2_" x="244.972" y="271.754" style="fill:#183651;" width="14.178" height="15.754"/>
</g>
<g>
	<rect x="207.163" y="309.563" style="fill:#183651;" width="89.797" height="15.754"/>
	<rect x="207.163" y="347.372" style="fill:#183651;" width="89.797" height="15.754"/>
	<rect x="207.163" y="385.969" style="fill:#183651;" width="89.797" height="15.754"/>
	<rect x="77.982" y="140.209" style="fill:#183651;" width="348.16" height="15.754"/>
	<rect x="164.628" y="179.594" style="fill:#183651;" width="175.655" height="15.754"/>
	<rect x="204.8" y="39.385" style="fill:#183651;" width="15.754" height="15.754"/>
	<rect x="244.185" y="39.385" style="fill:#183651;" width="15.754" height="15.754"/>
	<rect x="283.569" y="39.385" style="fill:#183651;" width="15.754" height="15.754"/>
</g>
<rect x="126.031" y="39.385" style="fill:#F06151;" width="251.274" height="15.754"/>
<g>
</g>
<g>
</g>
<g>
</g>
<g>
</g>
<g>
</g>
<g>
</g>
<g>
</g>
<g>
</g>
<g>
</g>
<g>
</g>
<g>
</g>
<g>
</g>
<g>
</g>
<g>
</g>
<g>
</g>
</svg>
