<?xml version="1.0" encoding="iso-8859-1"?>
<!-- Generator: Adobe Illustrator 19.0.0, SVG Export Plug-In . SVG Version: 6.00 Build 0)  -->
<svg version="1.1" id="Capa_1" xmlns="http://www.w3.org/2000/svg" xmlns:xlink="http://www.w3.org/1999/xlink" x="0px" y="0px"
	 viewBox="0 0 504.155 504.155" style="enable-background:new 0 0 504.155 504.155;" xml:space="preserve">
<polygon style="fill:#F06151;" points="7.909,496.262 370.247,496.262 370.247,7.893 121.337,7.893 7.909,113.444 "/>
<path style="fill:#183651;" d="M370.247,504.139H7.909c-4.726,0-7.877-3.151-7.877-7.877V113.444c0-2.363,0.788-3.938,2.363-5.514
	L115.823,2.379c1.575-1.575,3.151-2.363,5.514-2.363h248.911c4.726,0,7.877,3.151,7.877,7.877v488.369
	C378.124,500.988,374.186,504.139,370.247,504.139z M15.786,488.385H362.37V15.77H124.487L15.786,116.594V488.385z"/>
<polygon style="fill:#FFFFFF;" points="39.417,464.754 39.417,113.444 121.337,39.401 338.74,39.401 338.74,464.754 "/>
<polygon style="fill:#E0E4E8;" points="121.337,7.893 7.909,113.444 121.337,113.444 "/>
<path style="fill:#183651;" d="M121.337,121.321H7.909c-3.151,0-6.302-2.363-7.089-4.726c-1.575-3.151-0.788-6.302,1.575-8.665
	L115.823,2.379c2.363-2.363,5.514-2.363,8.665-1.575c3.151,1.575,4.726,3.938,4.726,7.089v105.551
	C129.213,118.17,125.275,121.321,121.337,121.321z M27.601,105.567h85.071V26.01L27.601,105.567z"/>
<rect x="74.863" y="416.705" style="fill:#183651;" width="140.997" height="15.754"/>
<rect x="74.863" y="352.114" style="fill:#183651;" width="81.92" height="15.754"/>
<rect x="74.863" y="286.736" style="fill:#183651;" width="81.92" height="15.754"/>
<rect x="74.863" y="222.145" style="fill:#183651;" width="81.92" height="15.754"/>
<g>
	<rect x="74.863" y="157.554" style="fill:#183651;" width="129.182" height="15.754"/>
	<rect x="180.413" y="69.333" style="fill:#183651;" width="15.754" height="15.754"/>
	<rect x="224.524" y="69.333" style="fill:#183651;" width="15.754" height="15.754"/>
	<rect x="268.635" y="69.333" style="fill:#183651;" width="15.754" height="15.754"/>
</g>
<path style="fill:#FBBD5E;" d="M268.635,306.428c-9.452,0-17.329,7.877-17.329,17.329v41.748c0,9.452,7.877,17.329,17.329,17.329
	h51.988v-76.406H268.635z"/>
<path style="fill:#183651;" d="M328.5,390.711h-59.865c-14.178,0-25.206-11.028-25.206-25.206v-41.748
	c0-14.178,11.028-25.206,25.206-25.206H328.5V390.711z M268.635,314.305c-4.726,0-9.452,3.938-9.452,9.452v41.748
	c0,4.726,3.938,9.452,9.452,9.452h44.111v-60.652H268.635z"/>
<polygon style="fill:#FBBD5E;" points="460.044,432.459 320.623,382.834 320.623,306.428 460.044,256.804 "/>
<path style="fill:#183651;" d="M467.921,443.487l-155.963-55.138v-87.434l155.963-55.138V443.487z M328.5,377.321l123.668,44.111
	v-153.6l-124.455,44.111v65.378H328.5z"/>
<polygon style="fill:#FFFFFF;" points="347.404,363.142 347.404,325.333 433.263,294.613 433.263,393.862 "/>
<polygon style="fill:#E0E4E8;" points="330.075,463.179 299.355,463.179 274.937,382.834 306.444,382.834 "/>
<path style="fill:#183651;" d="M330.075,471.056L330.075,471.056h-31.508c-3.151,0-6.302-2.363-7.877-5.514l-23.631-80.345
	c-0.788-2.363,0-4.726,1.575-7.089c1.575-2.363,3.938-3.151,6.302-3.151h31.508c3.151,0,6.302,2.363,7.877,5.514l23.631,78.769
	c0.788,0.788,0.788,2.363,0.788,3.938C337.952,467.117,334.801,471.056,330.075,471.056z M304.869,455.302h14.966l-18.905-64.591
	h-14.966L304.869,455.302z"/>
<path style="fill:#FFFFFF;" d="M460.044,308.004v71.68c19.692,0,36.234-15.754,36.234-36.234S480.524,308.004,460.044,308.004z"/>
<path style="fill:#183651;" d="M460.044,388.348c-4.726,0-7.877-3.151-7.877-7.877v-71.68c0-4.726,3.151-7.877,7.877-7.877
	c24.418,0,44.111,19.692,44.111,44.111C504.155,368.656,484.463,388.348,460.044,388.348z M467.921,317.456v53.563
	c11.815-3.151,20.48-14.178,20.48-26.782C488.401,331.634,479.737,320.607,467.921,317.456z"/>
<rect x="312.746" y="126.047" style="fill:#FFFFFF;" width="130.757" height="85.071"/>
<path style="fill:#183651;" d="M443.503,218.994L443.503,218.994H312.746c-4.726,0-7.877-3.151-7.877-7.877v-85.071
	c0-2.363,0.788-3.938,2.363-5.514c1.575-1.575,3.151-2.363,5.514-2.363l0,0h130.757c4.726,0,7.877,3.151,7.877,7.877v85.071
	c0,2.363-0.788,3.938-2.363,5.514C447.441,218.207,445.866,218.994,443.503,218.994z M320.623,203.241h115.003v-69.317H320.623
	L320.623,203.241L320.623,203.241z"/>
<path style="fill:#F06151;" d="M480.524,126.047h-37.022v85.071h37.022c8.665,0,15.754-7.089,15.754-15.754v-53.563
	C496.278,133.136,489.189,126.047,480.524,126.047z"/>
<path style="fill:#183651;" d="M480.524,218.994L480.524,218.994h-37.022c-4.726,0-7.877-3.151-7.877-7.877v-85.071
	c0-2.363,0.788-3.938,2.363-5.514c1.575-1.575,3.151-2.363,5.514-2.363l0,0h37.022c13.391,0,23.631,10.24,23.631,23.631v53.563
	C504.155,207.967,493.915,218.994,480.524,218.994z M451.38,203.241h29.145c4.726,0,7.877-3.151,7.877-7.877v-53.563
	c0-4.726-3.151-7.877-7.877-7.877H451.38V203.241z"/>
<rect x="337.952" y="150.465" style="fill:#4FBF9F;" width="81.92" height="35.446"/>
<polygon style="fill:#FBBD5E;" points="312.746,126.047 232.401,168.582 312.746,211.117 "/>
<g>
	<path style="fill:#183651;" d="M312.746,218.994c-1.575,0-2.363,0-3.938-0.788l-80.345-42.535
		c-2.363-1.575-3.938-3.938-3.938-7.089s1.575-5.514,3.938-7.089l80.345-42.535c2.363-1.575,5.514-1.575,7.877,0
		c2.363,1.575,3.938,3.938,3.938,7.089v85.071c0,3.151-1.575,5.514-3.938,7.089C315.897,218.207,314.321,218.994,312.746,218.994z
		 M249.73,168.582l55.138,29.145V138.65L249.73,168.582z"/>
	<polyline style="fill:#183651;" points="259.97,153.616 232.401,168.582 259.97,182.761 	"/>
	<path style="fill:#183651;" d="M259.97,190.637c-1.575,0-2.363,0-3.938-0.788l-27.569-14.178c-2.363-1.575-3.938-3.938-3.938-7.089
		s1.575-5.514,3.938-7.089l27.569-14.178c3.938-2.363,8.665-0.788,11.028,3.151c2.363,3.938,0.788,8.665-3.151,11.028l-14.178,7.877
		l14.178,7.877c3.938,2.363,5.514,7.089,3.151,11.028C265.484,189.062,263.121,190.637,259.97,190.637z"/>
</g>
<g>
</g>
<g>
</g>
<g>
</g>
<g>
</g>
<g>
</g>
<g>
</g>
<g>
</g>
<g>
</g>
<g>
</g>
<g>
</g>
<g>
</g>
<g>
</g>
<g>
</g>
<g>
</g>
<g>
</g>
</svg>
