<?xml version="1.0" encoding="iso-8859-1"?>
<!-- Generator: Adobe Illustrator 19.0.0, SVG Export Plug-In . SVG Version: 6.00 Build 0)  -->
<svg version="1.1" id="Capa_1" xmlns="http://www.w3.org/2000/svg" xmlns:xlink="http://www.w3.org/1999/xlink" x="0px" y="0px"
	 viewBox="0 0 504.123 504.123" style="enable-background:new 0 0 504.123 504.123;" xml:space="preserve">
<circle style="fill:#E0E4E8;" cx="252.062" cy="254.425" r="248.123"/>
<rect x="177.231" y="101.612" style="fill:#4FBF9F;" width="94.523" height="313.502"/>
<path style="fill:#183651;" d="M271.754,422.991h-94.523c-3.938,0-7.877-3.151-7.877-7.877V101.612c0-3.938,3.151-7.877,7.877-7.877
	h94.523c3.938,0,7.877,3.151,7.877,7.877v313.502C279.631,419.84,276.48,422.991,271.754,422.991z M185.108,407.237h78.769V109.489
	h-78.769V407.237z"/>
<rect x="207.951" y="132.332" style="fill:#FFFFFF;" width="33.083" height="251.274"/>
<path style="fill:#2EA0DA;" d="M97.674,315.865H49.625l-34.658,68.529c0,0,37.022,52.775,59.077,112.64
	c22.055-59.077,59.077-112.64,59.077-112.64L97.674,315.865z"/>
<path style="fill:#183651;" d="M74.043,504.123L74.043,504.123c-3.151,0-6.302-2.363-7.089-4.726
	C45.686,441.895,9.452,389.12,8.665,389.12c-1.575-2.363-1.575-5.514-0.788-7.877l34.658-68.529
	c1.575-2.363,3.938-3.938,7.089-3.938h48.049c3.151,0,5.514,1.575,7.089,3.938l34.658,68.529c1.575,2.363,0.788,5.514-0.788,7.877
	c0,0.788-37.022,52.775-58.289,110.277C79.557,501.76,77.194,504.123,74.043,504.123z M23.631,383.606
	c7.877,11.815,31.508,48.837,50.412,92.16c18.117-43.323,42.535-80.345,50.412-92.16l-30.72-59.865H54.351L23.631,383.606z"/>
<g>
	<path style="fill:#FFFFFF;" d="M74.043,441.108c-12.603-25.206-25.994-46.474-33.871-59.077l22.843-44.898h21.268l22.843,44.898
		C99.249,394.634,86.646,415.902,74.043,441.108z"/>
	<rect x="34.658" y="285.932" style="fill:#FFFFFF;" width="77.982" height="29.932"/>
</g>
<path style="fill:#183651;" d="M112.64,323.742H34.658c-3.938,0-7.877-3.151-7.877-7.877v-29.932c0-2.363,0.788-3.938,2.363-5.514
	c1.575-1.575,3.151-2.363,5.514-2.363l0,0h77.982c3.938,0,7.877,3.151,7.877,7.877v29.932
	C120.517,319.803,117.366,323.742,112.64,323.742z M42.535,307.988h63.015v-14.178H42.535
	C42.535,293.809,42.535,307.988,42.535,307.988z"/>
<path style="fill:#FBBD5E;" d="M74.043,15.754c-26.782,0-48.837,22.055-48.837,48.837v221.342h97.674V64.591
	C122.88,37.022,100.825,15.754,74.043,15.754z"/>
<path style="fill:#183651;" d="M122.88,293.809H25.206c-3.938,0-7.877-3.151-7.877-7.877V64.591
	c0-31.508,25.206-56.714,56.714-56.714s55.926,25.206,55.926,56.714v221.342C129.969,289.871,126.818,293.809,122.88,293.809z
	 M32.295,278.055h81.92V64.591c0-22.843-18.117-40.96-40.96-40.96s-40.96,18.117-40.96,40.96V278.055z"/>
<path style="fill:#FFFFFF;" d="M55.926,254.425V64.591c0-9.452,7.877-18.117,18.117-18.117S92.16,54.351,92.16,64.591v190.622
	H55.926V254.425z"/>
<circle style="fill:#183651;" cx="74.043" cy="387.545" r="14.178"/>
<path style="fill:#183651;" d="M74.043,502.548c-3.151,0-5.514-2.363-5.514-5.514v-94.523c0-3.151,2.363-5.514,5.514-5.514
	s5.514,2.363,5.514,5.514v94.523C79.557,499.397,77.194,502.548,74.043,502.548z"/>
<path style="fill:#F06151;" d="M251.274,15.754h-52.775c-11.815,0-21.268,9.452-21.268,21.268V102.4h94.523V36.234
	C271.754,25.206,262.302,15.754,251.274,15.754z"/>
<path style="fill:#183651;" d="M271.754,109.489h-94.523c-3.938,0-7.877-3.151-7.877-7.877V36.234
	c0-15.754,12.603-28.357,28.357-28.357h53.563c15.754,0,28.357,12.603,28.357,28.357v65.378
	C279.631,106.338,276.48,109.489,271.754,109.489z M185.108,93.735h78.769V36.234c0-7.089-5.514-12.603-12.603-12.603h-53.563
	c-7.089,0-12.603,5.514-12.603,12.603L185.108,93.735L185.108,93.735z"/>
<polygon style="fill:#FBBD5E;" points="224.492,496.246 271.754,415.114 177.231,415.114 "/>
<path style="fill:#183651;" d="M224.492,504.123L224.492,504.123c-2.363,0-5.514-1.575-6.302-3.938l-47.262-81.132
	c-1.575-2.363-1.575-5.514,0-7.877c1.575-2.363,3.938-3.938,7.089-3.938h94.523c3.151,0,5.514,1.575,7.089,3.938
	s1.575,5.514,0,7.877l-47.262,81.132C230.006,502.548,227.643,504.123,224.492,504.123z M190.622,422.991l33.871,57.502
	l33.871-57.502H190.622z"/>
<path style="fill:#F06151;" d="M318.228,364.702v92.948c0,21.268,17.329,38.597,38.597,38.597h96.098
	c21.268,0,38.597-17.329,38.597-38.597v-92.948H318.228z"/>
<path style="fill:#183651;" d="M453.711,504.123h-96.098c-25.994,0-46.474-20.48-46.474-46.474v-92.948
	c0-3.938,3.151-7.877,7.877-7.877h173.292c3.938,0,7.877,3.151,7.877,7.877v92.948C500.185,482.855,479.705,504.123,453.711,504.123
	z M326.105,372.578v85.071c0,17.329,14.178,30.72,30.72,30.72h96.098c17.329,0,30.72-14.178,30.72-30.72v-85.071H326.105z"/>
<g>
	<path style="fill:#FFFFFF;" d="M418.265,473.403h-53.563c-12.603,0-22.843-10.24-22.843-22.843v-19.692
		c0-3.938,3.151-7.877,7.877-7.877c4.726,0,7.877,3.151,7.877,7.877v19.692c0,3.938,3.151,7.089,7.089,7.089h53.563
		c3.938,0,7.877,3.151,7.877,7.877C426.142,470.252,422.203,473.403,418.265,473.403z"/>
	<path style="fill:#FFFFFF;" d="M318.228,341.858v23.631h86.646V255.212C357.612,254.425,318.228,293.809,318.228,341.858z"/>
</g>
<path style="fill:#183651;" d="M405.662,372.578h-86.646c-3.938,0-7.877-3.151-7.877-7.877v-23.631
	c0-51.988,42.535-94.523,94.523-94.523c3.938,0,7.877,3.151,7.877,7.877v110.277C413.538,369.428,409.6,372.578,405.662,372.578z
	 M326.105,356.825h71.68v-94.523c-40.172,3.938-71.68,37.809-71.68,78.769V356.825z"/>
<path style="fill:#E0E4E8;" d="M492.308,341.858c0-48.049-38.597-86.646-86.646-86.646v110.277h86.646V341.858z"/>
<path style="fill:#183651;" d="M492.308,372.578h-86.646c-3.938,0-7.877-3.151-7.877-7.877V254.425c0-3.938,3.151-7.877,7.877-7.877
	c51.988,0,94.523,42.535,94.523,94.523v23.631C500.185,369.428,497.034,372.578,492.308,372.578z M413.538,356.825h70.892v-15.754
	c0-40.96-31.508-74.831-71.68-78.769v94.523H413.538z"/>
<path style="fill:#FFFFFF;" d="M405.662,279.631c-10.24,0-18.905,8.665-18.905,18.905v22.055c0,10.24,8.665,18.905,18.905,18.905
	s18.905-8.665,18.905-18.905v-22.055C424.566,288.295,415.902,279.631,405.662,279.631z"/>
<g>
	<path style="fill:#183651;" d="M405.662,347.372c-14.966,0-26.782-11.815-26.782-26.782v-22.055
		c0-14.966,11.815-26.782,26.782-26.782c14.966,0,26.782,11.815,26.782,26.782v22.055
		C431.655,335.557,419.84,347.372,405.662,347.372z M405.662,287.508c-6.302,0-11.028,4.726-11.028,11.028v22.055
		c0,6.302,4.726,11.028,11.028,11.028s11.028-4.726,11.028-11.028v-22.055C416.689,292.234,411.175,287.508,405.662,287.508z"/>
	<path style="fill:#183651;" d="M405.662,262.302c-3.938,0-7.877-3.151-7.877-7.877v-44.111c0-3.938,3.151-7.877,7.877-7.877h25.994
		c9.452,0,16.542-7.089,16.542-16.542s-7.877-16.542-16.542-16.542h-74.043c-19.692,0-36.234-16.542-36.234-36.234
		s16.542-36.234,36.234-36.234h74.831c8.665,0,15.754-7.089,15.754-15.754s-7.089-15.754-15.754-15.754h-26.782
		c-3.938,0-7.877-3.151-7.877-7.877V7.877c0-3.938,3.151-7.877,7.877-7.877c4.726,0,7.877,3.151,7.877,7.877V51.2h18.905
		c17.329,0,30.72,14.178,30.72,30.72c0,17.329-14.178,30.72-30.72,30.72h-74.831c-11.028,0-20.48,9.452-20.48,20.48
		s9.452,20.48,20.48,20.48h74.043c17.329,0,32.295,14.178,32.295,32.295c0,17.329-14.178,32.295-32.295,32.295h-18.117v36.234
		C413.538,259.151,409.6,262.302,405.662,262.302z"/>
</g>
<g>
</g>
<g>
</g>
<g>
</g>
<g>
</g>
<g>
</g>
<g>
</g>
<g>
</g>
<g>
</g>
<g>
</g>
<g>
</g>
<g>
</g>
<g>
</g>
<g>
</g>
<g>
</g>
<g>
</g>
</svg>
