<?xml version="1.0" encoding="iso-8859-1"?>
<!-- Generator: Adobe Illustrator 19.0.0, SVG Export Plug-In . SVG Version: 6.00 Build 0)  -->
<svg version="1.1" id="Capa_1" xmlns="http://www.w3.org/2000/svg" xmlns:xlink="http://www.w3.org/1999/xlink" x="0px" y="0px"
	 viewBox="0 0 504.446 504.446" style="enable-background:new 0 0 504.446 504.446;" xml:space="preserve">
<rect x="52.937" y="121.627" style="fill:#FFFFFF;" width="397.785" height="374.942"/>
<path style="fill:#183651;" d="M451.509,504.446H52.937c-4.726,0-7.877-3.151-7.877-7.877V121.627c0-4.726,3.151-7.877,7.877-7.877
	h397.785c4.726,0,7.877,3.151,7.877,7.877v374.942C459.386,501.295,455.447,504.446,451.509,504.446z M60.814,488.692h382.031
	V129.504H60.814V488.692z"/>
<rect x="84.444" y="153.135" style="fill:#4FBF9F;" width="334.769" height="311.926"/>
<path style="fill:#FFFFFF;" d="M293.97,379.203h-83.495c-11.028,0-18.905,8.665-18.905,18.905s8.665,18.905,18.905,18.905h83.495
	c11.028,0,18.905-8.665,18.905-18.905S304.998,379.203,293.97,379.203z"/>
<path style="fill:#183651;" d="M293.97,425.676h-83.495c-14.966,0-26.782-11.815-26.782-26.782
	c0-14.966,11.815-26.782,26.782-26.782h83.495c14.966,0,26.782,11.815,26.782,26.782
	C320.752,413.861,308.937,425.676,293.97,425.676z M210.475,387.079c-6.302,0-11.028,4.726-11.028,11.028
	s4.726,11.028,11.028,11.028h83.495c6.302,0,11.028-4.726,11.028-11.028s-4.726-11.028-11.028-11.028H210.475z"/>
<polyline style="fill:#FBBD5E;" points="117.527,8.2 52.937,121.627 451.509,121.627 386.918,8.2 "/>
<path style="fill:#183651;" d="M451.509,129.504H52.937c-3.151,0-5.514-1.575-7.089-3.938c-1.575-2.363-1.575-5.514,0-7.877
	L110.438,4.261c2.363-3.938,7.089-5.514,11.028-3.151s5.514,7.089,3.151,11.028L66.327,113.75h371.003L380.617,12.138
	c-2.363-3.938-0.788-8.665,3.151-11.028c3.938-2.363,8.665-0.788,11.028,3.151l63.803,113.428c1.575,2.363,1.575,5.514,0,7.877
	C456.235,127.929,453.872,129.504,451.509,129.504z"/>
<polyline style="fill:#F06151;" points="197.084,55.461 197.084,206.698 161.638,206.698 252.223,314.612 342.807,206.698 
	307.361,206.698 307.361,55.461 "/>
<path style="fill:#183651;" d="M252.223,322.489c-2.363,0-4.726-0.788-6.302-3.151l-90.585-107.126
	c-1.575-2.363-2.363-5.514-0.788-8.665c1.575-3.151,3.938-4.726,7.089-4.726h27.569V55.461c0-4.726,3.151-7.877,7.877-7.877
	c4.726,0,7.877,3.151,7.877,7.877v151.237c0,4.726-3.151,7.877-7.877,7.877H178.18l74.043,88.222l74.043-88.222h-18.905
	c-4.726,0-7.877-3.151-7.877-7.877V55.461c0-4.726,3.151-7.877,7.877-7.877c4.726,0,7.877,3.151,7.877,7.877v143.36h27.569
	c3.151,0,5.514,1.575,7.089,4.726c1.575,3.151,0.788,6.302-0.788,8.665l-90.585,107.914
	C256.949,321.701,254.586,322.489,252.223,322.489z"/>
<polygon style="fill:#FFFFFF;" points="228.592,238.206 228.592,86.969 275.854,86.969 275.854,238.206 252.223,265.775 "/>
<g>
	<rect x="362.5" y="264.2" style="fill:#183651;" width="15.754" height="15.754"/>
	<rect x="362.5" y="314.612" style="fill:#183651;" width="15.754" height="15.754"/>
	<rect x="362.5" y="364.236" style="fill:#183651;" width="15.754" height="15.754"/>
	<rect x="126.192" y="264.2" style="fill:#183651;" width="15.754" height="15.754"/>
	<rect x="126.192" y="314.612" style="fill:#183651;" width="15.754" height="15.754"/>
	<rect x="126.192" y="364.236" style="fill:#183651;" width="15.754" height="15.754"/>
</g>
<g>
</g>
<g>
</g>
<g>
</g>
<g>
</g>
<g>
</g>
<g>
</g>
<g>
</g>
<g>
</g>
<g>
</g>
<g>
</g>
<g>
</g>
<g>
</g>
<g>
</g>
<g>
</g>
<g>
</g>
</svg>
