<?xml version="1.0" encoding="iso-8859-1"?>
<!-- Generator: Adobe Illustrator 19.0.0, SVG Export Plug-In . SVG Version: 6.00 Build 0)  -->
<svg version="1.1" id="Capa_1" xmlns="http://www.w3.org/2000/svg" xmlns:xlink="http://www.w3.org/1999/xlink" x="0px" y="0px"
	 viewBox="0 0 504.517 504.517" style="enable-background:new 0 0 504.517 504.517;" xml:space="preserve">
<path style="fill:#FBBD5E;" d="M252.258,504.396c-138.634,0-252.062-113.428-252.062-252.062S113.625,0.273,252.258,0.273
	S504.32,113.701,504.32,252.335S390.892,504.396,252.258,504.396z"/>
<path style="fill:#FFFFFF;" d="M368.049,489.43l28.357,7.089l7.877-20.48c7.089,0,14.178-0.788,21.268-3.151l13.391,17.329
	l25.206-14.966l-8.665-19.692c4.726-4.726,9.452-11.028,12.603-17.329l22.055,2.363l7.089-28.357l-20.48-7.877
	c0-7.089-0.788-14.178-3.151-21.268l17.329-13.391l-14.966-25.206l-19.692,8.665c-4.726-4.726-11.028-9.452-17.329-12.603
	l2.363-22.055l-29.932-7.089l-7.877,20.48c-7.089,0-14.178,0.788-21.268,3.151l-13.391-17.329l-25.206,14.966l8.665,19.692
	c-4.726,4.726-9.452,11.028-12.603,17.329l-22.055-2.363l-6.302,29.145l20.48,7.877c0,7.089,0.788,14.178,3.151,21.268
	l-17.329,13.391l14.966,25.206l19.692-8.665c4.726,4.726,11.028,9.452,17.329,12.603L368.049,489.43z"/>
<path style="fill:#183651;" d="M396.406,504.396c-0.788,0-1.575,0-1.575,0l-28.357-7.089c-3.938-0.788-6.302-4.726-6.302-8.665
	l1.575-16.542c-3.938-2.363-7.089-4.726-10.24-7.877l-14.966,7.089c-3.938,1.575-7.877,0-10.24-3.151l-14.966-25.206
	c-2.363-3.151-1.575-7.877,1.575-10.24l13.391-10.24c-0.788-3.938-1.575-8.665-1.575-12.603l-15.754-5.514
	c-3.938-1.575-5.514-5.514-4.726-9.452l7.089-28.357c0.788-3.938,4.726-6.302,8.665-6.302l16.542,1.575
	c2.363-3.938,4.726-7.089,7.877-10.24l-7.089-14.966c-1.575-3.938,0-7.877,3.151-10.24l25.206-14.966
	c3.151-2.363,7.877-1.575,10.24,1.575l10.24,13.391c3.938-0.788,8.665-1.575,12.603-1.575l5.514-15.754
	c1.575-3.938,5.514-5.514,9.452-4.726l28.357,7.089c3.938,0.788,6.302,4.726,6.302,8.665l-1.575,16.542
	c3.938,2.363,7.089,4.726,10.24,7.877l14.966-7.089c3.938-1.575,7.877,0,10.24,3.151l14.966,25.206
	c2.363,3.151,1.575,7.877-1.575,10.24l-13.391,10.24c0.788,3.938,1.575,8.665,1.575,12.603l15.754,5.514
	c3.938,1.575,5.514,5.514,4.726,9.452l-7.089,28.357c-0.788,3.938-4.726,6.302-8.665,6.302l-16.542-1.575
	c-2.363,3.938-4.726,7.089-7.877,10.24l7.089,14.966c1.575,3.938,0,7.877-3.151,10.24l-25.206,14.966
	c-3.151,2.363-7.877,1.575-10.24-1.575l-10.24-13.391c-3.938,0.788-8.665,1.575-12.603,1.575l-5.514,15.754
	C402.708,502.033,399.557,504.396,396.406,504.396z M376.714,483.916l14.966,3.938l5.514-14.178
	c0.788-3.151,3.938-4.726,7.089-4.726c6.302,0,12.603-0.788,18.905-3.151c3.151-0.788,6.302,0,8.665,2.363l9.452,11.815
	l13.391-7.877l-6.302-13.391c-1.575-3.151-0.788-6.302,1.575-8.665c4.726-4.726,8.665-9.452,11.028-15.754
	c1.575-3.151,4.726-4.726,7.877-3.938l14.966,1.575l3.938-14.966l-14.178-5.514c-3.151-0.788-4.726-3.938-4.726-7.089
	c0-6.302-0.788-12.603-3.151-18.905c-0.788-3.151,0-6.302,2.363-8.665l11.815-9.452l-7.877-13.391l-13.391,6.302
	c-3.151,1.575-6.302,0.788-8.665-1.575c-4.726-4.726-9.452-8.665-15.754-11.028c-3.151-1.575-4.726-4.726-3.938-7.877l1.575-14.966
	l-14.966-3.938l-5.514,14.178c-0.788,3.151-3.938,4.726-7.089,4.726c-6.302,0-12.603,0.788-18.905,3.151
	c-3.151,0.788-6.302,0-8.665-2.363l-9.452-11.815l-13.391,7.877l6.302,13.391c1.575,3.151,0.788,6.302-1.575,8.665
	c-4.726,4.726-8.665,9.452-11.028,15.754c-1.575,3.151-4.726,4.726-7.877,3.938l-14.966-1.575l-3.938,14.966l14.178,5.514
	c3.151,0.788,4.726,3.938,4.726,7.089c0,6.302,0.788,12.603,3.151,18.905c0.788,3.151,0,6.302-2.363,8.665l-11.815,9.452
	l7.877,13.391l13.391-6.302c3.151-1.575,6.302-0.788,8.665,1.575c4.726,4.726,9.452,8.665,15.754,11.028
	c3.151,1.575,4.726,4.726,3.938,7.877L376.714,483.916z"/>
<circle style="fill:#E1E6E7;" cx="404.283" cy="404.359" r="50.412"/>
<circle style="fill:#FFFFFF;" cx="404.283" cy="404.359" r="24.418"/>
<path style="fill:#183651;" d="M404.283,436.655c-2.363,0-5.514,0-7.877-0.788c-17.329-3.938-28.357-22.055-23.631-39.385
	c3.938-14.178,16.542-24.418,31.508-24.418c2.363,0,5.514,0,7.877,0.788c17.329,3.938,28.357,22.055,23.631,39.385
	C431.852,426.415,419.249,436.655,404.283,436.655z M404.283,387.818c-7.877,0-14.178,5.514-15.754,12.603
	c-2.363,8.665,3.151,18.117,12.603,20.48c8.665,2.363,18.117-3.151,20.48-12.603c2.363-8.665-3.151-18.117-12.603-20.48
	C406.646,387.818,405.071,387.818,404.283,387.818z"/>
<path style="fill:#FFFFFF;" d="M64.788,186.169l28.357,7.089l7.877-20.48c7.089,0,14.178-0.788,21.268-3.151l13.391,17.329
	l25.206-14.966l-8.665-19.692c4.726-4.726,9.452-11.028,12.603-17.329l22.055,2.363l7.089-28.357l-20.48-7.877
	c0-7.089-0.788-14.178-3.151-21.268l17.329-13.391l-14.966-25.206l-19.692,8.665c-4.726-4.726-11.028-9.452-17.329-12.603
	l2.363-22.055L109.686,8.15l-7.877,20.48c-7.089,0-14.178,0.788-21.268,3.151L65.575,14.452L40.369,30.206l8.665,19.692
	c-4.726,4.726-8.665,11.028-12.603,17.329l-21.268-2.363L8.074,93.221l20.48,7.877c0,7.089,0.788,14.178,3.151,21.268
	l-17.329,13.391l14.966,25.206l19.692-8.665c4.726,4.726,11.028,9.452,17.329,12.603L64.788,186.169z"/>
<path style="fill:#183651;" d="M93.145,201.135c-0.788,0-1.575,0-1.575,0l-29.145-7.877c-3.938-0.788-6.302-4.726-6.302-8.665
	l1.575-16.542c-3.938-2.363-7.089-4.726-10.24-7.877l-14.966,7.089c-3.938,1.575-7.877,0-10.24-3.151L7.286,138.907
	c-2.363-3.151-1.575-7.877,1.575-10.24l13.391-10.24c0-3.938-0.788-7.877-1.575-11.815l-15.754-5.514
	c-3.938-1.575-5.514-5.514-4.726-9.452l7.089-28.357c0.788-4.726,4.726-7.089,8.665-6.302l16.542,1.575
	c2.363-3.938,4.726-7.089,7.877-10.24L33.28,33.356c-1.575-3.938,0-7.877,3.151-10.24L61.637,8.15
	c3.151-2.363,7.877-1.575,10.24,1.575l10.24,13.391c3.938-0.788,8.665-1.575,12.603-1.575l5.514-15.754
	c1.575-3.938,5.514-5.514,9.452-4.726l28.357,6.302c3.938,0.788,6.302,4.726,6.302,8.665l-2.363,16.542
	c3.938,2.363,7.089,4.726,10.24,7.877l14.966-7.089c3.938-1.575,7.877,0,10.24,3.151l15.754,25.206
	c2.363,3.151,1.575,7.877-1.575,10.24l-13.391,10.24c0.788,3.938,1.575,8.665,1.575,12.603l15.754,5.514
	c3.938,1.575,5.514,5.514,4.726,9.452l-7.089,28.357c-0.788,3.938-4.726,6.302-8.665,6.302l-16.542-1.575
	c-2.363,3.938-4.726,7.089-7.877,10.24l7.089,14.966c1.575,3.938,0,7.877-3.151,10.24l-24.418,14.966
	c-3.151,2.363-7.877,1.575-10.24-1.575l-10.24-13.391c-3.938,0.788-8.665,1.575-12.603,1.575l-5.514,15.754
	C99.446,198.772,96.295,201.135,93.145,201.135z M73.452,179.867l14.966,3.938l5.514-14.178c0.788-3.151,3.938-4.726,7.089-4.726
	c6.302,0,12.603-0.788,18.905-3.151c3.151-0.788,6.302,0,8.665,2.363l9.452,11.815l13.391-7.877l-6.302-13.391
	c-1.575-3.151-0.788-6.302,1.575-8.665c4.726-4.726,8.665-9.452,11.028-15.754c1.575-3.151,4.726-4.726,7.877-3.938l14.966,1.575
	l3.938-14.966l-14.966-5.514c-3.151-0.788-4.726-3.938-4.726-7.089c0-6.302-0.788-12.603-3.151-18.905
	c-0.788-3.151,0-6.302,2.363-8.665l11.815-9.452l-7.877-13.391l-13.391,6.302c-3.151,1.575-6.302,0.788-8.665-1.575
	c-4.726-4.726-9.452-8.665-15.754-11.028c-3.151-1.575-4.726-4.726-3.938-7.877l1.575-14.966l-14.966-3.938l-5.514,14.178
	c-0.788,3.151-3.938,4.726-7.089,4.726c-6.302,0-12.603,0.788-18.905,3.151c-3.151,0.788-6.302,0-8.665-2.363l-9.452-11.815
	l-13.391,7.877l6.302,13.391c1.575,3.151,0.788,6.302-1.575,8.665c-3.938,5.514-7.877,10.24-11.028,16.542
	c-1.575,2.363-4.726,3.938-7.877,3.938l-14.966-1.575l-3.938,14.966l14.178,5.514c3.151,0.788,4.726,3.938,4.726,7.089
	c0,6.302,0.788,12.603,3.151,18.905c0.788,3.151,0,6.302-2.363,8.665l-11.815,9.452l7.877,13.391l13.391-6.302
	c3.151-1.575,6.302-0.788,8.665,1.575c4.726,4.726,9.452,8.665,15.754,11.028c3.151,1.575,4.726,4.726,3.938,7.877L73.452,179.867z"
	/>
<circle style="fill:#E1E6E7;" cx="100.234" cy="100.31" r="50.412"/>
<circle style="fill:#FFFFFF;" cx="100.234" cy="100.31" r="24.418"/>
<path style="fill:#183651;" d="M100.234,132.606c-2.363,0-5.514,0-7.877-0.788C75.028,127.879,64,109.762,68.726,92.433
	c3.938-14.178,16.542-24.418,31.508-24.418c2.363,0,5.514,0,7.877,0.788c17.329,3.938,28.357,22.055,23.631,39.385
	C128.591,123.153,115.2,132.606,100.234,132.606z M100.234,83.769c-7.877,0-14.178,5.514-15.754,12.603
	c-2.363,8.665,3.151,18.117,12.603,20.48c8.665,2.363,18.117-3.151,20.48-12.603c2.363-8.665-3.151-18.117-12.603-20.48
	C103.385,83.769,101.809,83.769,100.234,83.769z"/>
<path style="fill:#FFFFFF;" d="M489.354,136.544l7.089-28.357l-20.48-7.877c0-7.089-0.788-14.178-3.151-21.268l17.329-13.391
	l-14.966-25.206l-19.692,8.665c-4.726-4.726-11.028-9.452-17.329-12.603l2.363-22.055L412.16,7.362l-7.877,20.48
	c-7.089,0-14.178,0.788-21.268,3.151l-13.391-17.329L344.418,28.63l8.665,19.692c-4.726,4.726-9.452,11.028-12.603,17.329
	l-22.055-2.363l-7.089,29.932l20.48,7.877c0,7.089,0.788,14.178,3.151,21.268l-17.329,13.391l14.966,25.206l19.692-8.665
	c4.726,4.726,11.028,9.452,17.329,12.603l-2.363,22.055l28.357,7.089l7.877-20.48c7.089,0,14.178-0.788,21.268-3.151l13.391,17.329
	l25.206-14.966l-8.665-19.692c4.726-4.726,9.452-11.028,12.603-17.329L489.354,136.544z"/>
<path style="fill:#183651;" d="M396.406,201.135c-0.788,0-1.575,0-1.575,0l-28.357-7.877c-3.938-0.788-6.302-4.726-6.302-8.665
	l1.575-16.542c-3.938-2.363-7.089-4.726-10.24-7.877l-14.966,7.089c-3.938,1.575-7.877,0-10.24-3.151l-14.966-24.418
	c-2.363-3.151-1.575-7.877,1.575-10.24l13.391-10.24c-0.788-3.938-1.575-8.665-1.575-12.603l-15.754-5.514
	c-3.938-1.575-5.514-5.514-4.726-9.452l7.089-29.145c0.788-3.938,4.726-6.302,8.665-6.302l16.542,1.575
	c2.363-3.938,4.726-7.089,7.877-10.24l-7.089-14.966c-1.575-3.938,0-7.877,3.151-10.24l25.206-14.966
	c3.151-2.363,7.877-1.575,10.24,1.575l10.24,13.391c3.938-0.788,7.877-0.788,11.815-1.575l5.514-15.754
	c2.363-3.151,6.302-5.514,10.24-4.726l28.357,7.089c3.938,0.788,6.302,4.726,6.302,8.665l-1.575,16.542
	c3.938,2.363,7.089,4.726,10.24,7.877l14.966-7.089c3.938-1.575,7.877,0,10.24,3.151l14.966,25.206
	c2.363,3.151,1.575,7.877-1.575,10.24l-13.391,10.24c0.788,3.938,1.575,8.665,1.575,12.603l15.754,5.514
	c3.938,1.575,5.514,5.514,4.726,9.452l-7.089,28.357c-0.788,3.938-4.726,6.302-8.665,6.302l-16.542-1.575
	c-2.363,3.938-4.726,7.089-7.877,10.24l7.089,14.966c1.575,3.938,0,7.877-3.151,10.24l-25.206,14.966
	c-3.151,2.363-7.877,1.575-10.24-1.575l-10.24-13.391c-3.938,0.788-8.665,1.575-12.603,1.575l-5.514,15.754
	C402.708,198.772,399.557,201.135,396.406,201.135z M376.714,179.867l14.966,3.938l5.514-14.178
	c0.788-3.151,3.938-4.726,7.089-4.726c6.302,0,12.603-0.788,18.905-3.151c3.151-0.788,6.302,0,8.665,2.363l9.452,11.815
	l13.391-7.877l-6.302-13.391c-1.575-3.151-0.788-6.302,1.575-8.665c4.726-4.726,8.665-9.452,11.028-15.754
	c1.575-3.151,4.726-4.726,7.877-3.938l14.966,1.575l3.938-14.966l-14.178-5.514c-3.151-0.788-4.726-3.938-4.726-7.089
	c0-6.302-0.788-12.603-3.151-18.905c-0.788-3.151,0-6.302,2.363-8.665l11.815-9.452l-7.877-13.391l-13.391,6.302
	c-3.151,1.575-6.302,0.788-8.665-1.575c-4.726-4.726-9.452-8.665-15.754-11.028c-3.151-1.575-4.726-4.726-4.726-7.877l1.575-14.966
	l-14.966-3.938l-5.514,14.178c-0.788,3.151-3.938,4.726-7.089,4.726c-6.302,0-12.603,0.788-18.905,3.151
	c-3.151,0.788-6.302,0-8.665-2.363l-9.452-11.815l-13.391,7.877l6.302,13.391c1.575,3.151,0.788,6.302-1.575,8.665
	c-4.726,4.726-8.665,9.452-11.028,15.754c-1.575,3.151-4.726,4.726-7.877,3.938l-14.966-1.575L320,87.707l14.178,5.514
	c3.151,0.788,4.726,3.938,4.726,7.089c0,6.302,0.788,12.603,3.151,18.905c0.788,3.151,0,6.302-2.363,8.665l-11.815,9.452
	l7.877,13.391l13.391-6.302c3.151-1.575,6.302-0.788,8.665,1.575c4.726,4.726,9.452,8.665,15.754,11.028
	c3.151,1.575,4.726,4.726,3.938,7.877L376.714,179.867z"/>
<circle style="fill:#E1E6E7;" cx="404.283" cy="100.31" r="50.412"/>
<circle style="fill:#FFFFFF;" cx="404.283" cy="100.31" r="24.418"/>
<path style="fill:#183651;" d="M404.283,132.606c-2.363,0-5.514,0-7.877-0.788c-8.665-2.363-15.754-7.089-19.692-14.966
	c-4.726-7.089-5.514-15.754-3.938-24.418c3.938-14.178,16.542-24.418,31.508-24.418c2.363,0,5.514,0,7.877,0.788
	c17.329,3.938,28.357,22.055,23.631,39.385C431.852,123.153,419.249,132.606,404.283,132.606z M404.283,83.769
	c-7.877,0-14.178,5.514-15.754,12.603c-0.788,3.938,0,8.665,1.575,12.603c2.363,3.938,6.302,6.302,10.24,7.877
	c8.665,2.363,18.117-3.151,20.48-12.603c2.363-8.665-3.151-18.117-12.603-20.48C406.646,83.769,405.071,83.769,404.283,83.769z"/>
<path style="fill:#FFFFFF;" d="M186.092,439.806l7.089-28.357l-20.48-7.877c0-7.089-0.788-14.178-3.151-21.268l17.329-13.391
	l-14.966-25.206l-19.692,8.665c-4.726-4.726-11.028-9.452-17.329-12.603l2.363-22.055l-29.145-6.302l-7.877,20.48
	c-7.089,0-14.178,0.788-21.268,3.151l-13.391-17.329l-25.206,14.966l8.665,19.692c-4.726,4.726-9.452,11.028-12.603,17.329
	l-22.055-2.363l-7.089,28.357l20.48,7.877c0,7.089,0.788,14.178,3.151,21.268L13.588,438.23l14.966,25.206l19.692-8.665
	c4.726,4.726,11.028,9.452,17.329,12.603l-2.363,22.055l28.357,7.089l7.877-20.48c7.089,0,14.178-0.788,21.268-3.151l13.391,17.329
	l25.206-14.966l-8.665-19.692c4.726-4.726,9.452-11.028,12.603-17.329L186.092,439.806z"/>
<path style="fill:#183651;" d="M93.145,504.396c-0.788,0-1.575,0-1.575,0l-28.357-7.089c-3.938-0.788-6.302-4.726-6.302-8.665
	l1.575-16.542c-3.938-2.363-7.089-4.726-10.24-7.877l-14.966,7.089c-3.938,1.575-7.877,0-10.24-3.151L8.074,442.956
	c-2.363-3.151-1.575-7.877,1.575-10.24l13.391-10.24c-0.788-3.938-1.575-8.665-1.575-12.603l-15.754-5.514
	c-3.938-1.575-5.514-5.514-4.726-9.452l6.302-28.357c0.788-3.938,4.726-6.302,8.665-6.302l16.542,1.575
	c2.363-3.938,4.726-7.089,7.877-10.24l-7.089-14.966c-1.575-3.938,0-7.877,3.151-10.24l25.206-14.966
	c3.151-2.363,7.877-1.575,10.24,1.575l10.24,13.391c3.938-0.788,8.665-1.575,12.603-1.575l5.514-15.754
	c1.575-3.938,5.514-5.514,9.452-4.726l28.357,7.089c3.938,0.788,6.302,4.726,6.302,8.665l-1.575,16.542
	c3.938,2.363,7.089,4.726,10.24,7.877l14.966-7.089c3.938-1.575,7.877,0,10.24,3.151l14.966,25.206
	c2.363,3.151,1.575,7.877-1.575,10.24l-13.391,10.24c0.788,3.938,1.575,8.665,1.575,12.603l15.754,5.514
	c3.938,1.575,5.514,5.514,4.726,9.452l-7.089,28.357c-0.788,3.938-4.726,6.302-8.665,6.302l-16.542-1.575
	c-2.363,3.938-4.726,7.089-7.877,10.24l7.089,14.966c1.575,3.938,0,7.877-3.151,10.24l-25.206,14.966
	c-3.151,2.363-7.877,1.575-10.24-1.575l-10.24-13.391c-3.938,0.788-8.665,1.575-12.603,1.575l-5.514,15.754
	C99.446,502.033,96.295,504.396,93.145,504.396z M73.452,483.916l14.966,3.938l5.514-14.178c0.788-3.151,3.938-4.726,7.089-4.726
	c6.302,0,12.603-0.788,18.905-3.151c3.151-0.788,6.302,0,8.665,2.363l9.452,11.815l13.391-7.877l-6.302-13.391
	c-1.575-3.151-0.788-6.302,1.575-8.665c4.726-4.726,8.665-9.452,11.028-15.754c1.575-3.151,4.726-4.726,7.877-3.938l14.966,1.575
	l3.938-14.966l-14.966-5.514c-3.151-0.788-4.726-3.938-4.726-7.089c0-6.302-0.788-12.603-3.151-18.905
	c-0.788-3.151,0-6.302,2.363-8.665l11.815-9.452l-7.877-13.391l-13.391,6.302c-3.151,1.575-6.302,0.788-8.665-1.575
	c-4.726-4.726-9.452-8.665-15.754-11.028c-3.151-1.575-4.726-4.726-3.938-7.877l1.575-14.966l-14.966-3.938l-5.514,14.178
	c-0.788,3.151-3.938,4.726-7.089,4.726c-6.302,0-12.603,0.788-18.905,3.151c-3.151,0.788-6.302,0-8.665-2.363l-9.452-11.815
	l-13.391,7.877l6.302,13.391c1.575,3.151,0.788,6.302-1.575,8.665c-4.726,4.726-8.665,9.452-11.028,15.754
	c-1.575,3.151-4.726,4.726-7.877,3.938l-14.966-1.575l-3.938,14.966l14.178,5.514c3.151,0.788,4.726,3.938,4.726,7.089
	c0,6.302,0.788,12.603,3.151,18.905c0.788,3.151,0,6.302-2.363,8.665l-11.815,9.452l7.877,13.391l13.391-6.302
	c3.151-1.575,6.302-0.788,8.665,1.575c4.726,4.726,9.452,8.665,15.754,11.028c3.151,1.575,4.726,4.726,3.938,7.877L73.452,483.916z"
	/>
<circle style="fill:#E1E6E7;" cx="100.234" cy="404.359" r="50.412"/>
<circle style="fill:#FFFFFF;" cx="100.234" cy="404.359" r="24.418"/>
<g>
	<path style="fill:#183651;" d="M100.234,436.655c-2.363,0-5.514,0-7.877-0.788c-8.665-2.363-15.754-7.089-19.692-14.966
		s-5.514-15.754-3.938-24.418c3.938-14.178,16.542-24.418,31.508-24.418c2.363,0,5.514,0,7.877,0.788
		c17.329,3.938,28.357,22.055,23.631,39.385C128.591,426.415,115.2,436.655,100.234,436.655z M100.234,387.818
		c-7.877,0-14.178,5.514-15.754,12.603c-0.788,3.938,0,8.665,1.575,12.603c2.363,3.938,6.302,6.302,10.24,7.877
		c8.665,2.363,18.117-3.151,20.48-12.603c2.363-8.665-3.151-18.117-12.603-20.48C103.385,387.818,101.809,387.818,100.234,387.818z"
		/>
	<rect x="275.102" y="462.649" style="fill:#183651;" width="15.754" height="15.754"/>
	<rect x="213.662" y="462.649" style="fill:#183651;" width="15.754" height="15.754"/>
	<rect x="275.102" y="26.267" style="fill:#183651;" width="15.754" height="15.754"/>
	<rect x="213.662" y="26.267" style="fill:#183651;" width="15.754" height="15.754"/>
	<rect x="26.191" y="275.178" style="fill:#183651;" width="15.754" height="15.754"/>
	<rect x="26.191" y="213.738" style="fill:#183651;" width="15.754" height="15.754"/>
	<rect x="462.572" y="275.178" style="fill:#183651;" width="15.754" height="15.754"/>
	<rect x="462.572" y="213.738" style="fill:#183651;" width="15.754" height="15.754"/>
</g>
<circle style="fill:#FFFFFF;" cx="248.32" cy="248.396" r="177.231"/>
<path style="fill:#183651;" d="M248.32,433.504c-102.4,0-185.895-83.495-185.895-185.108S145.92,62.501,248.32,62.501
	s185.108,83.495,185.108,185.108S349.932,433.504,248.32,433.504z M248.32,78.255c-93.735,0-169.354,76.406-169.354,169.354
	S154.585,417.75,248.32,417.75s169.354-76.406,169.354-169.354S341.268,78.255,248.32,78.255z"/>
<path style="fill:#F06151;" d="M248.32,380.729c-73.255,0-132.332-59.865-132.332-132.332c0-73.255,59.865-132.332,132.332-132.332
	s132.332,59.077,132.332,132.332C380.652,320.864,320.788,380.729,248.32,380.729z"/>
<path style="fill:#FFFFFF;" d="M248.32,335.83c-48.049,0-87.434-39.385-87.434-87.434s39.385-87.434,87.434-87.434
	s87.434,39.385,87.434,87.434S296.369,335.83,248.32,335.83z"/>
<path style="fill:#183651;" d="M248.32,343.707c-52.775,0-95.311-42.535-95.311-95.311s42.535-95.311,95.311-95.311
	s95.311,42.535,95.311,95.311C343.631,300.384,300.308,343.707,248.32,343.707z M248.32,168.052
	c-44.111,0-79.557,35.446-79.557,79.557s35.446,79.557,79.557,79.557s79.557-35.446,79.557-79.557
	C327.877,204.286,291.643,168.052,248.32,168.052z"/>
<path style="fill:#F06151;" d="M248.32,290.932c-23.631,0-42.535-18.905-42.535-42.535s18.905-42.535,42.535-42.535
	s42.535,18.905,42.535,42.535S271.163,290.932,248.32,290.932z"/>
<g>
</g>
<g>
</g>
<g>
</g>
<g>
</g>
<g>
</g>
<g>
</g>
<g>
</g>
<g>
</g>
<g>
</g>
<g>
</g>
<g>
</g>
<g>
</g>
<g>
</g>
<g>
</g>
<g>
</g>
</svg>
