<?xml version="1.0" encoding="iso-8859-1"?>
<!-- Generator: Adobe Illustrator 19.0.0, SVG Export Plug-In . SVG Version: 6.00 Build 0)  -->
<svg version="1.1" id="Capa_1" xmlns="http://www.w3.org/2000/svg" xmlns:xlink="http://www.w3.org/1999/xlink" x="0px" y="0px"
	 viewBox="0 0 504.911 504.911" style="enable-background:new 0 0 504.911 504.911;" xml:space="preserve">
<circle style="fill:#FBBD5E;" cx="252.062" cy="252.455" r="189.046"/>
<polygon style="fill:#E0E4E8;" points="107.126,8.271 7.877,8.271 7.877,185.502 153.6,185.502 153.6,58.683 "/>
<path style="fill:#183651;" d="M153.6,193.378H7.877c-4.726,0-7.877-3.151-7.877-7.877V8.271c0-4.726,3.151-7.877,7.877-7.877
	h99.249c2.363,0,3.938,0.788,5.514,2.363l47.262,50.412c1.575,1.575,1.575,3.938,1.575,5.514v126.818
	C161.477,190.228,158.326,193.378,153.6,193.378z M15.754,177.625h129.969V61.834l-42.535-45.686H15.754V177.625z"/>
<g>
	<polygon style="fill:#FFFFFF;" points="33.871,157.932 33.871,36.628 107.126,36.628 127.606,58.683 127.606,157.932 	"/>
	<polygon style="fill:#FFFFFF;" points="107.126,58.683 153.6,58.683 107.126,8.271 	"/>
</g>
<g>
	<path style="fill:#183651;" d="M153.6,66.56h-47.262c-4.726,0-7.877-3.151-7.877-7.877V8.271c0-3.151,2.363-6.302,4.726-7.089
		c3.151-0.788,6.302-0.788,8.665,1.575l47.262,50.412c2.363,2.363,3.151,5.514,2.363,8.665
		C160.689,64.985,156.751,66.56,153.6,66.56z M115.003,50.806h21.268l-21.268-22.843V50.806z"/>
	<rect x="47.262" y="129.575" style="fill:#183651;" width="15.754" height="14.178"/>
	<rect x="73.255" y="129.575" style="fill:#183651;" width="15.754" height="14.178"/>
	<rect x="99.249" y="129.575" style="fill:#183651;" width="15.754" height="14.178"/>
	<rect x="48.049" y="93.342" style="fill:#183651;" width="65.378" height="15.754"/>
	<rect x="48.049" y="58.683" style="fill:#183651;" width="32.295" height="15.754"/>
</g>
<polygon style="fill:#E0E4E8;" points="448.985,8.271 350.523,8.271 350.523,185.502 496.246,185.502 496.246,58.683 "/>
<path style="fill:#183651;" d="M496.246,193.378H350.523c-4.726,0-7.877-3.151-7.877-7.877V8.271c0-4.726,3.151-7.877,7.877-7.877
	h99.249c2.363,0,3.938,0.788,5.514,2.363l47.262,50.412c1.575,1.575,2.363,3.151,2.363,5.514v126.818
	C504.123,190.228,500.972,193.378,496.246,193.378z M358.4,177.625h129.969V61.834l-42.535-45.686H358.4V177.625z"/>
<g>
	<polygon style="fill:#FFFFFF;" points="376.517,157.932 376.517,36.628 448.985,36.628 470.252,58.683 470.252,157.932 	"/>
	<polygon style="fill:#FFFFFF;" points="448.985,58.683 496.246,58.683 448.985,8.271 	"/>
</g>
<g>
	<path style="fill:#183651;" d="M496.246,66.56h-47.262c-4.726,0-7.877-3.151-7.877-7.877V8.271c0-3.151,2.363-6.302,4.726-7.089
		c3.151-0.788,6.302-0.788,8.665,1.575l47.262,50.412c2.363,2.363,2.363,5.514,1.575,8.665
		C502.548,64.985,499.397,66.56,496.246,66.56z M456.862,50.806h21.268l-21.268-22.843V50.806z"/>
	<rect x="389.12" y="129.575" style="fill:#183651;" width="15.754" height="14.178"/>
	<rect x="415.114" y="129.575" style="fill:#183651;" width="15.754" height="14.178"/>
	<rect x="441.108" y="129.575" style="fill:#183651;" width="15.754" height="14.178"/>
	<rect x="390.695" y="93.342" style="fill:#183651;" width="65.378" height="15.754"/>
	<rect x="390.695" y="58.683" style="fill:#183651;" width="32.295" height="15.754"/>
</g>
<polygon style="fill:#E0E4E8;" points="107.126,319.409 7.877,319.409 7.877,496.64 153.6,496.64 153.6,369.822 "/>
<path style="fill:#183651;" d="M153.6,504.517H7.877c-4.726,0-7.877-3.151-7.877-7.877V319.409c0-4.726,3.151-7.877,7.877-7.877
	h99.249c2.363,0,3.938,0.788,5.514,2.363l47.262,50.412c1.575,1.575,2.363,3.151,2.363,5.514V496.64
	C161.477,501.366,158.326,504.517,153.6,504.517z M15.754,488.763h129.969V372.972l-42.535-45.686H15.754V488.763z"/>
<g>
	<polygon style="fill:#FFFFFF;" points="33.871,468.283 33.871,346.978 107.126,346.978 127.606,369.822 127.606,468.283 	"/>
	<polygon style="fill:#FFFFFF;" points="107.126,369.822 153.6,369.822 107.126,319.409 	"/>
</g>
<g>
	<path style="fill:#183651;" d="M153.6,377.698h-47.262c-4.726,0-7.877-3.151-7.877-7.877v-50.412c0-3.151,2.363-6.302,4.726-7.089
		c3.151-0.788,6.302-0.788,8.665,1.575l47.262,50.412c2.363,2.363,2.363,5.514,1.575,8.665
		C159.902,376.123,156.751,377.698,153.6,377.698z M115.003,361.945h21.268l-21.268-22.843
		C115.003,339.102,115.003,361.945,115.003,361.945z"/>
	<rect x="47.262" y="440.714" style="fill:#183651;" width="15.754" height="14.178"/>
	<rect x="73.255" y="440.714" style="fill:#183651;" width="15.754" height="14.178"/>
	<rect x="99.249" y="440.714" style="fill:#183651;" width="15.754" height="14.178"/>
	<rect x="48.049" y="404.48" style="fill:#183651;" width="65.378" height="15.754"/>
	<rect x="48.049" y="369.822" style="fill:#183651;" width="32.295" height="15.754"/>
</g>
<polygon style="fill:#E0E4E8;" points="448.985,319.409 350.523,319.409 350.523,496.64 496.246,496.64 496.246,369.822 "/>
<path style="fill:#183651;" d="M496.246,504.517H350.523c-4.726,0-7.877-3.151-7.877-7.877V319.409c0-4.726,3.151-7.877,7.877-7.877
	h99.249c2.363,0,3.938,0.788,5.514,2.363l47.262,50.412c1.575,1.575,2.363,3.151,2.363,5.514V496.64
	C504.123,501.366,500.972,504.517,496.246,504.517z M358.4,488.763h129.969V372.972l-42.535-45.686H358.4V488.763z"/>
<g>
	<polygon style="fill:#FFFFFF;" points="376.517,468.283 376.517,346.978 448.985,346.978 470.252,369.822 470.252,468.283 	"/>
	<polygon style="fill:#FFFFFF;" points="448.985,369.822 496.246,369.822 448.985,319.409 	"/>
</g>
<g>
	<path style="fill:#183651;" d="M496.246,377.698h-47.262c-4.726,0-7.877-3.151-7.877-7.877v-50.412
		c0-3.151,2.363-6.302,4.726-7.089c3.151-0.788,6.302-0.788,8.665,1.575l47.262,50.412c2.363,2.363,2.363,5.514,1.575,8.665
		C502.548,376.123,499.397,377.698,496.246,377.698z M456.862,361.945h21.268l-21.268-22.843V361.945z"/>
	<rect x="389.12" y="440.714" style="fill:#183651;" width="15.754" height="14.178"/>
	<rect x="415.114" y="440.714" style="fill:#183651;" width="15.754" height="14.178"/>
	<rect x="441.108" y="440.714" style="fill:#183651;" width="15.754" height="14.178"/>
	<rect x="390.695" y="404.48" style="fill:#183651;" width="65.378" height="15.754"/>
	<rect x="390.695" y="369.822" style="fill:#183651;" width="32.295" height="15.754"/>
	<polygon style="fill:#183651;" points="326.892,327.286 278.055,327.286 278.055,311.532 311.138,311.532 311.138,278.449 
		326.892,278.449 	"/>
	
		<rect x="157.531" y="244.575" transform="matrix(-0.7071 -0.7071 0.7071 -0.7071 251.7724 609.1904)" style="fill:#183651;" width="189.044" height="15.754"/>
	<polygon style="fill:#183651;" points="226.068,327.286 177.231,327.286 177.231,278.449 192.985,278.449 192.985,311.532 
		226.068,311.532 	"/>
	
		<rect x="244.185" y="157.929" transform="matrix(-0.7071 -0.7071 0.7071 -0.7071 251.7858 609.196)" style="fill:#183651;" width="15.754" height="189.044"/>
</g>
<g>
</g>
<g>
</g>
<g>
</g>
<g>
</g>
<g>
</g>
<g>
</g>
<g>
</g>
<g>
</g>
<g>
</g>
<g>
</g>
<g>
</g>
<g>
</g>
<g>
</g>
<g>
</g>
<g>
</g>
</svg>
