<?xml version="1.0" encoding="iso-8859-1"?>
<!-- Generator: Adobe Illustrator 19.0.0, SVG Export Plug-In . SVG Version: 6.00 Build 0)  -->
<svg version="1.1" id="Capa_1" xmlns="http://www.w3.org/2000/svg" xmlns:xlink="http://www.w3.org/1999/xlink" x="0px" y="0px"
	 viewBox="0 0 505.698 505.698" style="enable-background:new 0 0 505.698 505.698;" xml:space="preserve">
<polygon style="fill:#FBBD5E;" points="51.2,438.843 51.2,453.809 66.166,453.022 66.166,467.988 86.646,472.714 454.498,104.074 
	400.935,49.723 32.295,418.363 37.022,438.843 "/>
<g>
	
		<rect x="147.276" y="342.227" transform="matrix(-0.707 -0.7072 0.7072 -0.707 17.251 707.3553)" style="fill:#183651;" width="15.754" height="15.754"/>
	
		<rect x="191.257" y="297.816" transform="matrix(-0.7072 -0.707 0.707 -0.7072 123.8355 662.6694)" style="fill:#183651;" width="15.754" height="15.754"/>
	
		<rect x="235.811" y="252.86" transform="matrix(-0.707 -0.7072 0.7072 -0.707 231.5815 617.4171)" style="fill:#183651;" width="15.754" height="15.754"/>
	
		<rect x="280.333" y="209.017" transform="matrix(-0.7072 -0.707 0.707 -0.7072 338.6877 574.0491)" style="fill:#183651;" width="15.754" height="15.754"/>
	
		<rect x="324.353" y="164.615" transform="matrix(-0.707 -0.7072 0.7072 -0.707 445.1319 529.3992)" style="fill:#183651;" width="15.754" height="15.754"/>
</g>
<path style="fill:#FFFFFF;" d="M365.489,497.132h36.234l3.151-26.782c8.665-2.363,17.329-5.514,24.418-10.24l21.268,16.542
	l25.994-25.994l-16.542-21.268c4.726-7.877,7.877-15.754,10.24-24.418l26.782-3.151v-36.234l-26.782-3.151
	c-2.363-8.665-5.514-17.329-10.24-24.418l16.542-21.268l-25.994-25.994l-21.268,16.542c-7.877-4.726-15.754-7.877-24.418-10.24
	l-3.151-26.782h-36.234l-3.151,26.782c-8.665,2.363-17.329,5.514-24.418,10.24l-21.268-16.542l-25.994,25.994l16.542,21.268
	c-4.726,7.877-7.877,15.754-10.24,24.418l-26.782,3.151v36.234l26.782,3.151c2.363,8.665,5.514,17.329,10.24,24.418l-16.542,21.268
	l25.994,25.994l21.268-16.542c7.877,4.726,15.754,7.877,24.418,10.24L365.489,497.132z"/>
<path style="fill:#183651;" d="M401.723,505.009h-36.234c-3.938,0-7.089-3.151-7.877-7.089l-2.363-22.055
	c-5.514-1.575-11.028-3.938-16.542-7.089l-17.329,13.391c-3.151,2.363-7.877,2.363-10.24-0.788l-25.994-25.994
	c-3.151-3.151-3.151-7.089-0.788-10.24l13.391-17.329c-3.151-5.514-4.726-11.028-7.089-16.542l-22.055-2.363
	c-3.938-0.788-7.089-3.938-7.089-7.877V364.8c0-3.938,3.151-7.089,7.089-7.877l22.055-2.363c1.575-5.514,3.938-11.028,7.089-16.542
	l-13.391-17.329c-2.363-3.151-2.363-7.877,0.788-10.24l25.994-25.994c3.151-3.151,7.089-3.151,10.24-0.788l17.329,13.391
	c5.514-3.151,11.028-4.726,16.542-7.089l2.363-22.055c0.788-3.938,3.938-7.089,7.877-7.089h36.234c3.938,0,7.089,3.151,7.877,7.089
	l2.363,22.055c5.514,1.575,11.028,3.938,16.542,7.089l17.329-13.391c3.151-2.363,7.877-2.363,10.24,0.788l25.994,25.994
	c3.151,3.151,3.151,7.089,0.788,10.24l-13.391,18.117c3.151,5.514,4.726,11.028,7.089,16.542l22.055,2.363
	c3.938,0.788,7.089,3.938,7.089,7.877v36.234c0,3.938-3.151,7.089-7.089,7.877l-22.055,2.363
	c-1.575,5.514-3.938,11.028-7.089,16.542l13.391,17.329c2.363,3.151,2.363,7.877-0.788,10.24l-25.994,25.994
	c-2.363,3.151-7.089,3.151-10.24,0.788l-17.329-13.391c-5.514,3.151-11.028,4.726-16.542,7.089l-2.363,22.055
	C408.812,501.858,405.662,505.009,401.723,505.009z M371.791,489.255h22.843l2.363-19.692c0.788-3.151,2.363-5.514,6.302-6.302
	c7.877-1.575,15.754-4.726,22.055-9.452c3.151-1.575,6.302-1.575,8.665,0.788l15.754,12.603l15.754-15.754l-12.603-15.754
	c-2.363-2.363-2.363-6.302-0.788-8.665c3.938-7.089,7.089-14.178,9.452-22.055c0.788-3.151,3.151-5.514,6.302-6.302l19.692-2.363
	v-22.843l-19.692-2.363c-3.151-0.788-5.514-2.363-6.302-6.302c-1.575-7.877-4.726-15.754-9.452-22.055
	c-1.575-3.151-1.575-6.302,0.788-8.665l12.603-15.754l-15.754-15.754l-15.754,12.603c-2.363,2.363-6.302,2.363-8.665,0.788
	c-7.089-3.938-14.178-7.089-22.055-9.452c-3.151-0.788-5.514-3.151-6.302-6.302l-2.363-19.692h-22.843l-2.363,19.692
	c-0.788,3.151-2.363,5.514-6.302,6.302c-7.877,1.575-15.754,4.726-22.055,9.452c-3.151,1.575-6.302,1.575-8.665-0.788
	l-15.754-12.603l-15.754,15.754l12.603,15.754c2.363,2.363,2.363,6.302,0.788,8.665c-3.938,7.089-7.089,14.178-9.452,22.055
	c-0.788,3.151-3.151,5.514-6.302,6.302l-19.692,2.363v22.843l19.692,2.363c3.151,0.788,5.514,2.363,6.302,6.302
	c1.575,7.877,4.726,15.754,9.452,22.055c1.575,3.151,1.575,6.302-0.788,8.665l-12.603,15.754l15.754,15.754l15.754-12.603
	c2.363-2.363,6.302-2.363,8.665-0.788c7.089,3.938,14.178,7.089,22.055,9.452c3.151,0.788,5.514,3.151,6.302,6.302L371.791,489.255z
	"/>
<circle style="fill:#F06151;" cx="383.606" cy="383.705" r="63.015"/>
<circle style="fill:#FFFFFF;" cx="383.606" cy="383.705" r="22.843"/>
<path style="fill:#183651;" d="M383.606,414.425c-17.329,0-30.72-14.178-30.72-30.72c0-16.542,14.178-30.72,30.72-30.72
	c17.329,0,30.72,14.178,30.72,30.72C414.326,400.246,400.148,414.425,383.606,414.425z M383.606,368.738
	c-8.665,0-14.966,7.089-14.966,14.966c0,8.665,7.089,14.966,14.966,14.966c8.665,0,14.966-7.089,14.966-14.966
	C398.572,375.04,391.483,368.738,383.606,368.738z"/>
<path style="fill:#FFFFFF;" d="M103.975,236.406h36.234l3.151-26.782c8.665-2.363,17.329-5.514,24.418-10.24l21.268,16.542
	l25.994-25.994l-16.542-21.268c4.726-7.877,7.877-15.754,10.24-24.418l26.782-3.151v-36.234l-26.782-3.151
	c-2.363-8.665-5.514-17.329-10.24-24.418l16.542-21.268l-25.994-25.994l-21.268,16.542c-7.877-4.726-15.754-7.877-24.418-10.24
	l-3.151-26.782h-36.234l-3.151,26.782c-8.665,2.363-17.329,5.514-24.418,10.24L55.138,30.031L29.145,55.237l16.542,21.268
	c-4.726,7.877-7.877,15.754-10.24,24.418l-26.782,3.151v36.234l27.569,3.938c2.363,8.665,5.514,17.329,10.24,24.418l-16.542,21.268
	l25.994,25.994l21.268-16.542c7.877,4.726,15.754,7.877,24.418,10.24L103.975,236.406z"/>
<path style="fill:#183651;" d="M140.997,244.283h-36.234c-3.938,0-7.089-3.151-7.877-7.089l-2.363-22.055
	c-5.514-1.575-11.028-3.938-16.542-7.089l-18.117,14.178c-3.151,2.363-7.877,2.363-10.24-0.788l-25.994-25.994
	c-3.151-3.151-3.151-7.089-0.788-10.24l13.391-17.329c-3.151-5.514-4.726-11.028-7.089-16.542l-22.055-2.363
	C3.151,148.185,0,145.034,0,141.095v-36.234c0-3.938,3.151-7.089,7.089-7.877l22.055-2.363c1.575-5.514,3.938-11.028,7.089-16.542
	L22.843,59.963c-2.363-3.151-1.575-7.089,0.788-10.24l25.994-25.994c2.363-2.363,7.089-2.363,10.24,0L77.194,37.12
	c5.514-3.151,11.028-4.726,16.542-7.089l2.363-22.055c0.788-3.938,3.938-7.089,7.877-7.089h36.234c3.938,0,7.089,3.151,7.877,7.089
	l2.363,22.055c5.514,1.575,11.028,3.938,16.542,7.089l17.329-13.391c3.151-2.363,7.877-2.363,10.24,0.788l25.994,25.994
	c3.151,3.151,3.151,7.089,0.788,10.24L207.951,78.08c3.151,5.514,4.726,11.028,7.089,16.542l22.055,2.363
	c3.938,0.788,7.089,3.938,7.089,7.877v36.234c0,3.938-3.151,7.089-7.089,7.877l-22.055,2.363
	c-1.575,5.514-3.938,11.028-7.089,16.542l13.391,17.329c2.363,3.151,2.363,7.877-0.788,10.24L194.56,221.44
	c-3.151,3.151-7.089,3.151-10.24,0.788l-17.329-13.391c-5.514,3.151-11.028,4.726-16.542,7.089l-2.363,22.055
	C148.086,241.132,144.935,244.283,140.997,244.283z M111.065,228.529h22.843l2.363-19.692c0.788-3.151,2.363-5.514,6.302-6.302
	c7.877-1.575,15.754-4.726,22.055-9.452c3.151-1.575,6.302-1.575,8.665,0.788l15.754,12.603L204.8,190.72l-12.603-15.754
	c-2.363-2.363-2.363-6.302-0.788-8.665c3.938-7.089,7.089-14.178,9.452-22.055c0.788-3.151,3.151-5.514,6.302-6.302l19.692-2.363
	v-22.843l-19.692-2.363c-3.151-0.788-5.514-2.363-6.302-6.302c-1.575-7.877-4.726-15.754-9.452-22.055
	c-1.575-3.151-1.575-6.302,0.788-8.665L204.8,57.6l-15.754-15.754l-15.754,12.603c-2.363,2.363-6.302,2.363-8.665,0.788
	c-7.089-3.938-14.178-7.089-22.055-9.452c-3.151-0.788-5.514-3.151-6.302-6.302l-2.363-19.692h-22.843l-2.363,19.692
	c-0.788,3.151-2.363,5.514-6.302,6.302c-7.877,1.575-15.754,4.726-22.055,9.452c-3.151,1.575-6.302,1.575-8.665-0.788L55.926,41.846
	L40.172,57.6l12.603,15.754c2.363,2.363,2.363,6.302,0.788,8.665c-3.938,7.089-7.089,14.178-9.452,22.055
	c-0.788,3.151-3.151,5.514-6.302,6.302l-19.692,2.363v22.843l19.692,2.363c3.151,0.788,5.514,2.363,6.302,6.302
	c1.575,7.877,4.726,15.754,9.452,22.055c1.575,3.151,1.575,6.302-0.788,8.665L40.172,190.72l15.754,15.754l15.754-12.603
	c2.363-2.363,6.302-2.363,8.665-0.788c7.089,3.938,14.178,7.089,22.055,9.452c3.151,0.788,5.514,3.151,6.302,6.302L111.065,228.529z
	"/>
<circle style="fill:#E0E4E8;" cx="122.092" cy="122.978" r="63.015"/>
<circle style="fill:#FFFFFF;" cx="122.092" cy="122.978" r="22.843"/>
<path style="fill:#183651;" d="M122.092,153.698c-17.329,0-30.72-14.178-30.72-30.72s14.178-30.72,30.72-30.72
	s30.72,14.178,30.72,30.72S139.422,153.698,122.092,153.698z M122.092,108.012c-8.665,0-14.966,7.089-14.966,14.966
	s7.089,14.966,14.966,14.966s14.966-7.089,14.966-14.966S130.757,108.012,122.092,108.012z"/>
<path style="fill:#4FBF9F;" d="M446.622,111.951l44.898-44.898c5.514-5.514,5.514-14.966,0-20.48l-33.083-33.871
	c-5.514-5.514-14.966-5.514-20.48,0L393.058,57.6"/>
<g>
	<path style="fill:#183651;" d="M446.622,119.828c-2.363,0-3.938-0.788-5.514-2.363c-3.151-3.151-3.151-7.877,0-11.028
		l44.898-44.898c2.363-2.363,2.363-7.089,0-9.452l-33.083-33.083c-2.363-2.363-7.089-2.363-9.452,0l-44.898,44.111
		c-3.151,3.151-7.877,3.151-11.028,0c-3.151-3.151-3.151-7.877,0-11.028l44.898-44.898c8.665-8.665,22.843-8.665,31.508,0
		l33.083,33.083c8.665,8.665,8.665,22.843,0,31.508l-44.898,44.898C451.348,119.04,448.985,119.828,446.622,119.828z"/>
	<path style="fill:#183651;" d="M3.151,501.071c-2.363-2.363-3.151-4.726-2.363-7.877l21.268-75.618
		c0-1.575,0.788-2.363,2.363-3.151L387.545,52.086c3.151-3.151,7.877-3.151,11.028,0c3.151,3.151,3.151,7.877,0,11.028
		L37.022,424.665L20.48,484.529L80.345,467.2l0.788-0.788l360.763-360.763c3.151-3.151,7.877-3.151,11.028,0
		c3.151,3.151,3.151,7.877,0,11.028L89.797,479.803c-0.788,0.788-2.363,1.575-3.151,2.363l-75.618,21.268
		C8.665,504.222,5.514,503.434,3.151,501.071z"/>
</g>
<g>
</g>
<g>
</g>
<g>
</g>
<g>
</g>
<g>
</g>
<g>
</g>
<g>
</g>
<g>
</g>
<g>
</g>
<g>
</g>
<g>
</g>
<g>
</g>
<g>
</g>
<g>
</g>
<g>
</g>
</svg>
