<?xml version="1.0" encoding="iso-8859-1"?>
<!-- Generator: Adobe Illustrator 19.0.0, SVG Export Plug-In . SVG Version: 6.00 Build 0)  -->
<svg version="1.1" id="Capa_1" xmlns="http://www.w3.org/2000/svg" xmlns:xlink="http://www.w3.org/1999/xlink" x="0px" y="0px"
	 viewBox="0 0 504.155 504.155" style="enable-background:new 0 0 504.155 504.155;" xml:space="preserve">
<circle style="fill:#2CA0DA;" cx="252.062" cy="252.093" r="252.062"/>
<path style="fill:#FFFFFF;" d="M348.16,249.73H200.074v-29.145c0-11.028-8.665-19.692-19.692-19.692H53.563
	c-11.028,0-19.692,8.665-19.692,19.692v215.04c0,11.028,8.665,19.692,19.692,19.692H348.16c11.028,0,19.692-8.665,19.692-19.692
	V268.635C367.065,258.395,358.4,249.73,348.16,249.73z"/>
<path style="fill:#183651;" d="M348.16,462.407H53.563c-14.966,0-27.569-12.603-27.569-27.569v-215.04
	c0-14.966,12.603-27.569,27.569-27.569h127.606c14.966,0,27.569,12.603,27.569,27.569v21.268h140.209
	c14.966,0,27.569,12.603,27.569,27.569v166.203C374.942,449.804,363.126,462.407,348.16,462.407z M53.563,208.77
	c-6.302,0-11.815,5.514-11.815,11.815v215.04c0,6.302,5.514,11.815,11.815,11.815H348.16c6.302,0,11.815-5.514,11.815-11.815
	V268.635c0-6.302-5.514-11.815-11.815-11.815H200.074c-4.726,0-7.877-3.151-7.877-7.877v-29.145c0-6.302-5.514-11.815-11.815-11.815
	H53.563V208.77z"/>
<path style="fill:#FFFFFF;" d="M348.16,291.478H174.08v-29.145c0-11.028-8.665-19.692-19.692-19.692H27.569
	c-11.028,0-19.692,8.665-19.692,19.692v214.252c0,11.028,8.665,19.692,19.692,19.692H348.16c11.028,0,19.692-8.665,19.692-19.692
	V310.383C367.065,300.143,358.4,291.478,348.16,291.478z"/>
<path style="fill:#183651;" d="M348.16,504.155H27.569C12.603,504.155,0,491.552,0,476.586v-215.04
	c0-14.966,12.603-27.569,27.569-27.569h127.606c14.966,0,27.569,12.603,27.569,27.569v21.268h166.203
	c14.966,0,27.569,12.603,27.569,27.569v166.203C374.942,491.552,363.126,504.155,348.16,504.155z M27.569,250.518
	c-6.302,0-11.815,5.514-11.815,11.815v214.252c0,6.302,5.514,11.815,11.815,11.815H348.16c6.302,0,11.815-5.514,11.815-11.815
	V310.383c0-6.302-5.514-11.815-11.815-11.815H174.08c-4.726,0-7.877-3.151-7.877-7.877v-29.145c0-6.302-5.514-11.815-11.815-11.815
	H27.569V250.518z"/>
<path style="fill:#FBBD5E;" d="M319.803,322.986H142.572v-33.083c0-8.665-7.089-15.754-15.754-15.754h-71.68
	c-8.665,0-15.754,7.089-15.754,15.754v159.114c0,8.665,7.089,15.754,15.754,15.754h264.665c8.665,0,15.754-7.089,15.754-15.754
	V338.74C335.557,330.075,328.468,322.986,319.803,322.986z"/>
<g>
	<rect x="63.015" y="428.537" style="fill:#FFFFFF;" width="77.194" height="12.603"/>
	<rect x="63.015" y="403.33" style="fill:#FFFFFF;" width="77.194" height="12.603"/>
</g>
<path style="fill:#E1E6E7;" d="M409.6,7.909H261.514c-13.391,0-23.631,10.24-23.631,23.631v301.686
	c0,13.391,10.24,23.631,23.631,23.631h211.102c13.391,0,23.631-10.24,23.631-23.631V94.555L409.6,7.909z"/>
<path style="fill:#183651;" d="M472.615,364.733H261.514c-17.329,0-31.508-14.178-31.508-31.508V31.54
	c0-17.329,14.178-31.508,31.508-31.508H409.6c2.363,0,3.938,0.788,5.514,2.363l86.646,86.646c1.575,1.575,2.363,3.151,2.363,5.514
	v238.671C504.123,350.555,489.945,364.733,472.615,364.733z M261.514,15.786c-8.665,0-15.754,7.089-15.754,15.754v301.686
	c0,8.665,7.089,15.754,15.754,15.754h211.102c8.665,0,15.754-7.089,15.754-15.754V97.706l-81.92-81.92H261.514z"/>
<polygon style="fill:#FFFFFF;" points="269.391,325.349 269.391,39.417 409.6,39.417 464.738,94.555 464.738,325.349 "/>
<path style="fill:#F06151;" d="M433.231,94.555h63.015L409.6,7.909v63.015C409.6,84.315,420.628,94.555,433.231,94.555z"/>
<g>
	<path style="fill:#183651;" d="M496.246,102.432h-63.015c-17.329,0-31.508-14.178-31.508-31.508V7.909
		c0-3.151,1.575-6.302,4.726-7.089c3.151-1.575,6.302-0.788,8.665,1.575l86.646,86.646c2.363,2.363,3.151,5.514,1.575,8.665
		C502.548,100.857,499.397,102.432,496.246,102.432z M417.477,26.813v44.111c0,8.665,7.089,15.754,15.754,15.754h44.111
		L417.477,26.813z"/>
	<rect x="341.071" y="135.515" style="fill:#183651;" width="15.754" height="15.754"/>
	<rect x="385.969" y="135.515" style="fill:#183651;" width="15.754" height="15.754"/>
	<rect x="430.08" y="135.515" style="fill:#183651;" width="15.754" height="15.754"/>
	<rect x="341.071" y="180.413" style="fill:#183651;" width="104.763" height="15.754"/>
	<rect x="341.071" y="225.312" style="fill:#183651;" width="104.763" height="15.754"/>
	<rect x="341.071" y="269.423" style="fill:#183651;" width="104.763" height="15.754"/>
</g>
<g>
</g>
<g>
</g>
<g>
</g>
<g>
</g>
<g>
</g>
<g>
</g>
<g>
</g>
<g>
</g>
<g>
</g>
<g>
</g>
<g>
</g>
<g>
</g>
<g>
</g>
<g>
</g>
<g>
</g>
</svg>
