<?xml version="1.0" encoding="iso-8859-1"?>
<!-- Generator: Adobe Illustrator 19.0.0, SVG Export Plug-In . SVG Version: 6.00 Build 0)  -->
<svg version="1.1" id="Capa_1" xmlns="http://www.w3.org/2000/svg" xmlns:xlink="http://www.w3.org/1999/xlink" x="0px" y="0px"
	 viewBox="0 0 503.875 503.875" style="enable-background:new 0 0 503.875 503.875;" xml:space="preserve">
<circle style="fill:#2EA0DA;" cx="253.28" cy="123.544" r="121.305"/>
<polygon style="fill:#F06151;" points="268.246,458.313 268.246,381.119 236.738,381.119 236.738,458.313 221.772,458.313 
	252.492,500.848 283.212,458.313 "/>
<polygon style="fill:#E0E4E8;" points="8.307,65.254 217.833,301.562 217.833,393.722 287.15,427.593 287.15,301.562 
	496.677,65.254 "/>
<g>
	<path style="fill:#183651;" d="M287.15,435.47c-3.938,0-7.877-3.151-7.877-7.877V301.562c0-1.575,0.788-3.938,1.575-5.514
		L490.375,59.741c3.151-3.151,7.877-3.151,11.028-0.788c3.151,3.151,3.151,7.877,0.788,11.028L295.027,304.713v122.88
		C295.027,431.531,291.877,435.47,287.15,435.47z"/>
	<path style="fill:#183651;" d="M217.833,400.811c-3.938,0-7.877-3.151-7.877-7.877v-88.222L2.006,70.768
		c-3.151-3.151-2.363-7.877,0.788-11.028c3.151-3.151,7.877-2.363,11.028,0.788l209.526,236.308
		c1.575,1.575,1.575,3.151,1.575,5.514v91.372C225.71,397.661,221.772,400.811,217.833,400.811z"/>
</g>
<circle style="fill:#FFFFFF;" cx="252.492" cy="125.119" r="90.585"/>
<path style="fill:#183651;" d="M252.492,222.793c-54.351,0-98.462-44.111-98.462-98.462s44.111-98.462,98.462-98.462
	c54.351,0.788,98.462,44.898,98.462,99.249C350.953,178.682,306.843,222.793,252.492,222.793z M252.492,42.411
	c-45.686,0-82.708,37.022-82.708,82.708s37.022,82.708,82.708,82.708s82.708-37.022,82.708-82.708S298.178,42.411,252.492,42.411z"
	/>
<path style="fill:#2EA0DA;" d="M280.061,69.981c-8.665-3.938-17.329-6.302-27.569-6.302c-17.329,0-32.295,7.089-43.323,18.117
	l43.323,43.323L280.061,69.981z"/>
<path style="fill:#F06151;" d="M314.72,125.119L314.72,125.119c0-24.418-14.178-44.898-34.658-55.138l-27.569,55.138H314.72z"/>
<path style="fill:#FBBD5E;" d="M252.492,125.119l-43.323-44.111c-11.028,11.028-18.117,26.782-18.117,43.323
	c0,33.871,27.569,61.44,61.44,61.44s61.44-27.569,61.44-61.44h-61.44V125.119z"/>
<g>
	<rect x="244.615" y="258.239" style="fill:#183651;" width="15.754" height="15.754"/>
	<rect x="244.615" y="307.864" style="fill:#183651;" width="15.754" height="15.754"/>
	<rect x="244.615" y="358.276" style="fill:#183651;" width="15.754" height="15.754"/>
	<rect x="454.929" y="197.587" style="fill:#183651;" width="15.754" height="148.086"/>
	<rect x="406.092" y="240.91" style="fill:#183651;" width="15.754" height="148.086"/>
	<rect x="357.255" y="283.445" style="fill:#183651;" width="15.754" height="148.086"/>
	<rect x="454.929" y="369.304" style="fill:#183651;" width="15.754" height="15.754"/>
	<rect x="454.929" y="400.024" style="fill:#183651;" width="15.754" height="15.754"/>
	<rect x="406.092" y="411.839" style="fill:#183651;" width="15.754" height="15.754"/>
	<rect x="406.092" y="442.559" style="fill:#183651;" width="15.754" height="15.754"/>
	<rect x="357.255" y="454.374" style="fill:#183651;" width="15.754" height="15.754"/>
	<rect x="357.255" y="485.882" style="fill:#183651;" width="15.754" height="15.754"/>
	<rect x="34.301" y="197.587" style="fill:#183651;" width="15.754" height="148.086"/>
	<rect x="83.138" y="240.91" style="fill:#183651;" width="15.754" height="148.086"/>
	<rect x="131.975" y="283.445" style="fill:#183651;" width="15.754" height="148.086"/>
	<rect x="34.301" y="369.304" style="fill:#183651;" width="15.754" height="15.754"/>
	<rect x="34.301" y="400.024" style="fill:#183651;" width="15.754" height="15.754"/>
	<rect x="83.138" y="411.839" style="fill:#183651;" width="15.754" height="15.754"/>
	<rect x="83.138" y="442.559" style="fill:#183651;" width="15.754" height="15.754"/>
	<rect x="131.975" y="454.374" style="fill:#183651;" width="15.754" height="15.754"/>
	<rect x="131.975" y="485.882" style="fill:#183651;" width="15.754" height="15.754"/>
</g>
<g>
</g>
<g>
</g>
<g>
</g>
<g>
</g>
<g>
</g>
<g>
</g>
<g>
</g>
<g>
</g>
<g>
</g>
<g>
</g>
<g>
</g>
<g>
</g>
<g>
</g>
<g>
</g>
<g>
</g>
</svg>
