<?xml version="1.0" encoding="iso-8859-1"?>
<!-- Generator: Adobe Illustrator 19.0.0, SVG Export Plug-In . SVG Version: 6.00 Build 0)  -->
<svg version="1.1" id="Capa_1" xmlns="http://www.w3.org/2000/svg" xmlns:xlink="http://www.w3.org/1999/xlink" x="0px" y="0px"
	 viewBox="0 0 504.123 504.123" style="enable-background:new 0 0 504.123 504.123;" xml:space="preserve">
<circle style="fill:#E0E4E8;" cx="256.788" cy="129.182" r="125.243"/>
<path style="fill:#FFFFFF;" d="M240.246,229.218h32.295l3.151-23.631c7.877-1.575,14.966-4.726,21.268-8.665l18.905,14.966
	l22.843-22.843l-14.966-18.905c3.938-6.302,7.089-14.178,8.665-21.268l23.631-3.151v-32.295l-23.631-3.151
	c-1.575-7.877-4.726-14.966-8.665-21.268l14.966-18.905l-22.843-22.843L296.96,62.228c-6.302-3.938-14.178-7.089-21.268-8.665
	l-3.151-23.631h-32.295l-3.151,23.631c-7.877,1.575-14.966,4.726-21.268,8.665l-18.905-14.966L174.08,70.105l14.966,18.905
	c-3.938,6.302-7.089,14.178-8.665,21.268l-23.631,3.151v32.295l23.631,3.151c1.575,7.877,4.726,14.966,8.665,21.268l-14.966,18.905
	l22.843,22.843l18.905-14.966c6.302,3.938,14.178,7.089,21.268,8.665L240.246,229.218z"/>
<path style="fill:#183651;" d="M272.542,237.095h-32.295c-3.938,0-7.089-3.151-7.877-7.089l-2.363-18.905
	c-4.726-1.575-9.452-3.151-14.178-5.514l-14.966,11.815c-3.151,2.363-7.877,2.363-10.24-0.788l-21.268-22.843
	c-3.151-3.151-3.151-7.089-0.788-10.24l11.815-14.966c-2.363-4.726-3.938-8.665-5.514-14.178l-18.905-2.363
	c-3.938-0.788-7.089-3.938-7.089-7.877v-32.295c0-3.938,3.151-7.089,7.089-7.877l18.905-2.363c1.575-4.726,3.151-9.452,5.514-14.178
	l-11.815-12.603c-2.363-3.151-2.363-7.877,0.788-10.24l22.843-22.843c3.151-3.151,7.089-3.151,10.24-0.788l14.178,11.815
	c4.726-2.363,8.665-3.938,14.178-5.514l2.363-18.905c0.788-3.938,3.938-7.089,7.877-7.089h32.295c3.938,0,7.089,3.151,7.877,7.089
	l2.363,18.905c4.726,1.575,9.452,3.151,14.178,5.514l13.391-11.815c3.151-2.363,7.877-2.363,10.24,0.788l22.843,22.843
	c3.151,3.151,3.151,7.089,0.788,10.24l-11.815,14.966c2.363,4.726,3.938,9.452,5.514,14.178l18.905,2.363
	c3.938,0.788,7.089,3.938,7.089,7.877v32.295c0,3.938-3.151,7.089-7.089,7.877l-18.905,2.363c-1.575,4.726-3.151,9.452-5.514,14.178
	l11.815,14.966c2.363,3.151,2.363,7.877-0.788,10.24l-22.843,20.48c-3.151,3.151-7.089,3.151-10.24,0.788l-14.966-11.815
	c-4.726,2.363-8.665,3.938-14.178,5.514l-2.363,18.905C279.631,233.945,276.48,237.095,272.542,237.095z M247.335,221.342h18.117
	l2.363-16.542c0-3.151,2.363-5.514,5.514-6.302c7.089-1.575,13.391-4.726,19.692-7.877c3.151-1.575,6.302-1.575,8.665,0.788
	l13.391,10.24l12.603-12.603l-10.24-13.391c-2.363-2.363-2.363-6.302-0.788-8.665c3.938-6.302,6.302-12.603,7.877-19.692
	c0.788-3.151,3.151-5.514,6.302-5.514l16.542-2.363v-18.117l-16.542-2.363c-3.151-0.788-5.514-2.363-6.302-5.514
	c-1.575-7.089-4.726-13.391-7.877-19.692c-1.575-2.363-1.575-6.302,0.788-8.665l10.24-13.391l-12.603-12.603l-13.391,10.24
	c-2.363,2.363-6.302,2.363-8.665,0.788c-6.302-3.938-12.603-6.302-19.692-7.877c-3.151-0.788-5.514-3.151-5.514-6.302l-2.363-17.329
	h-18.117l-2.363,17.329c0,3.151-2.363,5.514-5.514,6.302c-7.089,1.575-13.391,4.726-19.692,7.877
	c-2.363,1.575-6.302,1.575-8.665-0.788l-13.391-10.24l-12.603,11.028l10.24,13.391c2.363,2.363,2.363,6.302,0.788,8.665
	c-3.938,6.302-6.302,12.603-7.877,19.692c-0.788,3.151-3.151,5.514-6.302,5.514l-16.542,2.363v18.117l16.542,2.363
	c3.151,0.788,5.514,2.363,6.302,5.514c1.575,7.089,4.726,13.391,7.877,19.692c1.575,2.363,1.575,6.302-0.788,8.665l-10.24,14.178
	l12.603,12.603l13.391-10.24c2.363-2.363,6.302-2.363,8.665-0.788c6.302,3.938,12.603,6.302,19.692,7.877
	c3.151,0.788,5.514,3.151,5.514,6.302L247.335,221.342z"/>
<circle style="fill:#2EA0DA;" cx="256.788" cy="129.182" r="57.502"/>
<circle style="fill:#FFFFFF;" cx="256.788" cy="129.182" r="28.357"/>
<g>
	<path style="fill:#183651;" d="M256.788,165.415c-19.692,0-36.234-15.754-36.234-36.234c0-19.692,15.754-36.234,36.234-36.234
		c20.48,0,36.234,15.754,36.234,36.234C292.234,148.874,276.48,165.415,256.788,165.415z M256.788,108.702
		c-11.028,0-20.48,9.452-20.48,20.48s9.452,20.48,20.48,20.48c11.028,0,20.48-9.452,20.48-20.48
		C277.268,118.154,267.815,108.702,256.788,108.702z"/>
	<rect x="434.806" y="49.625" style="fill:#183651;" width="15.754" height="15.754"/>
	<rect x="434.806" y="93.735" style="fill:#183651;" width="15.754" height="15.754"/>
	<rect x="434.806" y="137.058" style="fill:#183651;" width="15.754" height="15.754"/>
	<rect x="71.68" y="49.625" style="fill:#183651;" width="15.754" height="15.754"/>
	<rect x="71.68" y="93.735" style="fill:#183651;" width="15.754" height="15.754"/>
	<rect x="71.68" y="137.058" style="fill:#183651;" width="15.754" height="15.754"/>
</g>
<g>
	<path style="fill:#183651;" d="M256.788,500.185c-3.938,0-7.877-3.151-7.877-7.877V229.218c0-3.938,3.151-7.877,7.877-7.877
		c3.938,0,7.877,3.151,7.877,7.877v263.089C264.665,497.034,260.726,500.185,256.788,500.185z"/>
	<path style="fill:#183651;" d="M256.788,500.185c-2.363,0-4.726-0.788-6.302-3.151l-34.658-44.111
		c-2.363-3.151-2.363-7.877,1.575-11.028c3.151-2.363,7.877-2.363,11.028,1.575l28.357,36.234l28.357-36.234
		c2.363-3.151,7.877-3.938,11.028-1.575c3.151,2.363,3.938,7.877,1.575,11.028l-34.658,44.111
		C261.514,499.397,259.151,500.185,256.788,500.185z"/>
</g>
<rect x="389.12" y="218.978" style="fill:#F06151;" width="107.126" height="107.126"/>
<path style="fill:#183651;" d="M496.246,334.769H389.12c-3.938,0-7.877-3.151-7.877-7.877V218.978c0-3.938,3.151-7.877,7.877-7.877
	h107.126c3.938,0,7.877,3.151,7.877,7.877v107.914C504.123,330.831,500.972,334.769,496.246,334.769z M396.997,319.015h92.16v-92.16
	h-92.16V319.015z"/>
<rect x="419.84" y="250.486" style="fill:#FFFFFF;" width="45.686" height="45.686"/>
<rect x="28.692" y="222.014" transform="matrix(0.7071 -0.7071 0.7071 0.7071 -169.6284 136.1207)" style="fill:#FBBD5E;" width="101.611" height="101.611"/>
<path style="fill:#183651;" d="M79.557,352.098c-2.363,0-3.938-0.788-5.514-2.363l-71.68-71.68c-3.151-3.151-3.151-7.877,0-11.028
	l71.68-71.68c3.151-3.151,7.877-3.151,11.028,0l71.68,71.68c3.151,3.151,3.151,7.877,0,11.028l-71.68,71.68
	C83.495,351.311,81.132,352.098,79.557,352.098z M18.905,272.542l60.652,60.652l60.652-60.652l-60.652-60.652L18.905,272.542z"/>
<rect x="59.223" y="253.099" transform="matrix(0.7072 -0.7071 0.7071 0.7072 -169.7692 135.6841)" style="fill:#FFFFFF;" width="39.387" height="39.387"/>
<path style="fill:#183651;" d="M442.683,399.36H79.557c-3.938,0-7.877-3.151-7.877-7.877v-47.262c0-3.938,3.151-7.877,7.877-7.877
	s7.877,3.151,7.877,7.877v39.385h348.16v-56.714c0-3.938,3.151-7.877,7.877-7.877c3.938,0,7.877,3.151,7.877,7.877v65.378
	C450.56,396.209,446.622,399.36,442.683,399.36z"/>
<g>
</g>
<g>
</g>
<g>
</g>
<g>
</g>
<g>
</g>
<g>
</g>
<g>
</g>
<g>
</g>
<g>
</g>
<g>
</g>
<g>
</g>
<g>
</g>
<g>
</g>
<g>
</g>
<g>
</g>
</svg>
