<?xml version="1.0" encoding="iso-8859-1"?>
<!-- Generator: Adobe Illustrator 19.0.0, SVG Export Plug-In . SVG Version: 6.00 Build 0)  -->
<svg version="1.1" id="Capa_1" xmlns="http://www.w3.org/2000/svg" xmlns:xlink="http://www.w3.org/1999/xlink" x="0px" y="0px"
	 viewBox="0 0 504.123 504.123" style="enable-background:new 0 0 504.123 504.123;" xml:space="preserve">
<circle style="fill:#F06151;" cx="219.766" cy="284.357" r="219.766"/>
<path style="fill:#E0E4E8;" d="M204.012,94.523c117.366-9.452,214.252,88.222,204.8,204.8c-7.089,92.16-81.92,166.991-174.08,174.08
	c-117.366,9.452-214.252-88.222-204.8-204.8C37.809,176.443,111.852,101.612,204.012,94.523z"/>
<path style="fill:#183651;" d="M219.766,482.068c-108.702,0-197.711-89.009-197.711-197.711S111.065,86.646,219.766,86.646
	s197.711,89.009,197.711,197.711c0,52.775-20.48,102.4-58.289,140.209C322.166,461.588,272.542,482.068,219.766,482.068z
	 M219.766,101.612c-100.825,0-182.745,81.92-182.745,182.745s81.92,182.745,182.745,182.745c48.837,0,94.523-18.905,129.182-53.563
	s53.563-80.345,53.563-129.182C402.511,183.532,320.591,101.612,219.766,101.612z"/>
<g>
	<path style="fill:#FFFFFF;" d="M219.766,444.258c-88.222,0-159.902-71.68-159.902-159.902s71.68-159.902,159.902-159.902
		s159.902,71.68,159.902,159.902S307.988,444.258,219.766,444.258z"/>
	<path style="fill:#FFFFFF;" d="M254.425,55.138v42.535c-11.028-2.363-22.843-3.151-34.658-3.151
		c-11.815,0-23.631,0.788-35.446,3.151V55.138H254.425z"/>
</g>
<path style="fill:#183651;" d="M262.302,106.338l-8.665-1.575c-21.268-3.938-44.898-3.938-66.954,0l-9.452,1.575V47.262h85.071
	V106.338z M192.197,62.228v25.994c18.905-2.363,37.809-2.363,55.138,0V62.228H192.197z"/>
<rect x="161.477" y="7.877" style="fill:#FFFFFF;" width="115.791" height="47.262"/>
<path style="fill:#183651;" d="M285.145,62.228H154.388V0h130.757V62.228z M169.354,47.262h100.825V14.966H169.354V47.262z"/>
<rect x="147.957" y="386.882" transform="matrix(-0.8661 -0.4999 0.4999 -0.8661 91.9402 817.2974)" style="fill:#183651;" width="14.966" height="18.905"/>
<rect x="276.544" y="162.871" transform="matrix(-0.8661 -0.4999 0.4999 -0.8661 443.8772 463.5537)" style="fill:#183651;" width="14.966" height="18.905"/>
<rect x="211.889" y="404.086" style="fill:#183651;" width="14.966" height="18.905"/>
<rect x="211.889" y="145.723" style="fill:#183651;" width="14.966" height="18.905"/>
<rect x="275.076" y="388.468" transform="matrix(-0.4999 -0.8661 0.8661 -0.4999 83.8341 840.3101)" style="fill:#183651;" width="18.905" height="14.966"/>
<rect x="146.14" y="164.732" transform="matrix(-0.5 -0.866 0.866 -0.5 84.2486 393.0697)" style="fill:#183651;" width="18.904" height="14.966"/>
<rect x="98.637" y="211.867" transform="matrix(-0.866 -0.5 0.5 -0.866 92.0185 463.3558)" style="fill:#183651;" width="18.904" height="14.966"/>
<rect x="339.495" y="276.48" style="fill:#183651;" width="18.905" height="14.966"/>
<rect x="81.132" y="276.48" style="fill:#183651;" width="18.905" height="14.966"/>
<rect x="323.895" y="210.012" transform="matrix(-0.4999 -0.8661 0.8661 -0.4999 306.9563 616.1758)" style="fill:#183651;" width="14.966" height="18.905"/>
<rect x="100.567" y="339.633" transform="matrix(-0.4999 -0.8661 0.8661 -0.4999 -140.2747 617.171)" style="fill:#183651;" width="14.966" height="18.905"/>
<path style="fill:#FFFFFF;" d="M235.52,260.726c17.329,11.815,17.329,36.234,0,48.049c-9.452,6.302-22.055,6.302-31.508,0
	c-17.329-11.815-17.329-36.234,0-48.049C213.465,253.637,226.068,253.637,235.52,260.726z"/>
<path style="fill:#183651;" d="M219.766,320.591c-9.452,0-18.905-3.938-25.206-10.24c-14.178-14.178-14.178-37.022,0-51.2
	c7.089-7.089,15.754-10.24,25.206-10.24c9.452,0,18.905,3.938,25.206,10.24c14.178,14.178,14.178,37.022,0,51.2
	C238.671,316.652,229.218,320.591,219.766,320.591z M219.766,263.089c-5.514,0-11.028,2.363-14.966,6.302
	c-7.877,7.877-7.877,21.268,0,29.932c7.877,7.877,22.055,7.877,29.932,0s7.877-21.268,0-29.932
	C230.794,265.452,225.28,263.089,219.766,263.089z"/>
<rect x="211.889" y="186.683" style="fill:#183651;" width="14.966" height="69.317"/>
<rect x="248.123" y="276.48" style="fill:#183651;" width="48.049" height="14.966"/>
<path style="fill:#FBBD5E;" d="M495.458,373.366c9.452,59.077-40.172,109.489-99.249,99.249
	c-35.446-5.514-64.591-34.658-70.105-70.105c-10.24-58.289,40.172-108.702,99.249-99.249
	C460.8,309.563,489.157,337.92,495.458,373.366z"/>
<g>
	<path style="fill:#183651;" d="M410.388,482.068c-51.988,0-93.735-41.748-93.735-93.735s41.748-93.735,93.735-93.735
		s93.735,41.748,93.735,93.735S462.375,482.068,410.388,482.068z M410.388,309.563c-43.323,0-78.769,35.446-78.769,78.769
		s35.446,78.769,78.769,78.769s78.769-35.446,78.769-78.769S453.711,309.563,410.388,309.563z"/>
	<path style="fill:#183651;" d="M385.969,400.148c3.938-2.363,7.877-5.514,10.24-7.089c2.363-2.363,4.726-4.726,7.089-7.877
		c2.363-3.151,3.151-6.302,3.151-9.452c0-3.938-0.788-7.089-2.363-9.452c-1.575-2.363-3.938-4.726-7.089-6.302
		c-3.151-1.575-6.302-2.363-10.24-2.363c-7.089,0-13.391,1.575-18.905,4.726c-1.575,0.788-2.363,2.363-2.363,4.726
		c0,1.575,0.788,2.363,1.575,3.151c1.575,1.575,3.938,1.575,5.514,0.788c3.938-1.575,8.665-3.151,13.391-3.151
		c3.938,0,7.089,0.788,8.665,2.363c1.575,1.575,2.363,3.938,2.363,6.302c0,1.575-0.788,3.151-1.575,4.726
		c-1.575,1.575-2.363,3.151-4.726,4.726c-1.575,1.575-4.726,3.151-7.877,5.514c-3.938,2.363-7.089,4.726-9.452,6.302
		c-2.363,1.575-4.726,3.938-6.302,6.302s-3.151,5.514-3.151,8.665c0,1.575,0.788,3.151,1.575,3.938
		c0.788,0.788,2.363,1.575,3.938,1.575h31.508c1.575,0,2.363-0.788,3.938-1.575c0.788-0.788,0.788-1.575,0.788-3.151
		c0-1.575-0.788-2.363-1.575-3.938l0,0c-0.788-0.788-2.363-1.575-3.938-1.575h-25.206c0.788-0.788,1.575-1.575,2.363-1.575
		C379.668,404.874,382.031,403.298,385.969,400.148z"/>
	<path style="fill:#183651;" d="M463.163,396.209c-0.788-0.788-2.363-1.575-3.151-1.575h-4.726v-29.932
		c0-1.575-0.788-3.151-1.575-4.726c-1.575-1.575-3.151-1.575-5.514-1.575h-1.575c-0.788,0-2.363,0-3.151,0.788
		c-0.788,0.788-1.575,0.788-2.363,1.575l-25.206,32.295c-0.788,0.788-1.575,2.363-1.575,3.938v0.788
		c0,1.575,0.788,3.151,1.575,4.726c1.575,1.575,2.363,1.575,4.726,1.575h23.631v9.452c0,1.575,0.788,2.363,1.575,3.938
		c0.788,0.788,2.363,1.575,3.938,1.575c1.575,0,2.363-0.788,3.938-1.575c0.788-0.788,1.575-2.363,1.575-3.938v-9.452h4.726
		c1.575,0,2.363-0.788,3.151-1.575c0.788-0.788,1.575-2.363,1.575-3.151C464.738,397.785,463.951,396.997,463.163,396.209z
		 M444.258,372.578v22.055h-16.542L444.258,372.578z"/>
</g>
<g>
</g>
<g>
</g>
<g>
</g>
<g>
</g>
<g>
</g>
<g>
</g>
<g>
</g>
<g>
</g>
<g>
</g>
<g>
</g>
<g>
</g>
<g>
</g>
<g>
</g>
<g>
</g>
<g>
</g>
</svg>
