<?xml version="1.0" encoding="iso-8859-1"?>
<!-- Generator: Adobe Illustrator 19.0.0, SVG Export Plug-In . SVG Version: 6.00 Build 0)  -->
<svg version="1.1" id="Capa_1" xmlns="http://www.w3.org/2000/svg" xmlns:xlink="http://www.w3.org/1999/xlink" x="0px" y="0px"
	 viewBox="0 0 504.123 504.123" style="enable-background:new 0 0 504.123 504.123;" xml:space="preserve">
<circle style="fill:#E0E4E8;" cx="176.443" cy="327.286" r="176.443"/>
<path style="fill:#4FBF9F;" d="M464.738,7.483H118.942c-17.329,0-31.508,14.178-31.508,31.508V220.16
	c0,17.329,14.178,31.508,31.508,31.508h230.794v86.646l91.372-86.646h23.631c17.329,0,31.508-14.178,31.508-31.508V38.991
	C496.246,21.662,482.068,7.483,464.738,7.483z"/>
<path style="fill:#183651;" d="M346.585,346.191c-3.151-1.575-4.726-3.938-4.726-7.089v-78.769H118.942
	c-22.055,0-39.385-17.329-39.385-39.385V39.778c0-22.055,17.329-39.385,39.385-39.385h345.797c22.055,0,39.385,17.329,39.385,39.385
	v181.169c0,22.055-17.329,39.385-39.385,39.385h-20.48l-89.009,84.283C352.886,346.191,348.948,346.978,346.585,346.191z
	 M118.942,15.36c-13.391,0-23.631,10.24-23.631,23.631V220.16c0,13.391,10.24,23.631,23.631,23.631h230.794
	c4.726,0,7.877,3.151,7.877,7.877v68.529l77.982-74.043c1.575-1.575,3.151-2.363,5.514-2.363h23.631
	c13.391,0,23.631-10.24,23.631-23.631V38.991c0-13.391-10.24-23.631-23.631-23.631L118.942,15.36L118.942,15.36z"/>
<polygon style="fill:#FFFFFF;" points="381.243,220.16 118.942,220.16 118.942,38.991 464.738,38.991 464.738,220.16 
	428.505,220.16 381.243,265.058 "/>
<g>
	<polygon style="fill:#FBBD5E;" points="170.142,128.788 153.6,112.246 176.443,109.095 187.471,87.828 197.711,109.095 
		221.342,112.246 204.012,128.788 207.951,151.631 187.471,140.603 166.203,151.631 	"/>
	<polygon style="fill:#FBBD5E;" points="274.905,128.788 258.363,112.246 281.206,109.095 291.446,87.828 302.474,109.095 
		325.317,112.246 308.775,128.788 312.714,151.631 291.446,140.603 270.966,151.631 	"/>
	<polygon style="fill:#FBBD5E;" points="379.668,128.788 362.338,112.246 385.969,109.095 396.209,87.828 406.449,109.095 
		430.08,112.246 413.538,128.788 417.477,151.631 396.209,140.603 375.729,151.631 	"/>
</g>
<g>
	<rect x="179.594" y="53.169" style="fill:#183651;" width="15.754" height="15.754"/>
	<rect x="283.569" y="53.169" style="fill:#183651;" width="15.754" height="15.754"/>
	<rect x="388.332" y="53.169" style="fill:#183651;" width="15.754" height="15.754"/>
	<rect x="179.594" y="171.323" style="fill:#183651;" width="15.754" height="15.754"/>
	<rect x="283.569" y="171.323" style="fill:#183651;" width="15.754" height="15.754"/>
	<rect x="388.332" y="171.323" style="fill:#183651;" width="15.754" height="15.754"/>
</g>
<rect x="48.837" y="246.942" style="fill:#FFFFFF;" width="84.283" height="181.957"/>
<path style="fill:#183651;" d="M133.12,436.775H48.837c-4.726,0-7.877-3.151-7.877-7.877V246.942c0-4.726,3.151-7.877,7.877-7.877
	h84.283c4.726,0,7.877,3.151,7.877,7.877v181.957C140.997,432.837,137.058,436.775,133.12,436.775z M56.714,421.022h68.529V254.818
	H56.714V421.022z"/>
<rect x="76.406" y="275.298" style="fill:#2EA0DA;" width="28.357" height="126.031"/>
<path style="fill:#FBBD5E;" d="M312.714,281.6v-0.788c0-11.028-8.665-20.48-20.48-20.48h-44.898l0,0
	c11.815-28.357,10.24-48.049,10.24-48.049c0-47.262-31.508-29.145-31.508-29.145c-4.726,33.083-17.329,44.898-17.329,44.898
	c-8.665,7.877-21.268,21.268-30.72,33.083h-2.363c-17.329,0-27.569,4.726-42.535,13.391v137.059
	c22.055,8.665,39.385,13.391,63.015,13.391h94.523c10.24,0,20.48-7.877,21.268-18.117c1.575-11.815-7.877-22.055-19.692-22.055
	c11.028,0,20.48-8.665,20.48-20.48v-0.788c0-11.028-8.665-20.48-20.48-20.48c11.028,0,20.48-8.665,20.48-20.48v-0.788
	c0-11.028-8.665-20.48-20.48-20.48h0.788C303.262,302.08,312.714,292.628,312.714,281.6z"/>
<path style="fill:#183651;" d="M290.658,432.837h-94.523c-25.994,0-43.323-4.726-66.166-14.178
	c-3.151-1.575-4.726-3.938-4.726-7.089V274.511c0-3.151,1.575-5.514,3.938-7.089c14.178-8.665,25.994-14.178,44.898-14.966
	c11.815-14.178,22.055-24.418,29.145-30.72c0,0,11.028-10.24,14.966-40.172c0-2.363,1.575-4.726,3.938-5.514
	c0.788-0.788,7.877-4.726,16.542-4.726c14.178,0,26.782,10.24,26.782,40.96c0,0,0.788,16.542-6.302,40.172h33.083
	c15.754,0,28.357,12.603,28.357,28.357v0.788c0,7.877-3.151,14.966-8.665,20.48c4.726,4.726,8.665,11.815,8.665,19.692v0.788
	c0,7.877-3.151,14.966-8.665,20.48c5.514,4.726,8.665,12.603,8.665,20.48v0.788c0,7.877-3.151,14.966-8.665,20.48
	c0.788,0.788,0.788,0.788,1.575,1.575c5.514,5.514,7.877,13.391,7.089,21.268C318.228,421.809,305.625,432.837,290.658,432.837z
	 M140.997,406.055c18.905,7.089,33.871,11.028,55.138,11.028h94.523c7.089,0,12.603-4.726,13.391-11.028
	c0-3.151-0.788-7.089-3.151-9.452c-2.363-2.363-5.514-3.938-9.452-3.938c-4.726,0-7.877-3.151-7.877-7.877s3.151-7.877,7.877-7.877
	c7.089,0,12.603-5.514,12.603-12.603v-0.788c0-7.089-5.514-12.603-12.603-12.603c-4.726,0-7.877-3.151-7.877-7.877
	c0-4.726,3.151-7.877,7.877-7.877c7.089,0,12.603-5.514,12.603-12.603v-0.788c0-7.089-5.514-12.603-12.603-12.603
	c-4.726,0-7.877-3.151-7.877-7.877c0-4.726,3.151-7.877,7.877-7.877c7.089,0,12.603-5.514,12.603-12.603v-0.788
	c0-7.089-5.514-12.603-12.603-12.603h-43.323c-2.363,0-4.726-0.788-6.302-3.151c-1.575-0.788-2.363-3.151-1.575-5.514
	c0,0,0-0.788,0-1.575c10.24-25.994,9.452-44.898,9.452-44.898c0-10.24-0.788-25.206-11.028-25.206c-1.575,0-3.938,0.788-5.514,0.788
	c-5.514,32.295-18.117,44.111-19.692,45.686c-7.089,6.302-17.329,17.329-29.932,32.295c-1.575,1.575-3.938,3.151-6.302,3.151h-2.363
	c-13.391,0-22.055,3.151-34.658,10.24v126.818H140.997z"/>
<g>
</g>
<g>
</g>
<g>
</g>
<g>
</g>
<g>
</g>
<g>
</g>
<g>
</g>
<g>
</g>
<g>
</g>
<g>
</g>
<g>
</g>
<g>
</g>
<g>
</g>
<g>
</g>
<g>
</g>
</svg>
