<?xml version="1.0" encoding="iso-8859-1"?>
<!-- Generator: Adobe Illustrator 19.0.0, SVG Export Plug-In . SVG Version: 6.00 Build 0)  -->
<svg version="1.1" id="Capa_1" xmlns="http://www.w3.org/2000/svg" xmlns:xlink="http://www.w3.org/1999/xlink" x="0px" y="0px"
	 viewBox="0 0 504.123 504.123" style="enable-background:new 0 0 504.123 504.123;" xml:space="preserve">
<circle style="fill:#FBBD5E;" cx="252.062" cy="252.062" r="252.062"/>
<polygon style="fill:#FFFFFF;" points="53.563,367.852 450.56,367.852 496.246,496.246 7.877,496.246 "/>
<path style="fill:#183651;" d="M496.246,504.123L496.246,504.123H7.877c-2.363,0-4.726-1.575-6.302-3.151
	C0,499.397,0,496.246,0.788,493.883l45.686-128.394c0.788-3.151,3.938-5.514,7.089-5.514H450.56c3.151,0,6.302,2.363,7.089,5.514
	l44.898,126.818c0.788,0.788,0.788,2.363,0.788,3.938C504.123,500.185,500.972,504.123,496.246,504.123z M18.905,488.369h465.526
	l-39.385-112.64H59.077L18.905,488.369z"/>
<g>
	<polygon style="fill:#E1E6E7;" points="442.683,431.655 430.08,391.483 74.043,391.483 61.44,431.655 	"/>
	<polygon style="fill:#E1E6E7;" points="212.677,445.046 204.8,472.615 299.323,472.615 290.658,445.046 	"/>
</g>
<path style="fill:#F06151;" d="M434.806,121.305H69.317c-8.665,0-15.754,7.089-15.754,15.754v230.794H450.56V137.058
	C450.56,128.394,443.471,121.305,434.806,121.305z"/>
<path style="fill:#183651;" d="M450.56,375.729H53.563c-4.726,0-7.877-3.151-7.877-7.877V137.058
	c0-13.391,10.24-23.631,23.631-23.631h365.489c13.391,0,23.631,10.24,23.631,23.631v230.794
	C458.437,371.791,454.498,375.729,450.56,375.729z M61.44,359.975h381.243V137.058c0-4.726-3.151-7.877-7.877-7.877H69.317
	c-4.726,0-7.877,3.151-7.877,7.877V359.975z"/>
<rect x="85.071" y="152.812" style="fill:#FFFFFF;" width="333.982" height="183.532"/>
<path style="fill:#4FBF9F;" d="M188.258,7.877c-30.72,0-55.138,24.418-55.138,55.138v95.311h36.234v62.228l97.674-62.228h37.809
	c30.72,0,55.138-24.418,55.138-55.138V7.877H188.258z"/>
<path style="fill:#183651;" d="M165.415,227.643c-2.363-1.575-3.938-3.938-3.938-7.089v-54.351H133.12
	c-4.726,0-7.877-3.151-7.877-7.877V63.015C125.243,28.357,153.6,0,188.258,0h171.717c4.726,0,7.877,3.151,7.877,7.877v95.311
	c0,34.658-28.357,63.015-63.015,63.015h-35.446l-96.098,60.652C170.929,228.431,167.778,229.218,165.415,227.643z M140.209,150.449
	h29.145c4.726,0,7.877,3.151,7.877,7.877v47.262l85.858-54.351c1.575-0.788,2.363-1.575,3.938-1.575h37.809
	c25.994,0,47.262-21.268,47.262-47.262V15.754h-163.84c-25.994,0-47.262,21.268-47.262,47.262v87.434H140.209z"/>
<path style="fill:#FFFFFF;" d="M200.862,126.818h-36.234V63.015c0-13.391,11.028-23.631,23.631-23.631h140.209v63.803
	c0,13.391-11.028,23.631-23.631,23.631h-46.474l-57.501,36.234V126.818z"/>
<g>
	<rect x="193.772" y="77.982" style="fill:#183651;" width="15.754" height="15.754"/>
	<rect x="238.671" y="77.982" style="fill:#183651;" width="15.754" height="15.754"/>
	<rect x="282.782" y="77.982" style="fill:#183651;" width="15.754" height="15.754"/>
</g>
<path style="fill:#FBBD5E;" d="M390.695,275.692l-42.535-22.843l-42.535,22.843c-7.877,3.938-12.603,12.603-12.603,22.055v22.843
	h110.277v-22.843C403.298,288.295,398.572,279.631,390.695,275.692z"/>
<path style="fill:#173651;" d="M375.729,227.643c0,18.905-12.603,39.385-27.569,39.385s-27.569-21.268-27.569-39.385
	s12.603-28.357,27.569-28.357S375.729,208.738,375.729,227.643z"/>
<g>
	<rect x="138.634" y="290.658" style="fill:#183651;" width="15.754" height="15.754"/>
	<rect x="181.957" y="290.658" style="fill:#183651;" width="15.754" height="15.754"/>
	<rect x="226.068" y="290.658" style="fill:#183651;" width="15.754" height="15.754"/>
</g>
<g>
</g>
<g>
</g>
<g>
</g>
<g>
</g>
<g>
</g>
<g>
</g>
<g>
</g>
<g>
</g>
<g>
</g>
<g>
</g>
<g>
</g>
<g>
</g>
<g>
</g>
<g>
</g>
<g>
</g>
</svg>
