<?xml version="1.0" encoding="iso-8859-1"?>
<!-- Generator: Adobe Illustrator 19.0.0, SVG Export Plug-In . SVG Version: 6.00 Build 0)  -->
<svg version="1.1" id="Capa_1" xmlns="http://www.w3.org/2000/svg" xmlns:xlink="http://www.w3.org/1999/xlink" x="0px" y="0px"
	 viewBox="0 0 504.911 504.911" style="enable-background:new 0 0 504.911 504.911;" xml:space="preserve">
<circle style="fill:#E1E6E7;" cx="252.455" cy="252.849" r="252.062"/>
<rect x="62.622" y="37.022" style="fill:#F06151;" width="380.455" height="460.012"/>
<path style="fill:#183651;" d="M442.289,504.911H62.622c-4.726,0-7.877-3.151-7.877-7.877V37.022c0-4.726,3.151-7.877,7.877-7.877
	h380.455c4.726,0,7.877,3.151,7.877,7.877v460.012C450.166,501.76,447.015,504.911,442.289,504.911z M70.498,489.157H435.2V44.898
	H70.498V489.157z"/>
<g>
	<rect x="94.129" y="68.529" style="fill:#FFFFFF;" width="317.44" height="396.997"/>
	<path style="fill:#FFFFFF;" d="M326.498,8.665H178.412c-15.754,0-28.357,12.603-28.357,28.357s12.603,28.357,28.357,28.357h147.298
		c15.754,0,28.357-12.603,28.357-28.357S341.465,8.665,326.498,8.665z"/>
</g>
<path style="fill:#183651;" d="M326.498,72.468H178.412c-19.692,0-36.234-15.754-36.234-36.234S157.932,0,178.412,0h147.298
	c19.692,0,36.234,15.754,36.234,36.234S346.191,72.468,326.498,72.468z M178.412,16.542c-11.028,0-20.48,8.665-20.48,20.48
	s8.665,20.48,20.48,20.48h147.298c11.028,0,20.48-8.665,20.48-20.48s-8.665-20.48-20.48-20.48H178.412z"/>
<polygon style="fill:#F06151;" points="163.446,144.935 149.268,144.935 153.206,150.449 150.843,177.231 161.871,177.231 
	160.295,150.449 "/>
<circle style="fill:#E0E4E8;" cx="156.357" cy="120.517" r="19.692"/>
<path style="fill:#2CA0DA;" d="M171.323,144.935l-14.966,25.994l-14.966-25.994c-14.178,5.514-24.418,19.692-24.418,36.234v12.603
	h78.769v-12.603C195.742,165.415,185.502,151.237,171.323,144.935z"/>
<g>
	<rect x="242.215" y="116.578" style="fill:#183651;" width="15.754" height="15.754"/>
	<rect x="283.963" y="116.578" style="fill:#183651;" width="15.754" height="15.754"/>
	<rect x="324.923" y="116.578" style="fill:#183651;" width="15.754" height="15.754"/>
	<rect x="366.671" y="116.578" style="fill:#183651;" width="15.754" height="15.754"/>
	<rect x="242.215" y="177.231" style="fill:#183651;" width="140.997" height="15.754"/>
	<rect x="122.486" y="237.883" style="fill:#183651;" width="260.726" height="15.754"/>
	<rect x="122.486" y="297.748" style="fill:#183651;" width="260.726" height="15.754"/>
	<rect x="122.486" y="358.4" style="fill:#183651;" width="260.726" height="15.754"/>
	<rect x="122.486" y="419.052" style="fill:#183651;" width="260.726" height="15.754"/>
</g>
<g>
</g>
<g>
</g>
<g>
</g>
<g>
</g>
<g>
</g>
<g>
</g>
<g>
</g>
<g>
</g>
<g>
</g>
<g>
</g>
<g>
</g>
<g>
</g>
<g>
</g>
<g>
</g>
<g>
</g>
</svg>
