<?xml version="1.0" encoding="iso-8859-1"?>
<!-- Generator: Adobe Illustrator 19.0.0, SVG Export Plug-In . SVG Version: 6.00 Build 0)  -->
<svg version="1.1" id="Capa_1" xmlns="http://www.w3.org/2000/svg" xmlns:xlink="http://www.w3.org/1999/xlink" x="0px" y="0px"
	 viewBox="0 0 504.911 504.911" style="enable-background:new 0 0 504.911 504.911;" xml:space="preserve">
<circle style="fill:#FBBD5E;" cx="270.966" cy="108.308" r="107.914"/>
<path style="fill:#E0E4E8;" d="M438.745,365.095L438.745,365.095c10.24-25.206,5.514-54.351-14.178-74.043
	c-26.782-26.782-69.317-26.782-96.098,0c-4.726-23.631-22.843-44.111-48.049-49.625c-33.871-7.089-66.954,14.178-74.831,47.262
	v1.575c-7.877-24.418-33.871-38.597-58.289-30.72s-38.597,33.871-30.72,58.289c-22.843-8.665-29.932-5.514-47.262,0
	c-38.597,12.603-44.111,64.591-10.24,85.071c-25.994,0-51.2,21.268-51.2,47.262s21.268,47.262,47.262,47.262h373.366
	c37.809,0,67.742-26.782,67.742-64.591C496.246,398.178,471.04,370.609,438.745,365.095z"/>
<g>
	<path style="fill:#183651;" d="M428.505,504.517H55.138C25.206,504.517,0,480.098,0,449.378c0-23.631,18.117-44.898,40.96-51.988
		c-13.391-16.542-17.329-40.172-6.302-59.865c13.391-25.994,49.625-36.234,71.68-30.72c-0.788-24.418,14.178-46.474,38.597-54.351
		c5.514-1.575,11.028-2.363,16.542-2.363c17.329,0,32.295,7.877,42.535,20.48c11.815-22.843,36.234-38.597,63.015-38.597
		c4.726,0,10.24,0.788,14.966,1.575c23.631,5.514,42.535,21.268,50.412,43.323c12.603-8.665,27.569-14.178,44.111-14.178
		c20.48,0,39.385,7.877,53.563,22.055c19.692,19.692,26.782,48.049,19.692,74.043c32.295,9.452,54.351,38.597,54.351,72.468
		C504.123,473.797,471.828,504.517,428.505,504.517z M93.735,320.985c-7.089,0-14.966,3.151-21.268,4.726
		c-10.24,3.151-18.117,9.452-22.843,18.905c-9.452,18.905-3.151,40.96,14.178,51.2c2.363,2.363,3.938,5.514,3.151,9.452
		c-0.788,3.151-3.938,5.514-7.877,5.514c-22.843,0-43.323,18.905-43.323,39.385c0,21.268,17.329,39.385,39.385,39.385h373.366
		c33.871,0,59.865-24.418,59.865-56.714c0-29.932-21.268-54.351-50.412-59.077c-3.151-0.788-5.514-2.363-6.302-5.514
		c-0.788-2.363,0-4.726,1.575-7.089c8.665-22.055,3.151-46.474-13.391-63.803c-11.028-11.028-26.782-17.329-42.535-17.329
		s-30.72,6.302-42.535,17.329c-2.363,2.363-4.726,3.151-7.877,1.575c-3.151-0.788-4.726-3.151-5.514-6.302
		c-3.938-21.268-20.48-38.597-41.748-43.323c-3.938-0.788-7.877-1.575-11.815-1.575c-25.206,0-47.262,17.329-52.775,41.748v0.788
		c0,3.938-3.151,7.089-7.089,7.877c-3.938,0.788-7.877-1.575-8.665-5.514c-4.726-16.542-19.692-27.569-37.022-27.569
		c-3.938,0-7.877,0.788-11.815,1.575c-20.48,6.302-31.508,28.357-25.206,48.837c0.788,3.151,0,6.302-2.363,7.877
		c-2.363,2.363-5.514,2.363-7.877,1.575C105.551,322.56,99.249,320.985,93.735,320.985z"/>
	<path style="fill:#183651;" d="M133.12,351.705c-11.815-7.089-19.692-17.329-23.631-30.72c-1.575-3.938,0.788-8.665,5.514-10.24
		c3.938-1.575,8.665,0.788,10.24,5.514c3.151,9.452,8.665,16.542,17.329,22.055c3.938,2.363,4.726,7.089,2.363,11.028
		C141.785,352.492,137.058,354.068,133.12,351.705z"/>
	<path style="fill:#183651;" d="M291.446,408.418c-1.575,0-3.151-0.788-4.726-1.575c-3.938-2.363-4.726-7.089-2.363-11.028
		c22.055-31.508,13.391-75.618-18.117-96.886c-3.938-2.363-4.726-7.089-2.363-11.028c2.363-3.938,7.089-4.726,11.028-2.363
		c18.905,12.603,31.508,32.295,35.446,55.138c3.938,22.843-0.788,44.898-13.391,63.803
		C296.172,407.631,293.809,408.418,291.446,408.418z"/>
	<path style="fill:#183651;" d="M238.671,503.729c-3.938-1.575-6.302-6.302-4.726-10.24c9.452-24.418,8.665-51.2-2.363-75.618
		c-11.028-24.418-29.932-42.535-55.138-51.988c-3.938-1.575-6.302-6.302-4.726-10.24c1.575-3.938,6.302-6.302,10.24-4.726
		c28.357,11.028,51.2,32.295,63.803,59.865c12.603,27.569,13.391,59.077,2.363,87.434
		C247.335,503.729,243.397,505.305,238.671,503.729z"/>
	<path style="fill:#183651;" d="M155.175,455.68c-27.569,0-53.563-9.452-74.831-27.569c-3.151-3.151-3.938-7.877-0.788-11.028
		c3.151-3.151,7.877-3.938,11.028-0.788c19.692,17.329,45.686,25.206,72.468,22.843s51.2-14.178,67.742-34.658
		c3.151-3.151,7.877-3.938,11.028-0.788c3.151,3.151,3.938,7.877,0.788,11.028c-19.692,23.631-48.049,37.022-78.769,40.172
		C161.477,455.68,158.326,455.68,155.175,455.68z"/>
	<path style="fill:#183651;" d="M291.446,408.418c-2.363,0-3.938-0.788-5.514-2.363c-3.151-3.151-3.151-7.877,0-11.028
		c27.569-27.569,65.378-29.932,90.585-4.726c3.151,3.151,3.151,7.877,0,11.028c-3.151,3.151-7.877,3.151-11.028,0
		c-22.055-22.055-50.412-13.391-68.529,4.726C295.385,407.631,293.022,408.418,291.446,408.418z"/>
	<path style="fill:#183651;" d="M394.634,445.44c-7.089-20.48-6.302-42.535,3.151-59.865c7.877-14.966,22.055-24.418,39.385-28.357
		c3.938-0.788,8.665,1.575,9.452,6.302c0.788,3.938-1.575,8.665-6.302,9.452c-12.603,3.151-22.843,10.24-28.357,20.48
		c-7.089,13.391-7.877,30.72-2.363,46.474c1.575,3.938-0.788,8.665-4.726,10.24C400.935,451.742,396.209,450.166,394.634,445.44z"/>
</g>
<rect x="109.489" y="54.745" style="fill:#4FBF9F;" width="304.837" height="107.914"/>
<path style="fill:#183651;" d="M415.114,170.535L415.114,170.535H110.277c-4.726,0-7.877-3.151-7.877-7.877V54.745
	c0-2.363,0.788-3.938,2.363-5.514c1.575-1.575,3.151-2.363,5.514-2.363h304.837c4.726,0,7.877,3.151,7.877,7.877v106.338
	c0,0.788,0,0.788,0,1.575C422.991,167.385,419.052,170.535,415.114,170.535z M117.366,154.782h289.083v-92.16H117.366
	L117.366,154.782z"/>
<rect x="140.997" y="86.252" style="fill:#FFFFFF;" width="241.822" height="44.898"/>
<path style="fill:#F06151;" d="M496.246,70.498c0-8.665-7.089-15.754-15.754-15.754c-21.268,0-65.378,0-65.378,0v107.914h65.378
	c8.665,0,15.754-7.089,15.754-15.754V70.498z"/>
<path style="fill:#183651;" d="M480.492,170.535h-65.378c-4.726,0-7.877-3.151-7.877-7.877V54.745c0-2.363,0.788-3.938,2.363-5.514
	c1.575-1.575,3.151-2.363,5.514-2.363h66.166c13.391,0,23.631,10.24,23.631,23.631v76.406
	C504.123,160.295,493.883,170.535,480.492,170.535z M422.991,154.782h57.502c4.726,0,7.877-3.151,7.877-7.877V70.498
	c0-4.726-3.151-7.877-7.877-7.877h-58.289L422.991,154.782z"/>
<polygon style="fill:#FBBD5E;" points="109.489,54.745 7.877,108.308 109.489,162.658 "/>
<g>
	<path style="fill:#183651;" d="M109.489,170.535c-1.575,0-2.363,0-3.938-0.788L3.938,115.397C1.575,113.822,0,111.458,0,108.308
		s1.575-5.514,3.938-7.089l102.4-53.563c2.363-1.575,5.514-1.575,7.877,0c2.363,1.575,3.938,3.938,3.938,7.089v107.914
		c0,3.151-1.575,5.514-3.938,7.089C112.64,170.535,111.065,170.535,109.489,170.535z M24.418,108.308l77.194,40.96v-81.92
		L24.418,108.308z"/>
	<polyline style="fill:#183651;" points="42.535,90.191 7.877,108.308 42.535,127.212 	"/>
	<path style="fill:#183651;" d="M42.535,135.089c-1.575,0-2.363,0-3.938-0.788L3.938,115.397C1.575,113.822,0,111.458,0,108.308
		s1.575-5.514,3.938-7.089l34.658-18.117c3.938-2.363,8.665-0.788,11.028,3.151c2.363,3.938,0.788,8.665-3.151,11.028
		l-21.268,11.028l21.268,11.028c3.151,2.363,4.726,7.089,3.151,11.028C48.049,133.514,44.898,135.089,42.535,135.089z"/>
	<rect x="204.012" y="100.431" style="fill:#183651;" width="15.754" height="15.754"/>
	<rect x="258.363" y="100.431" style="fill:#183651;" width="15.754" height="15.754"/>
	<rect x="312.714" y="100.431" style="fill:#183651;" width="15.754" height="15.754"/>
</g>
<g>
</g>
<g>
</g>
<g>
</g>
<g>
</g>
<g>
</g>
<g>
</g>
<g>
</g>
<g>
</g>
<g>
</g>
<g>
</g>
<g>
</g>
<g>
</g>
<g>
</g>
<g>
</g>
<g>
</g>
</svg>
