<?xml version="1.0" encoding="iso-8859-1"?>
<!-- Generator: Adobe Illustrator 19.0.0, SVG Export Plug-In . SVG Version: 6.00 Build 0)  -->
<svg version="1.1" id="Capa_1" xmlns="http://www.w3.org/2000/svg" xmlns:xlink="http://www.w3.org/1999/xlink" x="0px" y="0px"
	 viewBox="0 0 504.123 504.123" style="enable-background:new 0 0 504.123 504.123;" xml:space="preserve">
<path style="fill:#F06151;" d="M54.351,208.738H450.56c-2.363-9.452-4.726-18.905-8.665-27.569l36.234-30.72l-22.055-37.809
	l-44.898,16.542c-9.452-11.815-20.48-22.843-33.083-33.083L394.634,51.2l-37.809-22.055l-29.932,37.809
	c-14.178-5.514-29.145-9.452-44.898-11.815l-7.877-46.474h-43.323l-7.877,46.474c-15.754,2.363-30.72,6.302-44.898,11.815
	l-30.72-36.234l-37.809,22.055l16.542,44.898c-11.815,9.452-22.843,20.48-33.083,33.083l-44.898-16.542l-22.055,37.809l36.234,30.72
	C59.077,189.834,56.714,199.286,54.351,208.738z"/>
<path style="fill:#183651;" d="M449.772,216.615H54.351c-2.363,0-4.726-0.788-6.302-3.151c-1.575-1.575-2.363-4.726-1.575-6.302
	c1.575-7.877,3.938-15.754,7.089-23.631l-32.295-26.782c-3.151-2.363-3.938-6.302-1.575-10.24l22.055-37.809
	c1.575-3.151,5.514-4.726,9.452-3.151l39.385,14.178c7.877-9.452,16.542-18.117,25.994-25.994L102.4,54.351
	c-1.575-3.938,0-7.877,3.151-9.452l37.809-22.055c3.151-1.575,7.089-0.788,10.24,1.575l26.782,32.295
	c11.815-3.938,23.631-7.089,35.446-9.452l7.089-40.96C223.705,2.363,226.855,0,230.794,0h43.323c3.938,0,7.089,2.363,7.877,6.302
	l7.089,40.96c11.815,2.363,23.631,5.514,35.446,9.452l26.782-32.295c2.363-3.151,6.302-3.938,10.24-1.575l37.809,22.055
	c3.151,1.575,4.726,5.514,3.151,9.452l-14.178,39.385c9.452,7.877,18.117,16.542,25.994,25.994l39.385-14.178
	c3.938-1.575,7.877,0,9.452,3.151l22.055,37.809c1.575,3.151,0.788,7.089-1.575,10.24l-32.295,26.782
	c2.363,7.089,4.726,14.966,7.089,23.631c0.788,2.363,0,4.726-1.575,6.302C455.286,215.04,452.135,216.615,449.772,216.615z
	 M64.591,200.862H440.32c-1.575-5.514-3.938-11.815-5.514-16.542c-1.575-3.151,0-7.089,2.363-8.665l31.508-25.994l-15.754-26.782
	l-38.597,14.178c-3.151,0.788-7.089,0-8.665-2.363c-9.452-11.815-19.692-22.055-31.508-31.508c-2.363-2.363-3.938-5.514-2.363-8.665
	l14.178-38.597L359.975,40.96l-25.994,31.508c-3.151,1.575-7.089,2.363-10.24,1.575c-14.178-5.514-28.357-9.452-43.323-11.815
	c-3.151-0.788-6.302-3.151-6.302-6.302l-7.089-40.172h-30.72l-7.089,40.172c-0.788,3.151-3.151,5.514-6.302,6.302
	c-14.966,2.363-29.145,6.302-43.323,11.815c-3.151,1.575-7.089,0-8.665-2.363l-25.994-31.508l-25.994,14.966l14.178,38.597
	c0.788,3.151,0,7.089-2.363,8.665c-11.815,9.452-22.055,19.692-31.508,31.508c-2.363,2.363-5.514,3.938-8.665,2.363L51.2,122.88
	l-14.966,25.994l31.508,25.994c2.363,2.363,3.151,5.514,2.363,8.665C67.742,189.834,66.166,195.348,64.591,200.862z"/>
<path style="fill:#F06151;" d="M449.772,295.385H54.351c2.363,9.452,4.726,18.905,8.665,27.569l-36.234,30.72l22.055,37.809
	l44.898-16.542c9.452,11.815,20.48,22.843,33.083,33.083l-16.542,44.898l37.809,22.055l29.145-37.809
	c14.178,5.514,29.145,9.452,44.898,11.815l7.877,46.474h43.323l7.877-46.474c15.754-2.363,30.72-6.302,44.898-11.815l30.72,36.234
	l37.809-22.055l-16.542-44.898c11.815-9.452,22.843-20.48,33.083-33.083l44.898,16.542l22.055-37.809l-36.234-30.72
	C445.046,314.289,448.197,304.837,449.772,295.385z"/>
<path style="fill:#183651;" d="M274.117,504.123h-43.323c-3.938,0-7.089-2.363-7.877-6.302l-7.089-40.96
	c-11.815-2.363-23.631-5.514-35.446-9.452L153.6,479.705c-2.363,3.151-6.302,3.938-10.24,1.575l-37.809-22.055
	c-3.151-1.575-4.726-5.514-3.151-9.452l14.178-39.385c-9.452-7.877-18.117-16.542-25.994-25.994L51.2,398.572
	c-3.938,1.575-7.877,0-9.452-3.151l-22.055-37.809c-1.575-3.151-0.788-7.089,1.575-10.24l32.295-26.782
	c-2.363-7.089-4.726-14.966-7.089-23.631c-0.788-2.363,0-4.726,1.575-6.302c1.575-2.363,3.938-3.151,6.302-3.151H450.56
	c2.363,0,4.726,0.788,6.302,3.151c1.575,2.363,2.363,4.726,1.575,6.302c-1.575,7.877-3.938,15.754-7.089,23.631l32.295,26.782
	c3.151,2.363,3.938,6.302,1.575,10.24l-22.055,37.809c-1.575,3.151-5.514,4.726-9.452,3.151l-39.385-14.178
	c-7.877,9.452-16.542,18.117-25.994,25.994l14.178,39.385c1.575,3.938,0,7.877-3.151,9.452l-37.809,22.055
	c-3.151,1.575-7.877,0.788-10.24-1.575l-26.782-32.295c-11.815,3.938-23.631,7.089-35.446,9.452l-7.089,40.96
	C281.206,501.76,277.268,504.123,274.117,504.123z M237.095,488.369h29.932l7.089-40.172c0.788-3.151,3.151-5.514,6.302-6.302
	c14.966-2.363,29.145-6.302,43.323-11.815c3.151-1.575,7.089,0,8.665,2.363l25.994,31.508l25.994-14.966l-14.178-38.597
	c-0.788-3.151,0-7.089,2.363-8.665c11.815-9.452,22.055-19.692,31.508-31.508c2.363-2.363,5.514-3.938,8.665-2.363l38.597,14.178
	l14.966-25.994l-31.508-25.994c-2.363-2.363-3.151-5.514-2.363-8.665c2.363-5.514,3.938-11.028,5.514-16.542H64.591
	c1.575,5.514,3.938,11.815,5.514,16.542c1.575,3.151,0,7.089-2.363,8.665l-31.508,25.994L51.2,381.243l38.597-14.178
	c3.151-0.788,7.089,0,8.665,2.363c9.452,11.815,19.692,22.055,31.508,31.508c2.363,2.363,3.938,5.514,2.363,8.665l-14.178,38.597
	l25.994,14.966l25.994-31.508c2.363-2.363,5.514-3.151,8.665-2.363c14.178,5.514,28.357,9.452,43.323,11.815
	c3.151,0.788,6.302,3.151,6.302,6.302L237.095,488.369z"/>
<path style="fill:#FFFFFF;" d="M9.452,248.123c133.908,170.142,352.098,170.142,486.006,0
	C360.763,77.982,143.36,77.982,9.452,248.123z"/>
<path style="fill:#183651;" d="M252.062,383.606L252.062,383.606c-94.523,0-182.745-46.474-248.911-130.757
	c-2.363-3.151-2.363-7.089,0-9.452C69.317,159.114,158.326,112.64,252.062,112.64s182.745,46.474,248.911,130.757
	c2.363,3.151,2.363,7.089,0,9.452C434.806,337.132,346.585,383.606,252.062,383.606z M18.905,248.123
	c63.015,77.194,145.723,119.729,233.157,119.729s170.142-42.535,233.157-119.729c-63.015-77.194-145.723-119.729-233.157-119.729
	S81.92,170.929,18.905,248.123z"/>
<circle style="fill:#2EA0DA;" cx="252.062" cy="248.123" r="105.551"/>
<path style="fill:#183651;" d="M252.062,313.501c-36.234,0-65.378-29.145-65.378-65.378s29.145-65.378,65.378-65.378
	s65.378,29.145,65.378,65.378S288.295,313.501,252.062,313.501z"/>
<circle style="fill:#FFFFFF;" cx="293.022" cy="205.588" r="18.905"/>
<g>
</g>
<g>
</g>
<g>
</g>
<g>
</g>
<g>
</g>
<g>
</g>
<g>
</g>
<g>
</g>
<g>
</g>
<g>
</g>
<g>
</g>
<g>
</g>
<g>
</g>
<g>
</g>
<g>
</g>
</svg>
