<?xml version="1.0" encoding="iso-8859-1"?>
<!-- Generator: Adobe Illustrator 19.0.0, SVG Export Plug-In . SVG Version: 6.00 Build 0)  -->
<svg version="1.1" id="Capa_1" xmlns="http://www.w3.org/2000/svg" xmlns:xlink="http://www.w3.org/1999/xlink" x="0px" y="0px"
	 viewBox="0 0 504.123 504.123" style="enable-background:new 0 0 504.123 504.123;" xml:space="preserve">
<circle style="fill:#2EA0DA;" cx="251.274" cy="192.985" r="192.985"/>
<path style="fill:#FFFFFF;" d="M145.723,291.446c12.603,18.117,13.391,33.083,32.295,44.111v50.412h148.086v-50.412
	c18.905-11.028,18.905-25.994,31.508-44.111H145.723z"/>
<path style="fill:#183651;" d="M326.105,393.846H178.018c-3.938,0-7.089-3.151-7.089-7.089v-46.474
	c-11.815-7.877-16.542-18.117-22.055-28.357c-2.363-5.514-5.514-10.24-9.452-16.542c-1.575-2.363-1.575-5.514-0.788-7.877
	c1.575-2.363,3.938-3.938,6.302-3.938h211.889c2.363,0,5.514,1.575,6.302,3.938c1.575,2.363,0.788,5.514-0.788,7.877
	c-3.938,5.514-6.302,11.028-9.452,16.542c-4.726,10.24-9.452,19.692-21.268,27.569v46.474
	C333.194,390.695,330.043,393.846,326.105,393.846z M185.108,378.88h133.908v-43.323c0-2.363,1.575-4.726,3.938-6.302
	c10.24-6.302,14.178-13.391,18.905-23.631c0.788-2.363,2.363-4.726,3.938-7.089H158.326c1.575,2.363,2.363,4.726,3.151,6.302
	c5.514,10.24,8.665,18.117,19.692,24.418c2.363,1.575,3.938,3.938,3.938,6.302V378.88z"/>
<path style="fill:#FFFFFF;" d="M252.849,41.748h-33.083l-3.938,33.871c-11.028,2.363-21.268,7.089-30.72,12.603l-26.782-21.268
	l-32.295,32.295l21.268,26.782c-5.514,9.452-10.24,19.692-12.603,30.72l-36.234,5.514v46.474l33.871,3.938
	c2.363,11.028,7.089,21.268,12.603,30.72l-21.268,26.782l32.295,32.295l26.782-21.268c9.452,5.514,19.692,10.24,30.72,12.603
	l3.938,33.871h33.083V41.748H252.849z"/>
<path style="fill:#183651;" d="M252.849,336.345h-33.083c-3.938,0-7.089-3.151-7.089-6.302l-3.938-29.145
	c-7.877-2.363-16.542-5.514-23.631-9.452l-23.631,17.329c-3.151,2.363-7.089,2.363-9.452-0.788l-32.295-32.295
	c-2.363-2.363-3.151-7.089-0.788-9.452l18.117-22.843c-3.938-7.877-7.089-15.754-9.452-23.631l-29.145-3.938
	c-3.938-0.788-6.302-3.938-6.302-7.089v-46.474c0-3.938,3.151-7.089,6.302-7.089l29.145-3.938
	c2.363-7.877,5.514-16.542,9.452-23.631l-18.117-22.843c-2.363-3.151-2.363-7.089,0.788-9.452l32.295-32.295
	c2.363-3.151,7.089-3.939,9.452-1.575l22.843,18.117c7.877-3.938,15.754-7.089,23.631-9.452l3.938-29.145
	c0.788-3.938,3.938-6.302,7.089-6.302h33.083c1.575,0,3.938,0.788,5.514,2.363c1.575,1.575,2.363,3.151,2.363,5.514v287.508
	C259.938,333.194,256.788,336.345,252.849,336.345z M226.068,322.166h19.692V48.837h-19.692l-3.151,27.569
	c0,3.151-2.363,5.514-5.514,6.302c-10.24,2.363-19.692,6.302-29.145,11.815c-2.363,1.575-6.302,1.575-8.665-0.788l-22.055-17.329
	l-23.631,23.631l17.329,22.055c1.575,2.363,2.363,5.514,0.788,8.665c-5.514,8.665-9.452,18.905-11.815,29.145
	c-0.788,3.151-3.151,5.514-6.302,5.514l-27.569,3.151v33.083l27.569,3.151c3.151,0,5.514,2.363,6.302,5.514
	c2.363,10.24,6.302,19.692,11.815,29.145c1.575,2.363,1.575,6.302-0.788,8.665l-17.329,22.055l23.631,23.631l22.055-17.329
	c2.363-1.575,5.514-2.363,8.665-0.788c8.665,5.514,18.905,9.452,29.145,11.815c3.151,0.788,5.514,3.151,5.514,6.302L226.068,322.166
	z"/>
<path style="fill:#F06151;" d="M233.157,104.763c-43.323,1.575-77.982,37.022-77.982,81.132s34.658,79.557,77.982,81.132h13.391
	V104.763H233.157z"/>
<path style="fill:#FFFFFF;" d="M239.458,140.209c-22.843,2.363-40.96,21.268-40.96,44.898s18.117,42.535,40.96,44.898h13.391
	v-89.797H239.458z"/>
<g>
	<path style="fill:#183651;" d="M252.849,237.883h-13.391h-0.788c-26.782-3.151-47.262-25.206-47.262-51.988
		s20.48-49.625,47.262-51.988h0.788h13.391c3.938,0,7.089,3.151,7.089,7.089v89.797
		C259.938,234.732,256.788,237.883,252.849,237.883z M240.246,222.917h5.514v-75.618h-5.514
		c-19.692,2.363-33.871,18.117-33.871,37.809S220.554,220.554,240.246,222.917z"/>
	<rect x="42.535" y="61.44" style="fill:#183651;" width="14.966" height="14.966"/>
	<rect x="42.535" y="116.578" style="fill:#183651;" width="14.966" height="14.966"/>
	<rect x="42.535" y="171.717" style="fill:#183651;" width="14.966" height="14.966"/>
	<rect x="42.535" y="226.855" style="fill:#183651;" width="14.966" height="14.966"/>
	<rect x="42.535" y="281.206" style="fill:#183651;" width="14.966" height="14.966"/>
	<rect x="446.622" y="61.44" style="fill:#183651;" width="14.966" height="14.966"/>
	<rect x="446.622" y="116.578" style="fill:#183651;" width="14.966" height="14.966"/>
	<rect x="446.622" y="171.717" style="fill:#183651;" width="14.966" height="14.966"/>
	<rect x="446.622" y="226.855" style="fill:#183651;" width="14.966" height="14.966"/>
	<rect x="446.622" y="281.206" style="fill:#183651;" width="14.966" height="14.966"/>
</g>
<path style="fill:#FBBD5E;" d="M330.043,75.618L330.043,75.618c14.966-6.302,31.508-3.151,43.323,8.665
	c15.754,15.754,15.754,40.96,0,56.714c14.178,2.363,25.994,13.391,29.145,28.357c4.726,19.692-7.877,39.385-28.357,44.111h-0.788
	c14.178,4.726,22.843,19.692,18.117,34.658c-4.726,14.178-19.692,22.843-34.658,18.117c5.514,13.391,3.151,17.329,0,28.357
	c-4.726,14.178-19.692,22.843-34.658,18.117c-6.302-2.363-11.815-6.302-14.966-11.815c0,14.966-12.603,29.932-27.569,29.932
	c-14.966,0-27.569-12.603-27.569-27.569V83.495c0-22.055,15.754-40.172,37.809-40.172C310.351,41.748,326.892,56.714,330.043,75.618
	z"/>
<g>
	<path style="fill:#183651;" d="M280.418,336.345c-18.905,0-34.658-15.754-34.658-34.658V81.92
		c0-26.782,19.692-47.262,44.898-47.262c20.48,0,37.809,12.603,44.898,31.508c3.151-0.788,7.089-0.788,10.24-0.788
		c12.603,0,24.418,4.726,33.083,14.178c15.754,15.754,18.117,40.172,7.089,58.289c11.815,5.514,21.268,16.542,24.418,30.72
		c3.938,18.905-4.726,37.022-19.692,47.262c2.363,2.363,4.726,5.514,6.302,8.665c3.938,7.877,5.514,17.329,2.363,26.782
		c-4.726,14.178-16.542,23.631-31.508,24.418c1.575,7.089,0,12.603-2.363,19.692h-0.788c-4.726,14.966-18.117,24.418-33.083,24.418
		c-3.151,0-7.089-0.788-10.24-1.575c-3.151-0.788-6.302-2.363-8.665-3.938C306.412,326.892,293.809,336.345,280.418,336.345z
		 M290.658,48.837c-17.329,0-30.72,14.178-30.72,32.295v219.766c0,11.028,9.452,20.48,20.48,20.48
		c10.24,0,20.48-11.028,20.48-22.843c0-3.151,2.363-6.302,5.514-7.089c3.151-0.788,6.302,0.788,7.877,3.151
		c2.363,3.938,6.302,7.089,11.028,8.665c10.24,3.151,22.055-3.151,25.206-13.391l0.788-1.575c2.363-8.665,3.938-11.028-0.788-21.268
		c-0.788-2.363-0.788-5.514,1.575-7.877c1.575-2.363,4.726-3.151,7.877-2.363c10.24,3.151,22.055-3.151,25.206-13.391
		c1.575-5.514,0.788-10.24-1.575-14.966s-7.089-7.877-11.815-9.452c-3.151-0.788-5.514-4.726-4.726-7.877
		c0.788-3.938,3.938-6.302,7.089-6.302l0,0c15.754-3.938,25.206-19.692,22.055-34.658c-2.363-11.815-11.815-20.48-23.631-22.843
		c-2.363-0.788-4.726-2.363-5.514-4.726c-0.788-2.363,0-5.514,1.575-7.089c12.603-12.603,12.603-33.083,0-46.474
		c-8.665-8.665-22.843-11.815-34.658-7.089c-2.363,0.788-3.938,0.788-5.514,0.788c-3.151-0.788-4.726-3.151-5.514-5.514
		C320.591,60.652,306.412,48.837,290.658,48.837z"/>
	<path style="fill:#183651;" d="M357.612,272.542c-0.788,0-1.575,0-2.363,0c-7.877-2.363-14.966-7.877-19.692-14.966
		c-2.363-3.151-0.788-7.877,2.363-10.24c3.151-2.363,7.877-0.788,10.24,2.363c2.363,3.938,6.302,7.089,11.028,8.665
		c3.938,1.575,6.302,5.514,4.726,9.452C363.126,270.178,360.763,272.542,357.612,272.542z"/>
	<path style="fill:#183651;" d="M321.378,215.04c-2.363,0-3.938-0.788-5.514-2.363c-15.754-16.542-39.385-22.055-60.652-14.178
		c-3.938,1.575-7.877-0.788-9.452-3.938c-1.575-3.938,0.788-7.877,3.938-9.452c26.782-10.24,56.714-3.151,76.406,18.117
		c2.363,3.151,2.363,7.877-0.788,10.24C324.529,214.252,322.954,215.04,321.378,215.04z"/>
	<path style="fill:#183651;" d="M296.172,290.658c-2.363,0-3.938-0.788-5.514-2.363c-25.206-29.145-21.268-74.831,7.877-100.037
		c3.151-2.363,7.877-2.363,10.24,0.788c2.363,3.151,2.363,7.877-0.788,10.24c-22.843,19.692-25.994,55.926-6.302,78.769
		c2.363,3.151,2.363,7.877-0.788,10.24C299.323,290.658,297.748,290.658,296.172,290.658z"/>
	<path style="fill:#183651;" d="M298.535,107.126c-5.514,0-11.028-0.788-16.542-3.151c-3.938-1.575-5.514-5.514-4.726-9.452
		c1.575-3.938,5.514-5.514,9.452-4.726c8.665,3.151,18.117,3.151,25.206-0.788c5.514-3.151,9.452-7.877,11.028-14.966
		c0.788-3.938,4.726-6.302,8.665-5.514c3.938,0.788,6.302,4.726,5.514,8.665c-2.363,11.028-8.665,19.692-18.117,25.206
		C312.714,105.551,305.625,107.126,298.535,107.126z"/>
	<path style="fill:#183651;" d="M292.234,153.6c-2.363,0-5.514-1.575-6.302-3.938c-1.575-3.938,0-7.877,3.151-9.452
		c8.665-3.938,14.178-11.028,16.542-18.117c1.575-6.302,0.788-12.603-3.151-18.905c-2.363-3.151-0.788-7.877,2.363-10.24
		c3.151-2.363,7.877-0.788,10.24,2.363c6.302,9.452,7.877,20.48,4.726,30.72c-3.151,11.815-12.603,22.055-24.418,27.569
		C294.597,152.812,293.809,153.6,292.234,153.6z"/>
</g>
<path style="fill:#E0E4E8;" d="M166.991,371.003v74.043c0,11.815,10.24,22.055,22.055,22.055h124.455
	c11.815,0,22.055-10.24,22.055-22.055v-73.255H166.991V371.003z"/>
<path style="fill:#183651;" d="M313.502,474.191H189.046c-16.542,0-29.145-13.391-29.145-29.145v-73.255
	c0-3.938,3.151-7.089,7.089-7.089h168.566c3.938,0,7.089,3.151,7.089,7.089v73.255C343.434,460.8,330.043,474.191,313.502,474.191z
	 M174.868,378.88v66.166c0,7.877,6.302,14.966,14.966,14.966h124.455c7.877,0,14.966-6.302,14.966-14.966V378.88H174.868z"/>
<path style="fill:#E0E4E8;" d="M210.314,467.102v20.48c0,5.514,4.726,9.452,9.452,9.452h63.015c5.514,0,9.452-4.726,9.452-9.452
	v-20.48H210.314z"/>
<path style="fill:#183651;" d="M283.569,504.123h-63.015c-9.452,0-17.329-7.877-17.329-17.329v-20.48
	c0-3.938,3.151-7.089,7.089-7.089h82.708c3.938,0,7.089,3.151,7.089,7.089v20.48C300.111,496.246,292.234,504.123,283.569,504.123z
	 M217.403,474.191v12.603c0,1.575,0.788,2.363,2.363,2.363h63.015c1.575,0,2.363-0.788,2.363-2.363v-12.603H217.403z"/>
<g>
</g>
<g>
</g>
<g>
</g>
<g>
</g>
<g>
</g>
<g>
</g>
<g>
</g>
<g>
</g>
<g>
</g>
<g>
</g>
<g>
</g>
<g>
</g>
<g>
</g>
<g>
</g>
<g>
</g>
</svg>
