<?xml version="1.0" encoding="iso-8859-1"?>
<!-- Generator: Adobe Illustrator 19.0.0, SVG Export Plug-In . SVG Version: 6.00 Build 0)  -->
<svg version="1.1" id="Capa_1" xmlns="http://www.w3.org/2000/svg" xmlns:xlink="http://www.w3.org/1999/xlink" x="0px" y="0px"
	 viewBox="0 0 504.911 504.911" style="enable-background:new 0 0 504.911 504.911;" xml:space="preserve">
<circle style="fill:#E0E4E8;" cx="189.834" cy="246.154" r="189.834"/>
<path style="fill:#FFFFFF;" d="M353.674,276.086v-52.775l-38.597-4.726c-3.151-12.603-7.877-24.418-14.966-35.446l24.418-30.72
	l-37.022-37.022L256,139.028c-11.028-6.302-22.843-11.815-35.446-14.966l-3.938-37.809H163.84l-4.726,38.597
	c-12.603,3.151-24.418,7.877-35.446,14.966l-30.72-24.418l-37.022,37.022l24.418,30.72c-6.302,11.028-11.815,22.843-14.966,35.446
	l-38.597,4.726v52.775l38.597,4.726c3.151,12.603,7.877,24.418,14.966,35.446l-24.418,30.72L92.948,384l30.72-24.418
	c3.151,1.575,5.514,3.151,8.665,4.726c3.151,7.877,4.726,16.542,4.726,24.418v18.905h105.551v-18.905
	c0-8.665,1.575-17.329,4.726-24.418c3.151-1.575,6.302-3.151,8.665-4.726L286.72,384l37.022-37.022l-24.418-30.72
	c6.302-11.028,11.815-22.843,14.966-35.446L353.674,276.086z"/>
<path style="fill:#183651;" d="M242.609,415.508H137.058c-4.726,0-7.877-3.151-7.877-7.877v-18.905
	c0-6.302-0.788-12.603-3.151-18.905c-0.788,0-1.575-0.788-1.575-0.788l-26.782,20.48c-3.151,2.363-7.877,2.363-10.24-0.788
	l-37.022-37.022c-3.151-3.151-3.151-7.089-0.788-10.24l20.48-26.782c-4.726-8.665-7.877-17.329-11.028-26.781l-33.871-3.938
	c-3.938-0.788-7.089-3.938-7.089-7.877v-52.775c0-3.938,3.151-7.089,7.089-7.877l33.871-3.938
	c3.151-9.452,6.302-18.905,11.028-27.569l-20.48-26.782c-2.363-3.151-2.363-7.877,0.788-10.24l37.022-37.022
	c3.151-3.151,7.089-3.151,10.24-0.788l26.782,20.48c8.665-4.726,18.117-8.665,27.569-11.028l3.938-33.871
	c0.788-3.938,3.938-7.089,7.877-7.089h52.775c3.938,0,7.089,3.151,7.877,7.089l3.938,33.871c9.452,3.151,18.905,6.302,27.569,11.028
	l26.782-20.48c3.151-2.363,7.877-2.363,10.24,0.788l37.022,37.022c3.151,3.151,3.151,7.089,0.788,10.24l-20.48,26.782
	c4.726,8.665,8.665,18.117,11.028,27.569l33.871,3.938c3.938,0.788,7.089,3.938,7.089,7.877v52.775c0,3.938-3.151,7.089-7.089,7.877
	l-34.658,3.939c-3.151,9.452-6.302,18.905-11.028,27.569l20.48,26.782c2.363,3.151,2.363,7.877-0.788,10.24l-37.022,37.022
	c-3.151,3.151-7.089,3.151-10.24,0.788L256,369.034c-0.788,0-1.575,0.788-1.575,0.788c-2.363,6.302-3.151,12.603-3.151,18.905
	v18.905C250.486,412.357,247.335,415.508,242.609,415.508z M144.935,399.754h89.797v-11.028c0-9.452,1.575-18.905,5.514-27.569
	c0.788-1.575,2.363-3.151,3.938-3.938c3.151-1.575,5.514-3.151,7.877-4.726c3.151-1.575,6.302-1.575,8.665,0.788l25.206,19.692
	l27.569-27.569l-19.692-25.206c-2.363-2.363-2.363-6.302-0.788-8.665c6.302-10.24,11.028-21.268,13.391-33.083
	c0.788-3.151,3.151-5.514,6.302-6.302l32.295-3.938v-38.597l-32.295-3.938c-3.151-0.788-5.514-2.363-6.302-6.302
	c-3.151-11.815-7.877-22.843-13.391-33.083c-1.575-3.151-1.575-6.302,0.788-8.665l19.692-25.206l-27.569-27.569l-25.206,19.692
	c-2.363,2.363-6.302,2.363-8.665,0.788c-10.24-6.302-21.268-11.028-33.083-13.391c-3.151-0.788-5.514-3.151-6.302-6.302
	l-3.938-32.295h-38.597l-3.938,32.295c-0.788,3.151-2.363,5.514-6.302,6.302c-11.815,3.151-22.843,7.877-33.083,13.391
	c-3.151,1.575-6.302,1.575-8.665-0.788l-25.206-19.692l-27.569,27.569l19.692,25.206c2.363,2.363,2.363,6.302,0.788,8.665
	c-6.302,10.24-11.028,21.268-13.391,33.083c-0.788,3.151-3.151,5.514-6.302,6.302l-32.295,3.938v38.597l32.295,3.938
	c3.151,0,5.514,2.363,6.302,6.302c3.151,11.815,7.877,22.843,13.391,33.083c1.575,3.151,1.575,6.302-0.788,8.665l-19.692,25.206
	l27.569,27.569l25.206-19.692c2.363-2.363,6.302-2.363,8.665-0.788c2.363,1.575,5.514,3.151,7.877,4.726
	c1.575,0.788,3.151,2.363,3.938,3.938c3.938,8.665,5.514,18.117,5.514,27.569v11.028H144.935z"/>
<rect x="144.935" y="407.631" style="fill:#FFFFFF;" width="90.585" height="61.44"/>
<path style="fill:#183651;" d="M235.52,476.948h-90.585c-4.726,0-7.877-3.151-7.877-7.877v-61.44c0-4.726,3.151-7.877,7.877-7.877
	h90.585c4.726,0,7.877,3.151,7.877,7.877v61.44C243.397,473.009,239.458,476.948,235.52,476.948z M152.812,461.194h74.831v-45.686
	h-74.831V461.194z"/>
<path style="fill:#FFFFFF;" d="M170.929,496.64h37.809c6.302-5.514,10.24-13.391,10.24-22.055v-5.514h-58.289v5.514
	C160.689,483.249,164.628,491.126,170.929,496.64z"/>
<path style="fill:#183651;" d="M208.738,504.517h-37.809c-1.575,0-3.938-0.788-4.726-1.575
	c-8.665-7.089-13.391-17.329-13.391-28.357v-5.514c0-4.726,3.151-7.877,7.877-7.877h58.289c4.726,0,7.877,3.151,7.877,7.877v5.514
	c0,11.028-4.726,21.268-13.391,28.357C212.677,503.729,211.102,504.517,208.738,504.517z M174.08,488.763h31.508
	c3.151-3.151,4.726-7.877,5.514-11.815h-42.535C169.354,480.886,170.929,485.612,174.08,488.763z"/>
<path style="fill:#183651;" d="M144.935,446.228h-14.178c-4.726,0-7.877-3.151-7.877-7.877c0-4.726,3.151-7.877,7.877-7.877h14.178
	c4.726,0,7.877,3.151,7.877,7.877C152.812,443.077,149.662,446.228,144.935,446.228z"/>
<path style="fill:#183651;" d="M249.698,446.228H235.52c-4.726,0-7.877-3.151-7.877-7.877c0-4.726,3.151-7.877,7.877-7.877h14.178
	c4.726,0,7.877,3.151,7.877,7.877C257.575,443.077,254.425,446.228,249.698,446.228z"/>
<path style="fill:#FBBD5E;" d="M189.834,146.117c-10.24,0-21.268,1.575-31.508,4.726c-39.385,11.815-66.954,50.412-66.954,92.948
	c0,29.932,13.391,58.289,37.022,76.406c18.905,14.966,30.72,37.809,32.295,63.015v16.542h58.289v-16.542
	c1.575-25.206,12.603-48.049,32.295-63.015c23.631-18.905,37.022-46.474,37.022-76.406
	C288.295,190.228,244.185,146.117,189.834,146.117z"/>
<g>
	<path style="fill:#183651;" d="M203.225,415.508c-4.726,0-7.877-3.151-7.877-7.877V292.628c0-1.575,0.788-3.151,1.575-4.726
		l36.234-46.474c2.363-3.151,7.877-3.938,11.028-1.575c3.151,2.363,3.938,7.877,1.575,11.028l-33.871,44.111v112.64
		C211.102,412.357,207.951,415.508,203.225,415.508z"/>
	<path style="fill:#183651;" d="M176.443,415.508c-4.726,0-7.877-3.151-7.877-7.877v-112.64l-33.871-44.111
		c-2.363-3.151-2.363-8.665,1.575-11.028c3.151-2.363,8.665-2.363,11.028,1.575l36.234,46.474c0.788,1.575,1.575,3.151,1.575,4.726
		v115.003C184.32,412.357,181.169,415.508,176.443,415.508z"/>
</g>
<path style="fill:#4FBF9F;" d="M419.84,8.271c-41.748,0-76.406,33.871-76.406,76.406c0,17.329,6.302,33.871,15.754,46.474
	l-18.117,44.898l45.686-22.055c10.24,4.726,20.48,7.089,32.295,7.089c41.748,0,76.406-33.871,76.406-76.406
	C496.246,42.142,461.588,8.271,419.84,8.271z"/>
<path style="fill:#183651;" d="M336.345,180.775c-2.363-2.363-3.151-5.514-1.575-8.665l16.542-40.172
	c-9.452-14.178-14.966-30.72-14.966-47.262c0-46.474,37.809-84.283,84.283-84.283s84.283,37.809,84.283,84.283
	s-37.809,84.283-84.283,84.283c-11.028,0-22.055-2.363-32.295-6.302l-42.535,20.48C341.858,183.926,338.708,183.138,336.345,180.775
	z M419.84,16.148c-37.809,0-68.529,30.72-68.529,68.529c0,14.966,4.726,29.145,14.178,41.748c1.575,2.363,2.363,5.514,0.788,7.877
	l-10.24,25.994l27.569-13.391c2.363-0.788,4.726-0.788,7.089,0c9.452,4.726,18.905,6.302,29.145,6.302
	c37.809,0,68.529-30.72,68.529-68.529S457.649,16.148,419.84,16.148z"/>
<circle style="fill:#FFFFFF;" cx="419.84" cy="84.677" r="49.625"/>
<polygon style="fill:#CECFD0;" points="444.258,59.471 411.963,91.766 395.422,75.225 386.757,83.889 411.963,109.095 
	411.963,109.095 452.923,68.923 452.923,68.135 "/>
<path style="fill:#183651;" d="M398.572,481.674h-15.754V465.92h15.754V481.674z M367.065,481.674h-15.754V465.92h15.754V481.674z
	 M335.557,481.674h-15.754V465.92h15.754V481.674z M304.049,481.674h-15.754V465.92h15.754V481.674z M415.114,481.674l-2.363-15.754
	c4.726-0.788,8.665-2.363,12.603-3.938l7.089,14.178C426.929,478.523,421.415,480.098,415.114,481.674z M447.409,465.92
	l-10.24-11.815c3.151-3.151,6.302-6.302,8.665-10.24l13.391,7.877C455.286,457.255,451.348,461.982,447.409,465.92z
	 M465.526,435.988l-14.966-3.938c0.788-3.938,1.575-7.877,1.575-11.815v-1.575h15.754v1.575
	C467.889,425.748,467.102,430.474,465.526,435.988z M467.889,402.117h-15.754v-15.754h15.754V402.117z M467.889,370.609h-15.754
	v-15.754h15.754V370.609z M467.889,339.889h-15.754v-15.754h15.754V339.889z M467.889,308.382h-15.754v-15.754h15.754V308.382z
	 M467.889,276.874h-15.754V261.12h15.754V276.874z M467.889,245.366h-15.754v-15.754h15.754V245.366z M467.889,213.858h-15.754
	v-15.754h15.754V213.858z"/>
<g>
</g>
<g>
</g>
<g>
</g>
<g>
</g>
<g>
</g>
<g>
</g>
<g>
</g>
<g>
</g>
<g>
</g>
<g>
</g>
<g>
</g>
<g>
</g>
<g>
</g>
<g>
</g>
<g>
</g>
</svg>
