<?xml version="1.0" encoding="iso-8859-1"?>
<!-- Generator: Adobe Illustrator 19.0.0, SVG Export Plug-In . SVG Version: 6.00 Build 0)  -->
<svg version="1.1" id="Capa_1" xmlns="http://www.w3.org/2000/svg" xmlns:xlink="http://www.w3.org/1999/xlink" x="0px" y="0px"
	 viewBox="0 0 504.123 504.123" style="enable-background:new 0 0 504.123 504.123;" xml:space="preserve">
<circle style="fill:#FBBD5E;" cx="252.062" cy="252.062" r="252.062"/>
<g>
	
		<rect x="100.977" y="415.014" transform="matrix(-0.8404 -0.542 0.542 -0.8404 -28.8698 837.2791)" style="fill:#183651;" width="15.754" height="15.754"/>
	
		<rect x="134.007" y="436.372" transform="matrix(-0.8404 -0.542 0.542 -0.8404 20.3425 894.4882)" style="fill:#183651;" width="15.754" height="15.754"/>
	
		<rect x="167.029" y="457.73" transform="matrix(-0.8404 -0.542 0.542 -0.8404 69.5403 951.6931)" style="fill:#183651;" width="15.754" height="15.754"/>
	
		<rect x="387.597" y="415.4" transform="matrix(-0.5419 -0.8404 0.8404 -0.5419 254.0546 985.0264)" style="fill:#183651;" width="15.753" height="15.753"/>
	
		<rect x="354.495" y="436.526" transform="matrix(-0.542 -0.8404 0.8404 -0.542 185.304 989.7975)" style="fill:#183651;" width="15.754" height="15.754"/>
	
		<rect x="321.493" y="457.588" transform="matrix(-0.5419 -0.8404 0.8404 -0.5419 116.6715 994.5211)" style="fill:#183651;" width="15.753" height="15.753"/>
</g>
<path style="fill:#2CA0DA;" d="M316.652,98.462h-22.055v273.329h22.055l3.938-32.295c10.24-2.363,20.48-7.089,29.145-12.603
	l25.994,20.48l30.72-30.72l-20.48-25.994c5.514-8.665,9.452-18.905,12.603-29.145l32.295-3.938v-44.111l-32.295-3.938
	c-2.363-10.24-7.089-20.48-12.603-29.145l20.48-25.994l-30.72-30.72l-25.994,20.48c-8.665-5.514-18.905-9.452-29.145-12.603
	L316.652,98.462z"/>
<path style="fill:#183651;" d="M294.597,379.668c-2.363,0-3.938-0.788-5.514-2.363c-1.575-1.575-2.363-3.151-2.363-5.514V98.462
	c0-4.726,3.151-7.877,7.877-7.877h22.055c3.938,0,7.089,3.151,7.877,7.089l3.151,26.782c7.877,2.363,14.966,5.514,21.268,8.665
	l21.268-16.542c3.151-2.363,7.877-2.363,10.24,0.788l30.72,30.72c3.151,3.151,3.151,7.089,0.788,10.24l-16.542,21.268
	c3.938,7.089,7.089,14.178,8.665,21.268l27.569,3.151c3.938,0.788,7.089,3.938,7.089,7.877V256c0,3.938-3.151,7.089-7.089,7.877
	l-27.569,3.151c-2.363,7.877-5.514,14.966-8.665,21.268l16.542,21.268c2.363,3.151,2.363,7.877-0.788,10.24l-30.72,30.72
	c-3.151,3.151-7.089,3.151-10.24,0.788l-21.268-16.542c-7.089,3.938-14.178,7.089-21.268,8.665l-3.151,26.782
	c-0.788,3.938-3.938,7.089-7.877,7.089L294.597,379.668z M302.474,106.338v257.575h7.089l3.151-25.206
	c0.788-3.151,2.363-6.302,6.302-7.089c9.452-2.363,18.905-6.302,27.569-11.028c3.151-1.575,6.302-1.575,8.665,0.788l20.48,15.754
	l21.268-21.268l-15.754-20.48c-2.363-2.363-2.363-6.302-0.788-8.665c5.514-8.665,8.665-17.329,11.028-27.569
	c0.788-3.151,3.151-5.514,6.302-6.302l25.206-3.151v-29.932l-25.206-2.363c-3.151-0.788-6.302-2.363-6.302-6.302
	c-2.363-9.452-6.302-18.905-11.028-27.569c-1.575-3.151-1.575-6.302,0.788-8.665l15.754-20.48l-21.268-21.268l-20.48,15.754
	c-2.363,2.363-6.302,2.363-8.665,0.788c-8.665-5.514-17.329-8.665-27.569-11.028c-3.151-0.788-5.514-3.151-6.302-7.089
	l-3.151-25.206H302.474z"/>
<path style="fill:#FFFFFF;" d="M341.858,235.52c0-25.994-21.268-47.262-47.262-47.262v93.735
	C320.591,281.994,341.858,261.514,341.858,235.52z"/>
<path style="fill:#183651;" d="M294.597,289.871c-4.726,0-7.877-3.151-7.877-7.877v-93.735c0-4.726,3.151-7.877,7.877-7.877
	c29.932,0,55.138,24.418,55.138,55.138C349.735,265.452,325.317,289.871,294.597,289.871z M302.474,196.923v76.406
	c18.117-3.938,31.508-19.692,31.508-38.597C333.982,216.615,320.591,200.862,302.474,196.923z"/>
<path style="fill:#F06151;" d="M181.169,397.785h25.994V72.468h-25.994l-4.726,38.597c-12.603,3.151-24.418,7.877-35.446,14.966
	l-30.72-23.631l-37.022,37.022l23.631,30.72c-6.302,11.028-11.815,22.843-14.966,35.446l-38.597,4.726v51.988l38.597,4.726
	c3.151,12.603,7.877,24.418,14.966,35.446l-23.631,30.72l37.022,37.022l30.72-23.631c11.028,6.302,22.843,11.815,35.446,14.178
	L181.169,397.785z"/>
<path style="fill:#183651;" d="M207.163,405.662h-25.994c-3.938,0-7.089-3.151-7.877-7.089l-3.938-33.083
	c-9.452-3.151-18.905-6.302-27.569-11.028l-26.782,20.48c-3.151,2.363-7.877,2.363-10.24-0.788l-37.022-37.022
	c-2.363-2.363-2.363-7.089,0-10.24l20.48-26.782c-4.726-8.665-8.665-18.117-11.028-27.569l-33.083-3.938
	c-3.938-0.788-7.089-3.938-7.089-7.877v-51.988c0-3.938,3.151-7.089,7.089-7.877l33.083-3.938
	c3.151-9.452,6.302-18.905,11.028-27.569l-20.48-26.782c-2.363-3.151-2.363-7.877,0.788-10.24l37.022-37.022
	c3.151-3.151,7.089-3.151,10.24-0.788l26.782,20.48c8.665-4.726,18.117-8.665,27.569-11.028l3.938-33.083
	c0.788-3.938,3.938-7.089,7.877-7.089h25.994c2.363,0,3.938,0.788,5.514,2.363c1.575,1.575,2.363,3.151,2.363,5.514v326.105
	C215.04,402.511,211.889,405.662,207.163,405.662z M188.258,389.908h11.028V80.345h-11.028l-3.938,31.508
	c-0.788,3.151-2.363,6.302-6.302,7.089c-11.815,3.151-22.843,7.089-33.083,13.391c-3.151,1.575-6.302,1.575-8.665-0.788
	l-25.206-19.692l-26.782,26.782l19.692,25.206c2.363,2.363,2.363,6.302,0.788,8.665c-6.302,10.24-11.028,21.268-13.391,33.083
	c-0.788,3.151-3.151,5.514-7.089,6.302l-31.508,3.938v38.597l31.508,3.938c3.151,0.788,6.302,2.363,7.089,6.302
	c3.151,11.815,7.089,22.843,13.391,33.083c1.575,3.151,1.575,6.302-0.788,8.665l-19.692,25.206l26.782,26.782l25.206-19.692
	c2.363-2.363,6.302-2.363,8.665-0.788c10.24,6.302,21.268,11.028,33.083,13.391c3.151,0.788,5.514,3.151,6.302,7.089
	L188.258,389.908z"/>
<path style="fill:#FFFFFF;" d="M151.237,235.52c0,30.72,25.206,55.926,55.926,55.926V179.594
	C176.443,179.594,151.237,204.8,151.237,235.52z"/>
<path style="fill:#183651;" d="M207.163,299.323c-35.446,0-63.803-28.357-63.803-63.803s28.357-63.803,63.803-63.803
	c4.726,0,7.877,3.151,7.877,7.877v111.852C215.04,295.385,211.889,299.323,207.163,299.323z M199.286,188.258
	c-22.843,3.938-40.172,23.631-40.172,47.262s17.329,43.323,40.172,47.262V188.258z"/>
<rect x="207.163" y="87.434" style="fill:#4FBF9F;" width="87.434" height="334.769"/>
<path style="fill:#183651;" d="M294.597,430.08h-87.434c-4.726,0-7.877-3.151-7.877-7.877V87.434c0-4.726,3.151-7.877,7.877-7.877
	h87.434c4.726,0,7.877,3.151,7.877,7.877v334.769C302.474,426.142,299.323,430.08,294.597,430.08z M215.04,414.326h71.68V95.311
	h-71.68L215.04,414.326L215.04,414.326z"/>
<rect x="236.308" y="115.791" style="fill:#FFFFFF;" width="29.932" height="277.268"/>
<path style="fill:#E1E6E7;" d="M275.692,7.877h-49.625c-10.24,0-18.905,8.665-18.905,18.905v60.652h87.434V26.782
	C294.597,16.542,285.932,7.877,275.692,7.877z"/>
<path style="fill:#183651;" d="M294.597,95.311h-87.434c-4.726,0-7.877-3.151-7.877-7.877V26.782
	C199.286,11.815,211.102,0,226.068,0h49.625c14.966,0,26.782,11.815,26.782,26.782v60.652
	C302.474,91.372,299.323,95.311,294.597,95.311z M215.04,79.557h71.68V26.782c0-6.302-4.726-11.028-11.028-11.028h-49.625
	c-6.302,0-11.028,4.726-11.028,11.028L215.04,79.557L215.04,79.557z"/>
<polygon style="fill:#FFFFFF;" points="251.274,496.246 294.597,422.203 207.163,422.203 "/>
<path style="fill:#183651;" d="M251.274,504.123c-3.151,0-5.514-1.575-7.089-3.938l-43.323-74.043c-1.575-2.363-1.575-5.514,0-7.877
	c1.575-2.363,3.938-3.938,7.089-3.938h87.434c3.151,0,5.514,1.575,7.089,3.938c1.575,2.363,1.575,5.514,0,7.877l-44.898,74.043
	C256.788,502.548,253.637,504.123,251.274,504.123z M221.342,430.08l29.932,51.2l29.932-51.2H221.342z"/>
<g>
</g>
<g>
</g>
<g>
</g>
<g>
</g>
<g>
</g>
<g>
</g>
<g>
</g>
<g>
</g>
<g>
</g>
<g>
</g>
<g>
</g>
<g>
</g>
<g>
</g>
<g>
</g>
<g>
</g>
</svg>
