<?xml version="1.0" encoding="iso-8859-1"?>
<!-- Generator: Adobe Illustrator 19.0.0, SVG Export Plug-In . SVG Version: 6.00 Build 0)  -->
<svg version="1.1" id="Capa_1" xmlns="http://www.w3.org/2000/svg" xmlns:xlink="http://www.w3.org/1999/xlink" x="0px" y="0px"
	 viewBox="0 0 504.911 504.911" style="enable-background:new 0 0 504.911 504.911;" xml:space="preserve">
<rect x="119.729" y="8.271" style="fill:#E1E6E7;" width="376.517" height="262.302"/>
<path style="fill:#183651;" d="M496.246,278.449H119.729c-4.726,0-7.877-3.151-7.877-7.877V8.271c0-4.726,3.151-7.877,7.877-7.877
	h376.517c4.726,0,7.877,3.151,7.877,7.877v262.302C504.123,275.298,500.972,278.449,496.246,278.449z M127.606,262.695h360.763
	V16.148H127.606V262.695z"/>
<rect x="151.237" y="39.778" style="fill:#FFFFFF;" width="313.502" height="199.286"/>
<path style="fill:#2CA0DA;" d="M482.068,434.412l-47.262-25.994l-47.262,25.994c-8.665,4.726-14.178,14.178-14.178,24.418v37.809
	h122.092v-37.809C496.246,448.591,490.732,439.138,482.068,434.412z"/>
<path style="fill:#183651;" d="M496.246,503.729H374.154c-4.726,0-7.877-3.151-7.877-7.877v-37.809
	c0-12.603,7.089-25.206,18.117-30.72l47.262-25.994c2.363-1.575,5.514-1.575,7.877,0l47.262,25.994
	c11.028,6.302,18.117,18.117,18.117,30.72v37.809C504.123,500.578,500.972,503.729,496.246,503.729z M382.031,487.975h106.338
	v-29.932c0-7.089-3.938-13.391-10.24-17.329l-43.323-23.631l-43.323,23.631c-6.302,3.151-10.24,10.24-10.24,17.329v29.932H382.031z"
	/>
<path style="fill:#FFFFFF;" d="M465.526,381.637c0,20.48-13.391,44.111-30.72,44.111c-17.329,0-30.72-23.631-30.72-44.111
	s13.391-31.508,30.72-31.508C452.135,350.129,465.526,360.369,465.526,381.637z"/>
<path style="fill:#183651;" d="M435.594,433.625c-22.055,0-38.597-27.569-38.597-51.988c0-23.631,15.754-39.385,38.597-39.385
	s38.597,15.754,38.597,39.385C473.403,406.055,457.649,433.625,435.594,433.625z M435.594,358.006
	c-14.178,0-22.843,8.665-22.843,23.631c0,17.329,11.815,36.234,22.843,36.234s22.843-18.905,22.843-36.234
	C457.649,366.671,449.772,358.006,435.594,358.006z"/>
<path style="fill:#F06151;" d="M359.975,434.412l-47.262-25.994l-47.262,25.994c-8.665,4.726-14.178,14.178-14.178,24.418v37.809
	h122.88v-37.809C374.154,448.591,368.64,439.138,359.975,434.412z"/>
<path style="fill:#183651;" d="M374.154,503.729H252.062c-4.726,0-7.877-3.151-7.877-7.877v-37.809
	c0-12.603,7.089-25.206,18.117-30.72l47.262-25.994c2.363-1.575,5.514-1.575,7.877,0l47.262,25.994
	c11.028,6.302,18.117,18.117,18.117,30.72v37.809C382.031,500.578,378.88,503.729,374.154,503.729z M259.938,487.975h106.338
	v-29.932c0-7.089-3.938-13.391-10.24-17.329l-43.323-23.631l-43.323,23.631c-6.302,3.151-10.24,10.24-10.24,17.329v29.932H259.938z"
	/>
<path style="fill:#FFFFFF;" d="M343.434,381.637c0,20.48-13.391,44.111-30.72,44.111c-17.329,0-30.72-23.631-30.72-44.111
	s13.391-31.508,30.72-31.508C330.043,350.129,343.434,360.369,343.434,381.637z"/>
<path style="fill:#183651;" d="M313.502,433.625c-22.055,0-38.597-27.569-38.597-51.988c0-23.631,15.754-39.385,38.597-39.385
	c22.843,0,38.597,15.754,38.597,39.385C351.311,406.055,335.557,433.625,313.502,433.625z M313.502,358.006
	c-14.178,0-22.843,8.665-22.843,23.631c0,17.329,11.815,36.234,22.843,36.234s22.843-18.905,22.843-36.234
	C335.557,366.671,327.68,358.006,313.502,358.006z"/>
<path style="fill:#4FBF9F;" d="M215.828,419.446v77.194H7.877v-77.194c0-25.994,20.48-47.262,46.474-48.837
	c13.391,20.48,33.871,33.871,57.502,33.871s44.111-12.603,57.502-33.871C195.348,372.185,215.828,392.665,215.828,419.446z"/>
<path style="fill:#183651;" d="M215.828,504.517H7.877c-4.726,0-7.877-3.151-7.877-7.877v-77.194
	c0-29.932,23.631-55.138,53.563-56.714c3.151,0,5.514,1.575,7.089,3.938c12.603,18.905,31.508,29.932,51.2,29.932
	s38.597-11.028,51.2-29.932c1.575-2.363,3.938-3.938,7.089-3.938c29.932,1.575,53.563,26.782,53.563,56.714v77.194
	C223.705,501.366,219.766,504.517,215.828,504.517z M15.754,488.763h192.197v-69.317c0-20.48-14.966-37.022-34.658-40.172
	c-15.754,21.268-37.809,33.083-61.44,33.083s-46.474-11.815-61.44-33.083c-19.692,3.151-34.658,19.692-34.658,40.172
	C15.754,419.446,15.754,488.763,15.754,488.763z"/>
<path style="fill:#FFFFFF;" d="M31.508,473.009v-53.563c0-9.452,5.514-18.117,13.391-22.055
	c18.117,19.692,41.748,30.72,66.954,30.72s48.837-11.028,66.954-30.72c7.877,3.938,13.391,12.603,13.391,22.055v53.563H31.508z"/>
<ellipse style="fill:#FBBD5E;" cx="111.852" cy="303.655" rx="49.625" ry="68.529"/>
<path style="fill:#183651;" d="M111.852,379.274c-31.508,0-57.502-33.871-57.502-76.406s25.994-76.406,57.502-76.406
	s57.502,34.658,57.502,77.194S143.36,379.274,111.852,379.274z M111.852,243.003c-22.843,0-41.748,26.782-41.748,60.652
	c0,33.083,18.905,60.652,41.748,60.652s41.748-27.569,41.748-60.652C153.6,269.785,134.695,243.003,111.852,243.003z"/>
<path style="fill:#FFFFFF;" d="M166.203,255.606c-1.575-12.603-11.028-21.268-22.055-26.782c-20.48-10.24-44.898-10.24-64.591,0
	c-11.028,5.514-20.48,14.178-22.055,26.782c0,0-15.754,11.028,5.514,58.289c0,0-4.726-11.815,10.24-23.631
	c0,0-7.089-22.055,12.603-22.055c0,0,16.542,8.665,25.994,7.089c9.452,1.575,25.994-7.089,25.994-7.089
	c19.692,0,12.603,22.055,12.603,22.055c14.966,11.815,10.24,23.631,10.24,23.631C181.957,266.634,166.203,255.606,166.203,255.606z"
	/>
<g>
	<path style="fill:#183651;" d="M160.689,321.772c-0.788,0-2.363,0-3.151-0.788c-3.938-1.575-5.514-6.302-3.938-10.24
		c0-0.788,1.575-7.089-7.877-14.178c-2.363-2.363-3.938-5.514-2.363-8.665c0.788-3.151,1.575-7.877,0-10.24
		c-0.788-0.788-1.575-1.575-3.151-1.575c-5.514,2.363-18.117,7.877-27.569,7.089c-9.452,0.788-22.843-4.726-27.569-7.089
		c-1.575,0-2.363,0.788-3.151,1.575c-1.575,2.363-0.788,7.089,0,10.24c0.788,3.151,0,6.302-2.363,8.665
		c-7.877,6.302-8.665,11.815-7.877,13.391c0.788,0.788,0.788,2.363,0.788,3.151c0,4.726-3.151,7.877-7.877,7.877
		c-0.788,0-2.363,0-3.151-0.788c-1.575-0.788-3.151-2.363-3.938-3.938c-18.117-41.748-11.028-59.077-5.514-65.378
		c2.363-11.815,11.028-22.843,25.994-29.932c22.055-11.815,50.412-11.815,72.468,0c14.178,7.089,23.631,18.117,25.994,29.932
		c5.514,6.302,12.603,23.631-5.514,65.378C166.991,320.197,163.84,321.772,160.689,321.772z M61.44,261.908
		c0,0-5.514,6.302,0.788,27.569c0.788-0.788,1.575-1.575,2.363-2.363c-0.788-4.726-0.788-12.603,3.151-18.905
		c2.363-3.938,7.877-7.877,17.329-7.877c1.575,0,2.363,0,3.938,0.788c4.726,2.363,15.754,7.089,21.268,6.302
		c0.788,0,2.363,0,3.151,0c5.514,0.788,15.754-3.151,21.268-6.302c0.788-0.788,2.363-0.788,3.938-0.788
		c9.452,0,14.966,4.726,17.329,7.877c4.726,6.302,3.938,14.178,3.151,18.905c0.788,0.788,1.575,1.575,2.363,2.363
		c6.302-22.055,0-28.357,0-28.357c-1.575-1.575-2.363-3.151-3.151-5.514c-0.788-7.877-7.089-14.966-18.117-20.48
		c-17.329-9.452-40.172-9.452-57.502,0c-11.028,6.302-16.542,13.391-17.329,21.268C64.591,258.757,63.803,260.332,61.44,261.908
		L61.44,261.908z"/>
	<rect x="60.652" y="439.138" style="fill:#183651;" width="15.754" height="17.329"/>
	<rect x="103.975" y="439.138" style="fill:#183651;" width="15.754" height="17.329"/>
	<rect x="147.298" y="439.138" style="fill:#183651;" width="15.754" height="17.329"/>
</g>
<rect x="222.129" y="60.258" style="fill:#183651;" width="171.717" height="15.754"/>
<rect x="171.717" y="120.123" style="fill:#183651;" width="272.542" height="15.754"/>
<rect x="171.717" y="158.72" style="fill:#183651;" width="272.542" height="15.754"/>
<rect x="171.717" y="197.317" style="fill:#183651;" width="272.542" height="15.754"/>
<g>
</g>
<g>
</g>
<g>
</g>
<g>
</g>
<g>
</g>
<g>
</g>
<g>
</g>
<g>
</g>
<g>
</g>
<g>
</g>
<g>
</g>
<g>
</g>
<g>
</g>
<g>
</g>
<g>
</g>
</svg>
