<?xml version="1.0" encoding="iso-8859-1"?>
<!-- Generator: Adobe Illustrator 19.0.0, SVG Export Plug-In . SVG Version: 6.00 Build 0)  -->
<svg version="1.1" id="Capa_1" xmlns="http://www.w3.org/2000/svg" xmlns:xlink="http://www.w3.org/1999/xlink" x="0px" y="0px"
	 viewBox="0 0 504.123 504.123" style="enable-background:new 0 0 504.123 504.123;" xml:space="preserve">
<rect x="7.877" y="68.529" style="fill:#2EA0DA;" width="358.4" height="344.222"/>
<path style="fill:#183651;" d="M366.277,420.628H7.877c-4.726,0-7.877-3.151-7.877-7.877V68.529c0-4.726,3.151-7.877,7.877-7.877
	h358.4c4.726,0,7.877,3.151,7.877,7.877v344.222C374.154,416.689,370.215,420.628,366.277,420.628z M15.754,404.874H358.4V76.406
	H15.754V404.874z"/>
<g>
	<rect x="39.385" y="100.037" style="fill:#FFFFFF;" width="295.385" height="281.206"/>
	<path style="fill:#FFFFFF;" d="M366.277,68.529V39.385c0-17.329-14.178-31.508-31.508-31.508H39.385
		c-17.329,0-31.508,14.178-31.508,31.508v29.145H366.277z"/>
</g>
<path style="fill:#183651;" d="M366.277,76.406H7.877C3.151,76.406,0,73.255,0,68.529V39.385C0,17.329,17.329,0,39.385,0h295.385
	c22.055,0,39.385,17.329,39.385,39.385v29.145C374.154,73.255,370.215,76.406,366.277,76.406z M15.754,60.652H358.4V39.385
	c0-13.391-10.24-23.631-23.631-23.631H39.385c-13.391,0-23.631,10.24-23.631,23.631V60.652z"/>
<path style="fill:#FFFFFF;" d="M7.877,412.751v51.988c0,17.329,14.178,31.508,31.508,31.508h295.385
	c17.329,0,31.508-14.178,31.508-31.508v-51.988H7.877z"/>
<g>
	<path style="fill:#183651;" d="M334.769,504.123H39.385C17.329,504.123,0,486.794,0,464.738v-51.988
		c0-4.726,3.151-7.877,7.877-7.877h358.4c4.726,0,7.877,3.151,7.877,7.877v51.988C374.154,486.006,356.037,504.123,334.769,504.123z
		 M15.754,420.628v44.111c0,13.391,10.24,23.631,23.631,23.631h295.385c13.391,0,23.631-10.24,23.631-23.631v-44.111H15.754z"/>
	<path style="fill:#183651;" d="M218.978,46.474h-48.049c-4.726,0-7.877-3.151-7.877-7.877s3.151-7.877,7.877-7.877h48.049
		c4.726,0,7.877,3.151,7.877,7.877S223.705,46.474,218.978,46.474z"/>
	<path style="fill:#183651;" d="M137.058,46.474h-10.24c-4.726,0-7.877-3.151-7.877-7.877s3.151-7.877,7.877-7.877h10.24
		c4.726,0,7.877,3.151,7.877,7.877S140.997,46.474,137.058,46.474z"/>
	<circle style="fill:#183651;" cx="186.683" cy="454.498" r="19.692"/>
</g>
<rect x="334.769" y="118.154" style="fill:#FFFFFF;" width="161.477" height="103.975"/>
<path style="fill:#183651;" d="M496.246,230.006H334.769c-4.726,0-7.877-3.151-7.877-7.877V118.154c0-4.726,3.151-7.877,7.877-7.877
	h161.477c4.726,0,7.877,3.151,7.877,7.877v103.975C504.123,226.068,500.972,230.006,496.246,230.006z M342.646,214.252h145.723
	v-88.222H342.646V214.252z"/>
<rect x="334.769" y="260.726" style="fill:#FFFFFF;" width="161.477" height="103.975"/>
<path style="fill:#183651;" d="M496.246,371.791H334.769c-4.726,0-7.877-3.151-7.877-7.877V260.726c0-4.726,3.151-7.877,7.877-7.877
	h161.477c4.726,0,7.877,3.151,7.877,7.877v103.975C504.123,368.64,500.972,371.791,496.246,371.791z M342.646,356.037h145.723
	v-87.434H342.646V356.037z"/>
<polygon style="fill:#E0E4E8;" points="342.646,214.252 385.182,159.114 415.114,199.286 446.622,170.929 488.369,214.252 "/>
<circle style="fill:#FBBD5E;" cx="424.566" cy="152.025" r="14.966"/>
<rect x="74.043" y="130.757" style="fill:#FFFFFF;" width="80.345" height="80.345"/>
<path style="fill:#183651;" d="M154.388,219.766H74.043c-4.726,0-7.877-3.151-7.877-7.877v-81.132c0-4.726,3.151-7.877,7.877-7.877
	h80.345c4.726,0,7.877,3.151,7.877,7.877v80.345C162.265,215.828,159.114,219.766,154.388,219.766z M81.92,204.012h64.591v-64.591
	H81.92C81.92,139.422,81.92,204.012,81.92,204.012z"/>
<rect x="74.043" y="269.391" style="fill:#FFFFFF;" width="80.345" height="80.345"/>
<path style="fill:#183651;" d="M154.388,358.4H74.043c-4.726,0-7.877-3.151-7.877-7.877v-81.132c0-4.726,3.151-7.877,7.877-7.877
	h80.345c4.726,0,7.877,3.151,7.877,7.877v81.132C162.265,354.462,159.114,358.4,154.388,358.4z M81.92,342.646h64.591v-64.591H81.92
	C81.92,278.055,81.92,342.646,81.92,342.646z"/>
<g>
	<circle style="fill:#4FBF9F;" cx="114.215" cy="171.717" r="16.542"/>
	<circle style="fill:#4FBF9F;" cx="114.215" cy="310.351" r="16.542"/>
</g>
<polygon style="fill:#FBBD5E;" points="342.646,356.037 415.114,289.871 488.369,356.037 "/>
<polygon style="fill:#4FBF9F;" points="488.369,267.815 415.114,328.468 342.646,267.815 "/>
<g>
	<path style="fill:#183651;" d="M285.932,179.594H154.388c-4.726,0-7.877-3.151-7.877-7.877c0-4.726,3.151-7.877,7.877-7.877
		h123.668v-29.932c0-4.726,3.151-7.877,7.877-7.877h48.837c4.726,0,7.877,3.151,7.877,7.877c0,4.726-3.151,7.877-7.877,7.877h-40.96
		v29.932C293.809,175.655,290.658,179.594,285.932,179.594z"/>
	<path style="fill:#183651;" d="M334.769,356.037h-48.837c-4.726,0-7.877-3.151-7.877-7.877v-29.145H154.388
		c-4.726,0-7.877-3.151-7.877-7.877s3.151-7.877,7.877-7.877h131.545c4.726,0,7.877,3.151,7.877,7.877v29.932h40.96
		c4.726,0,7.877,3.151,7.877,7.877S338.708,356.037,334.769,356.037z"/>
</g>
<g>
</g>
<g>
</g>
<g>
</g>
<g>
</g>
<g>
</g>
<g>
</g>
<g>
</g>
<g>
</g>
<g>
</g>
<g>
</g>
<g>
</g>
<g>
</g>
<g>
</g>
<g>
</g>
<g>
</g>
</svg>
