<?xml version="1.0" encoding="iso-8859-1"?>
<!-- Generator: Adobe Illustrator 19.0.0, SVG Export Plug-In . SVG Version: 6.00 Build 0)  -->
<svg version="1.1" id="Capa_1" xmlns="http://www.w3.org/2000/svg" xmlns:xlink="http://www.w3.org/1999/xlink" x="0px" y="0px"
	 viewBox="0 0 505.514 505.514" style="enable-background:new 0 0 505.514 505.514;" xml:space="preserve">
<circle style="fill:#FBBD5E;" cx="253.453" cy="252.363" r="252.062"/>
<path style="fill:#FFFFFF;" d="M214.068,10.542C166.807,13.693,113.244,38.899,83.311,75.92
	c-18.117,18.905-36.234,51.2-45.686,96.886c0,0.788,0,0.788,0,1.575H9.268l50.412,62.228l50.412-62.228H80.948
	c0-1.575,0-3.151,0-5.514c1.575-34.658,16.542-65.378,23.631-76.406c22.843-37.809,73.255-73.255,124.455-80.345
	c7.877-0.788,12.603-1.575,12.603-1.575C218.794,9.754,224.308,9.754,214.068,10.542z"/>
<path style="fill:#183651;" d="M59.681,245.274c-2.363,0-4.726-0.788-6.302-3.151L2.967,179.896
	c-1.575-2.363-2.363-5.514-0.788-8.665c1.575-2.363,3.938-4.726,7.089-4.726h21.268c8.665-40.96,27.569-75.618,47.262-96.098
	c27.569-33.871,82.708-64.591,135.483-67.742c11.028-0.788,5.514-0.788,28.357,0c3.938,0,7.089,3.151,7.877,7.089
	c0,3.938-2.363,7.877-7.089,7.877c-24.418,3.938-18.905,2.363-26.782,4.726C175.471,31.81,132.148,61.742,112.456,96.4
	c-9.452,14.178-21.268,44.111-22.843,70.105h21.268c3.151,0,5.514,1.575,7.089,4.726c1.575,2.363,0.788,6.302-0.788,8.665
	L66.77,242.123C64.407,243.699,62.044,245.274,59.681,245.274z M25.81,182.259l33.871,42.535l33.871-41.748H80.948
	c-2.363,0-3.938-0.788-5.514-2.363s-2.363-3.938-2.363-5.514l0.788-7.089c1.575-36.234,18.117-68.529,25.206-78.769
	c6.302-11.028,22.055-32.295,50.412-52.775c-27.569,13.391-48.837,31.508-59.865,45.686c-23.631,23.631-37.022,57.502-44.898,92.948
	c-0.788,3.938-3.938,7.877-7.877,7.877H25.81V182.259z"/>
<path style="fill:#FFFFFF;" d="M423.594,430.382c16.542-17.329,36.234-51.2,44.111-88.222c0.788-3.151,1.575-6.302,1.575-8.665
	c0-0.788,0-0.788,0-1.575h27.569l-50.412-62.228l-50.412,62.228h29.145c0,1.575,0,3.151,0,5.514
	c-1.575,34.658-16.542,65.378-23.631,76.406c-21.268,37.809-68.529,73.255-135.483,81.92
	C335.373,498.123,392.087,468.979,423.594,430.382z"/>
<g>
	<path style="fill:#183651;" d="M284.173,504.425l-18.905-0.788c-3.938,0-7.089-3.151-7.877-7.089c0-3.938,3.151-7.877,7.089-7.877
		c65.378-9.452,109.489-41.748,129.182-77.982c9.452-14.178,21.268-44.111,22.843-70.105h-21.268c-3.151,0-5.514-1.575-7.089-4.726
		c-1.575-2.363-0.788-6.302,0.788-8.665l50.412-62.228c1.575-1.575,3.938-3.151,6.302-3.151l0,0c2.363,0,4.726,0.788,6.302,3.151
		l49.625,61.44c1.575,1.575,2.363,3.938,2.363,6.302c0,4.726-3.938,7.877-7.877,7.877l0,0h-21.268l-0.788,3.938
		c-7.877,37.809-27.569,72.468-46.474,92.16C393.662,480.006,323.558,506,284.173,504.425z M412.567,324.043h12.603
		c2.363,0,3.938,0.788,5.514,2.363c1.575,1.575,2.363,3.938,2.363,5.514l-0.788,7.089c-1.575,33.083-15.754,65.378-25.206,78.769
		c-7.877,14.178-24.418,33.871-50.412,52.775c27.569-14.178,48.837-31.508,59.865-45.686c16.542-17.329,34.658-48.837,42.535-85.071
		l1.575-9.452c0.788-3.938,3.938-7.089,7.877-7.089h11.028l-33.083-40.96L412.567,324.043z"/>
	<rect x="396.813" y="210.616" style="fill:#183651;" width="15.754" height="15.754"/>
	<rect x="435.41" y="210.616" style="fill:#183651;" width="15.754" height="15.754"/>
	<rect x="474.794" y="210.616" style="fill:#183651;" width="15.754" height="15.754"/>
	<rect x="13.994" y="289.385" style="fill:#183651;" width="15.754" height="15.754"/>
	<rect x="53.379" y="289.385" style="fill:#183651;" width="15.754" height="15.754"/>
	<rect x="92.764" y="289.385" style="fill:#183651;" width="15.754" height="15.754"/>
</g>
<path style="fill:#FFFFFF;" d="M136.087,466.616l9.452-20.48l-14.178-8.665c0.788-5.514,1.575-11.028,0.788-16.542l14.966-7.877
	l-7.877-20.48l-15.754,3.938c-3.151-4.726-6.302-8.665-11.028-11.815l4.726-15.754l-20.48-9.452l-7.877,14.966
	c-5.514-0.788-11.028-1.575-16.542-0.788l-7.877-14.966l-20.48,7.877l3.938,15.754c-4.726,3.151-8.665,6.302-11.815,11.028
	l-15.754-4.726l-9.452,20.48l14.178,8.665c-0.788,5.514-1.575,11.028-0.788,16.542l-14.966,7.877l7.877,20.48l15.754-3.938
	c3.151,4.726,6.302,8.665,11.028,11.815l-4.726,15.754l20.48,9.452l8.665-14.178c5.514,0.788,11.028,1.575,16.542,0.788
	l7.877,14.966l20.48-7.877l-3.938-15.754c4.726-3.151,8.665-6.302,11.815-11.028L136.087,466.616z"/>
<path style="fill:#183651;" d="M91.188,504.425c-3.151,0-5.514-1.575-7.089-3.938l-5.514-10.24c-2.363,0-4.726,0-7.877,0
	l-6.302,9.452c-2.363,3.151-6.302,4.726-10.24,3.151l-18.905-10.24c-3.938-1.575-5.514-5.514-3.938-9.452l3.151-11.028
	c-1.575-1.575-3.151-3.938-5.514-5.514l-11.028,2.363c-3.938,0.788-7.877-1.575-9.452-4.726l-7.877-21.268
	c-1.575-3.938,0-7.877,3.938-9.452l10.24-5.514c0-2.363,0-4.726,0-7.877L5.33,413.84c-3.151-2.363-4.726-6.302-3.151-10.24
	l9.452-20.48c1.575-3.938,5.514-5.514,9.452-3.938l11.028,3.151c3.151,0,4.726-1.575,6.302-3.151l-2.363-11.028
	c-0.788-3.938,1.575-7.877,4.726-9.452l21.268-7.877c3.938-1.575,7.877,0,9.452,3.938l5.514,10.24c2.363,0,4.726,0,7.877,0
	l6.302-9.452c2.363-3.151,6.302-4.726,10.24-3.151l20.48,9.452c3.938,1.575,5.514,5.514,3.938,9.452l-4.726,11.028
	c1.575,1.575,3.151,3.938,5.514,5.514l11.028-2.363c3.938-0.788,7.877,1.575,9.452,4.726l7.877,20.48
	c1.575,3.938,0,7.877-3.938,9.452l-10.24,5.514c0,2.363,0,4.726,0,7.877l9.452,6.302c3.151,2.363,4.726,6.302,3.151,10.24
	l-9.452,20.48c-1.575,3.938-5.514,5.514-9.452,3.938l-11.028-3.151c-1.575,1.575-3.938,3.151-5.514,5.514l2.363,11.028
	c0.788,3.938-1.575,7.877-4.726,9.452l-21.268,7.877C93.551,504.425,92.764,504.425,91.188,504.425z M84.099,473.705
	c3.151,0,5.514,1.575,7.089,3.938l4.726,8.665l7.877-3.151l-2.363-9.452c-0.788-3.151,0.788-6.302,3.151-8.665
	c3.938-2.363,7.089-5.514,10.24-9.452c2.363-2.363,5.514-3.938,8.665-2.363l9.452,3.151l3.151-7.877l-7.877-4.726
	c-3.151-1.575-3.938-4.726-3.938-7.877c0.788-4.726,0.788-9.452,0.788-14.178c0-3.151,1.575-6.302,3.938-7.877l8.665-4.726
	l-3.151-7.877l-9.452,2.363c-3.151,0.788-6.302-0.788-8.665-3.151c-2.363-3.938-5.514-7.089-9.452-10.24
	c-2.363-2.363-3.938-5.514-2.363-8.665l3.151-9.452l-7.877-3.151l-4.726,7.877c-1.575,3.151-4.726,3.938-7.877,3.938
	c-4.726-0.788-9.452-0.788-14.178-0.788c-3.151,0-6.302-1.575-7.877-3.938l-4.726-8.665l-7.877,3.151l2.363,9.452
	c0.788,3.151-0.788,6.302-3.151,8.665c-3.938,3.151-7.089,6.302-10.24,9.452c-2.363,2.363-5.514,3.938-8.665,2.363l-8.665-2.363
	l-3.151,7.877l7.877,4.726c3.151,1.575,3.938,4.726,3.938,7.877c-0.788,4.726-0.788,9.452-0.788,14.178
	c0,3.151-1.575,6.302-3.938,7.877l-8.665,4.726l3.151,7.877l9.452-2.363c3.151-0.788,6.302,0.788,8.665,3.151
	c2.363,3.938,5.514,7.089,9.452,10.24c1.575,1.575,2.363,4.726,1.575,7.877l-3.151,9.452l7.877,3.151l4.726-7.877
	c1.575-3.151,4.726-3.938,7.877-3.938c4.726,0.788,9.452,0.788,14.178,0.788C83.311,473.705,84.099,473.705,84.099,473.705z"/>
<circle style="fill:#FFFFFF;" cx="77.798" cy="427.231" r="22.055"/>
<path style="fill:#183651;" d="M77.798,457.951c-4.726,0-8.665-0.788-12.603-3.151c-7.089-3.151-12.603-9.452-15.754-16.542
	c-3.151-7.877-2.363-15.754,0.788-22.843c4.726-10.24,15.754-17.329,27.569-17.329c4.726,0,8.665,0.788,12.603,3.151
	c7.089,3.151,12.603,9.452,15.754,16.542c3.151,7.877,2.363,15.754-0.788,22.843C100.641,450.862,89.613,457.951,77.798,457.951z
	 M77.798,413.053c-5.514,0-11.028,3.151-12.603,8.665c-3.151,7.089,0,15.754,7.089,18.905s15.754,0,18.905-7.089
	c1.575-3.151,1.575-7.089,0.788-11.028c-1.575-3.938-3.938-6.302-7.089-7.877C82.524,413.84,80.161,413.053,77.798,413.053z"/>
<path style="fill:#FFFFFF;" d="M485.034,118.456l9.452-20.48l-14.178-8.665c0.788-5.514,1.575-11.028,0.788-16.542l14.966-7.877
	l-7.877-20.48l-15.754,3.938c-3.151-4.726-6.302-8.665-11.028-11.815l4.726-15.754l-20.48-9.452l-8.665,14.178
	c-5.514-0.788-11.028-1.575-16.542-0.788l-7.877-14.966l-20.48,7.877l3.938,15.754c-4.726,3.151-8.665,6.302-11.815,11.028
	l-15.754-4.726l-9.452,20.48l14.178,8.665c-0.788,5.514-1.575,11.028-0.788,16.542l-14.966,7.877l7.877,20.48l15.754-3.938
	c3.151,4.726,6.302,8.665,11.028,11.815l-4.726,15.754l20.48,9.452l8.665-14.178c5.514,0.788,11.028,1.575,16.542,0.788
	l7.877,14.966l20.48-7.877l-3.938-15.754c4.726-3.151,8.665-6.302,11.815-11.028L485.034,118.456z"/>
<path style="fill:#183651;" d="M440.136,156.265c-3.151,0-5.514-1.575-7.089-3.938l-5.514-10.24c-2.363,0-4.726,0-7.877,0
	l-6.302,9.452c-2.363,3.151-6.302,4.726-10.24,3.151l-20.48-9.452c-3.938-1.575-5.514-5.514-3.938-9.452l3.151-11.028
	c-1.575-1.575-3.151-3.938-5.514-5.514l-11.028,2.363c-3.938,0.788-7.877-1.575-9.452-4.726l-7.877-21.268
	c-1.575-3.938,0-7.877,3.938-9.452l10.24-5.514c0-2.363,0-4.726,0-7.877l-9.452-6.302c-3.151-2.363-4.726-6.302-3.151-10.24
	l9.452-20.48c1.575-3.938,5.514-5.514,9.452-3.938l13.391,3.938c1.575-1.575,3.938-3.151,5.514-4.726l-3.151-11.028
	c-0.788-3.938,1.575-7.877,4.726-9.452l21.268-7.877c3.938-1.575,7.877,0,9.452,3.938l5.514,10.24c2.363,0,4.726,0,7.877,0
	l5.514-9.452c2.363-3.151,6.302-4.726,10.24-3.151l20.48,9.452c3.938,1.575,5.514,5.514,3.938,9.452l-3.151,11.028
	c1.575,1.575,3.151,3.938,5.514,5.514l10.24-2.363c3.938-0.788,7.877,1.575,9.452,4.726l7.877,20.48
	c1.575,3.938,0,7.877-3.938,9.452l-10.24,5.514c0,2.363,0,4.726,0,7.877l9.452,6.302c3.151,2.363,4.726,6.302,3.151,10.24
	l-9.452,20.48c-1.575,3.938-5.514,5.514-9.452,3.938l-11.028-3.938c-1.575,1.575-3.938,3.151-5.514,5.514l2.363,11.028
	c0.788,3.938-1.575,7.877-4.726,9.452l-21.268,7.877C441.711,155.477,440.924,156.265,440.136,156.265z M432.259,125.545
	c3.151,0,5.514,1.575,7.089,3.938l4.726,8.665l7.877-3.151l-2.363-9.452c-0.788-3.151,0.788-6.302,3.151-8.665
	c3.938-2.363,7.089-5.514,10.24-9.452c2.363-2.363,5.514-3.938,8.665-2.363l9.452,3.151l3.151-7.877l-7.877-4.726
	c-3.151-1.575-3.938-4.726-3.938-7.877c0.788-4.726,0.788-9.452,0.788-14.178c0-3.151,1.575-6.302,3.938-7.877l8.665-3.938
	l-3.151-7.877l-9.452,2.363c-3.151,0.788-6.302-0.788-8.665-3.151c-2.363-3.938-5.514-7.089-9.452-10.24
	c-2.363-2.363-3.938-5.514-2.363-8.665l3.151-9.452l-7.877-3.151l-4.726,7.877c-1.575,3.151-4.726,3.938-7.877,3.938
	c-4.726-0.788-9.452-0.788-14.178-0.788c-3.151,0-6.302-1.575-7.877-3.938l-3.939-8.665l-7.877,3.151l2.363,9.452
	c0.788,3.151-0.788,6.302-3.151,8.665c-3.938,2.363-7.089,5.514-10.24,9.452c-2.363,2.363-5.514,3.938-8.665,2.363l-9.452-3.151
	l-3.151,7.877l7.877,4.726c3.151,1.575,3.938,4.726,3.938,7.877c-0.788,4.726-0.788,9.452-0.788,14.178
	c0,3.151-1.575,6.302-3.938,7.877l-8.665,3.938l3.151,7.877l9.452-2.363c3.151-0.788,6.302,0.788,8.665,3.151
	c2.363,3.938,5.514,7.089,9.452,10.24c2.363,2.363,3.938,5.514,2.363,8.665l-3.151,9.452l7.877,3.151l4.726-7.877
	c1.575-3.151,4.726-3.938,7.877-3.938C422.807,125.545,427.533,125.545,432.259,125.545
	C431.471,125.545,432.259,125.545,432.259,125.545z"/>
<circle style="fill:#FFFFFF;" cx="426.745" cy="79.071" r="22.055"/>
<path style="fill:#183651;" d="M426.745,109.003c-4.726,0-8.665-0.788-12.603-3.151c-7.089-3.151-12.603-9.452-15.754-16.542
	c-3.151-7.877-2.363-15.754,0.788-22.843c4.726-10.24,15.754-17.329,27.569-17.329c4.726,0,8.665,0.788,12.603,3.151
	c7.089,3.151,12.603,9.452,15.754,16.542c3.151,7.089,2.363,15.754-0.788,22.843C448.801,102.702,438.561,109.003,426.745,109.003z
	 M426.745,64.893c-5.514,0-11.028,3.151-12.603,8.665c-3.151,7.089,0,15.754,7.089,18.905c7.089,3.151,15.754,0,18.905-7.089
	c1.575-3.151,1.575-7.089,0.788-11.028c-1.575-3.938-3.938-6.302-7.089-7.877C430.684,65.68,428.321,64.893,426.745,64.893z"/>
<path style="fill:#FFFFFF;" d="M326.708,403.6l11.815-25.206l-18.117-11.028c1.575-7.089,1.575-13.391,0.788-20.48l18.905-9.452
	l-9.452-25.994l-20.48,4.726c-3.938-5.514-8.665-11.028-14.178-14.966l6.302-19.692l-25.206-11.815l-11.028,18.117
	c-7.089-1.575-13.391-1.575-20.48-0.788l-9.452-18.905l-25.994,8.665l4.726,20.48c-5.514,3.938-11.028,8.665-14.966,14.178
	l-19.692-6.302l-11.815,25.206l18.117,11.028c-1.575,7.089-1.575,13.391-0.788,20.48l-18.905,9.452l9.452,25.994l20.48-4.726
	c3.938,5.514,8.665,11.028,14.178,14.966l-6.302,19.692l25.206,11.815l11.028-18.117c7.089,1.575,13.391,1.575,20.48,0.788
	l9.452,18.905l25.994-9.452l-4.726-20.48c5.514-3.938,11.028-8.665,14.966-14.178L326.708,403.6z"/>
<path style="fill:#183651;" d="M269.994,448.499c-3.151,0-5.514-1.575-7.089-3.938l-7.089-14.178c-3.938,0-7.877,0-11.815-0.788
	l-7.877,13.391c-2.363,3.151-6.302,4.726-10.24,3.151l-25.206-11.815c-3.938-1.575-5.514-5.514-3.938-9.452l4.726-14.966
	c-3.151-2.363-5.514-5.514-7.877-8.665l-14.966,3.938c-3.938,0.788-7.877-1.575-9.452-4.726l-9.452-25.994
	c-1.575-3.938,0-7.877,3.938-9.452l14.178-7.089c0-3.938,0-7.877,0.788-11.815l-13.391-7.877c-3.151-2.363-4.726-6.302-3.151-10.24
	l11.815-25.206c1.575-3.938,5.514-5.514,9.452-3.938l14.966,4.726c2.363-3.151,5.514-5.514,8.665-7.877l-4.726-17.329
	c-0.788-3.938,1.575-7.877,4.726-9.452l25.994-9.452c3.938-1.575,7.877,0,9.452,3.938l7.089,14.178c3.938,0,7.877,0,11.815,0.788
	l7.877-13.391c2.363-3.151,6.302-4.726,10.24-3.151l25.206,11.815c3.938,1.575,5.514,5.514,3.938,9.452l-4.726,14.966
	c3.151,2.363,5.514,5.514,7.877,8.665l14.966-3.938c3.938-0.788,7.877,1.575,9.452,4.726l9.452,25.994
	c1.575,3.938,0,7.877-3.938,9.452l-14.178,7.089c0,3.938,0,7.877-0.788,11.815l13.391,7.877c3.151,2.363,4.726,6.302,3.151,10.24
	l-11.815,25.206c-1.575,3.938-5.514,5.514-9.452,3.938l-12.603-3.151c-2.363,3.151-5.514,5.514-8.665,7.877l3.938,15.754
	c0.788,3.938-1.575,7.877-4.726,9.452l-26.782,9.452C272.358,448.499,271.57,448.499,269.994,448.499z M260.542,414.628
	c3.151,0,5.514,1.575,7.089,3.938l6.302,12.603l13.391-4.726l-3.151-13.391c-0.788-3.151,0.788-6.302,3.151-8.665
	c4.726-3.151,9.452-7.877,13.391-12.603c2.363-2.363,5.514-3.938,8.665-2.363l13.391,3.938l6.302-12.603l-11.815-7.089
	c-3.151-1.575-3.938-4.726-3.938-7.877c0.788-6.302,1.575-11.815,0.788-18.117c0-3.151,1.575-6.302,3.938-7.877l12.603-6.302
	l-4.726-13.391l-13.391,3.151c-3.151,0.788-6.302-0.788-8.665-3.151c-3.151-4.726-7.877-9.452-12.603-13.391
	c-2.363-2.363-3.938-5.514-2.363-8.665l3.938-13.391l-12.603-6.302l-7.089,12.603c-1.575,3.151-4.726,3.938-7.877,3.938
	c-6.302-0.788-11.815-1.575-18.117-0.788c-3.151,0-6.302-1.575-7.877-3.938l-6.302-12.603l-13.391,4.726l3.151,13.391
	c0.788,3.151-0.788,6.302-3.151,8.665c-4.726,3.151-9.452,7.877-13.391,12.603c-2.363,2.363-5.514,3.938-8.665,2.363l-13.391-3.938
	l-5.514,11.815l11.815,7.089c3.151,1.575,3.938,4.726,3.938,7.877c-0.788,6.302-1.575,11.815-0.788,18.117
	c0,3.151-1.575,6.302-3.938,7.877l-13.391,6.302l4.726,13.391l13.391-3.151c3.151-0.788,6.302,0.788,8.665,3.151
	c3.151,4.726,7.877,9.452,12.603,13.391c2.363,2.363,3.938,5.514,2.363,8.665l-3.938,13.391l12.603,6.302l7.089-11.815
	c1.575-3.151,4.726-3.938,7.877-3.938c6.302,0.788,11.815,1.575,18.117,0.788C260.542,414.628,260.542,414.628,260.542,414.628z"/>
<circle style="fill:#F06151;" cx="253.453" cy="353.976" r="48.837"/>
<circle style="fill:#FFFFFF;" cx="253.453" cy="353.976" r="19.692"/>
<path style="fill:#183651;" d="M253.453,381.545c-3.938,0-7.877-0.788-11.815-2.363c-13.391-6.302-19.692-22.843-13.391-36.234
	c4.726-9.452,14.178-15.754,24.418-15.754c3.938,0,7.877,0.788,11.815,2.363c13.391,6.302,19.692,22.843,13.391,36.234
	C273.933,375.243,263.693,381.545,253.453,381.545z M253.453,342.16c-4.726,0-8.665,2.363-10.24,7.089
	c-2.363,5.514,0,12.603,5.514,15.754c5.514,2.363,12.603,0,15.754-5.514c2.363-5.514,0-12.603-5.514-15.754
	C256.604,342.948,255.028,342.16,253.453,342.16z"/>
<path style="fill:#FFFFFF;" d="M321.194,186.985l11.815-25.206l-18.117-11.028c1.575-7.089,1.575-13.391,0.788-20.48l18.905-9.452
	l-9.452-25.994l-20.48,4.726c-3.938-5.514-8.665-11.028-14.178-14.966l6.302-20.48L271.57,52.29l-11.028,18.117
	c-7.089-1.575-13.391-1.575-20.48-0.788l-9.452-18.905l-25.994,9.452l4.726,20.48c-5.514,3.938-11.028,8.665-14.966,14.178
	l-19.692-6.302l-11.815,25.206l18.117,11.028c-2.363,7.089-2.363,13.391-1.575,20.48l-18.905,9.452l9.452,25.994l20.48-4.726
	c3.938,5.514,8.665,11.028,14.178,14.966l-6.302,19.692l25.206,11.815l11.028-18.117c7.089,1.575,13.391,1.575,20.48,0.788
	l9.452,18.905l25.994-9.452l-4.726-20.48c5.514-3.938,11.028-8.665,14.966-14.178L321.194,186.985z"/>
<path style="fill:#183651;" d="M264.481,232.671c-3.151,0-5.514-1.575-7.089-3.938l-7.089-14.178c-3.938,0-7.877,0-11.815-0.788
	l-7.877,13.391c-2.363,3.151-6.302,4.726-10.24,3.151l-25.206-11.815c-3.938-1.575-5.514-5.514-3.938-9.452l4.726-14.966
	c-3.151-2.363-5.514-5.514-7.877-8.665l-14.966,3.938c-3.938,0.788-7.877-1.575-9.452-4.726l-9.452-25.994
	c-1.575-3.938,0-7.877,3.938-9.452l14.178-7.089c0-3.938,0-7.877,0.788-11.815l-13.391-7.877c-3.151-2.363-4.726-6.302-3.151-10.24
	l11.815-25.206c1.575-3.938,5.514-5.514,9.452-3.938l14.966,4.726c2.363-3.151,5.514-5.514,8.665-7.877l-3.938-14.966
	c-0.788-3.938,1.575-7.877,4.726-9.452l25.994-11.815c3.938-1.575,7.877,0,9.452,3.938l7.089,14.178c3.938,0,7.877,0,11.815,0.788
	l7.877-13.391c2.363-3.151,6.302-4.726,10.24-3.151l25.206,11.815c3.938,1.575,5.514,5.514,3.938,9.452l-4.726,14.966
	c3.151,2.363,5.514,5.514,7.877,8.665l14.966-3.938c3.938-0.788,7.877,1.575,9.452,4.726l9.452,25.994
	c1.575,3.938,0,7.877-3.938,9.452l-14.178,7.089c0,3.938,0,7.877-0.788,11.815l13.391,7.877c3.151,2.363,4.726,6.302,3.151,10.24
	l-10.24,25.994c-1.575,3.938-5.514,5.514-9.452,3.938l-14.966-4.726c-2.363,3.151-5.514,5.514-8.665,7.877l3.938,14.966
	c0.788,3.938-1.575,7.877-4.726,9.452l-25.994,9.452C266.056,231.883,265.268,232.671,264.481,232.671z M255.028,198.013
	c3.151,0,5.514,1.575,7.089,3.938l6.302,12.603l13.391-4.726l-3.151-13.391c-0.788-3.151,0.788-6.302,3.151-8.665
	c4.726-3.151,9.452-7.877,13.391-12.603c2.363-2.363,5.514-3.938,8.665-2.363l13.391,3.938l6.302-12.603l-11.815-7.089
	c-3.151-1.575-3.938-4.726-3.938-7.877c0.788-6.302,1.575-11.815,0.788-18.117c0-3.151,1.575-6.302,3.938-7.877l12.603-6.302
	l-4.726-13.391l-14.178,3.151c-3.151,0.788-6.302-0.788-8.665-3.151c-3.151-4.726-7.877-9.452-12.603-13.391
	c-2.363-2.363-3.938-5.514-2.363-8.665l3.938-13.391l-12.603-6.302l-7.089,11.815c-1.575,3.151-4.726,3.938-7.877,3.938
	c-6.302-0.788-11.815-1.575-18.117-0.788c-3.151,0-6.302-1.575-7.877-3.938l-6.302-12.603l-13.391,4.726l3.151,13.391
	c0.788,3.151-0.788,6.302-3.151,8.665c-4.726,3.151-9.452,7.877-13.391,12.603c-2.363,2.363-5.514,3.938-8.665,2.363l-12.603-3.938
	l-6.302,12.603l11.815,7.089c3.151,1.575,3.938,4.726,3.938,7.877c-1.575,6.302-1.575,12.603-0.788,18.905
	c0,3.151-1.575,6.302-3.938,7.877l-12.603,6.302l4.726,13.391l13.391-3.151c3.151-0.788,6.302,0.788,8.665,3.151
	c3.151,4.726,7.877,9.452,12.603,13.391c2.363,2.363,3.938,5.514,2.363,8.665l-3.938,13.391l12.603,6.302l7.089-11.815
	c1.575-3.151,4.726-3.938,7.877-3.938c6.302,0.788,11.815,1.575,18.117,0.788C254.241,198.013,255.028,198.013,255.028,198.013z"/>
<circle style="fill:#F06151;" cx="247.939" cy="137.36" r="48.837"/>
<circle style="fill:#FFFFFF;" cx="247.939" cy="137.36" r="19.692"/>
<path style="fill:#183651;" d="M247.939,164.93c-3.938,0-7.877-0.788-11.815-2.363c-6.302-3.151-11.815-8.665-14.178-15.754
	c-2.363-7.089-2.363-14.178,0.788-21.268c4.726-9.452,14.178-15.754,24.418-15.754c3.938,0,7.877,0.788,11.815,2.363
	c6.302,3.151,11.815,8.665,14.178,15.754c2.363,7.089,2.363,14.178-0.788,21.268C267.631,158.628,258.179,164.93,247.939,164.93z
	 M247.939,126.333c-4.726,0-8.665,2.363-10.24,7.089c-1.575,3.151-1.575,6.302,0,8.665c0.788,3.151,3.151,5.514,6.302,6.302
	c5.514,2.363,12.603,0,15.754-5.514c1.575-3.151,1.575-6.302,0-8.665c-0.788-3.151-3.151-5.514-6.302-6.302
	C251.09,126.333,249.514,126.333,247.939,126.333z"/>
<g>
</g>
<g>
</g>
<g>
</g>
<g>
</g>
<g>
</g>
<g>
</g>
<g>
</g>
<g>
</g>
<g>
</g>
<g>
</g>
<g>
</g>
<g>
</g>
<g>
</g>
<g>
</g>
<g>
</g>
</svg>
