<?xml version="1.0" encoding="iso-8859-1"?>
<!-- Generator: Adobe Illustrator 19.0.0, SVG Export Plug-In . SVG Version: 6.00 Build 0)  -->
<svg version="1.1" id="Capa_1" xmlns="http://www.w3.org/2000/svg" xmlns:xlink="http://www.w3.org/1999/xlink" x="0px" y="0px"
	 viewBox="0 0 502.548 502.548" style="enable-background:new 0 0 502.548 502.548;" xml:space="preserve">
<circle style="fill:#FBBD5E;" cx="251.274" cy="252.062" r="250.486"/>
<path style="fill:#E0E4E8;" d="M8.665,130.757h484.431v359.975H51.988c-24.418,0-44.111-19.692-44.111-43.323V130.757H8.665z"/>
<path style="fill:#183651;" d="M493.883,498.609H52.775c-28.357,0-51.2-22.843-51.2-51.2V130.757c0-3.938,3.151-7.877,7.877-7.877
	h484.431c3.938,0,7.877,3.151,7.877,7.877v359.975C501.76,495.458,497.822,498.609,493.883,498.609z M16.542,138.634v309.563
	c0,19.692,15.754,35.446,35.446,35.446h433.231V138.634H16.542z"/>
<path style="fill:#FFFFFF;" d="M462.375,161.477H40.172v285.932c0,6.302,5.514,11.815,11.815,11.815h335.557l74.043-66.166V161.477
	H462.375z"/>
<polygon style="fill:#CECFD0;" points="388.332,460.012 462.375,393.058 388.332,393.058 "/>
<path style="fill:#4FBF9F;" d="M50.412,83.495c-22.843,0-41.748,18.905-41.748,41.748v318.228c0-22.843,18.905-41.748,41.748-41.748
	s41.748,18.905,41.748,41.748V124.455C91.372,101.612,73.255,83.495,50.412,83.495z"/>
<g>
	<path style="fill:#183651;" d="M91.372,451.348c-3.938,0-7.877-3.151-7.877-7.877c0-18.905-14.966-33.871-33.871-33.871
		s-33.083,15.754-33.083,33.871c0,3.938-3.151,7.877-7.877,7.877s-7.877-3.151-7.877-7.877V124.455
		c0-26.782,22.055-48.837,48.837-48.837s48.837,22.055,48.837,48.837v319.015C99.249,448.197,96.098,451.348,91.372,451.348z
		 M50.412,394.634c12.603,0,24.418,4.726,33.871,13.391V124.455c0-18.905-14.966-33.871-33.871-33.871s-33.871,14.966-33.871,33.871
		v282.782C25.206,399.36,37.022,394.634,50.412,394.634z"/>
	<rect x="133.12" y="195.348" style="fill:#183651;" width="99.249" height="15.754"/>
	<rect x="133.12" y="244.185" style="fill:#183651;" width="99.249" height="15.754"/>
	<rect x="133.12" y="293.022" style="fill:#183651;" width="99.249" height="15.754"/>
	<rect x="133.12" y="341.858" style="fill:#183651;" width="99.249" height="15.754"/>
</g>
<path style="fill:#2EA0DA;" d="M357.612,74.831l-59.077,195.348c-14.178,45.686-12.603,95.311,4.726,140.209
	c39.385-28.357,67.742-68.529,81.92-114.215l59.077-194.56L357.612,74.831z"/>
<path style="fill:#183651;" d="M300.898,418.265c-2.363-0.788-3.938-2.363-4.726-4.726c-17.329-46.474-18.905-98.462-4.726-145.723
	l59.077-195.348c0.788-2.363,2.363-3.938,3.938-4.726c1.575-0.788,3.938-1.575,6.302-0.788l86.646,25.994
	c3.938,1.575,6.302,5.514,5.514,9.452l-59.077,195.348c-14.178,47.262-44.898,89.797-85.071,118.154
	C305.625,418.265,303.262,419.052,300.898,418.265z M363.126,85.071l-56.714,187.471c-12.603,40.96-11.815,85.071,0.788,125.243
	c33.083-26.782,58.289-63.015,70.892-103.975l56.714-187.471L363.126,85.071z"/>
<path style="fill:#FFFFFF;" d="M318.228,360.763c-3.938-27.569-1.575-55.926,6.302-81.92l51.2-169.354l33.871,10.24l-51.2,169.354
	C350.523,315.077,336.345,339.495,318.228,360.763z"/>
<path style="fill:#F06151;" d="M451.348,24.418L394.634,7.089c-7.877-2.363-17.329,2.363-19.692,10.24l-17.329,57.502l86.646,25.994
	l17.329-57.502C463.951,35.446,459.225,26.782,451.348,24.418z"/>
<g>
	<path style="fill:#183651;" d="M444.258,109.489c-0.788,0-1.575,0-2.363,0l-86.646-25.994c-3.938-1.575-6.302-5.514-5.514-9.452
		l17.329-57.502C370.215,6.302,378.88,0,389.12,0c2.363,0,4.726,0,7.089,0.788l56.714,17.329
		c6.302,1.575,11.028,5.514,14.178,11.028c3.151,5.514,3.938,11.815,1.575,18.117l-17.329,57.502
		c-0.788,2.363-2.363,3.938-3.938,4.726C446.622,108.702,445.046,109.489,444.258,109.489z M367.852,70.105l71.68,22.055
		l14.966-50.412c0.788-2.363,0.788-3.938-0.788-6.302c-0.788-1.575-2.363-3.151-4.726-3.938l-56.714-17.329
		c-3.938-1.575-8.665,1.575-9.452,5.514L367.852,70.105z"/>
	<rect x="133.12" y="390.695" style="fill:#183651;" width="15.754" height="15.754"/>
	<rect x="174.868" y="390.695" style="fill:#183651;" width="15.754" height="15.754"/>
	<rect x="216.615" y="390.695" style="fill:#183651;" width="15.754" height="15.754"/>
</g>
<g>
</g>
<g>
</g>
<g>
</g>
<g>
</g>
<g>
</g>
<g>
</g>
<g>
</g>
<g>
</g>
<g>
</g>
<g>
</g>
<g>
</g>
<g>
</g>
<g>
</g>
<g>
</g>
<g>
</g>
</svg>
