<?xml version="1.0" encoding="iso-8859-1"?>
<!-- Generator: Adobe Illustrator 19.0.0, SVG Export Plug-In . SVG Version: 6.00 Build 0)  -->
<svg version="1.1" id="Capa_1" xmlns="http://www.w3.org/2000/svg" xmlns:xlink="http://www.w3.org/1999/xlink" x="0px" y="0px"
	 viewBox="0 0 504.123 504.123" style="enable-background:new 0 0 504.123 504.123;" xml:space="preserve">
<path style="fill:#F06151;" d="M65.378,11.815H25.206c-8.665,0-15.754,7.089-15.754,15.754v61.44h70.892V26.782
	C80.345,18.117,73.255,11.815,65.378,11.815z"/>
<path style="fill:#183651;" d="M80.345,96.098H9.452c-3.938,0-7.877-3.151-7.877-7.877v-61.44c0-12.603,10.24-22.843,23.631-22.843
	h40.172c12.603,0,22.843,10.24,22.843,22.843v61.44C88.222,92.16,85.071,96.098,80.345,96.098z M17.329,80.345h55.138V26.782
	c0-3.938-3.151-7.877-7.877-7.877H25.206c-3.938,0-7.877,3.151-7.877,7.877V80.345z"/>
<rect x="9.452" y="88.222" style="fill:#FBBD5E;" width="70.892" height="328.468"/>
<path style="fill:#183651;" d="M80.345,424.566H9.452c-3.938,0-7.877-3.151-7.877-7.877V88.222c0-3.938,3.151-7.877,7.877-7.877
	h70.892c3.938,0,7.877,3.151,7.877,7.877v328.468C88.222,420.628,85.071,424.566,80.345,424.566z M17.329,408.812h55.138V96.098
	H17.329C17.329,96.098,17.329,408.812,17.329,408.812z"/>
<polygon style="fill:#FFFFFF;" points="80.345,416.689 44.898,488.369 9.452,416.689 "/>
<path style="fill:#183651;" d="M44.898,496.246c-3.151,0-5.514-1.575-7.089-3.938L2.363,419.84c-0.788-2.363-0.788-5.514,0-7.089
	c1.575-2.363,3.938-3.938,6.302-3.938h70.892c2.363,0,5.514,1.575,6.302,3.938c1.575,2.363,1.575,4.726,0,7.089l-33.871,72.468
	C50.412,494.671,48.049,496.246,44.898,496.246z M22.055,424.566l22.843,47.262l22.843-47.262H22.055z"/>
<rect x="115.003" y="7.877" style="fill:#FFFFFF;" width="375.729" height="64.591"/>
<path style="fill:#183651;" d="M490.732,80.345H115.003c-3.938,0-7.877-3.151-7.877-7.877V7.877c0-3.938,3.151-7.877,7.877-7.877
	h375.729c3.938,0,7.877,3.151,7.877,7.877v64.591C498.609,77.194,494.671,80.345,490.732,80.345z M122.88,64.591h359.975V15.754
	H122.88V64.591z"/>
<rect x="115.003" y="72.468" style="fill:#E0E4E8;" width="375.729" height="264.665"/>
<path style="fill:#183651;" d="M490.732,345.009H115.003c-3.938,0-7.877-3.151-7.877-7.877V72.468c0-3.938,3.151-7.877,7.877-7.877
	h375.729c3.938,0,7.877,3.151,7.877,7.877v264.665C498.609,341.071,494.671,345.009,490.732,345.009z M122.88,329.255h359.975
	V80.345H122.88V329.255z"/>
<rect x="145.723" y="103.188" style="fill:#FFFFFF;" width="314.289" height="203.225"/>
<g>
	<rect x="354.462" y="31.508" style="fill:#183651;" width="15.754" height="16.542"/>
	<rect x="397.785" y="31.508" style="fill:#183651;" width="15.754" height="16.542"/>
	<rect x="441.108" y="31.508" style="fill:#183651;" width="15.754" height="16.542"/>
	<rect x="244.185" y="161.477" style="fill:#183651;" width="15.754" height="16.542"/>
	<rect x="287.508" y="161.477" style="fill:#183651;" width="15.754" height="16.542"/>
	<rect x="330.831" y="161.477" style="fill:#183651;" width="15.754" height="16.542"/>
	<rect x="36.234" y="178.806" style="fill:#183651;" width="16.542" height="15.754"/>
	<rect x="36.234" y="244.972" style="fill:#183651;" width="16.542" height="15.754"/>
	<rect x="36.234" y="310.351" style="fill:#183651;" width="16.542" height="15.754"/>
</g>
<rect x="153.6" y="288.295" style="fill:#FFFFFF;" width="341.071" height="207.951"/>
<path style="fill:#183651;" d="M494.671,504.123H153.6c-3.938,0-7.877-3.151-7.877-7.877V288.295c0-3.938,3.151-7.877,7.877-7.877
	h341.071c3.938,0,7.877,3.151,7.877,7.877v207.951C501.76,500.972,498.609,504.123,494.671,504.123z M161.477,488.369h325.317
	V296.172H161.477V488.369z"/>
<rect x="181.169" y="317.44" style="fill:#4FBF9F;" width="285.145" height="150.449"/>
<polygon style="fill:#FFFFFF;" points="153.6,496.246 323.742,371.003 494.671,496.246 "/>
<path style="fill:#183651;" d="M494.671,504.123L494.671,504.123H153.6c-3.151,0-6.302-2.363-7.089-5.514
	c-0.788-3.151,0-6.302,2.363-8.665l170.142-125.243c2.363-2.363,6.302-2.363,9.452,0l169.354,124.455
	c2.363,1.575,3.938,3.938,3.938,7.089C502.548,500.972,498.609,504.123,494.671,504.123z M177.231,488.369H471.04L323.742,380.455
	L177.231,488.369z"/>
<polygon style="fill:#FFFFFF;" points="494.671,288.295 323.742,439.532 153.6,288.295 "/>
<path style="fill:#183651;" d="M323.742,447.409c-1.575,0-3.938-0.788-4.726-1.575L148.086,293.809
	c-2.363-2.363-3.151-5.514-2.363-8.665c0.788-3.151,3.938-4.726,7.089-4.726h341.071c3.151,0,6.302,2.363,7.089,4.726
	c0.788,3.151,0,6.302-2.363,8.665L329.255,445.046C327.68,446.622,326.105,447.409,323.742,447.409z M174.08,296.172l149.662,133.12
	l150.449-133.12H174.08z"/>
<polygon style="fill:#4FBF9F;" points="229.218,317.44 419.052,317.44 323.742,401.723 "/>
<g>
</g>
<g>
</g>
<g>
</g>
<g>
</g>
<g>
</g>
<g>
</g>
<g>
</g>
<g>
</g>
<g>
</g>
<g>
</g>
<g>
</g>
<g>
</g>
<g>
</g>
<g>
</g>
<g>
</g>
</svg>
