<?xml version="1.0" encoding="iso-8859-1"?>
<!-- Generator: Adobe Illustrator 19.0.0, SVG Export Plug-In . SVG Version: 6.00 Build 0)  -->
<svg version="1.1" id="Capa_1" xmlns="http://www.w3.org/2000/svg" xmlns:xlink="http://www.w3.org/1999/xlink" x="0px" y="0px"
	 viewBox="0 0 504.517 504.517" style="enable-background:new 0 0 504.517 504.517;" xml:space="preserve">
<polygon style="fill:#FBBD5E;" points="397.194,113.034 496.443,60.258 397.194,8.271 "/>
<g>
	<path style="fill:#183651;" d="M397.194,120.911c-1.575,0-3.151,0-3.938-0.788c-2.363-1.575-3.938-3.938-3.938-7.089V8.271
		c0-3.151,1.575-5.514,3.938-7.089s5.514-1.575,7.877,0l99.249,52.775c2.363,1.575,3.938,3.938,3.938,7.089
		c0,3.151-1.575,5.514-3.938,6.302l-99.249,51.988C399.557,120.123,397.982,120.911,397.194,120.911z M405.071,21.662v78.769
		l74.831-39.385L405.071,21.662z"/>
	<polyline style="fill:#183651;" points="465.723,76.8 496.443,60.258 465.723,44.505 	"/>
	<path style="fill:#183651;" d="M465.723,84.677c-3.151,0-5.514-1.575-7.089-3.938c-2.363-3.938-0.788-8.665,3.151-11.028
		l17.329-9.452l-17.329-8.665c-3.938-2.363-5.514-7.089-3.151-11.028s7.089-5.514,11.028-3.151l30.72,16.542
		c2.363,1.575,3.938,3.938,3.938,7.089c0,3.151-1.575,5.514-3.938,6.302l-30.72,16.542
		C468.086,84.677,467.298,84.677,465.723,84.677z"/>
</g>
<rect x="83.692" y="8.271" style="fill:#E0E4E8;" width="313.502" height="104.763"/>
<path style="fill:#183651;" d="M397.194,120.911H83.692c-4.726,0-7.877-3.151-7.877-7.877V8.271c0-4.726,3.151-7.877,7.877-7.877
	h313.502c2.363,0,3.938,0.788,5.514,2.363c1.575,1.575,2.363,3.151,2.363,5.514v104.763
	C405.071,116.972,401.132,120.911,397.194,120.911z M91.569,105.157h297.748V16.148H91.569V105.157z"/>
<rect x="115.2" y="39.778" style="fill:#FFFFFF;" width="250.486" height="41.748"/>
<path style="fill:#F06151;" d="M83.692,8.271H31.705c-13.391,0-23.631,10.24-23.631,23.631v57.502
	c0,13.391,10.24,23.631,23.631,23.631h51.988V8.271z"/>
<path style="fill:#183651;" d="M83.692,120.911H31.705c-17.329,0-31.508-14.178-31.508-31.508V31.902
	c0-17.329,14.178-31.508,31.508-31.508h51.988c4.726,0,7.877,3.151,7.877,7.877v104.763
	C91.569,116.972,88.418,120.911,83.692,120.911z M31.705,16.148c-8.665,0-15.754,7.089-15.754,15.754v57.502
	c0,8.665,7.089,15.754,15.754,15.754h44.111V16.148H31.705z"/>
<rect x="8.074" y="159.508" style="fill:#2EA0DA;" width="488.369" height="337.132"/>
<path style="fill:#183651;" d="M496.443,504.517H8.074c-4.726,0-7.877-3.151-7.877-7.877V159.508c0-4.726,3.151-7.877,7.877-7.877
	h488.369c4.726,0,7.877,3.151,7.877,7.877V496.64C504.32,501.366,501.169,504.517,496.443,504.517z M15.951,488.763h472.615V167.385
	H15.951V488.763z"/>
<rect x="39.582" y="191.015" style="fill:#FFFFFF;" width="425.354" height="274.117"/>
<circle style="fill:#F06151;" cx="252.258" cy="328.074" r="55.138"/>
<polygon style="fill:#FFFFFF;" points="238.08,298.929 238.08,358.006 281.403,328.074 "/>
<g>
	<rect x="55.335" y="206.769" style="fill:#E0E4E8;" width="32.295" height="32.295"/>
	<rect x="290.855" y="206.769" style="fill:#E0E4E8;" width="32.295" height="32.295"/>
	<rect x="349.932" y="206.769" style="fill:#E0E4E8;" width="32.295" height="32.295"/>
	<rect x="409.009" y="206.769" style="fill:#E0E4E8;" width="32.295" height="32.295"/>
	<rect x="114.412" y="206.769" style="fill:#E0E4E8;" width="32.295" height="32.295"/>
	<rect x="173.489" y="206.769" style="fill:#E0E4E8;" width="32.295" height="32.295"/>
	<rect x="232.566" y="206.769" style="fill:#E0E4E8;" width="32.295" height="32.295"/>
	<rect x="55.335" y="417.083" style="fill:#E0E4E8;" width="32.295" height="32.295"/>
	<rect x="290.855" y="417.083" style="fill:#E0E4E8;" width="32.295" height="32.295"/>
	<rect x="349.932" y="417.083" style="fill:#E0E4E8;" width="32.295" height="32.295"/>
	<rect x="409.009" y="417.083" style="fill:#E0E4E8;" width="32.295" height="32.295"/>
	<rect x="114.412" y="417.083" style="fill:#E0E4E8;" width="32.295" height="32.295"/>
	<rect x="173.489" y="417.083" style="fill:#E0E4E8;" width="32.295" height="32.295"/>
	<rect x="232.566" y="417.083" style="fill:#E0E4E8;" width="32.295" height="32.295"/>
</g>
<g>
	<rect x="104.96" y="268.997" style="fill:#183651;" width="15.754" height="15.754"/>
	<rect x="104.96" y="320.197" style="fill:#183651;" width="15.754" height="15.754"/>
	<rect x="104.96" y="372.185" style="fill:#183651;" width="15.754" height="15.754"/>
	<rect x="383.803" y="268.997" style="fill:#183651;" width="15.754" height="15.754"/>
	<rect x="383.803" y="320.197" style="fill:#183651;" width="15.754" height="15.754"/>
	<rect x="383.803" y="372.185" style="fill:#183651;" width="15.754" height="15.754"/>
</g>
<g>
</g>
<g>
</g>
<g>
</g>
<g>
</g>
<g>
</g>
<g>
</g>
<g>
</g>
<g>
</g>
<g>
</g>
<g>
</g>
<g>
</g>
<g>
</g>
<g>
</g>
<g>
</g>
<g>
</g>
</svg>
