<?xml version="1.0" encoding="iso-8859-1"?>
<!-- Generator: Adobe Illustrator 19.0.0, SVG Export Plug-In . SVG Version: 6.00 Build 0)  -->
<svg version="1.1" id="Capa_1" xmlns="http://www.w3.org/2000/svg" xmlns:xlink="http://www.w3.org/1999/xlink" x="0px" y="0px"
	 viewBox="0 0 504.333 504.333" style="enable-background:new 0 0 504.333 504.333;" xml:space="preserve">
<path style="fill:#FFFFFF;" d="M170.535,457.754l11.815-25.206l-18.117-11.028c1.575-7.089,1.575-13.391,0.788-20.48l18.905-9.452
	l-9.452-26.782l-20.48,4.726c-3.938-5.514-8.665-11.028-14.178-14.966l6.302-19.692l-25.206-11.815l-11.028,18.117
	c-7.089-1.575-13.391-1.575-20.48-0.788l-9.452-18.905l-26.782,9.452l4.726,19.692c-5.514,3.938-11.028,8.665-14.966,14.178
	l-19.692-6.302l-11.815,25.206l18.117,11.028c-1.575,7.089-2.363,14.178-1.575,21.268l-18.905,9.452l9.452,26.782l20.48-4.726
	c3.938,5.514,8.665,11.028,14.178,14.966l-6.302,19.692l25.206,11.815l11.028-18.117c7.089,1.575,13.391,1.575,20.48,0.788
	l9.452,18.905l26.782-9.452l-4.726-20.48c5.514-3.938,11.028-8.665,14.966-14.178L170.535,457.754z"/>
<path style="fill:#183651;" d="M113.822,503.44c-3.151,0-5.514-1.575-7.089-3.938l-7.089-14.178c-3.938,0-7.877,0-11.815-0.788
	l-8.665,13.391c-2.363,3.151-6.302,4.726-10.24,3.151l-25.206-11.815c-3.938-1.575-5.514-5.514-3.938-9.452l4.726-14.966
	c-3.151-2.363-5.514-5.514-7.877-8.665l-15.754,3.938c-3.938,0.788-7.877-1.575-9.452-4.726l-9.452-26.782
	c-1.575-3.938,0-7.877,3.938-9.452l14.178-7.877c0-3.938,0-7.877,0.788-11.815L7.483,390.8c-3.151-2.363-4.726-6.302-3.151-10.24
	l11.815-25.206c1.575-3.938,5.514-5.514,9.452-3.938l14.966,4.726c2.363-3.151,5.514-5.514,8.665-7.877l-3.938-15.754
	c-0.788-3.938,1.575-7.877,4.726-9.452l26.782-9.452c3.938-1.575,7.877,0,9.452,3.938l7.089,14.178c3.938,0,7.877,0,11.815,0.788
	l8.665-13.391c2.363-3.151,6.302-4.726,10.24-3.151l25.206,11.815c3.938,1.575,5.514,5.514,3.938,9.452l-4.726,14.966
	c3.151,2.363,5.514,5.514,7.877,8.665l15.754-3.938c3.938-0.788,7.877,1.575,9.452,4.726l9.452,26.782
	c1.575,3.938,0,7.877-3.938,9.452l-14.178,7.089c0,3.938,0,7.877-0.788,11.815l13.391,8.665c3.151,2.363,4.726,6.302,3.151,10.24
	l-11.028,25.206c-1.575,3.938-5.514,5.514-9.452,3.938l-14.966-3.938c-2.363,3.151-5.514,5.514-8.665,7.877l3.938,15.754
	c0.788,3.938-1.575,7.877-4.726,9.452l-26.782,9.452C115.397,503.44,114.609,503.44,113.822,503.44z M104.369,468.782
	c3.151,0,5.514,1.575,7.089,3.938l6.302,12.603l13.391-4.726L128,467.206c-0.788-3.151,0.788-6.302,3.151-8.665
	c4.726-3.151,9.452-7.877,13.391-12.603c2.363-2.363,5.514-3.938,8.665-2.363l13.391,3.938l6.302-12.603l-11.815-7.089
	c-3.151-1.575-3.938-4.726-3.938-7.877c0.788-6.302,1.575-11.815,0.788-18.117c0-3.151,1.575-6.302,3.938-7.877l12.603-6.302
	l-4.726-13.391l-13.391,3.151c-3.151,0.788-6.302-0.788-8.665-3.151c-3.151-4.726-7.877-9.452-12.603-13.391
	c-2.363-2.363-3.938-5.514-2.363-8.665l3.938-13.391l-12.603-6.302l-7.089,11.815c-1.575,3.151-4.726,3.938-7.877,3.938
	c-6.302-0.788-11.815-1.575-18.117-0.788c-3.151,0-6.302-1.575-7.877-3.938L76.8,330.936l-13.391,4.726l3.151,13.391
	c0.788,3.151-0.788,6.302-3.151,8.665c-4.726,3.151-9.452,7.877-13.391,12.603c-2.363,2.363-5.514,3.938-8.665,2.363l-13.391-3.938
	l-6.302,12.603l11.815,7.089c3.151,1.575,3.938,4.726,3.938,7.877c-1.575,6.302-2.363,12.603-1.575,18.117
	c0,3.151-1.575,6.302-3.938,7.877l-12.603,7.089l4.726,13.391l13.391-3.151c3.151-0.788,6.302,0.788,8.665,3.151
	c3.151,4.726,7.877,9.452,12.603,13.391c2.363,2.363,3.938,5.514,2.363,8.665l-3.938,13.391l12.603,6.302L76.8,472.72
	c1.575-3.151,4.726-3.938,7.877-3.938c6.302,0.788,11.815,1.575,18.117,0.788C103.582,468.782,103.582,468.782,104.369,468.782z"/>
<circle style="fill:#F06151;" cx="96.492" cy="408.129" r="48.837"/>
<circle style="fill:#FFFFFF;" cx="96.492" cy="408.129" r="19.692"/>
<path style="fill:#183651;" d="M96.492,435.699c-3.938,0-7.877-0.788-11.815-2.363c-6.302-3.151-11.815-8.665-14.178-15.754
	s-2.363-14.178,0.788-21.268c4.726-9.452,14.178-15.754,25.206-15.754c3.938,0,7.877,0.788,11.815,2.363
	c6.302,3.151,11.815,8.665,14.178,15.754s2.363,14.178-0.788,21.268C116.972,429.397,107.52,435.699,96.492,435.699z
	 M96.492,396.314c-4.726,0-8.665,2.363-10.24,7.089c-1.575,3.151-1.575,6.302,0,8.665c0.788,3.151,3.151,5.514,6.302,6.302
	c5.514,2.363,12.603,0,15.754-5.514c1.575-3.151,1.575-6.302,0-8.665c-0.788-3.151-3.151-5.514-6.302-6.302
	C100.431,397.102,98.855,396.314,96.492,396.314z"/>
<path style="fill:#FFFFFF;" d="M479.311,447.514l14.966-31.508l-22.055-13.391c1.575-8.665,1.575-17.329,0.788-25.206l22.843-11.815
	l-11.815-33.083l-25.206,6.302c-4.726-7.089-10.24-13.391-17.329-18.905l7.877-24.418l-31.508-14.966l-13.391,22.055
	c-8.665-1.575-17.329-1.575-25.206-0.788l-11.815-22.843l-33.083,11.815l6.302,25.206c-7.089,4.726-13.391,10.24-18.905,17.329
	l-24.418-7.877l-14.966,31.508l22.055,13.391c-1.575,8.665-1.575,17.329-0.788,25.206l-23.631,11.815l11.815,33.083l25.206-6.302
	c4.726,7.089,10.24,13.391,17.329,18.905l-7.877,24.418l31.508,14.966l13.391-22.055c8.665,1.575,17.329,1.575,25.206,0.788
	l11.815,22.843l33.083-11.815l-6.302-25.206c7.089-4.726,13.391-10.24,18.905-17.329L479.311,447.514z"/>
<path style="fill:#183651;" d="M409.206,501.865c-3.151,0-5.514-1.575-7.089-3.938l-9.452-18.117c-5.514,0-11.028,0-16.542-0.788
	l-11.028,17.329c-2.363,3.151-6.302,4.726-10.24,3.151l-31.508-14.966c-3.938-1.575-5.514-5.514-3.938-9.452l6.302-19.692
	c-3.938-3.938-7.877-7.877-11.028-12.603l-20.48,4.726c-3.938,0.788-7.877-1.575-9.452-4.726l-11.815-33.083
	c-1.575-3.938,0-7.877,3.938-9.452l18.117-9.452c0-5.514,0-11.028,0.788-16.542l-17.329-11.028
	c-3.151-2.363-4.726-6.302-3.151-10.24l14.966-31.508c1.575-3.938,5.514-5.514,9.452-3.938l19.692,6.302
	c3.938-3.938,7.877-7.877,12.603-11.028l-4.726-20.48c-0.788-3.938,1.575-7.877,4.726-9.452l33.083-11.815
	c3.938-1.575,7.877,0,9.452,3.938L384,293.126c5.514,0,11.028,0,16.542,0.788l11.028-17.329c2.363-3.151,6.302-4.726,10.24-3.151
	l31.508,14.966c3.938,1.575,5.514,5.514,3.938,9.452l-6.302,19.692c3.938,3.938,7.877,7.877,11.028,12.603l20.48-4.726
	c3.938-0.788,7.877,1.575,9.452,4.726l11.815,33.083c1.575,3.938,0,7.877-3.938,9.452l-18.117,9.452c0,5.514,0,11.028-0.788,16.542
	l17.329,11.028c3.151,2.363,4.726,6.302,3.151,10.24L486.4,451.453c-1.575,3.938-5.514,5.514-9.452,3.938l-19.692-6.302
	c-3.938,3.938-7.877,7.877-12.603,11.815l4.726,20.48c0.788,3.938-1.575,7.877-4.726,9.452l-33.083,11.815
	C410.782,501.865,409.994,501.865,409.206,501.865z M397.391,463.268c3.151,0,5.514,1.575,7.089,3.938l8.665,16.542l19.692-7.089
	l-4.726-18.117c-0.788-3.151,0.788-6.302,3.151-8.665c6.302-3.938,11.815-9.452,17.329-15.754c2.363-2.363,5.514-3.938,8.665-2.363
	l18.117,5.514l8.665-18.905l-16.542-10.24c-3.151-1.575-3.938-4.726-3.938-7.877c1.575-7.877,1.575-14.966,0.788-22.843
	c0-3.151,1.575-6.302,3.938-7.877l16.542-8.665l-7.089-19.692l-18.905,4.726c-3.151,0.788-6.302-0.788-8.665-3.151
	c-3.938-6.302-9.452-11.815-15.754-17.329c-2.363-2.363-3.938-5.514-2.363-8.665l5.514-18.117l-18.905-8.665l-10.24,16.542
	c-1.575,3.151-4.726,3.938-7.877,3.938c-7.877-1.575-15.754-1.575-22.843-0.788c-3.151,0-6.302-1.575-7.877-3.938l-8.665-16.542
	l-17.329,6.302l4.726,18.117c0.788,3.151-0.788,6.302-3.151,8.665c-6.302,3.938-11.815,9.452-17.329,15.754
	c-2.363,2.363-5.514,3.938-8.665,2.363l-18.117-5.514l-8.665,18.905l16.542,10.24c3.151,1.575,3.938,4.726,3.938,7.877
	c-1.575,7.877-1.575,14.966-0.788,22.843c0,3.151-1.575,6.302-3.938,7.877l-16.542,8.665l7.089,19.692l18.905-4.726
	c3.151-0.788,6.302,0.788,8.665,3.151c3.938,6.302,9.452,11.815,15.754,17.329c2.363,2.363,3.938,5.514,2.363,8.665l-5.514,18.117
	l18.905,8.665l10.24-16.542c1.575-3.151,4.726-3.938,7.877-3.938c7.877,1.575,15.754,1.575,22.843,0.788
	C396.603,463.268,397.391,463.268,397.391,463.268z"/>
<circle style="fill:#FBBD5E;" cx="387.938" cy="386.074" r="60.652"/>
<circle style="fill:#FFFFFF;" cx="387.938" cy="386.074" r="24.418"/>
<path style="fill:#183651;" d="M387.938,418.37c-4.726,0-9.452-0.788-13.391-3.151c-7.877-3.938-13.391-10.24-16.542-18.117
	c-3.151-7.877-2.363-16.542,0.788-24.418c5.514-11.028,16.542-18.905,29.145-18.905c4.726,0,9.452,0.788,13.391,3.151
	c7.877,3.938,13.391,10.24,16.542,18.117c3.151,7.877,2.363,16.542-0.788,24.418C412.357,411.28,400.542,418.37,387.938,418.37z
	 M387.938,369.533c-6.302,0-11.815,3.938-14.966,9.452c-1.575,3.938-2.363,8.665-0.788,12.603c1.575,3.938,4.726,7.089,8.665,9.452
	c7.877,3.938,18.117,0,21.268-7.877c1.575-3.938,2.363-8.665,0.788-12.603c-1.575-3.938-4.726-7.089-8.665-9.452
	C392.665,370.32,390.302,369.533,387.938,369.533z"/>
<path style="fill:#FFFFFF;" d="M272.148,304.154l18.905-21.268l-14.178-15.754c3.151-6.302,5.514-12.603,6.302-19.692l20.48-3.938
	l-1.575-28.357l-21.268-0.788c-2.363-6.302-4.726-12.603-9.452-18.117l11.815-17.329l-21.268-18.905l-15.754,14.178
	c-6.302-3.151-12.603-5.514-19.692-6.302l-3.938-20.48l-28.357,1.575l-0.788,21.268c-6.302,2.363-12.603,4.726-18.117,9.452
	l-17.329-11.815l-18.905,21.268l14.178,15.754c-3.151,6.302-5.514,12.603-6.302,19.692l-20.48,3.938L128,256.893l21.268,0.788
	c2.363,6.302,4.726,12.603,9.452,18.117l-11.815,17.329l21.268,18.905l15.754-14.178c6.302,3.151,12.603,5.514,19.692,6.302
	l3.938,20.48l28.357-1.575l0.788-21.268c6.302-2.363,12.603-4.726,18.117-9.452L272.148,304.154z"/>
<path style="fill:#183651;" d="M207.557,332.511c-3.938,0-7.089-2.363-7.877-6.302l-3.151-15.754
	c-3.938-0.788-7.877-2.363-11.028-3.938l-11.815,10.24c-3.151,2.363-7.089,2.363-10.24,0l-21.268-18.905
	c-3.151-2.363-3.938-7.089-1.575-10.24l8.665-13.391c-2.363-3.151-3.938-7.089-5.514-11.028L128,262.406
	c-3.938,0-7.089-3.151-7.089-7.089l-1.575-28.357c0-3.938,2.363-7.877,6.302-7.877l15.754-3.151
	c0.788-3.938,2.363-7.877,3.938-11.028l-10.24-11.815c-2.363-3.151-2.363-7.089,0-10.24l18.905-21.268
	c2.363-3.151,7.089-3.938,10.24-1.575l13.391,8.665c3.151-2.363,7.089-3.938,11.028-5.514l0.788-15.754
	c0-3.938,3.151-7.089,7.089-7.089l28.357-1.575c3.938,0,7.877,2.363,7.877,6.302l3.151,15.754c3.938,0.788,7.877,2.363,11.028,3.938
	l11.815-10.24c3.151-2.363,7.089-2.363,10.24,0l21.268,18.905c3.151,2.363,3.938,7.089,1.575,10.24l-8.665,13.391
	c2.363,3.151,3.938,7.089,5.514,11.028l15.754,0.788c3.938,0,7.089,3.151,7.089,7.089l1.575,28.357c0,3.938-2.363,7.877-6.302,7.877
	l-15.754,3.151c-0.788,3.938-2.363,7.877-3.938,11.028l10.24,11.815c2.363,3.151,2.363,7.089,0,10.24l-18.905,21.268
	c-2.363,3.151-7.089,3.938-10.24,1.575l-13.391-8.665c-3.151,2.363-7.089,3.938-11.028,5.514l-0.788,15.754
	c0,3.938-3.151,7.089-7.089,7.089L207.557,332.511L207.557,332.511z M183.926,289.188c1.575,0,2.363,0,3.938,0.788
	c5.514,3.151,11.028,4.726,17.329,5.514c3.151,0.788,5.514,3.151,6.302,6.302l2.363,14.178l14.178-0.788l0.788-14.178
	c0-3.151,2.363-6.302,5.514-7.089c5.514-1.575,11.028-4.726,16.542-7.877c2.363-1.575,6.302-1.575,8.665,0l11.815,7.877
	l9.452-11.028l-9.452-10.24c-2.363-2.363-2.363-6.302-0.788-8.665c3.151-5.514,4.726-11.028,5.514-17.329
	c0.788-3.151,3.151-5.514,6.302-6.302l14.178-2.363l-0.788-14.178l-14.178-0.788c-3.151,0-6.302-2.363-7.089-5.514
	c-1.575-5.514-4.726-11.028-7.877-16.542c-1.575-2.363-1.575-6.302,0-8.665l7.877-11.815l-11.028-9.452l-10.24,9.452
	c-2.363,2.363-6.302,2.363-8.665,0.788c-5.514-3.151-11.028-4.726-17.329-5.514c-3.151-0.788-5.514-3.151-6.302-6.302l-2.363-14.178
	l-14.178,0.788l-0.788,14.178c0,3.151-2.363,6.302-5.514,7.089c-5.514,1.575-11.028,4.726-16.542,7.877
	c-2.363,1.575-6.302,1.575-8.665,0l-11.815-7.877l-9.452,11.028l9.452,10.24c2.363,2.363,2.363,6.302,0.788,8.665
	c-3.151,5.514-4.726,11.028-5.514,17.329c-0.788,3.151-3.151,5.514-6.302,6.302l-14.178,2.363l0.788,14.178l14.178,0.788
	c3.151,0,6.302,2.363,7.089,5.514c1.575,5.514,4.726,11.028,7.877,16.542c1.575,2.363,1.575,6.302,0,8.665l-7.877,11.815
	l11.028,9.452l10.24-9.452C179.988,289.976,182.351,289.188,183.926,289.188z"/>
<circle style="fill:#4FBF9F;" cx="215.434" cy="235.625" r="48.837"/>
<circle style="fill:#FFFFFF;" cx="215.434" cy="235.625" r="19.692"/>
<path style="fill:#183651;" d="M215.434,263.194c-6.302,0-13.391-2.363-18.117-7.089c-11.028-10.24-12.603-27.569-2.363-38.597
	c5.514-6.302,12.603-9.452,20.48-9.452c6.302,0,13.391,2.363,18.117,7.089c5.514,4.726,8.665,11.815,9.452,18.905
	c0.788,7.089-1.575,14.178-7.089,19.692C231.188,260.043,223.311,263.194,215.434,263.194z M215.434,223.809
	c-3.151,0-6.302,1.575-8.665,3.938c-3.938,4.726-3.938,12.603,0.788,16.542c4.726,3.938,12.603,3.938,16.542-0.788
	c2.363-2.363,3.151-5.514,3.151-8.665s-1.575-6.302-3.938-7.877C220.948,225.385,218.585,223.809,215.434,223.809z"/>
<path style="fill:#E0E4E8;" d="M362.732,55.243H141.391C130.363,27.674,103.582,8.77,72.074,8.77
	c-26.782,0-50.412,14.178-63.803,35.446h62.228l29.932,40.96l-29.932,40.96H8.271c13.391,21.268,37.022,35.446,63.803,35.446
	c31.508,0,58.289-18.905,70.105-46.474H363.52l0,0c11.815,27.569,38.597,46.474,70.105,46.474c26.782,0,50.412-14.178,63.803-35.446
	H435.2l-29.932-40.96l29.932-40.96h62.228C484.037,22.948,460.406,8.77,433.625,8.77C401.329,8.77,374.548,27.674,362.732,55.243z"
	/>
<g>
	<path style="fill:#183651;" d="M72.074,167.883c-28.357,0-55.138-14.178-70.105-38.597c-1.575-2.363-1.575-5.514,0-7.877
		s3.938-3.938,7.089-3.938h58.289l23.631-33.083L67.348,51.305H8.271c-3.151,0-5.514-1.575-7.089-3.938
		c-1.575-2.363-1.575-5.514,0-7.877C16.935,15.071,42.929,0.893,71.286,0.893c32.295,0,60.652,18.117,74.831,46.474h211.102
		c14.178-28.357,42.535-46.474,74.831-46.474c28.357,0,54.351,14.178,69.317,37.809c1.575,1.575,2.363,3.151,2.363,5.514
		c0,4.726-3.151,7.877-7.877,7.877l0,0h-58.289l-23.631,33.083l23.631,33.083h58.289c3.151,0,5.514,1.575,7.089,3.938
		c1.575,2.363,1.575,5.514,0,7.877c-15.754,24.418-41.748,38.597-70.105,38.597c-32.295,0-60.652-18.117-74.831-46.474H146.905
		C132.726,149.766,104.369,167.883,72.074,167.883z M24.812,133.225c12.603,12.603,29.145,19.692,47.262,19.692
		c27.569,0,51.988-16.542,62.228-41.748c1.575-3.151,3.938-4.726,7.089-4.726h221.342c3.151,0,6.302,1.575,7.089,4.726
		c10.24,25.206,35.446,41.748,62.228,41.748c18.117,0,34.658-7.089,47.262-19.692h-45.686c-2.363,0-4.726-1.575-6.302-3.151
		l-29.145-40.96c-2.363-2.363-2.363-6.302,0-9.452l29.932-40.96c1.575-2.363,3.938-3.151,6.302-3.151h45.686
		c-12.603-12.603-29.145-19.692-47.262-19.692c-27.569,0-51.988,16.542-62.228,41.748c-1.575,3.151-3.938,4.726-7.089,4.726H142.178
		c-3.151,0-6.302-1.575-7.089-4.726C124.849,32.4,99.643,15.859,72.862,15.859c-18.117,0-34.658,7.089-47.262,19.692h45.686
		c2.363,0,4.726,1.575,6.302,3.151l29.932,40.96c2.363,2.363,2.363,6.302,0,9.452l-30.72,40.96
		c-1.575,2.363-3.938,3.151-6.302,3.151H24.812z"/>
	<rect x="187.077" y="76.511" style="fill:#183651;" width="15.754" height="15.754"/>
	<rect x="244.578" y="76.511" style="fill:#183651;" width="15.754" height="15.754"/>
	<rect x="302.08" y="76.511" style="fill:#183651;" width="15.754" height="15.754"/>
</g>
<g>
</g>
<g>
</g>
<g>
</g>
<g>
</g>
<g>
</g>
<g>
</g>
<g>
</g>
<g>
</g>
<g>
</g>
<g>
</g>
<g>
</g>
<g>
</g>
<g>
</g>
<g>
</g>
<g>
</g>
</svg>
