<?xml version="1.0" encoding="iso-8859-1"?>
<!-- Generator: Adobe Illustrator 19.0.0, SVG Export Plug-In . SVG Version: 6.00 Build 0)  -->
<svg version="1.1" id="Capa_1" xmlns="http://www.w3.org/2000/svg" xmlns:xlink="http://www.w3.org/1999/xlink" x="0px" y="0px"
	 viewBox="0 0 504.123 504.123" style="enable-background:new 0 0 504.123 504.123;" xml:space="preserve">
<path style="fill:#E1E6E7;" d="M483.977,454.498l-41.748-22.843l-41.748,22.843c-7.877,3.938-12.603,12.603-12.603,21.268v19.692
	h109.489v-18.905C496.58,467.102,491.854,459.225,483.977,454.498z"/>
<path style="fill:#183651;" d="M496.58,504.123H387.09c-4.726,0-7.877-3.151-7.877-7.877v-19.692
	c0-11.815,6.302-22.843,16.542-28.357l41.748-22.843c2.363-1.575,5.514-1.575,7.877,0l41.748,22.843
	c10.24,5.514,16.542,16.542,16.542,28.357v19.692C504.457,500.185,501.306,504.123,496.58,504.123z M394.967,488.369h93.735v-11.815
	c0-6.302-3.151-11.815-8.665-14.966l-38.597-21.268l-38.597,21.268c-5.514,3.151-8.665,8.665-8.665,14.966v11.815H394.967z"/>
<path style="fill:#FFFFFF;" d="M469.01,407.237c0,18.905-12.603,39.385-27.569,39.385c-14.966,0-27.569-21.268-27.569-39.385
	c0-18.905,12.603-28.357,27.569-28.357C456.407,378.88,469.01,388.332,469.01,407.237z"/>
<path style="fill:#183651;" d="M441.441,454.498c-20.48,0-35.446-25.206-35.446-47.262c0-21.268,14.178-36.234,35.446-36.234
	s35.446,14.178,35.446,36.234C476.887,429.292,461.921,454.498,441.441,454.498z M441.441,386.757
	c-6.302,0-19.692,1.575-19.692,20.48c0,15.754,10.24,31.508,19.692,31.508c9.452,0,19.692-16.542,19.692-31.508
	C461.134,388.332,447.743,386.757,441.441,386.757z"/>
<path style="fill:#E1E6E7;" d="M374.487,454.498l-41.748-22.843l-41.748,22.843c-7.877,3.938-12.603,12.603-12.603,21.268v19.692
	h109.489v-18.905C387.09,467.102,382.364,459.225,374.487,454.498z"/>
<path style="fill:#183651;" d="M387.09,504.123H277.601c-4.726,0-7.877-3.151-7.877-7.877v-19.692
	c0-11.815,6.302-22.843,16.542-28.357l41.748-22.843c2.363-1.575,5.514-1.575,7.877,0l41.748,22.843
	c10.24,5.514,16.542,16.542,16.542,28.357v19.692C394.967,500.185,391.029,504.123,387.09,504.123z M285.478,488.369h93.735v-11.815
	c0-6.302-3.151-11.815-8.665-14.966l-38.597-21.268l-38.597,21.268c-5.514,3.151-8.665,8.665-8.665,14.966v11.815H285.478z"/>
<path style="fill:#FFFFFF;" d="M359.521,407.237c0,18.905-12.603,39.385-27.569,39.385s-27.569-21.268-27.569-39.385
	c0-18.905,12.603-28.357,27.569-28.357C346.918,378.88,359.521,388.332,359.521,407.237z"/>
<path style="fill:#183651;" d="M331.952,454.498c-20.48,0-35.446-25.206-35.446-47.262c0-21.268,14.178-36.234,35.446-36.234
	s35.446,14.178,35.446,36.234C367.398,429.292,352.432,454.498,331.952,454.498z M331.952,386.757
	c-6.302,0-19.692,1.575-19.692,20.48c0,15.754,10.24,31.508,19.692,31.508c9.452,0,19.692-16.542,19.692-31.508
	C351.644,388.332,338.254,386.757,331.952,386.757z"/>
<rect x="21.601" y="326.892" style="fill:#FBBD5E;" width="225.28" height="169.354"/>
<path style="fill:#183651;" d="M246.881,504.123H21.601c-4.726,0-7.877-3.151-7.877-7.877V326.892c0-4.726,3.151-7.877,7.877-7.877
	h225.28c4.726,0,7.877,3.151,7.877,7.877v169.354C254.758,500.972,251.607,504.123,246.881,504.123z M29.478,488.369h209.526v-153.6
	H29.478V488.369z"/>
<g>
	<rect x="53.109" y="358.4" style="fill:#FFFFFF;" width="162.265" height="106.338"/>
</g>
<rect x="0.334" y="319.015" style="fill:#183651;" width="268.603" height="15.754"/>
<path style="fill:#2CA0DA;" d="M243.73,326.892v-33.871c-9.452-27.569-18.117-42.535-69.317-62.228l-85.071,2.363
	c0,0-58.289,21.268-64.591,59.865v33.871H243.73z"/>
<path style="fill:#183651;" d="M243.73,334.769H25.54c-4.726,0-7.877-3.151-7.877-7.877v-33.871c0-0.788,0-0.788,0-0.788
	c6.302-42.535,66.954-65.378,69.317-66.166c0.788,0,1.575-0.788,2.363-0.788l85.071-2.363c0.788,0,2.363,0,3.151,0.788
	c52.775,20.48,63.803,37.022,74.043,66.954c0,0.788,0.788,1.575,0.788,2.363v33.871C251.607,330.831,247.669,334.769,243.73,334.769
	z M33.417,319.015h202.437v-24.418c-7.877-23.631-14.966-37.022-63.015-55.926l-81.92,2.363
	c-7.877,3.151-52.775,22.055-58.289,52.775v25.206H33.417z"/>
<path style="fill:#E1E6E7;" d="M107.46,204.012c0,0,1.575,17.329-18.117,29.145c0,0,46.474,33.083,85.071-2.363
	c0,0-11.815-7.877-11.815-29.932L107.46,204.012z"/>
<path style="fill:#183651;" d="M133.454,255.212L133.454,255.212c-26.782,0-47.262-14.966-48.837-15.754
	c-2.363-1.575-3.151-3.938-3.151-6.302c0-2.363,1.575-4.726,3.938-6.302c14.966-9.452,14.178-22.055,14.178-22.055
	c0-2.363,0.788-3.938,2.363-5.514c1.575-1.575,3.151-2.363,5.514-2.363l55.138-3.151c2.363,0,3.938,0.788,5.514,2.363
	c1.575,1.575,2.363,3.938,2.363,5.514c0,17.329,7.877,23.631,8.665,23.631c1.575,1.575,3.151,3.938,3.151,6.302
	c0,2.363-0.788,4.726-2.363,6.302C166.537,248.911,150.783,255.212,133.454,255.212z M103.521,232.369
	c7.089,3.151,18.117,7.089,29.932,7.089c11.028,0,20.48-3.151,29.932-9.452c-3.151-4.726-6.302-11.028-7.877-21.268l-40.96,2.363
	C113.761,216.615,110.61,224.492,103.521,232.369z"/>
<path style="fill:#FFFFFF;" d="M90.13,173.292c0,0,7.877,36.234,42.535,41.748c0,0,35.446-0.788,47.262-48.837l7.089-11.815v-28.357
	l-12.603-17.329l-31.508-3.938l-46.474,14.966l-15.754,29.145L90.13,173.292z"/>
<path style="fill:#183651;" d="M132.666,222.917c-0.788,0-0.788,0-1.575,0c-37.809-5.514-47.262-40.96-48.837-46.474l-10.24-23.631
	c-0.788-2.363-0.788-4.726,0-7.089l15.754-29.145c0.788-1.575,2.363-3.151,4.726-3.938l46.474-14.966c0.788,0,2.363-0.788,3.151,0
	l31.508,3.938c2.363,0,3.938,1.575,5.514,3.151l12.603,17.329c0.788,1.575,1.575,3.151,1.575,4.726V153.6
	c0,1.575,0,2.363-0.788,3.938l-6.302,11.028C173.626,221.342,134.241,222.917,132.666,222.917L132.666,222.917z M88.555,148.874
	l8.665,21.268c0,0.788,0,0.788,0.788,1.575c0,1.575,7.089,29.932,35.446,35.446c4.726-0.788,29.932-4.726,39.385-43.323
	c0-0.788,0.788-1.575,0.788-2.363l5.514-10.24v-23.631l-9.452-12.603l-26.782-3.151l-41.748,13.391L88.555,148.874z"/>
<path style="fill:#F06151;" d="M157.872,84.283c62.228,27.569,21.268,81.132,21.268,81.132
	c15.754-46.474-26.782-52.775-26.782-52.775c-15.754,18.905-34.658,16.542-34.658,16.542c-45.686,5.514-29.145,44.111-29.145,44.111
	C40.506,110.277,106.672,62.228,157.872,84.283z"/>
<path style="fill:#183651;" d="M90.13,181.169c-2.363,0-4.726-0.788-6.302-3.151c-25.994-33.083-19.692-59.865-13.391-71.68
	c10.24-21.268,34.658-34.658,60.652-34.658c10.24,0,20.48,2.363,29.932,6.302c20.48,9.452,33.083,22.055,37.809,38.597
	c7.089,27.569-11.815,53.563-12.603,54.351c-2.363,3.151-6.302,3.938-10.24,2.363c-3.151-1.575-4.726-5.514-3.938-9.452
	c3.938-12.603,3.938-22.055,0-29.932c-3.938-7.089-11.815-10.24-16.542-11.815c-15.754,14.966-32.295,15.754-37.022,15.754
	c-11.028,1.575-18.117,5.514-22.055,11.028c-4.726,7.877-1.575,18.117-0.788,21.268c0.788,1.575,1.575,2.363,1.575,3.938
	C98.007,177.231,94.069,181.169,90.13,181.169L90.13,181.169z M131.09,86.646c-20.48,0-39.385,10.24-46.474,25.994
	c-4.726,8.665-4.726,18.905-1.575,29.932c0-0.788,0.788-1.575,1.575-2.363c6.302-10.24,17.329-17.329,33.871-18.905
	c0.788,0,1.575,0,1.575,0s0,0,0.788,0c3.151,0,15.754-0.788,26.782-14.178c1.575-2.363,4.726-3.151,7.089-2.363
	c0.788,0,19.692,3.151,29.932,18.905c0-1.575-0.788-2.363-0.788-3.938c-3.151-11.815-12.603-21.268-29.145-27.569
	C147.632,88.222,138.967,86.646,131.09,86.646z"/>
<polygon style="fill:#E1E6E7;" points="231.127,7.877 231.127,176.443 281.54,176.443 281.54,235.52 394.967,176.443 
	496.58,176.443 496.58,7.877 "/>
<path style="fill:#183651;" d="M276.814,242.609c-2.363-1.575-3.938-3.938-3.938-7.089v-51.2H230.34
	c-4.726,0-7.877-3.151-7.877-7.877V7.877c0-4.726,3.151-7.877,7.877-7.877h265.452c4.726,0,7.877,3.151,7.877,7.877v168.566
	c0,4.726-3.151,7.877-7.877,7.877h-99.249L284.69,242.609C282.327,244.185,279.177,243.397,276.814,242.609z M239.004,168.566
	h42.535c4.726,0,7.877,3.151,7.877,7.877v46.474l101.612-53.563c0.788-0.788,2.363-0.788,3.938-0.788h93.735V15.754H239.004V168.566
	z"/>
<polygon style="fill:#FFFFFF;" points="313.047,144.935 262.635,144.935 262.635,39.385 465.072,39.385 465.072,144.935 
	387.09,144.935 313.047,183.532 "/>
<g>
	<rect x="81.466" y="422.991" style="fill:#183651;" width="15.754" height="15.754"/>
	<rect x="126.364" y="422.991" style="fill:#183651;" width="15.754" height="15.754"/>
	<rect x="172.05" y="422.991" style="fill:#183651;" width="15.754" height="15.754"/>
	<rect x="81.466" y="383.606" style="fill:#183651;" width="15.754" height="15.754"/>
	<rect x="126.364" y="383.606" style="fill:#183651;" width="15.754" height="15.754"/>
	<rect x="172.05" y="383.606" style="fill:#183651;" width="15.754" height="15.754"/>
</g>
<g>
	<circle style="fill:#CFD0D1;" cx="306.746" cy="91.372" r="17.329"/>
	<circle style="fill:#CFD0D1;" cx="363.46" cy="91.372" r="17.329"/>
	<circle style="fill:#CFD0D1;" cx="420.961" cy="91.372" r="17.329"/>
</g>
<g>
</g>
<g>
</g>
<g>
</g>
<g>
</g>
<g>
</g>
<g>
</g>
<g>
</g>
<g>
</g>
<g>
</g>
<g>
</g>
<g>
</g>
<g>
</g>
<g>
</g>
<g>
</g>
<g>
</g>
</svg>
