<?xml version="1.0" encoding="iso-8859-1"?>
<!-- Generator: Adobe Illustrator 19.0.0, SVG Export Plug-In . SVG Version: 6.00 Build 0)  -->
<svg version="1.1" id="Capa_1" xmlns="http://www.w3.org/2000/svg" xmlns:xlink="http://www.w3.org/1999/xlink" x="0px" y="0px"
	 viewBox="0 0 504.123 504.123" style="enable-background:new 0 0 504.123 504.123;" xml:space="preserve">
<circle style="fill:#FBBD5E;" cx="252.062" cy="250.486" r="250.486"/>
<path style="fill:#2EA0DA;" d="M377.305,7.877H40.172c-17.329,0-31.508,14.178-31.508,31.508v217.403
	c0,17.329,14.178,31.508,31.508,31.508h14.178v73.255l101.612-73.255h221.342c17.329,0,31.508-14.178,31.508-31.508V39.385
	C408.812,22.055,394.634,7.877,377.305,7.877z"/>
<path style="fill:#183651;" d="M46.474,376.517v-81.132h-6.302c-21.268,0-39.385-17.329-39.385-39.385V39.385
	C0.788,18.117,18.117,0,40.172,0h337.132c21.268,0,39.385,17.329,39.385,39.385v217.403c0,21.268-17.329,39.385-39.385,39.385
	H159.114L46.474,376.517z M40.172,15.754c-12.603,0-23.631,10.24-23.631,23.631v217.403c0,12.603,10.24,23.631,23.631,23.631h22.055
	v66.166l91.372-66.166h223.705c12.603,0,23.631-10.24,23.631-23.631V39.385c0-12.603-10.24-23.631-23.631-23.631H40.172z"/>
<polygon style="fill:#FFFFFF;" points="85.858,256.788 40.172,256.788 40.172,39.385 377.305,39.385 377.305,256.788 
	146.511,256.788 85.858,300.111 "/>
<path style="fill:#F06151;" d="M347.372,222.129c81.92,0,148.086,55.138,148.086,122.88c0,27.569-11.028,53.563-29.932,74.043
	l18.117,70.892l-71.68-33.871c-19.692,7.877-41.748,12.603-64.591,12.603c-81.92,0-148.086-55.138-148.086-122.88
	S265.452,222.129,347.372,222.129z"/>
<path style="fill:#183651;" d="M495.458,504.123l-83.495-40.172c-20.48,7.877-41.748,11.815-64.591,11.815
	c-85.858,0-155.963-58.289-155.963-130.757s70.105-130.757,155.963-130.757s155.963,58.289,155.963,130.757
	c0,27.569-10.24,53.563-29.145,75.618L495.458,504.123z M411.963,447.409l59.865,28.357l-14.966-59.077l3.151-3.151
	c18.117-19.692,27.569-43.323,27.569-68.529c0-63.015-63.015-115.003-140.209-115.003s-140.209,51.2-140.209,115.003
	s63.015,115.003,140.209,115.003c21.268,0,42.535-3.938,61.44-11.815L411.963,447.409z"/>
<path style="fill:#FFFFFF;" d="M347.372,436.382c-64.591,0-116.578-40.96-116.578-91.372s51.988-91.372,116.578-91.372
	s116.578,40.96,116.578,91.372c0,18.905-7.089,37.022-21.268,52.775l-11.028,12.603l5.514,22.055l-23.631-11.028l-12.603,5.514
	C383.606,433.231,365.489,436.382,347.372,436.382z"/>
<g>
	<rect x="279.631" y="363.126" style="fill:#183651;" width="15.754" height="15.754"/>
	<rect x="339.495" y="363.126" style="fill:#183651;" width="15.754" height="15.754"/>
	<rect x="399.36" y="363.126" style="fill:#183651;" width="15.754" height="15.754"/>
</g>
<g>
	<path style="fill:#E0E4E8;" d="M287.508,308.775c-9.452,0-17.329,7.877-17.329,17.329l0,0c0,9.452,7.877,17.329,17.329,17.329
		c9.452,0,17.329-7.877,17.329-17.329l0,0C304.837,316.652,296.96,308.775,287.508,308.775z"/>
	<path style="fill:#E0E4E8;" d="M347.372,308.775c-9.452,0-17.329,7.877-17.329,17.329l0,0c0,9.452,7.877,17.329,17.329,17.329
		c9.452,0,17.329-7.877,17.329-17.329l0,0C364.702,316.652,356.825,308.775,347.372,308.775z"/>
	<path style="fill:#E0E4E8;" d="M408.812,308.775c-9.452,0-17.329,7.877-17.329,17.329l0,0c0,9.452,7.877,17.329,17.329,17.329
		s17.329-7.877,17.329-17.329l0,0C426.142,316.652,418.265,308.775,408.812,308.775z"/>
	<path style="fill:#E0E4E8;" d="M111.852,71.68c-15.754,0-28.357,12.603-28.357,28.357l0,0c0,15.754,12.603,28.357,28.357,28.357
		s28.357-12.603,28.357-28.357l0,0C140.209,84.283,127.606,71.68,111.852,71.68z"/>
	<path style="fill:#E0E4E8;" d="M208.738,71.68c-15.754,0-28.357,12.603-28.357,28.357l0,0c0,15.754,12.603,28.357,28.357,28.357
		s28.357-12.603,28.357-28.357l0,0C237.883,84.283,224.492,71.68,208.738,71.68z"/>
	<path style="fill:#E0E4E8;" d="M306.412,71.68c-15.754,0-28.357,12.603-28.357,28.357l0,0c0,15.754,12.603,28.357,28.357,28.357
		s28.357-12.603,28.357-28.357l0,0C334.769,84.283,322.166,71.68,306.412,71.68z"/>
</g>
<g>
	<rect x="82.708" y="158.326" style="fill:#183651;" width="252.062" height="15.754"/>
	<rect x="82.708" y="195.348" style="fill:#183651;" width="15.754" height="15.754"/>
	<rect x="129.969" y="195.348" style="fill:#183651;" width="15.754" height="15.754"/>
	<rect x="177.231" y="195.348" style="fill:#183651;" width="15.754" height="15.754"/>
	<rect x="223.705" y="195.348" style="fill:#183651;" width="15.754" height="15.754"/>
</g>
<g>
</g>
<g>
</g>
<g>
</g>
<g>
</g>
<g>
</g>
<g>
</g>
<g>
</g>
<g>
</g>
<g>
</g>
<g>
</g>
<g>
</g>
<g>
</g>
<g>
</g>
<g>
</g>
<g>
</g>
</svg>
