<?xml version="1.0" encoding="iso-8859-1"?>
<!-- Generator: Adobe Illustrator 19.0.0, SVG Export Plug-In . SVG Version: 6.00 Build 0)  -->
<svg version="1.1" id="Capa_1" xmlns="http://www.w3.org/2000/svg" xmlns:xlink="http://www.w3.org/1999/xlink" x="0px" y="0px"
	 viewBox="0 0 504.123 504.123" style="enable-background:new 0 0 504.123 504.123;" xml:space="preserve">
<circle style="fill:#FBBD5E;" cx="250.88" cy="154.388" r="154.388"/>
<g>
	<path style="fill:#183651;" d="M427.323,339.495h-15.754v-15.754h15.754V339.495z M427.323,307.988h-15.754v-8.665
		c0-2.363,0-5.514,0.788-7.877l14.966,3.151c0,1.575-0.788,3.151-0.788,5.514v7.877H427.323z M432.837,282.782l-12.603-8.665
		c3.938-5.514,8.665-9.452,13.391-12.603l7.877,13.391C438.351,276.48,435.2,279.631,432.837,282.782z M453.317,270.178
		l-1.575-15.754c4.726-0.788,9.452,0,14.178-1.575l4.726,14.966c-3.938,1.575-8.665,2.363-13.391,2.363
		C455.68,270.178,454.105,270.178,453.317,270.178z M486.4,259.151l-10.24-11.815c3.151-2.363,5.514-6.302,7.089-10.24l14.178,6.302
		C495.065,249.698,491.126,254.425,486.4,259.151z M501.366,225.28h-15.754v-15.754h15.754V225.28z M501.366,194.56h-15.754v-14.966
		l15.754-0.788V194.56z M482.462,166.991c-1.575-3.938-4.726-7.089-7.877-9.452l10.24-11.815c4.726,3.938,8.665,9.452,11.815,14.966
		L482.462,166.991z M464.345,151.237c-2.363-0.788-5.514-0.788-7.877-0.788h-5.514v-15.754h5.514c3.938,0,7.877,0.788,11.815,1.575
		L464.345,151.237z M435.2,150.449h-15.754v-15.754H435.2V150.449z M404.48,150.449h-15.754v-15.754h15.754V150.449z
		 M372.972,150.449h-3.151v-15.754h3.151V150.449z"/>
	<path style="fill:#183651;" d="M90.978,339.495H75.225v-15.754h15.754V339.495z M90.978,307.988H75.225v-8.665
		c0-1.575,0-3.151-0.788-5.514l14.966-3.151c0.788,2.363,0.788,5.514,0.788,7.877v9.452H90.978z M70.498,282.782
		c-2.363-3.151-5.514-6.302-8.665-8.665l7.877-13.391c5.514,3.151,10.24,7.877,13.391,12.603L70.498,282.782z M50.018,270.178
		c-0.788,0-2.363,0-3.151,0c-4.726,0-9.452-0.788-13.391-2.363l4.726-14.966c4.726,1.575,9.452,0.788,14.178,1.575L50.018,270.178z
		 M16.935,259.151c-4.726-3.938-8.665-9.452-11.028-14.966l14.178-6.302c1.575,3.938,3.938,7.089,7.089,10.24L16.935,259.151z
		 M17.723,225.28H1.969v-15.754h15.754V225.28z M17.723,194.56H1.969v-15.754l15.754,0.788V194.56z M20.874,166.991l-14.178-7.089
		c2.363-5.514,6.302-11.028,11.815-14.966l10.24,11.815C24.812,159.902,22.449,163.052,20.874,166.991z M38.991,151.237
		l-3.938-14.966c3.938-0.788,7.877-1.575,11.815-1.575h5.514v15.754h-5.514C43.717,150.449,41.354,151.237,38.991,151.237z
		 M133.514,150.449h-3.151v-15.754h3.151V150.449z M114.609,150.449H98.855v-15.754h15.754V150.449z M83.102,150.449H67.348v-15.754
		h15.754V150.449z"/>
</g>
<path style="fill:#F06151;" d="M476.16,441.108l-56.714-30.72l-56.714,30.72c-10.24,5.514-17.329,16.542-17.329,29.145v25.994
	h147.298v-25.994C493.489,457.649,487.188,446.622,476.16,441.108z"/>
<path style="fill:#183651;" d="M493.489,504.123H346.191c-3.938,0-7.877-3.151-7.877-7.877v-25.994
	c0-14.966,7.877-28.357,21.268-36.234l56.714-30.72c2.363-1.575,5.514-1.575,7.877,0l56.714,30.72
	c13.391,7.089,21.268,20.48,21.268,36.234v25.994C501.366,500.972,497.428,504.123,493.489,504.123z M354.068,488.369h131.545
	v-18.117c0-9.452-4.726-18.117-13.391-22.055l-52.775-29.145l-52.775,29.145c-7.877,4.726-13.391,12.603-13.391,22.055v18.117
	H354.068z"/>
<path style="fill:#FFFFFF;" d="M456.468,376.517c0,25.206-16.542,52.775-37.022,52.775c-20.48,0-37.022-28.357-37.022-52.775
	c0-24.418,16.542-37.809,37.022-37.809C439.926,339.495,456.468,352.098,456.468,376.517z"/>
<path style="fill:#183651;" d="M419.446,437.957c-25.994,0-44.898-32.295-44.898-60.652c0-26.782,18.117-45.686,44.898-45.686
	s44.898,18.117,44.898,45.686C464.345,405.662,445.44,437.957,419.446,437.957z M419.446,347.372
	c-18.117,0-29.145,11.028-29.145,29.932c0,22.843,14.966,45.686,29.145,45.686s29.145-22.843,29.145-45.686
	C449.378,358.4,438.351,347.372,419.446,347.372z"/>
<path style="fill:#4FBF9F;" d="M139.815,441.108l-56.714-30.72l-55.926,30.72c-10.24,5.514-17.329,16.542-17.329,29.145v25.994
	h147.298v-25.994C157.145,457.649,150.843,446.622,139.815,441.108z"/>
<path style="fill:#183651;" d="M157.145,504.123H9.846c-3.938,0-7.877-3.151-7.877-7.877v-25.994
	c0-14.966,7.877-28.357,21.268-36.234l56.714-30.72c2.363-1.575,5.514-1.575,7.877,0l56.714,30.72
	c13.391,7.089,21.268,20.48,21.268,36.234v25.994C165.022,500.972,161.083,504.123,157.145,504.123z M17.723,488.369h131.545
	v-18.117c0-9.452-4.726-18.117-13.391-22.055l-52.775-29.145l-52.775,29.145c-7.877,4.726-13.391,12.603-13.391,22.055v18.117
	H17.723z"/>
<path style="fill:#FFFFFF;" d="M120.911,376.517c0,25.206-16.542,52.775-37.022,52.775s-37.022-28.357-37.022-52.775
	c0-24.418,16.542-37.809,37.022-37.809S120.911,352.098,120.911,376.517z"/>
<path style="fill:#183651;" d="M83.889,437.957c-25.994,0-44.898-32.295-44.898-60.652c0-26.782,18.117-45.686,44.898-45.686
	s44.898,18.117,44.898,45.686C128,405.662,109.095,437.957,83.889,437.957z M83.889,347.372c-18.117,0-29.145,11.028-29.145,29.932
	c0,22.843,14.966,45.686,29.145,45.686s29.145-22.843,29.145-45.686C113.034,358.4,102.006,347.372,83.889,347.372z"/>
<path style="fill:#E1E6E7;" d="M364.308,151.237c0-67.742-57.502-121.305-125.243-114.215c-51.988,5.514-93.735,48.837-99.249,102.4
	c-3.938,44.111,15.754,84.283,48.837,106.338c11.028,7.877,17.329,21.268,17.329,34.658v62.228h90.585v-62.228
	c0-13.391,6.302-26.782,17.329-34.658C344.615,225.28,364.308,190.622,364.308,151.237z"/>
<path style="fill:#183651;" d="M296.566,350.523h-89.797c-3.938,0-7.877-3.151-7.877-7.877v-62.228
	c0-11.815-5.514-22.055-14.178-28.357C148.48,226.855,128,183.532,132.726,138.634c4.726-56.714,49.625-103.188,105.551-109.489
	c4.726-0.788,9.452-0.788,13.391-0.788c66.166,0,119.729,55.138,119.729,122.88c0,40.96-19.692,78.769-52.775,101.612
	c-8.665,6.302-14.178,16.542-14.178,28.357v61.44C304.443,346.585,301.292,350.523,296.566,350.523z M213.858,334.769h74.831
	v-54.351c0-16.542,7.877-32.295,21.268-40.96c29.145-19.692,46.474-52.775,46.474-89.009c0-59.077-47.262-107.126-104.763-107.126
	c-3.938,0-7.877,0-11.815,0.788c-48.837,6.302-87.434,46.474-92.16,96.098c-3.938,39.385,13.391,77.194,45.686,99.249
	c13.391,9.452,21.268,24.418,21.268,40.96v54.351H213.858z"/>
<path style="fill:#2CA0DA;" d="M188.652,245.76c11.028,7.877,17.329,21.268,17.329,34.658v7.089h90.585v-7.089
	c0-13.391,6.302-26.782,17.329-34.658c29.932-20.48,49.625-55.138,49.625-95.311c0-67.742-57.502-121.305-125.243-114.215
	c-51.988,5.514-93.735,48.837-99.249,102.4C135.877,183.532,156.357,223.705,188.652,245.76z"/>
<path style="fill:#183651;" d="M296.566,295.385h-89.797c-3.938,0-7.877-3.151-7.877-7.877v-7.089
	c0-11.815-5.514-22.055-14.178-28.357C148.48,226.855,128,183.532,132.726,138.634c4.726-56.714,49.625-103.188,105.551-109.489
	c4.726-0.788,9.452-0.788,13.391-0.788c66.166,0,119.729,55.138,119.729,122.88c0,40.96-19.692,78.769-52.775,101.612
	c-8.665,6.302-14.178,16.542-14.178,28.357v7.089C304.443,292.234,301.292,295.385,296.566,295.385z M213.858,280.418h74.831
	c0-16.542,7.877-31.508,21.268-40.172c29.145-19.692,46.474-52.775,46.474-89.009c0-59.077-47.262-107.126-104.763-107.126
	c-3.938,0-7.877,0-11.815,0.788c-48.837,5.514-87.434,45.686-92.16,95.311c-3.938,39.385,13.391,77.194,45.686,99.249
	C205.982,248.911,213.858,263.877,213.858,280.418z"/>
<path style="fill:#FFFFFF;" d="M229.612,342.646v10.24c0,11.815,10.24,21.268,22.055,21.268s22.055-9.452,22.055-21.268v-10.24
	H229.612z"/>
<path style="fill:#183651;" d="M251.668,381.243c-16.542,0-29.932-13.391-29.932-29.145v-9.452c0-3.938,3.151-7.877,7.877-7.877
	h44.111c3.938,0,7.877,3.151,7.877,7.877v10.24C281.6,368.64,268.209,381.243,251.668,381.243z M237.489,350.523v2.363
	c0,7.089,6.302,13.391,14.178,13.391c7.877,0,14.178-6.302,14.178-13.391v-2.363H237.489z"/>
<path style="fill:#183651;" d="M305.231,322.166H198.105c-3.938,0-7.877-3.151-7.877-7.877c0-3.938,3.151-7.877,7.877-7.877h106.338
	c3.938,0,7.877,3.151,7.877,7.877S309.169,322.166,305.231,322.166z"/>
<g>
	<path style="fill:#FFFFFF;" d="M251.668,67.742c-3.151,0-6.302,0-9.452,0.788c-37.809,3.938-67.742,35.446-71.68,74.043
		c-3.151,30.72,10.24,60.652,35.446,77.982c1.575,0.788,3.151,2.363,4.726,3.938c14.966,11.815,22.055,30.72,22.055,50.412v12.603
		h36.234v-12.603c0-18.905,7.877-37.809,22.843-50.412c1.575-1.575,3.151-2.363,4.726-3.151
		c22.843-15.754,36.234-41.748,36.234-69.317C332.8,104.763,296.566,67.742,251.668,67.742z"/>
</g>
<g>
	<path style="fill:#183651;" d="M251.668,294.597c-3.938,0-7.877-3.151-7.877-7.877v-86.646c0-3.938,3.151-7.877,7.877-7.877
		c3.938,0,7.877,3.151,7.877,7.877v86.646C259.545,290.658,256.394,294.597,251.668,294.597z"/>
	<path style="fill:#183651;" d="M251.668,207.951L251.668,207.951c-2.363,0-4.726-0.788-6.302-3.151l-25.994-35.446
		c-2.363-3.151-1.575-8.665,1.575-11.028s8.665-1.575,11.028,1.575l19.692,26.782l19.692-26.782
		c2.363-3.151,7.089-3.938,11.028-1.575c3.151,2.363,3.938,7.089,1.575,11.028L257.969,204.8
		C256.394,206.375,254.031,207.951,251.668,207.951z"/>
</g>
<path style="fill:#173651;" d="M313.895,133.12c-3.938-17.329-16.542-32.295-32.295-40.172c-0.788,0-1.575-0.788-2.363-0.788
	c-2.363,0-3.938,1.575-5.514,3.151c-1.575,3.151,0,6.302,3.151,7.877c13.391,5.514,22.843,18.117,25.994,32.295
	c0.788,2.363,3.151,4.726,5.514,4.726c0.788,0,0.788,0,1.575,0C312.32,139.422,314.683,136.271,313.895,133.12z"/>
<g>
	<path style="fill:#183651;" d="M305.231,294.597H198.105c-3.938,0-7.877-3.151-7.877-7.877c0-4.726,3.151-7.877,7.877-7.877
		h106.338c3.938,0,7.877,3.151,7.877,7.877C312.32,291.446,309.169,294.597,305.231,294.597z"/>
	<rect x="205.194" y="463.163" style="fill:#183651;" width="15.754" height="15.754"/>
	<rect x="243.791" y="463.163" style="fill:#183651;" width="15.754" height="15.754"/>
	<rect x="282.388" y="463.163" style="fill:#183651;" width="15.754" height="15.754"/>
</g>
<g>
</g>
<g>
</g>
<g>
</g>
<g>
</g>
<g>
</g>
<g>
</g>
<g>
</g>
<g>
</g>
<g>
</g>
<g>
</g>
<g>
</g>
<g>
</g>
<g>
</g>
<g>
</g>
<g>
</g>
</svg>
