<?xml version="1.0" encoding="iso-8859-1"?>
<!-- Generator: Adobe Illustrator 19.0.0, SVG Export Plug-In . SVG Version: 6.00 Build 0)  -->
<svg version="1.1" id="Capa_1" xmlns="http://www.w3.org/2000/svg" xmlns:xlink="http://www.w3.org/1999/xlink" x="0px" y="0px"
	 viewBox="0 0 504.64 504.64" style="enable-background:new 0 0 504.64 504.64;" xml:space="preserve">
<path style="fill:#FFFFFF;" d="M234.991,316.382h261.514c0-52.775-30.72-97.674-75.618-118.942
	c-12.603,11.815-29.932,19.692-53.563,19.692c-7.877,0-15.754-0.788-24.418-3.151c-8.665-1.575-22.055-6.302-33.083-16.542
	C265.711,218.708,234.991,263.607,234.991,316.382z"/>
<path style="fill:#183651;" d="M496.505,324.259H234.991c-4.726,0-7.877-3.151-7.877-7.877c0-53.563,31.508-102.4,79.557-125.243
	c3.151-1.575,6.302-0.788,8.665,1.575c12.603,11.028,25.206,14.178,29.145,14.966c8.665,1.575,15.754,2.363,22.843,2.363
	c18.905,0,35.446-6.302,48.049-17.329c2.363-2.363,5.514-2.363,8.665-1.575c48.837,22.843,80.345,71.68,80.345,126.031
	C504.382,320.32,501.231,324.259,496.505,324.259z M242.868,308.505H487.84c-3.151-42.535-28.357-81.92-66.166-101.612
	c-20.48,17.329-48.837,22.055-80.345,14.966c-5.514-0.788-18.905-3.938-32.295-14.966
	C271.225,227.373,246.019,265.97,242.868,308.505z"/>
<path style="fill:#4FBF9F;" d="M268.862,286.45c6.302-22.055,20.48-40.96,39.385-53.563c9.452,5.514,18.905,8.665,29.145,11.028
	s20.48,3.151,29.932,3.151c20.48,0,38.597-4.726,55.138-14.178c18.905,13.391,33.083,32.295,39.385,53.563H268.862z"/>
<path style="fill:#FBBD5E;" d="M427.976,125.76c0,0-5.514,77.982-81.132,60.652c0,0-35.446-5.514-39.385-47.262l-3.151-11.815
	l-9.452-59.865l40.172-27.569l64.591-3.151l30.72,22.843v48.049L427.976,125.76z"/>
<path style="fill:#183651;" d="M367.323,197.44c-7.089,0-14.178-0.788-22.055-2.363c-13.391-2.363-41.748-15.754-45.686-53.563
	l-3.151-11.028v-0.788l-8.665-60.652c-0.788-3.151,0.788-6.302,3.151-7.877l40.172-28.357c1.575-0.788,2.363-1.575,3.938-1.575
	l64.591-3.151c1.575,0,3.938,0.788,4.726,1.575l30.72,22.843c2.363,2.363,3.151,4.726,3.151,7.089v48.049v0.788l-2.363,18.117
	C434.277,150.967,417.736,197.44,367.323,197.44z M312.185,125.76l3.151,11.028c0,0.788,0,0.788,0,1.575
	c3.151,34.658,31.508,40.172,33.083,40.172c7.089,1.575,13.391,2.363,18.905,2.363c48.049,0,52.775-53.563,52.775-55.926
	l2.363-18.117V63.533l-25.206-18.905l-59.865,2.363L303.52,71.41L312.185,125.76z"/>
<path style="fill:#E0E4E8;" d="M304.308,127.336c0,0,3.151-11.815-11.028-19.692c0,0-25.994-66.954,35.446-86.646
	c0,0-4.726-5.514-3.151-12.603c0,0,8.665,5.514,51.988,3.151c0,0,28.357,2.363,36.234,25.994c0,0,44.111,0,24.418,69.317
	c0,0-11.028,6.302-10.24,19.692c0,0,9.452-74.831-28.357-66.166c0,0-33.871,16.542-58.289-6.302
	C342.117,52.505,297.219,50.142,304.308,127.336z"/>
<path style="fill:#183651;" d="M304.308,135.213L304.308,135.213c-4.726,0-7.877-3.151-7.877-7.089c0-2.363-0.788-4.726-0.788-7.089
	c-0.788-2.363-3.151-4.726-6.302-6.302c-1.575-0.788-3.151-2.363-3.151-3.938c-0.788-1.575-13.391-35.446,0.788-64.591
	c6.302-13.391,16.542-22.843,31.508-29.932c-0.788-3.151-0.788-6.302-0.788-9.452c0-2.363,2.363-4.726,4.726-6.302
	c2.363-0.788,5.514-0.788,7.877,0.788c-0.788,0,6.302,2.363,28.357,2.363c5.514,0,11.815,0,18.905-0.788h0.788
	c1.575,0,29.932,3.151,40.96,26.782c6.302,1.575,15.754,4.726,22.843,14.178c10.24,14.178,11.815,35.446,3.151,64.591
	c-0.788,2.363-1.575,3.938-3.938,4.726l0,0c0,0-3.938,2.363-5.514,7.089c0,3.938-0.788,6.302-0.788,6.302
	c-0.788,3.938-3.938,7.089-7.877,7.089c-3.938,0-7.089-3.151-7.877-7.089c0-2.363,0-5.514,0.788-7.877
	c1.575-22.843-1.575-41.748-7.877-48.049c-2.363-3.151-5.514-3.938-10.24-3.151c-3.151,1.575-14.966,6.302-29.145,6.302
	c-13.391,0-25.206-3.938-34.658-11.815c-3.151,0.788-9.452,2.363-14.966,7.877c-8.665,9.452-13.391,26.782-12.603,49.625
	c1.575,5.514,0.788,10.24,0,11.028C311.397,132.85,308.246,135.213,304.308,135.213z M336.603,18.634
	c0.788,1.575,0.788,3.151,0,4.726c-0.788,2.363-2.363,4.726-5.514,5.514c-14.966,4.726-25.206,13.391-30.72,24.418
	c-6.302,13.391-5.514,28.357-3.151,38.597c2.363-14.178,7.089-25.994,14.966-33.871C324,45.416,338.966,44.628,341.329,44.628
	s4.726,0.788,5.514,2.363c7.089,7.089,15.754,10.24,25.994,10.24c12.603,0,22.843-4.726,22.843-4.726
	c1.575-0.788,2.363-0.788,3.151-0.788c10.24-2.363,19.692,0.788,25.994,7.089c5.514,6.302,8.665,14.966,10.24,23.631
	c1.575-12.603-0.788-22.843-5.514-29.145c-6.302-8.665-15.754-8.665-15.754-8.665c-3.151,0-6.302-2.363-7.089-5.514
	c-5.514-16.542-25.994-19.692-29.145-20.48C357.083,20.21,344.48,20.21,336.603,18.634z"/>
<path style="fill:#FFFFFF;" d="M8.136,316.382h261.514c0-52.775-30.72-97.674-75.618-118.942
	c-12.603,11.815-29.932,19.692-53.563,19.692c-7.877,0-15.754-0.788-24.418-3.151c-8.665-1.575-22.055-6.302-33.083-16.542
	C38.856,218.708,8.136,263.607,8.136,316.382z"/>
<path style="fill:#183651;" d="M269.649,324.259H8.136c-4.726,0-7.877-3.151-7.877-7.877c0-53.563,31.508-102.4,79.557-125.243
	c3.151-1.575,6.302-0.788,8.665,1.575c12.603,11.028,25.206,14.178,29.145,14.966c8.665,1.575,15.754,2.363,22.843,2.363
	c18.905,0,35.446-6.302,48.049-17.329c2.363-2.363,5.514-2.363,8.665-1.575c48.837,22.843,80.345,71.68,80.345,126.031
	C277.526,320.32,274.376,324.259,269.649,324.259z M16.013,308.505h244.972c-3.151-42.535-28.357-81.92-66.166-101.612
	c-20.48,17.329-48.837,22.055-80.345,14.966c-5.514-0.788-18.905-3.938-32.295-14.966C44.369,227.373,19.163,265.97,16.013,308.505z
	"/>
<path style="fill:#4FBF9F;" d="M42.006,286.45c6.302-22.055,20.48-40.96,39.385-53.563c9.452,5.514,18.905,8.665,29.145,11.028
	s20.48,3.151,29.932,3.151c20.48,0,38.597-4.726,55.138-14.178c18.905,13.391,33.083,32.295,39.385,53.563H42.006z"/>
<path style="fill:#FBBD5E;" d="M201.908,125.76c0,0-5.514,77.982-81.132,60.652c0,0-35.446-5.514-39.385-47.262l-3.151-11.815
	L68,68.259l40.172-28.357l64.591-3.151l30.72,22.843v48.049L201.908,125.76z"/>
<path style="fill:#183651;" d="M140.468,197.44c-7.089,0-14.178-0.788-22.055-2.363c-13.391-2.363-41.748-15.754-45.686-53.563
	l-3.151-11.028v-0.788l-8.665-60.652c-0.788-3.151,0.788-6.302,3.151-7.877l40.172-28.357c1.575-0.788,2.363-1.575,3.938-1.575
	l64.591-3.151c1.575,0,3.938,0.788,4.726,1.575l30.72,22.843c2.363,1.575,3.151,3.938,3.151,6.302v48.049v0.788l-2.363,18.905
	C207.422,150.967,190.88,197.44,140.468,197.44z M85.329,125.76l3.151,11.028c0,0.788,0,0.788,0,1.575
	c3.151,35.446,32.295,40.172,33.083,40.172c7.089,1.575,13.391,2.363,18.905,2.363c48.049,0,52.775-53.563,52.775-55.926
	l2.363-18.117V63.533L170.4,44.628l-59.865,2.363L76.665,71.41L85.329,125.76z"/>
<path style="fill:#E0E4E8;" d="M77.453,127.336c0,0,3.151-11.815-11.028-19.692c0,0-25.994-66.954,35.446-86.646
	c0,0-4.726-5.514-3.151-12.603c0,0,8.665,5.514,51.988,3.151c0,0,28.357,2.363,36.234,25.994c0,0,44.111,0,24.418,69.317
	c0,0-11.028,6.302-10.24,19.692c0,0,9.452-74.831-28.357-66.166c0,0-33.871,16.542-58.289-6.302
	C115.262,52.505,70.363,50.142,77.453,127.336z"/>
<g>
	<path style="fill:#183651;" d="M77.453,135.213L77.453,135.213c-4.726,0-7.877-3.151-7.877-7.089c0-2.363-0.788-4.726-0.788-7.089
		c-0.788-2.363-3.151-4.726-6.302-6.302c-1.575-0.788-3.151-2.363-3.151-3.938c-0.788-1.575-13.391-35.446,0-64.591
		c6.302-13.391,16.542-22.843,31.508-29.932c0-2.363-0.788-5.514,0-8.665c0-2.363,2.363-4.726,4.726-6.302
		c2.363-0.788,5.514-0.788,7.877,0.788c0,0,6.302,2.363,28.357,2.363c5.514,0,11.815,0,18.905-0.788h0.788
		c1.575,0,29.932,3.151,40.96,26.782c6.302,1.575,15.754,4.726,22.843,14.178c10.24,14.178,11.815,35.446,3.151,64.591
		c-0.788,2.363-1.575,3.938-3.938,4.726l0,0c0,0-3.938,2.363-5.514,7.089c0,3.938-0.788,6.302-0.788,6.302
		c-0.788,3.938-3.938,7.089-7.877,7.089s-7.089-3.151-7.877-7.089c0-2.363,0-5.514,0.788-7.877
		c1.575-22.843-1.575-41.748-7.877-48.049c-2.363-3.151-6.302-3.938-10.24-3.151c-3.151,1.575-14.966,6.302-29.145,6.302
		c-13.391,0-25.206-3.938-34.658-11.815c-3.151,0.788-9.452,2.363-14.966,7.877c-8.665,9.452-13.391,26.782-12.603,49.625
		c1.575,5.514,0.788,10.24,0,11.028C84.542,132.85,81.391,135.213,77.453,135.213z M109.748,18.634c0.788,1.575,0.788,3.151,0,4.726
		c-0.788,2.363-3.151,4.726-5.514,5.514C89.268,33.6,79.028,42.265,73.514,53.293C67.213,66.684,68,81.65,70.363,91.89
		c2.363-14.178,7.089-25.994,14.966-33.871c11.815-12.603,26.782-13.391,29.145-13.391c2.363,0,4.726,0.788,5.514,2.363
		c7.089,7.089,15.754,10.24,25.994,10.24c12.603,0,22.843-4.726,22.843-4.726c1.575-0.788,2.363-0.788,3.151-0.788
		c10.24-2.363,19.692,0.788,25.994,7.089c5.514,6.302,8.665,14.966,10.24,23.631c1.575-12.603-0.788-22.843-5.514-29.145
		c-6.302-8.665-15.754-8.665-15.754-8.665c-3.151,0-6.302-2.363-7.089-5.514c-5.514-15.754-25.994-18.905-29.145-19.692
		C130.228,20.21,117.625,20.21,109.748,18.634z"/>
	<rect x="449.243" y="373.884" style="fill:#183651;" width="15.754" height="15.754"/>
	<rect x="449.243" y="410.117" style="fill:#183651;" width="15.754" height="15.754"/>
	<rect x="449.243" y="447.139" style="fill:#183651;" width="15.754" height="15.754"/>
	<rect x="39.643" y="373.884" style="fill:#183651;" width="15.754" height="15.754"/>
	<rect x="39.643" y="410.117" style="fill:#183651;" width="15.754" height="15.754"/>
	<rect x="39.643" y="447.139" style="fill:#183651;" width="15.754" height="15.754"/>
</g>
<path style="fill:#FFFFFF;" d="M112.899,496.764h278.843c0-55.926-33.083-103.975-80.345-126.031
	C298.006,383.336,279.889,392,254.683,392c-7.877,0-17.329-0.788-25.994-3.151c-9.452-1.575-22.843-7.089-35.446-18.117
	C145.982,392.788,112.899,440.837,112.899,496.764z"/>
<path style="fill:#183651;" d="M391.742,504.64H112.899c-4.726,0-7.877-3.151-7.877-7.877c0-56.714,33.083-108.702,84.283-133.12
	c3.151-1.575,6.302-0.788,8.665,1.575c13.391,11.815,27.569,14.966,31.508,15.754c32.295,7.089,57.502,1.575,75.618-15.754
	c2.363-2.363,5.514-2.363,8.665-1.575c51.988,24.418,85.071,76.406,85.071,133.12C399.619,501.49,395.68,504.64,391.742,504.64z
	 M120.776,488.887h262.302c-3.151-46.474-29.932-88.222-71.68-108.702c-22.055,18.117-51.2,23.631-85.858,16.542
	c-5.514-0.788-19.692-4.726-34.658-15.754C150.708,401.453,123.926,443.2,120.776,488.887z"/>
<path style="fill:#F06151;" d="M149.133,465.256c7.089-22.843,22.055-43.323,41.748-57.502c10.24,5.514,20.48,9.452,30.72,11.815
	c11.028,2.363,22.055,3.938,32.295,3.938c21.268,0,41.748-5.514,59.077-14.966c20.48,14.178,35.446,33.871,42.535,57.502H149.133
	V465.256z"/>
<path style="fill:#FBBD5E;" d="M319.274,293.539c0,0-6.302,83.495-85.858,64.591c0,0-37.809-5.514-41.748-50.412l-4.726-11.815
	l-9.452-63.803l42.535-29.932l68.529-3.151l33.083,24.418v51.2L319.274,293.539z"/>
<path style="fill:#183651;" d="M254.683,369.157c-7.089,0-14.966-0.788-23.631-3.151c-14.178-2.363-44.111-17.329-48.049-56.714
	l-3.938-11.815v-0.788l-9.452-63.015c-0.788-3.151,0.788-6.302,3.151-7.877l42.535-29.932c1.575-0.788,2.363-1.575,3.938-1.575
	l68.529-3.151c1.575,0,3.938,0.788,4.726,1.575l33.083,24.418c2.363,1.575,3.151,3.938,3.151,6.302v51.2v0.788l-1.575,19.692
	C324.788,320.32,307.459,369.157,254.683,369.157z M194.819,294.327l3.938,11.815c0,0.788,0,0.788,0,1.575
	c3.938,37.809,34.658,43.323,35.446,43.323c7.877,1.575,14.178,2.363,20.48,2.363c51.2,0,56.714-57.502,56.714-60.652l2.363-19.692
	v-46.474l-27.569-20.48l-63.803,3.151l-37.022,26.782L194.819,294.327z"/>
<path style="fill:#E0E4E8;" d="M186.942,295.902c0,0,3.151-12.603-11.815-20.48c0,0-27.569-70.892,37.809-92.16
	c0,0-4.726-5.514-3.151-13.391c0,0,9.452,5.514,55.138,3.151c0,0,30.72,3.151,38.597,27.569c0,0,47.262,0,25.994,73.255
	c0,0-11.815,6.302-11.028,20.48c0,0,10.24-79.557-29.932-70.892c0,0-36.234,17.329-62.228-7.089
	C227.114,216.345,179.065,213.982,186.942,295.902z"/>
<path style="fill:#183651;" d="M186.942,303.779L186.942,303.779c-4.726,0-7.877-3.151-7.877-7.089c0-2.363-0.788-4.726-0.788-7.877
	c-1.575-2.363-3.938-4.726-7.089-7.089c-1.575-0.788-3.151-2.363-3.151-3.938c-0.788-1.575-14.178-37.809,0.788-67.742
	c6.302-14.178,18.117-24.418,33.871-31.508c-0.788-3.151-1.575-6.302-0.788-10.24c0-2.363,2.363-4.726,4.726-6.302
	c2.363-0.788,5.514-0.788,7.877,0.788c0,0,6.302,3.151,30.72,3.151c6.302,0,12.603,0,20.48-0.788h0.788
	c1.575,0,31.508,3.151,44.111,28.357c6.302,1.575,16.542,4.726,24.418,14.966c11.028,14.966,12.603,37.809,3.938,67.742
	c-0.788,2.363-1.575,3.938-3.938,4.726l0,0c0,0-4.726,3.151-6.302,7.877c0,3.938-0.788,6.302-0.788,6.302
	c-0.788,3.938-3.938,7.089-7.877,7.089c-3.938,0-7.089-3.151-7.877-7.089c0-3.151,0-5.514,0.788-8.665
	c1.575-25.206-1.575-44.111-8.665-51.988c-3.151-3.151-6.302-3.938-11.815-3.151c-3.938,1.575-15.754,6.302-30.72,6.302
	c-14.178,0-26.782-4.726-36.234-12.603c-3.938,0.788-11.028,2.363-16.542,8.665c-9.452,10.24-14.178,28.357-13.391,52.775
	c1.575,6.302,0.788,11.028,0.788,11.815C194.031,301.416,190.88,303.779,186.942,303.779z M220.025,179.324
	c0.788,1.575,0.788,3.938,0,5.514c-0.788,2.363-2.363,4.726-4.726,5.514c-15.754,5.514-26.782,14.178-33.083,26.782
	c-7.089,15.754-5.514,33.083-3.151,44.111c2.363-16.542,7.877-29.932,16.542-38.597c12.603-13.391,27.569-14.178,30.72-14.178
	c2.363,0,4.726,0.788,5.514,2.363c7.089,7.089,17.329,11.028,28.357,11.028c13.391,0,24.418-5.514,24.418-5.514
	c0.788,0,0.788-0.788,1.575-0.788c11.028-2.363,20.48,0.788,27.569,7.877c6.302,7.089,10.24,17.329,11.815,28.357
	c2.363-15.754,0-27.569-5.514-34.658c-7.089-8.665-17.329-9.452-17.329-9.452c-3.151,0-6.302-2.363-7.089-5.514
	c-6.302-18.117-28.357-22.055-31.508-22.055c-7.089,0-14.178,0.788-20.48,0.788C233.416,180.899,225.539,180.111,220.025,179.324z"
	/>
<g>
</g>
<g>
</g>
<g>
</g>
<g>
</g>
<g>
</g>
<g>
</g>
<g>
</g>
<g>
</g>
<g>
</g>
<g>
</g>
<g>
</g>
<g>
</g>
<g>
</g>
<g>
</g>
<g>
</g>
</svg>
