<?xml version="1.0" encoding="iso-8859-1"?>
<!-- Generator: Adobe Illustrator 19.0.0, SVG Export Plug-In . SVG Version: 6.00 Build 0)  -->
<svg version="1.1" id="Capa_1" xmlns="http://www.w3.org/2000/svg" xmlns:xlink="http://www.w3.org/1999/xlink" x="0px" y="0px"
	 viewBox="0 0 504.517 504.517" style="enable-background:new 0 0 504.517 504.517;" xml:space="preserve">
<circle style="fill:#E0E4E8;" cx="252.062" cy="252.258" r="252.062"/>
<path style="fill:#FFFFFF;" d="M419.052,256.197h-92.16c-4.726,0-9.452-2.363-11.815-6.302c-3.151-3.938-3.938-8.665-2.363-13.391
	l36.234-133.908c1.575-6.302,7.877-11.028,14.966-11.028h55.926c20.48,0,37.809,17.329,37.809,37.809v89.009
	C456.862,239.655,440.32,256.197,419.052,256.197z M346.585,225.477h72.468c3.938,0,7.089-3.151,7.089-7.089v-89.009
	c0-3.938-3.151-7.089-7.089-7.089h-44.111L346.585,225.477z"/>
<path style="fill:#183651;" d="M419.052,264.074h-92.16c-7.089,0-14.178-3.151-18.117-9.452c-4.726-5.514-5.514-13.391-3.938-20.48
	l36.234-133.908c2.363-10.24,11.815-17.329,22.055-17.329h55.926c25.206,0,45.686,20.48,45.686,45.686V217.6
	C464.738,243.594,444.258,264.074,419.052,264.074z M363.126,99.446c-3.151,0-6.302,2.363-7.089,5.514l-36.234,133.908
	c-0.788,2.363,0,4.726,1.575,6.302c1.575,1.575,3.938,3.151,6.302,3.151h92.16c16.542,0,29.932-13.391,29.932-29.932v-89.009
	c0-16.542-13.391-29.932-29.932-29.932C419.84,99.446,363.126,99.446,363.126,99.446z M419.052,233.354h-72.468
	c-2.363,0-4.726-0.788-6.302-3.151c-1.575-1.575-2.363-4.726-1.575-7.089l27.569-103.188c0.788-3.151,3.938-5.514,7.877-5.514
	h44.111c8.665,0,14.966,7.089,14.966,14.966v89.009C434.018,227.052,427.717,233.354,419.052,233.354z M356.825,217.6h61.44v-87.434
	h-37.809L356.825,217.6z"/>
<path style="fill:#4FBF9F;" d="M496.246,368.837H27.569c-25.206,38.597-25.206,88.222,0,126.818h468.677
	C471.04,457.846,471.04,407.434,496.246,368.837z"/>
<path style="fill:#183651;" d="M496.246,504.32H27.569c-2.363,0-5.514-1.575-6.302-3.938c-26.782-40.96-26.782-94.523,0-135.483
	c1.575-2.363,3.938-3.938,6.302-3.938h468.677c3.151,0,5.514,1.575,7.089,3.938c1.575,2.363,1.575,5.514,0,7.877
	c-23.631,36.234-23.631,82.708,0,118.154c1.575,2.363,1.575,5.514,0,7.877C501.76,502.745,499.397,504.32,496.246,504.32z
	 M31.508,488.566h451.348c-17.329-34.658-17.329-76.406,0-111.065H31.508C11.028,411.372,11.028,453.908,31.508,488.566z"/>
<path style="fill:#FFFFFF;" d="M46.474,464.935c-8.665-20.48-8.665-43.323,0-63.803h403.298c-4.726,21.268-4.726,43.323,0,63.803
	H46.474z"/>
<g>
	<rect x="215.828" y="424.763" style="fill:#183651;" width="261.514" height="15.754"/>
	<rect x="80.345" y="424.763" style="fill:#183651;" width="15.754" height="15.754"/>
	<rect x="121.305" y="424.763" style="fill:#183651;" width="15.754" height="15.754"/>
	<rect x="161.477" y="424.763" style="fill:#183651;" width="15.754" height="15.754"/>
</g>
<path style="fill:#FFFFFF;" d="M155.963,329.452h163.052c37.022-25.994,60.652-68.529,60.652-116.578V71.089H95.311v141.785
	C95.311,260.923,118.942,303.458,155.963,329.452z"/>
<path style="fill:#183651;" d="M319.015,337.329H155.963c-1.575,0-3.151-0.788-4.726-1.575
	c-40.172-28.357-64.591-74.043-64.591-122.88V71.089c0-4.726,3.151-7.877,7.877-7.877h285.145c4.726,0,7.877,3.151,7.877,7.877
	v141.785c0,48.837-24.418,95.311-64.591,122.88C322.166,336.542,320.591,337.329,319.015,337.329z M158.326,321.575h157.538
	c34.658-25.206,55.926-66.166,55.926-108.702V78.966H103.188v133.908C103.188,255.409,123.668,296.369,158.326,321.575z"/>
<path style="fill:#FBBD5E;" d="M166.991,297.945c-25.206-21.268-40.172-51.988-40.172-85.071V102.597h222.129v110.277
	c0,33.083-14.966,64.591-40.172,85.071H166.991z"/>
<rect x="81.132" y="329.452" style="fill:#FFFFFF;" width="313.502" height="40.172"/>
<g>
	<path style="fill:#183651;" d="M394.634,376.714H81.132c-4.726,0-7.877-3.151-7.877-7.877v-40.172c0-4.726,3.151-7.877,7.877-7.877
		h313.502c4.726,0,7.877,3.151,7.877,7.877v40.172C402.511,373.563,398.572,376.714,394.634,376.714z M89.009,360.96h297.748
		v-24.418H89.009V360.96z"/>
	<rect x="178.806" y="134.105" style="fill:#183651;" width="15.754" height="15.754"/>
	<rect x="230.006" y="134.105" style="fill:#183651;" width="15.754" height="15.754"/>
	<rect x="281.206" y="134.105" style="fill:#183651;" width="15.754" height="15.754"/>
	<rect x="178.806" y="180.578" style="fill:#183651;" width="15.754" height="15.754"/>
	<rect x="230.006" y="180.578" style="fill:#183651;" width="15.754" height="15.754"/>
	<rect x="281.206" y="180.578" style="fill:#183651;" width="15.754" height="15.754"/>
</g>
<g>
</g>
<g>
</g>
<g>
</g>
<g>
</g>
<g>
</g>
<g>
</g>
<g>
</g>
<g>
</g>
<g>
</g>
<g>
</g>
<g>
</g>
<g>
</g>
<g>
</g>
<g>
</g>
<g>
</g>
</svg>
