<?xml version="1.0" encoding="iso-8859-1"?>
<!-- Generator: Adobe Illustrator 19.0.0, SVG Export Plug-In . SVG Version: 6.00 Build 0)  -->
<svg version="1.1" id="Capa_1" xmlns="http://www.w3.org/2000/svg" xmlns:xlink="http://www.w3.org/1999/xlink" x="0px" y="0px"
	 viewBox="0 0 504.123 504.123" style="enable-background:new 0 0 504.123 504.123;" xml:space="preserve">
<circle style="fill:#2CA0DA;" cx="252.062" cy="252.062" r="252.062"/>
<g>
	<rect x="248.911" y="432.443" style="fill:#183651;" width="15.754" height="15.754"/>
	<rect x="248.911" y="379.668" style="fill:#183651;" width="15.754" height="15.754"/>
	<rect x="248.911" y="326.105" style="fill:#183651;" width="15.754" height="15.754"/>
	<rect x="196.135" y="456.862" style="fill:#183651;" width="15.754" height="15.754"/>
	<rect x="196.135" y="403.298" style="fill:#183651;" width="15.754" height="15.754"/>
	<rect x="196.135" y="349.735" style="fill:#183651;" width="15.754" height="15.754"/>
	<rect x="143.36" y="432.443" style="fill:#183651;" width="15.754" height="15.754"/>
	<rect x="143.36" y="379.668" style="fill:#183651;" width="15.754" height="15.754"/>
	<rect x="143.36" y="326.105" style="fill:#183651;" width="15.754" height="15.754"/>
</g>
<path style="fill:#E1E6E7;" d="M428.505,179.594c-4.726,0-8.665,0.788-13.391,1.575c2.363-7.089,3.151-14.966,3.151-22.843
	c0-49.625-44.111-89.797-98.462-89.797c-45.686,0-84.283,28.357-95.311,66.954c-10.24-15.754-29.145-26.782-50.412-26.782
	c-32.295,0-58.289,23.631-58.289,52.775c0,6.302,1.575,13.391,3.938,18.905c-34.658,2.363-63.015,28.357-63.015,60.652
	c0,33.871,29.932,61.44,67.742,61.44h304.837c37.022,0,67.742-27.569,67.742-61.44S466.314,179.594,428.505,179.594z"/>
<path style="fill:#183651;" d="M428.505,309.563H124.455c-41.748,0-75.618-30.72-75.618-69.317
	c0-33.083,25.994-60.652,59.865-67.742c-0.788-3.938-1.575-7.877-1.575-12.603c0-33.871,29.932-60.652,66.166-60.652
	c18.117,0,36.234,7.089,48.049,18.905c16.542-35.446,55.138-59.077,97.674-59.077c59.077,0,106.338,43.323,106.338,97.674
	c0,4.726-0.788,9.452-1.575,14.178c42.535-1.575,77.982,29.932,77.982,68.529C504.123,278.055,470.252,309.563,428.505,309.563z
	 M174.08,115.791c-27.569,0-50.412,20.48-50.412,44.898c0,5.514,0.788,11.028,3.151,15.754c0.788,2.363,0.788,4.726-0.788,7.089
	c-1.575,2.363-3.938,3.938-6.302,3.938c-30.72,1.575-55.138,25.206-55.138,52.775c0,29.145,26.782,53.563,59.865,53.563h304.837
	c33.083,0,59.865-23.631,59.865-53.563c0-29.145-26.782-53.563-59.865-53.563c-3.938,0-7.877,0-11.815,0.788
	c-2.363,0.788-5.514-0.788-7.089-2.363c-1.575-2.363-2.363-4.726-1.575-7.089c2.363-7.089,3.151-14.178,3.151-21.268
	c0-44.898-40.96-81.92-90.585-81.92c-40.96,0-77.194,25.206-88.222,60.652c-0.788,3.151-3.151,5.514-6.302,5.514
	c-3.151,0.788-6.302-0.788-7.877-3.938C209.526,124.455,192.197,115.791,174.08,115.791z"/>
<path style="fill:#FFFFFF;" d="M489.945,215.04c-10.24-21.268-33.871-36.234-61.44-36.234c-4.726,0-8.665,0.788-13.391,1.575
	c2.363-7.089,3.151-14.966,3.151-22.843c0-49.625-44.111-89.797-98.462-89.797c-45.686,0-84.283,28.357-95.311,66.954
	c-10.24-15.754-29.145-26.782-50.412-26.782c-32.295,0-58.289,23.631-58.289,52.775c0,6.302,1.575,13.391,3.938,18.905
	c-25.206,1.575-46.474,15.754-56.714,35.446"/>
<path style="fill:#183651;" d="M63.015,222.917c-1.575,0-2.363,0-3.151-0.788c-3.938-1.575-5.514-6.302-3.151-10.24
	c10.24-20.48,29.932-34.658,53.563-38.597c-0.788-3.938-1.575-7.877-1.575-12.603c0-33.871,29.932-60.652,66.166-60.652
	c18.117,0,36.234,7.089,48.049,18.905c16.542-35.446,55.138-59.077,97.674-59.077c59.077,0,106.338,43.323,106.338,97.674
	c0,4.726-0.788,9.452-1.575,14.178c29.932-0.788,59.077,14.966,71.68,40.172c1.575,3.938,0,8.665-3.151,10.24
	c-3.938,1.575-8.665,0-10.24-3.151c-11.028-22.055-38.597-35.446-66.166-30.72c-2.363,0.788-5.514-0.788-7.089-2.363
	c-1.575-2.363-2.363-4.726-1.575-7.877c2.363-7.089,3.151-14.178,3.151-21.268c0-44.898-40.96-81.92-90.585-81.92
	c-40.96,0-77.194,25.206-88.222,60.652c-0.788,3.151-3.151,5.514-6.302,5.514c-3.151,0.788-6.302-0.788-7.877-3.938
	c-8.665-14.178-25.994-22.843-44.111-22.843c-27.569,0-50.412,20.48-50.412,44.898c0,5.514,0.788,11.028,3.151,15.754
	c0.788,2.363,0.788,4.726-0.788,7.089c-1.575,2.363-3.938,3.938-6.302,3.938c-22.055,1.575-40.96,13.391-50.412,31.508
	C68.529,221.342,66.166,222.917,63.015,222.917z"/>
<path style="fill:#E1E6E7;" d="M119.729,179.594c-2.363-5.514-3.938-12.603-3.938-18.905c0-29.145,25.994-52.775,58.289-52.775
	c22.055,0,40.96,11.028,50.412,26.782c11.028-38.597,49.625-66.954,95.311-66.954c17.329,0,33.871,3.938,48.049,11.815
	c-9.452-40.96-48.837-70.892-96.886-70.892c-45.686,0-84.283,28.357-95.311,66.954c-10.24-15.754-29.145-26.782-50.412-26.782
	c-32.295,0-58.289,23.631-58.289,52.775c0,6.302,1.575,13.391,3.938,18.905c-34.658,2.363-63.015,28.357-63.015,60.652
	c0,27.569,20.48,51.2,48.837,58.289C57.502,207.163,85.071,181.957,119.729,179.594z"/>
<path style="fill:#183651;" d="M56.714,247.335c-0.788,0-1.575,0-2.363,0C22.055,238.671,0,211.889,0,181.169
	c0-33.083,25.994-60.652,59.865-67.742c-0.788-3.938-1.575-7.877-1.575-12.603c0-33.871,29.932-60.652,66.166-60.652
	c18.117,0,36.234,7.089,48.049,18.905C189.046,23.631,227.643,0,270.178,0c49.625,0,92.948,31.508,103.975,75.618
	c0.788,0.788,0.788,2.363,0.788,3.151c0,4.726-3.151,7.877-7.877,7.877l0,0c-1.575,0-2.363,0-3.938-0.788
	c-13.391-7.089-29.145-10.24-44.898-10.24c-40.96,0-77.194,25.206-88.222,60.652c-0.788,3.151-3.151,5.514-6.302,5.514
	c-3.151,0.788-6.302-0.788-7.877-3.938c-8.665-14.178-25.994-22.843-44.111-22.843c-27.569,0-50.412,20.48-50.412,44.898
	c0,5.514,0.788,11.028,3.151,15.754c0.788,2.363,0.788,4.726-0.788,7.089c-1.575,2.363-3.938,3.938-6.302,3.938
	c-30.72,1.575-55.138,24.418-55.138,51.988c0,2.363-1.575,4.726-3.151,6.302C60.652,246.548,59.077,247.335,56.714,247.335z
	 M126.031,55.926c-27.569,0-50.412,20.48-50.412,44.898c0,5.514,0.788,11.028,3.151,15.754c0.788,2.363,0.788,4.726-0.788,7.089
	c-1.575,2.363-3.938,3.938-6.302,3.938c-30.72,1.575-55.138,25.206-55.138,52.775c0,20.48,13.391,39.385,33.871,48.049
	c5.514-28.357,28.357-50.412,59.077-55.926c-0.788-3.938-1.575-7.877-1.575-12.603c0-33.871,29.932-60.652,66.166-60.652
	c18.117,0,36.234,7.089,48.049,18.905c16.542-35.446,55.138-59.077,97.674-59.077c11.815,0,23.631,1.575,35.446,5.514
	c-14.178-28.357-46.474-48.837-83.495-48.837c-40.96,0-77.194,25.206-88.222,60.652c-0.788,3.151-3.151,5.514-6.302,5.514
	c-3.151,0.788-6.302-0.788-7.877-3.938C160.689,64.591,144.148,55.926,126.031,55.926z"/>
<polygon style="fill:#FFFFFF;" points="358.4,352.098 319.015,404.086 341.071,404.086 341.071,455.286 374.942,455.286 
	374.942,404.086 397.785,404.086 "/>
<path style="fill:#183651;" d="M374.942,463.163h-33.871c-4.726,0-7.877-3.151-7.877-7.877v-43.323h-14.178
	c-3.151,0-5.514-1.575-7.089-4.726c-1.575-2.363-0.788-5.514,0.788-7.877l39.385-51.988c1.575-1.575,3.938-3.151,6.302-3.151l0,0
	c2.363,0,4.726,0.788,6.302,3.151l39.385,51.988c1.575,2.363,2.363,5.514,0.788,7.877c-1.575,2.363-3.938,4.726-7.089,4.726h-14.178
	v43.323C382.818,460.012,379.668,463.163,374.942,463.163z M348.948,448.197h18.117v-43.323c0-4.726,3.151-7.877,7.877-7.877h6.302
	l-23.631-30.72l-23.631,30.72h6.302c4.726,0,7.877,3.151,7.877,7.877v43.323H348.948z"/>
<polygon style="fill:#FFFFFF;" points="358.4,210.314 319.015,262.302 341.071,262.302 341.071,314.289 374.942,314.289 
	374.942,262.302 397.785,262.302 "/>
<path style="fill:#183651;" d="M374.942,322.166h-33.871c-4.726,0-7.877-3.151-7.877-7.877v-43.323h-14.178
	c-3.151,0-5.514-1.575-7.089-4.726c-1.575-2.363-0.788-5.514,0.788-7.877l39.385-51.988c1.575-1.575,3.938-3.151,6.302-3.151l0,0
	c2.363,0,4.726,0.788,6.302,3.151l39.385,51.988c1.575,2.363,2.363,5.514,0.788,7.877c-1.575,2.363-3.938,4.726-7.089,4.726h-14.178
	v43.323C382.818,318.228,379.668,322.166,374.942,322.166z M348.948,306.412h18.117v-43.323c0-4.726,3.151-7.877,7.877-7.877h6.302
	l-23.631-30.72l-23.631,30.72h6.302c4.726,0,7.877,3.151,7.877,7.877v43.323H348.948z"/>
<g>
</g>
<g>
</g>
<g>
</g>
<g>
</g>
<g>
</g>
<g>
</g>
<g>
</g>
<g>
</g>
<g>
</g>
<g>
</g>
<g>
</g>
<g>
</g>
<g>
</g>
<g>
</g>
<g>
</g>
</svg>
