<?xml version="1.0" encoding="iso-8859-1"?>
<!-- Generator: Adobe Illustrator 19.0.0, SVG Export Plug-In . SVG Version: 6.00 Build 0)  -->
<svg version="1.1" id="Capa_1" xmlns="http://www.w3.org/2000/svg" xmlns:xlink="http://www.w3.org/1999/xlink" x="0px" y="0px"
	 viewBox="0 0 504.123 504.123" style="enable-background:new 0 0 504.123 504.123;" xml:space="preserve">
<path style="fill:#FFFFFF;" d="M496.246,428.111H7.877v14.966c0,29.145,23.631,52.775,52.775,52.775h382.818
	c29.145,0,52.775-23.631,52.775-52.775V428.111z"/>
<path style="fill:#183651;" d="M443.471,503.729H60.652C27.569,503.729,0,476.948,0,443.077v-14.966
	c0-4.726,3.151-7.877,7.877-7.877h488.369c4.726,0,7.877,3.151,7.877,7.877v14.966C504.123,476.948,477.342,503.729,443.471,503.729
	z M15.754,435.988v7.089c0,24.418,20.48,44.898,44.898,44.898h382.818c24.418,0,44.898-20.48,44.898-44.898v-7.089H15.754z"/>
<rect x="33.871" y="146.117" style="fill:#FFFFFF;" width="436.382" height="281.994"/>
<path style="fill:#183651;" d="M470.252,435.988H33.871c-4.726,0-7.877-3.151-7.877-7.877V146.117c0-4.726,3.151-7.877,7.877-7.877
	h436.382c4.726,0,7.877,3.151,7.877,7.877v281.994C478.129,432.049,474.191,435.988,470.252,435.988z M41.748,420.234h420.628
	v-266.24H41.748V420.234z"/>
<rect x="65.378" y="177.625" style="fill:#2CA0DA;" width="373.366" height="218.978"/>
<g>
	<rect x="382.031" y="246.154" style="fill:#183651;" width="15.754" height="15.754"/>
	<rect x="382.031" y="290.265" style="fill:#183651;" width="15.754" height="15.754"/>
	<rect x="382.031" y="334.375" style="fill:#183651;" width="15.754" height="15.754"/>
	<rect x="106.338" y="246.154" style="fill:#183651;" width="15.754" height="15.754"/>
	<rect x="106.338" y="290.265" style="fill:#183651;" width="15.754" height="15.754"/>
	<rect x="106.338" y="334.375" style="fill:#183651;" width="15.754" height="15.754"/>
	<rect x="189.046" y="454.105" style="fill:#183651;" width="15.754" height="15.754"/>
	<rect x="244.185" y="454.105" style="fill:#183651;" width="15.754" height="15.754"/>
	<rect x="299.323" y="454.105" style="fill:#183651;" width="15.754" height="15.754"/>
</g>
<path style="fill:#FFFFFF;" d="M354.462,89.403c-6.302,0-11.815,0.788-17.329,3.151c0.788-2.363,0.788-4.726,0.788-7.089
	c0-18.905-15.754-34.658-34.658-34.658c-6.302,0-11.815,1.575-16.542,3.938c-8.665-27.569-34.658-48.049-65.378-48.049
	c-37.809,0-68.529,30.72-68.529,68.529c0,4.726,0.788,9.452,1.575,13.391c-1.575,0-3.151,0-4.726,0
	c-26.782,0-48.049,21.268-48.049,48.049s21.268,48.049,48.049,48.049h204.8c26.782,0,48.049-21.268,48.049-48.049
	C403.298,110.671,381.243,89.403,354.462,89.403z"/>
<path style="fill:#183651;" d="M354.462,194.166h-204.8c-30.72,0-55.926-25.206-55.926-55.926c0-29.932,22.843-53.563,51.988-55.926
	c0-1.575,0-3.938,0-5.514c0-41.748,33.871-76.406,76.406-76.406c30.72,0,57.502,18.117,70.105,45.686
	c3.151-2.363,7.089-3.151,11.028-3.151c22.055,0,40.96,17.329,42.535,39.385c3.151-0.788,5.514-0.788,8.665-0.788
	c30.72,0,55.926,25.206,55.926,55.926S385.969,194.166,354.462,194.166z M149.662,97.28c-22.055,0-40.172,18.117-40.172,40.172
	s18.117,40.172,40.172,40.172h204.8c22.055,0,40.172-18.117,40.172-40.172c0-22.055-18.117-40.172-40.172-40.172
	c-4.726,0-9.452,0.788-14.178,2.363c-2.363,0.788-5.514,0.788-7.877-1.575c-2.363-1.575-3.151-4.726-2.363-7.877
	c0-1.575,0.788-3.151,0.788-5.514c-0.788-13.391-12.603-25.994-27.569-25.994c-4.726,0-8.665,0.788-12.603,3.151
	c-2.363,0.788-4.726,1.575-7.089,0c-2.363-0.788-3.938-2.363-4.726-4.726c-7.877-25.206-31.508-42.535-57.502-42.535
	c-33.083,0-60.652,27.569-60.652,60.652c0,3.938,0.788,7.877,1.575,11.815c0.788,2.363,0,4.726-1.575,7.089
	c-1.575,1.575-3.938,3.151-6.302,2.363C152.025,97.28,150.449,97.28,149.662,97.28z"/>
<path style="fill:#E1E6E7;" d="M401.723,126.425c-4.726-21.268-24.418-37.022-47.262-37.022c-6.302,0-11.815,0.788-17.329,3.151
	c0.788-2.363,0.788-4.726,0.788-7.089c0-18.905-15.754-34.658-34.658-34.658c-6.302,0-11.815,1.575-16.542,3.938
	c-8.665-27.569-34.658-48.049-65.378-48.049c-37.809,0-68.529,30.72-68.529,68.529c0,4.726,0.788,9.452,1.575,13.391
	c-1.575,0-3.151,0-4.726,0c-22.843,0-41.748,15.754-47.262,37.022"/>
<g>
	<path style="fill:#183651;" d="M102.4,134.302c-0.788,0-1.575,0-1.575,0c-3.938-0.788-7.089-5.514-5.514-9.452
		c5.514-23.631,25.994-40.96,50.412-42.535c0-1.575,0-3.938,0-5.514c0-41.748,33.871-76.406,76.406-76.406
		c30.72,0,57.502,18.117,70.105,45.686c3.151-2.363,7.089-3.151,11.028-3.151c22.055,0,40.96,17.329,42.535,39.385
		c3.151-0.788,5.514-0.788,8.665-0.788c25.994,0,48.837,17.329,54.351,43.323c0.788,3.938-1.575,8.665-5.514,9.452
		c-3.938,0.788-8.665-1.575-9.452-5.514c-4.726-18.117-20.48-30.72-39.385-30.72c-4.726,0-9.452,0.788-14.178,2.363
		c-2.363,0.788-5.514,0.788-7.877-1.575c-2.363-1.575-3.151-4.726-2.363-7.877c0-1.575,0.788-3.151,0.788-5.514
		c-0.788-14.178-12.603-26.782-27.569-26.782c-4.726,0-8.665,0.788-12.603,3.151c-2.363,0.788-4.726,1.575-7.089,0
		c-2.363-0.788-3.938-2.363-4.726-4.726c-7.877-25.206-31.508-42.535-57.502-42.535c-33.083,0-60.652,27.569-60.652,60.652
		c0,3.938,0.788,7.877,1.575,11.815c0.788,2.363,0,4.726-1.575,7.089c-1.575,2.363-4.726,3.938-7.089,3.151
		c-1.575,0-2.363,0-3.938,0c-18.905,0-34.658,12.603-39.385,30.72C109.489,131.938,106.338,134.302,102.4,134.302z"/>
	<path style="fill:#183651;" d="M252.062,231.975c-4.726,0-7.877-3.151-7.877-7.877v-76.406c0-4.726,3.151-7.877,7.877-7.877
		s7.877,3.151,7.877,7.877v76.406C259.938,228.825,256.788,231.975,252.062,231.975z"/>
</g>
<path style="fill:#FBBD5E;" d="M229.218,339.102v7.089h46.474v-7.089c0-8.665,3.151-16.542,8.665-22.843
	c11.028-12.603,18.117-30.72,18.117-44.898c0-25.994-22.055-47.262-49.625-47.262s-49.625,21.268-49.625,47.262
	c0,14.178,7.089,32.295,18.117,44.898C225.28,323.348,229.218,331.225,229.218,339.102z"/>
<path style="fill:#FFFFFF;" d="M285.932,271.36c0-17.329-14.966-31.508-33.871-31.508c-18.905,0-33.871,14.178-33.871,31.508
	c0,11.028,5.514,24.418,14.178,34.658c6.302,7.089,10.24,15.754,11.815,24.418v15.754h16.542v-15.754l0,0
	c1.575-8.665,5.514-17.329,11.815-24.418C280.418,296.566,285.932,282.388,285.932,271.36z"/>
<path style="fill:#E1E6E7;" d="M226.068,346.191v24.418c15.754,11.028,37.022,11.028,51.988,0v-24.418H226.068z"/>
<path style="fill:#183651;" d="M276.48,153.994h-49.625c-4.726,0-7.877-3.151-7.877-7.877V96.492c0-4.726,3.151-7.877,7.877-7.877
	h49.625c4.726,0,7.877,3.151,7.877,7.877v49.625C284.357,150.843,281.206,153.994,276.48,153.994z M235.52,138.24h33.871v-33.871
	H235.52L235.52,138.24L235.52,138.24z"/>
<g>
</g>
<g>
</g>
<g>
</g>
<g>
</g>
<g>
</g>
<g>
</g>
<g>
</g>
<g>
</g>
<g>
</g>
<g>
</g>
<g>
</g>
<g>
</g>
<g>
</g>
<g>
</g>
<g>
</g>
</svg>
