<?xml version="1.0" encoding="iso-8859-1"?>
<!-- Generator: Adobe Illustrator 19.0.0, SVG Export Plug-In . SVG Version: 6.00 Build 0)  -->
<svg version="1.1" id="Capa_1" xmlns="http://www.w3.org/2000/svg" xmlns:xlink="http://www.w3.org/1999/xlink" x="0px" y="0px"
	 viewBox="0 0 504.123 504.123" style="enable-background:new 0 0 504.123 504.123;" xml:space="preserve">
<circle style="fill:#F06151;" cx="252.062" cy="251.274" r="251.274"/>
<path style="fill:#FFFFFF;" d="M168.566,248.911c0,29.145-23.631,65.378-53.563,65.378S61.44,278.055,61.44,248.911
	s23.631-53.563,53.563-53.563S168.566,218.978,168.566,248.911z"/>
<path style="fill:#183651;" d="M115.003,322.166c-34.658,0-61.44-39.385-61.44-73.255s27.569-61.44,61.44-61.44
	s61.44,27.569,61.44,61.44C176.443,282.782,149.662,322.166,115.003,322.166z M115.003,203.225
	c-25.206,0-45.686,20.48-45.686,45.686c0,25.994,21.268,57.502,45.686,57.502s45.686-31.508,45.686-57.502
	C160.689,223.705,140.209,203.225,115.003,203.225z"/>
<path style="fill:#FBBD5E;" d="M174.08,337.132L174.08,337.132c-26.782,44.111-91.372,44.111-118.154,0l0,0
	c-27.569,7.877-48.049,33.871-48.049,63.803v95.311h214.252v-95.311C222.129,371.003,202.437,345.797,174.08,337.132z"/>
<path style="fill:#183651;" d="M222.129,504.123H8.665c-4.726,0-7.877-3.151-7.877-7.877v-95.311
	c0-33.083,22.055-62.228,53.563-71.68c3.151-0.788,7.089,0.788,8.665,3.151c11.028,18.905,30.72,29.932,52.775,29.932
	c21.268,0,40.96-11.028,52.775-29.932c1.575-3.151,5.514-4.726,8.665-3.151c31.508,9.452,53.563,38.597,53.563,71.68v95.311
	C230.006,500.972,226.855,504.123,222.129,504.123z M16.542,488.369H215.04v-87.434c0-23.631-14.966-45.686-37.022-54.351
	c-14.178,19.692-37.022,31.508-62.228,31.508s-48.049-11.815-62.228-31.508c-22.055,8.665-37.022,30.72-37.022,54.351
	L16.542,488.369L16.542,488.369z"/>
<g>
	<path style="fill:#FFFFFF;" d="M40.172,464.738v-63.803c0-8.665,3.151-17.329,9.452-23.631
		c18.117,15.754,40.96,24.418,66.166,24.418s48.049-8.665,66.166-24.418c5.514,6.302,9.452,14.966,9.452,23.631v63.803H40.172z"/>
	<path style="fill:#FFFFFF;" d="M441.895,248.911c0,29.145-23.631,65.378-53.563,65.378s-53.563-36.234-53.563-65.378
		s23.631-53.563,53.563-53.563S441.895,218.978,441.895,248.911z"/>
</g>
<path style="fill:#183651;" d="M389.12,322.166c-34.658,0-61.44-39.385-61.44-73.255s27.569-61.44,61.44-61.44
	s61.44,27.569,61.44,61.44C449.772,282.782,422.991,322.166,389.12,322.166z M389.12,203.225c-25.206,0-45.686,20.48-45.686,45.686
	c0,25.994,21.268,57.502,45.686,57.502c24.418,0,45.686-31.508,45.686-57.502C434.018,223.705,414.326,203.225,389.12,203.225z"/>
<path style="fill:#2EA0DA;" d="M448.197,337.132L448.197,337.132c-26.782,44.111-91.372,44.111-118.154,0l0,0
	c-27.569,7.877-48.049,33.871-48.049,63.803v95.311h214.252v-95.311C495.458,371.003,475.766,345.797,448.197,337.132z"/>
<path style="fill:#183651;" d="M495.458,504.123H281.994c-4.726,0-7.877-3.151-7.877-7.877v-95.311
	c0-33.083,22.055-62.228,53.563-71.68c3.151-0.788,7.089,0.788,8.665,3.151c11.028,18.905,30.72,29.932,52.775,29.932
	c21.268,0,40.96-11.028,52.775-29.932c1.575-3.151,5.514-4.726,8.665-3.151c31.508,9.452,53.563,38.597,53.563,71.68v95.311
	C503.335,500.972,500.185,504.123,495.458,504.123z M289.871,488.369h198.498v-87.434c0-23.631-14.966-45.686-37.022-54.351
	c-14.178,19.692-37.022,31.508-62.228,31.508c-25.206,0-48.049-11.815-62.228-31.508c-22.055,8.665-37.022,30.72-37.022,54.351
	L289.871,488.369L289.871,488.369z"/>
<path style="fill:#FFFFFF;" d="M313.502,464.738v-63.803c0-8.665,3.151-17.329,9.452-23.631
	c18.117,15.754,40.96,24.418,66.166,24.418c25.206,0,48.049-8.665,66.166-24.418c5.514,6.302,9.452,14.966,9.452,23.631v63.803
	H313.502z"/>
<path style="fill:#2EA0DA;" d="M196.135,8.665H24.418c-8.665,0-15.754,7.089-15.754,15.754v93.735
	c0,8.665,7.089,15.754,15.754,15.754h15.754v40.172l67.742-40.172h89.009c8.665,0,15.754-7.089,15.754-15.754V24.418
	C211.889,15.754,204.8,8.665,196.135,8.665z"/>
<path style="fill:#183651;" d="M35.446,181.957c-2.363-1.575-3.938-3.938-3.938-7.089v-32.295h-7.877
	C10.24,142.572,0,132.332,0,118.942V24.418C0,11.028,10.24,0.788,23.631,0.788h171.717c13.391,0,23.631,10.24,23.631,23.631v93.735
	c0,13.391-10.24,23.631-23.631,23.631h-86.646l-65.378,39.385C40.96,183.532,37.809,183.532,35.446,181.957z M24.418,16.542
	c-4.726,0-7.877,3.151-7.877,7.877v93.735c0,4.726,3.151,7.877,7.877,7.877h15.754c4.726,0,7.877,3.151,7.877,7.877v26.782
	l55.926-33.083c1.575-0.788,2.363-0.788,3.938-0.788h89.009c4.726,0,7.877-3.151,7.877-7.877V24.418
	c0-4.726-3.151-7.877-7.877-7.877H24.418z"/>
<polygon style="fill:#FFFFFF;" points="70.892,103.188 40.172,103.188 40.172,40.172 180.382,40.172 180.382,103.188 
	98.462,103.188 70.892,119.729 "/>
<path style="fill:#FBBD5E;" d="M307.988,8.665h171.717c8.665,0,15.754,7.089,15.754,15.754v93.735
	c0,8.665-7.089,15.754-15.754,15.754h-15.754v40.172l-67.742-40.172h-88.222c-8.665,0-15.754-7.089-15.754-15.754V24.418
	C292.234,15.754,299.323,8.665,307.988,8.665z"/>
<path style="fill:#183651;" d="M460.8,181.957l-65.378-39.385h-86.646c-13.391,0-23.631-10.24-23.631-23.631V24.418
	c0-13.391,10.24-23.631,23.631-23.631h171.717c13.391,0,23.631,10.24,23.631,23.631v93.735c0,13.391-10.24,23.631-23.631,23.631
	h-7.877v32.295c0,3.151-1.575,5.514-3.938,7.089C466.314,183.532,463.163,183.532,460.8,181.957z M307.988,16.542
	c-4.726,0-7.877,3.151-7.877,7.877v93.735c0,4.726,3.151,7.877,7.877,7.877h89.009c1.575,0,3.151,0,3.938,0.788l55.926,33.083
	V133.12c0-4.726,3.151-7.877,7.877-7.877h15.754c4.726,0,7.877-3.151,7.877-7.877V24.418c0-4.726-3.151-7.877-7.877-7.877H307.988z"
	/>
<polygon style="fill:#FFFFFF;" points="433.231,103.188 463.951,103.188 463.951,40.172 323.742,40.172 323.742,103.188 
	405.662,103.188 433.231,119.729 "/>
<g>
	<rect x="344.222" y="63.803" style="fill:#183651;" width="15.754" height="15.754"/>
	<rect x="385.969" y="63.803" style="fill:#183651;" width="15.754" height="15.754"/>
	<rect x="427.717" y="63.803" style="fill:#183651;" width="15.754" height="15.754"/>
	<rect x="339.495" y="429.292" style="fill:#183651;" width="15.754" height="15.754"/>
	<rect x="381.243" y="429.292" style="fill:#183651;" width="15.754" height="15.754"/>
	<rect x="422.991" y="429.292" style="fill:#183651;" width="15.754" height="15.754"/>
	<rect x="65.378" y="429.292" style="fill:#183651;" width="15.754" height="15.754"/>
	<rect x="107.126" y="429.292" style="fill:#183651;" width="15.754" height="15.754"/>
	<rect x="148.874" y="429.292" style="fill:#183651;" width="15.754" height="15.754"/>
	<rect x="60.652" y="63.803" style="fill:#183651;" width="15.754" height="15.754"/>
	<rect x="102.4" y="63.803" style="fill:#183651;" width="15.754" height="15.754"/>
	<rect x="144.148" y="63.803" style="fill:#183651;" width="15.754" height="15.754"/>
</g>
<g>
</g>
<g>
</g>
<g>
</g>
<g>
</g>
<g>
</g>
<g>
</g>
<g>
</g>
<g>
</g>
<g>
</g>
<g>
</g>
<g>
</g>
<g>
</g>
<g>
</g>
<g>
</g>
<g>
</g>
</svg>
