<?xml version="1.0" encoding="iso-8859-1"?>
<!-- Generator: Adobe Illustrator 19.0.0, SVG Export Plug-In . SVG Version: 6.00 Build 0)  -->
<svg version="1.1" id="Capa_1" xmlns="http://www.w3.org/2000/svg" xmlns:xlink="http://www.w3.org/1999/xlink" x="0px" y="0px"
	 viewBox="0 0 504.226 504.226" style="enable-background:new 0 0 504.226 504.226;" xml:space="preserve">
<circle style="fill:#F06151;" cx="162.265" cy="195.399" r="161.477"/>
<path style="fill:#4FBF9F;" d="M296.172,361.602L296.172,361.602c-34.658-36.234-83.495-56.714-133.908-56.714l0,0
	c-50.412,0-98.462,20.48-133.908,56.714C14.966,375.781,7.089,393.898,7.089,413.59v82.708h308.775V413.59
	C316.652,393.898,309.563,375.781,296.172,361.602z"/>
<path style="fill:#183651;" d="M316.652,504.175H7.877c-4.726,0-7.877-3.151-7.877-7.877V413.59
	c0-21.268,7.877-41.748,22.843-57.502c36.234-37.809,86.646-59.077,139.422-59.077c51.988,0,103.188,21.268,139.422,59.077
	c14.966,15.754,22.843,36.234,22.843,57.502v82.708C324.529,500.236,321.378,504.175,316.652,504.175z M15.754,488.421h293.022
	V413.59c0-17.329-6.302-33.871-18.905-46.474c-33.083-34.658-80.345-54.351-127.606-54.351c-48.049,0-94.523,19.692-127.606,54.351
	c-11.815,12.603-18.905,29.145-18.905,46.474L15.754,488.421L15.754,488.421z"/>
<path style="fill:#FFFFFF;" d="M33.871,464.002v-49.625c0-11.028,3.938-20.48,11.815-28.357
	c30.72-31.508,73.255-49.625,117.366-49.625s86.646,18.117,117.366,49.625c7.089,7.877,11.815,18.117,11.815,28.357v49.625H33.871z"
	/>
<polygon style="fill:#F06151;" points="172.505,334.821 179.594,311.19 160.689,291.498 142.572,311.19 148.874,334.821 
	129.969,416.741 160.689,452.187 192.197,416.741 "/>
<path style="fill:#FBBD5E;" d="M225.28,127.658l-43.323-7.089l-63.015,21.268l-33.083,40.172l10.24,69.317
	c0,0,0,11.028,2.363,17.329c18.117,55.926,95.311,59.865,121.305,7.877c3.938-7.089,7.089-22.055,9.452-32.295l9.452-79.557
	L225.28,127.658z"/>
<path style="fill:#183651;" d="M159.902,320.642L159.902,320.642c-32.295,0-59.077-19.692-69.317-49.625
	c-2.363-7.089-2.363-16.542-3.151-18.905l-10.24-68.529c0-2.363,0-4.726,1.575-6.302l33.083-40.172
	c0.788-0.788,2.363-2.363,3.938-2.363l63.015-21.268c1.575-0.788,2.363-0.788,3.938,0l43.323,7.089
	c3.151,0.788,5.514,2.363,6.302,4.726l13.391,37.022c0.788,0.788,0.788,2.363,0.788,3.938l-9.452,79.557v0.788l-1.575,6.302
	c-2.363,9.452-5.514,20.48-8.665,26.782C214.252,304.888,189.046,320.642,159.902,320.642z M94.523,184.372l9.452,65.378v0.788
	c0,3.151,0.788,11.028,2.363,15.754c7.877,23.631,29.145,38.597,54.351,38.597l0,0c22.843,0,42.535-11.815,52.775-32.295
	c2.363-4.726,4.726-15.754,7.089-23.631l1.575-6.302l8.665-77.194l-11.028-30.72l-37.022-6.302l-59.077,19.692L94.523,184.372z"/>
<path style="fill:#E0E4E8;" d="M204.012,144.199c0,0-6.302,38.597-78.769,32.295c0,0-33.871-16.542-26.782,45.686
	c0,0,0.788,22.055-1.575,29.145c0,0-78.769-127.606,25.994-168.566c0,0,60.652-30.72,89.009,21.268c0,0,63.015,6.302,35.446,98.462
	l-17.329,42.535C229.218,244.236,237.095,136.322,204.012,144.199z"/>
<path style="fill:#183651;" d="M96.098,259.202c-2.363,0-5.514-1.575-6.302-3.938c-1.575-3.151-43.323-70.892-25.206-126.031
	c7.877-24.418,26.782-42.535,55.138-53.563c0,0,18.905-9.452,41.748-9.452c23.631,0,42.535,11.028,55.138,30.72
	c7.877,1.575,23.631,7.089,34.658,23.631c13.391,19.692,14.178,48.049,3.151,84.283l-17.329,42.535
	c-1.575,3.938-5.514,5.514-9.452,4.726c-3.938-0.788-6.302-4.726-6.302-7.877c2.363-28.357,0.788-77.982-11.028-89.797
	c-0.788-0.788-0.788-0.788-1.575-1.575c-4.726,11.028-21.268,33.083-69.317,33.083c-4.726,0-10.24,0-15.754-0.788
	c-0.788,0-1.575,0-3.151-0.788l0,0c0,0-2.363-0.788-5.514-0.788c-2.363,0-4.726,0.788-5.514,2.363
	c-2.363,3.151-7.089,11.815-4.726,36.234c0,4.726,0.788,24.418-2.363,32.295c-0.788,3.151-3.151,4.726-6.302,5.514
	C96.886,259.202,96.886,259.202,96.098,259.202z M161.477,81.184c-18.905,0-35.446,7.877-35.446,7.877
	c-24.418,9.452-40.172,24.418-46.474,44.111c-9.452,29.145,0.788,63.803,10.24,87.434c-2.363-22.055,0.788-37.809,8.665-46.474
	c4.726-4.726,10.24-7.877,17.329-7.877c4.726,0,8.665,1.575,11.028,2.363c4.726,0,8.665,0.788,13.391,0.788
	c50.412,0,55.926-25.206,55.926-26.782c0.788-3.151,3.151-5.514,6.302-6.302c7.877-1.575,14.966,0.788,20.48,6.302
	c11.028,11.815,14.178,37.022,15.754,60.652l1.575-3.938c9.452-30.72,8.665-54.351-1.575-70.105
	c-10.24-15.754-26.782-17.329-27.569-17.329c-2.363,0-4.726-1.575-6.302-3.938C195.348,89.848,180.382,81.184,161.477,81.184z"/>
<path style="fill:#E0E4E8;" d="M330.831,104.815l14.178-5.514c30.72,26.782,78.769,148.874,74.831,189.834l-14.178,5.514
	l33.871,87.434l10.24-4.726c31.508-12.603,50.412-44.898,44.898-77.982c-10.24-70.892-61.44-200.862-102.4-259.938
	c-18.905-27.569-55.138-38.597-86.646-26.782l-10.24,4.726L330.831,104.815z"/>
<path style="fill:#183651;" d="M439.532,389.959c-0.788,0-2.363,0-3.151-0.788c-1.575-0.788-3.151-2.363-3.938-4.726l-34.658-86.646
	c-1.575-3.938,0-8.665,4.726-10.24l9.452-3.938c0-40.96-40.96-145.723-68.529-174.868l-8.665,3.938
	c-1.575,0.788-3.938,0.788-6.302,0c-1.575-0.788-3.151-2.363-3.938-4.726l-35.446-87.434c-1.575-3.938,0-8.665,3.938-10.24
	l10.24-4.726c9.452-3.938,19.692-5.514,29.932-5.514c26.782,0,51.2,13.391,66.166,34.658
	c41.748,60.652,92.948,190.622,103.975,263.089c5.514,37.022-14.966,73.255-50.412,86.646l-10.24,5.514
	C441.895,389.959,440.32,389.959,439.532,389.959z M415.114,299.375l28.357,73.255l3.151-1.575
	c28.357-11.028,44.898-40.172,40.172-70.105c-10.24-69.317-61.44-199.286-100.825-256.788
	c-11.815-17.329-32.295-28.357-53.563-28.357c-7.877,0-15.754,1.575-23.631,4.726l-3.151,1.575l28.357,73.255l6.302-2.363
	c2.363-0.788,5.514-0.788,7.877,1.575c33.871,27.569,83.495,152.025,78.769,195.348c0,3.151-2.363,5.514-4.726,6.302
	L415.114,299.375z"/>
<path style="fill:#FFFFFF;" d="M380.455,304.101c-10.24,3.938-14.966,15.754-11.028,25.206l19.692,51.2
	c3.938,10.24,15.754,14.966,25.206,11.028l24.418-9.452l-34.658-87.434L380.455,304.101z"/>
<path style="fill:#183651;" d="M408.025,400.987L408.025,400.987c-11.028,0-21.268-7.089-25.206-17.329l-19.692-51.2
	c-5.514-14.178,1.575-29.932,15.754-35.446l24.418-9.452c3.938-1.575,8.665,0.788,10.24,4.726l34.658,87.434
	c0.788,1.575,0.788,3.938,0,6.302c-0.788,1.575-2.363,3.151-4.726,3.938l-24.418,9.452
	C415.114,400.199,411.175,400.987,408.025,400.987z M400.935,304.888l-17.329,6.302c-6.302,2.363-8.665,9.452-6.302,14.966
	l19.692,51.2c1.575,4.726,6.302,7.089,11.028,7.089l0,0c1.575,0,3.151,0,3.938-0.788l17.329-6.302L400.935,304.888z"/>
<path style="fill:#FFFFFF;" d="M271.754,26.833c-10.24,3.938-14.966,15.754-11.028,25.206l19.692,51.2
	c3.938,10.24,15.754,14.966,25.206,11.028l24.418-9.452l-33.871-87.434L271.754,26.833z"/>
<g>
	<path style="fill:#183651;" d="M298.535,123.719L298.535,123.719c-11.028,0-21.268-7.089-25.206-17.329l-19.692-51.2
		c-5.514-14.178,1.575-29.932,15.754-35.446l24.418-9.452c3.938-1.575,8.665,0.788,10.24,4.726l34.658,87.434
		c0.788,1.575,0.788,3.938,0,6.302c-0.788,1.575-2.363,3.151-4.726,3.938l-25.206,9.452
		C305.625,122.932,302.474,123.719,298.535,123.719z M291.446,27.621l-17.329,6.302c-6.302,2.363-8.665,9.452-6.302,14.966
		l19.692,51.2c1.575,4.726,6.302,7.089,11.028,7.089l0,0c1.575,0,3.151,0,3.938-0.788l17.329-6.302L291.446,27.621z"/>
	
		<rect x="397.699" y="127.346" transform="matrix(-0.3779 -0.9258 0.9258 -0.3779 433.6549 561.8243)" style="fill:#183651;" width="15.753" height="15.753"/>
	
		<rect x="415.146" y="168.98" transform="matrix(-0.3775 -0.926 0.926 -0.3775 418.9451 635.3433)" style="fill:#183651;" width="15.754" height="15.754"/>
	
		<rect x="431.577" y="210.187" transform="matrix(-0.3775 -0.926 0.926 -0.3775 403.4207 707.3212)" style="fill:#183651;" width="15.754" height="15.754"/>
</g>
<g>
</g>
<g>
</g>
<g>
</g>
<g>
</g>
<g>
</g>
<g>
</g>
<g>
</g>
<g>
</g>
<g>
</g>
<g>
</g>
<g>
</g>
<g>
</g>
<g>
</g>
<g>
</g>
<g>
</g>
</svg>
