<?xml version="1.0" encoding="iso-8859-1"?>
<!-- Generator: Adobe Illustrator 19.0.0, SVG Export Plug-In . SVG Version: 6.00 Build 0)  -->
<svg version="1.1" id="Capa_1" xmlns="http://www.w3.org/2000/svg" xmlns:xlink="http://www.w3.org/1999/xlink" x="0px" y="0px"
	 viewBox="0 0 504.911 504.911" style="enable-background:new 0 0 504.911 504.911;" xml:space="preserve">
<g>
	<rect x="42.535" y="47.262" style="fill:#183651;" width="15.754" height="15.754"/>
	<rect x="85.071" y="47.262" style="fill:#183651;" width="15.754" height="15.754"/>
	<rect x="127.606" y="47.262" style="fill:#183651;" width="15.754" height="15.754"/>
</g>
<path style="fill:#FFFFFF;" d="M7.877,496.246h288.295c0-58.289-33.871-107.914-83.495-130.757
	c-14.178,12.603-33.083,22.055-58.289,22.055c-8.665,0-17.329-0.788-26.782-3.151c-10.24-1.575-23.631-7.089-36.234-18.117
	C41.748,388.332,7.877,438.745,7.877,496.246z"/>
<path style="fill:#183651;" d="M296.172,504.123H7.877c-4.726,0-7.877-3.151-7.877-7.877c0-58.289,34.658-112.64,87.434-137.846
	c3.151-1.575,6.302-0.788,8.665,1.575c14.178,12.603,28.357,15.754,32.295,16.542c33.083,7.089,59.077,1.575,78.769-16.542
	c2.363-2.363,5.514-2.363,8.665-1.575c53.563,25.206,88.222,78.769,88.222,137.846C304.049,500.972,300.898,504.123,296.172,504.123
	z M15.754,488.369h272.542c-3.151-48.049-31.508-91.372-74.043-113.428c-22.843,18.905-53.563,25.206-88.222,17.329
	c-11.815-2.363-25.206-7.877-35.446-16.542C47.262,396.997,18.905,440.32,15.754,488.369z"/>
<path style="fill:#4FBF9F;" d="M44.111,464.738c7.089-25.206,22.843-47.262,44.898-61.44c10.24,5.514,21.268,10.24,32.295,11.815
	c11.028,2.363,22.843,3.938,33.083,3.938c22.055,0,43.323-5.514,60.652-15.754c22.055,14.966,37.809,37.022,44.898,62.228H44.111
	V464.738z"/>
<path style="fill:#FBBD5E;" d="M221.342,285.932c0,0-6.302,85.858-89.009,66.954c0,0-39.385-6.302-43.323-51.988l-3.938-13.391
	l-10.24-65.378l44.111-30.72l70.892-3.151l33.871,25.206v52.775L221.342,285.932z"/>
<path style="fill:#183651;" d="M154.388,363.914c-7.877,0-15.754-0.788-24.418-3.151c-14.966-2.363-44.898-17.329-49.625-58.289
	l-3.938-12.603v-0.788l-10.24-65.378c-0.788-3.151,0.788-6.302,3.151-7.877l44.111-30.72c1.575-0.788,2.363-1.575,3.938-1.575
	l70.892-3.151c1.575,0,3.938,0.788,4.726,1.575l33.871,25.206c2.363,1.575,3.151,3.938,3.151,6.302v52.775v0.788l-2.363,20.48
	C226.855,313.502,208.738,363.914,154.388,363.914z M92.16,286.72l3.938,12.603c0,0.788,0,0.788,0,1.575
	c3.938,39.385,35.446,44.898,37.022,44.898c7.877,1.575,14.966,2.363,21.268,2.363c53.563,0,59.077-59.865,59.077-63.015
	l2.363-20.48v-48.049l-28.357-21.268l-66.166,3.151l-38.597,27.569L92.16,286.72z"/>
<path style="fill:#E0E4E8;" d="M84.283,288.295c0,0,3.151-12.603-11.815-21.268c0,0-28.357-74.043,39.385-96.098
	c0,0-4.726-5.514-3.938-14.178c0,0,9.452,6.302,57.502,3.151c0,0,31.508,3.151,40.172,28.357c0,0,48.837,0,26.782,76.406
	c0,0-11.815,7.089-11.028,21.268c0,0,10.24-82.708-31.508-73.255c0,0-37.809,18.117-63.803-7.089
	C126.031,205.588,76.406,203.225,84.283,288.295z"/>
<g>
	<path style="fill:#183651;" d="M84.283,296.172L84.283,296.172c-4.726,0-7.877-3.151-7.877-7.089c0-2.363-0.788-5.514-0.788-7.877
		c-1.575-3.151-3.938-5.514-7.877-7.877c-1.575-0.788-3.151-2.363-3.151-3.938c-0.788-1.575-14.178-38.597,0.788-70.105
		c7.089-14.178,18.905-25.206,35.446-32.295c-0.788-3.151-1.575-7.089-0.788-11.028c0-2.363,2.363-4.726,4.726-6.302
		c2.363-0.788,5.514-0.788,7.877,0.788l0,0c0,0,7.089,3.151,31.508,3.151c6.302,0,13.391,0,21.268-0.788h0.788
		c1.575,0,33.083,3.151,44.898,29.145c6.302,1.575,17.329,4.726,25.206,15.754c11.815,14.966,12.603,38.597,3.938,70.105
		c-0.788,2.363-1.575,3.938-3.938,4.726l0,0c0,0-4.726,3.151-6.302,8.665c0,3.938-0.788,7.089-0.788,7.089
		c-0.788,3.938-3.938,7.089-7.877,7.089s-7.089-3.151-7.877-7.089c0-3.151,0-6.302,0.788-8.665
		c1.575-25.994-1.575-46.474-9.452-54.351c-3.151-3.151-7.089-4.726-12.603-3.151c-3.938,1.575-16.542,7.089-31.508,7.089
		c-14.966,0-27.569-4.726-37.809-13.391c-3.938,0.788-11.028,2.363-18.117,9.452c-10.24,11.028-14.966,29.932-13.391,55.138
		c1.575,6.302,0.788,11.028,0.788,11.815C91.372,293.809,88.222,296.172,84.283,296.172z M118.154,166.991
		c0.788,1.575,0.788,3.938,0.788,5.514c-0.788,2.363-2.363,4.726-4.726,5.514c-16.542,5.514-28.357,14.966-33.871,27.569
		c-7.877,16.542-5.514,36.234-3.151,48.049c2.363-18.117,7.877-31.508,17.329-41.748c13.391-13.391,28.357-14.178,31.508-14.178
		h0.788c1.575,0,3.938,0.788,4.726,2.363c7.877,7.877,17.329,11.028,29.145,11.028c14.178,0,25.994-5.514,25.994-5.514
		c0.788,0,0.788-0.788,1.575-0.788c11.028-2.363,21.268,0.788,28.357,7.877c7.089,7.877,11.028,18.905,12.603,31.508
		c2.363-16.542,0.788-29.932-5.514-37.809c-7.089-9.452-18.117-10.24-18.117-10.24c-3.151,0-6.302-2.363-7.089-5.514
		c-6.302-18.905-29.145-22.843-33.083-22.843c-7.877,0-14.966,0.788-21.268,0.788C132.332,168.566,124.455,167.778,118.154,166.991z
		"/>
	<rect x="103.975" y="431.655" style="fill:#183651;" width="15.754" height="15.754"/>
	<rect x="144.148" y="431.655" style="fill:#183651;" width="15.754" height="15.754"/>
	<rect x="185.108" y="431.655" style="fill:#183651;" width="15.754" height="15.754"/>
</g>
<path style="fill:#2EA0DA;" d="M496.246,114.215c0-58.289-55.926-106.338-124.455-106.338S247.335,55.138,247.335,114.215
	c0,35.446,20.48,66.954,51.988,85.858l3.938,74.831l83.495-55.138C448.197,213.465,496.246,168.566,496.246,114.215z"/>
<path style="fill:#183651;" d="M299.323,281.994c-2.363-1.575-3.938-3.938-4.726-6.302l-3.938-70.105
	c-33.083-21.268-51.988-55.138-51.988-90.585c0-63.015,59.077-114.215,132.332-114.215s133.12,50.412,133.12,113.428
	c0,57.502-49.625,105.551-115.003,112.64l-81.92,54.351C304.837,282.782,302.474,282.782,299.323,281.994z M371.791,15.754
	c-64.591,0-116.578,44.111-116.578,98.462c0,31.508,18.117,60.652,48.049,79.557c2.363,1.575,3.938,3.938,3.938,6.302l3.151,60.652
	l71.68-48.049c0.788-0.788,2.363-0.788,3.938-1.575c58.289-5.514,103.188-48.049,103.188-97.674
	C488.369,59.865,436.382,15.754,371.791,15.754z"/>
<path style="fill:#FFFFFF;" d="M329.255,181.957l-14.178-8.665c-23.631-14.178-37.022-36.234-37.022-59.077
	c0-40.96,41.748-74.831,92.948-74.831s93.735,33.083,93.735,74.831c0,37.809-34.658,69.317-81.92,74.043l-7.877,0.788
	l-44.111,29.145L329.255,181.957z"/>
<g>
	<circle style="fill:#E0E4E8;" cx="419.84" cy="108.702" r="13.391"/>
	<circle style="fill:#E0E4E8;" cx="371.791" cy="108.702" r="13.391"/>
	<circle style="fill:#E0E4E8;" cx="323.742" cy="108.702" r="13.391"/>
	<polygon style="fill:#E0E4E8;" points="386.757,289.083 332.406,344.222 332.406,496.246 496.246,496.246 496.246,289.083 	"/>
</g>
<path style="fill:#183651;" d="M496.246,504.123h-163.84c-4.726,0-7.877-3.151-7.877-7.877V344.222c0-2.363,0.788-3.938,2.363-5.514
	l55.138-55.138c1.575-1.575,3.151-2.363,5.514-2.363h109.489c4.726,0,7.877,3.151,7.877,7.877v207.163
	C504.123,500.972,500.972,504.123,496.246,504.123z M340.283,488.369h148.086V296.96h-97.674l-50.412,50.412L340.283,488.369
	L340.283,488.369z"/>
<g>
	<polygon style="fill:#FFFFFF;" points="363.914,464.738 363.914,344.222 386.757,320.591 464.738,320.591 464.738,464.738 	"/>
	<polygon style="fill:#FFFFFF;" points="386.757,344.222 386.757,289.083 332.406,344.222 	"/>
</g>
<g>
	<path style="fill:#183651;" d="M386.757,352.098h-55.138c-3.151,0-6.302-1.575-7.089-4.726c-1.575-3.151-0.788-6.302,1.575-8.665
		l55.138-55.138c2.363-2.363,5.514-3.151,8.665-1.575c3.151,1.575,4.726,3.938,4.726,7.089v55.138
		C394.634,348.16,391.483,352.098,386.757,352.098z M351.311,336.345h28.357v-28.357L351.311,336.345z"/>
	<rect x="411.175" y="343.434" style="fill:#183651;" width="35.446" height="15.754"/>
	<rect x="381.243" y="384.394" style="fill:#183651;" width="65.378" height="15.754"/>
	<rect x="381.243" y="426.142" style="fill:#183651;" width="65.378" height="15.754"/>
</g>
<g>
</g>
<g>
</g>
<g>
</g>
<g>
</g>
<g>
</g>
<g>
</g>
<g>
</g>
<g>
</g>
<g>
</g>
<g>
</g>
<g>
</g>
<g>
</g>
<g>
</g>
<g>
</g>
<g>
</g>
</svg>
