<?xml version="1.0" encoding="iso-8859-1"?>
<!-- Generator: Adobe Illustrator 19.0.0, SVG Export Plug-In . SVG Version: 6.00 Build 0)  -->
<svg version="1.1" id="Capa_1" xmlns="http://www.w3.org/2000/svg" xmlns:xlink="http://www.w3.org/1999/xlink" x="0px" y="0px"
	 viewBox="0 0 504.123 504.123" style="enable-background:new 0 0 504.123 504.123;" xml:space="preserve">
<circle style="fill:#FBBD5E;" cx="252.062" cy="252.062" r="252.062"/>
<g>
	
		<rect x="334.763" y="58.089" transform="matrix(-0.7071 -0.7071 0.7071 -0.7071 538.278 354.894)" style="fill:#183651;" width="15.754" height="15.754"/>
	
		<rect x="363.21" y="86.119" transform="matrix(-0.7074 -0.7069 0.7069 -0.7074 567.1359 422.7917)" style="fill:#183651;" width="15.755" height="15.755"/>
	
		<rect x="390.453" y="114.108" transform="matrix(-0.7071 -0.7071 0.7071 -0.7071 593.7349 489.9035)" style="fill:#183651;" width="15.754" height="15.754"/>
	
		<rect x="112.581" y="387" transform="matrix(-0.8254 -0.5646 0.5646 -0.8254 -3.0595 788.8085)" style="fill:#183651;" width="15.754" height="15.754"/>
	
		<rect x="145.036" y="408.969" transform="matrix(-0.8254 -0.5646 0.5646 -0.8254 43.7799 847.233)" style="fill:#183651;" width="15.754" height="15.754"/>
	
		<rect x="177.031" y="431.588" transform="matrix(-0.8254 -0.5646 0.5646 -0.8254 89.4117 906.5842)" style="fill:#183651;" width="15.754" height="15.754"/>
</g>
<path style="fill:#4FBF9F;" d="M211.102,181.957h189.046c11.028,0,20.48,9.452,20.48,20.48v132.332
	c0,11.028-9.452,20.48-20.48,20.48h-22.055v51.2l-74.831-51.2h-92.16c-11.028,0-20.48-9.452-20.48-20.48V202.437
	C190.622,191.409,200.074,181.957,211.102,181.957z"/>
<path style="fill:#183651;" d="M373.366,412.751l-72.468-49.625h-89.797c-15.754,0-28.357-12.603-28.357-28.357V202.437
	c0-15.754,12.603-28.357,28.357-28.357h189.046c15.754,0,28.357,12.603,28.357,28.357v132.332c0,15.754-12.603,28.357-28.357,28.357
	h-14.178v43.323c0,3.151-1.575,5.514-3.938,7.089C379.668,414.326,376.517,414.326,373.366,412.751z M211.102,189.834
	c-7.089,0-12.603,5.514-12.603,12.603v132.332c0,7.089,5.514,12.603,12.603,12.603h92.16c1.575,0,3.151,0.788,4.726,1.575
	l62.228,42.535v-36.234c0-4.726,3.151-7.877,7.877-7.877h22.055c7.089,0,12.603-5.514,12.603-12.603V202.437
	c0-7.089-5.514-12.603-12.603-12.603H211.102z"/>
<polygon style="fill:#FFFFFF;" points="313.502,323.742 222.129,323.742 222.129,213.465 389.12,213.465 389.12,323.742 
	346.585,323.742 346.585,346.585 "/>
<path style="fill:#F06151;" d="M198.498,82.708c-73.255,0-133.12,42.535-133.12,94.523c0,28.357,17.329,52.775,44.898,70.105h-0.788
	L94.523,307.2l76.406-37.809c8.665,1.575,18.117,2.363,27.569,2.363c73.255,0,133.12-42.535,133.12-94.523
	S271.754,82.708,198.498,82.708z"/>
<path style="fill:#183651;" d="M89.797,313.502c-2.363-1.575-3.151-4.726-2.363-7.877l14.178-55.138
	c-27.569-18.905-43.323-45.686-43.323-73.255c0-56.714,63.015-102.4,140.997-102.4s140.997,45.686,140.997,102.4
	s-63.015,102.4-140.997,102.4c-8.665,0-17.329-0.788-25.994-1.575l-74.831,36.234C95.311,315.865,92.16,315.077,89.797,313.502z
	 M116.578,252.849l-10.24,39.385l61.44-29.932c1.575-0.788,3.151-0.788,4.726-0.788c8.665,1.575,17.329,2.363,25.994,2.363
	c69.317,0,125.243-38.597,125.243-86.646s-55.926-86.646-125.243-86.646S73.255,129.182,73.255,177.231
	c0,24.418,14.966,46.474,41.748,63.803c3.151,1.575,4.726,5.514,3.151,9.452C118.154,250.486,117.366,252.062,116.578,252.849z"/>
<g>
	<path style="fill:#FFFFFF;" d="M127.606,220.554c-19.692-11.815-30.72-27.569-30.72-43.323c0-33.871,46.474-63.015,101.612-63.015
		s101.612,29.145,101.612,63.015s-46.474,63.015-101.612,63.015c-7.877,0-14.966-0.788-22.843-1.575l-9.452-1.575l-39.385,25.994
		L127.606,220.554z"/>
	<polygon style="fill:#FFFFFF;" points="496.246,457.649 438.745,420.628 438.745,440.32 371.003,440.32 371.003,474.191 
		438.745,474.191 438.745,493.883 	"/>
</g>
<path style="fill:#183651;" d="M434.806,500.972c-2.363-1.575-3.938-3.938-3.938-7.089v-11.815h-59.865
	c-4.726,0-7.877-3.151-7.877-7.877V440.32c0-4.726,3.151-7.877,7.877-7.877h59.865v-11.815c0-3.151,1.575-5.514,3.938-7.089
	c2.363-1.575,5.514-1.575,7.877,0l57.502,36.234c2.363,1.575,3.938,3.938,3.938,6.302s-1.575,5.514-3.938,6.302l-57.502,37.809
	C440.32,501.76,437.169,501.76,434.806,500.972z M378.88,466.314h59.865c4.726,0,7.877,3.151,7.877,7.877v5.514l34.658-22.055
	l-34.658-22.055v5.514c0,4.726-3.151,7.877-7.877,7.877H378.88V466.314z"/>
<polygon style="fill:#FFFFFF;" points="7.877,44.111 65.378,7.877 65.378,27.569 133.12,27.569 133.12,61.44 65.378,61.44 
	65.378,80.345 "/>
<path style="fill:#183651;" d="M61.44,87.434L3.938,51.2C1.575,49.625,0,47.262,0,44.111c0-3.151,1.575-4.726,3.938-6.302
	L61.44,1.575C63.803,0,66.954,0,69.317,1.575s3.938,3.938,3.938,7.089v11.028h59.865c4.726,0,7.877,3.151,7.877,7.877V61.44
	c0,4.726-3.151,7.877-7.877,7.877H73.255v11.815c0,3.151-1.575,5.514-3.938,7.089C66.954,89.009,63.803,89.009,61.44,87.434z
	 M22.843,44.111l34.658,22.055V61.44c0-4.726,3.151-7.877,7.877-7.877h59.865V35.446H65.378c-4.726,0-7.877-3.151-7.877-7.877
	v-5.514L22.843,44.111z"/>
<g>
	<circle style="fill:#E0E4E8;" cx="147.298" cy="174.08" r="14.178"/>
	<circle style="fill:#E0E4E8;" cx="198.498" cy="174.08" r="14.178"/>
	<circle style="fill:#E0E4E8;" cx="249.698" cy="174.08" r="14.178"/>
	<circle style="fill:#E0E4E8;" cx="283.569" cy="282.782" r="11.028"/>
	<circle style="fill:#E0E4E8;" cx="323.742" cy="282.782" r="11.028"/>
	<circle style="fill:#E0E4E8;" cx="364.702" cy="282.782" r="11.028"/>
</g>
<g>
</g>
<g>
</g>
<g>
</g>
<g>
</g>
<g>
</g>
<g>
</g>
<g>
</g>
<g>
</g>
<g>
</g>
<g>
</g>
<g>
</g>
<g>
</g>
<g>
</g>
<g>
</g>
<g>
</g>
</svg>
