<?xml version="1.0" encoding="iso-8859-1"?>
<!-- Generator: Adobe Illustrator 19.0.0, SVG Export Plug-In . SVG Version: 6.00 Build 0)  -->
<svg version="1.1" id="Capa_1" xmlns="http://www.w3.org/2000/svg" xmlns:xlink="http://www.w3.org/1999/xlink" x="0px" y="0px"
	 viewBox="0 0 504.432 504.432" style="enable-background:new 0 0 504.432 504.432;" xml:space="preserve">
<path style="fill:#4FBF9F;" d="M379.034,393.846c4.726-14.178,7.877-29.145,7.877-44.898c0-73.255-59.865-133.12-133.12-133.12
	s-133.12,59.865-133.12,133.12s59.865,133.12,133.12,133.12c16.542,0,33.083-3.151,47.262-8.665l101.612,23.631L379.034,393.846z"/>
<path style="fill:#183651;" d="M401.09,504.123l-99.249-22.843c-15.754,5.514-31.508,8.665-48.049,8.665
	c-77.982,0-140.997-63.015-140.997-140.997s63.015-140.997,140.997-140.997s140.997,63.015,140.997,140.997
	c0,15.754-2.363,30.72-7.877,45.686l23.631,100.825c0.788,2.363,0,5.514-2.363,7.089
	C406.604,504.123,403.453,504.911,401.09,504.123z M301.053,464.738c0.788,0,1.575,0,1.575,0l89.009,20.48l-21.268-90.585
	c0-1.575,0-3.151,0-4.726c4.726-14.178,7.877-28.357,7.877-42.535c0-69.317-55.926-125.243-125.243-125.243
	s-125.243,55.926-125.243,125.243s55.926,125.243,125.243,125.243c14.966,0,29.932-3.151,44.898-8.665
	C299.478,464.738,300.265,464.738,301.053,464.738z"/>
<path style="fill:#FFFFFF;" d="M298.69,440.32l-8.665,3.151c-11.815,4.726-24.418,7.089-36.234,7.089
	c-55.926,0-101.612-45.686-101.612-101.612s45.686-101.612,101.612-101.612s101.612,45.686,101.612,101.612
	c0,11.815-2.363,22.843-6.302,34.658l-3.151,8.665l14.178,63.015L298.69,440.32z"/>
<g>
	<circle style="fill:#2EA0DA;" cx="201.804" cy="348.16" r="14.966"/>
	<circle style="fill:#2EA0DA;" cx="253.791" cy="348.16" r="14.966"/>
	<circle style="fill:#2EA0DA;" cx="305.779" cy="348.16" r="14.966"/>
</g>
<g>
	<path style="fill:#183651;" d="M257.73,44.111l-9.452-12.603c2.363-1.575,4.726-3.151,7.089-4.726l8.665,13.391
		C261.668,40.96,259.305,42.535,257.73,44.111z"/>
	<path style="fill:#183651;" d="M485.373,137.846c-0.788-4.726-1.575-9.452-3.151-14.178l14.966-3.938
		c1.575,5.514,2.363,10.24,3.151,15.754L485.373,137.846z M478.284,109.489c-1.575-4.726-3.938-8.665-5.514-13.391l14.178-7.089
		c2.363,4.726,4.726,9.452,6.302,14.966L478.284,109.489z M465.681,83.495c-2.363-3.938-5.514-7.877-7.877-11.815l12.603-9.452
		c3.151,3.938,6.302,8.665,9.452,13.391L465.681,83.495z M448.351,60.652c-3.938-3.151-7.089-6.302-11.028-9.452l10.24-11.815
		c3.938,3.151,7.877,7.089,11.815,11.028L448.351,60.652z M426.296,41.748c-3.938-3.151-7.877-5.514-11.815-7.877l7.877-13.391
		c4.726,2.363,9.452,5.514,13.391,8.665L426.296,41.748z M275.847,32.295l-7.089-14.178c4.726-2.363,9.452-4.726,14.178-7.089
		l6.302,14.178C284.511,28.357,280.573,29.932,275.847,32.295z M401.09,27.569c-4.726-1.575-8.665-3.938-13.391-5.514l4.726-14.966
		c4.726,1.575,10.24,3.938,14.966,5.514L401.09,27.569z M302.628,21.268l-4.726-14.966c4.726-1.575,10.24-3.151,15.754-3.938
		l3.151,15.754C312.081,18.905,307.354,20.48,302.628,21.268z M374.308,18.905c-4.726-0.788-9.452-1.575-14.178-2.363l1.575-15.754
		c5.514,0.788,10.24,1.575,15.754,2.363L374.308,18.905z M330.985,16.542L329.41,0.788C334.136,0,338.862,0,343.588,0h2.363v15.754
		h-1.575C339.65,15.754,334.924,15.754,330.985,16.542z"/>
	<path style="fill:#183651;" d="M502.702,159.114h-15.754c0-2.363,0-4.726,0-7.089l15.754-0.788
		C502.702,154.388,502.702,156.751,502.702,159.114z"/>
</g>
<path style="fill:#F06151;" d="M449.139,197.711c3.938-11.815,7.089-24.418,7.089-37.809c0-62.228-50.412-112.64-112.64-112.64
	s-112.64,50.412-112.64,112.64s50.412,111.852,112.64,111.852c14.178,0,27.569-2.363,40.172-7.877l85.071,20.48L449.139,197.711z"/>
<path style="fill:#183651;" d="M467.256,291.446l-83.495-19.692c-13.391,4.726-26.782,7.089-40.172,7.089
	c-66.166,0-119.729-53.563-119.729-119.729S277.422,39.385,343.588,39.385s119.729,53.563,119.729,119.729
	c0,12.603-2.363,25.994-6.302,38.597l19.692,85.071c0.788,2.363,0,5.514-2.363,7.089
	C472.77,291.446,469.619,292.234,467.256,291.446z M383.761,256.788c0.788,0,1.575,0,1.575,0l73.255,17.329l-17.329-74.043
	c0-1.575,0-3.151,0-4.726c3.938-11.815,6.302-23.631,6.302-35.446c0-57.502-46.474-104.763-104.763-104.763
	s-104.763,46.474-104.763,104.763s48.049,103.975,105.551,103.975c12.603,0,25.206-2.363,37.022-7.089
	C381.398,256.788,382.185,256.788,383.761,256.788z"/>
<path style="fill:#FFFFFF;" d="M382.185,227.643l-11.028,4.726c-8.665,3.151-18.117,5.514-27.569,5.514
	c-43.323,0-77.982-34.658-77.982-77.982s34.658-77.982,77.982-77.982s77.982,34.658,77.982,77.982
	c0,8.665-1.575,18.117-4.726,26.782l-3.938,11.028l3.938,34.658L382.185,227.643z"/>
<g>
	<circle style="fill:#FBBD5E;" cx="304.991" cy="159.114" r="11.028"/>
	<circle style="fill:#FBBD5E;" cx="343.588" cy="159.114" r="11.028"/>
	<circle style="fill:#FBBD5E;" cx="382.185" cy="159.114" r="11.028"/>
</g>
<g>
	<path style="fill:#183651;" d="M230.161,39.385c-2.363-1.575-4.726-2.363-6.302-3.151l7.089-14.178
		c2.363,1.575,4.726,2.363,7.089,3.938L230.161,39.385z"/>
	<path style="fill:#183651;" d="M19.059,143.36l-15.754-2.363c0.788-5.514,2.363-11.028,3.938-16.542l14.966,3.938
		C20.634,133.12,19.847,138.634,19.059,143.36z M26.936,114.215l-14.966-5.514c1.575-5.514,3.938-10.24,6.302-14.966l14.178,7.089
		C30.087,105.551,28.511,110.277,26.936,114.215z M40.327,88.222l-13.391-8.665c3.151-4.726,6.302-9.452,9.452-13.391l12.603,9.452
		C45.841,79.557,42.69,83.495,40.327,88.222z M58.444,64.591L47.416,53.563c3.938-3.938,7.877-7.877,11.815-11.028l10.24,11.815
		C65.533,57.502,62.382,61.44,58.444,64.591z M82.074,45.686L73.41,33.083c4.726-3.151,9.452-5.514,14.178-8.665l7.089,14.178
		C89.951,40.172,86.013,43.323,82.074,45.686z M108.068,32.295l-5.514-14.178c5.514-2.363,10.24-3.938,15.754-5.514l3.938,14.966
		C117.521,28.357,112.794,29.932,108.068,32.295z M210.468,30.72c-4.726-1.575-9.452-3.151-14.966-4.726l3.938-14.966
		c5.514,1.575,11.028,3.151,15.754,4.726L210.468,30.72z M136.425,23.631l-2.363-15.754c5.514-0.788,11.028-1.575,16.542-1.575
		l0.788,15.754C146.665,22.843,141.939,22.843,136.425,23.631z M181.324,23.631c-4.726-0.788-10.24-0.788-14.966-1.575l0.788-15.754
		c5.514,0,11.028,0.788,16.542,1.575L181.324,23.631z"/>
	<path style="fill:#183651;" d="M17.484,165.415H1.73c0-2.363,0-5.514,0-7.877l15.754,0.788
		C17.484,160.689,17.484,163.052,17.484,165.415z"/>
</g>
<path style="fill:#FBBD5E;" d="M55.293,204.012c-3.938-11.815-7.089-24.418-7.089-37.809c0-62.228,50.412-112.64,112.64-112.64
	s112.64,50.412,112.64,112.64s-50.412,112.64-112.64,112.64c-14.178,0-27.569-2.363-40.172-7.877l-85.071,19.692L55.293,204.012z"/>
<path style="fill:#183651;" d="M30.087,296.172c-2.363-2.363-3.151-4.726-2.363-7.877l19.692-84.283
	c-3.938-12.603-6.302-25.206-6.302-38.597c0-66.166,53.563-119.729,119.729-119.729s119.729,53.563,119.729,119.729
	S227.01,285.145,160.844,285.145c-13.391,0-27.569-2.363-40.172-7.089l-83.495,19.692C34.813,298.535,31.662,297.748,30.087,296.172
	z M160.844,61.44c-57.502,0-104.763,46.474-104.763,104.763c0,11.815,2.363,23.631,6.302,35.446c0.788,1.575,0.788,3.151,0,4.726
	l-16.542,73.255l73.255-17.329c1.575,0,3.151,0,4.726,0c11.815,4.726,24.418,7.089,37.022,7.089
	c57.502,0,104.763-46.474,104.763-104.763S218.345,61.44,160.844,61.44z"/>
<path style="fill:#FFFFFF;" d="M122.247,233.945l11.028,3.938c8.665,3.151,18.117,5.514,27.569,5.514
	c43.323,0,77.982-34.658,77.982-77.982s-34.658-77.982-77.982-77.982s-77.982,34.658-77.982,77.982
	c0,8.665,1.575,18.117,4.726,26.782l3.938,11.028l-3.938,34.658L122.247,233.945z"/>
<g>
	<circle style="fill:#F06151;" cx="199.441" cy="165.415" r="11.028"/>
	<circle style="fill:#F06151;" cx="160.844" cy="165.415" r="11.028"/>
	<circle style="fill:#F06151;" cx="122.247" cy="165.415" r="11.028"/>
</g>
<g>
	<rect x="427.871" y="343.434" style="fill:#183651;" width="15.754" height="15.754"/>
	<rect x="427.871" y="392.271" style="fill:#183651;" width="15.754" height="15.754"/>
	<rect x="427.871" y="441.895" style="fill:#183651;" width="15.754" height="15.754"/>
	<rect x="60.807" y="343.434" style="fill:#183651;" width="15.754" height="15.754"/>
	<rect x="60.807" y="392.271" style="fill:#183651;" width="15.754" height="15.754"/>
	<rect x="60.807" y="441.895" style="fill:#183651;" width="15.754" height="15.754"/>
</g>
<g>
</g>
<g>
</g>
<g>
</g>
<g>
</g>
<g>
</g>
<g>
</g>
<g>
</g>
<g>
</g>
<g>
</g>
<g>
</g>
<g>
</g>
<g>
</g>
<g>
</g>
<g>
</g>
<g>
</g>
</svg>
