<?xml version="1.0" encoding="iso-8859-1"?>
<!-- Generator: Adobe Illustrator 19.0.0, SVG Export Plug-In . SVG Version: 6.00 Build 0)  -->
<svg version="1.1" id="Capa_1" xmlns="http://www.w3.org/2000/svg" xmlns:xlink="http://www.w3.org/1999/xlink" x="0px" y="0px"
	 viewBox="0 0 504.2 504.2" style="enable-background:new 0 0 504.2 504.2;" xml:space="preserve">
<circle style="fill:#E0E4E8;" cx="252.1" cy="252.1" r="252.1"/>
<path style="fill:#FFFFFF;" d="M98.5,471.1l22.8-81.1c-8.7-17.3-14.2-37-14.2-58.3c0-72.5,58.3-130.8,130.8-130.8l0,0
	c72.5,0,130.8,58.3,130.8,130.8s-57.5,130-130,130l0,0c-21.3,0-41-4.7-58.3-14.2L98.5,471.1z"/>
<path style="fill:#183651;" d="M93,476.6c-2.4-2.4-3.2-4.7-2.4-7.9l22.1-78.8c-8.7-18.9-13.4-38.6-13.4-59.1
	c0-76.4,62.2-138.6,138.6-138.6s138.6,62.2,138.6,138.6s-62.2,138.6-138.6,138.6c-20.5,0-40.2-4.7-59.1-13.4l-78.7,22.2
	C97.7,479,95.3,478.2,93,476.6z M238.7,208c-67.7,0-122.9,55.1-122.9,122.9c0,18.9,4.7,37.8,13.4,55.1c0.8,1.6,0.8,3.9,0.8,5.5
	l-18.9,67.8l67.7-18.9c1.6-0.8,3.9,0,5.5,0.8c17.3,8.7,35.4,13.4,55.1,13.4c67.7,0,122.9-55.1,122.9-122.9S306.5,208,238.7,208z"/>
<path style="fill:#FBBD5E;" d="M238.7,432.5c55.9,0,101.6-45.7,101.6-101.6s-45.7-101.6-101.6-101.6s-101.6,45.6-101.6,101.6
	S182.8,432.5,238.7,432.5z"/>
<path style="fill:#FFFFFF;" d="M471.1,323l-20.5-72.5c7.9-15.8,12.6-33.1,12.6-52c0-64.6-52-116.6-116.6-116.6l0,0
	c-64.6,0-116.6,52-116.6,116.6s52,116.6,116.6,116.6l0,0c18.9,0,36.2-4.7,52-12.6L471.1,323z"/>
<path style="fill:#183651;" d="M468.7,330.9l-69.3-19.7c-16.5,7.9-34.7,11.8-52.8,11.8c-68.5,0-124.5-55.9-124.5-124.5
	s56-124.4,124.5-124.4S471.1,130,471.1,198.5c0,18.1-3.9,36.2-11.8,52.8l19.7,69.3c0.8,2.4,0,5.5-2.4,7.9
	C475,330.9,471.9,331.7,468.7,330.9z M398.6,295.4c0.8,0,1.6,0,2.4,0l59.1,16.5l-16.5-59.1c-0.8-1.6,0-3.9,0.8-5.5
	c7.9-15,11.8-31.5,11.8-48.8c0-59.9-48.8-108.7-108.7-108.7s-108.7,48.8-108.7,108.7s48.8,108.7,108.7,108.7
	c16.5,0,33.1-3.9,48.8-11.8C396.2,295.4,397.8,295.4,398.6,295.4z"/>
<path style="fill:#4FBF9F;" d="M346.6,286.8c-48.8,0-88.2-39.4-88.2-88.2s39.4-88.2,88.2-88.2s88.2,39.4,88.2,88.2
	S395.5,286.8,346.6,286.8z"/>
<path style="fill:#FFFFFF;" d="M34.7,274.9l20.5-72.5c-7.9-15.8-12.6-33.1-12.6-52c0-64.6,52-116.6,116.6-116.6l0,0
	c64.6,0,116.6,52,116.6,116.6s-52.1,116.7-116.6,116.7l0,0c-18.9,0-36.2-4.7-52-12.6L34.7,274.9z"/>
<path style="fill:#183651;" d="M29.2,280.5c-2.4-2.4-3.2-4.7-2.4-7.9l19.7-69.3c-7.9-16.5-11.8-34.7-11.8-52.8
	C34.7,82,90.6,26,159.2,26s124.5,55.9,124.5,124.5S227.8,275,159.2,275c-18.1,0-36.2-3.9-52.8-11.8l-69.3,19.6
	C33.9,283.6,30.8,282.8,29.2,280.5z M159.2,41.8c-59.9,0-108.7,48.8-108.7,108.7c0,16.5,3.9,33.1,11.8,48.8c0.8,1.6,0.8,3.9,0.8,5.5
	l-17.3,59.1l59.1-16.5c1.6-0.8,3.9,0,5.5,0.8c15,7.9,31.5,11.8,48.8,11.8c59.9,0,108.7-48.8,108.7-108.7S219,41.8,159.2,41.8z"/>
<path style="fill:#F06151;" d="M159.2,238.7c48.8,0,88.2-39.4,88.2-88.2S208,62.3,159.2,62.3S71,101.7,71,150.5
	S110.3,238.7,159.2,238.7z"/>
<g>
	<circle style="fill:#FFFFFF;" cx="111.1" cy="150.5" r="13.4"/>
	<circle style="fill:#FFFFFF;" cx="159.2" cy="150.5" r="13.4"/>
	<circle style="fill:#FFFFFF;" cx="207.2" cy="150.5" r="13.4"/>
	<circle style="fill:#FFFFFF;" cx="298.6" cy="198.5" r="13.4"/>
	<circle style="fill:#FFFFFF;" cx="346.6" cy="198.5" r="13.4"/>
	<circle style="fill:#FFFFFF;" cx="394.7" cy="198.5" r="13.4"/>
	<circle style="fill:#FFFFFF;" cx="190.7" cy="335.6" r="13.4"/>
	<circle style="fill:#FFFFFF;" cx="238.7" cy="335.6" r="13.4"/>
	<circle style="fill:#FFFFFF;" cx="286.8" cy="335.6" r="13.4"/>
</g>
<g>
</g>
<g>
</g>
<g>
</g>
<g>
</g>
<g>
</g>
<g>
</g>
<g>
</g>
<g>
</g>
<g>
</g>
<g>
</g>
<g>
</g>
<g>
</g>
<g>
</g>
<g>
</g>
<g>
</g>
</svg>
