<?xml version="1.0" encoding="iso-8859-1"?>
<!-- Generator: Adobe Illustrator 19.0.0, SVG Export Plug-In . SVG Version: 6.00 Build 0)  -->
<svg version="1.1" id="Capa_1" xmlns="http://www.w3.org/2000/svg" xmlns:xlink="http://www.w3.org/1999/xlink" x="0px" y="0px"
	 viewBox="0 0 504.123 504.123" style="enable-background:new 0 0 504.123 504.123;" xml:space="preserve">
<circle style="fill:#2EA0DA;" cx="252.062" cy="251.274" r="201.649"/>
<rect x="92.948" y="38.597" style="fill:#4FBF9F;" width="227.643" height="374.942"/>
<path style="fill:#183651;" d="M328.468,421.415H85.071V30.72H327.68v390.695H328.468z M100.825,406.449h211.889V46.474H100.825
	V406.449z"/>
<path style="fill:#FFFFFF;" d="M159.114,70.105h95.311c0,18.905,15.754,34.658,34.658,34.658V348.16
	c-18.905,0-34.658,15.754-34.658,34.658h-95.311c0-18.905-15.754-34.658-34.658-34.658V104.763
	C143.36,104.763,159.114,89.009,159.114,70.105z"/>
<ellipse style="fill:#4FBF9F;" cx="206.375" cy="226.068" rx="64.591" ry="53.563"/>
<circle style="fill:#E0E4E8;" cx="372.578" cy="373.366" r="120.517"/>
<path style="fill:#183651;" d="M372.578,501.76c-70.892,0-127.606-57.502-127.606-127.606s57.502-127.606,127.606-127.606
	c33.871,0,66.166,13.391,90.585,37.809c24.418,24.418,37.809,55.926,37.809,90.585C500.972,444.258,443.471,501.76,372.578,501.76z
	 M372.578,260.726c-62.228,0-112.64,50.412-112.64,112.64s51.2,112.64,112.64,112.64c62.228,0,112.64-50.412,112.64-112.64
	c0-29.932-11.815-58.289-33.083-79.557C430.868,272.542,402.511,260.726,372.578,260.726z"/>
<path style="fill:#FFFFFF;" d="M372.578,462.375c-48.837,0-89.009-40.172-89.009-89.009s40.172-89.009,89.009-89.009
	s89.009,40.172,89.009,89.009S422.203,462.375,372.578,462.375z"/>
<g>
	<circle style="fill:#4FBF9F;" cx="206.375" cy="340.283" r="17.329"/>
	<circle style="fill:#4FBF9F;" cx="206.375" cy="112.64" r="17.329"/>
</g>
<g>
	<circle style="fill:#E0E4E8;" cx="434.806" cy="373.366" r="10.24"/>
	<circle style="fill:#E0E4E8;" cx="310.351" cy="373.366" r="10.24"/>
</g>
<g>
	<path style="fill:#183651;" d="M92.16,448.985c-2.363-1.575-3.938-3.151-6.302-5.514l10.24-11.815
		c1.575,1.575,3.938,3.151,5.514,4.726L92.16,448.985z"/>
	<path style="fill:#183651;" d="M197.711,494.671c-4.726-0.788-9.452-1.575-14.178-2.363l3.151-14.966
		c4.726,0.788,8.665,1.575,13.391,2.363L197.711,494.671z M169.354,489.157c-4.726-1.575-9.452-2.363-14.178-3.938l4.726-14.966
		c3.938,1.575,8.665,3.151,12.603,3.938L169.354,489.157z M141.785,479.705c-4.726-1.575-8.665-3.938-13.391-6.302l7.089-14.178
		c3.938,2.363,7.877,3.938,11.815,5.514L141.785,479.705z M115.791,466.314c-3.938-2.363-7.877-5.514-11.815-7.877l9.452-12.603
		c3.938,2.363,7.089,4.726,11.028,7.089L115.791,466.314z"/>
	<path style="fill:#183651;" d="M220.554,495.458c-2.363,0-5.514,0-7.877,0l0.788-15.754c2.363,0,4.726,0,7.089,0V495.458z"/>
	<path style="fill:#183651;" d="M85.858,443.471C44.111,405.662,20.48,352.098,20.48,296.172h15.754
		c0,51.988,22.055,101.612,60.652,136.271L85.858,443.471z"/>
	<polygon style="fill:#183651;" points="12.603,330.043 0,320.591 26.782,285.145 62.228,311.138 52.775,323.742 29.932,306.412 	
		"/>
	<path style="fill:#183651;" d="M408.025,66.166c-1.575-1.575-3.938-3.151-5.514-4.726l10.24-11.815
		c2.363,1.575,3.938,3.151,6.302,5.514L408.025,66.166z"/>
	<path style="fill:#183651;" d="M391.483,52.775c-3.938-2.363-7.089-4.726-11.028-7.089l7.877-13.391
		c3.938,2.363,7.877,5.514,11.815,7.877L391.483,52.775z M368.64,38.597c-3.938-2.363-7.877-3.938-11.815-5.514l6.302-14.178
		c4.726,1.575,8.665,3.938,13.391,6.302L368.64,38.597z M344.222,28.357c-3.938-1.575-8.665-3.151-12.603-3.938l3.151-14.966
		c4.726,1.575,9.452,2.363,14.178,3.938L344.222,28.357z M318.228,21.268c-4.726-0.788-9.452-1.575-13.391-1.575l1.575-15.754
		c4.726,0.788,9.452,1.575,14.178,2.363L318.228,21.268z"/>
	<path style="fill:#183651;" d="M291.446,18.117c-2.363,0-4.726,0-7.089,0V2.363c2.363,0,5.514,0,7.877,0L291.446,18.117z"/>
	<path style="fill:#183651;" d="M483.643,202.437h-15.754c0-51.988-22.055-101.612-60.652-136.271l10.24-11.815
		C460.012,92.16,483.643,146.511,483.643,202.437z"/>
	<polygon style="fill:#183651;" points="477.342,213.465 441.895,186.683 451.348,174.868 474.191,192.197 491.52,168.566 
		504.123,178.018 	"/>
	<path style="fill:#183651;" d="M173.292,224.492h5.514c0.788-7.089,3.938-14.178,8.665-19.692l7.089,5.514
		c-3.938,4.726-6.302,9.452-7.089,14.178h15.754c1.575-6.302,3.151-10.24,5.514-13.391c2.363-3.151,5.514-3.938,10.24-3.938
		s8.665,1.575,11.028,4.726c3.151,3.151,4.726,7.877,4.726,12.603h5.514v5.514h-3.938c-0.788,6.302-2.363,11.815-6.302,16.542
		l-7.089-5.514c2.363-3.938,3.938-7.089,4.726-11.815h-14.966l0,0c-1.575,6.302-3.151,11.028-5.514,13.391
		c-2.363,3.151-6.302,4.726-11.028,4.726c-4.726,0-8.665-1.575-11.815-4.726c-3.151-3.151-4.726-7.877-4.726-13.391h-5.514v-4.726
		H173.292z M225.28,218.978c-0.788-1.575-2.363-2.363-4.726-2.363c-1.575,0-3.151,0.788-3.938,1.575
		c-0.788,0.788-2.363,3.151-3.151,6.302h14.178C227.643,222.129,226.855,220.554,225.28,218.978z M189.834,235.52
		c1.575,1.575,3.151,2.363,4.726,2.363c1.575,0,3.151-0.788,4.726-1.575c0.788-1.575,2.363-3.151,3.151-6.302h-14.178
		C188.258,232.369,189.046,233.945,189.834,235.52z"/>
	<path style="fill:#183651;" d="M370.215,423.778v-8.665c-11.028-0.788-21.268-5.514-29.932-13.391l8.665-10.24
		c7.089,5.514,13.391,9.452,21.268,10.24v-23.631c-9.452-2.363-15.754-4.726-19.692-8.665c-3.938-3.938-6.302-8.665-6.302-15.754
		c0-7.089,2.363-12.603,7.089-17.329c4.726-4.726,11.028-7.089,18.905-7.089v-6.302h7.877v6.302
		c8.665,0.788,17.329,3.938,25.206,9.452l-7.877,11.028c-5.514-3.938-11.028-6.302-17.329-7.089v22.843l0,0
		c9.452,2.363,15.754,5.514,20.48,8.665c4.726,3.938,6.302,9.452,6.302,16.542c0,7.089-2.363,12.603-7.877,17.329
		c-4.726,4.726-11.815,7.089-19.692,7.089v8.665H370.215z M361.551,345.797c-2.363,1.575-3.151,3.938-3.151,7.089
		c0,2.363,0.788,4.726,2.363,6.302c1.575,1.575,4.726,3.151,9.452,4.726v-21.268C366.277,342.646,363.914,343.434,361.551,345.797z
		 M387.545,398.572c2.363-1.575,3.151-3.938,3.151-7.089s-0.788-4.726-2.363-7.089c-1.575-1.575-4.726-3.151-10.24-4.726v22.055
		C382.031,401.723,385.182,400.148,387.545,398.572z"/>
</g>
<g>
</g>
<g>
</g>
<g>
</g>
<g>
</g>
<g>
</g>
<g>
</g>
<g>
</g>
<g>
</g>
<g>
</g>
<g>
</g>
<g>
</g>
<g>
</g>
<g>
</g>
<g>
</g>
<g>
</g>
</svg>
