<?xml version="1.0" encoding="iso-8859-1"?>
<!-- Generator: Adobe Illustrator 19.0.0, SVG Export Plug-In . SVG Version: 6.00 Build 0)  -->
<svg version="1.1" id="Capa_1" xmlns="http://www.w3.org/2000/svg" xmlns:xlink="http://www.w3.org/1999/xlink" x="0px" y="0px"
	 viewBox="0 0 504.123 504.123" style="enable-background:new 0 0 504.123 504.123;" xml:space="preserve">
<path style="fill:#2EA0DA;" d="M246.548,504.123c-74.043,0-134.695-60.652-134.695-134.695s60.652-134.695,134.695-134.695
	s134.695,60.652,134.695,134.695S320.591,504.123,246.548,504.123z"/>
<g>
	<rect x="382.818" y="448.985" style="fill:#183651;" width="15.754" height="15.754"/>
	<rect x="421.415" y="448.985" style="fill:#183651;" width="15.754" height="15.754"/>
	<rect x="460.8" y="448.985" style="fill:#183651;" width="15.754" height="15.754"/>
	<rect x="16.542" y="448.985" style="fill:#183651;" width="15.754" height="15.754"/>
	<rect x="55.138" y="448.985" style="fill:#183651;" width="15.754" height="15.754"/>
	<rect x="93.735" y="448.985" style="fill:#183651;" width="15.754" height="15.754"/>
</g>
<path style="fill:#E0E4E8;" d="M460.8,372.578c19.692,0,35.446-15.754,35.446-35.446V43.323c0-19.692-15.754-35.446-35.446-35.446
	H59.077c-19.692,0-35.446,15.754-35.446,35.446v293.022c0,19.692,15.754,35.446,35.446,35.446H460.8V372.578z"/>
<path style="fill:#183651;" d="M460.8,380.455H59.077c-24.418,0-43.323-19.692-43.323-43.323V43.323
	C15.754,19.692,35.446,0,59.077,0H460.8c23.631,0,43.323,19.692,43.323,43.323v293.022
	C504.123,360.763,484.431,380.455,460.8,380.455z M59.077,15.754c-14.966,0-27.569,12.603-27.569,27.569v293.022
	c0,14.966,12.603,27.569,27.569,27.569H460.8c14.966,0,27.569-12.603,27.569-27.569V43.323c0-14.966-12.603-27.569-27.569-27.569
	H59.077z"/>
<polygon style="fill:#FFFFFF;" points="55.138,341.071 55.138,341.071 55.138,39.385 464.738,39.385 464.738,341.071 
	464.738,341.071 "/>
<path style="fill:#E0E4E8;" d="M129.969,128.394H7.877v122.88h122.092c33.871,0,61.44-27.569,61.44-61.44
	S163.84,128.394,129.969,128.394z"/>
<path style="fill:#183651;" d="M129.969,259.938H7.877c-4.726,0-7.877-3.151-7.877-7.877V128.394c0-4.726,3.151-7.877,7.877-7.877
	h122.092c38.597,0,69.317,31.508,69.317,69.317C199.286,228.431,168.566,259.938,129.969,259.938z M15.754,244.185h114.215
	c29.932,0,53.563-24.418,53.563-53.563s-24.418-53.563-53.563-53.563H15.754V244.185z"/>
<path style="fill:#FFFFFF;" d="M39.385,220.554v-59.865h90.585c16.542,0,29.932,13.391,29.932,29.932s-13.391,29.932-29.932,29.932
	L39.385,220.554L39.385,220.554z"/>
<circle style="fill:#183651;" cx="129.182" cy="190.622" r="12.603"/>
<circle style="fill:#FBBD5E;" cx="246.548" cy="369.428" r="107.914"/>
<path style="fill:#183651;" d="M246.548,485.218c-63.803,0-115.791-51.988-115.791-115.791s51.988-115.791,115.791-115.791
	s115.791,51.988,115.791,115.791S310.351,485.218,246.548,485.218z M246.548,269.391c-55.138,0-100.037,44.898-100.037,100.037
	s44.898,100.037,100.037,100.037s100.037-44.898,100.037-100.037S301.686,269.391,246.548,269.391z"/>
<path style="fill:#FFFFFF;" d="M246.548,447.409c-42.535,0-77.194-34.658-77.194-77.194s34.658-77.194,77.194-77.194
	s77.194,34.658,77.194,77.194S289.083,447.409,246.548,447.409z"/>
<g>
	<path style="fill:#FBBD5E;" d="M244.185,408.812v-7.089c-8.665-0.788-16.542-3.938-22.843-10.24l7.089-7.877
		c5.514,4.726,11.028,7.089,16.542,7.877v-18.117c-7.089-1.575-12.603-3.938-15.754-7.089c-3.151-3.151-4.726-7.089-4.726-12.603
		s1.575-10.24,5.514-13.391s8.665-5.514,14.966-5.514v-4.726h6.302v4.726c7.089,0.788,13.391,3.151,19.692,7.089l-7.089,9.452
		c-3.938-3.151-8.665-4.726-13.391-5.514v18.117l0,0c7.089,1.575,12.603,3.938,15.754,7.089c3.151,3.151,4.726,7.089,4.726,12.603
		c0,5.514-1.575,10.24-5.514,13.391c-3.938,3.151-9.452,5.514-15.754,5.514v7.089h-5.514V408.812z M237.883,347.372
		c-1.575,1.575-2.363,3.151-2.363,5.514s0.788,3.938,1.575,4.726c1.575,1.575,3.938,2.363,7.089,3.151v-16.542
		C241.822,345.797,239.458,346.585,237.883,347.372z M257.575,389.12c1.575-1.575,2.363-3.151,2.363-5.514s-0.788-3.938-2.363-5.514
		c-1.575-1.575-3.938-2.363-7.877-3.938v17.329C253.637,391.483,256,390.695,257.575,389.12z"/>
	<circle style="fill:#FBBD5E;" cx="300.898" cy="369.428" r="7.089"/>
	<circle style="fill:#FBBD5E;" cx="191.409" cy="369.428" r="7.089"/>
	<path style="fill:#FBBD5E;" d="M351.311,242.609c-49.625,0-89.797-40.172-89.797-89.797s40.172-89.797,89.797-89.797
		s89.797,40.172,89.797,89.797S400.935,242.609,351.311,242.609z"/>
</g>
<g>
	<path style="fill:#FFFFFF;" d="M348.948,197.711v-7.877c-10.24-0.788-18.905-4.726-26.782-11.815l7.877-9.452
		c6.302,5.514,12.603,8.665,18.905,9.452v-21.268c-7.877-1.575-14.178-4.726-18.117-7.877c-3.938-3.151-5.514-7.877-5.514-14.178
		s2.363-11.815,6.302-15.754c4.726-3.938,10.24-6.302,17.329-6.302v-5.514h7.089v5.514c7.877,0.788,15.754,3.151,22.843,7.877
		l-7.089,10.24c-4.726-3.151-10.24-5.514-15.754-6.302v21.268l0,0c8.665,1.575,14.178,4.726,18.117,7.877
		c3.938,3.151,5.514,7.877,5.514,14.966c0,6.302-2.363,11.815-7.089,15.754c-4.726,3.938-10.24,6.302-18.117,6.302v7.877h-5.514
		V197.711z M341.071,127.606c-1.575,1.575-3.151,3.938-3.151,6.302c0,2.363,0.788,4.726,2.363,5.514
		c1.575,1.575,3.938,3.151,8.665,3.938v-18.905C345.797,125.243,342.646,126.031,341.071,127.606z M363.914,175.655
		c2.363-1.575,3.151-3.938,3.151-6.302c0-2.363-0.788-4.726-2.363-6.302c-1.575-1.575-4.726-3.151-8.665-3.938v19.692
		C359.188,178.018,362.338,177.231,363.914,175.655z"/>
	<circle style="fill:#FFFFFF;" cx="414.326" cy="152.812" r="8.665"/>
	<circle style="fill:#FFFFFF;" cx="287.508" cy="152.812" r="8.665"/>
</g>
<g>
</g>
<g>
</g>
<g>
</g>
<g>
</g>
<g>
</g>
<g>
</g>
<g>
</g>
<g>
</g>
<g>
</g>
<g>
</g>
<g>
</g>
<g>
</g>
<g>
</g>
<g>
</g>
<g>
</g>
</svg>
