<?xml version="1.0" encoding="iso-8859-1"?>
<!-- Generator: Adobe Illustrator 19.0.0, SVG Export Plug-In . SVG Version: 6.00 Build 0)  -->
<svg version="1.1" id="Capa_1" xmlns="http://www.w3.org/2000/svg" xmlns:xlink="http://www.w3.org/1999/xlink" x="0px" y="0px"
	 viewBox="0 0 504.123 504.123" style="enable-background:new 0 0 504.123 504.123;" xml:space="preserve">
<polygon style="fill:#FBBD5E;" points="230.794,207.163 264.665,241.034 434.806,70.892 455.286,91.372 463.951,7.877 
	380.455,16.542 400.935,37.022 "/>
<path style="fill:#183651;" d="M264.665,248.911c-2.363,0-3.938-0.788-5.514-2.363l-33.871-33.871
	c-1.575-1.575-2.363-3.151-2.363-5.514s0.788-3.938,2.363-5.514L389.908,37.022l-14.966-14.966
	c-2.363-2.363-3.151-5.514-1.575-7.877c0.788-3.151,3.938-4.726,6.302-5.514L463.163,0c2.363,0,4.726,0.788,6.302,2.363
	c1.575,1.575,2.363,3.938,2.363,6.302l-8.665,83.495c0,3.151-2.363,5.514-5.514,6.302c-3.151,0.788-6.302,0-7.877-1.575
	L434.806,81.92L270.178,246.548C268.603,248.123,267.028,248.911,264.665,248.911z M242.609,207.163l22.843,22.843l163.84-164.628
	c3.151-3.151,7.877-3.151,11.028,0l8.665,8.665l6.302-57.502l-57.502,6.302l8.665,8.665c1.575,1.575,2.363,3.151,2.363,5.514
	c0,2.363-0.788,4.726-2.363,6.302L242.609,207.163z"/>
<path style="fill:#FFFFFF;" d="M158.326,103.975c0,0-4.726,63.803-66.166,49.625c0,0-29.145-4.726-32.295-38.597l-3.151-9.452
	l-7.877-36.234l33.871-23.631l52.775-14.178l25.206,18.117v39.385L158.326,103.975z"/>
<path style="fill:#183651;" d="M109.489,163.052c-5.514,0-11.815-0.788-18.117-2.363c-11.815-1.575-34.658-13.391-38.597-44.898
	l-2.363-8.665l-7.877-37.022c-0.788-3.151,0-6.302,3.151-7.877l32.295-22.843c0.788-0.788,1.575-0.788,2.363-0.788l52.775-14.178
	c2.363-0.788,4.726,0,7.089,1.575l25.206,17.329c2.363,1.575,3.151,3.938,3.151,6.302v39.385v0.788l-1.575,14.966
	C165.415,124.455,151.237,163.052,109.489,163.052z M58.289,72.468l6.302,31.508l2.363,8.665c0,0.788,0,0.788,0,1.575
	c2.363,27.569,24.418,31.508,25.994,31.508c5.514,1.575,11.028,1.575,14.966,1.575c37.809,0,41.748-42.535,41.748-44.898
	l1.575-14.966V53.563l-18.905-14.178L84.283,52.775L58.289,72.468z"/>
<path style="fill:#F06151;" d="M57.502,105.551c0,0,2.363-9.452-8.665-15.754c0,0-21.268-54.351,29.145-70.892
	c0,0-3.938-3.938-2.363-10.24c0,0,7.089,4.726,42.535,2.363c0,0,23.631,2.363,29.932,21.268c0,0,36.234,0,19.692,56.714
	c0,0-8.665,4.726-7.877,15.754c0,0,7.877-48.837-22.843-42.535c0,0-27.569,13.391-47.262-5.514
	C88.222,55.926,51.988,42.535,57.502,105.551z"/>
<path style="fill:#183651;" d="M57.502,113.428C57.502,113.428,56.714,113.428,57.502,113.428c-4.726,0-7.877-3.151-7.877-7.089
	c0-1.575,0-3.938-0.788-5.514c-0.788-1.575-2.363-3.151-4.726-3.938c-1.575-0.788-3.151-2.363-3.151-3.938
	c0-2.363-11.028-29.932,0.788-54.351c4.726-11.028,13.391-18.905,25.206-24.418c0-2.363-0.788-4.726,0-7.089
	c0-3.151,2.363-5.514,4.726-6.302C74.043,0,77.194,0,79.557,1.575c0,0,4.726,1.575,22.843,1.575c4.726,0,9.452,0,15.754-0.788h0.788
	c0.788,0,24.418,2.363,34.658,22.055c5.514,1.575,13.391,4.726,18.905,11.815c8.665,11.815,10.24,29.932,3.151,53.563
	c-0.788,2.363-1.575,3.938-3.938,4.726l0,0c0,0-2.363,1.575-3.938,4.726c0,3.151-0.788,5.514-0.788,5.514
	c-0.788,3.938-3.938,6.302-7.877,6.302s-7.089-3.151-7.089-7.089c0-2.363,0-4.726,0.788-7.089
	c0.788-11.815-0.788-22.055-4.726-25.994c-2.363-2.363-4.726-2.363-8.665-1.575c-3.151,1.575-12.603,4.726-24.418,4.726
	s-22.055-3.938-29.932-11.028c-0.788,0-2.363-0.788-3.938-0.788c-3.938,0-6.302,0.788-8.665,3.938
	c-3.151,3.938-7.089,11.815-6.302,30.72c1.575,4.726,0.788,9.452,0,10.24C63.803,111.065,60.652,113.428,57.502,113.428z
	 M85.071,18.117c0,0.788,0,1.575,0,2.363c-0.788,2.363-2.363,4.726-5.514,5.514c-11.815,3.938-19.692,10.24-23.631,18.905
	c-3.938,7.877-3.938,16.542-3.938,23.631c1.575-5.514,4.726-10.24,7.877-13.391c5.514-5.514,12.603-8.665,20.48-8.665
	c5.514,0,10.24,1.575,11.028,1.575c0.788,0,1.575,0.788,2.363,1.575c5.514,5.514,12.603,7.877,20.48,7.877
	c10.24,0,18.117-3.938,18.117-3.938c0.788,0,0.788-0.788,1.575-0.788c10.24-2.363,18.117,0,24.418,6.302
	c1.575,2.363,3.151,4.726,4.726,7.089c0.788-9.452-0.788-16.542-3.938-21.268c-4.726-6.302-11.815-6.302-11.815-6.302
	c-3.151,0-6.302-2.363-7.089-5.514c-4.726-12.603-19.692-15.754-22.843-15.754C102.4,18.905,92.16,18.905,85.071,18.117z"/>
<path style="fill:#FFFFFF;" d="M172.505,155.963c-13.391,17.329-33.871,30.72-63.015,30.72c-7.877,0-15.754-0.788-23.631-2.363
	c-11.815-2.363-30.72-10.24-44.111-27.569c-18.905,3.938-33.871,21.268-33.871,41.748v140.997h199.286V197.711
	C207.163,177.231,192.197,159.902,172.505,155.963z"/>
<path style="fill:#183651;" d="M207.163,346.585H7.877c-4.726,0-7.877-3.151-7.877-7.877V197.711
	c0-23.631,16.542-44.111,40.172-48.837c3.151-0.788,6.302,0.788,7.877,3.151c11.815,14.966,27.569,22.843,39.385,25.206
	c34.658,7.877,60.652-1.575,78.769-25.206c1.575-2.363,4.726-3.151,7.877-3.151c23.631,3.938,40.96,25.206,40.96,49.625v140.997
	C215.04,343.434,211.889,346.585,207.163,346.585z M15.754,330.831h183.532v-133.12c0-14.966-9.452-28.357-23.631-32.295
	c-22.055,25.206-54.351,35.446-91.372,26.782c-12.603-2.363-31.508-11.028-44.898-26.782c-13.391,4.726-22.843,18.117-22.843,32.295
	v133.12H15.754z"/>
<path style="fill:#4FBF9F;" d="M39.385,307.2V197.711c16.542,11.815,33.083,16.542,40.172,17.329
	c10.24,2.363,20.48,3.151,29.932,3.151c25.206,0,48.049-7.877,66.166-21.268v0.788V307.2H39.385z"/>
<rect x="44.111" y="338.708" style="fill:#FFFFFF;" width="126.818" height="157.538"/>
<path style="fill:#183651;" d="M170.929,504.123H44.111c-4.726,0-7.877-3.151-7.877-7.877V338.708c0-4.726,3.151-7.877,7.877-7.877
	h126.818c4.726,0,7.877,3.151,7.877,7.877v157.538C178.806,500.972,175.655,504.123,170.929,504.123z M51.988,488.369h111.065
	V346.585H51.988V488.369z"/>
<rect x="75.618" y="346.585" style="fill:#4FBF9F;" width="63.803" height="141.785"/>
<path style="fill:#183651;" d="M107.914,504.123c-4.726,0-7.877-3.151-7.877-7.877V379.668c0-4.726,3.151-7.877,7.877-7.877
	c4.726,0,7.877,3.151,7.877,7.877v116.578C115.791,500.972,111.852,504.123,107.914,504.123z"/>
<rect x="252.062" y="330.831" style="fill:#2CA0DA;" width="52.775" height="165.415"/>
<path style="fill:#183651;" d="M304.837,504.123h-52.775c-4.726,0-7.877-3.151-7.877-7.877V330.831c0-4.726,3.151-7.877,7.877-7.877
	h52.775c4.726,0,7.877,3.151,7.877,7.877v165.415C312.714,500.972,309.563,504.123,304.837,504.123z M259.938,488.369h37.022
	V338.708h-37.022V488.369z"/>
<rect x="347.372" y="252.062" style="fill:#E1E6E7;" width="52.775" height="244.185"/>
<path style="fill:#183651;" d="M400.935,504.123H348.16c-4.726,0-7.877-3.151-7.877-7.877V252.062c0-4.726,3.151-7.877,7.877-7.877
	h52.775c4.726,0,7.877,3.151,7.877,7.877v244.185C408.812,500.972,404.874,504.123,400.935,504.123z M355.249,488.369h37.022
	V259.938h-37.022V488.369z"/>
<rect x="443.471" y="173.292" style="fill:#F06151;" width="52.775" height="322.954"/>
<g>
	<path style="fill:#183651;" d="M496.246,504.123h-52.775c-4.726,0-7.877-3.151-7.877-7.877V173.292
		c0-4.726,3.151-7.877,7.877-7.877h52.775c4.726,0,7.877,3.151,7.877,7.877v322.954
		C504.123,500.972,500.972,504.123,496.246,504.123z M451.348,488.369h37.022v-307.2h-37.022V488.369z"/>
	<rect x="60.652" y="259.151" style="fill:#183651;" width="15.754" height="15.754"/>
	<rect x="100.037" y="259.151" style="fill:#183651;" width="15.754" height="15.754"/>
	<rect x="138.634" y="259.151" style="fill:#183651;" width="15.754" height="15.754"/>
</g>
<g>
</g>
<g>
</g>
<g>
</g>
<g>
</g>
<g>
</g>
<g>
</g>
<g>
</g>
<g>
</g>
<g>
</g>
<g>
</g>
<g>
</g>
<g>
</g>
<g>
</g>
<g>
</g>
<g>
</g>
</svg>
