<?xml version="1.0" encoding="iso-8859-1"?>
<!-- Generator: Adobe Illustrator 19.0.0, SVG Export Plug-In . SVG Version: 6.00 Build 0)  -->
<svg version="1.1" id="Capa_1" xmlns="http://www.w3.org/2000/svg" xmlns:xlink="http://www.w3.org/1999/xlink" x="0px" y="0px"
	 viewBox="0 0 505.291 505.291" style="enable-background:new 0 0 505.291 505.291;" xml:space="preserve">
<circle style="fill:#2CA0DA;" cx="255.521" cy="248.707" r="248.123"/>
<g>
	<rect x="387.854" y="446.418" style="fill:#183651;" width="15.754" height="15.754"/>
	<rect x="387.854" y="399.944" style="fill:#183651;" width="15.754" height="15.754"/>
	<rect x="387.854" y="353.47" style="fill:#183651;" width="15.754" height="15.754"/>
	<rect x="387.854" y="306.996" style="fill:#183651;" width="15.754" height="15.754"/>
	<rect x="387.854" y="260.522" style="fill:#183651;" width="15.754" height="15.754"/>
	<rect x="267.337" y="334.565" style="fill:#183651;" width="15.754" height="15.754"/>
	<rect x="267.337" y="288.092" style="fill:#183651;" width="15.754" height="15.754"/>
	<rect x="267.337" y="241.618" style="fill:#183651;" width="15.754" height="15.754"/>
	<rect x="267.337" y="195.144" style="fill:#183651;" width="15.754" height="15.754"/>
</g>
<polygon style="fill:#E1E6E7;" points="450.869,163.636 405.971,225.864 428.814,225.864 428.814,488.953 473.712,488.953 
	473.712,225.864 496.555,225.864 "/>
<path style="fill:#183651;" d="M473.712,496.83h-44.898c-3.938,0-7.877-3.151-7.877-7.877V233.741h-14.966
	c-3.151,0-5.514-1.575-7.089-3.938c-1.575-2.363-0.788-5.514,0.788-7.877l45.686-62.228c3.151-3.938,9.452-3.938,12.603,0
	l45.686,62.228c1.575,2.363,2.363,5.514,0.788,7.877c-1.575,2.363-3.938,3.938-7.089,3.938h-14.966v256
	C481.589,493.679,477.651,496.83,473.712,496.83z M436.691,481.076h29.145V225.864c0-3.938,3.151-7.877,7.877-7.877h7.877
	l-29.932-40.96l-29.932,40.96h7.877c3.938,0,7.877,3.151,7.877,7.877v255.212H436.691z"/>
<polygon style="fill:#E1E6E7;" points="335.078,86.442 289.392,148.67 313.023,148.67 313.023,488.953 357.134,488.953 
	357.134,148.67 380.764,148.67 "/>
<path style="fill:#183651;" d="M357.134,496.83h-44.898c-3.938,0-7.877-3.151-7.877-7.877V155.759h-14.966
	c-3.151,0-5.514-1.575-7.089-3.938s-0.788-5.514,0.788-7.877l45.686-62.228c3.151-3.938,9.452-3.938,12.603,0l45.686,62.228
	c1.575,2.363,2.363,5.514,0.788,7.877s-3.938,3.938-7.089,3.938h-14.966v333.194C365.011,493.679,361.86,496.83,357.134,496.83z
	 M320.112,481.076h29.145V148.67c0-3.938,3.151-7.877,7.877-7.877h7.877l-29.932-41.748l-29.932,40.96h7.877
	c3.938,0,7.877,3.151,7.877,7.877v333.194H320.112z"/>
<polygon style="fill:#E1E6E7;" points="196.444,183.328 241.343,228.227 241.343,70.688 264.186,70.688 219.287,8.461 
	173.601,70.688 196.444,70.688 "/>
<path style="fill:#183651;" d="M241.343,235.316c-2.363,0-3.938-0.788-5.514-2.363l-44.898-44.898
	c-1.575-1.575-2.363-3.151-2.363-5.514V78.565h-14.966c-3.151,0-5.514-1.575-7.089-3.938c-1.575-2.363-0.788-5.514,0.788-7.877
	l45.686-62.228c3.151-3.938,9.452-3.938,12.603,0l44.898,60.652c0.788,1.575,1.575,3.151,1.575,5.514
	c0,3.938-3.151,7.877-7.877,7.877l0,0H249.22v149.662c0,3.151-1.575,6.302-4.726,7.089
	C243.706,235.316,242.131,235.316,241.343,235.316z M204.321,180.178l29.145,29.145V70.688c0-3.938,3.151-7.877,7.877-7.877h7.877
	l-29.932-40.96l-29.932,40.96h7.877c3.938,0,7.877,3.151,7.877,7.877v109.489H204.321z"/>
<path style="fill:#FFFFFF;" d="M226.377,212.473v76.406c0,33.871-27.569,60.652-60.652,60.652
	c-33.871,0-60.652-27.569-60.652-60.652v-76.406L226.377,212.473L226.377,212.473z"/>
<path style="fill:#183651;" d="M164.937,357.408c-37.809,0-68.529-30.72-68.529-68.529v-76.406c0-3.938,3.151-7.877,7.877-7.877
	h122.092c3.938,0,7.877,3.151,7.877,7.877v76.406C233.466,326.688,202.746,357.408,164.937,357.408z M112.161,220.35v68.529
	c0,29.145,23.631,53.563,53.563,53.563s53.563-23.631,53.563-53.563V220.35L112.161,220.35L112.161,220.35z"/>
<path style="fill:#F06151;" d="M226.377,289.667c0,0,47.262-102.4-14.966-115.003c0,0-36.234-45.686-99.249,0
	c0,0-74.043,13.391-7.877,115.003c0,0,7.089-37.022,0-71.68c24.418,7.089,43.323,30.72,107.126,3.938
	C210.623,221.138,209.047,248.707,226.377,289.667z"/>
<path style="fill:#183651;" d="M104.284,297.544c-2.363,0-4.726-1.575-6.302-3.151c-26.782-40.96-34.658-73.255-24.418-96.886
	c8.665-21.268,29.145-27.569,35.446-29.145c19.692-14.178,38.597-21.268,57.502-21.268c26.782,0,44.111,14.966,49.625,21.268
	c13.391,3.151,23.631,11.028,29.932,22.843c18.117,36.234-11.028,99.249-11.815,102.4c-1.575,3.151-3.938,4.726-7.089,4.726
	c-3.151,0-5.514-1.575-7.089-4.726c-11.028-26.782-14.178-48.049-15.754-59.865c-16.542,6.302-31.508,9.452-44.898,9.452
	c-18.905,0-31.508-5.514-43.323-11.028c-0.788,0-1.575-0.788-1.575-0.788c3.938,31.508-1.575,59.865-1.575,61.44
	c-0.788,3.151-3.151,5.514-6.302,6.302C105.072,297.544,104.284,297.544,104.284,297.544z M210.623,213.261
	c1.575,0,3.151,0.788,4.726,1.575c2.363,1.575,3.151,3.938,3.151,7.089c0,0-0.788,18.117,7.877,45.686
	c7.089-21.268,14.178-51.988,4.726-70.105c-3.938-7.877-11.028-13.391-21.268-14.966c-1.575,0-3.151-1.575-4.726-3.151
	c-0.788-0.788-14.178-17.329-39.385-17.329c-15.754,0-32.295,6.302-49.625,18.905c-0.788,0.788-2.363,0.788-3.151,1.575
	c-0.788,0-18.905,3.938-25.994,20.48c-6.302,14.966-2.363,36.234,11.815,63.015c0.788-13.391,0.788-29.932-3.151-46.474
	c-0.788-2.363,0-5.514,2.363-7.089c2.363-1.575,4.726-2.363,7.089-1.575c5.514,1.575,11.028,3.938,15.754,6.302
	c10.24,4.726,21.268,9.452,36.234,9.452c14.178,0,29.932-3.938,49.625-11.815C209.047,213.261,209.835,213.261,210.623,213.261z"/>
<path style="fill:#FFFFFF;" d="M8.186,496.83h313.502l-17.329-77.982c-5.514-25.206-25.206-44.898-50.412-50.412l-33.871-7.089
	c-14.966,11.815-34.658,18.905-55.138,18.905s-40.172-7.089-55.138-18.905l-33.871,7.089c-25.206,5.514-44.898,25.206-50.412,50.412
	L8.186,496.83z"/>
<path style="fill:#183651;" d="M321.687,504.707H8.186c-2.363,0-4.726-0.788-6.302-3.151c-1.575-1.575-2.363-3.938-1.575-6.302
	l17.329-77.982c6.302-27.569,28.357-49.625,55.926-55.926l33.871-7.089c2.363-0.788,4.726,0,6.302,1.575
	c14.966,11.028,32.295,17.329,50.412,17.329s36.234-5.514,50.412-17.329c1.575-1.575,3.938-1.575,6.302-1.575l33.871,7.089
	c27.569,6.302,50.412,28.357,55.926,55.926l17.329,77.982c0.788,2.363,0,4.726-1.575,6.302
	C326.414,503.919,324.051,504.707,321.687,504.707z M17.638,488.953h294.597l-14.966-68.529
	c-4.726-22.055-22.055-39.385-44.111-44.111l-30.72-6.302c-16.542,11.815-36.234,18.117-56.714,18.117s-40.172-6.302-56.714-18.117
	l-30.72,6.302c-22.055,4.726-39.385,22.055-44.111,44.111L17.638,488.953z"/>
<path style="fill:#FBBD5E;" d="M285.454,467.685l-9.452-41.748c-3.151-13.391-14.178-24.418-27.569-27.569l-22.055-4.726
	c-18.117,11.028-39.385,16.542-61.44,16.542s-42.535-5.514-61.44-16.542l-22.055,4.726c-14.178,3.151-24.418,14.178-27.569,27.569
	l-9.452,41.748H285.454z"/>
<g>
</g>
<g>
</g>
<g>
</g>
<g>
</g>
<g>
</g>
<g>
</g>
<g>
</g>
<g>
</g>
<g>
</g>
<g>
</g>
<g>
</g>
<g>
</g>
<g>
</g>
<g>
</g>
<g>
</g>
</svg>
