<?xml version="1.0" encoding="iso-8859-1"?>
<!-- Generator: Adobe Illustrator 19.0.0, SVG Export Plug-In . SVG Version: 6.00 Build 0)  -->
<svg version="1.1" id="Capa_1" xmlns="http://www.w3.org/2000/svg" xmlns:xlink="http://www.w3.org/1999/xlink" x="0px" y="0px"
	 viewBox="0 0 504.123 504.123" style="enable-background:new 0 0 504.123 504.123;" xml:space="preserve">
<path style="fill:#4FBF9F;" d="M496.246,136.271H7.877v320.591c0,22.055,17.329,39.385,39.385,39.385h409.6
	c22.055,0,39.385-17.329,39.385-39.385V136.271z"/>
<path style="fill:#183651;" d="M456.862,504.123h-409.6C21.268,504.123,0,482.855,0,456.862V136.271
	c0-4.726,3.151-7.877,7.877-7.877h488.369c4.726,0,7.877,3.151,7.877,7.877v320.591
	C504.123,482.855,482.855,504.123,456.862,504.123z M15.754,144.148v312.714c0,17.329,14.178,31.508,31.508,31.508h409.6
	c17.329,0,31.508-14.178,31.508-31.508V144.148H15.754z"/>
<path style="fill:#FFFFFF;" d="M47.262,464.738c-4.726,0-7.877-3.151-7.877-7.877V167.778h425.354v289.083
	c0,4.726-3.151,7.877-7.877,7.877H47.262z"/>
<g>
	<path style="fill:#183651;" d="M228.431,406.449h-34.658V276.48c-12.603,11.815-27.569,20.48-44.111,25.994v-31.508
		c8.665-3.151,18.905-8.665,29.145-16.542c10.24-7.877,18.117-18.117,22.055-28.357h27.569V406.449z"/>
	<path style="fill:#183651;" d="M354.462,406.449h-34.658V276.48c-12.603,11.815-27.569,20.48-44.111,25.994v-31.508
		c8.665-3.151,18.905-8.665,29.145-16.542c10.24-7.877,18.117-18.117,22.055-28.357h27.569V406.449z"/>
</g>
<path style="fill:#FFFFFF;" d="M456.862,7.877h-409.6c-22.055,0-39.385,17.329-39.385,39.385v89.009h488.369V47.262
	C496.246,25.206,478.917,7.877,456.862,7.877z"/>
<path style="fill:#183651;" d="M496.246,144.148H7.877c-4.726,0-7.877-3.151-7.877-7.877V47.262C0,21.268,21.268,0,47.262,0h409.6
	c25.994,0,47.262,21.268,47.262,47.262v89.009C504.123,140.997,500.972,144.148,496.246,144.148z M15.754,128.394h472.615V47.262
	c0-17.329-14.178-31.508-31.508-31.508h-409.6c-17.329,0-31.508,14.178-31.508,31.508V128.394z"/>
<path style="fill:#E0E4E8;" d="M39.385,104.763V47.262c0-4.726,3.151-7.877,7.877-7.877h409.6c4.726,0,7.877,3.151,7.877,7.877
	v57.502H39.385z"/>
<circle style="fill:#FFFFFF;" cx="115.003" cy="72.468" r="23.631"/>
<path style="fill:#183651;" d="M115.003,103.975c-17.329,0-31.508-14.178-31.508-31.508S97.674,40.96,115.003,40.96
	s31.508,14.178,31.508,31.508S132.332,103.975,115.003,103.975z M115.003,56.714c-8.665,0-15.754,7.089-15.754,15.754
	s7.089,15.754,15.754,15.754s15.754-7.089,15.754-15.754S123.668,56.714,115.003,56.714z"/>
<circle style="fill:#FFFFFF;" cx="389.12" cy="72.468" r="23.631"/>
<g>
	<path style="fill:#183651;" d="M389.12,103.975c-17.329,0-31.508-14.178-31.508-31.508S371.791,40.96,389.12,40.96
		c17.329,0,31.508,14.178,31.508,31.508S406.449,103.975,389.12,103.975z M389.12,56.714c-8.665,0-15.754,7.089-15.754,15.754
		s7.089,15.754,15.754,15.754c8.665,0,15.754-7.089,15.754-15.754S397.785,56.714,389.12,56.714z"/>
	<rect x="196.923" y="64.591" style="fill:#183651;" width="15.754" height="15.754"/>
	<rect x="244.185" y="64.591" style="fill:#183651;" width="15.754" height="15.754"/>
	<rect x="291.446" y="64.591" style="fill:#183651;" width="15.754" height="15.754"/>
</g>
<g>
</g>
<g>
</g>
<g>
</g>
<g>
</g>
<g>
</g>
<g>
</g>
<g>
</g>
<g>
</g>
<g>
</g>
<g>
</g>
<g>
</g>
<g>
</g>
<g>
</g>
<g>
</g>
<g>
</g>
</svg>
