<?xml version="1.0" encoding="iso-8859-1"?>
<!-- Generator: Adobe Illustrator 19.0.0, SVG Export Plug-In . SVG Version: 6.00 Build 0)  -->
<svg version="1.1" id="Capa_1" xmlns="http://www.w3.org/2000/svg" xmlns:xlink="http://www.w3.org/1999/xlink" x="0px" y="0px"
	 viewBox="0 0 504.123 504.123" style="enable-background:new 0 0 504.123 504.123;" xml:space="preserve">
<rect x="138.735" y="79.557" style="fill:#E0E4E8;" width="344.222" height="308.775"/>
<path style="fill:#183651;" d="M482.169,395.422H138.735c-4.726,0-7.877-3.151-7.877-7.877V79.557c0-4.726,3.151-7.877,7.877-7.877
	h344.222c4.726,0,7.877,3.151,7.877,7.877v308.775C490.046,392.271,486.895,395.422,482.169,395.422z M146.612,379.668H475.08
	V87.434H146.612V379.668z"/>
<rect x="170.243" y="111.065" style="fill:#FFFFFF;" width="281.206" height="245.76"/>
<path style="fill:#F06151;" d="M493.985,75.618L475.08,7.877h-66.166l14.178,83.495c3.151,17.329,18.117,29.932,35.446,29.932l0,0
	C482.957,122.092,501.074,99.249,493.985,75.618z"/>
<path style="fill:#183651;" d="M459.326,129.969c-22.055,0-40.172-15.754-43.323-37.022L401.825,9.452c0-2.363,0-4.726,1.575-6.302
	S407.339,0,409.702,0h66.166c3.151,0,6.302,2.363,7.877,5.514l18.905,67.742C509.738,101.612,488.471,129.969,459.326,129.969z
	 M418.366,15.754l12.603,74.831c2.363,13.391,14.178,23.631,28.357,23.631c18.905,0,32.295-18.117,27.569-36.234l-17.329-62.228
	C469.566,15.754,418.366,15.754,418.366,15.754z"/>
<path style="fill:#FFFFFF;" d="M459.326,98.462c-6.302,0-11.815-4.726-12.603-10.24l-9.452-56.714h19.692l14.178,50.412
	C473.505,90.585,467.991,98.462,459.326,98.462z"/>
<path style="fill:#FBBD5E;" d="M421.517,79.557l-11.815-71.68h-66.166l4.726,79.557c0.788,18.905,17.329,34.658,36.234,34.658
	C409.702,122.092,424.668,100.825,421.517,79.557z"/>
<path style="fill:#183651;" d="M384.495,129.969c-23.631,0-42.535-18.117-44.111-41.748l-4.726-79.557
	c0-2.363,0.788-3.938,2.363-5.514c1.575-1.575,3.938-2.363,5.514-2.363h66.166c3.938,0,7.089,3.151,7.877,6.302l11.815,71.68
	c2.363,12.603-1.575,25.994-9.452,36.234C411.277,123.668,399.462,129.969,384.495,129.969z M352.2,15.754l3.938,71.68
	c0.788,14.966,13.391,26.782,28.357,26.782c10.24,0,17.329-3.151,22.843-10.24c5.514-6.302,7.877-14.966,6.302-22.843
	l-11.028-65.378C402.612,15.754,352.2,15.754,352.2,15.754z"/>
<path style="fill:#FFFFFF;" d="M371.892,86.646l-3.151-55.138h20.48l8.665,51.988c1.575,7.877-4.726,14.966-12.603,14.966
	C376.618,98.462,371.892,92.948,371.892,86.646z"/>
<path style="fill:#F06151;" d="M343.535,7.877h-66.166l-3.938,75.618c-0.788,20.48,15.754,38.597,36.234,38.597
	c24.418,0,39.385-18.905,37.809-38.597L343.535,7.877z"/>
<path style="fill:#183651;" d="M309.665,129.969c-12.603,0-23.631-4.726-32.295-14.178c-8.665-9.452-12.603-20.48-11.815-33.083
	l3.938-75.618c0-3.938,3.938-7.089,7.877-7.089h66.166c3.938,0,7.877,3.151,7.877,7.089l3.938,75.618
	c0.788,12.603-3.938,23.631-11.815,33.083C334.083,126.031,323.055,129.969,309.665,129.969z M285.246,15.754l-3.938,68.529
	c-0.788,7.877,2.363,15.754,7.877,21.268c5.514,5.514,12.603,8.665,20.48,8.665c8.665,0,15.754-2.363,22.843-8.665
	c5.514-5.514,7.877-13.391,7.877-21.268l-3.938-68.529H285.246z"/>
<path style="fill:#FFFFFF;" d="M309.665,98.462c-7.089,0-13.391-6.302-12.603-13.391l3.151-53.563h21.268l3.151,53.563
	C324.631,92.16,319.905,98.462,309.665,98.462z"/>
<path style="fill:#FBBD5E;" d="M211.991,7.877l-11.815,71.68c-3.938,22.055,13.391,42.535,35.446,42.535
	s36.234-16.542,37.809-34.658l4.726-79.557H211.991z"/>
<path style="fill:#183651;" d="M235.622,129.969c-13.391,0-25.206-5.514-33.871-15.754c-8.665-10.24-11.815-22.843-9.452-36.234
	l11.815-71.68C204.902,2.363,208.052,0,211.991,0h66.166c2.363,0,3.938,0.788,5.514,2.363c1.575,1.575,2.363,3.938,2.363,5.514
	l-4.726,79.557C279.732,110.277,262.403,129.969,235.622,129.969z M218.292,15.754l-11.028,65.378
	c-1.575,7.877,0.788,16.542,6.302,22.843c5.514,6.302,13.391,10.24,22.055,10.24c18.117,0,29.145-12.603,29.932-26.782l3.938-71.68
	H218.292z"/>
<path style="fill:#FFFFFF;" d="M235.622,98.462c-7.877,0-14.178-7.089-12.603-14.966l8.665-51.988h20.48l-3.151,55.138
	C249.012,92.948,244.286,98.462,235.622,98.462z"/>
<path style="fill:#F06151;" d="M145.825,7.877L126.92,75.618c-6.302,23.631,11.028,46.474,34.658,46.474
	c18.117,0,33.083-12.603,35.446-29.932l14.178-83.495h-65.378V7.877z"/>
<path style="fill:#183651;" d="M161.579,129.969c-29.145,0-50.412-27.569-42.535-55.926l18.905-67.742
	c0.788-3.151,3.938-5.514,7.877-5.514h66.166c2.363,0,4.726,0.788,6.302,3.151c1.575,1.575,2.363,3.938,1.575,6.302l-14.178,83.495
	C201.751,114.215,183.634,129.969,161.579,129.969z M152.126,15.754l-17.329,62.228c-5.514,18.117,8.665,36.234,26.782,36.234
	c14.178,0,25.994-10.24,28.357-23.631l12.603-74.831H152.126z"/>
<path style="fill:#FFFFFF;" d="M161.579,98.462c-8.665,0-14.178-7.877-12.603-15.754l14.178-50.412h19.692l-9.452,55.926
	C173.394,93.735,167.88,98.462,161.579,98.462z"/>
<path style="fill:#FBBD5E;" d="M391.585,233.945L391.585,233.945c-21.268,0-38.597,17.329-38.597,38.597v84.283h77.194v-84.283
	C430.182,250.486,412.852,233.945,391.585,233.945z"/>
<g>
	<rect x="200.963" y="191.409" style="fill:#2EA0DA;" width="48.837" height="48.837"/>
	<rect x="261.615" y="191.409" style="fill:#2EA0DA;" width="48.837" height="48.837"/>
	<rect x="261.615" y="252.062" style="fill:#2EA0DA;" width="48.837" height="48.837"/>
	<rect x="200.963" y="252.062" style="fill:#2EA0DA;" width="48.837" height="48.837"/>
</g>
<circle style="fill:#FFFFFF;" cx="415.215" cy="302.474" r="7.089"/>
<g>
	<rect x="349.049" y="175.655" style="fill:#183651;" width="15.754" height="15.754"/>
	<rect x="383.708" y="175.655" style="fill:#183651;" width="15.754" height="15.754"/>
	<rect x="419.154" y="175.655" style="fill:#183651;" width="15.754" height="15.754"/>
</g>
<path style="fill:#FFFFFF;" d="M30.822,359.975c21.268-16.542,41.748-44.111,41.748-44.111l13.391-2.363l63.803,41.748
	c67.742,27.569,51.2,92.16,51.2,92.16c-75.618,63.803-152.025,51.2-191.409,37.022v-77.982
	C8.766,388.332,16.643,371.003,30.822,359.975z"/>
<path style="fill:#183651;" d="M74.145,504.123c-22.843,0-45.686-3.938-67.742-11.815c-3.151-0.788-5.514-3.938-5.514-7.089v-77.982
	c0-20.48,9.452-40.172,25.206-52.775c20.48-15.754,39.385-41.748,40.172-42.535c1.575-1.575,3.151-2.363,4.726-3.151l13.391-2.363
	c2.363,0,3.938,0,5.514,0.788l63.015,40.96c72.468,30.72,55.138,100.825,55.138,101.612c-0.788,1.575-1.575,3.151-2.363,3.938
	C165.517,487.582,121.406,504.123,74.145,504.123z M16.643,478.917c18.905,6.302,38.597,9.452,57.502,9.452
	c42.535,0,82.708-14.966,118.942-44.898c2.363-11.028,7.877-58.289-46.474-81.132c-0.788,0-0.788-0.788-1.575-0.788l-61.44-40.172
	l-7.089,1.575c-5.514,7.089-22.843,28.357-40.96,42.535c-11.815,9.452-19.692,24.418-19.692,40.172v73.255H16.643z"/>
<path style="fill:#F06151;" d="M201.751,419.052c-2.363-20.48-14.178-48.049-51.988-63.015L85.96,314.289l-13.391,2.363
	c0,0-19.692,26.782-41.748,44.111C16.643,371.791,8.766,389.12,8.766,407.237v11.815"/>
<path style="fill:#183651;" d="M201.751,426.142c-3.938,0-7.089-3.151-7.877-7.089c-3.151-25.994-19.692-45.686-47.262-56.714
	c-0.788,0-0.788-0.788-1.575-0.788l-61.44-40.172l-7.089,1.575c-5.514,7.089-22.843,28.357-40.96,42.535
	c-11.815,9.452-19.692,24.418-19.692,40.172v11.815c0,4.726-3.151,7.877-7.877,7.877s-7.877-3.151-7.877-7.877v-11.815
	c0-20.48,9.452-40.172,25.206-52.775c20.48-15.754,39.385-41.748,40.172-42.535c1.575-1.575,3.151-2.363,4.726-3.151l13.391-2.363
	c2.363,0,3.938,0,5.514,0.788l63.015,40.96c40.96,17.329,53.563,47.262,55.926,69.317c0.788,3.938-2.363,7.877-7.089,8.665
	C202.539,426.142,201.751,426.142,201.751,426.142z"/>
<path style="fill:#FBBD5E;" d="M167.88,237.883l-5.514-13.391l-52.775-9.452l-30.72,18.117l-24.418,29.145l2.363,30.72
	l15.754,23.631c15.754,21.268,30.72,33.083,42.535,39.385c14.178,7.877,32.295,3.151,40.96-10.24
	C189.935,293.809,167.88,237.883,167.88,237.883z"/>
<path style="fill:#183651;" d="M130.071,367.852L130.071,367.852c-6.302,0-13.391-1.575-18.905-4.726
	c-15.754-8.665-30.72-22.843-44.898-41.748L50.514,296.96c-0.788-0.788-0.788-2.363-1.575-3.938l-2.363-30.72
	c0-2.363,0.788-3.938,1.575-5.514l24.418-29.145c0.788-0.788,1.575-1.575,2.363-1.575l30.72-18.117
	c1.575-0.788,3.938-1.575,5.514-0.788l52.775,9.452c2.363,0.788,4.726,2.363,5.514,4.726l6.302,12.603
	c0.788,3.151,22.843,60.652-12.603,116.578C156.065,361.551,143.462,367.852,130.071,367.852z M64.692,289.871l14.966,22.055
	c12.603,17.329,26.782,29.932,40.172,37.022c3.151,1.575,7.089,3.151,11.028,3.151c7.877,0,14.966-3.938,18.905-10.24
	c30.72-48.049,11.028-100.825,11.028-101.612l-3.938-8.665l-45.686-8.665l-26.782,15.754l-21.268,25.994L64.692,289.871z"/>
<path style="fill:#E0E4E8;" d="M167.88,237.883c0,0,8.665-15.754,2.363-24.418c-6.302-8.665-80.345-34.658-113.428,7.089
	s15.754,96.886,15.754,96.886s-25.206-37.022-5.514-43.323c0,0,9.452-3.938,15.754,11.028c0,0-5.514-47.262,22.843-48.837
	c0,0,11.815-7.089,36.234,12.603C142.674,249.698,152.914,232.369,167.88,237.883z"/>
<g>
	<path style="fill:#183651;" d="M72.569,324.529c-2.363,0-4.726-0.788-6.302-2.363c-1.575-3.151-51.2-60.652-14.966-107.126
		c13.391-17.329,33.871-25.994,60.652-25.994c27.569,0,59.077,10.24,65.378,18.905c8.665,12.603-0.788,30.72-1.575,33.083
		c-1.575,3.151-5.514,4.726-9.452,3.938c-8.665-3.151-16.542,8.665-16.542,8.665c-0.788,2.363-3.151,3.151-5.514,3.938
		c-2.363,0.788-4.726,0-6.302-1.575c-19.692-15.754-27.569-11.815-27.569-11.815c-0.788,0.788-2.363,0.788-3.151,0.788
		c-3.938,0-7.089,1.575-9.452,3.938c-7.089,8.665-7.089,26.782-6.302,33.871c0,0.788,0,1.575,0,2.363
		c0,4.726-3.151,7.877-7.877,7.877l0,0c-3.151,0-6.302-1.575-7.089-4.726c-2.363-5.514-4.726-7.089-5.514-7.089
		c-1.575,0.788-2.363,0.788-2.363,1.575c-1.575,5.514,4.726,18.905,10.24,27.569c1.575,1.575,2.363,3.151,2.363,5.514
		C80.446,320.591,77.295,324.529,72.569,324.529L72.569,324.529z M111.166,204.8c-21.268,0-37.809,7.089-48.049,19.692
		C51.302,239.458,52.089,256,56.028,270.966c2.363-2.363,4.726-3.938,7.877-4.726c1.575-0.788,5.514-1.575,11.028,0
		c0.788-9.452,3.151-20.48,10.24-28.357c4.726-5.514,11.028-8.665,18.905-9.452c1.575-0.788,4.726-1.575,7.877-1.575
		c8.665,0,18.117,3.938,29.145,11.028c4.726-4.726,12.603-10.24,22.055-10.24c1.575-3.938,2.363-8.665,0.788-11.028
		C160.791,214.252,137.16,204.8,111.166,204.8z"/>
	<rect x="48.151" y="441.108" style="fill:#183651;" width="15.754" height="15.754"/>
	<rect x="83.597" y="441.108" style="fill:#183651;" width="15.754" height="15.754"/>
	<rect x="119.043" y="441.108" style="fill:#183651;" width="15.754" height="15.754"/>
</g>
<g>
</g>
<g>
</g>
<g>
</g>
<g>
</g>
<g>
</g>
<g>
</g>
<g>
</g>
<g>
</g>
<g>
</g>
<g>
</g>
<g>
</g>
<g>
</g>
<g>
</g>
<g>
</g>
<g>
</g>
</svg>
