<?xml version="1.0" encoding="iso-8859-1"?>
<!-- Generator: Adobe Illustrator 19.0.0, SVG Export Plug-In . SVG Version: 6.00 Build 0)  -->
<svg version="1.1" id="Capa_1" xmlns="http://www.w3.org/2000/svg" xmlns:xlink="http://www.w3.org/1999/xlink" x="0px" y="0px"
	 viewBox="0 0 504.943 504.943" style="enable-background:new 0 0 504.943 504.943;" xml:space="preserve">
<path style="fill:#FFFFFF;" d="M266.272,492.717h193.772c20.48,0,37.022-16.542,37.022-37.022V163.462
	c0-20.48-16.542-37.022-37.022-37.022H266.272c-20.48,0-37.022,16.542-37.022,37.022v293.022
	C229.25,476.176,245.792,492.717,266.272,492.717z"/>
<path style="fill:#183651;" d="M460.832,500.594H265.484c-24.418,0-44.111-19.692-44.111-44.111V162.674
	c0-24.418,19.692-44.111,44.111-44.111h195.348c24.418,0,44.111,19.692,44.111,44.111v293.809
	C504.943,480.902,485.25,500.594,460.832,500.594z M265.484,134.318c-15.754,0-28.357,12.603-28.357,28.357v293.809
	c0,15.754,12.603,28.357,28.357,28.357h195.348c15.754,0,28.357-12.603,28.357-28.357V162.674c0-15.754-12.603-28.357-28.357-28.357
	H265.484z"/>
<rect x="260.758" y="180.791" style="fill:#2EA0DA;" width="205.588" height="242.609"/>
<circle style="fill:#FFFFFF;" cx="362.37" cy="303.671" r="63.803"/>
<path style="fill:#183651;" d="M362.37,375.351c-39.385,0-71.68-32.295-71.68-71.68s32.295-71.68,71.68-71.68
	s71.68,32.295,71.68,71.68S401.755,375.351,362.37,375.351z M362.37,247.745c-30.72,0-55.926,25.206-55.926,55.926
	s25.206,55.926,55.926,55.926s55.926-25.206,55.926-55.926C418.297,272.951,393.09,247.745,362.37,247.745z"/>
<circle style="fill:#F06151;" cx="362.37" cy="303.671" r="23.631"/>
<path style="fill:#E0E4E8;" d="M66.986,93.357h273.329c51.988,0,103.188-14.178,148.874-40.172
	c-44.898-26.782-96.098-40.96-148.086-40.96H66.986V93.357z"/>
<path style="fill:#183651;" d="M66.986,100.447c-2.363,0-3.938-0.788-5.514-2.363s-2.363-3.151-2.363-5.514V12.225
	c0-3.938,3.151-7.877,7.877-7.877h273.329c54.351,0,107.126,14.178,152.812,41.748c2.363,1.575,3.938,3.938,3.938,6.302
	s-1.575,5.514-3.938,7.089c-46.474,26.782-99.249,41.748-152.812,41.748L66.986,100.447z M74.863,20.102v65.378h266.24
	c46.474,0,91.372-11.028,132.332-32.295c-40.96-22.055-86.646-33.083-132.332-33.083H74.863z"/>
<g>
	<path style="fill:#FFFFFF;" d="M422.235,52.397c-25.994,8.665-53.563,12.603-81.132,12.603H95.343V39.794h245.76
		C368.672,39.794,396.241,44.521,422.235,52.397z"/>
	<rect x="8.697" y="26.404" style="fill:#FFFFFF;" width="58.289" height="51.988"/>
</g>
<path style="fill:#183651;" d="M66.986,86.268H8.697c-3.938,0-7.877-3.151-7.877-7.877V26.404c0-3.938,3.151-7.877,7.877-7.877
	h58.289c3.938,0,7.877,3.151,7.877,7.877v51.988C74.863,83.118,71.712,86.268,66.986,86.268z M16.573,71.302h43.323V34.281H16.573
	V71.302z"/>
<rect x="8.697" y="326.514" style="fill:#FFFFFF;" width="259.938" height="166.203"/>
<path style="fill:#183651;" d="M268.635,500.594H8.697c-3.938,0-7.877-3.151-7.877-7.877V326.514c0-3.938,3.151-7.877,7.877-7.877
	h259.938c3.938,0,7.877,3.151,7.877,7.877v166.203C276.512,496.656,272.573,500.594,268.635,500.594z M16.573,484.841h244.185
	V334.391H16.573V484.841z"/>
<polygon style="fill:#FBBD5E;" points="268.635,492.717 138.666,384.804 8.697,492.717 "/>
<path style="fill:#183651;" d="M268.635,500.594H8.697c-3.151,0-6.302-2.363-7.089-4.726c-0.788-3.151,0-6.302,2.363-8.665
	L133.94,379.29c3.151-2.363,7.089-2.363,10.24,0l129.969,107.914c2.363,2.363,3.151,5.514,2.363,8.665
	C274.937,498.231,271.786,500.594,268.635,500.594z M29.964,484.841h217.403l-108.702-90.585L29.964,484.841z"/>
<path style="fill:#FBBD5E;" d="M8.697,326.514l114.215,118.154c8.665,8.665,23.631,8.665,32.295,0l114.215-118.154H8.697z"/>
<path style="fill:#183651;" d="M138.666,458.847c-7.877,0-15.754-3.151-22.055-8.665L2.395,332.028
	c-2.363-2.363-3.151-5.514-1.575-8.665c1.575-3.151,3.938-4.726,7.089-4.726h259.938c3.151,0,6.302,1.575,7.089,4.726
	c1.575,3.151,0.788,6.302-1.575,8.665L159.146,450.182C154.42,455.696,146.543,458.847,138.666,458.847z M26.813,334.391
	l101.612,104.763c5.514,5.514,15.754,5.514,21.268,0l101.612-104.763H26.813z"/>
<g>
	<circle style="fill:#E0E4E8;" cx="363.158" cy="454.121" r="15.754"/>
	<path style="fill:#E0E4E8;" d="M392.303,149.284H331.65c-4.726,0-7.877,3.938-7.877,7.877s3.938,7.877,7.877,7.877h60.652
		c4.726,0,7.877-3.938,7.877-7.877S397.029,149.284,392.303,149.284z"/>
</g>
<path style="fill:#FFFFFF;" d="M173.324,217.025v-26.782l-19.692-2.363c-1.575-6.302-3.938-12.603-7.089-18.117l11.815-15.754
	l-18.905-18.905L123.7,146.921c-5.514-3.151-11.815-5.514-18.117-7.089l-2.363-19.692H76.438l-0.788,21.268
	c-6.302,1.575-12.603,3.938-18.117,7.089L41.78,136.681l-18.905,18.905l11.815,15.754c-3.151,5.514-5.514,11.815-7.089,18.117
	l-19.692,2.363v25.206l20.48,2.363c1.575,6.302,3.938,12.603,7.089,18.117l-11.815,15.754l18.905,18.905l15.754-11.815
	c5.514,3.151,11.815,5.514,18.117,7.089l2.363,19.692h26.782l2.363-19.692c6.302-1.575,12.603-3.938,18.117-7.089l15.754,11.815
	l18.905-18.905l-11.815-15.754c3.151-5.514,5.514-11.815,7.089-18.117L173.324,217.025z"/>
<path style="fill:#183651;" d="M104.007,294.219H77.226c-3.938,0-7.089-3.151-7.877-7.089l-1.575-14.178
	c-3.151-0.788-7.089-2.363-10.24-3.938l-11.815,8.665c-2.363,2.363-6.302,2.363-9.452-0.788l-18.905-18.905
	c-3.151-3.151-3.151-7.089-0.788-10.24l8.665-11.815c-1.575-3.151-3.151-6.302-3.938-10.24l-13.391-0.788
	c-3.938-0.788-7.089-3.938-7.089-7.877v-26.782c0-3.938,3.151-7.089,7.089-7.877l14.178-1.575c0.788-3.151,2.363-7.089,3.938-10.24
	l-8.665-11.815c-2.363-3.151-2.363-7.877,0.788-10.24l18.117-17.329c3.151-3.151,7.089-3.151,10.24-0.788l11.815,8.665
	c3.151-1.575,6.302-3.151,10.24-3.938l1.575-14.178c0.788-3.938,3.938-7.089,7.877-7.089h26.782c3.938,0,7.089,3.151,7.877,7.089
	l1.575,14.178c3.151,0.788,7.089,2.363,10.24,3.938l11.815-8.665c3.151-2.363,7.877-2.363,10.24,0.788l18.905,18.905
	c3.151,3.151,3.151,7.089,0.788,10.24l-8.665,11.815c1.575,3.151,3.151,6.302,3.938,10.24l14.178,1.575
	c3.938,0.788,7.089,3.938,7.089,7.877v25.206c0,3.938-3.151,7.089-7.089,7.877l-14.178,1.575c-0.788,3.151-2.363,7.089-3.938,10.24
	l8.665,11.815c2.363,3.151,2.363,7.877-0.788,10.24l-18.905,18.905c-3.151,3.151-7.089,3.151-10.24,0.788l-11.815-8.665
	c-3.151,1.575-6.302,3.151-10.24,3.938l-1.575,14.178C111.097,291.068,107.946,294.219,104.007,294.219z M84.315,278.465h12.603
	l1.575-12.603c0-3.151,2.363-5.514,5.514-6.302c5.514-1.575,11.028-3.938,15.754-6.302c3.151-1.575,6.302-1.575,8.665,0.788
	l10.24,7.877l8.665-8.665l-7.877-10.24c-2.363-2.363-2.363-6.302-0.788-8.665c3.151-4.726,4.726-10.24,6.302-15.754
	c0.788-3.151,3.151-5.514,6.302-5.514l12.603-1.575v-12.603l-12.603-1.575c-3.151,0-5.514-2.363-6.302-5.514
	c-1.575-5.514-3.938-11.028-6.302-15.754c-1.575-3.151-1.575-6.302,0.788-8.665l7.877-10.24l-8.665-8.665l-10.24,7.877
	c-2.363,2.363-6.302,2.363-8.665,0.788c-4.726-3.151-10.24-4.726-15.754-6.302c-3.151-0.788-5.514-3.151-5.514-6.302l-1.575-12.603
	H84.315l-1.575,12.603c0,3.151-2.363,5.514-5.514,6.302c-5.514,1.575-11.028,3.938-15.754,6.302
	c-2.363,1.575-6.302,1.575-8.665-0.788l-10.24-7.877l-8.665,8.665l7.877,10.24c2.363,2.363,2.363,6.302,0.788,8.665
	c-3.151,4.726-4.726,10.24-6.302,15.754c-0.788,3.151-3.151,5.514-6.302,5.514l-12.603,1.575v12.603l12.603,1.575
	c3.151,0,5.514,2.363,6.302,5.514c1.575,5.514,3.938,11.028,6.302,15.754c1.575,3.151,1.575,6.302-0.788,8.665l-7.877,10.24
	l8.665,8.665l10.24-7.877c2.363-2.363,6.302-2.363,8.665-0.788c4.726,3.151,10.24,4.726,15.754,6.302
	c3.151,0.788,5.514,3.151,5.514,6.302L84.315,278.465z"/>
<circle style="fill:#F06151;" cx="90.617" cy="203.634" r="42.535"/>
<circle style="fill:#FFFFFF;" cx="90.617" cy="203.634" r="17.329"/>
<path style="fill:#183651;" d="M90.617,228.841c-14.178,0-25.206-11.028-25.206-25.206c0-14.178,11.028-25.206,25.206-25.206
	s25.206,11.028,25.206,25.206C115.823,217.813,104.795,228.841,90.617,228.841z M90.617,194.182c-5.514,0-9.452,4.726-9.452,9.452
	c0,5.514,4.726,9.452,9.452,9.452c5.514,0,9.452-4.726,9.452-9.452C100.857,198.121,96.13,194.182,90.617,194.182z"/>
<g>
</g>
<g>
</g>
<g>
</g>
<g>
</g>
<g>
</g>
<g>
</g>
<g>
</g>
<g>
</g>
<g>
</g>
<g>
</g>
<g>
</g>
<g>
</g>
<g>
</g>
<g>
</g>
<g>
</g>
</svg>
