<?xml version="1.0" encoding="iso-8859-1"?>
<!-- Generator: Adobe Illustrator 19.0.0, SVG Export Plug-In . SVG Version: 6.00 Build 0)  -->
<svg version="1.1" id="Capa_1" xmlns="http://www.w3.org/2000/svg" xmlns:xlink="http://www.w3.org/1999/xlink" x="0px" y="0px"
	 viewBox="0 0 504.123 504.123" style="enable-background:new 0 0 504.123 504.123;" xml:space="preserve">
<circle style="fill:#E0E4E8;" cx="252.062" cy="252.062" r="252.062"/>
<path style="fill:#FFFFFF;" d="M367.065,46.474H31.508c-13.391,0-23.631,10.24-23.631,23.631v43.323h382.818V70.105
	C390.695,56.714,380.455,46.474,367.065,46.474z"/>
<path style="fill:#183651;" d="M390.695,121.305H7.877c-4.726,0-7.877-3.151-7.877-7.877V70.105
	c0-17.329,14.178-31.508,31.508-31.508h335.557c17.329,0,31.508,14.178,31.508,31.508v43.323
	C398.572,118.154,395.422,121.305,390.695,121.305z M15.754,105.551h367.065V70.105c0-8.665-7.089-15.754-15.754-15.754H31.508
	c-8.665,0-15.754,7.089-15.754,15.754V105.551z"/>
<path style="fill:#FFFFFF;" d="M7.877,113.428v217.403c0,13.391,10.24,23.631,23.631,23.631h335.557
	c13.391,0,23.631-10.24,23.631-23.631V113.428H7.877z"/>
<path style="fill:#183651;" d="M367.065,362.338H31.508C14.178,362.338,0,348.16,0,330.831V113.428c0-4.726,3.151-7.877,7.877-7.877
	h382.818c4.726,0,7.877,3.151,7.877,7.877v217.403C398.572,348.16,384.394,362.338,367.065,362.338z M15.754,121.305v209.526
	c0,8.665,7.089,15.754,15.754,15.754h335.557c8.665,0,15.754-7.089,15.754-15.754V121.305H15.754z"/>
<path style="fill:#FFFFFF;" d="M80.345,7.877c-10.24,0-19.692,8.665-19.692,19.692v37.809c0,11.028,8.665,19.692,19.692,19.692
	s19.692-8.665,19.692-19.692V27.569C100.037,16.542,91.372,7.877,80.345,7.877z"/>
<path style="fill:#183651;" d="M80.345,92.948c-14.966,0-27.569-12.603-27.569-27.569V27.569C52.775,12.603,65.378,0,80.345,0
	s27.569,12.603,27.569,27.569v37.809C107.914,80.345,96.098,92.948,80.345,92.948z M80.345,15.754
	c-6.302,0-11.815,5.514-11.815,11.815v37.809c0,6.302,5.514,11.815,11.815,11.815c6.302,0,11.815-5.514,11.815-11.815V27.569
	C92.16,21.268,87.434,15.754,80.345,15.754z"/>
<path style="fill:#FFFFFF;" d="M318.228,7.877c-11.028,0-19.692,8.665-19.692,19.692v37.809c0,11.028,8.665,19.692,19.692,19.692
	c11.028,0,19.692-8.665,19.692-19.692V27.569C337.92,16.542,329.255,7.877,318.228,7.877z"/>
<path style="fill:#183651;" d="M318.228,92.948c-14.966,0-27.569-12.603-27.569-27.569V27.569C290.658,12.603,303.262,0,318.228,0
	c14.966,0,27.569,12.603,27.569,27.569v37.809C345.797,80.345,333.194,92.948,318.228,92.948z M318.228,15.754
	c-6.302,0-11.815,5.514-11.815,11.815v37.809c0,6.302,5.514,11.815,11.815,11.815c6.302,0,11.815-5.514,11.815-11.815V27.569
	C330.043,21.268,324.529,15.754,318.228,15.754z"/>
<g>
	<rect x="152.812" y="144.935" style="fill:#FBBD5E;" width="37.022" height="33.083"/>
	<rect x="208.738" y="144.935" style="fill:#FBBD5E;" width="37.022" height="33.083"/>
	<rect x="265.452" y="144.935" style="fill:#FBBD5E;" width="37.022" height="33.083"/>
	<rect x="322.166" y="144.935" style="fill:#FBBD5E;" width="37.022" height="33.083"/>
	<rect x="39.385" y="192.985" style="fill:#FBBD5E;" width="37.022" height="33.083"/>
</g>
<rect x="96.098" y="192.985" style="fill:#F06151;" width="37.022" height="33.083"/>
<g>
	<rect x="152.812" y="192.985" style="fill:#FBBD5E;" width="37.022" height="33.083"/>
	<rect x="208.738" y="192.985" style="fill:#FBBD5E;" width="37.022" height="33.083"/>
	<rect x="265.452" y="192.985" style="fill:#FBBD5E;" width="37.022" height="33.083"/>
	<rect x="322.166" y="192.985" style="fill:#FBBD5E;" width="37.022" height="33.083"/>
	<rect x="39.385" y="241.822" style="fill:#FBBD5E;" width="37.022" height="33.083"/>
	<rect x="96.098" y="241.822" style="fill:#FBBD5E;" width="37.022" height="33.083"/>
	<rect x="152.812" y="241.822" style="fill:#FBBD5E;" width="37.022" height="33.083"/>
	<rect x="208.738" y="241.822" style="fill:#FBBD5E;" width="37.022" height="33.083"/>
</g>
<rect x="265.452" y="241.822" style="fill:#F06151;" width="37.022" height="33.083"/>
<g>
	<rect x="322.166" y="241.822" style="fill:#FBBD5E;" width="37.022" height="33.083"/>
	<rect x="39.385" y="289.871" style="fill:#FBBD5E;" width="37.022" height="33.083"/>
	<rect x="96.098" y="289.871" style="fill:#FBBD5E;" width="37.022" height="33.083"/>
</g>
<rect x="191.409" y="312.714" style="fill:#4FBF9F;" width="304.837" height="183.532"/>
<path style="fill:#183651;" d="M496.246,504.123H191.409c-4.726,0-7.877-3.151-7.877-7.877V312.714c0-4.726,3.151-7.877,7.877-7.877
	h304.837c4.726,0,7.877,3.151,7.877,7.877v183.532C504.123,500.972,500.972,504.123,496.246,504.123z M199.286,488.369h289.083
	V320.591H199.286V488.369z"/>
<path style="fill:#FFFFFF;" d="M222.917,441.108v-73.255c13.391,0,23.631-10.24,23.631-23.631h194.56
	c0,13.391,10.24,23.631,23.631,23.631v73.255c-13.391,0-23.631,10.24-23.631,23.631h-194.56
	C246.548,451.348,236.308,441.108,222.917,441.108z"/>
<ellipse style="fill:#4FBF9F;" cx="344.222" cy="404.874" rx="37.022" ry="49.625"/>
<g>
	<path style="fill:#183651;" d="M342.646,429.292v-3.938c-5.514-0.788-10.24-2.363-14.966-6.302l3.938-5.514
		c3.151,3.151,7.089,4.726,10.24,5.514v-11.815c-4.726-0.788-7.877-2.363-9.452-3.938c-2.363-1.575-3.151-3.938-3.151-7.877
		c0-3.151,1.575-6.302,3.938-8.665c2.363-2.363,5.514-3.151,9.452-3.938v-3.151h3.938v3.151c4.726,0,8.665,1.575,12.603,4.726
		l-3.938,5.514c-2.363-1.575-5.514-3.151-8.665-3.151v11.028l0,0c4.726,0.788,7.877,2.363,10.24,3.938
		c2.363,1.575,3.151,4.726,3.151,7.877c0,3.151-1.575,6.302-3.938,8.665s-5.514,3.151-9.452,3.938v3.938H342.646z M338.708,390.695
		c-0.788,0.788-1.575,2.363-1.575,3.151c0,1.575,0,2.363,1.575,3.151c0.788,0.788,2.363,1.575,4.726,2.363v-10.24
		C341.071,389.12,339.495,389.908,338.708,390.695z M350.523,416.689c0.788-0.788,1.575-2.363,1.575-3.151
		c0-1.575-0.788-2.363-1.575-3.151c-0.788-0.788-2.363-1.575-4.726-2.363v11.028C348.16,418.265,349.735,417.477,350.523,416.689z"
		/>
	<circle style="fill:#183651;" cx="433.231" cy="404.874" r="9.452"/>
	<circle style="fill:#183651;" cx="254.425" cy="404.874" r="9.452"/>
	<rect x="137.846" y="72.468" style="fill:#183651;" width="15.754" height="15.754"/>
	<rect x="191.409" y="72.468" style="fill:#183651;" width="15.754" height="15.754"/>
	<rect x="244.972" y="72.468" style="fill:#183651;" width="15.754" height="15.754"/>
</g>
<g>
</g>
<g>
</g>
<g>
</g>
<g>
</g>
<g>
</g>
<g>
</g>
<g>
</g>
<g>
</g>
<g>
</g>
<g>
</g>
<g>
</g>
<g>
</g>
<g>
</g>
<g>
</g>
<g>
</g>
</svg>
