<?xml version="1.0" encoding="iso-8859-1"?>
<!-- Generator: Adobe Illustrator 19.0.0, SVG Export Plug-In . SVG Version: 6.00 Build 0)  -->
<svg version="1.1" id="Capa_1" xmlns="http://www.w3.org/2000/svg" xmlns:xlink="http://www.w3.org/1999/xlink" x="0px" y="0px"
	 viewBox="0 0 504.155 504.155" style="enable-background:new 0 0 504.155 504.155;" xml:space="preserve">
<circle style="fill:#FBBD5E;" cx="252.077" cy="252.093" r="252.062"/>
<polygon style="fill:#E1E6E7;" points="414.342,7.909 234.748,7.909 234.748,334.801 493.111,334.801 493.111,86.678 "/>
<path style="fill:#183651;" d="M493.111,342.678H234.748c-3.938,0-7.877-3.151-7.877-7.877V7.909c0-3.938,3.151-7.877,7.877-7.877
	h179.594c2.363,0,3.938,0.788,5.514,2.363l78.769,78.769c1.575,1.575,2.363,3.151,2.363,5.514v248.123
	C500.988,339.527,497.05,342.678,493.111,342.678z M242.625,326.924h242.609V89.829l-74.043-74.043H242.625V326.924z"/>
<polygon style="fill:#FFFFFF;" points="266.256,303.293 266.256,39.417 400.951,39.417 461.604,99.281 461.604,303.293 "/>
<g>
	<rect x="289.099" y="71.712" style="fill:#183651;" width="15.754" height="15.754"/>
	<rect x="328.484" y="71.712" style="fill:#183651;" width="15.754" height="15.754"/>
	<rect x="367.081" y="71.712" style="fill:#183651;" width="15.754" height="15.754"/>
	<rect x="289.099" y="111.097" style="fill:#183651;" width="91.372" height="15.754"/>
	<rect x="289.099" y="150.481" style="fill:#183651;" width="91.372" height="15.754"/>
</g>
<circle style="fill:#FFFFFF;" cx="115.019" cy="115.035" r="92.948"/>
<path style="fill:#183651;" d="M115.019,215.86c-55.138,0-100.825-44.898-100.825-100.825S59.881,14.998,115.019,14.998
	s100.825,44.898,100.825,100.825S170.945,215.86,115.019,215.86z M115.019,29.964c-46.474,0-85.071,38.597-85.071,85.071
	s37.809,85.071,85.071,85.071c46.474,0,85.071-37.809,85.071-85.071C200.09,68.561,162.281,29.964,115.019,29.964z"/>
<path style="fill:#FBBD5E;" d="M181.185,115.035c0-36.234-29.145-66.166-66.166-66.166c-18.117,0-34.658,7.089-46.474,18.905
	l46.474,46.474L181.185,115.035z"/>
<path style="fill:#4FBF9F;" d="M115.019,181.201c36.234,0,66.166-29.145,66.166-66.166h-66.166V181.201z"/>
<path style="fill:#E1E6E7;" d="M68.545,68.561C56.73,80.377,49.641,96.918,49.641,115.035h66.166L68.545,68.561z"/>
<path style="fill:#F06151;" d="M115.019,181.201v-66.166H48.853C49.641,151.269,78.785,181.201,115.019,181.201z"/>
<rect x="296.976" y="264.697" style="fill:#FFFFFF;" width="52.775" height="228.431"/>
<path style="fill:#183651;" d="M349.751,501.004h-52.775c-3.938,0-7.877-3.151-7.877-7.877V264.697c0-3.938,3.151-7.877,7.877-7.877
	h52.775c3.938,0,7.877,3.151,7.877,7.877v228.431C357.628,497.066,354.478,501.004,349.751,501.004z M304.853,485.25h37.809V271.786
	h-37.809V485.25z"/>
<rect x="200.878" y="303.293" style="fill:#F06151;" width="52.775" height="189.834"/>
<path style="fill:#183651;" d="M253.653,501.004h-52.775c-3.938,0-7.877-3.151-7.877-7.877V303.293c0-3.938,3.151-7.877,7.877-7.877
	h52.775c3.938,0,7.877,3.151,7.877,7.877v189.834C261.53,497.066,258.379,501.004,253.653,501.004z M207.967,485.25h37.809V311.17
	h-37.809L207.967,485.25L207.967,485.25z"/>
<rect x="103.991" y="373.398" style="fill:#E1E6E7;" width="52.775" height="118.942"/>
<path style="fill:#183651;" d="M157.554,501.004h-52.775c-3.938,0-7.877-3.151-7.877-7.877V373.398c0-3.938,3.151-7.877,7.877-7.877
	h52.775c3.938,0,7.877,3.151,7.877,7.877V492.34C165.431,497.066,161.493,501.004,157.554,501.004z M111.868,485.25h37.809V381.275
	h-37.809V485.25z"/>
<rect x="7.893" y="326.137" style="fill:#2CA0DA;" width="52.775" height="166.991"/>
<path style="fill:#183651;" d="M60.668,501.004H7.893c-3.938,0-7.877-3.151-7.877-7.877V326.137c0-3.938,3.151-7.877,7.877-7.877
	h52.775c3.938,0,7.877,3.151,7.877,7.877v166.991C68.545,497.066,65.394,501.004,60.668,501.004z M15.77,485.25h37.809V333.226
	H15.77V485.25z"/>
<polygon style="fill:#F06151;" points="414.342,86.678 493.111,86.678 414.342,7.909 "/>
<path style="fill:#183651;" d="M493.111,94.555L493.111,94.555h-78.769c-3.938,0-7.877-3.151-7.877-7.877V7.909
	c0-3.151,1.575-6.302,4.726-7.089c3.151-1.575,6.302-0.788,8.665,1.575l78.769,78.769c2.363,2.363,3.151,5.514,1.575,8.665
	C498.625,92.192,496.262,94.555,493.111,94.555z M422.219,78.801h51.988l-51.988-51.988V78.801z"/>
<g>
</g>
<g>
</g>
<g>
</g>
<g>
</g>
<g>
</g>
<g>
</g>
<g>
</g>
<g>
</g>
<g>
</g>
<g>
</g>
<g>
</g>
<g>
</g>
<g>
</g>
<g>
</g>
<g>
</g>
</svg>
