<?xml version="1.0" encoding="iso-8859-1"?>
<!-- Generator: Adobe Illustrator 19.0.0, SVG Export Plug-In . SVG Version: 6.00 Build 0)  -->
<svg version="1.1" id="Capa_1" xmlns="http://www.w3.org/2000/svg" xmlns:xlink="http://www.w3.org/1999/xlink" x="0px" y="0px"
	 viewBox="0 0 504.2 504.2" style="enable-background:new 0 0 504.2 504.2;" xml:space="preserve">
<circle style="fill:#2EA0DA;" cx="271.05" cy="343.5" r="160.7"/>
<path style="fill:#FBBD5E;" d="M472.75,7.9H31.55c-13.4,0-23.6,10.2-23.6,23.6v300.9c0,13.4,10.2,23.6,23.6,23.6h441.1
	c13.4,0,23.6-10.2,23.6-23.6V31.5C496.35,18.2,486.05,7.9,472.75,7.9z"/>
<path style="fill:#183651;" d="M472.75,364H31.55c-17.3,0-31.5-14.2-31.5-31.5v-301C0.05,14.2,14.25,0,31.55,0h441.1
	c17.3,0,31.5,14.2,31.5,31.5v300.9C504.25,349.8,490.05,364,472.75,364z M31.55,15.8c-8.7,0-15.8,7.1-15.8,15.8v300.9
	c0,8.7,7.1,15.8,15.8,15.8h441.1c8.7,0,15.8-7.1,15.8-15.8v-301c0-8.7-7.1-15.8-15.8-15.8H31.55V15.8z"/>
<rect x="39.45" y="39.4" style="fill:#FFFFFF;" width="425.4" height="285.1"/>
<path style="fill:#E0E4E8;" d="M327.75,290.7L327.75,290.7c-9.5,0-16.5,7.1-16.5,16.5v-8.7c0-8.7-6.3-16.5-15-17.3
	c-10.2-0.8-18.1,7.1-18.1,16.5v-8.6c0-8.7-6.3-16.5-15-17.3c-10.2-0.8-18.1,7.1-18.1,16.5v-48c0-8.7-6.3-16.5-15-17.3
	c-10.2-0.8-18.1,7.1-18.1,16.5v87.4c0-9.5-8.7-17.3-18.1-16.5c-8.7,0.8-15,8.7-15,17.3v44.9c0,0,26.8,43.3,53.6,61.4v3.9h89v-11
	l22.8-37.8v-81.9C344.35,297.8,336.45,290.7,327.75,290.7z"/>
<g>
	<path style="fill:#FFFFFF;" d="M193.05,392.3c10.2,13.4,25.2,31.5,39.4,41v3.9h89v-11l20.5-34.7"/>
	<rect x="219.85" y="438" style="fill:#FFFFFF;" width="114.2" height="35.4"/>
</g>
<g>
	<path style="fill:#183651;" d="M327.75,281.2c-3.9,0-8.7,1.6-11.8,3.2c-3.9-7.1-11-11.8-18.9-12.6c-4.7-0.8-10.2,0.8-14.2,3.2
		c-3.9-7.1-11-11.8-18.9-12.6c-3.9,0-7.9,0-11,1.6v-25.2c0-12.6-9.5-23.6-22.1-25.2c-14.2-1.6-26.8,10.2-26.8,24.4v65.4
		c-3.2-1.6-7.1-2.4-11-1.6c-12.6,1.6-22.1,12.6-22.1,25.2v45.7c0,1.6,0.8,2.4,1.6,3.9c0.4,1.1,5.6,9.5,13.6,20.3
		c0.2,0.3,0.3,0.6,0.6,0.9c10.2,13.8,19.9,24.8,29.2,33.1c-2.5,1.2-4,3.8-4,7v35.4c0,4.7,3.2,7.9,7.9,7.9h114.2
		c4.7,0,7.9-3.9,7.9-7.9v-35.4c0-4.7-3.2-7.9-7.9-7.9h-3.9v-2.4l15.8-27l2.3-3.8c0.2-0.4,0.4-0.7,0.6-1.1l2.6-4.4
		c0.8-0.8,0.8-2.4,0.8-3.9v-81.9C352.15,292.3,341.15,281.2,327.75,281.2z M185.95,327.7c0-4.7,3.9-8.7,7.9-9.5
		c4.7-0.8,9.4,3.9,9.5,8.7v29.2h15.8V327l0,0v-87.4c0-5.5,3.9-9.5,9.5-8.7c4.7,0,7.9,4.7,7.9,9.5v47.3v0.8v34.7h15.6v-34.7
		c0-5.5,3.9-9.5,9.5-8.7c4.7,0,7.9,4.7,7.9,9.5v8.7c0,0.2,0,0.4,0,0.6v24.6h15.8v-25.8c0.3-5.2,4.1-8.8,9.4-8.1
		c4.7,0,7.9,4.7,7.9,9.5v8.7l0,0V324h15.8v-16.4v-0.1c0-4.7,3.9-8.7,8.7-8.7s8.7,3.9,8.7,8.7v79.6l-21.3,36.2
		c-0.3,0.3-0.5,0.7-0.6,1.2c-0.2,0.8-0.2,1.8-0.2,2.8v3.2h-74c-0.3-0.6-0.6-1.1-1-1.4l0,0c-10.2-6.5-24.3-19.5-36.9-35.8
		c-0.9-1.1-1.7-2.2-2.5-3.3c-0.2-0.3-0.4-0.5-0.6-0.8c-5.9-7.9-10.4-14.5-12.5-17.8v-43.7H185.95z M326.15,465.6h-98.5v-19.7h4.7h89
		h4.7v19.7H326.15z"/>
	<rect x="229.35" y="356.1" style="fill:#183651;" width="15.8" height="15.8"/>
	<rect x="263.15" y="356.1" style="fill:#183651;" width="15.8" height="15.8"/>
	<rect x="297.05" y="356.1" style="fill:#183651;" width="15.8" height="15.8"/>
	<polygon style="fill:#183651;" points="152.15,304.1 66.25,304.1 66.25,67 82.05,67 82.05,288.3 152.15,288.3 	"/>
	<rect x="74.15" y="87.5" style="fill:#183651;" width="29.1" height="15.8"/>
	<rect x="74.15" y="127.6" style="fill:#183651;" width="38.6" height="15.8"/>
	<rect x="74.15" y="167.8" style="fill:#183651;" width="29.1" height="15.8"/>
	<rect x="74.15" y="248.2" style="fill:#183651;" width="29.1" height="15.8"/>
	<rect x="74.15" y="208" style="fill:#183651;" width="38.6" height="15.8"/>
</g>
<g>
	<rect x="407.35" y="63.1" style="fill:#F06151;" width="33.9" height="163.1"/>
	<rect x="349.85" y="63.1" style="fill:#F06151;" width="33.9" height="134.7"/>
	<rect x="292.35" y="63.1" style="fill:#F06151;" width="33.9" height="111.1"/>
	<rect x="234.05" y="63.1" style="fill:#F06151;" width="33.9" height="91.4"/>
</g>
<g>
	<rect x="144.25" y="87.5" style="fill:#183651;" width="15.8" height="15.8"/>
	<rect x="144.25" y="127.6" style="fill:#183651;" width="15.8" height="15.8"/>
	<rect x="144.25" y="167.8" style="fill:#183651;" width="15.8" height="15.8"/>
	<rect x="144.25" y="208" style="fill:#183651;" width="15.8" height="15.8"/>
	<rect x="144.25" y="248.2" style="fill:#183651;" width="15.8" height="15.8"/>
</g>
<g>
</g>
<g>
</g>
<g>
</g>
<g>
</g>
<g>
</g>
<g>
</g>
<g>
</g>
<g>
</g>
<g>
</g>
<g>
</g>
<g>
</g>
<g>
</g>
<g>
</g>
<g>
</g>
<g>
</g>
</svg>
