<?xml version="1.0" encoding="iso-8859-1"?>
<!-- Generator: Adobe Illustrator 19.0.0, SVG Export Plug-In . SVG Version: 6.00 Build 0)  -->
<svg version="1.1" id="Capa_1" xmlns="http://www.w3.org/2000/svg" xmlns:xlink="http://www.w3.org/1999/xlink" x="0px" y="0px"
	 viewBox="0 0 504.123 504.123" style="enable-background:new 0 0 504.123 504.123;" xml:space="preserve">
<path style="fill:#2EA0DA;" d="M496.246,334.769V47.262c0-22.055-17.329-39.385-39.385-39.385h-409.6
	c-22.055,0-39.385,17.329-39.385,39.385v287.508H496.246z"/>
<path style="fill:#183651;" d="M496.246,342.646H7.877c-4.726,0-7.877-3.151-7.877-7.877V47.262C0,21.268,21.268,0,47.262,0h409.6
	c25.994,0,47.262,21.268,47.262,47.262v287.508C504.123,339.495,500.972,342.646,496.246,342.646z M15.754,326.892h472.615V47.262
	c0-17.329-14.178-31.508-31.508-31.508h-409.6c-17.329,0-31.508,14.178-31.508,31.508V326.892z"/>
<g>
	<path style="fill:#FFFFFF;" d="M39.385,303.262v-256c0-4.726,3.151-7.877,7.877-7.877h409.6c4.726,0,7.877,3.151,7.877,7.877v256
		H39.385z"/>
	<path style="fill:#FFFFFF;" d="M7.877,334.769v50.412c0,22.055,17.329,39.385,39.385,39.385h409.6
		c22.055,0,39.385-17.329,39.385-39.385v-50.412H7.877z"/>
</g>
<path style="fill:#183651;" d="M456.862,432.443h-409.6C21.268,432.443,0,411.175,0,385.182v-50.412
	c0-4.726,3.151-7.877,7.877-7.877h488.369c4.726,0,7.877,3.151,7.877,7.877v50.412C504.123,411.175,482.855,432.443,456.862,432.443
	z M15.754,342.646v42.535c0,17.329,14.178,31.508,31.508,31.508h409.6c17.329,0,31.508-14.178,31.508-31.508v-42.535H15.754z"/>
<rect x="167.778" y="424.566" style="fill:#FFFFFF;" width="169.354" height="71.68"/>
<path style="fill:#183651;" d="M336.345,504.123H167.778c-4.726,0-7.877-3.151-7.877-7.877v-71.68c0-4.726,3.151-7.877,7.877-7.877
	h169.354c4.726,0,7.877,3.151,7.877,7.877v71.68C344.222,500.972,341.071,504.123,336.345,504.123z M175.655,488.369h153.6v-55.926
	h-153.6V488.369z"/>
<path style="fill:#183651;" d="M364.702,504.123h-225.28c-4.726,0-7.877-3.151-7.877-7.877s3.151-7.877,7.877-7.877h225.28
	c4.726,0,7.877,3.151,7.877,7.877S369.428,504.123,364.702,504.123z"/>
<circle style="fill:#E0E4E8;" cx="252.062" cy="379.668" r="23.631"/>
<rect x="265.452" y="133.12" style="fill:#4FBF9F;" width="37.809" height="144.148"/>
<rect x="190.622" y="164.628" style="fill:#FBBD5E;" width="37.809" height="112.64"/>
<rect x="116.578" y="196.135" style="fill:#E0E4E8;" width="37.809" height="81.132"/>
<polygon style="fill:#F06151;" points="358.4,64.591 329.255,109.489 339.495,109.489 339.495,278.055 377.305,278.055 
	377.305,109.489 387.545,109.489 "/>
<g>
	<rect x="99.249" y="72.468" style="fill:#183651;" width="15.754" height="15.754"/>
	<rect x="137.846" y="72.468" style="fill:#183651;" width="15.754" height="15.754"/>
	<rect x="177.231" y="72.468" style="fill:#183651;" width="15.754" height="15.754"/>
</g>
<g>
</g>
<g>
</g>
<g>
</g>
<g>
</g>
<g>
</g>
<g>
</g>
<g>
</g>
<g>
</g>
<g>
</g>
<g>
</g>
<g>
</g>
<g>
</g>
<g>
</g>
<g>
</g>
<g>
</g>
</svg>
