<?xml version="1.0" encoding="iso-8859-1"?>
<!-- Generator: Adobe Illustrator 19.0.0, SVG Export Plug-In . SVG Version: 6.00 Build 0)  -->
<svg version="1.1" id="Capa_1" xmlns="http://www.w3.org/2000/svg" xmlns:xlink="http://www.w3.org/1999/xlink" x="0px" y="0px"
	 viewBox="0 0 504.911 504.911" style="enable-background:new 0 0 504.911 504.911;" xml:space="preserve">
<path style="fill:#4FBF9F;" d="M252.455,504.714c-138.634,0-252.062-113.428-252.062-252.062S113.822,0.591,252.455,0.591
	s252.062,113.428,252.062,252.062S391.089,504.714,252.455,504.714z"/>
<g>
	<rect x="240.64" y="63.606" style="fill:#183651;" width="15.754" height="15.754"/>
	<rect x="285.538" y="63.606" style="fill:#183651;" width="15.754" height="15.754"/>
	<rect x="209.132" y="435.397" style="fill:#183651;" width="15.754" height="15.754"/>
	<rect x="254.031" y="435.397" style="fill:#183651;" width="15.754" height="15.754"/>
	<rect x="433.625" y="243.2" style="fill:#183651;" width="15.754" height="15.754"/>
	<rect x="433.625" y="288.098" style="fill:#183651;" width="15.754" height="15.754"/>
	<rect x="61.834" y="211.692" style="fill:#183651;" width="15.754" height="15.754"/>
	<rect x="61.834" y="256.591" style="fill:#183651;" width="15.754" height="15.754"/>
</g>
<path style="fill:#E0E4E8;" d="M208.345,58.092L130.363,8.468V38.4C62.622,39.975,8.271,95.114,8.271,162.855h39.385
	c0-45.686,37.022-83.495,82.708-84.283v29.932L208.345,58.092z"/>
<path style="fill:#183651;" d="M47.655,170.732H8.271c-4.726,0-7.877-3.151-7.877-7.877c0-69.317,54.351-126.818,122.092-131.545
	V8.468c0-3.151,1.575-5.514,3.938-7.089c2.363-1.575,5.514-1.575,7.877,0l77.982,50.412c2.363,1.575,3.938,3.938,3.938,6.302
	c0,2.363-1.575,5.514-3.938,6.302l-77.194,50.412c-2.363,1.575-5.514,1.575-7.877,0c-2.363-1.575-3.938-3.938-3.938-7.089V86.449
	c-37.809,4.726-66.954,37.809-66.954,76.406C55.532,166.794,52.382,170.732,47.655,170.732z M16.148,154.978h24.418
	c3.938-46.474,42.535-83.495,89.797-84.283c2.363,0,3.938,0.788,5.514,2.363c1.575,1.575,2.363,3.151,2.363,5.514v15.754
	l55.138-35.446L138.24,23.434v15.754c0,3.938-3.151,7.877-7.877,7.877C70.498,47.065,20.086,95.114,16.148,154.978z"/>
<path style="fill:#E0E4E8;" d="M296.566,447.212l77.194,49.625v-29.932c67.742-0.788,122.092-56.714,122.092-124.455h-39.385
	c0,45.686-37.022,83.495-82.708,84.283V396.8L296.566,447.212z"/>
<path style="fill:#183651;" d="M374.548,504.714c-1.575,0-3.151-0.788-3.938-1.575l-77.982-49.625
	c-2.363-1.575-3.938-3.938-3.938-6.302s1.575-5.514,3.938-6.302l77.194-49.625c2.363-1.575,5.514-1.575,7.877,0
	c2.363,1.575,3.938,3.938,3.938,7.089v21.268c37.809-4.726,66.954-37.809,66.954-76.406c0-4.726,3.151-7.877,7.877-7.877h39.385
	c4.726,0,7.877,3.151,7.877,7.877c0,69.317-54.351,126.818-122.092,131.545v22.843c0,3.151-1.575,5.514-3.938,7.089
	C376.911,504.714,375.335,504.714,374.548,504.714z M311.532,447.212l55.138,35.446v-15.754c0-3.938,3.151-7.877,7.877-7.877
	c60.652-0.788,110.277-48.837,114.215-108.702h-24.418c-3.938,46.474-42.535,83.495-89.797,84.283c-2.363,0-3.938-0.788-5.514-2.363
	c-1.575-1.575-2.363-3.151-2.363-5.514v-15.754L311.532,447.212z"/>
<path style="fill:#E0E4E8;" d="M447.015,208.542l49.625-77.194h-29.932c-1.575-68.529-56.714-122.88-124.455-122.88v39.385
	c45.686,0,83.495,37.022,84.283,82.708h-29.932L447.015,208.542z"/>
<path style="fill:#183651;" d="M447.015,216.418c-2.363,0-5.514-1.575-6.302-3.938l-50.412-77.194c-1.575-2.363-1.575-5.514,0-7.877
	c1.575-2.363,3.938-3.938,7.089-3.938h21.268c-4.726-37.809-37.809-66.954-76.406-66.954c-4.726,0-7.877-3.151-7.877-7.877V9.255
	c0-4.726,3.151-7.877,7.877-7.877c69.317-0.788,126.818,53.563,131.545,121.305h22.843c3.151,0,5.514,1.575,7.089,3.938
	c1.575,2.363,1.575,5.514,0,7.877l-50.412,77.982C451.742,214.843,449.378,216.418,447.015,216.418z M411.569,138.437l35.446,55.138
	l35.446-55.138h-15.754c-3.938,0-7.877-3.151-7.877-7.877c-0.788-59.865-48.837-110.277-108.702-114.215v24.418
	c46.474,3.938,83.495,42.535,84.283,89.797c0,2.363-0.788,3.938-2.363,5.514s-3.151,2.363-5.514,2.363H411.569z"/>
<path style="fill:#E0E4E8;" d="M57.895,296.763L8.271,374.745h29.932c0.788,67.742,56.714,122.092,124.455,122.092v-39.385
	c-45.686,0-83.495-37.022-84.283-82.708h29.932L57.895,296.763z"/>
<path style="fill:#183651;" d="M162.658,504.714c-69.317,0-126.818-54.351-131.545-122.092H8.271c-3.151,0-5.514-1.575-7.089-3.938
	s-1.575-5.514,0-7.877l50.412-77.982c3.151-4.726,10.24-4.726,13.391,0l49.625,77.194c1.575,2.363,1.575,5.514,0,7.877
	s-3.938,3.938-7.089,3.938H86.252c4.726,37.809,37.809,66.954,76.406,66.954c4.726,0,7.877,3.151,7.877,7.877v39.385
	C170.535,501.563,166.597,504.714,162.658,504.714z M22.449,366.868h15.754c3.938,0,7.877,3.151,7.877,7.877
	c0.788,60.652,48.837,110.277,108.702,114.215v-24.418c-46.474-3.938-83.495-42.535-84.283-89.797c0-2.363,0.788-3.938,2.363-5.514
	c1.575-1.575,3.151-2.363,5.514-2.363h15.754l-35.446-55.138L22.449,366.868z"/>
<circle style="fill:#FBBD5E;" cx="252.455" cy="252.652" r="133.12"/>
<path style="fill:#183651;" d="M252.455,393.649c-77.982,0-140.997-63.015-140.997-140.997s63.015-140.997,140.997-140.997
	s140.997,63.015,140.997,140.997S330.437,393.649,252.455,393.649z M252.455,127.409c-69.317,0-125.243,55.926-125.243,125.243
	s55.926,125.243,125.243,125.243s125.243-55.926,125.243-125.243S321.772,127.409,252.455,127.409z"/>
<path style="fill:#FFFFFF;" d="M252.455,352.689c-55.138,0-100.037-44.898-100.037-100.037s44.898-100.037,100.037-100.037
	s100.037,44.898,100.037,100.037S307.594,352.689,252.455,352.689z"/>
<g>
	<path style="fill:#FBBD5E;" d="M249.305,305.428v-9.452c-11.815-1.575-22.055-5.514-31.508-14.178l9.452-11.028
		c7.089,6.302,14.178,10.24,22.055,11.028v-24.418c-9.452-2.363-16.542-5.514-21.268-8.665c-4.726-3.938-6.302-9.452-6.302-16.542
		s2.363-13.391,7.877-18.117c5.514-4.726,11.815-7.089,19.692-7.877v-6.302h7.877v6.302c9.452,0.788,18.117,3.938,26.782,9.452
		l-8.665,11.815c-5.514-3.938-11.815-6.302-18.117-7.089v23.631l0,0c9.452,2.363,16.542,5.514,21.268,9.452
		c4.726,3.938,7.089,9.452,7.089,17.329c0,7.089-2.363,13.391-7.877,18.117c-5.514,4.726-12.603,7.089-20.48,7.877v9.452h-7.877
		V305.428z M240.64,223.508c-2.363,1.575-3.151,3.938-3.151,7.089c0,3.151,0.788,4.726,2.363,7.089
		c1.575,1.575,4.726,3.151,9.452,4.726v-22.055C246.154,220.357,243.003,221.145,240.64,223.508z M267.422,279.434
		c2.363-1.575,3.938-4.726,3.938-7.089c0-3.151-0.788-5.514-3.151-7.089c-1.575-1.575-5.514-3.151-10.24-4.726v22.843
		C261.908,282.585,265.058,281.009,267.422,279.434z"/>
	<circle style="fill:#FBBD5E;" cx="326.498" cy="252.652" r="9.452"/>
	<circle style="fill:#FBBD5E;" cx="178.412" cy="252.652" r="9.452"/>
</g>
<g>
</g>
<g>
</g>
<g>
</g>
<g>
</g>
<g>
</g>
<g>
</g>
<g>
</g>
<g>
</g>
<g>
</g>
<g>
</g>
<g>
</g>
<g>
</g>
<g>
</g>
<g>
</g>
<g>
</g>
</svg>
