<?xml version="1.0" encoding="iso-8859-1"?>
<!-- Generator: Adobe Illustrator 19.0.0, SVG Export Plug-In . SVG Version: 6.00 Build 0)  -->
<svg version="1.1" id="Capa_1" xmlns="http://www.w3.org/2000/svg" xmlns:xlink="http://www.w3.org/1999/xlink" x="0px" y="0px"
	 viewBox="0 0 504.123 504.123" style="enable-background:new 0 0 504.123 504.123;" xml:space="preserve">
<rect x="51.2" y="167.778" style="fill:#E0E4E8;" width="400.935" height="278.055"/>
<path style="fill:#183651;" d="M452.923,453.711H51.2c-4.726,0-7.877-3.151-7.877-7.877V167.778c0-4.726,3.151-7.877,7.877-7.877
	h401.723c4.726,0,7.877,3.151,7.877,7.877v278.055C460.8,449.772,456.862,453.711,452.923,453.711z M59.077,437.957h385.969V175.655
	H59.077V437.957z"/>
<g>
	<rect x="82.708" y="199.286" style="fill:#FFFFFF;" width="337.92" height="193.772"/>
	<rect x="187.471" y="445.834" style="fill:#FFFFFF;" width="128.394" height="50.412"/>
</g>
<path style="fill:#183651;" d="M316.652,504.123H187.471c-4.726,0-7.877-3.151-7.877-7.877v-50.412c0-4.726,3.151-7.877,7.877-7.877
	h128.394c4.726,0,7.877,3.151,7.877,7.877v50.412C324.529,500.972,320.591,504.123,316.652,504.123z M195.348,488.369h112.64
	v-34.658h-112.64V488.369z"/>
<g>
	<path style="fill:#183651;" d="M346.585,504.123H157.538c-4.726,0-7.877-3.151-7.877-7.877s3.151-7.877,7.877-7.877h189.046
		c4.726,0,7.877,3.151,7.877,7.877S350.523,504.123,346.585,504.123z"/>
	<path style="fill:#183651;" d="M214.252,401.723c-5.514,0-9.452,3.938-9.452,9.452l0,0c0,5.514,3.938,9.452,9.452,9.452
		c5.514,0,9.452-3.938,9.452-9.452l0,0C223.705,405.662,218.978,401.723,214.252,401.723z"/>
	<path style="fill:#183651;" d="M252.062,401.723c-5.514,0-9.452,3.938-9.452,9.452l0,0c0,5.514,3.938,9.452,9.452,9.452
		c5.514,0,9.452-3.938,9.452-9.452l0,0C261.514,405.662,257.575,401.723,252.062,401.723z"/>
	<path style="fill:#183651;" d="M289.871,401.723c-5.514,0-9.452,3.938-9.452,9.452l0,0c0,5.514,3.938,9.452,9.452,9.452
		s9.452-3.938,9.452-9.452l0,0C300.111,405.662,295.385,401.723,289.871,401.723z"/>
</g>
<path style="fill:#2EA0DA;" d="M248.911,30.72c-61.44,1.575-112.64,54.351-111.852,116.578c0,36.234,17.329,68.529,44.111,89.009
	c13.391,10.24,20.48,26.782,21.268,43.323h99.249c0-18.117,9.452-33.871,22.843-44.898c25.994-21.268,42.535-52.775,42.535-89.009
	C367.065,81.132,313.502,28.357,248.911,30.72z"/>
<path style="fill:#183651;" d="M301.686,287.508h-99.249c-3.938,0-7.877-3.151-7.877-7.877
	c-0.788-15.754-7.089-29.145-18.117-37.809c-29.145-22.843-46.474-58.289-47.262-95.311
	c-0.788-66.166,52.775-122.092,118.942-123.668c70.105-2.363,126.818,53.563,126.818,122.88c0,37.022-16.542,71.68-45.686,95.311
	c-12.603,10.24-19.692,24.418-20.48,38.597C309.563,284.357,306.412,287.508,301.686,287.508z M209.526,271.754h85.071
	c2.363-16.542,11.028-31.508,25.206-43.323c25.206-20.48,39.385-50.412,39.385-82.708c0-60.652-49.625-108.702-110.277-107.126
	c-56.714,1.575-104.763,51.2-103.975,107.914c0,32.295,14.966,63.015,40.96,83.495C198.498,240.246,207.163,255.212,209.526,271.754
	z"/>
<path style="fill:#F06151;" d="M191.409,279.631V307.2c0,33.871,27.569,60.652,60.652,60.652l0,0
	c33.871,0,60.652-27.569,60.652-60.652v-27.569H191.409z"/>
<path style="fill:#183651;" d="M252.062,375.729c-37.809,0-68.529-30.72-68.529-68.529v-27.569c0-4.726,3.151-7.877,7.877-7.877
	h121.305c4.726,0,7.877,3.151,7.877,7.877V307.2C320.591,345.009,289.871,375.729,252.062,375.729z M199.286,287.508V307.2
	c0,29.145,23.631,52.775,52.775,52.775s52.775-23.631,52.775-52.775v-19.692H199.286z"/>
<path style="fill:#FFFFFF;" d="M252.062,64.591h-2.363c-42.535,1.575-78.769,38.597-78.769,81.92
	c0,24.418,11.815,47.262,30.72,63.015c11.815,9.452,21.268,22.055,27.569,36.234v25.994h45.686V245.76
	c6.302-14.178,15.754-26.782,28.357-37.022c18.905-15.754,29.932-38.597,29.932-62.228
	C333.194,100.825,296.96,64.591,252.062,64.591z"/>
<g>
	<path style="fill:#183651;" d="M252.062,287.508c-4.726,0-7.877-3.151-7.877-7.877v-86.646c0-4.726,3.151-7.877,7.877-7.877
		s7.877,3.151,7.877,7.877v86.646C259.938,284.357,256.788,287.508,252.062,287.508z"/>
	<path style="fill:#183651;" d="M252.062,200.862c-2.363,0-4.726-0.788-6.302-3.151l-36.234-45.686
		c-2.363-3.151-2.363-8.665,1.575-11.028c3.151-2.363,8.665-2.363,11.028,1.575l29.932,37.809l29.932-37.809
		c2.363-3.151,7.877-3.938,11.028-1.575s3.938,7.877,1.575,11.028l-36.234,45.686C256.788,200.074,254.425,200.862,252.062,200.862z
		"/>
</g>
<rect x="430.868" y="7.877" style="fill:#FFFFFF;" width="65.378" height="65.378"/>
<path style="fill:#183651;" d="M496.246,81.132h-65.378c-4.726,0-7.877-3.151-7.877-7.877V7.877c0-4.726,3.151-7.877,7.877-7.877
	h65.378c4.726,0,7.877,3.151,7.877,7.877v65.378C504.123,77.194,500.972,81.132,496.246,81.132z M438.745,65.378h49.625V15.754
	h-49.625V65.378z"/>
<rect x="7.877" y="7.877" style="fill:#FFFFFF;" width="65.378" height="65.378"/>
<g>
	<path style="fill:#183651;" d="M73.255,81.132H7.877C3.151,81.132,0,77.982,0,73.255V7.877C0,3.151,3.151,0,7.877,0h65.378
		c4.726,0,7.877,3.151,7.877,7.877v65.378C81.132,77.194,77.194,81.132,73.255,81.132z M15.754,65.378h49.625V15.754H15.754V65.378z
		"/>
	<path style="fill:#183651;" d="M389.908,119.729h-27.569c-4.726,0-7.877-3.151-7.877-7.877c0-4.726,3.151-7.877,7.877-7.877h19.692
		V40.172c0-4.726,3.151-7.877,7.877-7.877h40.96c4.726,0,7.877,3.151,7.877,7.877s-3.151,7.877-7.877,7.877h-33.083v63.803
		C397.785,115.791,393.846,119.729,389.908,119.729z"/>
	<path style="fill:#183651;" d="M141.785,119.729h-27.569c-4.726,0-7.877-3.151-7.877-7.877V48.049H73.255
		c-4.726,0-7.877-3.151-7.877-7.877s3.151-7.877,7.877-7.877h40.96c4.726,0,7.877,3.151,7.877,7.877v63.803h19.692
		c4.726,0,7.877,3.151,7.877,7.877C149.662,116.578,146.511,119.729,141.785,119.729z"/>
	<rect x="374.154" y="263.877" style="fill:#183651;" width="15.754" height="15.754"/>
	<rect x="374.154" y="304.837" style="fill:#183651;" width="15.754" height="15.754"/>
	<rect x="374.154" y="345.797" style="fill:#183651;" width="15.754" height="15.754"/>
	<rect x="114.215" y="263.877" style="fill:#183651;" width="15.754" height="15.754"/>
	<rect x="114.215" y="304.837" style="fill:#183651;" width="15.754" height="15.754"/>
	<rect x="114.215" y="345.797" style="fill:#183651;" width="15.754" height="15.754"/>
</g>
<g>
</g>
<g>
</g>
<g>
</g>
<g>
</g>
<g>
</g>
<g>
</g>
<g>
</g>
<g>
</g>
<g>
</g>
<g>
</g>
<g>
</g>
<g>
</g>
<g>
</g>
<g>
</g>
<g>
</g>
</svg>
