<?xml version="1.0" encoding="iso-8859-1"?>
<!-- Generator: Adobe Illustrator 19.0.0, SVG Export Plug-In . SVG Version: 6.00 Build 0)  -->
<svg version="1.1" id="Capa_1" xmlns="http://www.w3.org/2000/svg" xmlns:xlink="http://www.w3.org/1999/xlink" x="0px" y="0px"
	 viewBox="0 0 504.123 504.123" style="enable-background:new 0 0 504.123 504.123;" xml:space="preserve">
<path style="fill:#E0E4E8;" d="M388.332,76.406H22.843c-8.665,0-14.966,7.089-14.966,14.966v137.058h395.422V92.16
	C403.298,83.495,396.997,76.406,388.332,76.406z"/>
<path style="fill:#183651;" d="M403.298,237.095H7.877c-4.726,0-7.877-3.151-7.877-7.877V92.16c0-12.603,10.24-22.843,22.843-22.843
	h365.489c12.603,0,22.843,10.24,22.843,22.843v137.058C411.175,233.157,408.025,237.095,403.298,237.095z M15.754,221.342h379.668
	V92.16c0-3.938-3.151-7.089-7.089-7.089H22.843c-3.938,0-7.089,3.151-7.089,7.089V221.342z"/>
<rect x="37.809" y="106.338" style="fill:#FFFFFF;" width="336.345" height="92.16"/>
<path style="fill:#E0E4E8;" d="M19.692,229.218v111.065c0,8.665,7.089,14.966,14.966,14.966h341.858
	c8.665,0,14.966-7.089,14.966-14.966V229.218H19.692z"/>
<path style="fill:#183651;" d="M376.517,363.126H34.658c-12.603,0-22.843-10.24-22.843-22.843V229.218
	c0-4.726,3.151-7.877,7.877-7.877h372.578c4.726,0,7.877,3.151,7.877,7.877v111.065C400.148,352.886,389.12,363.126,376.517,363.126
	z M27.569,237.095v103.188c0,3.938,3.151,7.089,7.089,7.089h341.858c3.938,0,7.089-3.151,7.089-7.089V237.095H27.569z"/>
<g>
	<rect x="49.625" y="259.151" style="fill:#FFFFFF;" width="312.714" height="66.954"/>
	<rect x="111.852" y="47.262" style="fill:#FFFFFF;" width="44.111" height="29.145"/>
</g>
<path style="fill:#183651;" d="M155.963,84.283h-44.111c-4.726,0-7.877-3.151-7.877-7.877V47.262c0-4.726,3.151-7.877,7.877-7.877
	h44.111c4.726,0,7.877,3.151,7.877,7.877v29.145C163.84,81.132,160.689,84.283,155.963,84.283z M119.729,68.529h28.357V55.138
	h-28.357C119.729,55.138,119.729,68.529,119.729,68.529z"/>
<rect x="255.212" y="47.262" style="fill:#FFFFFF;" width="44.111" height="29.145"/>
<g>
	<path style="fill:#183651;" d="M299.323,84.283h-44.111c-4.726,0-7.877-3.151-7.877-7.877V47.262c0-4.726,3.151-7.877,7.877-7.877
		h44.111c4.726,0,7.877,3.151,7.877,7.877v29.145C307.2,81.132,304.049,84.283,299.323,84.283z M263.089,68.529h28.357V55.138
		h-28.357V68.529z"/>
	<path style="fill:#183651;" d="M278.055,55.138c-4.726,0-7.877-3.151-7.877-7.877v-20.48c0-6.302-4.726-11.028-11.028-11.028
		H152.812c-6.302,0-11.028,4.726-11.028,11.028v20.48c0,4.726-3.151,7.877-7.877,7.877c-4.726,0-7.877-3.151-7.877-7.877v-20.48
		C126.031,11.815,137.846,0,152.812,0h105.551c14.966,0,26.782,11.815,26.782,26.782v20.48
		C285.932,51.988,281.994,55.138,278.055,55.138z"/>
</g>
<rect x="282.782" y="186.683" style="fill:#FFFFFF;" width="53.563" height="42.535"/>
<path style="fill:#183651;" d="M336.345,237.095h-53.563c-4.726,0-7.877-3.151-7.877-7.877v-42.535c0-4.726,3.151-7.877,7.877-7.877
	h53.563c4.726,0,7.877,3.151,7.877,7.877v42.535C344.222,233.157,341.071,237.095,336.345,237.095z M290.658,221.342h37.809V194.56
	h-37.809V221.342z"/>
<rect x="295.385" y="229.218" style="fill:#FFFFFF;" width="29.145" height="42.535"/>
<path style="fill:#183651;" d="M323.742,279.631h-28.357c-4.726,0-7.877-3.151-7.877-7.877v-42.535c0-4.726,3.151-7.877,7.877-7.877
	h29.145c4.726,0,7.877,3.151,7.877,7.877v42.535C331.618,275.692,328.468,279.631,323.742,279.631z M303.262,263.877h13.391v-26.782
	h-13.391V263.877z"/>
<rect x="74.831" y="186.683" style="fill:#FFFFFF;" width="53.563" height="42.535"/>
<path style="fill:#183651;" d="M128.394,237.095H74.831c-4.726,0-7.877-3.151-7.877-7.877v-42.535c0-4.726,3.151-7.877,7.877-7.877
	h53.563c4.726,0,7.877,3.151,7.877,7.877v42.535C136.271,233.157,133.12,237.095,128.394,237.095z M82.708,221.342h37.809V194.56
	H82.708V221.342z"/>
<rect x="87.434" y="229.218" style="fill:#FFFFFF;" width="29.145" height="42.535"/>
<path style="fill:#183651;" d="M116.578,279.631H87.434c-4.726,0-7.877-3.151-7.877-7.877v-42.535c0-4.726,3.151-7.877,7.877-7.877
	h29.145c4.726,0,7.877,3.151,7.877,7.877v42.535C124.455,275.692,120.517,279.631,116.578,279.631z M95.311,263.877h13.391v-26.782
	H95.311V263.877z"/>
<rect x="205.588" y="299.323" style="fill:#FBBD5E;" width="290.658" height="196.923"/>
<path style="fill:#183651;" d="M496.246,504.123H205.588c-4.726,0-7.877-3.151-7.877-7.877V299.323c0-4.726,3.151-7.877,7.877-7.877
	h290.658c4.726,0,7.877,3.151,7.877,7.877v196.923C504.123,500.972,500.972,504.123,496.246,504.123z M213.465,488.369h274.905
	V307.2H213.465V488.369z"/>
<rect x="237.095" y="330.831" style="fill:#FFFFFF;" width="227.643" height="133.908"/>
<path style="fill:#183651;" d="M372.578,427.717c-2.363,0-3.938-0.788-5.514-2.363l-37.022-37.022l-26.782,25.994
	c-3.151,3.151-7.877,3.151-11.028,0s-3.151-7.877,0-11.028l32.295-32.295c3.151-3.151,7.877-3.151,11.028,0l37.022,37.022
	l26.782-26.782c3.151-3.151,7.877-3.151,11.028,0c3.151,3.151,3.151,7.877,0,11.028l-32.295,32.295
	C376.517,426.929,374.942,427.717,372.578,427.717z"/>
<circle style="fill:#FFFFFF;" cx="372.578" cy="419.84" r="15.754"/>
<path style="fill:#183651;" d="M372.578,442.683c-12.603,0-23.631-10.24-23.631-23.631s10.24-23.631,23.631-23.631
	s23.631,10.24,23.631,23.631S385.969,442.683,372.578,442.683z M372.578,411.963c-3.938,0-7.877,3.151-7.877,7.877
	s3.151,7.877,7.877,7.877s7.877-3.151,7.877-7.877S376.517,411.963,372.578,411.963z"/>
<circle style="fill:#FFFFFF;" cx="415.902" cy="375.729" r="15.754"/>
<path style="fill:#183651;" d="M415.902,399.36c-12.603,0-23.631-10.24-23.631-23.631s10.24-23.631,23.631-23.631
	c13.391,0,23.631,10.24,23.631,23.631S429.292,399.36,415.902,399.36z M415.902,367.852c-3.938,0-7.877,3.151-7.877,7.877
	c0,4.726,3.151,7.877,7.877,7.877c4.726,0,7.877-3.151,7.877-7.877C423.778,371.003,420.628,367.852,415.902,367.852z"/>
<circle style="fill:#FFFFFF;" cx="285.932" cy="419.84" r="15.754"/>
<path style="fill:#183651;" d="M285.932,442.683c-12.603,0-23.631-10.24-23.631-23.631s10.24-23.631,23.631-23.631
	s23.631,10.24,23.631,23.631S298.535,442.683,285.932,442.683z M285.932,411.963c-3.938,0-7.877,3.151-7.877,7.877
	s3.151,7.877,7.877,7.877c4.726,0,7.877-3.151,7.877-7.877S289.871,411.963,285.932,411.963z"/>
<circle style="fill:#FFFFFF;" cx="329.255" cy="375.729" r="15.754"/>
<path style="fill:#183651;" d="M329.255,399.36c-12.603,0-23.631-10.24-23.631-23.631s10.24-23.631,23.631-23.631
	c12.603,0,23.631,10.24,23.631,23.631S342.646,399.36,329.255,399.36z M329.255,367.852c-3.938,0-7.877,3.151-7.877,7.877
	c0,4.726,3.151,7.877,7.877,7.877c3.938,0,7.877-3.151,7.877-7.877C337.132,371.003,333.982,367.852,329.255,367.852z"/>
<g>
</g>
<g>
</g>
<g>
</g>
<g>
</g>
<g>
</g>
<g>
</g>
<g>
</g>
<g>
</g>
<g>
</g>
<g>
</g>
<g>
</g>
<g>
</g>
<g>
</g>
<g>
</g>
<g>
</g>
</svg>
