<?xml version="1.0" encoding="iso-8859-1"?>
<!-- Generator: Adobe Illustrator 19.0.0, SVG Export Plug-In . SVG Version: 6.00 Build 0)  -->
<svg version="1.1" id="Capa_1" xmlns="http://www.w3.org/2000/svg" xmlns:xlink="http://www.w3.org/1999/xlink" x="0px" y="0px"
	 viewBox="0 0 504.123 504.123" style="enable-background:new 0 0 504.123 504.123;" xml:space="preserve">
<circle style="fill:#FBBD5E;" cx="252.062" cy="252.062" r="252.062"/>
<rect x="7.877" y="329.255" style="fill:#F06151;" width="488.369" height="166.991"/>
<path style="fill:#183651;" d="M496.246,504.123H7.877c-4.726,0-7.877-3.151-7.877-7.877V329.255c0-4.726,3.151-7.877,7.877-7.877
	h488.369c4.726,0,7.877,3.151,7.877,7.877v166.991C504.123,500.972,500.972,504.123,496.246,504.123z M15.754,488.369h472.615
	V337.132H15.754V488.369z"/>
<rect x="39.385" y="360.763" style="fill:#FFFFFF;" width="425.354" height="103.975"/>
<path style="fill:#E0E4E8;" d="M438.745,184.32c-27.569,0-49.625,22.055-49.625,49.625v95.311h99.249v-95.311
	C488.369,206.375,466.314,184.32,438.745,184.32z"/>
<path style="fill:#183651;" d="M488.369,337.132H389.12c-4.726,0-7.877-3.151-7.877-7.877v-95.311
	c0-31.508,25.994-57.502,57.502-57.502s57.502,25.994,57.502,57.502v95.311C496.246,333.982,493.095,337.132,488.369,337.132z
	 M396.997,321.378h83.495v-87.434c0-22.843-18.905-41.748-41.748-41.748c-22.843,0-41.748,18.905-41.748,41.748V321.378z"/>
<g>
	<path style="fill:#FFFFFF;" d="M420.628,321.378v-87.434c0-10.24,7.877-18.117,18.117-18.117s18.117,7.877,18.117,18.117v87.434
		L420.628,321.378L420.628,321.378z"/>
	<circle style="fill:#FFFFFF;" cx="419.052" cy="155.175" r="48.837"/>
</g>
<path style="fill:#183651;" d="M419.052,211.102c-31.508,0-56.714-25.206-56.714-56.714s25.206-56.714,56.714-56.714
	s56.714,25.206,56.714,56.714S450.56,211.102,419.052,211.102z M419.052,114.215c-22.843,0-40.96,18.117-40.96,40.96
	s18.117,40.96,40.96,40.96c22.843,0,40.96-18.117,40.96-40.96S441.895,114.215,419.052,114.215z"/>
<path style="fill:#E0E4E8;" d="M65.378,184.32c27.569,0,49.625,22.055,49.625,49.625v95.311H15.754v-95.311
	C15.754,206.375,37.809,184.32,65.378,184.32z"/>
<path style="fill:#183651;" d="M115.003,337.132H15.754c-4.726,0-7.877-3.151-7.877-7.877v-95.311
	c0-31.508,25.994-57.502,57.502-57.502s57.502,25.994,57.502,57.502v95.311C122.88,333.982,118.942,337.132,115.003,337.132z
	 M23.631,321.378h83.495v-87.434c0-22.843-18.905-41.748-41.748-41.748s-41.748,18.905-41.748,41.748V321.378z"/>
<g>
	<path style="fill:#FFFFFF;" d="M47.262,321.378v-87.434c0-10.24,7.877-18.117,18.117-18.117s18.117,7.877,18.117,18.117v87.434
		L47.262,321.378z"/>
	<circle style="fill:#FFFFFF;" cx="85.071" cy="155.175" r="48.837"/>
</g>
<path style="fill:#183651;" d="M85.071,211.102c-31.508,0-56.714-25.206-56.714-56.714s25.206-55.926,56.714-55.926
	s56.714,25.206,56.714,56.714S116.578,211.102,85.071,211.102z M85.071,114.215c-22.843,0-40.96,18.117-40.96,40.96
	s18.117,40.96,40.96,40.96s40.96-18.117,40.96-40.96S107.126,114.215,85.071,114.215z"/>
<path style="fill:#FFFFFF;" d="M302.474,126.031c0,27.569-22.055,65.378-49.625,65.378s-49.625-37.809-49.625-65.378
	s22.055-49.625,49.625-49.625S302.474,98.462,302.474,126.031z"/>
<path style="fill:#183651;" d="M252.849,199.286c-33.083,0-57.502-44.111-57.502-73.255c0-31.508,25.994-57.502,57.502-57.502
	s57.502,25.994,57.502,57.502C310.351,155.175,286.72,199.286,252.849,199.286z M252.849,84.283
	c-22.843,0-41.748,18.905-41.748,41.748c0,25.206,20.48,57.502,41.748,57.502s41.748-32.295,41.748-57.502
	C294.597,103.188,275.692,84.283,252.849,84.283z"/>
<path style="fill:#4FBF9F;" d="M196.923,192.985c11.815,18.905,32.295,30.72,55.926,30.72s44.111-12.603,55.926-30.72
	c18.117,5.514,30.72,21.268,30.72,40.96v95.311H166.203v-94.523C166.203,215.04,178.806,198.498,196.923,192.985z"/>
<path style="fill:#183651;" d="M339.495,337.132H166.203c-4.726,0-7.877-3.151-7.877-7.877v-94.523
	c0-22.843,14.966-42.535,37.022-48.837c3.151-0.788,7.089,0.788,8.665,3.151c11.028,17.329,29.145,27.569,49.625,27.569
	s38.597-10.24,49.625-27.569c1.575-3.151,5.514-3.938,8.665-3.151c21.268,6.302,37.022,25.994,37.022,48.837v95.311
	C347.372,333.982,344.222,337.132,339.495,337.132z M174.08,321.378h158.326v-86.646c0-13.391-7.877-25.994-20.48-31.508
	c-14.178,18.117-35.446,29.145-59.077,29.145s-44.898-11.028-59.077-29.145c-11.815,5.514-20.48,18.117-20.48,31.508v86.646H174.08z
	"/>
<path style="fill:#FFFFFF;" d="M197.711,297.748v-59.865c15.754,11.028,35.446,17.329,55.138,17.329
	c19.692,0,39.385-6.302,55.138-17.329v59.865L197.711,297.748z"/>
<path style="fill:#183651;" d="M296.172,337.132c-4.726,0-7.877-3.151-7.877-7.877v-60.652c0-4.726,3.151-7.877,7.877-7.877
	s7.877,3.151,7.877,7.877v60.652C304.049,333.982,300.898,337.132,296.172,337.132z"/>
<g>
	<path style="fill:#183651;" d="M209.526,337.132c-4.726,0-7.877-3.151-7.877-7.877v-60.652c0-4.726,3.151-7.877,7.877-7.877
		c4.726,0,7.877,3.151,7.877,7.877v60.652C217.403,333.982,213.465,337.132,209.526,337.132z"/>
	<rect x="86.646" y="404.874" style="fill:#183651;" width="15.754" height="15.754"/>
	<rect x="149.662" y="404.874" style="fill:#183651;" width="15.754" height="15.754"/>
	<rect x="212.677" y="404.874" style="fill:#183651;" width="15.754" height="15.754"/>
	<rect x="275.692" y="404.874" style="fill:#183651;" width="15.754" height="15.754"/>
	<rect x="338.708" y="404.874" style="fill:#183651;" width="15.754" height="15.754"/>
	<rect x="401.723" y="404.874" style="fill:#183651;" width="15.754" height="15.754"/>
</g>
<g>
</g>
<g>
</g>
<g>
</g>
<g>
</g>
<g>
</g>
<g>
</g>
<g>
</g>
<g>
</g>
<g>
</g>
<g>
</g>
<g>
</g>
<g>
</g>
<g>
</g>
<g>
</g>
<g>
</g>
</svg>
