<?xml version="1.0" encoding="iso-8859-1"?>
<!-- Generator: Adobe Illustrator 19.0.0, SVG Export Plug-In . SVG Version: 6.00 Build 0)  -->
<svg version="1.1" id="Capa_1" xmlns="http://www.w3.org/2000/svg" xmlns:xlink="http://www.w3.org/1999/xlink" x="0px" y="0px"
	 viewBox="0 0 504.123 504.123" style="enable-background:new 0 0 504.123 504.123;" xml:space="preserve">
<circle style="fill:#FBBD5E;" cx="252.062" cy="252.062" r="252.062"/>
<path style="fill:#183651;" d="M236.308,454.498v-15.754c4.726,0,10.24,0,14.966-0.788l0.788,15.754
	C247.335,454.498,241.822,454.498,236.308,454.498z M220.554,454.498c-5.514,0-11.028-0.788-16.542-1.575l2.363-15.754
	c4.726,0.788,10.24,1.575,14.966,1.575L220.554,454.498z M269.391,452.135l-2.363-15.754c4.726-0.788,10.24-1.575,14.966-3.151
	l3.151,15.754C279.631,450.56,274.905,451.348,269.391,452.135z M188.258,449.772c-5.514-1.575-10.24-2.363-15.754-3.938
	l4.726-14.966c4.726,1.575,9.452,3.151,14.966,3.938L188.258,449.772z M300.898,445.046l-4.726-14.966
	c4.726-1.575,9.452-3.151,14.178-4.726l5.514,14.966C311.138,441.895,306.412,443.471,300.898,445.046z M156.751,440.32
	c-4.726-2.363-10.24-3.938-14.966-6.302l7.089-14.178c4.726,2.363,9.452,3.938,14.178,6.302L156.751,440.32z M331.618,433.231
	l-7.089-14.178c4.726-2.363,8.665-4.726,13.391-7.089l7.877,13.391C341.071,428.505,336.345,430.868,331.618,433.231z
	 M127.606,426.142c-4.726-2.363-9.452-5.514-14.178-8.665l8.665-13.391c3.938,3.151,8.665,5.514,12.603,7.877L127.606,426.142z
	 M359.188,416.689l-8.665-12.603c3.938-3.151,8.665-5.514,11.815-8.665l10.24,12.603
	C368.64,410.388,363.914,413.538,359.188,416.689z M100.037,407.237c-3.938-3.151-8.665-7.089-12.603-11.028l11.028-11.815
	c3.938,3.151,7.877,7.089,11.815,10.24L100.037,407.237z M385.182,396.209l-11.028-11.028c3.938-3.151,7.089-7.089,11.028-11.028
	l11.815,11.028C393.058,389.12,389.12,393.058,385.182,396.209z M76.406,385.182c-3.938-3.938-7.089-7.877-11.028-12.603
	l12.603-10.24c3.151,3.938,6.302,7.877,10.24,11.815L76.406,385.182z M407.237,372.578l-12.603-9.452
	c3.151-3.938,6.302-7.877,8.665-11.815l13.391,8.665C413.538,363.914,410.388,368.64,407.237,372.578z M55.926,359.975
	c-3.151-4.726-6.302-9.452-8.665-14.178l13.391-7.877c2.363,4.726,5.514,8.665,7.877,12.603L55.926,359.975z M425.354,345.797
	l-13.391-7.877c2.363-4.726,4.726-8.665,7.089-13.391l14.178,7.089C430.868,336.345,428.505,341.071,425.354,345.797z
	 M39.385,331.618c-2.363-4.726-4.726-10.24-6.302-14.966l14.178-5.514c1.575,4.726,3.938,9.452,6.302,14.178L39.385,331.618z
	 M439.532,315.865l-14.966-5.514c1.575-4.726,3.151-9.452,4.726-14.178l14.966,4.726
	C443.471,305.625,441.895,311.138,439.532,315.865z M27.569,300.898c-1.575-5.514-3.151-10.24-3.938-15.754l14.966-3.151
	c0.788,4.726,2.363,9.452,3.938,14.966L27.569,300.898z M449.772,285.145l-14.966-3.151c0.788-4.726,2.363-10.24,3.151-14.966
	l15.754,2.363C451.348,274.117,450.56,279.631,449.772,285.145z M20.48,269.391c-0.788-5.514-1.575-11.028-2.363-16.542
	l15.754-0.788c0,4.726,0.788,10.24,1.575,14.966L20.48,269.391z M454.498,252.849l-15.754-0.788c0-4.726,0.788-10.24,0.788-14.966
	v-0.788h15.754v0.788C454.498,241.822,454.498,247.335,454.498,252.849z M21.268,237.095h-3.151c0-5.514,0-11.028,0.788-15.754
	l15.754,0.788c0,4.726-0.788,9.452-0.788,14.966H21.268z M438.745,219.766c-0.788-4.726-0.788-10.24-1.575-14.966l15.754-2.363
	c0.788,5.514,1.575,11.028,1.575,16.542L438.745,219.766z M35.446,206.375l-15.754-2.363c0.788-5.514,1.575-11.028,3.151-15.754
	l15.754,3.151C37.022,196.923,36.234,201.649,35.446,206.375z M434.018,189.834c-0.788-4.726-2.363-9.452-3.938-14.966l14.966-4.726
	c1.575,5.514,3.151,10.24,3.938,15.754L434.018,189.834z M42.535,177.231l-14.966-4.726c1.575-5.514,3.151-10.24,5.514-15.754
	l14.966,5.514C45.686,167.778,44.111,172.505,42.535,177.231z M424.566,161.477c-1.575-4.726-3.938-9.452-6.302-14.178l14.178-7.089
	c2.363,4.726,4.726,10.24,6.302,14.966L424.566,161.477z M53.563,148.874l-14.178-7.089c2.363-4.726,4.726-9.452,7.877-14.178
	l13.391,7.877C57.502,139.422,55.138,144.148,53.563,148.874z M411.175,133.908c-2.363-4.726-5.514-8.665-7.877-12.603l12.603-8.665
	c3.151,4.726,6.302,9.452,8.665,13.391L411.175,133.908z M68.529,122.88l-13.391-8.665c3.151-4.726,6.302-8.665,9.452-13.391
	l12.603,9.452C74.043,114.215,70.892,118.154,68.529,122.88z M394.634,109.489c-3.151-3.938-6.302-7.877-10.24-11.815l11.815-11.028
	c3.938,3.938,7.089,7.877,11.028,12.603L394.634,109.489z M87.434,98.462L75.618,87.434c3.938-3.938,7.877-7.877,11.815-11.815
	l11.028,11.815C94.523,91.372,90.585,95.311,87.434,98.462z M373.366,86.646c-3.938-3.151-7.877-7.089-11.815-10.24l9.452-12.603
	c3.938,3.151,8.665,7.089,12.603,10.24L373.366,86.646z M109.489,77.982l-10.24-12.603c3.938-3.151,8.665-6.302,13.391-9.452
	l8.665,12.603C117.366,71.68,113.428,74.831,109.489,77.982z M349.735,68.529c-3.938-3.151-8.665-5.514-12.603-7.877l7.877-13.391
	c4.726,2.363,9.452,5.514,14.178,8.665L349.735,68.529z M134.695,60.652l-7.877-13.391c4.726-2.363,9.452-5.514,14.178-7.877
	l7.089,14.178C143.36,55.926,138.634,58.289,134.695,60.652z M323.742,52.775c-4.726-1.575-9.452-3.938-14.178-5.514l5.514-14.966
	c4.726,2.363,10.24,3.938,14.966,6.302L323.742,52.775z M161.477,48.049l-5.514-14.966c4.726-2.363,10.24-3.938,15.754-5.514
	l4.726,14.966C170.929,44.111,166.203,45.686,161.477,48.049z M295.385,42.535c-4.726-1.575-9.452-3.151-14.966-3.938l3.151-15.754
	c5.514,0.788,10.24,2.363,15.754,3.938L295.385,42.535z M190.622,38.597l-3.938-14.966c5.514-1.575,11.028-2.363,15.754-3.151
	l2.363,15.754C200.074,36.234,195.348,37.809,190.622,38.597z M265.452,35.446c-4.726-0.788-10.24-1.575-14.966-1.575l0.788-15.754
	c5.514,0,11.028,0.788,16.542,1.575L265.452,35.446z M220.554,33.871l-1.575-15.754c5.514-0.788,11.028-0.788,16.542-0.788v15.754
	C230.794,33.871,225.28,33.871,220.554,33.871z"/>
<circle style="fill:#FFFFFF;" cx="189.834" cy="314.289" r="181.957"/>
<path style="fill:#183651;" d="M189.834,504.123C85.071,504.123,0,419.052,0,314.289s85.071-189.834,189.834-189.834
	s189.834,85.071,189.834,189.834S293.809,504.123,189.834,504.123z M189.834,140.997c-96.098,0-174.08,77.982-174.08,174.08
	s77.982,174.08,174.08,174.08s174.08-77.982,174.08-174.08S285.145,140.997,189.834,140.997z"/>
<path style="fill:#E1E6E7;" d="M189.834,164.628L189.834,164.628c-82.708,0-150.449,67.742-150.449,150.449
	c0,41.748,16.542,78.769,44.111,106.338l106.338-106.338V164.628z"/>
<path style="fill:#FBBD5E;" d="M295.385,420.628c27.569-27.569,44.111-64.591,44.111-106.338H189.834L295.385,420.628z"/>
<path style="fill:#F06151;" d="M339.495,314.289L339.495,314.289c0-82.708-67.742-150.449-150.449-150.449v150.449H339.495z"/>
<path style="fill:#2CA0DA;" d="M189.834,464.738c41.748,0,78.769-16.542,106.338-44.111L189.834,314.289L83.495,420.628
	C110.277,448.197,148.086,464.738,189.834,464.738z"/>
<polygon style="fill:#4FBF9F;" points="496.246,7.877 211.102,7.877 211.102,218.978 362.338,218.978 456.862,289.083 
	456.862,218.978 496.246,218.978 "/>
<path style="fill:#183651;" d="M456.862,296.96c-1.575,0-3.151-0.788-4.726-1.575l-92.16-67.742H211.102
	c-4.726,0-7.877-3.151-7.877-7.877V7.877c0-4.726,3.151-7.877,7.877-7.877h285.145c4.726,0,7.877,3.151,7.877,7.877v211.102
	c0,4.726-3.151,7.877-7.877,7.877h-31.508v61.44c0,3.151-1.575,5.514-3.938,7.089C459.225,296.172,458.437,296.96,456.862,296.96z
	 M218.978,211.102h143.36c1.575,0,3.151,0.788,4.726,1.575l81.92,60.652v-53.563c0-4.726,3.151-7.877,7.877-7.877h31.508V15.754
	H218.978V211.102z"/>
<polygon style="fill:#FFFFFF;" points="373.366,187.471 242.609,187.471 242.609,39.385 464.738,39.385 464.738,187.471 
	425.354,187.471 425.354,226.068 "/>
<rect x="280.418" y="60.652" style="fill:#F06151;" width="29.932" height="93.735"/>
<rect x="338.708" y="84.283" style="fill:#FBBD5E;" width="29.932" height="70.892"/>
<rect x="396.997" y="115.003" style="fill:#4FBF9F;" width="29.932" height="40.172"/>
<rect x="263.877" y="155.175" style="fill:#E1E6E7;" width="178.806" height="12.603"/>
<g>
</g>
<g>
</g>
<g>
</g>
<g>
</g>
<g>
</g>
<g>
</g>
<g>
</g>
<g>
</g>
<g>
</g>
<g>
</g>
<g>
</g>
<g>
</g>
<g>
</g>
<g>
</g>
<g>
</g>
</svg>
