<?xml version="1.0" encoding="iso-8859-1"?>
<!-- Generator: Adobe Illustrator 19.0.0, SVG Export Plug-In . SVG Version: 6.00 Build 0)  -->
<svg version="1.1" id="Capa_1" xmlns="http://www.w3.org/2000/svg" xmlns:xlink="http://www.w3.org/1999/xlink" x="0px" y="0px"
	 viewBox="0 0 504.123 504.123" style="enable-background:new 0 0 504.123 504.123;" xml:space="preserve">
<circle style="fill:#FBBD5E;" cx="252.455" cy="255.212" r="247.335"/>
<path style="fill:#183651;" d="M250.092,478.129c-5.514,0-11.028,0-15.754-0.788l1.575-15.754c4.726,0.788,10.24,0.788,14.966,0.788
	L250.092,478.129z M265.846,478.129l-0.788-15.754c4.726,0,10.24-0.788,14.966-1.575l2.363,14.966
	C276.874,477.342,271.36,477.342,265.846,478.129z M217.797,475.766c-5.514-0.788-10.24-1.575-15.754-3.151l3.151-14.966
	c4.726,0.788,9.452,2.363,14.966,3.151L217.797,475.766z M298.142,473.403l-3.151-14.966c4.726-0.788,9.452-2.363,14.178-3.151
	l3.938,14.966C308.382,471.04,302.868,472.615,298.142,473.403z M187.077,468.677c-5.514-1.575-10.24-3.151-14.966-5.514
	l5.514-14.178c4.726,1.575,9.452,3.151,14.178,4.726L187.077,468.677z M328.862,464.738l-5.514-14.178
	c4.726-1.575,9.452-3.938,14.178-5.514l6.302,14.178C338.314,460.8,333.588,463.163,328.862,464.738z M157.145,456.862
	c-4.726-2.363-9.452-4.726-14.178-7.089l7.877-13.391c3.938,2.363,8.665,4.726,13.391,7.089L157.145,456.862z M358.006,452.135
	l-7.089-14.178c3.938-2.363,8.665-4.726,12.603-7.877l8.665,13.391C367.458,446.622,362.732,448.985,358.006,452.135z
	 M128.788,441.108c-4.726-3.151-8.665-6.302-13.391-9.452l9.452-12.603c3.938,3.151,7.877,6.302,11.815,8.665L128.788,441.108z
	 M384.788,434.806l-9.452-12.603c3.938-3.151,7.877-6.302,11.815-9.452l10.24,11.815
	C393.452,428.505,389.514,431.655,384.788,434.806z M103.582,421.415c-3.938-3.151-7.877-7.089-11.815-11.028l11.028-11.028
	c3.151,3.938,7.089,7.089,11.028,10.24L103.582,421.415z M409.206,413.538l-11.028-11.028c3.151-3.151,7.089-7.089,10.24-11.028
	l11.815,10.24C417.083,406.449,413.145,410.388,409.206,413.538z M81.526,398.572c-3.151-3.938-7.089-8.665-10.24-12.603
	l12.603-8.665c3.151,3.938,6.302,7.877,9.452,11.815L81.526,398.572z M430.474,389.908l-12.603-9.452
	c3.151-3.938,6.302-7.877,8.665-12.603l12.603,8.665C436.775,381.243,433.625,385.182,430.474,389.908z M62.622,372.578
	c-3.151-4.726-5.514-9.452-7.877-14.178l13.391-7.089c2.363,4.726,4.726,8.665,7.089,12.603L62.622,372.578z M447.803,363.126
	l-13.391-7.089c2.363-3.938,4.726-8.665,7.089-13.391l14.178,6.302C452.529,353.674,450.166,358.4,447.803,363.126z M47.655,344.222
	c-2.363-4.726-3.938-9.452-5.514-14.966l14.966-5.514c1.575,4.726,3.151,9.452,5.514,14.178L47.655,344.222z M461.194,333.982
	l-14.178-5.514c1.575-4.726,3.151-9.452,4.726-14.178l14.966,4.726C465.132,323.742,462.769,328.468,461.194,333.982z
	 M37.415,314.289c-1.575-5.514-2.363-10.24-3.938-15.754l15.754-3.151c0.788,4.726,2.363,9.452,3.151,14.178L37.415,314.289z
	 M470.646,303.262l-14.966-3.151c0.788-4.726,1.575-9.452,2.363-14.966l14.966,2.363
	C472.222,292.234,471.434,297.748,470.646,303.262z M31.114,282.782c-0.788-5.514-0.788-11.028-1.575-15.754l15.754-0.788
	c0,4.726,0.788,10.24,1.575,14.966L31.114,282.782z M474.585,270.966l-15.754-0.788c0-4.726,0.788-10.24,0.788-14.966h15.754
	C475.372,260.726,475.372,266.24,474.585,270.966z M45.292,251.274H29.538c0-5.514,0.788-11.028,0.788-15.754l15.754,1.575
	C45.292,241.034,45.292,245.76,45.292,251.274z M459.618,248.911c0-4.726-0.788-10.24-0.788-14.966l15.754-1.575
	c0.788,5.514,0.788,11.028,0.788,15.754L459.618,248.911z M47.655,221.342l-14.966-2.363c0.788-5.514,1.575-10.24,3.151-15.754
	l14.966,3.938C49.231,211.102,48.443,216.615,47.655,221.342z M456.468,219.766c-0.788-4.726-1.575-9.452-3.151-14.966l14.966-3.938
	c1.575,4.726,2.363,10.24,3.151,15.754L456.468,219.766z M54.745,192.197l-14.966-4.726c1.575-4.726,3.938-10.24,5.514-14.966
	l14.178,5.514C57.895,182.745,56.32,187.471,54.745,192.197z M449.378,190.622c-1.575-4.726-3.151-9.452-5.514-14.178l14.178-5.514
	c2.363,4.726,3.938,10.24,5.514,14.966L449.378,190.622z M65.772,164.628l-14.178-7.089c2.363-4.726,4.726-9.452,7.877-14.178
	l13.391,7.877C70.498,155.963,68.135,159.902,65.772,164.628z M438.351,163.052c-2.363-4.726-4.726-8.665-7.089-13.391l13.391-7.877
	c2.363,4.726,5.514,9.452,7.877,14.178L438.351,163.052z M80.738,138.634l-12.603-8.665c3.151-4.726,6.302-8.665,9.452-12.603
	l11.815,9.452C86.252,130.757,83.889,134.695,80.738,138.634z M423.385,137.846c-3.151-3.938-5.514-7.877-8.665-11.815l11.815-9.452
	c3.151,3.938,6.302,8.665,9.452,12.603L423.385,137.846z M99.643,115.791l-11.815-10.24c3.938-3.938,7.089-7.877,11.028-11.815
	l11.028,11.028C105.945,107.914,102.794,111.852,99.643,115.791z M404.48,114.215c-3.151-3.938-7.089-7.089-10.24-10.24
	l10.24-11.028c3.938,3.938,7.877,7.089,11.028,11.028L404.48,114.215z M120.911,94.523l-9.452-11.815
	c3.938-3.151,8.665-6.302,12.603-9.452l8.665,12.603C128.788,89.009,124.849,92.16,120.911,94.523z M382.425,93.735
	c-3.938-3.151-7.877-6.302-11.815-8.665l8.665-12.603c4.726,3.151,8.665,6.302,12.603,9.452L382.425,93.735z M145.329,77.982
	l-7.877-13.391c4.726-2.363,9.452-5.514,14.178-7.877l7.089,13.391C153.994,72.468,149.268,74.831,145.329,77.982z M358.006,77.194
	c-3.938-2.363-8.665-4.726-13.391-7.089l7.089-14.178c4.726,2.363,9.452,4.726,14.178,7.877L358.006,77.194z M172.111,63.803
	l-6.302-14.178c4.726-2.363,10.24-3.938,14.966-5.514l4.726,14.966C180.775,60.652,176.049,62.228,172.111,63.803z M331.225,63.803
	c-4.726-1.575-9.452-3.938-14.178-5.514l5.514-14.966c4.726,1.575,10.24,3.938,14.966,5.514L331.225,63.803z M199.68,54.351
	l-3.938-14.966c5.514-1.575,10.24-2.363,15.754-3.151l3.151,14.966C209.92,51.988,204.406,53.563,199.68,54.351z M303.655,54.351
	c-4.726-1.575-9.452-2.363-14.966-3.151l2.363-15.754c5.514,0.788,10.24,2.363,15.754,3.151L303.655,54.351z M229.612,48.837
	l-1.575-15.754c5.514-0.788,10.24-0.788,15.754-1.575l0.788,15.754C239.065,48.049,234.338,48.837,229.612,48.837z M273.723,48.837
	c-4.726-0.788-10.24-0.788-14.966-0.788l0.788-15.754c5.514,0,11.028,0.788,15.754,0.788L273.723,48.837z"/>
<path style="fill:#E1E6E7;" d="M200.468,129.969V153.6h291.446v-23.631l-34.658-3.938c-3.151-11.028-7.089-22.055-13.391-31.508
	l22.055-27.569l-33.083-33.083l-27.569,21.268c-9.452-5.514-20.48-10.24-31.508-13.391l-3.938-34.658h-46.474l-3.938,34.658
	c-11.028,3.151-22.055,7.089-31.508,13.391l-27.569-21.268l-33.083,33.083l21.268,27.569c-5.514,9.452-10.24,20.48-13.391,31.508
	L200.468,129.969z"/>
<path style="fill:#183651;" d="M491.914,160.689H200.468c-3.938,0-7.877-3.151-7.877-7.877v-23.631c0-3.938,3.151-7.089,7.089-7.877
	l29.145-3.938c2.363-7.877,5.514-16.542,9.452-23.631L220.16,70.105c-2.363-3.151-2.363-7.089,0.788-10.24l33.083-33.083
	c3.151-0.788,7.877-1.575,10.24,0.788l23.631,18.117c7.877-3.938,15.754-7.089,23.631-9.452l3.938-29.145
	C316.258,3.151,319.409,0,323.348,0h46.474c3.938,0,7.089,3.151,7.877,7.089l3.938,29.145c7.877,2.363,16.542,5.514,23.631,9.452
	l23.631-18.117c3.151-2.363,7.089-2.363,10.24,0.788l33.083,33.083c3.151,3.151,3.151,7.089,0.788,10.24l-18.117,23.631
	c3.938,7.877,7.089,15.754,9.452,23.631l28.357,3.151c3.938,0.788,7.089,3.938,7.089,7.877V153.6
	C499.791,157.538,495.852,160.689,491.914,160.689z M208.345,145.723h275.692v-8.665l-27.569-3.151
	c-3.151,0-5.514-2.363-6.302-5.514c-2.363-10.24-6.302-20.48-11.815-29.145c-1.575-2.363-1.575-6.302,0.788-8.665l17.329-22.055
	l-23.631-23.631l-22.055,17.329c-2.363,2.363-6.302,2.363-8.665,0.788c-9.452-5.514-18.905-9.452-29.145-11.815
	c-3.938-2.363-6.302-4.726-7.089-7.877l-3.151-27.569h-33.083l-3.151,27.569c0,3.151-2.363,5.514-5.514,6.302
	c-10.24,2.363-20.48,6.302-29.145,11.815c-2.363,1.575-6.302,1.575-8.665-0.788L261.12,43.323l-23.631,23.631l17.329,22.055
	c2.363,2.363,2.363,6.302,0.788,8.665c-5.514,9.452-9.452,18.905-11.815,29.145c-0.788,3.151-3.151,5.514-6.302,5.514l-27.569,3.151
	v10.24H208.345z"/>
<path style="fill:#FFFFFF;" d="M346.191,103.188c-27.569,0-50.412,22.055-50.412,50.412h100.037
	C396.603,126.031,373.76,103.188,346.191,103.188z"/>
<path style="fill:#183651;" d="M396.603,160.689H296.566c-3.938,0-7.877-3.151-7.877-7.877c0-31.508,25.994-57.502,57.502-57.502
	s57.502,25.994,57.502,57.502C403.692,157.538,400.542,160.689,396.603,160.689z M304.443,145.723h83.495
	c-3.938-19.692-21.268-34.658-41.748-34.658C325.711,111.065,308.382,126.031,304.443,145.723z"/>
<path style="fill:#FFFFFF;" d="M491.914,153.6h-133.12l97.674,94.523C478.523,222.129,491.914,189.834,491.914,153.6z"/>
<path style="fill:#183651;" d="M456.468,256c-2.363,0-3.938-0.788-5.514-2.363l-97.674-94.523c-2.363-2.363-3.151-5.514-1.575-8.665
	c0.788-3.151,3.938-4.726,7.089-4.726h133.12c3.938,0,7.877,3.151,7.877,7.877c0,36.234-13.391,71.68-37.022,100.037
	C461.194,254.425,459.618,255.212,456.468,256C457.255,256,457.255,256,456.468,256z M378.486,160.689l77.982,75.618
	c16.542-22.055,25.994-48.049,27.569-75.618H378.486z"/>
<path style="fill:#FBBD5E;" d="M413.932,175.655h53.563c-2.363,13.391-7.089,26.782-14.178,38.597L413.932,175.655z"/>
<path style="fill:#FFFFFF;" d="M200.468,153.6c0,50.412,25.206,94.523,63.803,120.517L339.102,153.6H200.468z"/>
<path style="fill:#183651;" d="M265.058,281.994c-1.575,0-3.151-0.788-4.726-1.575c-41.748-28.357-66.954-76.406-66.954-126.818
	c0-3.938,3.151-7.877,7.877-7.877h137.846c3.151,0,5.514,1.575,7.089,3.938c1.575,2.363,1.575,5.514,0,7.877l-74.043,120.517
	c-0.788,1.575-3.151,3.151-4.726,3.151S265.058,281.994,265.058,281.994z M208.345,160.689
	c2.363,40.172,22.055,77.194,53.563,101.612l62.228-101.612H208.345z"/>
<path style="fill:#2CA0DA;" d="M258.757,240.246c-18.117-18.117-29.932-40.172-33.871-65.378h74.043L258.757,240.246z"/>
<path style="fill:#FFFFFF;" d="M265.058,274.117c23.631,15.754,51.2,25.206,81.92,25.206c44.111,0,83.495-19.692,110.277-51.2
	L358.794,153.6h-20.48L265.058,274.117z"/>
<path style="fill:#183651;" d="M346.191,306.412c-30.72,0-60.652-9.452-85.858-25.994c-3.151-2.363-4.726-7.089-2.363-10.24
	l74.043-120.517c1.575-2.363,3.938-3.938,6.302-3.938h20.48c2.363,0,3.938,0.788,5.514,2.363l97.674,94.523
	c3.151,3.151,3.151,7.877,0.788,10.24C433.625,286.72,391.089,306.412,346.191,306.412z M275.298,271.754
	c21.268,12.603,45.686,19.692,70.892,19.692c37.809,0,74.043-15.754,100.037-42.535l-90.585-88.222H343.04L275.298,271.754z"/>
<path style="fill:#F06151;" d="M346.191,276.48c-17.329,0-34.658-3.938-50.412-11.028l55.138-89.797l74.043,71.68
	C402.905,266.24,375.335,276.48,346.191,276.48z"/>
<path style="fill:#E0E4E8;" d="M205.982,263.877c0,31.508-25.206,62.228-56.714,62.228s-56.714-30.72-56.714-62.228
	s25.206-56.714,56.714-56.714S205.982,232.369,205.982,263.877z"/>
<path style="fill:#183651;" d="M149.268,333.194c-34.658,0-64.591-32.295-64.591-70.105c0-35.446,29.145-64.591,64.591-64.591
	s64.591,29.145,64.591,64.591C213.858,300.898,183.926,333.194,149.268,333.194z M149.268,215.04
	c-26.782,0-48.837,22.055-48.837,48.837c0,28.357,23.631,54.351,48.837,54.351s48.837-25.994,48.837-54.351
	C198.892,236.308,176.837,215.04,149.268,215.04z"/>
<path style="fill:#4FBF9F;" d="M98.068,332.406L98.068,332.406c24.418,37.022,78.769,37.022,103.975,0l0,0
	c49.625,20.48,85.071,69.317,85.071,126.818v37.022H12.209v-37.022C12.209,402.511,47.655,352.886,98.068,332.406z"/>
<path style="fill:#183651;" d="M286.326,504.123H12.209c-3.938,0-7.877-3.151-7.877-7.877v-37.022
	c0-59.077,35.446-111.852,89.797-133.908c3.151-1.575,7.089,0,9.452,3.151c10.24,14.966,26.782,24.418,45.686,24.418
	c18.117,0,35.446-9.452,45.686-24.418c2.363-3.151,6.302-3.938,9.452-3.151c54.351,22.055,89.797,74.831,89.797,133.908v37.022
	C294.203,500.972,291.052,504.123,286.326,504.123z M20.086,488.369h258.363v-29.145c0-50.412-29.145-96.098-74.831-117.366
	c-13.391,16.542-33.083,25.994-54.351,25.994s-40.96-9.452-54.351-25.994c-45.686,21.268-74.831,66.954-74.831,117.366V488.369z"/>
<path style="fill:#FFFFFF;" d="M41.354,467.889v-8.665c0-37.809,18.905-71.68,50.412-91.372
	C107.52,381.243,128,389.12,150.055,389.12c21.268,0,41.748-7.877,58.289-21.268c30.72,19.692,50.412,53.563,50.412,91.372v8.665
	H41.354z"/>
<g>
	<rect x="99.643" y="428.505" style="fill:#183651;" width="15.754" height="14.178"/>
	<rect x="142.178" y="428.505" style="fill:#183651;" width="15.754" height="14.178"/>
	<rect x="183.926" y="428.505" style="fill:#183651;" width="15.754" height="14.178"/>
</g>
<g>
</g>
<g>
</g>
<g>
</g>
<g>
</g>
<g>
</g>
<g>
</g>
<g>
</g>
<g>
</g>
<g>
</g>
<g>
</g>
<g>
</g>
<g>
</g>
<g>
</g>
<g>
</g>
<g>
</g>
</svg>
