<?xml version="1.0" encoding="iso-8859-1"?>
<!-- Generator: Adobe Illustrator 19.0.0, SVG Export Plug-In . SVG Version: 6.00 Build 0)  -->
<svg version="1.1" id="Capa_1" xmlns="http://www.w3.org/2000/svg" xmlns:xlink="http://www.w3.org/1999/xlink" x="0px" y="0px"
	 viewBox="0 0 504.123 504.123" style="enable-background:new 0 0 504.123 504.123;" xml:space="preserve">
<circle style="fill:#F06151;" cx="252.062" cy="252.062" r="252.062"/>
<path style="fill:#FFFFFF;" d="M121.305,300.111h261.514c0-52.775-30.72-97.674-75.618-118.942
	c-12.603,11.815-29.932,19.692-52.775,19.692c-7.877,0-15.754-0.788-24.418-3.151c-8.665-1.575-22.055-6.302-33.083-16.542
	C152.025,202.437,121.305,248.123,121.305,300.111z"/>
<path style="fill:#183651;" d="M382.818,307.988H121.305c-4.726,0-7.877-3.151-7.877-7.877c0-53.563,31.508-103.188,79.557-125.243
	c3.151-1.575,6.302-0.788,8.665,1.575c12.603,11.028,25.206,14.178,29.145,14.966c8.665,1.575,15.754,2.363,22.843,2.363
	c18.905,0,35.446-6.302,48.049-17.329c2.363-2.363,5.514-2.363,8.665-1.575c48.837,22.843,80.345,72.468,80.345,126.031
	C390.695,304.837,387.545,307.988,382.818,307.988z M129.182,292.234h245.76c-3.151-42.535-28.357-81.92-66.166-101.612
	c-21.268,17.329-48.837,22.055-80.345,14.966c-5.514-0.788-18.905-3.938-32.295-14.966
	C157.538,211.102,132.332,249.698,129.182,292.234z"/>
<path style="fill:#2EA0DA;" d="M157.538,268.603c7.089-19.692,19.692-37.809,37.022-49.625c9.452,4.726,18.905,8.665,28.357,10.24
	c10.24,2.363,20.48,3.151,30.72,3.151c20.48,0,38.597-4.726,55.138-14.178c17.329,12.603,30.72,29.932,37.022,49.625H157.538
	V268.603z"/>
<path style="fill:#FBBD5E;" d="M307.988,112.64c0,0-5.514,69.317-71.68,54.351c0,0-31.508-4.726-35.446-41.748l-3.151-11.028
	l-7.877-52.775l34.658-25.994l57.502-2.363l27.569,20.48v42.535L307.988,112.64z"/>
<path style="fill:#183651;" d="M253.637,176.443c-6.302,0-12.603-0.788-19.692-2.363c-12.603-1.575-37.809-14.178-40.96-48.049
	l-3.151-9.452v-0.788l-7.877-52.775c-0.788-3.151,0.788-6.302,3.151-7.877l35.446-25.206c0.788-1.575,2.363-1.575,3.938-2.363
	l57.502-2.363c1.575,0,3.938,0.788,4.726,1.575l27.569,20.48c2.363,1.575,3.151,3.938,3.151,6.302v42.535v0.788l-2.363,16.542
	C314.289,134.695,298.535,176.443,253.637,176.443z M205.588,111.852l3.151,10.24c0,0.788,0,0.788,0,1.575
	c3.151,30.72,28.357,34.658,28.357,35.446c6.302,1.575,11.815,2.363,16.542,2.363c41.748,0,45.686-47.262,46.474-48.837
	l1.575-16.542V57.502l-22.055-15.754l-51.988,1.575l-29.932,21.268L205.588,111.852z"/>
<path style="fill:#E0E4E8;" d="M197.711,114.215c0,0,2.363-10.24-9.452-17.329c0,0-22.843-59.077,31.508-77.194
	c0,0-3.938-4.726-3.151-11.815c0,0,7.877,4.726,46.474,3.151c0,0,25.206,2.363,32.295,22.843c0,0,39.385,0,21.268,61.44
	c0,0-9.452,5.514-8.665,17.329c0,0,7.877-66.166-25.206-59.077c0,0-30.72,14.966-51.988-5.514
	C230.794,47.262,191.409,45.686,197.711,114.215z"/>
<path style="fill:#183651;" d="M197.711,122.092C196.923,122.092,196.923,122.092,197.711,122.092c-4.726,0-7.877-3.151-7.877-7.089
	c0-2.363,0-3.938-0.788-6.302c-0.788-1.575-2.363-3.938-5.514-4.726c-1.575-0.788-3.151-2.363-3.151-3.938
	c-0.788-1.575-11.815-31.508,0.788-58.289c5.514-11.815,14.966-20.48,27.569-26.782c-0.788-2.363-0.788-5.514,0-7.877
	c0-2.363,2.363-4.726,4.726-6.302C215.828,0,218.978,0,221.342,1.575c0,0,5.514,2.363,25.206,2.363c4.726,0,10.24,0,16.542-0.788
	h0.788c0.788,0,26.782,2.363,37.022,23.631c5.514,0.788,14.178,3.938,20.48,12.603c9.452,12.603,10.24,32.295,3.151,57.502
	c-0.788,2.363-1.575,3.938-3.938,4.726l0,0c0,0-3.151,2.363-4.726,6.302c0,3.151-0.788,5.514-0.788,5.514
	c-0.788,3.938-3.938,7.089-7.877,7.089c-3.938,0-7.089-3.151-7.877-7.089c0-2.363,0-4.726,0.788-7.089
	c1.575-20.48-1.575-36.234-7.089-42.535c-2.363-2.363-4.726-3.151-8.665-2.363c-3.151,1.575-13.391,5.514-25.994,5.514
	c-11.815,0-22.055-3.938-30.72-11.028c-3.151,0.788-7.877,2.363-12.603,7.089c-7.877,7.877-11.815,22.843-11.028,43.323
	c1.575,5.514,0.788,9.452,0,10.24C204.012,119.729,200.862,122.092,197.711,122.092z M226.855,18.117c0,0.788,0,2.363,0,3.151
	c-0.788,2.363-2.363,4.726-5.514,5.514c-12.603,3.938-22.055,11.028-26.782,21.268c-4.726,9.452-4.726,20.48-3.938,29.145
	c2.363-10.24,6.302-18.905,12.603-25.206c11.028-11.028,22.843-11.815,26.782-11.815c2.363,0,4.726,0.788,5.514,2.363
	c6.302,5.514,13.391,8.665,22.843,8.665c11.028,0,19.692-3.938,20.48-4.726c0.788,0,0.788-0.788,1.575-0.788
	c9.452-2.363,18.117,0,24.418,7.089c3.938,3.938,6.302,9.452,8.665,15.754c0-7.877-1.575-14.966-4.726-19.692
	c-5.514-7.089-13.391-7.089-13.391-7.089c-3.151,0-6.302-2.363-7.089-5.514c-4.726-14.178-22.055-17.329-25.206-17.329
	C245.76,19.692,234.732,18.905,226.855,18.117z"/>
<circle style="fill:#FFFFFF;" cx="252.062" cy="409.6" r="29.145"/>
<path style="fill:#183651;" d="M252.062,446.622c-20.48,0-37.022-16.542-37.022-37.022c0-20.48,16.542-37.022,37.022-37.022
	s37.022,16.542,37.022,37.022C289.083,430.08,272.542,446.622,252.062,446.622z M252.062,388.332
	c-11.815,0-21.268,9.452-21.268,21.268c0,11.815,9.452,21.268,21.268,21.268s21.268-9.452,21.268-21.268
	C273.329,397.785,263.877,388.332,252.062,388.332z"/>
<path style="fill:#E0E4E8;" d="M252.062,438.745c-31.508,0-57.502,25.994-57.502,57.502h115.791
	C309.563,464.738,283.569,438.745,252.062,438.745z"/>
<path style="fill:#183651;" d="M309.563,504.123H194.56c-4.726,0-7.877-3.151-7.877-7.877c0-36.234,29.145-65.378,65.378-65.378
	s65.378,29.145,65.378,65.378C317.44,500.972,314.289,504.123,309.563,504.123z M203.225,488.369h98.462
	c-3.938-23.631-24.418-41.748-48.837-41.748S206.375,464.738,203.225,488.369z"/>
<circle style="fill:#FFFFFF;" cx="65.378" cy="375.729" r="29.145"/>
<path style="fill:#183651;" d="M65.378,412.751c-20.48,0-37.022-16.542-37.022-37.022s16.542-37.022,37.022-37.022
	s37.022,16.542,37.022,37.022C102.4,396.209,85.858,412.751,65.378,412.751z M65.378,354.462c-11.815,0-21.268,9.452-21.268,21.268
	c0,11.815,9.452,21.268,21.268,21.268s21.268-9.452,21.268-21.268C86.646,363.914,77.194,354.462,65.378,354.462z"/>
<path style="fill:#4FBF9F;" d="M65.378,404.874c-31.508,0-57.502,25.994-57.502,57.502h115.791
	C123.668,430.868,97.674,404.874,65.378,404.874z"/>
<path style="fill:#183651;" d="M123.668,470.252H7.877c-4.726,0-7.877-3.151-7.877-7.877c0-36.234,29.145-65.378,65.378-65.378
	s65.378,29.145,65.378,65.378C131.545,467.102,127.606,470.252,123.668,470.252z M16.542,454.498h98.462
	c-3.938-23.631-24.418-41.748-48.837-41.748C40.96,412.751,20.48,430.868,16.542,454.498z"/>
<circle style="fill:#FFFFFF;" cx="438.745" cy="375.729" r="29.145"/>
<path style="fill:#183651;" d="M438.745,412.751c-20.48,0-37.022-16.542-37.022-37.022s16.542-37.022,37.022-37.022
	c20.48,0,37.022,16.542,37.022,37.022C475.766,396.209,459.225,412.751,438.745,412.751z M438.745,354.462
	c-11.815,0-21.268,9.452-21.268,21.268c0,11.815,9.452,21.268,21.268,21.268c11.815,0,21.268-9.452,21.268-21.268
	C460.012,363.914,450.56,354.462,438.745,354.462z"/>
<path style="fill:#2EA0DA;" d="M438.745,404.874c-31.508,0-57.502,25.994-57.502,57.502h115.791
	C496.246,430.868,470.252,404.874,438.745,404.874z"/>
<g>
	<path style="fill:#183651;" d="M496.246,470.252H380.455c-4.726,0-7.877-3.151-7.877-7.877c0-36.234,29.145-65.378,65.378-65.378
		s65.378,29.145,65.378,65.378C504.123,467.102,500.972,470.252,496.246,470.252z M389.12,454.498h98.462
		c-3.938-23.631-24.418-41.748-48.837-41.748S393.058,430.868,389.12,454.498z"/>
	<rect x="244.185" y="300.111" style="fill:#183651;" width="15.754" height="51.988"/>
	<polygon style="fill:#183651;" points="446.622,218.978 430.868,218.978 430.868,74.831 364.702,74.831 364.702,59.077 
		446.622,59.077 	"/>
	<rect x="430.868" y="234.732" style="fill:#183651;" width="15.754" height="15.754"/>
	<rect x="430.868" y="266.24" style="fill:#183651;" width="15.754" height="15.754"/>
	<rect x="430.868" y="297.748" style="fill:#183651;" width="15.754" height="15.754"/>
	<polygon style="fill:#183651;" points="73.255,218.978 57.502,218.978 57.502,59.077 139.422,59.077 139.422,74.831 73.255,74.831 
			"/>
	<rect x="57.502" y="234.732" style="fill:#183651;" width="15.754" height="15.754"/>
	<rect x="57.502" y="266.24" style="fill:#183651;" width="15.754" height="15.754"/>
	<rect x="57.502" y="297.748" style="fill:#183651;" width="15.754" height="15.754"/>
</g>
<g>
</g>
<g>
</g>
<g>
</g>
<g>
</g>
<g>
</g>
<g>
</g>
<g>
</g>
<g>
</g>
<g>
</g>
<g>
</g>
<g>
</g>
<g>
</g>
<g>
</g>
<g>
</g>
<g>
</g>
</svg>
