<?xml version="1.0" encoding="iso-8859-1"?>
<!-- Generator: Adobe Illustrator 19.0.0, SVG Export Plug-In . SVG Version: 6.00 Build 0)  -->
<svg version="1.1" id="Capa_1" xmlns="http://www.w3.org/2000/svg" xmlns:xlink="http://www.w3.org/1999/xlink" x="0px" y="0px"
	 viewBox="0 0 504.123 504.123" style="enable-background:new 0 0 504.123 504.123;" xml:space="preserve">
<circle style="fill:#E0E4E8;" cx="252.062" cy="252.062" r="252.062"/>
<path style="fill:#FBBD5E;" d="M358.4,282.782L358.4,282.782c-75.618,0-137.846-61.44-137.846-137.846l0,0
	c0-75.618,61.44-137.846,137.846-137.846l0,0c75.618,0,137.846,61.44,137.846,137.846l0,0
	C496.246,221.342,434.806,282.782,358.4,282.782z"/>
<path style="fill:#183651;" d="M358.4,290.658c-80.345,0-145.723-65.378-145.723-145.723C213.465,65.378,278.843,0,358.4,0
	c80.345,0,145.723,65.378,145.723,145.723C504.123,225.28,438.745,290.658,358.4,290.658z M358.4,15.754
	c-70.892,0-129.182,58.289-129.182,129.969S287.508,274.905,358.4,274.905s129.969-58.289,129.969-129.182
	S430.08,15.754,358.4,15.754z"/>
<path style="fill:#FFFFFF;" d="M358.4,251.274c-58.289,0-106.338-47.262-106.338-106.338S300.111,39.385,358.4,39.385
	s106.338,47.262,106.338,106.338S417.477,251.274,358.4,251.274z"/>
<g>
	<path style="fill:#183651;" d="M356.037,196.923v-9.452c-11.028-0.788-21.268-5.514-30.72-13.391l9.452-11.028
		c7.089,6.302,14.178,9.452,21.268,11.028v-24.418c-9.452-2.363-16.542-5.514-20.48-8.665c-4.726-3.938-6.302-8.665-6.302-16.542
		c0-7.089,2.363-13.391,7.877-17.329c4.726-4.726,11.815-7.089,19.692-7.089v-6.302h7.877v6.302
		c9.452,0.788,18.117,3.938,25.994,9.452l-7.877,11.815c-5.514-3.938-11.028-6.302-18.117-7.089v23.631l0,0
		c9.452,2.363,16.542,5.514,21.268,9.452c4.726,3.938,7.089,9.452,7.089,16.542c0,7.089-2.363,13.391-7.877,17.329
		c-5.514,4.726-11.815,7.089-20.48,7.089v8.665H356.037z M347.372,116.578c-2.363,1.575-3.151,3.938-3.151,7.089
		c0,3.151,0.788,4.726,2.363,6.302c1.575,1.575,4.726,3.151,9.452,4.726v-21.268C352.098,113.428,348.948,115.003,347.372,116.578z
		 M373.366,170.929c2.363-1.575,3.151-3.938,3.151-7.089c0-3.151-0.788-5.514-2.363-7.089c-1.575-1.575-5.514-3.151-10.24-4.726
		v22.055C367.852,174.08,371.003,173.292,373.366,170.929z"/>
	<rect x="22.055" y="230.794" style="fill:#183651;" width="15.754" height="7.877"/>
	<path style="fill:#183651;" d="M37.809,215.04H22.055v-15.754h15.754V215.04z M37.809,183.532H22.055v-15.754h15.754V183.532z
		 M37.809,152.812H22.055v-15.754h15.754V152.812z M37.809,121.305l-15.754-0.788c0-5.514,0.788-11.815,2.363-17.329l14.966,3.938
		C38.597,112.64,37.809,116.578,37.809,121.305z M44.898,95.311L30.72,87.434c3.151-4.726,6.302-10.24,10.24-14.178l11.815,11.028
		C49.625,87.434,47.262,91.372,44.898,95.311z M63.015,74.831l-8.665-12.603c4.726-3.151,10.24-6.302,15.754-7.877l5.514,14.966
		C70.892,70.105,66.954,72.468,63.015,74.831z M89.009,65.378l-1.575-15.754c3.151,0,5.514-0.788,8.665-0.788h7.877v15.754h-7.877
		C92.948,65.378,90.585,65.378,89.009,65.378z M228.431,65.378h-15.754V49.625h15.754V65.378z M196.923,65.378h-15.754V49.625
		h15.754V65.378z M166.203,65.378h-15.754V49.625h15.754V65.378z M134.695,65.378h-15.754V49.625h15.754V65.378z"/>
	<rect x="244.185" y="49.625" style="fill:#183651;" width="7.877" height="15.754"/>
	<path style="fill:#183651;" d="M420.628,482.068h-15.754v-15.754h15.754V482.068z M389.12,482.068h-15.754v-15.754h15.754V482.068z
		 M437.957,481.28l-3.151-15.754c3.938-0.788,8.665-2.363,12.603-4.726l7.877,13.391
		C449.772,477.342,444.258,479.705,437.957,481.28z M469.465,462.375l-11.815-10.24c3.151-3.151,5.514-7.089,7.089-11.028
		l14.966,6.302C476.554,452.923,473.403,457.649,469.465,462.375z M482.855,429.292l-15.754-0.788c0-0.788,0-1.575,0-2.363v-12.603
		h15.754v12.603C482.855,426.929,482.855,428.505,482.855,429.292z M482.855,396.997h-15.754v-15.754h15.754V396.997z
		 M482.855,365.489h-15.754v-15.754h15.754V365.489z M482.855,333.982h-15.754v-15.754h15.754V333.982z M482.855,302.474h-15.754
		V286.72h15.754V302.474z M482.855,270.966h-15.754v-15.754h15.754V270.966z M482.855,239.458h-15.754v-15.754h15.754V239.458z"/>
</g>
<path style="fill:#F06151;" d="M352.098,238.671H29.932c-11.815,0-22.055,9.452-22.055,22.055v214.252
	c0,11.815,9.452,22.055,22.055,22.055h322.166c11.815,0,22.055-9.452,22.055-22.055V260.726
	C373.366,248.123,363.914,238.671,352.098,238.671z"/>
<path style="fill:#183651;" d="M352.098,504.123H29.932C13.391,504.123,0,490.732,0,474.191V260.726
	c0-16.542,13.391-29.932,29.932-29.932h322.166c16.542,0,29.932,13.391,29.932,29.932v214.252
	C381.243,490.732,368.64,504.123,352.098,504.123z M29.932,246.548c-7.877,0-14.178,6.302-14.178,14.178v214.252
	c0,7.877,6.302,14.178,14.178,14.178h322.166c7.877,0,14.178-6.302,14.178-14.178V260.726c0-7.877-6.302-14.178-14.178-14.178
	H29.932z"/>
<rect x="39.385" y="270.178" style="fill:#FFFFFF;" width="302.474" height="194.56"/>
<path style="fill:#183651;" d="M257.575,246.548c-4.726,0-7.877-3.151-7.877-7.877V204.8c0-5.514-4.726-9.452-9.452-9.452h-98.462
	c-5.514,0-9.452,4.726-9.452,9.452v33.871c0,4.726-3.151,7.877-7.877,7.877c-4.726,0-7.877-3.151-7.877-7.877V204.8
	c0-14.178,11.815-25.206,25.206-25.206h97.674c14.178,0,25.206,11.815,25.206,25.206v33.871
	C265.452,242.609,261.514,246.548,257.575,246.548z"/>
<path style="fill:#183651;" d="M373.366,374.942H7.877c-4.726,0-7.877-3.151-7.877-7.877s3.151-7.877,7.877-7.877h365.489
	c4.726,0,7.877,3.151,7.877,7.877S378.092,374.942,373.366,374.942z"/>
<rect x="152.812" y="337.92" style="fill:#FFFFFF;" width="75.618" height="58.289"/>
<path style="fill:#183651;" d="M228.431,404.874h-75.618c-4.726,0-7.877-3.151-7.877-7.877v-58.289c0-4.726,3.151-7.877,7.877-7.877
	h75.618c4.726,0,7.877,3.151,7.877,7.877v58.289C236.308,400.935,233.157,404.874,228.431,404.874z M160.689,389.12h59.865v-42.535
	h-59.865V389.12z"/>
<g>
</g>
<g>
</g>
<g>
</g>
<g>
</g>
<g>
</g>
<g>
</g>
<g>
</g>
<g>
</g>
<g>
</g>
<g>
</g>
<g>
</g>
<g>
</g>
<g>
</g>
<g>
</g>
<g>
</g>
</svg>
