<?xml version="1.0" encoding="iso-8859-1"?>
<!-- Generator: Adobe Illustrator 19.0.0, SVG Export Plug-In . SVG Version: 6.00 Build 0)  -->
<svg version="1.1" id="Capa_1" xmlns="http://www.w3.org/2000/svg" xmlns:xlink="http://www.w3.org/1999/xlink" x="0px" y="0px"
	 viewBox="0 0 504.123 504.123" style="enable-background:new 0 0 504.123 504.123;" xml:space="preserve">
<circle style="fill:#2CA0DA;" cx="252.302" cy="252.849" r="251.274"/>
<polygon style="fill:#E1E6E7;" points="263.329,207.163 297.2,240.246 466.554,70.892 487.034,91.372 495.699,7.877 412.203,16.542 
	432.683,37.809 "/>
<path style="fill:#183651;" d="M297.2,248.123c-2.363,0-3.938-0.788-5.514-2.363l-33.871-33.871
	c-1.575-1.575-2.363-3.151-2.363-5.514c0-2.363,0.788-3.938,2.363-5.514l163.84-163.052l-14.966-14.966
	c-2.363-2.363-3.151-5.514-1.575-7.877c0.788-3.151,3.938-5.514,6.302-5.514l83.495-8.665c2.363,0,4.726,0.788,6.302,2.363
	c1.575,1.575,2.363,3.938,2.363,6.302l-8.665,83.495c0,3.151-2.363,5.514-5.514,6.302c-3.151,0.788-6.302,0-7.877-1.575
	l-14.966-14.966l-163.84,163.84C301.139,248.123,298.776,248.123,297.2,248.123z M274.357,207.163l22.843,22.843L461.04,65.378
	c1.575-1.575,3.151-2.363,5.514-2.363l0,0c2.363,0,3.938,0.788,5.514,2.363l8.665,8.665l6.302-57.502l-57.502,6.302l8.665,8.665
	c1.575,1.575,2.363,3.151,2.363,5.514s-0.788,4.726-2.363,6.302L274.357,207.163z"/>
<polygon style="fill:#E1E6E7;" points="241.274,296.172 207.403,262.302 38.05,432.443 17.57,411.963 8.905,495.458 92.4,486.006 
	71.92,465.526 "/>
<path style="fill:#183651;" d="M2.603,500.972c-1.575-1.575-2.363-3.938-2.363-6.302l8.665-83.495c0-3.151,2.363-5.514,5.514-6.302
	c3.151-0.788,6.302,0,7.877,1.575l15.754,14.966l163.84-163.84c3.151-3.151,7.877-3.151,11.028,0l33.871,33.871
	c1.575,1.575,2.363,3.151,2.363,5.514c0,2.363-0.788,3.938-2.363,5.514L82.948,465.526l14.966,14.966
	c2.363,2.363,3.151,5.514,1.575,7.877c-0.788,3.151-3.938,4.726-6.302,5.514l-83.495,9.452
	C7.33,503.335,4.966,502.548,2.603,500.972z M23.871,429.292l-6.302,57.502l57.502-6.302l-8.665-8.665
	c-1.575-1.575-2.363-3.151-2.363-5.514s0.788-3.938,2.363-5.514l163.84-163.84l-22.843-22.843l-163.84,163.84
	c-3.151,3.151-7.877,3.151-11.028,0L23.871,429.292z"/>
<polygon style="fill:#E1E6E7;" points="297.2,263.089 263.329,296.172 432.683,466.314 412.203,486.794 495.699,495.458 
	487.034,411.963 466.554,432.443 "/>
<path style="fill:#183651;" d="M494.911,503.335l-83.495-8.665c-3.151,0-5.514-2.363-6.302-5.514c-0.788-3.151,0-6.302,1.575-7.877
	l14.966-14.966l-163.84-164.628c-1.575-1.575-2.363-3.151-2.363-5.514s0.788-3.938,2.363-5.514l33.871-33.871
	c3.151-3.151,7.877-3.151,11.028,0l163.84,164.628l14.966-14.966c2.363-2.363,5.514-3.151,7.877-1.575
	c3.151,0.788,4.726,3.938,5.514,6.302l8.665,81.92C505.151,498.609,500.425,504.123,494.911,503.335z M429.533,480.492l57.502,6.302
	l-6.302-57.502l-8.665,8.665c-3.151,3.151-7.877,3.151-11.028,0L297.2,274.117l-22.843,22.843l163.84,163.84
	c3.151,3.151,3.151,7.877,0,11.028L429.533,480.492z"/>
<polygon style="fill:#E1E6E7;" points="207.403,240.246 241.274,207.163 71.92,37.022 92.4,16.542 8.905,7.877 17.57,91.372 
	38.05,70.892 "/>
<path style="fill:#183651;" d="M207.403,248.123L207.403,248.123c-2.363,0-3.938-0.788-5.514-2.363L38.05,81.92L23.083,96.886
	c-2.363,2.363-5.514,3.151-7.877,1.575c-3.151-0.788-4.726-3.938-5.514-6.302L1.028,8.665c0-2.363,0.788-4.726,2.363-6.302
	S7.33,0,9.693,0l83.495,8.665c3.151,0,5.514,2.363,6.302,5.514s0,6.302-1.575,7.877L82.948,37.022l163.84,163.84
	c3.151,3.151,3.151,7.877,0,11.028l-33.871,33.871C212.13,247.335,209.766,248.123,207.403,248.123z M38.05,63.015L38.05,63.015
	c2.363,0,3.938,0.788,5.514,2.363l163.84,163.84l22.843-22.843L66.406,42.535c-3.151-3.151-3.151-7.877,0-11.028l8.665-8.665
	L17.57,16.542l6.302,57.502l8.665-8.665C34.111,63.803,35.686,63.015,38.05,63.015z"/>
<circle style="fill:#FFFFFF;" cx="252.302" cy="251.274" r="202.437"/>
<path style="fill:#183651;" d="M252.302,462.375c-115.791,0-210.314-94.523-210.314-210.314S136.511,41.748,252.302,41.748
	s210.314,94.523,210.314,210.314S368.093,462.375,252.302,462.375z M252.302,56.714c-107.126,0-194.56,87.434-194.56,194.56
	s87.434,194.56,194.56,194.56s194.56-87.434,194.56-194.56S359.428,56.714,252.302,56.714z"/>
<path style="fill:#4FBF9F;" d="M358.64,286.72v104.763H145.963V286.72c0-26.782,21.268-48.837,47.262-49.625
	c14.178,21.268,35.446,34.658,59.077,34.658c24.418,0,45.686-13.391,59.077-34.658C338.16,238.671,358.64,259.938,358.64,286.72z"/>
<path style="fill:#FFFFFF;" d="M175.108,361.551V286.72c0-6.302,3.151-11.815,7.089-15.754
	c18.905,18.905,43.323,29.932,69.317,29.932s50.412-11.028,69.317-29.932c4.726,3.938,7.089,9.452,7.089,15.754v74.831H175.108z"/>
<ellipse style="fill:#FBBD5E;" cx="252.302" cy="168.566" rx="51.2" ry="70.105"/>
<path style="fill:#F06151;" d="M308.228,118.942c-1.575-12.603-11.815-22.055-22.843-27.569c-20.48-11.028-45.686-11.028-66.954,0
	c-11.028,5.514-21.268,14.178-22.843,27.569c0,0-15.754,11.028,5.514,59.865c0,0-4.726-11.815,11.028-24.418
	c0,0-7.089-22.055,12.603-22.843c0,0,16.542,9.452,26.782,7.089c10.24,1.575,26.782-7.089,26.782-7.089
	c20.48,0,12.603,22.843,12.603,22.843c15.754,11.815,11.028,24.418,11.028,24.418C323.982,129.969,308.228,118.942,308.228,118.942z
	"/>
<g>
	<rect x="204.253" y="327.68" style="fill:#183651;" width="15.754" height="16.542"/>
	<rect x="244.425" y="327.68" style="fill:#183651;" width="15.754" height="16.542"/>
	<rect x="284.597" y="327.68" style="fill:#183651;" width="15.754" height="16.542"/>
</g>
<g>
</g>
<g>
</g>
<g>
</g>
<g>
</g>
<g>
</g>
<g>
</g>
<g>
</g>
<g>
</g>
<g>
</g>
<g>
</g>
<g>
</g>
<g>
</g>
<g>
</g>
<g>
</g>
<g>
</g>
</svg>
