<?xml version="1.0" encoding="iso-8859-1"?>
<!-- Generator: Adobe Illustrator 19.0.0, SVG Export Plug-In . SVG Version: 6.00 Build 0)  -->
<svg version="1.1" id="Capa_1" xmlns="http://www.w3.org/2000/svg" xmlns:xlink="http://www.w3.org/1999/xlink" x="0px" y="0px"
	 viewBox="0 0 504.123 504.123" style="enable-background:new 0 0 504.123 504.123;" xml:space="preserve">
<circle style="fill:#F06151;" cx="252.062" cy="243.397" r="243.397"/>
<rect x="37.809" y="129.969" style="fill:#E0E4E8;" width="428.505" height="336.345"/>
<path style="fill:#183651;" d="M466.314,474.191H37.809c-3.938,0-7.877-3.151-7.877-7.877V129.969c0-3.938,3.151-7.877,7.877-7.877
	h428.505c3.938,0,7.877,3.151,7.877,7.877v336.345C474.191,470.252,471.04,474.191,466.314,474.191z M44.898,458.437h413.538
	V137.846H44.898V458.437z"/>
<g>
	<rect x="67.742" y="160.689" style="fill:#FFFFFF;" width="367.852" height="275.692"/>
	<path style="fill:#FFFFFF;" d="M472.615,99.249H31.508c-8.665,0-14.966,7.089-14.966,14.966l0,0
		c0,8.665,7.089,14.966,14.966,14.966h441.108c8.665,0,14.966-7.089,14.966-14.966l0,0
		C487.582,106.338,481.28,99.249,472.615,99.249z"/>
</g>
<path style="fill:#183651;" d="M472.615,137.846H31.508c-12.603,0-22.843-10.24-22.843-22.843S18.905,92.16,31.508,92.16h441.108
	c12.603,0,22.843,10.24,22.843,22.843S485.218,137.846,472.615,137.846z M31.508,107.126c-3.938,0-7.877,3.151-7.877,7.877
	s3.151,7.877,7.877,7.877h441.108c3.938,0,7.877-3.151,7.877-7.877s-3.151-7.877-7.877-7.877H31.508z"/>
<path style="fill:#FFFFFF;" d="M472.615,466.314H31.508c-8.665,0-14.966,7.089-14.966,14.966c0,8.665,7.089,14.966,14.966,14.966
	h441.108c8.665,0,14.966-7.089,14.966-14.966C487.582,472.615,481.28,466.314,472.615,466.314z"/>
<g>
	<path style="fill:#183651;" d="M472.615,504.123H31.508c-12.603,0-22.843-10.24-22.843-22.843s10.24-22.843,22.843-22.843h441.108
		c12.603,0,22.843,10.24,22.843,22.843C495.458,493.883,485.218,504.123,472.615,504.123z M31.508,474.191
		c-3.938,0-7.877,3.151-7.877,7.877c0,3.938,3.151,7.877,7.877,7.877h441.108c3.938,0,7.877-3.151,7.877-7.877
		c0-3.938-3.151-7.877-7.877-7.877H31.508z"/>
	<path style="fill:#183651;" d="M252.062,76.406c-15.754,0-29.145-13.391-29.145-29.145s13.391-29.145,29.145-29.145
		s29.145,13.391,29.145,29.145S267.815,76.406,252.062,76.406z M252.062,33.083c-7.877,0-14.178,6.302-14.178,14.178
		s6.302,14.178,14.178,14.178c7.877,0,14.178-6.302,14.178-14.178S259.938,33.083,252.062,33.083z"/>
	<path style="fill:#183651;" d="M252.062,107.126c-3.938,0-7.877-3.151-7.877-7.877V67.742c0-3.938,3.151-7.877,7.877-7.877
		c4.726,0,7.877,3.151,7.877,7.877v31.508C259.938,103.975,256,107.126,252.062,107.126z"/>
</g>
<circle style="fill:#FFFFFF;" cx="252.062" cy="208.738" r="22.843"/>
<path style="fill:#183651;" d="M252.062,238.671c-16.542,0-30.72-13.391-30.72-30.72s13.391-30.72,30.72-30.72
	c16.542,0,30.72,13.391,30.72,30.72S268.603,238.671,252.062,238.671z M252.062,192.985c-8.665,0-14.966,7.089-14.966,14.966
	c0,8.665,7.089,14.966,14.966,14.966c8.665,0,14.966-7.089,14.966-14.966S260.726,192.985,252.062,192.985z"/>
<path style="fill:#4FBF9F;" d="M252.062,231.582c25.206,0,44.898,20.48,44.898,44.898h-89.797
	C207.163,251.274,226.855,231.582,252.062,231.582z"/>
<g>
	<path style="fill:#183651;" d="M297.748,284.357C297.748,284.357,296.96,284.357,297.748,284.357h-90.585
		c-3.938,0-7.877-3.151-7.877-7.877c0-29.145,23.631-52.775,52.775-52.775c28.357,0,51.988,22.843,52.775,51.2
		c0,0.788,0,0.788,0,1.575C304.837,280.418,301.686,284.357,297.748,284.357z M215.04,268.603h74.043
		c-3.151-17.329-18.905-29.932-37.022-29.932S218.978,252.062,215.04,268.603z"/>
	<path style="fill:#183651;" d="M393.846,372.578c-3.938,0-7.877-3.151-7.877-7.877v-37.809H117.366v38.597
		c0,3.938-3.151,7.877-7.877,7.877c-3.938,0-7.877-3.151-7.877-7.877v-46.474c0-3.938,3.151-7.877,7.877-7.877h284.357
		c3.938,0,7.877,3.151,7.877,7.877v45.686C401.723,369.428,398.572,372.578,393.846,372.578z"/>
	<path style="fill:#183651;" d="M252.062,326.892c-3.938,0-7.877-3.151-7.877-7.877V276.48c0-3.938,3.151-7.877,7.877-7.877
		c4.726,0,7.877,3.151,7.877,7.877v42.535C259.938,323.742,256,326.892,252.062,326.892z"/>
</g>
<circle style="fill:#FBBD5E;" cx="110.277" cy="387.545" r="22.843"/>
<g>
	<path style="fill:#183651;" d="M110.277,418.265c-16.542,0-29.932-13.391-29.932-29.932S93.735,358.4,110.277,358.4
		s29.932,13.391,29.932,29.932C140.209,404.874,126.818,418.265,110.277,418.265z M110.277,372.578
		c-8.665,0-14.966,7.089-14.966,14.966c0,8.665,7.089,14.966,14.966,14.966s14.966-7.089,14.966-14.966
		S118.154,372.578,110.277,372.578z"/>
	<path style="fill:#183651;" d="M204.8,372.578c-3.938,0-7.877-3.151-7.877-7.877v-45.686c0-3.938,3.151-7.877,7.877-7.877
		c3.938,0,7.877,3.151,7.877,7.877v45.686C212.677,369.428,208.738,372.578,204.8,372.578z"/>
</g>
<circle style="fill:#FBBD5E;" cx="204.8" cy="387.545" r="22.843"/>
<g>
	<path style="fill:#183651;" d="M204.8,418.265c-16.542,0-29.932-13.391-29.932-29.932S188.258,358.4,204.8,358.4
		s29.932,13.391,29.932,29.932C234.732,404.874,221.342,418.265,204.8,418.265z M204.8,372.578c-8.665,0-14.966,7.089-14.966,14.966
		c0,8.665,7.089,14.966,14.966,14.966s14.966-7.089,14.966-14.966S212.677,372.578,204.8,372.578z"/>
	<path style="fill:#183651;" d="M299.323,372.578c-3.938,0-7.877-3.151-7.877-7.877v-45.686c0-3.938,3.151-7.877,7.877-7.877
		c4.726,0,7.877,3.151,7.877,7.877v45.686C307.2,369.428,303.262,372.578,299.323,372.578z"/>
</g>
<circle style="fill:#FBBD5E;" cx="299.323" cy="387.545" r="22.843"/>
<path style="fill:#183651;" d="M299.323,418.265c-16.542,0-29.932-13.391-29.932-29.932s13.391-29.932,29.932-29.932
	c16.542,0,29.932,13.391,29.932,29.932C330.043,404.874,315.865,418.265,299.323,418.265z M299.323,372.578
	c-8.665,0-14.966,7.089-14.966,14.966c0,8.665,7.089,14.966,14.966,14.966c8.665,0,14.966-7.089,14.966-14.966
	S307.988,372.578,299.323,372.578z"/>
<circle style="fill:#FBBD5E;" cx="393.846" cy="387.545" r="22.843"/>
<g>
	<path style="fill:#183651;" d="M393.846,418.265c-16.542,0-29.932-13.391-29.932-29.932s13.391-29.932,29.932-29.932
		c16.542,0,29.932,13.391,29.932,29.932C424.566,404.874,411.175,418.265,393.846,418.265z M393.846,372.578
		c-8.665,0-14.966,7.089-14.966,14.966c0,8.665,7.089,14.966,14.966,14.966c8.665,0,14.966-7.089,14.966-14.966
		C409.6,379.668,402.511,372.578,393.846,372.578z"/>
	<rect x="328.468" y="221.342" style="fill:#183651;" width="14.966" height="14.966"/>
	<rect x="358.4" y="221.342" style="fill:#183651;" width="14.966" height="14.966"/>
	<rect x="389.12" y="221.342" style="fill:#183651;" width="14.966" height="14.966"/>
	<rect x="100.037" y="221.342" style="fill:#183651;" width="14.966" height="14.966"/>
	<rect x="130.757" y="221.342" style="fill:#183651;" width="14.966" height="14.966"/>
	<rect x="160.689" y="221.342" style="fill:#183651;" width="14.966" height="14.966"/>
</g>
<g>
</g>
<g>
</g>
<g>
</g>
<g>
</g>
<g>
</g>
<g>
</g>
<g>
</g>
<g>
</g>
<g>
</g>
<g>
</g>
<g>
</g>
<g>
</g>
<g>
</g>
<g>
</g>
<g>
</g>
</svg>
