<?xml version="1.0" encoding="iso-8859-1"?>
<!-- Generator: Adobe Illustrator 19.0.0, SVG Export Plug-In . SVG Version: 6.00 Build 0)  -->
<svg version="1.1" id="Capa_1" xmlns="http://www.w3.org/2000/svg" xmlns:xlink="http://www.w3.org/1999/xlink" x="0px" y="0px"
	 viewBox="0 0 504.123 504.123" style="enable-background:new 0 0 504.123 504.123;" xml:space="preserve">
<circle style="fill:#FBBD5E;" cx="252.062" cy="252.062" r="252.062"/>
<rect x="51.2" y="105.551" style="fill:#4FBF9F;" width="402.511" height="287.508"/>
<path style="fill:#183651;" d="M452.923,400.935H51.2c-4.726,0-7.877-3.151-7.877-7.877V105.551c0-4.726,3.151-7.877,7.877-7.877
	h401.723c4.726,0,7.877,3.151,7.877,7.877v287.508C460.8,397.785,457.649,400.935,452.923,400.935z M59.077,385.182h385.969V113.428
	H59.077V385.182z"/>
<rect x="79.557" y="134.695" style="fill:#FFFFFF;" width="345.009" height="230.006"/>
<g>
	<rect x="288.295" y="175.655" style="fill:#183651;" width="15.754" height="14.178"/>
	<rect x="328.468" y="175.655" style="fill:#183651;" width="15.754" height="14.178"/>
	<rect x="367.852" y="175.655" style="fill:#183651;" width="15.754" height="14.178"/>
</g>
<path style="fill:#FFFFFF;" d="M456.862,105.551h-409.6c-10.24,0-18.117-7.877-18.117-18.117l0,0
	c0-10.24,7.877-18.117,18.117-18.117h408.812c10.24,0,18.117,7.877,18.117,18.117l0,0
	C474.978,97.674,466.314,105.551,456.862,105.551z"/>
<path style="fill:#183651;" d="M456.862,113.428h-409.6c-14.178,0-25.994-11.815-25.994-25.994S33.083,61.44,47.262,61.44h408.812
	c14.178,0,25.994,11.815,25.994,25.994S471.04,113.428,456.862,113.428z M47.262,77.194c-5.514,0-10.24,4.726-10.24,10.24
	c0,5.514,4.726,10.24,10.24,10.24h408.812c5.514,0,10.24-4.726,10.24-10.24c0-5.514-4.726-10.24-10.24-10.24H47.262z"/>
<path style="fill:#183651;" d="M252.062,458.437c-4.726,0-7.877-3.151-7.877-7.877v-57.502c0-4.726,3.151-7.877,7.877-7.877
	s7.877,3.151,7.877,7.877v57.502C259.938,454.498,256.788,458.437,252.062,458.437z"/>
<circle style="fill:#FFFFFF;" cx="252.062" cy="468.677" r="18.117"/>
<path style="fill:#183651;" d="M252.062,494.671c-14.178,0-25.994-11.815-25.994-25.994c0-14.178,11.815-25.994,25.994-25.994
	s25.994,11.815,25.994,25.994C278.055,483.643,266.24,494.671,252.062,494.671z M252.062,458.437c-5.514,0-10.24,4.726-10.24,10.24
	c0,5.514,4.726,10.24,10.24,10.24s10.24-4.726,10.24-10.24C262.302,463.163,257.575,458.437,252.062,458.437z"/>
<path style="fill:#2EA0DA;" d="M181.169,319.015c18.117-3.938,33.871-14.178,44.898-30.72c21.268-33.083,11.815-77.194-20.48-98.462
	l-38.597,59.865L181.169,319.015z"/>
<path style="fill:#E0E4E8;" d="M127.606,308.775c16.542,11.028,35.446,13.391,53.563,10.24l-14.966-69.317L127.606,308.775z"/>
<path style="fill:#F06151;" d="M127.606,308.775l38.597-59.865l-59.865-38.597C85.858,243.397,95.311,287.508,127.606,308.775z"/>
<path style="fill:#FBBD5E;" d="M205.588,189.834c-33.083-21.268-77.194-11.815-98.462,20.48l59.865,38.597L205.588,189.834z"/>
<rect x="280.418" y="237.095" style="fill:#F06151;" width="18.905" height="107.914"/>
<rect x="317.44" y="263.877" style="fill:#FBBD5E;" width="18.905" height="81.132"/>
<rect x="353.674" y="284.357" style="fill:#2EA0DA;" width="18.905" height="60.652"/>
<rect x="390.695" y="300.111" style="fill:#E0E4E8;" width="18.905" height="45.686"/>
<g>
</g>
<g>
</g>
<g>
</g>
<g>
</g>
<g>
</g>
<g>
</g>
<g>
</g>
<g>
</g>
<g>
</g>
<g>
</g>
<g>
</g>
<g>
</g>
<g>
</g>
<g>
</g>
<g>
</g>
</svg>
