<?xml version="1.0" encoding="iso-8859-1"?>
<!-- Generator: Adobe Illustrator 19.0.0, SVG Export Plug-In . SVG Version: 6.00 Build 0)  -->
<svg version="1.1" id="Capa_1" xmlns="http://www.w3.org/2000/svg" xmlns:xlink="http://www.w3.org/1999/xlink" x="0px" y="0px"
	 viewBox="0 0 504.155 504.155" style="enable-background:new 0 0 504.155 504.155;" xml:space="preserve">
<path style="fill:#FBBD5E;" d="M409.6,147.314H261.514c-13.391,0-23.631,10.24-23.631,23.631v301.686
	c0,13.391,10.24,23.631,23.631,23.631h211.102c13.391,0,23.631-10.24,23.631-23.631V233.961L409.6,147.314z"/>
<path style="fill:#183651;" d="M472.615,504.139H261.514c-17.329,0-31.508-14.178-31.508-31.508V170.945
	c0-17.329,14.178-31.508,31.508-31.508H409.6c2.363,0,3.938,0.788,5.514,2.363l86.646,86.646c1.575,1.575,2.363,3.151,2.363,5.514
	v238.671C504.123,489.961,489.945,504.139,472.615,504.139z M261.514,155.191c-8.665,0-15.754,7.089-15.754,15.754v301.686
	c0,8.665,7.089,15.754,15.754,15.754h211.102c8.665,0,15.754-7.089,15.754-15.754v-235.52l-81.92-81.92H261.514z"/>
<polygon style="fill:#FFFFFF;" points="269.391,464.754 269.391,178.822 409.6,178.822 464.738,233.961 464.738,464.754 "/>
<path style="fill:#2EA0DA;" d="M270.178,408.828H46.474c-21.268,0-38.597-17.329-38.597-38.597V46.49
	c0-21.268,17.329-38.597,38.597-38.597h223.705c21.268,0,38.597,17.329,38.597,38.597v324.529
	C307.988,391.499,291.446,408.828,270.178,408.828z"/>
<path style="fill:#183651;" d="M270.178,416.705H46.474C21.268,416.705,0,396.225,0,370.231V46.49
	C0,21.284,20.48,0.016,46.474,0.016h223.705c25.206,0,46.474,20.48,46.474,46.474v324.529
	C315.865,395.438,295.385,416.705,270.178,416.705z M46.474,15.77c-16.542,0-30.72,13.391-30.72,30.72v324.529
	c0,16.542,13.391,30.72,30.72,30.72h223.705c16.542,0,30.72-13.391,30.72-30.72V46.49c0-16.542-13.391-30.72-30.72-30.72H46.474z"/>
<path style="fill:#FFFFFF;" d="M46.474,382.047c-6.302,0-11.815-5.514-11.815-11.815V46.49c0-6.302,5.514-11.815,11.815-11.815
	h223.705c6.302,0,11.815,5.514,11.815,11.815v324.529c0,6.302-5.514,11.815-11.815,11.815H46.474V382.047z"/>
<rect x="68.529" y="58.305" style="fill:#F06151;" width="178.806" height="22.843"/>
<g>
	<rect x="68.529" y="111.081" style="fill:#E0E4E8;" width="178.806" height="22.843"/>
	<rect x="68.529" y="164.644" style="fill:#E0E4E8;" width="178.806" height="22.843"/>
	<rect x="68.529" y="218.207" style="fill:#E0E4E8;" width="178.806" height="22.843"/>
	<rect x="68.529" y="270.982" style="fill:#E0E4E8;" width="178.806" height="22.843"/>
	<rect x="68.529" y="324.545" style="fill:#E0E4E8;" width="83.495" height="22.843"/>
	<path style="fill:#E0E4E8;" d="M433.231,233.961h63.015L409.6,147.314v63.015C409.6,222.933,419.84,233.961,433.231,233.961z"/>
</g>
<g>
	<path style="fill:#183651;" d="M496.246,241.837h-63.015c-17.329,0-31.508-14.178-31.508-31.508v-63.015
		c0-3.151,1.575-6.302,4.726-7.089c3.151-1.575,6.302-0.788,8.665,1.575l86.646,86.646c2.363,2.363,3.151,5.514,1.575,8.665
		C502.548,239.474,499.397,241.837,496.246,241.837z M417.477,166.219v44.111c0,8.665,7.089,15.754,15.754,15.754h44.111
		L417.477,166.219z"/>
	<rect x="341.071" y="274.921" style="fill:#183651;" width="15.754" height="15.754"/>
	<rect x="385.182" y="274.921" style="fill:#183651;" width="15.754" height="15.754"/>
	<rect x="430.08" y="274.921" style="fill:#183651;" width="15.754" height="15.754"/>
	<rect x="341.071" y="319.031" style="fill:#183651;" width="104.763" height="15.754"/>
	<rect x="341.071" y="363.93" style="fill:#183651;" width="104.763" height="15.754"/>
	<rect x="341.071" y="408.828" style="fill:#183651;" width="104.763" height="15.754"/>
</g>
<g>
</g>
<g>
</g>
<g>
</g>
<g>
</g>
<g>
</g>
<g>
</g>
<g>
</g>
<g>
</g>
<g>
</g>
<g>
</g>
<g>
</g>
<g>
</g>
<g>
</g>
<g>
</g>
<g>
</g>
</svg>
