<?xml version="1.0" encoding="iso-8859-1"?>
<!-- Generator: Adobe Illustrator 19.0.0, SVG Export Plug-In . SVG Version: 6.00 Build 0)  -->
<svg version="1.1" id="Capa_1" xmlns="http://www.w3.org/2000/svg" xmlns:xlink="http://www.w3.org/1999/xlink" x="0px" y="0px"
	 viewBox="0 0 504.123 504.123" style="enable-background:new 0 0 504.123 504.123;" xml:space="preserve">
<circle style="fill:#E1E6E7;" cx="252.062" cy="252.062" r="252.062"/>
<path style="fill:#FBBD5E;" d="M77.982,51.2h263.877c14.966,0,26.782,11.815,26.782,26.782v182.745
	c0,14.966-11.815,26.782-26.782,26.782H189.834l-88.222,68.529v-68.529H77.194c-14.178,0-25.994-11.815-25.994-26.782V77.982
	C51.2,63.015,63.015,51.2,77.982,51.2z"/>
<path style="fill:#183651;" d="M98.462,363.126c-2.363-1.575-4.726-3.938-4.726-7.089v-60.652H77.194
	c-18.117,0-33.871-15.754-33.871-34.658V77.982c0-18.905,15.754-34.658,34.658-34.658h263.877c18.905,0,34.658,15.754,34.658,34.658
	v182.745c0,18.905-15.754,34.658-34.658,34.658H192.985l-85.858,66.954C104.763,364.702,100.825,364.702,98.462,363.126z
	 M77.982,59.077c-10.24,0-18.905,8.665-18.905,18.905v182.745c0,10.24,8.665,18.905,18.905,18.905H102.4
	c4.726,0,7.877,3.151,7.877,7.877v52.775l74.831-59.077c1.575-0.788,3.151-1.575,4.726-1.575h152.025
	c10.24,0,18.905-8.665,18.905-18.905V77.982c0-10.24-8.665-18.905-18.905-18.905C341.858,59.077,77.982,59.077,77.982,59.077z"/>
<path style="fill:#FFFFFF;" d="M127.606,261.514H77.982c0,0-0.788,0-0.788-0.788V77.982c0,0,0-0.788,0.788-0.788h263.877
	c0,0,0.788,0,0.788,0.788v182.745c0,0,0,0.788-0.788,0.788H181.169l-53.563,41.748V261.514z"/>
<path style="fill:#4FBF9F;" d="M434.018,237.095H247.335c-10.24,0-18.905,8.665-18.905,18.905v129.969
	c0,10.24,8.665,18.905,18.905,18.905h107.914l62.228,48.837v-48.837h17.329c10.24,0,18.905-8.665,18.905-18.905V256
	C452.923,244.972,444.258,237.095,434.018,237.095z"/>
<path style="fill:#183651;" d="M411.963,459.225l-59.865-47.262H247.335c-14.966,0-26.782-11.815-26.782-26.782V256
	c0-14.966,11.815-26.782,26.782-26.782h186.683c14.966,0,26.782,11.815,26.782,26.782v129.969c0,14.966-11.815,26.782-26.782,26.782
	h-9.452v40.172c0,3.151-1.575,5.514-4.726,7.089C417.477,460.8,414.326,460.8,411.963,459.225z M247.335,244.972
	c-6.302,0-11.028,4.726-11.028,11.028v129.969c0,6.302,4.726,11.028,11.028,11.028h107.914c1.575,0,3.151,0.788,4.726,1.575
	l49.625,38.597v-32.295c0-4.726,3.151-7.877,7.877-7.877h17.329c6.302,0,11.028-4.726,11.028-11.028V256
	c0-6.302-4.726-11.028-11.028-11.028H247.335z"/>
<polygon style="fill:#FFFFFF;" points="363.914,378.092 254.425,378.092 254.425,263.089 426.929,263.089 426.929,378.092 
	390.695,378.092 390.695,399.36 "/>
<polygon style="fill:#F06151;" points="218.978,159.114 212.677,152.812 207.163,152.812 200.862,159.114 205.588,163.84 
	203.225,195.348 216.615,195.348 214.252,163.052 "/>
<path style="fill:#2EA0DA;" d="M232.369,152.812l-22.843,39.385l-22.843-39.385c-22.055,8.665-37.022,29.932-37.022,55.138h118.942
	C269.391,182.745,254.425,161.477,232.369,152.812z"/>
<circle style="fill:#E0E4E8;" cx="210.314" cy="123.668" r="24.418"/>
<polygon style="fill:#F06151;" points="347.372,323.742 342.646,319.015 338.708,319.015 333.194,323.742 337.132,327.68 
	334.769,352.886 345.797,352.886 344.222,327.68 "/>
<path style="fill:#2EA0DA;" d="M358.4,319.015l-17.329,31.508l-17.329-31.508c-17.329,7.089-29.145,23.631-29.145,43.323h93.735
	C387.545,342.646,374.942,326.105,358.4,319.015z"/>
<circle style="fill:#E0E4E8;" cx="340.283" cy="296.172" r="19.692"/>
<g>
	<rect x="105.551" y="97.674" style="fill:#183651;" width="15.754" height="15.754"/>
	<rect x="105.551" y="145.723" style="fill:#183651;" width="15.754" height="15.754"/>
	<rect x="105.551" y="192.985" style="fill:#183651;" width="15.754" height="15.754"/>
	<rect x="298.535" y="97.674" style="fill:#183651;" width="15.754" height="15.754"/>
	<rect x="298.535" y="145.723" style="fill:#183651;" width="15.754" height="15.754"/>
	<rect x="298.535" y="192.985" style="fill:#183651;" width="15.754" height="15.754"/>
</g>
<g>
</g>
<g>
</g>
<g>
</g>
<g>
</g>
<g>
</g>
<g>
</g>
<g>
</g>
<g>
</g>
<g>
</g>
<g>
</g>
<g>
</g>
<g>
</g>
<g>
</g>
<g>
</g>
<g>
</g>
</svg>
