<?xml version="1.0" encoding="iso-8859-1"?>
<!-- Generator: Adobe Illustrator 19.0.0, SVG Export Plug-In . SVG Version: 6.00 Build 0)  -->
<svg version="1.1" id="Capa_1" xmlns="http://www.w3.org/2000/svg" xmlns:xlink="http://www.w3.org/1999/xlink" x="0px" y="0px"
	 viewBox="0 0 504.123 504.123" style="enable-background:new 0 0 504.123 504.123;" xml:space="preserve">
<path style="fill:#E0E4E8;" d="M330.831,7.877H31.508c-13.391,0-23.631,10.24-23.631,23.631v441.108
	c0,13.391,10.24,23.631,23.631,23.631h299.323c13.391,0,23.631-10.24,23.631-23.631V31.508
	C354.462,18.117,343.434,7.877,330.831,7.877z"/>
<path style="fill:#183651;" d="M330.831,504.123H31.508C14.178,504.123,0,489.945,0,472.615V31.508C0,14.178,14.178,0,31.508,0
	h299.323c17.329,0,31.508,14.178,31.508,31.508v441.108C362.338,489.945,348.16,504.123,330.831,504.123z M31.508,15.754
	c-8.665,0-15.754,7.089-15.754,15.754v441.108c0,8.665,7.089,15.754,15.754,15.754h299.323c8.665,0,15.754-7.089,15.754-15.754
	V31.508c0-8.665-7.089-15.754-15.754-15.754H31.508z"/>
<rect x="39.385" y="39.385" style="fill:#FFFFFF;" width="283.569" height="425.354"/>
<rect x="230.006" y="95.311" style="fill:#4FBF9F;" width="266.24" height="200.862"/>
<path style="fill:#183651;" d="M496.246,304.049h-266.24c-4.726,0-7.877-3.151-7.877-7.877V95.311c0-4.726,3.151-7.877,7.877-7.877
	h266.24c4.726,0,7.877,3.151,7.877,7.877v200.862C504.123,300.111,500.972,304.049,496.246,304.049z M237.883,288.295h250.486
	V103.188H237.883V288.295z"/>
<rect x="261.514" y="126.818" style="fill:#FFFFFF;" width="203.225" height="137.846"/>
<g>
	<rect x="289.083" y="152.025" style="fill:#F06151;" width="21.268" height="86.646"/>
	<rect x="331.618" y="167.778" style="fill:#F06151;" width="21.268" height="70.892"/>
	<rect x="374.154" y="183.532" style="fill:#F06151;" width="21.268" height="55.138"/>
	<rect x="416.689" y="199.286" style="fill:#F06151;" width="21.268" height="39.385"/>
</g>
<path style="fill:#2EA0DA;" d="M75.618,428.505c10.24,10.24,24.418,16.542,40.172,16.542c31.508,0,56.714-25.206,56.714-56.714
	h-56.714L75.618,428.505z"/>
<path style="fill:#FBBD5E;" d="M115.003,332.406c-31.508,0-56.714,25.206-56.714,56.714c0,15.754,6.302,29.932,16.542,40.172
	l40.172-40.172V332.406z"/>
<path style="fill:#F06151;" d="M115.003,332.406v56.714h56.714C171.717,357.612,146.511,332.406,115.003,332.406z"/>
<g>
	<rect x="66.166" y="76.406" style="fill:#183651;" width="115.003" height="15.754"/>
	<rect x="66.166" y="118.942" style="fill:#183651;" width="115.003" height="15.754"/>
	<rect x="66.166" y="160.689" style="fill:#183651;" width="115.003" height="15.754"/>
	<rect x="66.166" y="203.225" style="fill:#183651;" width="115.003" height="15.754"/>
	<rect x="67.742" y="244.185" style="fill:#183651;" width="15.754" height="15.754"/>
	<rect x="115.791" y="244.185" style="fill:#183651;" width="15.754" height="15.754"/>
	<rect x="163.84" y="244.185" style="fill:#183651;" width="15.754" height="15.754"/>
	<rect x="385.969" y="403.298" style="fill:#183651;" width="15.754" height="15.754"/>
	<rect x="488.369" y="403.298" style="fill:#183651;" width="15.754" height="15.754"/>
	
		<rect x="401.134" y="439.586" transform="matrix(-0.7071 -0.7071 0.7071 -0.7071 381.8209 1053.082)" style="fill:#183651;" width="15.754" height="15.754"/>
	
		<rect x="473.678" y="367.177" transform="matrix(-0.707 -0.7072 0.7072 -0.707 556.7768 980.7777)" style="fill:#183651;" width="15.754" height="15.754"/>
	<rect x="437.169" y="454.498" style="fill:#183651;" width="15.754" height="15.754"/>
	<rect x="437.169" y="352.098" style="fill:#183651;" width="15.754" height="15.754"/>
	
		<rect x="473.568" y="439.675" transform="matrix(-0.7069 -0.7074 0.7074 -0.7069 505.1792 1104.462)" style="fill:#183651;" width="15.755" height="15.755"/>
	
		<rect x="401.176" y="367.132" transform="matrix(-0.7071 -0.7071 0.7071 -0.7071 433.1255 929.4242)" style="fill:#183651;" width="15.754" height="15.754"/>
</g>
<g>
</g>
<g>
</g>
<g>
</g>
<g>
</g>
<g>
</g>
<g>
</g>
<g>
</g>
<g>
</g>
<g>
</g>
<g>
</g>
<g>
</g>
<g>
</g>
<g>
</g>
<g>
</g>
<g>
</g>
</svg>
