<?xml version="1.0" encoding="iso-8859-1"?>
<!-- Generator: Adobe Illustrator 19.0.0, SVG Export Plug-In . SVG Version: 6.00 Build 0)  -->
<svg version="1.1" id="Capa_1" xmlns="http://www.w3.org/2000/svg" xmlns:xlink="http://www.w3.org/1999/xlink" x="0px" y="0px"
	 viewBox="0 0 504.123 504.123" style="enable-background:new 0 0 504.123 504.123;" xml:space="preserve">
<path id="SVGCleanerId_0" style="fill:#E0E4E8;" d="M163.84,7.877v369.428h291.446c22.843,0,40.96-18.117,40.96-40.96V7.877H163.84z
	"/>
<path id="SVGCleanerId_1" style="fill:#183651;" d="M455.286,385.182H163.84c-4.726,0-7.877-3.151-7.877-7.877V7.877
	c0-4.726,3.151-7.877,7.877-7.877h332.406c4.726,0,7.877,3.151,7.877,7.877v327.68C504.123,363.126,482.068,385.182,455.286,385.182
	z M171.717,369.428h283.569c18.117,0,33.083-14.966,33.083-33.083V15.754H171.717V369.428z"/>
<path id="SVGCleanerId_2" style="fill:#FFFFFF;" d="M195.348,345.797V39.385h269.391v296.172c0,5.514-3.938,9.452-9.452,9.452
	H195.348V345.797z"/>
<path id="SVGCleanerId_3" style="fill:#FFFFFF;" d="M372.578,84.283L372.578,84.283c-22.843,0-40.96,18.117-40.96,40.96v251.274
	h81.92V126.031C413.538,103.188,395.422,84.283,372.578,84.283z"/>
<path id="SVGCleanerId_4" style="fill:#E0E4E8;" d="M455.286,377.305H331.618V126.031c0-22.843,18.117-40.96,40.96-40.96l0,0
	c22.843,0,40.96,18.117,40.96,40.96v210.314C413.538,358.4,432.443,377.305,455.286,377.305z"/>
<path id="SVGCleanerId_5" style="fill:#183651;" d="M455.286,385.182L455.286,385.182H331.618c-4.726,0-7.877-3.151-7.877-7.877
	V126.031c0-26.782,22.055-48.837,48.837-48.837s48.837,22.055,48.837,48.837v210.314c0,18.117,14.966,33.083,33.083,33.083l0,0l0,0
	c4.726,0,7.877,3.151,7.877,7.877C463.163,381.243,459.225,385.182,455.286,385.182z M339.495,369.428h79.557
	c-7.877-8.665-13.391-20.48-13.391-33.083V126.031c0-18.117-14.966-33.083-33.083-33.083s-33.083,14.966-33.083,33.083
	L339.495,369.428L339.495,369.428z"/>
<path id="SVGCleanerId_6" style="fill:#2EA0DA;" d="M372.578,84.283c-22.843,0-40.96,18.117-40.96,40.96v370.215H7.877V125.243
	c0-22.843,18.117-40.96,40.96-40.96L372.578,84.283L372.578,84.283z"/>
<path id="SVGCleanerId_7" style="fill:#183651;" d="M331.618,504.123H7.877c-4.726,0-7.877-3.151-7.877-7.877V126.031
	c0-26.782,22.055-48.837,48.837-48.837h323.742c4.726,0,7.877,3.151,7.877,7.877s-3.151,7.877-7.877,7.877
	c-18.117,0-33.083,14.966-33.083,33.083v370.215C339.495,500.972,335.557,504.123,331.618,504.123z M15.754,488.369h307.988V126.031
	c0-12.603,4.726-24.418,13.391-33.083H48.837c-18.117,0-33.083,14.966-33.083,33.083V488.369z"/>
<path id="SVGCleanerId_8" style="fill:#FFFFFF;" d="M39.385,464.738V126.031c0-5.514,4.726-9.452,9.452-9.452h251.274
	c-0.788,3.151-0.788,6.302-0.788,9.452v338.708H39.385z"/>
<rect id="SVGCleanerId_9" x="74.831" y="142.572" style="fill:#183651;" width="177.231" height="15.754"/>
<rect id="SVGCleanerId_10" x="74.831" y="176.443" style="fill:#183651;" width="177.231" height="15.754"/>
<rect id="SVGCleanerId_11" x="74.831" y="211.102" style="fill:#183651;" width="177.231" height="15.754"/>
<rect id="SVGCleanerId_12" x="74.831" y="245.76" style="fill:#183651;" width="15.754" height="15.754"/>
<rect id="SVGCleanerId_13" x="114.215" y="245.76" style="fill:#183651;" width="15.754" height="15.754"/>
<rect id="SVGCleanerId_14" x="153.6" y="245.76" style="fill:#183651;" width="15.754" height="15.754"/>
<rect id="SVGCleanerId_15" x="192.985" y="245.76" style="fill:#183651;" width="15.754" height="15.754"/>
<rect id="SVGCleanerId_16" x="232.369" y="245.76" style="fill:#183651;" width="15.754" height="15.754"/>
<rect id="SVGCleanerId_17" x="174.08" y="337.92" style="fill:#4FBF9F;" width="25.206" height="113.428"/>
<rect id="SVGCleanerId_18" x="123.668" y="359.975" style="fill:#FBBD5E;" width="25.206" height="92.16"/>
<rect id="SVGCleanerId_19" x="73.255" y="381.243" style="fill:#E0E4E8;" width="25.206" height="70.892"/>
<rect id="SVGCleanerId_20" x="225.28" y="318.228" style="fill:#F06151;" width="25.206" height="133.908"/>
<g>
	<path id="SVGCleanerId_0_1_" style="fill:#E0E4E8;" d="M163.84,7.877v369.428h291.446c22.843,0,40.96-18.117,40.96-40.96V7.877
		H163.84z"/>
</g>
<g>
	<path id="SVGCleanerId_1_1_" style="fill:#183651;" d="M455.286,385.182H163.84c-4.726,0-7.877-3.151-7.877-7.877V7.877
		c0-4.726,3.151-7.877,7.877-7.877h332.406c4.726,0,7.877,3.151,7.877,7.877v327.68
		C504.123,363.126,482.068,385.182,455.286,385.182z M171.717,369.428h283.569c18.117,0,33.083-14.966,33.083-33.083V15.754H171.717
		V369.428z"/>
</g>
<g>
	<path id="SVGCleanerId_2_1_" style="fill:#FFFFFF;" d="M195.348,345.797V39.385h269.391v296.172c0,5.514-3.938,9.452-9.452,9.452
		H195.348V345.797z"/>
</g>
<g>
	<path id="SVGCleanerId_3_1_" style="fill:#FFFFFF;" d="M372.578,84.283L372.578,84.283c-22.843,0-40.96,18.117-40.96,40.96v251.274
		h81.92V126.031C413.538,103.188,395.422,84.283,372.578,84.283z"/>
</g>
<g>
	<path id="SVGCleanerId_4_1_" style="fill:#E0E4E8;" d="M455.286,377.305H331.618V126.031c0-22.843,18.117-40.96,40.96-40.96l0,0
		c22.843,0,40.96,18.117,40.96,40.96v210.314C413.538,358.4,432.443,377.305,455.286,377.305z"/>
</g>
<g>
	<path id="SVGCleanerId_5_1_" style="fill:#183651;" d="M455.286,385.182L455.286,385.182H331.618c-4.726,0-7.877-3.151-7.877-7.877
		V126.031c0-26.782,22.055-48.837,48.837-48.837s48.837,22.055,48.837,48.837v210.314c0,18.117,14.966,33.083,33.083,33.083l0,0l0,0
		c4.726,0,7.877,3.151,7.877,7.877C463.163,381.243,459.225,385.182,455.286,385.182z M339.495,369.428h79.557
		c-7.877-8.665-13.391-20.48-13.391-33.083V126.031c0-18.117-14.966-33.083-33.083-33.083s-33.083,14.966-33.083,33.083
		L339.495,369.428L339.495,369.428z"/>
</g>
<g>
	<path id="SVGCleanerId_6_1_" style="fill:#2EA0DA;" d="M372.578,84.283c-22.843,0-40.96,18.117-40.96,40.96v370.215H7.877V125.243
		c0-22.843,18.117-40.96,40.96-40.96L372.578,84.283L372.578,84.283z"/>
</g>
<g>
	<path id="SVGCleanerId_7_1_" style="fill:#183651;" d="M331.618,504.123H7.877c-4.726,0-7.877-3.151-7.877-7.877V126.031
		c0-26.782,22.055-48.837,48.837-48.837h323.742c4.726,0,7.877,3.151,7.877,7.877s-3.151,7.877-7.877,7.877
		c-18.117,0-33.083,14.966-33.083,33.083v370.215C339.495,500.972,335.557,504.123,331.618,504.123z M15.754,488.369h307.988
		V126.031c0-12.603,4.726-24.418,13.391-33.083H48.837c-18.117,0-33.083,14.966-33.083,33.083V488.369z"/>
</g>
<g>
	<path id="SVGCleanerId_8_1_" style="fill:#FFFFFF;" d="M39.385,464.738V126.031c0-5.514,4.726-9.452,9.452-9.452h251.274
		c-0.788,3.151-0.788,6.302-0.788,9.452v338.708H39.385z"/>
</g>
<g>
	<rect id="SVGCleanerId_9_1_" x="74.831" y="142.572" style="fill:#183651;" width="177.231" height="15.754"/>
</g>
<g>
	<rect id="SVGCleanerId_10_1_" x="74.831" y="176.443" style="fill:#183651;" width="177.231" height="15.754"/>
</g>
<g>
	<rect id="SVGCleanerId_11_1_" x="74.831" y="211.102" style="fill:#183651;" width="177.231" height="15.754"/>
</g>
<g>
	<rect id="SVGCleanerId_12_1_" x="74.831" y="245.76" style="fill:#183651;" width="15.754" height="15.754"/>
</g>
<g>
	<rect id="SVGCleanerId_13_1_" x="114.215" y="245.76" style="fill:#183651;" width="15.754" height="15.754"/>
</g>
<g>
	<rect id="SVGCleanerId_14_1_" x="153.6" y="245.76" style="fill:#183651;" width="15.754" height="15.754"/>
</g>
<g>
	<rect id="SVGCleanerId_15_1_" x="192.985" y="245.76" style="fill:#183651;" width="15.754" height="15.754"/>
</g>
<g>
	<rect id="SVGCleanerId_16_1_" x="232.369" y="245.76" style="fill:#183651;" width="15.754" height="15.754"/>
</g>
<g>
	<rect id="SVGCleanerId_17_1_" x="174.08" y="337.92" style="fill:#4FBF9F;" width="25.206" height="113.428"/>
</g>
<g>
	<rect id="SVGCleanerId_18_1_" x="123.668" y="359.975" style="fill:#FBBD5E;" width="25.206" height="92.16"/>
</g>
<g>
	<rect id="SVGCleanerId_19_1_" x="73.255" y="381.243" style="fill:#E0E4E8;" width="25.206" height="70.892"/>
</g>
<g>
	<rect id="SVGCleanerId_20_1_" x="225.28" y="318.228" style="fill:#F06151;" width="25.206" height="133.908"/>
</g>
<g>
</g>
<g>
</g>
<g>
</g>
<g>
</g>
<g>
</g>
<g>
</g>
<g>
</g>
<g>
</g>
<g>
</g>
<g>
</g>
<g>
</g>
<g>
</g>
<g>
</g>
<g>
</g>
<g>
</g>
</svg>
