<?xml version="1.0" encoding="iso-8859-1"?>
<!-- Generator: Adobe Illustrator 19.0.0, SVG Export Plug-In . SVG Version: 6.00 Build 0)  -->
<svg version="1.1" id="Capa_1" xmlns="http://www.w3.org/2000/svg" xmlns:xlink="http://www.w3.org/1999/xlink" x="0px" y="0px"
	 viewBox="0 0 504.123 504.123" style="enable-background:new 0 0 504.123 504.123;" xml:space="preserve">
<circle style="fill:#FBBD5E;" cx="364.702" cy="144.935" r="139.422"/>
<path style="fill:#FFFFFF;" d="M456.862,196.135l11.028-31.508L445.834,153.6c0.788-7.877,0.788-16.542-1.575-24.418l21.268-13.391
	l-14.178-29.932l-23.631,7.877c-4.726-6.302-11.028-11.815-18.117-16.542l5.514-24.418l-31.508-11.028l-11.028,22.055
	c-7.877-0.788-16.542-0.788-24.418,1.575l-13.391-21.268l-29.932,14.178l7.877,23.631c-6.302,4.726-11.815,11.028-16.542,18.117
	l-24.418-5.514l-11.028,31.508l22.055,11.028c-0.788,7.877-0.788,16.542,1.575,24.418l-21.268,13.391l14.178,29.932l23.631-7.877
	c4.726,6.302,11.028,11.815,18.117,16.542l-5.514,24.418l31.508,11.028l11.028-22.055c7.877,0.788,16.542,0.788,24.418-1.575
	l13.391,21.268l29.932-14.178l-7.877-23.631c6.302-4.726,11.815-11.028,16.542-18.117L456.862,196.135z"/>
<path style="fill:#183651;" d="M345.009,256.788c-0.788,0-1.575,0-2.363-0.788l-31.508-11.028c-3.938-1.575-5.514-4.726-4.726-8.665
	l4.726-19.692c-4.726-3.151-8.665-7.089-11.815-11.028l-19.692,6.302c-3.938,1.575-7.089-0.788-9.452-3.938L256,178.018
	c-1.575-3.151-0.788-7.089,2.363-9.452l16.542-11.028c-0.788-5.514-0.788-11.028-0.788-16.542L256,132.332
	c-3.151-1.575-4.726-5.514-3.938-9.452l11.028-31.508c1.575-3.938,4.726-5.514,8.665-4.726l19.692,4.726
	c3.151-4.726,7.089-8.665,11.028-11.815l-6.302-18.905c-1.575-3.938,0.788-7.089,3.938-9.452l29.932-14.178
	c3.151-1.575,7.089-0.788,9.452,2.363l11.028,16.542c5.514-0.788,11.028-0.788,16.542-0.788l8.665-18.117
	c1.575-3.151,5.514-4.726,9.452-3.938l31.508,11.028c3.938,1.575,5.514,4.726,4.726,8.665l-4.726,19.692
	c4.726,3.151,8.665,7.089,11.815,11.028l18.905-6.302c3.938-1.575,7.089,0.788,9.452,3.938l14.178,29.932
	c1.575,3.151,0.788,7.089-2.363,9.452l-15.754,11.815c0.788,5.514,0.788,11.028,0.788,16.542l18.117,8.665
	c3.151,1.575,4.726,5.514,3.938,9.452l-11.028,31.508c-1.575,3.151-4.726,5.514-8.665,4.726l-19.692-4.726
	c-3.151,4.726-7.089,8.665-11.028,11.815l6.302,18.905c1.575,3.938-0.788,7.089-3.938,9.452l-29.932,14.178
	c-3.151,1.575-7.089,0.788-9.452-2.363l-11.028-16.542c-5.514,0.788-11.028,0.788-16.542,0.788l-8.665,18.117
	C350.523,255.212,348.16,256.788,345.009,256.788z M322.166,233.157l18.905,7.089l7.877-16.542c1.575-3.151,3.938-4.726,7.089-3.938
	c7.089,0.788,14.966,0,22.055-0.788c3.151-0.788,6.302,0.788,7.877,3.151l9.452,15.754l18.117-8.665l-5.514-17.329
	c-0.788-3.151,0-6.302,2.363-7.877c5.514-4.726,11.028-10.24,14.966-16.542c1.575-2.363,4.726-3.938,7.877-3.151l18.117,3.938
	l7.089-18.905l-16.542-7.877c-3.151-1.575-4.726-3.938-3.938-7.089c0.788-7.089,0-14.966-0.788-22.055
	c-0.788-3.151,0.788-6.302,3.151-7.877l15.754-9.452l-8.665-18.117L430.08,102.4c-3.151,0.788-6.302,0-7.877-2.363
	c-4.726-5.514-10.24-11.028-16.542-14.966c-2.363-1.575-3.938-4.726-3.151-7.877l3.938-18.117l-18.905-7.089l-7.877,16.542
	c-1.575,3.151-4.726,4.726-7.089,3.938c-7.089-0.788-14.966,0-22.055,0.788c-3.151,0.788-6.302-0.788-7.877-3.151l-9.452-15.754
	l-18.117,8.665l5.514,17.329c0.788,3.151,0,6.302-2.363,7.877c-5.514,4.726-11.028,10.24-14.966,16.542
	c-1.575,2.363-4.726,3.938-7.877,3.151l-18.117-3.938l-7.089,18.117l16.542,7.877c3.151,1.575,4.726,3.938,3.938,7.089
	c-0.788,7.089,0,14.966,0.788,22.055c0.788,3.151-0.788,6.302-3.151,7.877l-15.754,9.452l8.665,18.117l17.329-5.514
	c3.151-0.788,6.302,0,7.877,2.363c4.726,5.514,10.24,11.028,16.542,14.966c2.363,1.575,3.938,4.726,3.151,7.877L322.166,233.157z"/>
<circle style="fill:#E0E4E8;" cx="364.702" cy="144.935" r="22.055"/>
<path style="fill:#FFFFFF;" d="M277.268,446.622v44.111H7.089v-44.111c0-51.2,29.145-96.098,71.68-118.942
	c17.329,14.178,39.385,22.843,63.015,22.843s45.686-8.665,63.015-22.843C248.123,350.523,277.268,395.422,277.268,446.622z"/>
<path style="fill:#183651;" d="M277.268,498.609H7.089c-3.938,0-7.089-3.151-7.089-7.089v-44.111
	c0-52.775,29.145-100.825,75.618-125.243c2.363-1.575,5.514-0.788,7.877,0.788c16.542,13.391,37.022,20.48,58.289,20.48
	s41.748-7.089,58.289-20.48c2.363-1.575,5.514-2.363,7.877-0.788c46.474,24.418,75.618,72.468,75.618,125.243v44.111
	C284.357,495.458,281.206,498.609,277.268,498.609z M14.966,483.643h254.425v-37.022c0-45.686-24.418-87.434-63.015-109.489
	c-18.905,13.391-40.96,21.268-63.803,21.268s-45.686-7.089-63.803-21.268c-39.385,22.843-63.015,64.591-63.015,109.489v37.022
	H14.966z"/>
<path style="fill:#4FBF9F;" d="M37.022,461.588v-14.178c0-33.083,15.754-63.803,40.96-83.495
	c19.692,11.028,41.748,16.542,63.803,16.542s44.111-5.514,63.803-16.542c25.994,19.692,40.96,50.412,40.96,83.495v14.178
	L37.022,461.588L37.022,461.588z"/>
<circle style="fill:#FFFFFF;" cx="142.572" cy="249.698" r="70.892"/>
<g>
	<path style="fill:#183651;" d="M142.572,328.468c-30.72,0-58.289-18.117-70.892-45.686c-8.665-18.905-9.452-40.172-2.363-59.865
		s22.055-35.446,40.96-44.111c10.24-4.726,21.268-7.089,33.083-7.089c30.72,0,58.289,18.117,70.892,45.686
		c18.117,39.385,0.788,85.858-38.597,103.975C164.628,326.105,153.6,328.468,142.572,328.468z M142.572,185.895
		c-9.452,0-18.117,2.363-26.782,5.514c-15.754,7.089-26.782,19.692-33.083,35.446c-5.514,15.754-5.514,33.083,1.575,48.837
		c10.24,22.055,33.083,37.022,57.502,37.022c9.452,0,18.117-2.363,26.782-5.514c31.508-14.966,45.686-52.775,30.72-84.283
		C189.834,200.862,166.991,185.895,142.572,185.895z"/>
	<path style="fill:#183651;" d="M142.572,300.111c-4.726,0-9.452-0.788-14.178-2.363l3.938-14.178
		c3.938,0.788,7.877,1.575,11.815,1.575l0.788,14.966C144.148,300.111,143.36,300.111,142.572,300.111z M162.265,296.172
		l-6.302-13.391l13.391-6.302l6.302,13.391L162.265,296.172z M112.64,290.658c-4.726-3.151-8.665-7.877-11.815-12.603l12.603-8.665
		c2.363,3.151,5.514,6.302,8.665,8.665L112.64,290.658z M189.046,283.569l-6.302-13.391l13.391-6.302l6.302,13.391L189.046,283.569z
		 M216.615,270.966l-6.302-13.391l13.391-6.302l6.302,13.391L216.615,270.966z M93.735,262.302
		c-0.788-3.938-1.575-7.877-1.575-11.815c0-1.575,0-3.938,0-5.514l14.966,1.575c0,1.575,0,2.363,0,3.938
		c0,2.363,0,5.514,0.788,7.877L93.735,262.302z M243.397,258.363l-6.302-13.391l13.391-6.302l6.302,13.391L243.397,258.363z
		 M270.178,245.76l-5.514-13.391l13.391-6.302l6.302,13.391L270.178,245.76z M110.277,234.732l-13.391-6.302
		c2.363-5.514,6.302-10.24,10.24-14.178l10.24,10.24C115.003,227.643,112.64,230.794,110.277,234.732z M297.748,233.157
		l-6.302-13.391l13.391-6.302l6.302,13.391L297.748,233.157z M324.529,221.342l-6.302-13.391l13.391-6.302l6.302,13.391
		L324.529,221.342z M128.394,216.615l-7.089-13.391l0.788-0.788l12.603-5.514l6.302,13.391L128.394,216.615z M351.311,208.738
		l-6.302-13.391l13.391-6.302l6.302,13.391L351.311,208.738z M155.175,204.8l-6.302-13.391l13.391-6.302l6.302,13.391L155.175,204.8
		z M378.88,196.135l-6.302-13.391l13.391-6.302l6.302,13.391L378.88,196.135z M181.957,192.197l-6.302-13.391l13.391-6.302
		l6.302,13.391L181.957,192.197z M406.449,180.382l-10.24-11.028c3.151-3.151,5.514-6.302,7.089-9.452l13.391,7.089
		C414.326,171.717,411.175,176.443,406.449,180.382z M208.738,179.594l-6.302-13.391l13.391-6.302l6.302,13.391L208.738,179.594z
		 M236.308,166.991l-6.302-13.391l13.391-6.302l6.302,13.391L236.308,166.991z M263.089,155.175l-6.302-13.391l13.391-6.302
		l6.302,13.391L263.089,155.175z M422.203,150.449l-14.966-2.363c0-1.575,0-3.151,0-4.726c0-2.363,0-4.726-0.788-7.089l14.178-3.151
		c0.788,3.151,0.788,7.089,0.788,10.24C422.991,145.723,422.991,148.086,422.203,150.449z M289.871,142.572l-6.302-13.391
		l13.391-6.302l6.302,13.391L289.871,142.572z M317.44,129.969l-6.302-13.391l13.391-6.302l6.302,13.391L317.44,129.969z
		 M402.511,124.455c-2.363-3.151-4.726-6.302-7.877-9.452l9.452-11.815c4.726,3.938,8.665,7.877,11.815,12.603L402.511,124.455z
		 M344.222,117.366l-6.302-13.391l13.391-6.302c0.788-0.788,1.575-0.788,2.363-0.788l5.514,14.178c-0.788,0-1.575,0.788-1.575,0.788
		L344.222,117.366z M383.606,109.489c-3.938-1.575-7.089-1.575-11.028-1.575h-0.788l-0.788-14.966h1.575
		c5.514,0,11.028,0.788,15.754,2.363L383.606,109.489z"/>
</g>
<path style="fill:#F06151;" d="M134.695,233.157c-9.452,4.726-13.391,15.754-9.452,25.206l0,0
	c4.726,9.452,15.754,13.391,25.206,9.452c9.452-4.726,13.391-15.754,9.452-25.206l0,0
	C155.175,232.369,144.148,228.431,134.695,233.157z"/>
<g>
	<path style="fill:#183651;" d="M447.409,468.677c-3.938,0-7.089-3.151-7.089-7.089V326.892c0-3.938,3.151-7.089,7.089-7.089
		c3.938,0,7.089,3.151,7.089,7.089v134.695C454.498,465.526,451.348,468.677,447.409,468.677z"/>
	<path style="fill:#183651;" d="M406.449,468.677c-3.938,0-7.089-3.151-7.089-7.089V351.311c0-3.938,3.151-7.089,7.089-7.089
		c3.938,0,7.089,3.151,7.089,7.089v110.277C413.538,465.526,410.388,468.677,406.449,468.677z"/>
	<path style="fill:#183651;" d="M365.489,468.677c-3.938,0-7.089-3.151-7.089-7.089v-85.858c0-3.938,3.151-7.089,7.089-7.089
		c3.938,0,7.089,3.151,7.089,7.089v85.858C373.366,465.526,369.428,468.677,365.489,468.677z"/>
	<path style="fill:#183651;" d="M324.529,468.677c-3.938,0-7.089-3.151-7.089-7.089v-61.44c0-3.938,3.151-7.089,7.089-7.089
		c3.938,0,7.089,3.151,7.089,7.089v61.44C332.406,465.526,329.255,468.677,324.529,468.677z"/>
	<path style="fill:#183651;" d="M469.465,468.677H303.262c-3.938,0-7.089-3.151-7.089-7.089c0-3.938,3.151-7.089,7.089-7.089
		h166.203c3.938,0,7.089,3.151,7.089,7.089C476.554,465.526,473.403,468.677,469.465,468.677z"/>
</g>
<g>
</g>
<g>
</g>
<g>
</g>
<g>
</g>
<g>
</g>
<g>
</g>
<g>
</g>
<g>
</g>
<g>
</g>
<g>
</g>
<g>
</g>
<g>
</g>
<g>
</g>
<g>
</g>
<g>
</g>
</svg>
