<?xml version="1.0" encoding="iso-8859-1"?>
<!-- Generator: Adobe Illustrator 19.0.0, SVG Export Plug-In . SVG Version: 6.00 Build 0)  -->
<svg version="1.1" id="Capa_1" xmlns="http://www.w3.org/2000/svg" xmlns:xlink="http://www.w3.org/1999/xlink" x="0px" y="0px"
	 viewBox="0 0 504.123 504.123" style="enable-background:new 0 0 504.123 504.123;" xml:space="preserve">
<circle style="fill:#E0E4E8;" cx="252.062" cy="252.062" r="252.062"/>
<path style="fill:#FBBD5E;" d="M220.554,497.034c-0.788-3.151-3.151-16.542,2.363-34.658l3.151-9.452l-9.452,0
	c-18.117,0-32.295-7.089-33.871-17.329c-0.788-3.151,0-5.514,0.788-8.665l3.151-8.665l-9.452-1.575
	c-4.726-0.788-8.665-2.363-12.603-4.726c-7.089-4.726-12.603-11.815-14.178-20.48c-1.575-8.665,0-17.329,3.938-24.418
	c3.151-4.726,7.089-8.665,11.815-11.028l4.726-3.151l-1.575-5.514c-0.788-3.938-1.575-7.089-1.575-11.028
	c0-22.843,18.905-41.748,41.748-41.748c1.575,0,3.151,0,5.514,0l3.938,0.788l2.363-3.151c7.877-9.452,19.692-14.966,31.508-14.966
	c11.028,0,21.268,3.938,29.145,11.815l3.938,5.514l5.514-2.363c1.575-0.788,3.151-0.788,3.938-1.575
	c4.726-1.575,9.452-2.363,14.966-2.363c6.302,0,11.815,0.788,16.542,3.151c8.665,3.938,15.754,10.24,18.905,19.692l1.575,3.938
	l3.938,0.788c15.754,2.363,27.569,15.754,27.569,31.508c0,16.542-11.815,29.932-28.357,32.295l-4.726,0.788l-1.575,4.726
	c-1.575,4.726-4.726,9.452-7.089,13.391c-8.665,13.391-25.994,22.055-41.748,22.055c-3.938,0-7.877-0.788-11.815-2.363l-7.089-2.363
	l-2.363,7.089c-1.575,4.726-4.726,8.665-9.452,13.391l-0.788,0.788l0,1.575l-0.788,0.788c-2.363,3.938-14.966,23.631-23.631,56.714
	h-18.905V497.034z"/>
<g>
	<path style="fill:#183651;" d="M216.615,348.948c-2.363,0-3.938-1.575-5.514-3.151c-3.151-6.302-4.726-13.391-4.726-20.48
		c0-25.994,21.268-47.262,47.262-47.262c12.603,0,24.418,4.726,33.871,14.178c2.363,2.363,2.363,6.302,0,8.665s-6.302,2.363-8.665,0
		c-7.089-7.089-15.754-10.24-25.206-10.24c-19.692,0-35.446,15.754-35.446,35.446c0,5.514,1.575,11.028,3.938,15.754
		c1.575,3.151,0,6.302-2.363,7.877C218.191,348.948,217.403,348.948,216.615,348.948z"/>
	<path style="fill:#183651;" d="M362.338,360.763c-1.575,0-3.151,0-4.726-0.788c-7.877-1.575-14.178-5.514-18.117-11.815
		c-1.575-2.363-1.575-6.302,1.575-7.877c2.363-1.575,6.302-1.575,7.877,1.575c5.514,7.877,15.754,9.452,23.631,3.938
		c2.363-1.575,6.302-1.575,7.877,1.575c1.575,2.363,1.575,6.302-1.575,7.877C374.154,359.188,368.64,360.763,362.338,360.763z"/>
	<path style="fill:#183651;" d="M330.831,415.114L330.831,415.114c-3.151,0-6.302-2.363-5.514-6.302
		c0-18.905-6.302-27.569-22.843-31.508c-3.151-0.788-5.514-3.938-4.726-7.089s3.938-5.514,7.089-4.726
		c22.055,5.514,32.295,18.905,31.508,43.323C336.345,411.963,333.982,415.114,330.831,415.114z"/>
	<path style="fill:#183651;" d="M292.234,405.662c-2.363,0-4.726-1.575-5.514-4.726c-0.788-3.151,0.788-6.302,3.938-7.089
		c13.391-3.151,20.48-8.665,22.843-17.329c0.788-3.151,3.938-4.726,7.089-3.938c3.151,0.788,4.726,3.938,3.938,7.089
		c-3.938,12.603-14.178,20.48-31.508,25.206C293.022,405.662,292.234,405.662,292.234,405.662z"/>
	<path style="fill:#183651;" d="M173.292,363.126c-2.363,0-4.726-1.575-5.514-3.938c-2.363-5.514-3.938-11.815-3.938-18.117
		c0-25.994,21.268-47.262,47.262-47.262c12.603,0,24.418,4.726,33.871,14.178c2.363,2.363,2.363,6.302,0,8.665
		c-2.363,2.363-6.302,2.363-8.665,0c-7.089-7.089-15.754-10.24-25.206-10.24c-19.692,0-35.446,15.754-35.446,35.446
		c0,4.726,0.788,9.452,2.363,13.391c1.575,3.151,0,6.302-3.151,7.877C174.868,363.126,174.08,363.126,173.292,363.126z"/>
	<path style="fill:#183651;" d="M346.585,326.105c-2.363,0-4.726-1.575-5.514-3.938c-5.514-17.329-25.206-25.994-44.898-19.692
		c-5.514,1.575-9.452,4.726-13.391,7.877c-2.363,2.363-6.302,2.363-8.665,0c-2.363-2.363-2.363-6.302,0-8.665
		c5.514-4.726,11.028-8.665,18.117-11.028c25.994-8.665,51.988,3.151,59.865,27.569c0.788,3.151-0.788,6.302-3.938,7.089
		C348.16,325.317,347.372,326.105,346.585,326.105z"/>
	<path style="fill:#183651;" d="M295.385,430.868c-7.877,0-15.754-2.363-22.843-6.302c-2.363-1.575-3.151-5.514-1.575-7.877
		c1.575-2.363,5.514-3.151,7.877-1.575c16.542,11.028,41.748,0.788,52.775-14.966c3.151-4.726,6.302-10.24,7.089-14.966
		c0.788-3.151,3.151-5.514,6.302-4.726c3.151,0.788,5.514,3.151,4.726,6.302c-0.788,7.089-5.514,14.178-9.452,19.692
		C331.618,420.628,313.502,430.868,295.385,430.868z"/>
	<path style="fill:#183651;" d="M345.009,390.695c-3.151,0-5.514-2.363-5.514-5.514s2.363-5.514,5.514-5.514
		c14.966,0,26.782-11.815,26.782-26.782c0-14.966-11.815-26.782-26.782-26.782c-14.966,0-26.782,11.815-26.782,26.782
		c0,3.151-2.363,5.514-5.514,5.514c-3.151,0-5.514-2.363-5.514-5.514c0-21.268,17.329-38.597,38.597-38.597
		s38.597,17.329,38.597,38.597S366.277,390.695,345.009,390.695z"/>
	<path style="fill:#183651;" d="M184.32,426.142c-7.089,0-14.178-2.363-20.48-6.302c-8.665-5.514-14.966-14.178-17.329-24.418
		c-2.363-10.24-0.788-20.48,4.726-29.145c11.028-18.117,35.446-23.631,53.563-11.815c2.363,1.575,3.938,5.514,1.575,7.877
		c-1.575,3.151-5.514,3.938-7.877,1.575c-12.603-7.877-29.145-3.938-37.022,8.665c-3.938,6.302-4.726,13.391-3.151,20.48
		c1.575,7.089,5.514,12.603,11.815,16.542c5.514,3.151,11.815,4.726,18.117,3.938c3.151-0.788,6.302,1.575,7.089,4.726
		s-1.575,6.302-4.726,7.089C188.258,426.142,186.683,426.142,184.32,426.142z"/>
	<path style="fill:#183651;" d="M275.692,396.209c-0.788,0-0.788,0-1.575,0c-3.151-0.788-4.726-3.938-3.938-7.089
		c3.938-14.966,3.151-26.782-2.363-34.658c-8.665-11.028-25.994-11.028-26.782-11.028c-3.151,0-6.302-2.363-6.302-5.514
		s2.363-6.302,5.514-6.302c0.788,0,23.631-0.788,36.234,14.966c8.665,11.028,10.24,25.994,4.726,44.898
		C281.206,394.634,278.843,396.209,275.692,396.209z"/>
	<path style="fill:#183651;" d="M218.978,461.588c-22.843,0-38.597-8.665-41.748-22.843c-3.151-17.329,16.542-36.234,46.474-41.748
		c5.514-0.788,11.028-1.575,17.329-1.575c22.843,0,38.597,8.665,41.748,22.843c3.151,17.329-16.542,36.234-46.474,41.748
		C230.006,460.8,224.492,461.588,218.978,461.588z M240.246,406.449c-4.726,0-9.452,0.788-14.966,1.575
		c-24.418,4.726-38.597,18.117-37.022,27.569c1.575,7.877,14.178,13.391,29.932,13.391c4.726,0,9.452-0.788,14.966-1.575
		c24.418-4.726,38.597-18.117,37.022-27.569C268.603,412.751,256,406.449,240.246,406.449z"/>
	<path style="fill:#183651;" d="M241.034,504.123h-19.692c-2.363,0-4.726-1.575-5.514-3.938c0-0.788-6.302-20.48,5.514-46.474
		c0.788-2.363,2.363-3.938,4.726-3.938c2.363,0,4.726-0.788,7.877-0.788c11.028-2.363,20.48-6.302,27.569-11.815
		c2.363-1.575,5.514-1.575,7.877,0.788s2.363,5.514,0.788,7.877c0,0-14.178,19.692-22.843,55.138
		C245.76,502.548,243.397,504.123,241.034,504.123z M226.068,492.308h10.24c3.938-14.966,8.665-27.569,13.391-36.234
		c-4.726,1.575-8.665,3.151-13.391,3.938c-2.363,0.788-3.938,0.788-5.514,0.788C224.492,474.978,225.28,486.006,226.068,492.308z"/>
	<path style="fill:#183651;" d="M211.889,411.963L211.889,411.963c-3.938,0-6.302-3.151-5.514-6.302l0,0c0,0,0-7.089-4.726-11.815
		c-3.938-3.151-9.452-4.726-18.117-3.151c-3.151,0.788-6.302-1.575-7.089-4.726c-0.788-3.151,1.575-6.302,4.726-7.089
		c11.815-1.575,21.268,0,27.569,6.302c8.665,7.877,8.665,20.48,8.665,20.48C218.191,409.6,215.04,411.963,211.889,411.963z"/>
	<path style="fill:#183651;" d="M234.732,380.455c-3.151,0-5.514-2.363-5.514-5.514s2.363-6.302,5.514-6.302
		c7.089-0.788,12.603-3.151,15.754-7.877c5.514-7.877,2.363-18.905,2.363-18.905c-0.788-3.151,0.788-6.302,3.938-7.089
		c3.151-0.788,6.302,0.788,7.089,3.938c0,0.788,4.726,16.542-3.938,29.145C254.425,374.942,246.548,378.88,234.732,380.455
		C235.52,380.455,234.732,380.455,234.732,380.455z"/>
</g>
<path style="fill:#FFFFFF;" d="M249.698,8.665c-34.658,0.788-63.015,30.72-62.228,65.378c0,20.48,9.452,38.597,24.418,49.625
	c7.877,6.302,11.815,14.966,11.815,24.418h55.926c0-10.24,5.514-18.905,12.603-25.206c14.178-11.815,23.631-29.932,23.631-49.625
	C315.865,37.022,285.932,7.089,249.698,8.665z"/>
<path style="fill:#183651;" d="M279.631,155.963h-55.926c-3.938,0-7.877-3.151-7.877-7.877c0-7.877-3.151-14.178-8.665-18.117
	c-17.329-13.391-27.569-33.871-27.569-55.926c0-39.385,30.72-71.68,70.105-73.255h2.363c40.172,0,72.468,32.295,72.468,72.468
	c0,22.055-9.452,42.535-26.782,55.926c-6.302,5.514-10.24,11.815-10.24,18.905C287.508,152.025,283.569,155.963,279.631,155.963z
	 M230.794,140.209h41.748c2.363-8.665,7.089-17.329,14.966-23.631c13.391-11.028,20.48-26.782,20.48-44.111
	c0-31.508-25.206-56.714-56.714-56.714h-1.575c-29.932,0.788-55.138,26.782-55.138,57.502c0,17.329,7.877,33.083,21.268,44.111
	C223.705,122.88,228.431,130.757,230.794,140.209z"/>
<path style="fill:#FFFFFF;" d="M217.403,148.086v14.966c0,18.905,14.966,33.871,33.871,33.871l0,0
	c18.905,0,33.871-14.966,33.871-33.871v-14.966L217.403,148.086L217.403,148.086z"/>
<path style="fill:#183651;" d="M251.274,204.8c-22.843,0-41.748-18.905-41.748-41.748v-14.966c0-4.726,3.151-7.877,7.877-7.877
	h67.742c4.726,0,7.877,3.151,7.877,7.877v14.966C293.809,186.683,274.905,204.8,251.274,204.8z M225.28,155.963v7.089
	c0,14.178,11.815,25.994,25.994,25.994c14.178,0,25.994-11.815,25.994-25.994v-7.089H225.28z"/>
<path style="fill:#2EA0DA;" d="M251.274,27.569h-1.575c-24.418,0.788-44.111,21.268-44.111,45.686
	c0,13.391,6.302,26.782,17.329,35.446c7.089,5.514,11.815,12.603,14.966,20.48v11.815h25.206v-11.815
	c3.151-7.877,8.665-14.966,15.754-20.48c10.24-8.665,16.542-21.268,16.542-34.658C296.96,48.049,276.48,27.569,251.274,27.569z"/>
<g>
	<path style="fill:#183651;" d="M251.274,153.6c-3.151,0-5.514-2.363-5.514-5.514V99.249c0-3.151,2.363-5.514,5.514-5.514
		c3.151,0,5.514,2.363,5.514,5.514v48.837C257.575,151.237,255.212,153.6,251.274,153.6z"/>
	<path style="fill:#183651;" d="M251.274,105.551c-1.575,0-3.151-0.788-4.726-2.363l-20.48-25.994
		c-1.575-2.363-0.788-6.302,1.575-7.877c2.363-2.363,6.302-1.575,8.665,0.788l15.754,19.692l15.754-19.692
		c2.363-2.363,5.514-3.151,8.665-0.788c2.363,2.363,3.151,5.514,0.788,8.665L256,103.188
		C255.212,104.763,253.637,105.551,251.274,105.551z"/>
	<path style="fill:#183651;" d="M376.517,489.157h-81.92c-4.726,0-7.877-3.151-7.877-7.877c0-4.726,3.151-7.877,7.877-7.877h81.92
		c30.72,0,55.926-25.206,55.926-55.926V252.062c0-4.726,3.151-7.877,7.877-7.877s7.877,3.151,7.877,7.877v164.628
		C448.197,456.862,415.902,489.157,376.517,489.157z"/>
</g>
<circle style="fill:#FFFFFF;" cx="440.32" cy="252.062" r="55.138"/>
<g>
	<path style="fill:#183651;" d="M440.32,315.865c-34.658,0-63.015-28.357-63.015-63.015s28.357-63.015,63.015-63.015
		s63.015,28.357,63.015,63.015C504.123,287.508,475.766,315.865,440.32,315.865z M440.32,204.8
		c-25.994,0-47.262,21.268-47.262,47.262s21.268,47.262,47.262,47.262s47.262-21.268,47.262-47.262S467.102,204.8,440.32,204.8z"/>
	<path style="fill:#183651;" d="M445.834,263.877h-9.452v-5.514c0-2.363,0-3.938,0.788-5.514c0.788-0.788,1.575-2.363,3.938-4.726
		l6.302-6.302c1.575-1.575,2.363-3.151,2.363-5.514c0-2.363-0.788-3.938-2.363-5.514c-1.575-1.575-3.151-2.363-5.514-2.363
		c-2.363,0-3.938,0.788-5.514,2.363c-1.575,1.575-2.363,3.151-2.363,5.514h-10.24c0.788-4.726,2.363-9.452,6.302-11.815
		c3.151-3.151,7.877-4.726,12.603-4.726c4.726,0,9.452,1.575,12.603,3.938c3.151,3.151,4.726,6.302,4.726,11.815
		c0,3.151-0.788,6.302-3.151,8.665c-0.788,1.575-1.575,2.363-2.363,3.151c-0.788,0.788-1.575,1.575-2.363,2.363
		c-0.788,0.788-1.575,1.575-2.363,2.363c-0.788,0.788-1.575,1.575-1.575,1.575c-0.788,1.575-1.575,3.151-1.575,5.514v4.726H445.834z
		 M441.108,283.569c-1.575,0-3.151-0.788-4.726-1.575c-1.575-1.575-2.363-2.363-2.363-4.726c0-1.575,0.788-3.151,1.575-4.726
		c1.575-1.575,3.151-1.575,4.726-1.575c1.575,0,3.151,0.788,4.726,1.575c1.575,1.575,2.363,2.363,2.363,4.726
		s-0.788,3.151-1.575,4.726C444.258,282.782,442.683,283.569,441.108,283.569z"/>
	<path style="fill:#183651;" d="M178.018,489.157h-50.412c-39.385,0-71.68-32.295-71.68-71.68V252.062
		c0-4.726,3.151-7.877,7.877-7.877s7.877,3.151,7.877,7.877v164.628c0,30.72,25.206,55.926,55.926,55.926h50.412
		c4.726,0,7.877,3.151,7.877,7.877S181.957,489.157,178.018,489.157z"/>
</g>
<circle style="fill:#FFFFFF;" cx="63.803" cy="252.062" r="55.138"/>
<g>
	<path style="fill:#183651;" d="M63.803,315.865c-34.658,0-63.015-28.357-63.015-63.015s28.357-63.015,63.015-63.015
		s63.015,28.357,63.015,63.015S98.462,315.865,63.803,315.865z M63.803,204.8c-25.994,0-47.262,21.268-47.262,47.262
		s21.268,47.262,47.262,47.262s47.262-21.268,47.262-47.262S89.797,204.8,63.803,204.8z"/>
	<path style="fill:#183651;" d="M68.529,263.877h-10.24v-5.514c0-2.363,0-3.938,0.788-5.514c0.788-0.788,1.575-2.363,3.938-4.726
		l6.302-6.302c1.575-1.575,2.363-3.151,2.363-5.514c0-2.363-0.788-3.938-2.363-5.514s-3.151-2.363-5.514-2.363
		s-3.938,0.788-5.514,2.363c-1.575,1.575-2.363,3.151-2.363,5.514h-10.24c0-3.938,2.363-7.877,5.514-10.24
		c3.151-3.151,7.877-4.726,12.603-4.726s9.452,1.575,12.603,3.938c3.151,3.151,4.726,6.302,4.726,11.815
		c0,3.151-0.788,6.302-3.151,8.665c-0.788,1.575-1.575,2.363-2.363,3.151c-0.788,0.788-1.575,1.575-2.363,2.363
		c-0.788,0.788-1.575,1.575-2.363,2.363c-0.788,0.788-1.575,1.575-1.575,1.575c-0.788,1.575-1.575,3.151-1.575,5.514v3.151H68.529z
		 M63.803,283.569c-1.575,0-3.151-0.788-4.726-1.575c-1.575-1.575-2.363-2.363-2.363-4.726c0-1.575,0.788-3.151,1.575-4.726
		c1.575-1.575,3.151-1.575,4.726-1.575s3.151,0.788,4.726,1.575c1.575,1.575,2.363,2.363,2.363,4.726s-0.788,3.151-1.575,4.726
		C66.954,282.782,65.378,283.569,63.803,283.569z"/>
	<path style="fill:#183651;" d="M440.32,204.8c-4.726,0-7.877-3.151-7.877-7.877v-70.105c0-30.72-25.206-55.926-55.926-55.926
		h-16.542c-4.726,0-7.877-3.151-7.877-7.877s3.151-7.877,7.877-7.877h16.542c39.385,0,71.68,32.295,71.68,71.68v70.105
		C448.197,201.649,445.046,204.8,440.32,204.8z"/>
	<path style="fill:#183651;" d="M63.803,204.8c-4.726,0-7.877-3.151-7.877-7.877v-70.105c0-39.385,32.295-71.68,71.68-71.68h16.542
		c4.726,0,7.877,3.151,7.877,7.877s-3.151,7.877-7.877,7.877h-16.542c-30.72,0-55.926,25.206-55.926,55.926v70.105
		C71.68,201.649,67.742,204.8,63.803,204.8z"/>
</g>
<g>
</g>
<g>
</g>
<g>
</g>
<g>
</g>
<g>
</g>
<g>
</g>
<g>
</g>
<g>
</g>
<g>
</g>
<g>
</g>
<g>
</g>
<g>
</g>
<g>
</g>
<g>
</g>
<g>
</g>
</svg>
