<?xml version="1.0" encoding="iso-8859-1"?>
<!-- Generator: Adobe Illustrator 19.0.0, SVG Export Plug-In . SVG Version: 6.00 Build 0)  -->
<svg version="1.1" id="Capa_1" xmlns="http://www.w3.org/2000/svg" xmlns:xlink="http://www.w3.org/1999/xlink" x="0px" y="0px"
	 viewBox="0 0 505.247 505.247" style="enable-background:new 0 0 505.247 505.247;" xml:space="preserve">
<path style="fill:#FBBD5E;" d="M349.735,8.439H31.508c-13.391,0-23.631,10.24-23.631,23.631v441.108
	c0,13.391,10.24,23.631,23.631,23.631h318.228c13.391,0,23.631-10.24,23.631-23.631V32.07
	C373.366,18.679,363.126,8.439,349.735,8.439z"/>
<path style="fill:#183651;" d="M349.735,504.685H31.508C14.178,504.685,0,490.507,0,473.177V32.07
	C0,14.74,14.178,0.562,31.508,0.562h318.228c17.329,0,31.508,14.178,31.508,31.508v441.108
	C381.243,490.507,367.065,504.685,349.735,504.685z M31.508,16.316c-8.665,0-15.754,7.089-15.754,15.754v441.108
	c0,8.665,7.089,15.754,15.754,15.754h318.228c8.665,0,15.754-7.089,15.754-15.754V32.07c0-8.665-7.089-15.754-15.754-15.754H31.508z
	"/>
<rect x="39.385" y="39.947" style="fill:#FFFFFF;" width="302.474" height="425.354"/>
<rect x="74.043" y="39.947" style="fill:#F06151;" width="59.077" height="425.354"/>
<g>
	<rect x="182.745" y="84.845" style="fill:#E0E4E8;" width="111.065" height="59.077"/>
	<rect x="182.745" y="158.888" style="fill:#E0E4E8;" width="111.065" height="12.603"/>
</g>
<path style="fill:#FFFFFF;" d="M376.517,344.784l-32.295,32.295l92.948,107.914c12.603,14.966,35.446,15.754,49.625,1.575l0,0
	c14.178-14.178,13.391-37.022-1.575-49.625L376.517,344.784z"/>
<path style="fill:#183651;" d="M462.375,504.685L462.375,504.685c-11.815,0-23.631-5.514-31.508-14.178l-92.16-107.914
	c-2.363-3.151-2.363-7.877,0.788-11.028l32.295-32.295c3.151-3.151,7.877-3.151,11.028-0.788l107.914,92.16
	c18.117,15.754,19.692,44.111,2.363,61.44C484.431,499.959,473.403,504.685,462.375,504.685z M355.249,377.867l87.434,102.4
	c9.452,11.028,27.569,12.603,37.809,1.575c11.028-11.028,10.24-28.357-1.575-37.809l-102.4-87.434L355.249,377.867z"/>
<circle style="fill:#FFFFFF;" cx="307.2" cy="307.762" r="104.763"/>
<path style="fill:#183651;" d="M307.2,420.402c-62.228,0-112.64-50.412-112.64-112.64s50.412-112.64,112.64-112.64
	s112.64,50.412,112.64,112.64S369.428,420.402,307.2,420.402z M307.2,211.664c-53.563,0-96.886,43.323-96.886,96.886
	s43.323,96.886,96.886,96.886s96.886-43.323,96.886-96.886S360.763,211.664,307.2,211.664z"/>
<circle style="fill:#2EA0DA;" cx="307.2" cy="307.762" r="71.68"/>
<path style="fill:#FFFFFF;" d="M348.948,315.639c-4.726,0-7.877-3.151-7.877-7.877c0-18.905-14.966-33.871-33.871-33.871
	c-4.726,0-7.877-3.151-7.877-7.877s3.151-7.877,7.877-7.877c27.569,0,49.625,22.055,49.625,49.625
	C356.825,312.488,353.674,315.639,348.948,315.639z"/>
<g>
	
		<rect x="400.069" y="400.715" transform="matrix(-0.7071 -0.7071 0.7071 -0.7071 407.4891 985.9711)" style="fill:#183651;" width="15.754" height="15.754"/>
	
		<rect x="425.511" y="425.854" transform="matrix(-0.7071 -0.7071 0.7071 -0.7071 433.1463 1046.8762)" style="fill:#183651;" width="15.754" height="15.754"/>
	
		<rect x="450.859" y="450.985" transform="matrix(-0.7071 -0.7071 0.7071 -0.7071 458.6477 1107.7009)" style="fill:#183651;" width="15.754" height="15.754"/>
</g>
<g>
</g>
<g>
</g>
<g>
</g>
<g>
</g>
<g>
</g>
<g>
</g>
<g>
</g>
<g>
</g>
<g>
</g>
<g>
</g>
<g>
</g>
<g>
</g>
<g>
</g>
<g>
</g>
<g>
</g>
</svg>
