<?xml version="1.0" encoding="iso-8859-1"?>
<!-- Generator: Adobe Illustrator 19.0.0, SVG Export Plug-In . SVG Version: 6.00 Build 0)  -->
<svg version="1.1" id="Capa_1" xmlns="http://www.w3.org/2000/svg" xmlns:xlink="http://www.w3.org/1999/xlink" x="0px" y="0px"
	 viewBox="0 0 504.8 504.8" style="enable-background:new 0 0 504.8 504.8;" xml:space="preserve">
<circle style="fill:#4FBF9F;" cx="252.1" cy="252.45" r="252.1"/>
<g>
	
		<rect x="299.993" y="418.056" transform="matrix(-0.7071 0.7071 -0.7071 -0.7071 826.8027 509.4384)" style="fill:#183651;" width="15.8" height="15.8"/>
	
		<rect x="342.088" y="375.112" transform="matrix(-0.7071 0.7071 -0.7071 -0.7071 868.2966 406.3641)" style="fill:#183651;" width="15.8" height="15.8"/>
	
		<rect x="384.669" y="332.729" transform="matrix(-0.7071 0.7071 -0.7071 -0.7071 911.0179 303.9013)" style="fill:#183651;" width="15.8" height="15.8"/>
	
		<rect x="51.733" y="195.133" transform="matrix(-0.7072 0.707 -0.707 -0.7072 245.3523 304.4581)" style="fill:#183651;" width="15.8" height="15.8"/>
	
		<rect x="93.832" y="152.193" transform="matrix(-0.7071 0.7071 -0.7071 -0.7071 286.8699 201.3596)" style="fill:#183651;" width="15.8" height="15.8"/>
	
		<rect x="136.406" y="109.816" transform="matrix(-0.7072 0.707 -0.707 -0.7072 329.5864 98.94)" style="fill:#183651;" width="15.8" height="15.8"/>
</g>
<path style="fill:#FFFFFF;" d="M145,380.05c-11.8,8.7-26,14.2-41.7,14.2s-30.7-5.5-41.7-14.2c-31.5,15.8-53.6,48-53.6,85.1v31.5
	h190.6v-31.5C198.5,428.15,176.5,395.85,145,380.05z"/>
<path style="fill:#183651;" d="M198.5,504.55H7.9c-4.7,0-7.9-3.2-7.9-7.9v-31.5c0-39.4,22.1-74.8,57.5-92.2c2.4-1.6,6.3-0.8,8.7,0.8
	c11,8.7,23.6,12.6,37,12.6s26-4.7,37-12.6c2.4-1.6,5.5-2.4,8.7-0.8c35.4,17.3,57.5,52.8,57.5,92.2v31.5
	C206.4,501.35,202.5,504.55,198.5,504.55z M15.8,488.75h174.9v-23.6c0-31.5-17.3-60.7-44.9-76.4c-12.6,8.7-27.6,13.4-42.5,13.4
	s-29.9-3.9-42.5-12.6c-27.6,15.8-44.9,44.1-44.9,76.4v22.8H15.8z"/>
<path style="fill:#F06151;" d="M39.4,465.15c0-18.9,8.7-36.2,22.1-48c12.6,6.3,26.8,8.7,41.7,8.7s28.4-3.2,41.7-8.7
	c14.2,11.8,22.1,29.1,22.1,48H39.4z"/>
<circle style="fill:#E0E4E8;" cx="103.2" cy="317.85" r="48.8"/>
<path style="fill:#183651;" d="M103.2,374.55c-31.5,0-56.7-25.2-56.7-56.7s25.2-56.7,56.7-56.7s56.7,25.2,56.7,56.7
	S134.7,374.55,103.2,374.55z M103.2,276.85c-22.8,0-41,18.1-41,41c0,22.8,18.1,41,41,41s41-18.1,41-41S126.1,276.85,103.2,276.85z"
	/>
<path style="fill:#FBBD5E;" d="M496.3,116.95c0-15.8-9.5-29.9-22.8-38.6c0-25.2-22.8-46.5-51.2-46.5c-7.9,0-15.8,1.6-22.8,4.7
	c-7.9-16.5-26-28.4-47.3-28.4c-20.5,0-37.8,10.2-45.7,26c-8.7-6.3-19.7-10.2-31.5-10.2c-28.4,0-51.2,20.5-51.2,46.5
	c0,2.4,0,3.9,0.8,6.3c-15,7.9-25.2,22.8-25.2,40.2c0,25.2,22.8,45.7,51.2,46.5l0,0c0,25.2,22.8,46.5,51.2,46.5
	c4.7,0,9.5-0.8,14.2-1.6c8.7,13.4,25.2,22.8,44.1,22.8c18.1,0,33.9-7.9,42.5-20.5c6.3,2.4,13.4,3.9,21.3,3.9
	c28.4,0,51.2-20.5,51.2-46.5c0-3.9-0.8-7.9-1.6-11C486.8,147.65,496.3,133.55,496.3,116.95z"/>
<path style="fill:#183651;" d="M358.4,238.25c-18.9,0-36.2-8.7-47.3-22.1c-3.9,0.8-7.1,0.8-11,0.8c-29.9,0-54.4-20.5-58.3-46.5
	c-29.1-3.2-51.2-26-51.2-53.6c0-17.3,9.5-33.9,25.2-44.1c0-0.8,0-1.6,0-2.4c0-29.9,26.8-54.4,59.1-54.4c10.2,0,20.5,2.4,29.1,7.1
	c11-14.2,29.1-22.8,48-22.8c21.3,0,40.2,10.2,51.2,26.8c6.3-2.4,12.6-3.2,19.7-3.2c30.7,0,56.7,22.1,59.1,49.6
	c14.2,10.2,22.8,26,22.8,43.3s-8.7,33.1-23.6,43.3c0.8,2.4,0.8,4.7,0.8,7.9c0,29.9-26.8,54.4-59.1,54.4c-6.3,0-12.6-0.8-18.1-2.4
	C392.3,231.15,375.8,238.25,358.4,238.25z M314.3,199.65c2.4,0,5.5,1.6,6.3,3.9c7.9,11.8,22.1,19.7,37.8,19.7
	c15,0,28.4-6.3,36.2-17.3c2.4-3.2,6.3-3.9,9.5-2.4c5.5,2.4,11.8,3.2,18.1,3.2c23.6,0,43.3-17.3,43.3-38.6c0-3.2-0.8-6.3-1.6-9.5
	c-0.8-3.2,0.8-7.1,3.9-8.7c12.6-7.1,20.5-18.9,20.5-32.3c0-12.6-7.1-24.4-18.9-31.5c-2.4-1.6-3.9-3.9-3.9-7.1
	c0-21.3-19.7-38.6-43.3-38.6c-7.1,0-13.4,1.6-19.7,3.9c-3.9,1.6-8.7,0-10.2-3.9c-6.3-15-22.8-23.6-40.2-23.6
	c-16.5,0-31.5,8.7-39.4,22.1c-0.8,2.4-3.2,3.2-5.5,3.9c-2.4,0.8-4.7,0-6.3-1.6c-7.9-5.5-17.3-8.7-26.8-8.7
	c-23.6,0-43.3,17.3-43.3,38.6c0,1.6,0,3.2,0.8,5.5c0.8,3.2-0.8,6.3-3.9,7.9c-13.4,7.1-21.3,19.7-21.3,33.1
	c0,21.3,19.7,38.6,43.3,38.6c4.7,0,7.9,3.9,7.9,7.9c0,21.3,19.7,38.6,43.3,38.6c3.9,0,7.9-0.8,11.8-1.6
	C312.8,199.65,313.5,199.65,314.3,199.65z"/>
<g>
	<path style="fill:#FFFFFF;" d="M358.4,198.85c-8.7,0-15-4.7-18.1-8.7l0,0c-7.1-11-21.3-16.5-33.9-13.4l0,0
		c-2.4,0.8-3.9,0.8-6.3,0.8c-11,0-19.7-7.1-19.7-15l0,0c0-17.3-14.2-31.5-31.5-31.5l0,0c-10.2,0-19.7-7.1-19.7-15
		c0-7.1,6.3-11,8.7-11.8l4.7-2.4c9.5-4.7,14.2-15,12.6-25.2l-0.8-5.5c0-0.8,0-0.8,0-1.6c0-7.9,8.7-15,19.7-15c6.3,0,11,2.4,13.4,3.9
		l0,0c15.8,11,37,6.3,45.7-10.2l0,0c2.4-4.7,8.7-9.5,18.1-9.5c9.5,0,16.5,5.5,18.9,10.2l0,0c7.1,15.8,26,22.8,41.7,15.8l0,0
		c3.2-1.6,6.3-2.4,10.2-2.4c11,0,19.7,7.1,19.7,15v18.1l15,9.5c4.7,3.2,7.9,7.1,7.9,11.8c0,7.1-6.3,11-8.7,11.8l0,0
		c-12.6,7.1-18.9,22.1-15,36.2l0,0c0,0.8,0.8,2.4,0.8,3.2c0,7.9-8.7,15-19.7,15c-3.2,0-6.3-0.8-9.5-1.6l0,0
		c-13.4-5.5-28.4-0.8-37,10.2l0,0C372.6,194.95,367.1,198.85,358.4,198.85z"/>
	<circle style="fill:#FFFFFF;" cx="200.9" cy="305.25" r="18.1"/>
</g>
<path style="fill:#183651;" d="M200.9,331.25c-3.2,0-6.3-0.8-8.7-1.6c-13.4-4.7-20.5-19.7-15.8-33.1c3.9-10.2,13.4-17.3,24.4-17.3
	c3.2,0,6.3,0.8,8.7,1.6c13.4,4.7,20.5,19.7,15.8,33.1C221.4,324.15,211.1,331.25,200.9,331.25z M200.9,294.95
	c-3.9,0-7.9,2.4-9.5,7.1c-1.6,5.5,0.8,11,6.3,13.4c5.5,1.6,11-0.8,13.4-6.3c1.6-5.5-0.8-11-6.3-13.4
	C203.3,294.95,201.7,294.95,200.9,294.95z"/>
<circle style="fill:#FFFFFF;" cx="235.6" cy="242.25" r="22.8"/>
<g>
	<path style="fill:#183651;" d="M235.6,272.95c-3.9,0-7.1-0.8-11-1.6c-15.8-5.5-24.4-23.6-18.1-39.4c4.7-11.8,15.8-20.5,29.1-20.5
		c3.9,0,7.1,0.8,11,1.6c7.9,3.2,14.2,8.7,17.3,15.8c3.2,7.9,3.9,15.8,0.8,23.6C260,265.05,248.9,272.95,235.6,272.95z M235.6,227.25
		c-6.3,0-11.8,3.9-14.2,10.2c-3.2,7.9,0.8,16.5,8.7,19.7s16.5-1.6,19.7-8.7c1.6-3.9,1.6-7.9-0.8-11.8c-1.6-3.9-4.7-6.3-8.7-7.9
		C239.5,227.25,237.1,227.25,235.6,227.25z"/>
	<path style="fill:#183651;" d="M320.6,139.05H297v-52.8h20.5c3.9,0,7.1,0.8,9.5,1.6s4.7,2.4,5.5,3.2c2.4,2.4,3.9,5.5,3.9,9.5
		s-1.6,7.1-3.9,9.5c-0.8,0.8-2.4,2.4-3.2,2.4c3.2,0.8,6.3,2.4,7.9,4.7c1.6,2.4,3.2,4.7,3.2,8.7c0,3.9-1.6,7.1-3.9,9.5
		C333.2,137.45,327.7,139.05,320.6,139.05z M306.5,107.55h11c6.3,0,9.5-2.4,9.5-6.3c0-2.4-0.8-4.7-2.4-5.5s-3.9-1.6-7.1-1.6h-11.8
		v13.4H306.5z M306.5,130.35h14.2c3.2,0,5.5-0.8,7.9-1.6c1.6-0.8,2.4-3.2,2.4-5.5c0-4.7-3.9-7.1-11-7.1h-12.6v14.2H306.5z"/>
	<rect x="349.8" y="98.85" style="fill:#183651;" width="8.7" height="40.2"/>
	<path style="fill:#183651;" d="M408.1,98.05v35.4c0,7.1-1.6,12.6-5.5,15.8c-3.9,3.9-8.7,5.5-15,5.5s-11.8-1.6-16.5-5.5l3.9-6.3
		c3.9,3.2,7.9,4.7,11.8,4.7s7.1-0.8,9.5-3.2s3.2-5.5,3.2-10.2v-5.5c-1.6,2.4-3.2,3.9-5.5,5.5c-2.4,1.6-4.7,2.4-7.9,2.4
		c-5.5,0-10.8-1.2-14.6-4.8c-3.6-3.5-5.4-9.1-5.4-14.6s1.3-11.4,5.6-15.5c3.4-3.2,8.9-4.5,14.4-4.5s9.5,2.4,13.4,6.3v-6.3h8.7v0.8
		H408.1z M373.6,115.95c0,3.2,0.8,6.3,3.2,8.7c2.4,2.4,4.7,3.9,8.7,3.9c3.2,0,6.3-0.8,8.7-3.2c2.4-2.4,3.2-5.5,3.2-8.7
		s-0.8-6.3-3.2-8.7c-2.4-2.4-4.7-3.9-8.7-3.9c-3.9,0-6.4,1.3-8.5,3.2C374.2,109.65,373.6,112.85,373.6,115.95z"/>
	<circle style="fill:#183651;" cx="354.1" cy="87.95" r="4.8"/>
</g>
<g>
</g>
<g>
</g>
<g>
</g>
<g>
</g>
<g>
</g>
<g>
</g>
<g>
</g>
<g>
</g>
<g>
</g>
<g>
</g>
<g>
</g>
<g>
</g>
<g>
</g>
<g>
</g>
<g>
</g>
</svg>
