<?xml version="1.0" encoding="iso-8859-1"?>
<!-- Generator: Adobe Illustrator 19.0.0, SVG Export Plug-In . SVG Version: 6.00 Build 0)  -->
<svg version="1.1" id="Capa_1" xmlns="http://www.w3.org/2000/svg" xmlns:xlink="http://www.w3.org/1999/xlink" x="0px" y="0px"
	 viewBox="0 0 504.155 504.155" style="enable-background:new 0 0 504.155 504.155;" xml:space="preserve">
<circle style="fill:#F06151;" cx="252.093" cy="252.093" r="252.062"/>
<path style="fill:#4FBF9F;" d="M43.355,368.672h252.062c19.692,0,35.446-15.754,35.446-35.446V42.567
	c0-19.692-15.754-35.446-35.446-35.446L114.247,7.909L7.909,115.035v218.978C7.909,352.918,23.663,368.672,43.355,368.672z"/>
<path style="fill:#183651;" d="M294.629,376.549H43.355c-23.631,0-43.323-19.692-43.323-43.323V115.035
	c0-2.363,0.788-3.938,2.363-5.514L108.733,2.395c1.575-1.575,3.151-2.363,5.514-2.363h180.382c23.631,0,43.323,19.692,43.323,43.323
	v290.658C337.952,357.644,318.26,376.549,294.629,376.549z M15.786,118.186v215.828c0,14.966,12.603,27.569,27.569,27.569h252.062
	c14.966,0,27.569-12.603,27.569-27.569V43.355c0-14.966-12.603-27.569-27.569-27.569H117.398L15.786,118.186z"/>
<polygon style="fill:#FFFFFF;" points="294.629,43.355 294.629,334.013 43.355,334.013 43.355,115.035 114.247,43.355 "/>
<g>
	<rect x="154.42" y="69.349" style="fill:#183651;" width="15.754" height="17.329"/>
	<rect x="200.106" y="69.349" style="fill:#183651;" width="15.754" height="17.329"/>
	<rect x="245.004" y="69.349" style="fill:#183651;" width="15.754" height="17.329"/>
</g>
<path style="fill:#FFFFFF;" d="M114.247,7.909L7.909,115.035h70.892c19.692,0,35.446-15.754,35.446-35.446V7.909z"/>
<g>
	<path style="fill:#183651;" d="M78.801,122.912H7.909c-3.151,0-6.302-1.575-7.089-4.726c-1.575-3.151-0.788-6.302,1.575-8.665
		L108.733,2.395c2.363-2.363,5.514-3.151,8.665-1.575c3.151,0.788,4.726,3.938,4.726,7.089v71.68
		C122.124,103.22,103.22,122.912,78.801,122.912z M26.813,107.158h51.988c14.966,0,27.569-12.603,27.569-27.569V26.813
		L26.813,107.158z"/>
	<rect x="71.712" y="288.327" style="fill:#183651;" width="194.56" height="15.754"/>
	<rect x="71.712" y="233.977" style="fill:#183651;" width="194.56" height="15.754"/>
	<rect x="71.712" y="179.626" style="fill:#183651;" width="194.56" height="15.754"/>
	<rect x="153.632" y="125.275" style="fill:#183651;" width="112.64" height="15.754"/>
</g>
<circle style="fill:#FBBD5E;" cx="391.515" cy="170.173" r="104.763"/>
<path style="fill:#183651;" d="M391.515,282.813c-62.228,0-112.64-50.412-112.64-112.64s50.412-112.64,112.64-112.64
	s112.64,50.412,112.64,112.64S453.743,282.813,391.515,282.813z M391.515,73.287c-53.563,0-96.886,43.323-96.886,96.886
	s43.323,96.886,96.886,96.886s96.886-43.323,96.886-96.886S445.078,73.287,391.515,73.287z"/>
<path style="fill:#FFFFFF;" d="M391.515,245.792c-41.748,0-75.618-33.871-75.618-75.618s33.871-75.618,75.618-75.618
	s75.618,33.871,75.618,75.618S432.475,245.792,391.515,245.792z"/>
<g>
	<path style="fill:#FBBD5E;" d="M389.152,207.983v-6.302c-8.665-0.788-15.754-3.938-22.843-10.24l6.302-7.877
		c5.514,4.726,10.24,7.089,15.754,7.877v-18.117c-7.089-1.575-11.815-3.938-14.966-6.302c-3.151-2.363-4.726-6.302-4.726-11.815
		s1.575-9.452,5.514-12.603c3.938-3.151,8.665-5.514,14.178-5.514v-4.726h5.514v4.726c7.089,0.788,13.391,3.151,18.905,7.089
		l-6.302,8.665c-3.938-3.151-8.665-4.726-13.391-5.514v17.329l0,0c7.089,1.575,11.815,3.938,15.754,6.302
		c3.151,3.151,4.726,7.089,4.726,12.603c0,5.514-1.575,9.452-5.514,13.391c-3.938,3.151-8.665,5.514-14.966,5.514v6.302h-3.938
		V207.983z M382.85,148.906c-1.575,1.575-2.363,3.151-2.363,5.514c0,2.363,0.788,3.938,1.575,4.726
		c1.575,1.575,3.151,2.363,7.089,3.151v-15.754C386.789,146.543,384.426,148.118,382.85,148.906z M401.755,189.078
		c1.575-1.575,2.363-3.151,2.363-5.514s-0.788-3.938-2.363-4.726c-1.575-1.575-3.938-2.363-7.877-3.151v16.542
		C397.817,191.441,400.18,190.653,401.755,189.078z"/>
	<circle style="fill:#FBBD5E;" cx="444.29" cy="170.173" r="7.089"/>
	<circle style="fill:#FBBD5E;" cx="337.952" cy="170.173" r="7.089"/>
</g>
<polygon style="fill:#E0E4E8;" points="462.407,473.435 496.278,338.74 362.37,373.398 398.604,398.604 338.74,458.469 
	376.549,496.278 436.413,436.413 "/>
<path style="fill:#183651;" d="M376.549,504.155c-2.363,0-3.938-0.788-5.514-2.363l-37.809-37.809
	c-3.151-3.151-3.151-7.877,0-11.028l53.563-53.563l-29.145-20.48c-2.363-1.575-3.938-4.726-3.151-7.877
	c0.788-3.151,3.151-5.514,5.514-6.302l133.908-33.871c2.363-0.788,5.514,0,7.877,2.363c1.575,1.575,2.363,4.726,2.363,7.877
	L470.284,475.01c-0.788,3.151-3.151,5.514-6.302,5.514c-3.151,0.788-6.302-0.788-7.877-3.151l-20.48-29.145l-53.563,53.563
	C380.487,503.367,378.912,504.155,376.549,504.155z M350.555,458.469l25.994,25.994l54.351-54.351
	c1.575-1.575,3.938-2.363,6.302-2.363s4.726,1.575,5.514,3.151l15.754,22.843L485.25,348.98l-104.763,26.782l22.843,15.754
	c1.575,1.575,3.151,3.151,3.151,5.514s-0.788,4.726-2.363,6.302L350.555,458.469z"/>
<g>
</g>
<g>
</g>
<g>
</g>
<g>
</g>
<g>
</g>
<g>
</g>
<g>
</g>
<g>
</g>
<g>
</g>
<g>
</g>
<g>
</g>
<g>
</g>
<g>
</g>
<g>
</g>
<g>
</g>
</svg>
