<?xml version="1.0" encoding="iso-8859-1"?>
<!-- Generator: Adobe Illustrator 19.0.0, SVG Export Plug-In . SVG Version: 6.00 Build 0)  -->
<svg version="1.1" id="Capa_1" xmlns="http://www.w3.org/2000/svg" xmlns:xlink="http://www.w3.org/1999/xlink" x="0px" y="0px"
	 viewBox="0 0 504.123 504.123" style="enable-background:new 0 0 504.123 504.123;" xml:space="preserve">
<circle style="fill:#E0E4E8;" cx="252.062" cy="184.32" r="184.32"/>
<rect x="28.357" y="155.963" style="fill:#2EA0DA;" width="448.197" height="285.145"/>
<path style="fill:#183651;" d="M475.766,448.985H28.357c-4.726,0-7.877-3.151-7.877-7.877V155.963c0-4.726,3.151-7.877,7.877-7.877
	h448.197c4.726,0,7.877,3.151,7.877,7.877v285.145C483.643,445.046,480.492,448.985,475.766,448.985z M36.234,433.231h432.443
	V163.84H36.234V433.231z"/>
<g>
	<rect x="59.865" y="187.471" style="fill:#FFFFFF;" width="385.182" height="222.129"/>
	<path style="fill:#FFFFFF;" d="M7.877,441.108L7.877,441.108c0,34.658,28.357,55.138,63.015,55.138h361.551
		c34.658,0,63.015-20.48,63.015-55.138l0,0H7.877z"/>
</g>
<path style="fill:#183651;" d="M433.231,504.123H70.892C29.145,504.123,0,478.129,0,441.108c0-4.726,3.151-7.877,7.877-7.877
	h488.369c4.726,0,7.877,3.151,7.877,7.877C504.123,478.129,474.978,504.123,433.231,504.123z M16.542,448.985
	c3.938,27.569,29.932,39.385,55.138,39.385h361.551c25.206,0,51.2-12.603,55.138-39.385H16.542z"/>
<circle style="fill:#FFFFFF;" cx="252.062" cy="184.32" r="139.422"/>
<path style="fill:#183651;" d="M252.062,331.618c-81.132,0-147.298-66.166-147.298-147.298S170.929,37.022,252.062,37.022
	S399.36,103.188,399.36,184.32S333.982,331.618,252.062,331.618z M252.062,52.775c-72.468,0-131.545,59.077-131.545,131.545
	s59.077,131.545,131.545,131.545s131.545-59.077,131.545-131.545C384.394,111.852,325.317,52.775,252.062,52.775z"/>
<path style="fill:#F06151;" d="M312.714,199.286l18.905-2.363v-25.206l-18.905-2.363c-1.575-6.302-3.938-11.815-7.089-17.329
	l11.815-14.966l-18.117-18.117l-14.966,11.815c-5.514-3.151-11.028-5.514-17.329-7.089l-2.363-18.905h-25.206l-2.363,18.905
	c-6.302,1.575-11.815,3.938-17.329,7.089L204.8,118.942l-18.117,18.117l11.815,14.966c-3.151,5.514-5.514,11.028-7.089,17.329
	l-18.905,2.363v25.206l18.905,2.363c1.575,6.302,3.938,11.815,7.089,17.329l-11.815,14.966l18.117,18.117l14.966-11.815
	c5.514,3.151,11.028,5.514,17.329,7.089l2.363,18.905h25.206l2.363-18.905c6.302-1.575,11.815-3.938,17.329-7.089l14.966,11.815
	l18.117-18.117l-11.815-14.966C308.775,211.102,311.138,205.588,312.714,199.286z M252.062,211.102
	c-14.966,0-26.782-11.815-26.782-26.782c0-14.966,11.815-26.782,26.782-26.782c14.966,0,26.782,11.815,26.782,26.782
	C278.843,199.286,267.028,211.102,252.062,211.102z"/>
<circle style="fill:#FBBD5E;" cx="252.062" cy="44.898" r="22.055"/>
<path style="fill:#183651;" d="M252.062,74.831c-16.542,0-29.932-13.391-29.932-29.932s13.391-29.932,29.932-29.932
	s29.932,13.391,29.932,29.932S269.391,74.831,252.062,74.831z M252.062,30.72c-7.877,0-14.178,6.302-14.178,14.178
	s6.302,14.178,14.178,14.178c7.877,0,14.178-6.302,14.178-14.178C267.028,37.022,260.726,30.72,252.062,30.72z"/>
<circle style="fill:#FBBD5E;" cx="252.062" cy="323.742" r="22.055"/>
<path style="fill:#183651;" d="M252.062,353.674c-16.542,0-29.932-13.391-29.932-29.932c0-16.542,13.391-29.932,29.932-29.932
	s29.932,13.391,29.932,29.932C281.994,340.283,269.391,353.674,252.062,353.674z M252.062,309.563
	c-7.877,0-14.178,6.302-14.178,14.178s6.302,14.178,14.178,14.178c7.877,0,14.178-6.302,14.178-14.178
	C267.028,315.865,260.726,309.563,252.062,309.563z"/>
<circle style="fill:#FBBD5E;" cx="392.271" cy="184.32" r="22.055"/>
<path style="fill:#183651;" d="M392.271,214.252c-16.542,0-29.932-13.391-29.932-29.932s13.391-29.932,29.932-29.932
	c16.542,0,29.932,13.391,29.932,29.932S408.812,214.252,392.271,214.252z M392.271,170.142c-7.877,0-14.178,6.302-14.178,14.178
	s6.302,14.178,14.178,14.178s14.178-6.302,14.178-14.178S400.148,170.142,392.271,170.142z"/>
<circle style="fill:#FBBD5E;" cx="112.64" cy="184.32" r="22.055"/>
<g>
	<path style="fill:#183651;" d="M112.64,214.252c-16.542,0-29.932-13.391-29.932-29.932s13.391-29.932,29.932-29.932
		s29.932,13.391,29.932,29.932S129.182,214.252,112.64,214.252z M112.64,170.142c-7.877,0-14.178,6.302-14.178,14.178
		s6.302,14.178,14.178,14.178s14.178-6.302,14.178-14.178C127.606,176.443,120.517,170.142,112.64,170.142z"/>
	<rect x="323.742" y="378.092" style="fill:#183651;" width="15.754" height="15.754"/>
	<rect x="364.702" y="378.092" style="fill:#183651;" width="15.754" height="15.754"/>
	<rect x="404.874" y="378.092" style="fill:#183651;" width="15.754" height="15.754"/>
	<rect x="83.495" y="378.092" style="fill:#183651;" width="15.754" height="15.754"/>
	<rect x="123.668" y="378.092" style="fill:#183651;" width="15.754" height="15.754"/>
	<rect x="164.628" y="378.092" style="fill:#183651;" width="15.754" height="15.754"/>
</g>
<g>
</g>
<g>
</g>
<g>
</g>
<g>
</g>
<g>
</g>
<g>
</g>
<g>
</g>
<g>
</g>
<g>
</g>
<g>
</g>
<g>
</g>
<g>
</g>
<g>
</g>
<g>
</g>
<g>
</g>
</svg>
