<?xml version="1.0" encoding="iso-8859-1"?>
<!-- Generator: Adobe Illustrator 19.0.0, SVG Export Plug-In . SVG Version: 6.00 Build 0)  -->
<svg version="1.1" id="Capa_1" xmlns="http://www.w3.org/2000/svg" xmlns:xlink="http://www.w3.org/1999/xlink" x="0px" y="0px"
	 viewBox="0 0 504.123 504.123" style="enable-background:new 0 0 504.123 504.123;" xml:space="preserve">
<path style="fill:#E0E4E8;" d="M466.695,7.877H38.19c-16.542,0-30.72,13.391-30.72,30.72v427.717c0,16.542,13.391,30.72,30.72,30.72
	h427.717c16.542,0,30.72-13.391,30.72-30.72V37.809C496.627,21.268,483.236,7.877,466.695,7.877z"/>
<path style="fill:#183651;" d="M466.695,504.123H38.19c-21.268,0-37.809-17.329-37.809-37.809V37.809C0.381,16.542,17.71,0,38.19,0
	h427.717c21.268,0,37.809,17.329,37.809,37.809v427.717C504.504,486.794,487.175,504.123,466.695,504.123z M38.19,14.966
	c-12.603,0-22.843,10.24-22.843,22.843v427.717c0,12.603,10.24,22.843,22.843,22.843h427.717c12.603,0,22.843-10.24,22.843-22.843
	V37.809c0-12.603-10.24-22.843-22.843-22.843H38.19z"/>
<path style="fill:#FFFFFF;" d="M48.43,441.108V63.015c0-7.877,6.302-14.178,14.178-14.178h378.88
	c7.877,0,14.178,6.302,14.178,14.178v378.88c0,7.877-6.302,14.178-14.178,14.178H63.396C54.732,456.074,48.43,449.772,48.43,441.108
	z"/>
<path style="fill:#183651;" d="M441.489,463.951H63.396c-12.603,0-22.055-10.24-22.055-22.055V63.015
	c0-12.603,10.24-22.055,22.055-22.055h378.88c12.603,0,22.055,10.24,22.055,22.055v378.88
	C464.332,453.711,454.092,463.951,441.489,463.951z M63.396,55.926c-3.938,0-7.089,3.151-7.089,7.089v378.88
	c0,3.938,3.151,7.089,7.089,7.089h378.88c3.938,0,7.089-3.151,7.089-7.089V63.015c0-3.938-3.151-7.089-7.089-7.089H63.396z"/>
<polygon style="fill:#F06151;" points="415.495,118.154 337.513,129.969 358.781,151.237 278.436,230.794 199.667,152.025 
	89.39,262.302 113.809,285.932 199.667,200.074 278.436,278.843 382.412,174.868 403.679,196.135 "/>
<g>
	<polygon style="fill:#2EA0DA;" points="358.781,199.286 358.781,370.215 391.076,370.215 391.076,183.532 382.412,174.868 	"/>
	<polygon style="fill:#2EA0DA;" points="297.341,370.215 329.636,370.215 329.636,227.643 297.341,260.726 	"/>
	<polygon style="fill:#2EA0DA;" points="235.901,370.215 268.984,370.215 268.984,268.603 235.901,236.308 	"/>
	<polygon style="fill:#2EA0DA;" points="175.249,224.492 175.249,370.215 207.544,370.215 207.544,207.951 199.667,200.074 	"/>
	<polygon style="fill:#2EA0DA;" points="113.809,370.215 146.104,370.215 146.104,253.637 113.809,285.932 	"/>
</g>
<g>
	<rect x="195.729" y="84.283" style="fill:#183651;" width="14.966" height="14.966"/>
	<rect x="244.566" y="84.283" style="fill:#183651;" width="14.966" height="14.966"/>
	<rect x="294.19" y="84.283" style="fill:#183651;" width="14.966" height="14.966"/>
	<rect x="195.729" y="404.874" style="fill:#183651;" width="14.966" height="14.966"/>
	<rect x="244.566" y="404.874" style="fill:#183651;" width="14.966" height="14.966"/>
	<rect x="294.19" y="404.874" style="fill:#183651;" width="14.966" height="14.966"/>
</g>
<g>
</g>
<g>
</g>
<g>
</g>
<g>
</g>
<g>
</g>
<g>
</g>
<g>
</g>
<g>
</g>
<g>
</g>
<g>
</g>
<g>
</g>
<g>
</g>
<g>
</g>
<g>
</g>
<g>
</g>
</svg>
