<?xml version="1.0" encoding="iso-8859-1"?>
<!-- Generator: Adobe Illustrator 19.0.0, SVG Export Plug-In . SVG Version: 6.00 Build 0)  -->
<svg version="1.1" id="Capa_1" xmlns="http://www.w3.org/2000/svg" xmlns:xlink="http://www.w3.org/1999/xlink" x="0px" y="0px"
	 viewBox="0 0 504.123 504.123" style="enable-background:new 0 0 504.123 504.123;" xml:space="preserve">
<path style="fill:#FBBD5E;" d="M371.003,7.877v488.369H7.877V51.2c0-23.631,19.692-43.323,44.111-43.323H371.003z"/>
<path style="fill:#183651;" d="M371.003,504.123H7.877c-4.726,0-7.877-3.151-7.877-7.877V51.2C0,22.843,22.843,0,51.2,0h319.015
	c4.726,0,7.877,3.151,7.877,7.877v488.369C378.88,500.972,375.729,504.123,371.003,504.123z M15.754,488.369h347.372V15.754H51.2
	c-19.692,0-35.446,15.754-35.446,35.446V488.369z"/>
<path style="fill:#FFFFFF;" d="M339.495,464.738V39.385H51.2c-6.302,0-11.815,5.514-11.815,11.815v322.166l82.708,91.372H339.495z"
	/>
<g>
	<polygon style="fill:#E0E4E8;" points="39.385,374.154 122.092,464.738 122.092,374.154 	"/>
	<path style="fill:#E0E4E8;" d="M419.052,49.625c0-22.843-18.905-41.748-41.748-41.748H55.926c22.843,0,41.748,18.905,41.748,41.748
		S78.769,91.372,55.926,91.372h321.378C400.148,91.372,419.052,72.468,419.052,49.625z"/>
</g>
<path style="fill:#183651;" d="M377.305,99.249H55.926c-4.726,0-7.877-3.151-7.877-7.877c0-4.726,3.151-7.877,7.877-7.877
	c18.905,0,33.871-14.966,33.871-33.871S74.043,15.754,55.926,15.754c-4.726,0-7.877-3.151-7.877-7.877S51.2,0,55.926,0h321.378
	c27.569,0,49.625,22.055,49.625,49.625S404.086,99.249,377.305,99.249z M92.16,83.495h285.145c18.905,0,33.871-14.966,33.871-33.871
	s-14.966-33.871-33.871-33.871H92.16c8.665,8.665,13.391,20.48,13.391,33.871S100.037,74.831,92.16,83.495z"/>
<polygon style="fill:#F06151;" points="284.357,449.772 259.938,426.142 235.52,449.772 235.52,365.489 284.357,365.489 "/>
<circle style="fill:#4FBF9F;" cx="259.938" cy="337.92" r="54.351"/>
<path style="fill:#FFFFFF;" d="M259.938,368.64c-17.329,0-30.72-14.178-30.72-30.72s14.178-30.72,30.72-30.72
	c16.542,0,30.72,14.178,30.72,30.72S277.268,368.64,259.938,368.64z"/>
<g>
	<rect x="83.495" y="133.908" style="fill:#183651;" width="211.889" height="15.754"/>
	<rect x="83.495" y="183.532" style="fill:#183651;" width="211.889" height="15.754"/>
	<rect x="83.495" y="233.157" style="fill:#183651;" width="211.889" height="15.754"/>
	<rect x="83.495" y="282.782" style="fill:#183651;" width="16.542" height="15.754"/>
	<rect x="124.455" y="282.782" style="fill:#183651;" width="16.542" height="15.754"/>
	<rect x="165.415" y="282.782" style="fill:#183651;" width="16.542" height="15.754"/>
</g>
<polygon style="fill:#2EA0DA;" points="416.689,178.806 416.689,428.505 456.074,496.246 496.246,428.505 496.246,178.806 "/>
<path style="fill:#183651;" d="M456.074,504.123c-3.151,0-5.514-1.575-7.089-3.938l-40.172-67.742
	c-0.788-1.575-0.788-2.363-0.788-3.938V178.806c0-4.726,3.151-7.877,7.877-7.877h79.557c4.726,0,7.877,3.151,7.877,7.877v249.698
	c0,1.575,0,3.151-0.788,3.938l-39.385,67.742C461.588,502.548,459.225,504.123,456.074,504.123z M424.566,426.142l32.295,54.351
	l32.295-54.351V186.683h-63.803v239.458H424.566z"/>
<polygon style="fill:#FFFFFF;" points="440.32,422.203 440.32,202.437 472.615,202.437 472.615,422.203 456.074,449.772 "/>
<path style="fill:#F06151;" d="M478.917,106.338h-44.898c-9.452,0-17.329,7.877-17.329,17.329v55.138h79.557v-55.138
	C496.246,113.428,488.369,106.338,478.917,106.338z"/>
<path style="fill:#183651;" d="M496.246,186.683h-79.557c-4.726,0-7.877-3.151-7.877-7.877v-55.138
	c0-14.178,11.028-25.206,25.206-25.206h44.898c14.178,0,25.206,11.028,25.206,25.206v55.138
	C504.123,182.745,500.972,186.683,496.246,186.683z M424.566,170.929h63.803v-47.262c0-5.514-3.938-9.452-9.452-9.452h-44.898
	c-5.514,0-9.452,3.938-9.452,9.452L424.566,170.929L424.566,170.929z"/>
<g>
</g>
<g>
</g>
<g>
</g>
<g>
</g>
<g>
</g>
<g>
</g>
<g>
</g>
<g>
</g>
<g>
</g>
<g>
</g>
<g>
</g>
<g>
</g>
<g>
</g>
<g>
</g>
<g>
</g>
</svg>
