<?xml version="1.0" encoding="iso-8859-1"?>
<!-- Generator: Adobe Illustrator 19.0.0, SVG Export Plug-In . SVG Version: 6.00 Build 0)  -->
<svg version="1.1" id="Capa_1" xmlns="http://www.w3.org/2000/svg" xmlns:xlink="http://www.w3.org/1999/xlink" x="0px" y="0px"
	 viewBox="0 0 504.123 504.123" style="enable-background:new 0 0 504.123 504.123;" xml:space="preserve">
<circle style="fill:#E0E4E8;" cx="252.062" cy="252.062" r="252.062"/>
<polygon style="fill:#F06151;" points="473.403,252.062 408.025,212.677 408.025,233.157 347.372,233.157 347.372,270.966 
	408.025,270.966 408.025,291.446 "/>
<path style="fill:#183651;" d="M404.086,298.535c-2.363-1.575-3.938-3.938-3.938-7.089v-13.391h-53.563
	c-4.726,0-7.877-3.151-7.877-7.877v-37.022c0-4.726,3.151-7.877,7.877-7.877h53.563v-13.391c0-3.151,1.575-5.514,3.938-7.089
	c2.363-1.575,5.514-1.575,7.877,0l64.591,39.385c2.363,1.575,3.938,3.938,3.938,7.089c0,3.151-1.575,5.514-3.938,7.089
	l-64.591,39.385C410.388,300.111,407.237,300.111,404.086,298.535z M355.249,263.089h53.563c4.726,0,7.877,3.151,7.877,7.877v7.089
	l41.748-25.206l-41.748-25.206v7.089c0,4.726-3.151,7.877-7.877,7.877h-53.563V263.089z"/>
<polygon style="fill:#F06151;" points="30.72,252.062 96.098,291.446 96.098,270.966 156.751,270.966 156.751,233.157 
	96.098,233.157 96.098,212.677 "/>
<path style="fill:#183651;" d="M91.372,298.535l-64.591-39.385c-2.363-1.575-3.938-3.938-3.938-7.089s1.575-5.514,3.938-7.089
	l64.591-39.385c2.363-1.575,5.514-1.575,7.877,0c2.363,1.575,3.938,3.938,3.938,7.089v13.391h53.563
	c4.726,0,7.877,3.151,7.877,7.877v37.022c0,4.726-3.151,7.877-7.877,7.877h-53.563v13.391c0,3.151-1.575,5.514-3.938,7.089
	C96.886,300.111,93.735,300.111,91.372,298.535z M46.474,252.062l41.748,25.206v-7.089c0-4.726,3.151-7.877,7.877-7.877h53.563
	v-21.268H96.098c-4.726,0-7.877-3.151-7.877-7.877v-7.089L46.474,252.062z"/>
<polygon style="fill:#FFFFFF;" points="408.025,96.098 334.769,113.428 348.948,128.394 306.412,171.717 332.406,197.711 
	375.729,155.175 390.695,169.354 "/>
<path style="fill:#183651;" d="M332.406,205.588L332.406,205.588c-2.363,0-3.938-0.788-5.514-2.363l-25.994-25.994
	c-3.151-3.151-3.151-7.877,0-11.028l37.809-37.809l-9.452-9.452c-2.363-2.363-3.151-4.726-2.363-7.877
	c0.788-3.151,3.151-4.726,5.514-5.514l74.043-18.117c2.363-0.788,5.514,0,7.089,2.363c1.575,1.575,2.363,4.726,2.363,7.089
	l-18.117,74.043c-0.788,3.151-3.151,4.726-5.514,5.514c-2.363,0.788-5.514,0-7.877-2.363l-9.452-9.452l-37.809,37.809
	C336.345,204.8,334.769,205.588,332.406,205.588z M317.44,171.717l14.966,14.966l37.809-37.809c3.151-3.151,7.877-3.151,11.028,0
	l4.726,4.726l11.815-47.262l-47.262,11.815l4.726,4.726c3.151,3.151,3.151,7.877,0,11.028L317.44,171.717z"/>
<polygon style="fill:#FFFFFF;" points="96.098,408.025 169.354,390.695 155.175,375.729 197.711,332.406 171.717,306.412 
	128.394,348.948 113.428,334.769 "/>
<path style="fill:#183651;" d="M96.098,415.902c-2.363,0-3.938-0.788-5.514-2.363c-1.575-1.575-2.363-4.726-2.363-7.089
	l18.117-74.043c0.788-3.151,3.151-4.726,5.514-5.514c2.363-0.788,5.514,0,7.877,2.363l9.452,9.452l37.809-37.809
	c3.151-3.151,7.877-3.151,11.028,0L204.8,327.68c1.575,1.575,2.363,3.151,2.363,5.514s-0.788,3.938-2.363,5.514l-37.809,37.809
	l9.452,9.452c2.363,2.363,3.151,4.726,2.363,7.877c-0.788,3.151-3.151,4.726-5.514,5.514l-74.043,18.117
	C96.886,415.902,96.098,415.902,96.098,415.902z M118.154,349.735l-11.815,48.049l47.262-11.815l-4.726-4.726
	c-3.151-3.151-3.151-7.877,0-11.028l37.809-37.809l-14.966-14.966l-37.809,37.809c-3.151,3.151-7.877,3.151-11.028,0
	L118.154,349.735z"/>
<polygon style="fill:#F06151;" points="252.062,30.72 212.677,96.098 233.157,96.098 233.157,156.751 270.966,156.751 
	270.966,96.098 291.446,96.098 "/>
<path style="fill:#183651;" d="M270.966,164.628h-37.022c-4.726,0-7.877-3.151-7.877-7.877v-53.563h-13.391
	c-3.151,0-5.514-1.575-7.089-3.938c-1.575-2.363-1.575-5.514,0-7.877l39.385-64.591c3.151-4.726,10.24-4.726,13.391,0l39.385,64.591
	c1.575,2.363,1.575,5.514,0,7.877c-1.575,2.363-3.938,3.938-7.089,3.938h-13.391v53.563
	C278.843,161.477,274.905,164.628,270.966,164.628z M241.034,148.874h21.268V95.311c0-4.726,3.151-7.877,7.877-7.877h7.089
	l-25.206-41.748l-25.206,41.748h7.089c4.726,0,7.877,3.151,7.877,7.877v53.563H241.034z"/>
<polygon style="fill:#F06151;" points="252.062,473.403 291.446,408.025 270.966,408.025 270.966,347.372 233.157,347.372 
	233.157,408.025 212.677,408.025 "/>
<path style="fill:#183651;" d="M252.062,481.28c-2.363,0-5.514-1.575-7.089-3.938l-39.385-64.591c-1.575-2.363-1.575-5.514,0-7.877
	s3.938-3.938,7.089-3.938h13.391v-53.563c0-4.726,3.151-7.877,7.877-7.877h37.022c4.726,0,7.877,3.151,7.877,7.877v53.563h13.391
	c3.151,0,5.514,1.575,7.089,3.938c1.575,2.363,1.575,5.514,0,7.877l-39.385,64.591C257.575,479.705,254.425,481.28,252.062,481.28z
	 M226.855,415.902l25.206,41.748l25.206-41.748h-7.089c-4.726,0-7.877-3.151-7.877-7.877v-53.563h-21.268v53.563
	c0,4.726-3.151,7.877-7.877,7.877H226.855z"/>
<polygon style="fill:#FFFFFF;" points="96.098,96.098 113.428,169.354 128.394,155.175 171.717,197.711 197.711,171.717 
	155.175,128.394 169.354,113.428 "/>
<path style="fill:#183651;" d="M171.717,205.588c-2.363,0-3.938-0.788-5.514-2.363l-37.809-37.809l-9.452,9.452
	c-2.363,2.363-4.726,3.151-7.877,2.363c-2.363-0.788-4.726-3.151-5.514-5.514L87.434,97.674c-0.788-2.363,0-5.514,2.363-7.089
	c1.575-1.575,4.726-2.363,7.089-2.363l74.043,18.117c3.151,0.788,4.726,3.151,5.514,5.514c0.788,2.363,0,5.514-2.363,7.877
	l-9.452,9.452l37.809,37.809c1.575,1.575,2.363,3.151,2.363,5.514s-0.788,3.938-2.363,5.514l-25.206,25.206
	C175.655,204.8,173.292,205.588,171.717,205.588z M128.394,147.298c2.363,0,3.938,0.788,5.514,2.363l37.809,37.809l14.966-14.966
	l-37.809-37.809c-1.575-1.575-2.363-3.151-2.363-5.514s0.788-3.938,2.363-5.514l4.726-4.726l-47.262-12.603l11.815,47.262
	l4.726-4.726C124.455,147.298,126.031,147.298,128.394,147.298z"/>
<polygon style="fill:#FFFFFF;" points="408.025,408.025 390.695,334.769 375.729,348.948 332.406,306.412 306.412,332.406 
	348.948,375.729 334.769,390.695 "/>
<g>
	<path style="fill:#183651;" d="M406.449,415.902l-74.043-18.117c-3.151-0.788-4.726-3.151-5.514-5.514s0-5.514,2.363-7.877
		l9.452-9.452l-37.809-37.809c-3.151-3.151-3.151-7.877,0-11.028l26.782-26.782c3.151-3.151,7.877-3.151,11.028,0l37.809,37.809
		l9.452-9.452c2.363-2.363,4.726-3.151,7.877-2.363c2.363,0.788,4.726,3.151,5.514,5.514l18.117,74.043
		c0.788,2.363,0,5.514-2.363,7.089C411.963,415.902,409.6,416.689,406.449,415.902z M349.735,385.969l47.262,11.815l-11.815-47.262
		l-4.726,4.726c-3.151,3.151-7.877,3.151-11.028,0l-37.809-37.809l-14.966,14.966l37.809,37.809c3.151,3.151,3.151,7.877,0,11.028
		L349.735,385.969z"/>
	
		<rect x="53.713" y="327.03" transform="matrix(-0.3988 -0.917 0.917 -0.3988 -220.9676 524.9526)" style="fill:#183651;" width="15.753" height="15.753"/>
	
		<rect x="434.656" y="161.32" transform="matrix(-0.3984 -0.9172 0.9172 -0.3984 463.6505 642.5005)" style="fill:#183651;" width="15.754" height="15.754"/>
	
		<rect x="167.668" y="437.874" transform="matrix(-0.9305 -0.3664 0.3664 -0.9305 175.5661 924.8227)" style="fill:#183651;" width="15.754" height="15.754"/>
	
		<rect x="320.705" y="50.523" transform="matrix(-0.9305 -0.3664 0.3664 -0.9305 612.9191 233.1263)" style="fill:#183651;" width="15.754" height="15.754"/>
	
		<rect x="327.02" y="434.645" transform="matrix(-0.3985 -0.9172 0.9172 -0.3985 62.4806 926.0208)" style="fill:#183651;" width="15.754" height="15.754"/>
	
		<rect x="161.321" y="53.767" transform="matrix(-0.3985 -0.9172 0.9172 -0.3985 180.0831 241.3931)" style="fill:#183651;" width="15.754" height="15.754"/>
	
		<rect x="437.823" y="320.694" transform="matrix(-0.9305 -0.3662 0.3662 -0.9305 740.1095 797.5372)" style="fill:#183651;" width="15.753" height="15.753"/>
	
		<rect x="50.512" y="167.67" transform="matrix(-0.9304 -0.3666 0.3666 -0.9304 48.3589 360.278)" style="fill:#183651;" width="15.754" height="15.754"/>
</g>
<circle style="fill:#FBBD5E;" cx="252.062" cy="252.062" r="117.366"/>
<path style="fill:#183651;" d="M252.062,377.305c-69.317,0-125.243-55.926-125.243-125.243s55.926-125.243,125.243-125.243
	s125.243,55.926,125.243,125.243S321.378,377.305,252.062,377.305z M252.062,142.572c-60.652,0-109.489,48.837-109.489,109.489
	s48.837,109.489,109.489,109.489s109.489-48.837,109.489-109.489S312.714,142.572,252.062,142.572z"/>
<path style="fill:#FFFFFF;" d="M252.062,341.071c-48.837,0-89.009-40.172-89.009-89.009s40.172-89.009,89.009-89.009
	s89.009,40.172,89.009,89.009S300.898,341.071,252.062,341.071z"/>
<g>
	<path style="fill:#FBBD5E;" d="M249.698,297.748v-7.877c-10.24-0.788-18.905-4.726-26.782-11.815l7.877-9.452
		c6.302,5.514,12.603,8.665,18.905,9.452V256c-7.877-2.363-14.178-4.726-18.117-7.877c-3.938-3.151-5.514-7.877-5.514-14.178
		c0-6.302,2.363-11.815,6.302-15.754c4.726-3.938,10.24-6.302,17.329-6.302v-5.514h7.089v5.514
		c7.877,0.788,15.754,3.151,22.843,7.877l-7.089,10.24c-4.726-3.151-10.24-5.514-15.754-6.302v20.48l0,0
		c8.665,2.363,14.178,4.726,18.117,7.877c3.938,3.151,6.302,7.877,6.302,14.966c0,6.302-2.363,11.815-7.089,15.754
		c-4.726,3.938-10.24,6.302-18.117,6.302v7.877h-6.302V297.748z M241.822,226.855c-1.575,1.575-3.151,3.938-3.151,6.302
		c0,2.363,0.788,4.726,2.363,5.514c1.575,1.575,3.938,3.151,8.665,3.938v-18.905C246.548,224.492,244.185,225.28,241.822,226.855z
		 M264.665,274.905c2.363-1.575,3.151-3.938,3.151-6.302s-0.788-4.726-2.363-6.302c-1.575-1.575-4.726-3.151-8.665-3.938v19.692
		C259.938,277.268,263.089,276.48,264.665,274.905z"/>
	<circle style="fill:#FBBD5E;" cx="315.865" cy="252.062" r="8.665"/>
	<circle style="fill:#FBBD5E;" cx="188.258" cy="252.062" r="8.665"/>
</g>
<g>
</g>
<g>
</g>
<g>
</g>
<g>
</g>
<g>
</g>
<g>
</g>
<g>
</g>
<g>
</g>
<g>
</g>
<g>
</g>
<g>
</g>
<g>
</g>
<g>
</g>
<g>
</g>
<g>
</g>
</svg>
