<?xml version="1.0" encoding="iso-8859-1"?>
<!-- Generator: Adobe Illustrator 19.0.0, SVG Export Plug-In . SVG Version: 6.00 Build 0)  -->
<svg version="1.1" id="Capa_1" xmlns="http://www.w3.org/2000/svg" xmlns:xlink="http://www.w3.org/1999/xlink" x="0px" y="0px"
	 viewBox="0 0 504.123 504.123" style="enable-background:new 0 0 504.123 504.123;" xml:space="preserve">
<circle style="fill:#E1E6E7;" cx="252.062" cy="252.062" r="252.062"/>
<path style="fill:#183651;" d="M252.062,440.32c-4.726,0-7.877-3.151-7.877-7.877V71.68c0-4.726,3.151-7.877,7.877-7.877
	s7.877,3.151,7.877,7.877v360.763C259.938,437.169,256.788,440.32,252.062,440.32z"/>
<circle style="fill:#FFFFFF;" cx="252.062" cy="55.138" r="23.631"/>
<path style="fill:#183651;" d="M252.062,86.646c-17.329,0-31.508-14.178-31.508-31.508s14.178-31.508,31.508-31.508
	s31.508,14.178,31.508,31.508S269.391,86.646,252.062,86.646z M252.062,38.597c-8.665,0-15.754,7.089-15.754,15.754
	s7.089,15.754,15.754,15.754c8.665,0,15.754-7.089,15.754-15.754C267.815,45.686,260.726,38.597,252.062,38.597z"/>
<circle style="fill:#FFFFFF;" cx="252.062" cy="448.985" r="23.631"/>
<path style="fill:#183651;" d="M252.062,481.28c-17.329,0-31.508-14.178-31.508-31.508c0-17.329,14.178-31.508,31.508-31.508
	s31.508,14.178,31.508,31.508C283.569,467.102,269.391,481.28,252.062,481.28z M252.062,433.231
	c-8.665,0-15.754,7.089-15.754,15.754s7.089,15.754,15.754,15.754c8.665,0,15.754-7.089,15.754-15.754
	S260.726,433.231,252.062,433.231z"/>
<path style="fill:#183651;" d="M96.098,350.523c-2.363,0-5.514-1.575-7.089-3.938c-2.363-3.938-0.788-8.665,3.151-11.028
	l312.714-180.382c3.938-2.363,8.665-0.788,11.028,3.151s0.788,8.665-3.151,11.028L100.037,348.948
	C98.462,349.735,96.886,350.523,96.098,350.523z"/>
<circle style="fill:#FFFFFF;" cx="81.132" cy="350.523" r="23.631"/>
<path style="fill:#183651;" d="M53.563,366.277c-8.665-14.966-3.938-34.658,11.815-43.323c14.966-8.665,34.658-3.151,43.323,11.815
	c3.938,7.089,5.514,15.754,3.151,24.418c-2.363,7.877-7.089,14.966-14.966,19.692C81.92,386.757,62.228,381.243,53.563,366.277z
	 M73.255,337.132c-7.877,4.726-10.24,14.178-5.514,22.055c3.938,7.089,14.178,10.24,22.055,5.514
	c3.938-2.363,6.302-5.514,7.089-9.452c0.788-3.938,0.788-8.665-1.575-11.815C90.585,334.769,81.132,332.406,73.255,337.132z"/>
<circle style="fill:#FFFFFF;" cx="422.991" cy="153.6" r="23.631"/>
<path style="fill:#183651;" d="M395.422,169.354c-8.665-14.966-3.938-34.658,11.815-43.323c14.966-8.665,34.658-3.151,43.323,11.815
	c8.665,14.966,3.938,34.658-11.815,43.323C422.991,189.834,404.086,184.32,395.422,169.354z M415.114,139.422
	c-7.877,4.726-10.24,14.178-5.514,22.055c3.938,7.089,14.178,10.24,22.055,5.514s10.24-14.178,5.514-22.055
	C432.443,137.846,422.203,134.695,415.114,139.422z"/>
<path style="fill:#183651;" d="M408.025,350.523c-1.575,0-2.363,0-3.938-0.788L92.16,168.566c-3.938-2.363-4.726-7.089-3.151-11.028
	c1.575-3.938,7.089-4.726,11.028-3.151l312.714,180.382c3.938,2.363,4.726,7.089,3.151,11.028
	C413.538,348.948,411.175,350.523,408.025,350.523z"/>
<circle style="fill:#FFFFFF;" cx="422.991" cy="350.523" r="23.631"/>
<path style="fill:#183651;" d="M407.237,378.092c-14.966-8.665-20.48-28.357-11.815-43.323s28.357-20.48,43.323-11.815
	c14.966,8.665,20.48,28.357,11.815,43.323C441.895,382.031,422.203,386.757,407.237,378.092z M408.812,342.646
	c-4.726,7.877-1.575,17.329,5.514,22.055c7.089,3.938,17.329,1.575,22.055-5.514c4.726-7.877,1.575-17.329-5.514-22.055
	C422.991,332.406,413.538,334.769,408.812,342.646z"/>
<circle style="fill:#FFFFFF;" cx="81.132" cy="153.6" r="23.631"/>
<path style="fill:#183651;" d="M65.378,181.169c-14.966-8.665-20.48-28.357-11.815-43.323c8.665-14.966,28.357-20.48,43.323-11.815
	c7.089,3.938,12.603,11.028,14.966,19.692c2.363,7.877,0.788,16.542-3.151,24.418C100.037,184.32,80.345,189.834,65.378,181.169z
	 M67.742,145.723c-4.726,7.877-1.575,17.329,5.514,22.055c7.089,3.938,17.329,1.575,22.055-5.514
	c2.363-3.938,2.363-7.877,1.575-11.815s-3.938-7.877-7.089-9.452C81.92,135.483,71.68,137.846,67.742,145.723z"/>
<circle style="fill:#FBBD5E;" cx="252.062" cy="252.062" r="115.791"/>
<path style="fill:#183651;" d="M252.062,375.729c-67.742,0-123.668-55.138-123.668-123.668s55.138-123.668,123.668-123.668
	s123.668,55.138,123.668,123.668S319.803,375.729,252.062,375.729z M252.062,144.148c-59.077,0-107.914,48.049-107.914,107.914
	s48.837,107.914,107.914,107.914s107.914-48.837,107.914-107.914S311.138,144.148,252.062,144.148z"/>
<path style="fill:#FFFFFF;" d="M252.062,338.708c-48.049,0-86.646-39.385-86.646-86.646s39.385-86.646,86.646-86.646
	s86.646,39.385,86.646,86.646S300.111,338.708,252.062,338.708z"/>
<g>
	<path style="fill:#FBBD5E;" d="M249.698,293.809v-7.089c-9.452-0.788-17.329-4.726-25.206-11.028l7.089-8.665
		c5.514,4.726,11.815,7.877,17.329,8.665V256c-7.877-1.575-13.391-3.938-16.542-7.089c-3.938-3.151-5.514-7.089-5.514-13.391
		c0-6.302,2.363-10.24,6.302-14.178s9.452-5.514,15.754-6.302v-4.726H256v5.514c7.089,0.788,14.178,3.151,21.268,7.877l-6.302,8.665
		c-4.726-3.151-9.452-5.514-14.178-5.514v18.905l0,0c7.877,1.575,13.391,3.938,17.329,7.089c3.938,3.151,5.514,7.877,5.514,13.391
		c0,6.302-2.363,11.028-6.302,14.178c-3.938,3.938-9.452,5.514-16.542,6.302v7.089H249.698z M242.609,228.431
		c-1.575,1.575-2.363,3.938-2.363,5.514c0,2.363,0.788,3.938,2.363,5.514c1.575,1.575,3.938,2.363,7.877,3.938v-17.329
		C246.548,226.068,244.185,226.855,242.609,228.431z M263.877,273.329c1.575-1.575,3.151-3.151,3.151-5.514
		c0-2.363-0.788-3.938-2.363-5.514c-1.575-1.575-3.938-2.363-8.665-3.938v18.117C259.938,275.692,262.302,274.905,263.877,273.329z"
		/>
	<circle style="fill:#FBBD5E;" cx="316.652" cy="252.062" r="8.665"/>
	<circle style="fill:#FBBD5E;" cx="187.471" cy="252.062" r="8.665"/>
</g>
<g>
	<rect x="15.754" y="244.185" style="fill:#183651;" width="15.754" height="15.754"/>
	<rect x="51.988" y="244.185" style="fill:#183651;" width="15.754" height="15.754"/>
	<rect x="88.222" y="244.185" style="fill:#183651;" width="15.754" height="15.754"/>
	<rect x="400.148" y="244.185" style="fill:#183651;" width="15.754" height="15.754"/>
	<rect x="436.382" y="244.185" style="fill:#183651;" width="15.754" height="15.754"/>
	<rect x="472.615" y="244.185" style="fill:#183651;" width="15.754" height="15.754"/>
	
		<rect x="358.462" y="441.958" transform="matrix(-0.4999 -0.8661 0.8661 -0.4999 159.8736 991.986)" style="fill:#183651;" width="15.754" height="15.754"/>
	
		<rect x="340.595" y="410.508" transform="matrix(-0.4999 -0.8661 0.8661 -0.4999 160.312 929.3399)" style="fill:#183651;" width="15.754" height="15.754"/>
	
		<rect x="322.013" y="379.46" transform="matrix(-0.4999 -0.8661 0.8661 -0.4999 159.332 866.678)" style="fill:#183651;" width="15.754" height="15.754"/>
	
		<rect x="166.301" y="108.909" transform="matrix(-0.4999 -0.8661 0.8661 -0.4999 160.1012 326.0194)" style="fill:#183651;" width="15.754" height="15.754"/>
	
		<rect x="147.751" y="77.861" transform="matrix(-0.4999 -0.8661 0.8661 -0.4999 159.1685 263.3848)" style="fill:#183651;" width="15.754" height="15.754"/>
	
		<rect x="129.887" y="46.411" transform="matrix(-0.5 -0.866 0.866 -0.5 159.6336 200.7387)" style="fill:#183651;" width="15.753" height="15.753"/>
	
		<rect x="358.364" y="46.461" transform="matrix(-0.8661 -0.4999 0.4999 -0.8661 656.2743 284.4816)" style="fill:#183651;" width="15.754" height="15.754"/>
	
		<rect x="340.132" y="77.903" transform="matrix(-0.8661 -0.4999 0.4999 -0.8661 606.534 334.0405)" style="fill:#183651;" width="15.754" height="15.754"/>
	
		<rect x="322.293" y="108.679" transform="matrix(-0.8661 -0.4999 0.4999 -0.8661 557.8616 382.5526)" style="fill:#183651;" width="15.754" height="15.754"/>
	
		<rect x="166.099" y="379.714" transform="matrix(-0.8661 -0.4999 0.4999 -0.8661 130.9009 810.2485)" style="fill:#183651;" width="15.754" height="15.754"/>
	
		<rect x="148.261" y="410.474" transform="matrix(-0.8661 -0.4999 0.4999 -0.8661 82.2364 858.7311)" style="fill:#183651;" width="15.754" height="15.754"/>
	
		<rect x="130.065" y="441.922" transform="matrix(-0.866 -0.5001 0.5001 -0.866 32.4592 908.2973)" style="fill:#183651;" width="15.754" height="15.754"/>
</g>
<g>
</g>
<g>
</g>
<g>
</g>
<g>
</g>
<g>
</g>
<g>
</g>
<g>
</g>
<g>
</g>
<g>
</g>
<g>
</g>
<g>
</g>
<g>
</g>
<g>
</g>
<g>
</g>
<g>
</g>
</svg>
