<?xml version="1.0" encoding="iso-8859-1"?>
<!-- Generator: Adobe Illustrator 19.0.0, SVG Export Plug-In . SVG Version: 6.00 Build 0)  -->
<svg version="1.1" id="Capa_1" xmlns="http://www.w3.org/2000/svg" xmlns:xlink="http://www.w3.org/1999/xlink" x="0px" y="0px"
	 viewBox="0 0 504.123 504.123" style="enable-background:new 0 0 504.123 504.123;" xml:space="preserve">
<rect x="7.877" y="52.775" style="fill:#E1E6E7;" width="488.369" height="296.96"/>
<path style="fill:#183651;" d="M496.246,357.612H7.877c-4.726,0-7.877-3.151-7.877-7.877V52.775c0-4.726,3.151-7.877,7.877-7.877
	h488.369c4.726,0,7.877,3.151,7.877,7.877v296.96C504.123,354.462,500.972,357.612,496.246,357.612z M15.754,341.858h472.615V60.652
	H15.754V341.858z"/>
<rect x="39.385" y="84.283" style="fill:#FFFFFF;" width="425.354" height="233.945"/>
<polygon style="fill:#FBBD5E;" points="133.908,464.738 133.908,349.735 87.434,349.735 87.434,464.738 34.658,464.738 
	34.658,496.246 186.683,496.246 186.683,464.738 "/>
<path style="fill:#183651;" d="M186.683,504.123H34.658c-4.726,0-7.877-3.151-7.877-7.877v-31.508c0-4.726,3.151-7.877,7.877-7.877
	h44.898V349.735c0-4.726,3.151-7.877,7.877-7.877h46.474c4.726,0,7.877,3.151,7.877,7.877v107.126h44.898
	c4.726,0,7.877,3.151,7.877,7.877v31.508C194.56,500.972,191.409,504.123,186.683,504.123z M42.535,488.369h137.058v-15.754h-44.898
	c-4.726,0-7.877-3.151-7.877-7.877V357.612h-30.72v107.126c0,4.726-3.151,7.877-7.877,7.877H42.535V488.369z"/>
<polygon style="fill:#FBBD5E;" points="416.689,464.738 416.689,349.735 370.215,349.735 370.215,464.738 317.44,464.738 
	317.44,496.246 469.465,496.246 469.465,464.738 "/>
<g>
	<path style="fill:#183651;" d="M469.465,504.123H317.44c-4.726,0-7.877-3.151-7.877-7.877v-31.508c0-4.726,3.151-7.877,7.877-7.877
		h44.898V349.735c0-4.726,3.151-7.877,7.877-7.877h46.474c4.726,0,7.877,3.151,7.877,7.877v107.126h44.898
		c4.726,0,7.877,3.151,7.877,7.877v31.508C477.342,500.972,474.191,504.123,469.465,504.123z M325.317,488.369h137.058v-15.754
		h-44.898c-4.726,0-7.877-3.151-7.877-7.877V357.612h-30.72v107.126c0,4.726-3.151,7.877-7.877,7.877h-44.898v15.754H325.317z"/>
	<path style="fill:#183651;" d="M104.763,118.154c-4.726,0-7.877-3.151-7.877-7.877V41.748c0-14.178-11.815-25.994-25.994-25.994
		S45.686,27.569,45.686,41.748V51.2c0,4.726-3.151,7.877-7.877,7.877s-7.877-3.151-7.877-7.877v-9.452
		C29.932,18.905,48.837,0,71.68,0s41.748,18.905,41.748,41.748v68.529C112.64,114.215,108.702,118.154,104.763,118.154z"/>
</g>
<rect x="70.892" y="110.277" style="fill:#FFFFFF;" width="67.742" height="35.446"/>
<g>
	<path style="fill:#183651;" d="M138.634,153.6H70.892c-4.726,0-7.877-3.151-7.877-7.877v-35.446c0-4.726,3.151-7.877,7.877-7.877
		h67.742c4.726,0,7.877,3.151,7.877,7.877v35.446C146.511,149.662,142.572,153.6,138.634,153.6z M78.769,137.846h51.988v-19.692
		H78.769V137.846z"/>
	<path style="fill:#183651;" d="M252.849,118.154c-4.726,0-7.877-3.151-7.877-7.877V41.748c0-14.178-11.815-25.994-25.994-25.994
		s-25.206,11.815-25.206,25.994V51.2c0,4.726-3.151,7.877-7.877,7.877c-4.726,0-7.877-3.151-7.877-7.877v-9.452
		C178.018,18.905,196.923,0,219.766,0s41.748,18.905,41.748,41.748v68.529C260.726,114.215,257.575,118.154,252.849,118.154z"/>
</g>
<rect x="218.978" y="110.277" style="fill:#FFFFFF;" width="67.742" height="35.446"/>
<g>
	<path style="fill:#183651;" d="M286.72,153.6h-67.742c-4.726,0-7.877-3.151-7.877-7.877v-35.446c0-4.726,3.151-7.877,7.877-7.877
		h67.742c4.726,0,7.877,3.151,7.877,7.877v35.446C294.597,149.662,291.446,153.6,286.72,153.6z M226.855,137.846h51.988v-19.692
		h-51.988L226.855,137.846L226.855,137.846z"/>
	<path style="fill:#183651;" d="M400.935,118.154c-4.726,0-7.877-3.151-7.877-7.877V41.748c0-14.178-11.815-25.994-25.994-25.994
		s-25.206,11.815-25.206,25.994V51.2c0,4.726-3.151,7.877-7.877,7.877c-4.726,0-7.877-3.151-7.877-7.877v-9.452
		C326.105,18.905,345.009,0,367.852,0S409.6,18.905,409.6,41.748v68.529C408.812,114.215,405.662,118.154,400.935,118.154z"/>
</g>
<rect x="367.065" y="110.277" style="fill:#FFFFFF;" width="67.742" height="35.446"/>
<path style="fill:#183651;" d="M434.806,153.6h-67.742c-4.726,0-7.877-3.151-7.877-7.877v-35.446c0-4.726,3.151-7.877,7.877-7.877
	h67.742c4.726,0,7.877,3.151,7.877,7.877v35.446C442.683,149.662,439.532,153.6,434.806,153.6z M374.942,137.846h51.988v-19.692
	h-51.988V137.846z"/>
<g>
	<path style="fill:#173651;" d="M87.434,270.178l-6.302,14.966H69.317l29.145-66.166h11.815l29.145,66.166h-11.815l-6.302-14.966
		H87.434z M115.791,259.938l-11.815-27.569L92.16,259.938H115.791z"/>
	<path style="fill:#173651;" d="M198.498,227.643c6.302,5.514,9.452,14.178,9.452,24.418s-3.151,18.117-9.452,24.418
		c-6.302,6.302-15.754,8.665-28.357,8.665h-22.055v-66.166h22.843C182.745,218.978,192.197,222.129,198.498,227.643z
		 M196.923,252.062c0-14.966-8.665-22.843-25.994-22.843h-11.028v44.898h12.603c7.877,0,14.178-1.575,18.117-5.514
		C194.56,265.452,196.923,259.151,196.923,252.062z"/>
</g>
<circle style="fill:#FFFFFF;" cx="396.997" cy="212.677" r="19.692"/>
<path style="fill:#183651;" d="M396.997,240.246c-14.966,0-27.569-12.603-27.569-27.569s12.603-27.569,27.569-27.569
	c14.966,0,27.569,12.603,27.569,27.569S411.963,240.246,396.997,240.246z M396.997,200.862c-6.302,0-11.815,5.514-11.815,11.815
	s5.514,11.815,11.815,11.815c6.302,0,11.815-5.514,11.815-11.815S403.298,200.862,396.997,200.862z"/>
<circle style="fill:#FFFFFF;" cx="286.72" cy="266.24" r="19.692"/>
<path style="fill:#183651;" d="M286.72,293.809c-14.966,0-27.569-12.603-27.569-27.569s12.603-27.569,27.569-27.569
	c14.966,0,27.569,12.603,27.569,27.569S301.686,293.809,286.72,293.809z M286.72,254.425c-6.302,0-11.815,5.514-11.815,11.815
	c0,6.302,5.514,11.815,11.815,11.815c6.302,0,11.815-5.514,11.815-11.815C298.535,259.938,293.022,254.425,286.72,254.425z"/>
<g>
</g>
<g>
</g>
<g>
</g>
<g>
</g>
<g>
</g>
<g>
</g>
<g>
</g>
<g>
</g>
<g>
</g>
<g>
</g>
<g>
</g>
<g>
</g>
<g>
</g>
<g>
</g>
<g>
</g>
</svg>
