<?xml version="1.0" encoding="iso-8859-1"?>
<!-- Generator: Adobe Illustrator 19.0.0, SVG Export Plug-In . SVG Version: 6.00 Build 0)  -->
<svg version="1.1" id="Capa_1" xmlns="http://www.w3.org/2000/svg" xmlns:xlink="http://www.w3.org/1999/xlink" x="0px" y="0px"
	 viewBox="0 0 504.123 504.123" style="enable-background:new 0 0 504.123 504.123;" xml:space="preserve">
<circle style="fill:#2EA0DA;" cx="252.062" cy="252.062" r="252.062"/>
<rect x="59.865" y="29.932" style="fill:#E0E4E8;" width="380.455" height="466.314"/>
<path style="fill:#183651;" d="M439.532,504.123H59.865c-4.726,0-7.877-3.151-7.877-7.877V29.932c0-4.726,3.151-7.877,7.877-7.877
	H440.32c4.726,0,7.877,3.151,7.877,7.877v466.314C447.409,500.972,444.258,504.123,439.532,504.123z M67.742,488.369h364.702V37.809
	H67.742V488.369z"/>
<g>
	<rect x="91.372" y="61.44" style="fill:#FFFFFF;" width="317.44" height="403.298"/>
	<path style="fill:#FFFFFF;" d="M356.825,53.563H148.874l0,0c0-25.206,20.48-45.686,45.686-45.686h116.578
		C336.345,7.877,356.825,28.357,356.825,53.563L356.825,53.563z"/>
</g>
<path style="fill:#183651;" d="M356.825,61.44L356.825,61.44H148.874c-4.726,0-7.877-3.151-7.877-7.877
	C140.997,24.418,164.628,0,194.56,0h116.578c29.145,0,52.775,22.843,53.563,51.988c0,0.788,0,0.788,0,1.575
	C364.702,57.502,361.551,61.44,356.825,61.44z M157.538,45.686H348.16c-3.938-17.329-18.905-29.932-37.022-29.932H193.772
	C176.443,15.754,160.689,28.357,157.538,45.686z"/>
<rect x="205.588" y="114.215" style="fill:#FBBD5E;" width="88.222" height="48.049"/>
<path style="fill:#183651;" d="M293.809,170.142h-88.222c-4.726,0-7.877-3.151-7.877-7.877v-48.049c0-4.726,3.151-7.877,7.877-7.877
	h88.222c4.726,0,7.877,3.151,7.877,7.877v48.049C301.686,166.991,297.748,170.142,293.809,170.142z M213.465,154.388h72.468v-32.295
	h-72.468L213.465,154.388L213.465,154.388z"/>
<rect x="205.588" y="198.498" style="fill:#FBBD5E;" width="88.222" height="48.049"/>
<path style="fill:#183651;" d="M293.809,254.425h-88.222c-4.726,0-7.877-3.151-7.877-7.877v-48.049c0-4.726,3.151-7.877,7.877-7.877
	h88.222c4.726,0,7.877,3.151,7.877,7.877v48.049C301.686,251.274,297.748,254.425,293.809,254.425z M213.465,238.671h72.468v-32.295
	h-72.468L213.465,238.671L213.465,238.671z"/>
<rect x="205.588" y="281.994" style="fill:#FBBD5E;" width="88.222" height="48.049"/>
<path style="fill:#183651;" d="M293.809,338.708h-88.222c-4.726,0-7.877-3.151-7.877-7.877v-48.049c0-4.726,3.151-7.877,7.877-7.877
	h88.222c4.726,0,7.877,3.151,7.877,7.877v48.049C301.686,334.769,297.748,338.708,293.809,338.708z M213.465,322.954h72.468v-32.295
	h-72.468L213.465,322.954L213.465,322.954z"/>
<rect x="205.588" y="366.277" style="fill:#FBBD5E;" width="88.222" height="48.049"/>
<g>
	<path style="fill:#183651;" d="M293.809,422.203h-88.222c-4.726,0-7.877-3.151-7.877-7.877v-48.049
		c0-4.726,3.151-7.877,7.877-7.877h88.222c4.726,0,7.877,3.151,7.877,7.877v48.049C301.686,419.052,297.748,422.203,293.809,422.203
		z M213.465,406.449h72.468v-32.295h-72.468L213.465,406.449L213.465,406.449z"/>
	<path style="fill:#183651;" d="M393.058,230.006h-69.317c-4.726,0-7.877-3.151-7.877-7.877c0-4.726,3.151-7.877,7.877-7.877h61.44
		v-68.529h-91.372c-4.726,0-7.877-3.151-7.877-7.877c0-4.726,3.151-7.877,7.877-7.877h99.249c4.726,0,7.877,3.151,7.877,7.877
		v84.283C400.935,226.855,397.785,230.006,393.058,230.006z"/>
	<path style="fill:#183651;" d="M393.058,398.572h-69.317c-4.726,0-7.877-3.151-7.877-7.877s3.151-7.877,7.877-7.877h61.44v-68.529
		h-91.372c-4.726,0-7.877-3.151-7.877-7.877s3.151-7.877,7.877-7.877h99.249c4.726,0,7.877,3.151,7.877,7.877v84.283
		C400.935,394.634,397.785,398.572,393.058,398.572z"/>
	<path style="fill:#183651;" d="M182.745,314.289h-68.529c-4.726,0-7.877-3.151-7.877-7.877v-84.283
		c0-4.726,3.151-7.877,7.877-7.877h91.372c4.726,0,7.877,3.151,7.877,7.877c0,4.726-3.151,7.877-7.877,7.877h-83.495v68.529h61.44
		c4.726,0,7.877,3.151,7.877,7.877S187.471,314.289,182.745,314.289z"/>
	<rect x="122.092" y="87.434" style="fill:#183651;" width="15.754" height="15.754"/>
	<rect x="122.092" y="123.668" style="fill:#183651;" width="15.754" height="15.754"/>
	<rect x="122.092" y="159.114" style="fill:#183651;" width="15.754" height="15.754"/>
	<rect x="122.092" y="346.585" style="fill:#183651;" width="15.754" height="15.754"/>
	<rect x="122.092" y="382.818" style="fill:#183651;" width="15.754" height="15.754"/>
	<rect x="122.092" y="418.265" style="fill:#183651;" width="15.754" height="15.754"/>
</g>
<g>
</g>
<g>
</g>
<g>
</g>
<g>
</g>
<g>
</g>
<g>
</g>
<g>
</g>
<g>
</g>
<g>
</g>
<g>
</g>
<g>
</g>
<g>
</g>
<g>
</g>
<g>
</g>
<g>
</g>
</svg>
