<?xml version="1.0" encoding="iso-8859-1"?>
<!-- Generator: Adobe Illustrator 19.0.0, SVG Export Plug-In . SVG Version: 6.00 Build 0)  -->
<svg version="1.1" id="Capa_1" xmlns="http://www.w3.org/2000/svg" xmlns:xlink="http://www.w3.org/1999/xlink" x="0px" y="0px"
	 viewBox="0 0 504.123 504.123" style="enable-background:new 0 0 504.123 504.123;" xml:space="preserve">
<circle style="fill:#FBBD5E;" cx="251.668" cy="241.034" r="241.034"/>
<g>
	<rect x="376.123" y="367.065" style="fill:#183651;" width="14.966" height="14.966"/>
	<rect x="406.055" y="367.065" style="fill:#183651;" width="14.966" height="14.966"/>
	<rect x="435.988" y="367.065" style="fill:#183651;" width="14.966" height="14.966"/>
	<rect x="52.382" y="367.065" style="fill:#183651;" width="14.966" height="14.966"/>
	<rect x="82.314" y="367.065" style="fill:#183651;" width="14.966" height="14.966"/>
	<rect x="112.246" y="367.065" style="fill:#183651;" width="14.966" height="14.966"/>
</g>
<polygon style="fill:#CECFD0;" points="114.609,430.08 85.465,412.751 14.572,440.32 14.572,469.465 85.465,496.246 
	114.609,478.917 "/>
<path style="fill:#183651;" d="M85.465,504.123c-0.788,0-1.575,0-2.363-0.788l-70.892-27.569c-3.151-0.788-4.726-3.938-4.726-7.089
	v-29.145c0-3.151,1.575-6.302,4.726-7.089l70.892-27.569c2.363-0.788,4.726-0.788,6.302,0.788l29.145,17.329
	c2.363,1.575,3.938,3.938,3.938,6.302v48.837c0,2.363-1.575,4.726-3.938,6.302L89.403,501.76
	C88.615,504.123,87.04,504.123,85.465,504.123z M22.449,463.951l63.015,24.418l22.055-13.391v-40.172l-22.843-13.391l-63.015,24.418
	v18.117H22.449z"/>
<rect x="114.609" y="437.957" style="fill:#E0E4E8;" width="213.465" height="33.871"/>
<path style="fill:#183651;" d="M328.074,478.917H114.609c-3.938,0-7.877-3.151-7.877-7.877v-33.871c0-3.938,3.151-7.877,7.877-7.877
	h213.465c3.938,0,7.877,3.151,7.877,7.877v33.871c0,2.363-0.788,3.938-2.363,5.514C332.012,478.129,330.437,478.917,328.074,478.917
	z M122.486,463.951h198.498v-18.905H122.486V463.951z"/>
<path style="fill:#FFFFFF;" d="M328.074,489.157h126.818c18.905,0,33.871-14.966,33.871-33.871
	c0-18.905-14.966-33.871-33.871-33.871H328.074L328.074,489.157z"/>
<path style="fill:#183651;" d="M454.892,496.246H328.074c-3.938,0-7.877-3.151-7.877-7.877V419.84c0-3.938,3.151-7.877,7.877-7.877
	h126.818c22.843,0,41.748,18.905,41.748,41.748C495.852,477.342,477.735,496.246,454.892,496.246z M335.951,481.28h118.942
	c14.966,0,26.782-11.815,26.782-26.782c0-14.966-11.815-26.782-26.782-26.782H335.951V481.28z"/>
<path style="fill:#183651;" d="M328.074,496.246c-1.575,0-3.151-0.788-3.938-1.575c-3.151-2.363-4.726-7.089-2.363-10.24
	l45.686-68.529c2.363-3.151,7.089-4.726,10.24-2.363c3.151,2.363,4.726,7.089,2.363,10.24l-45.686,69.317
	C332.8,495.458,330.437,496.246,328.074,496.246z"/>
<path style="fill:#183651;" d="M373.76,496.246c-1.575,0-3.151-0.788-3.938-1.575c-3.151-2.363-4.726-7.089-2.363-10.24
	l45.686-68.529c2.363-3.151,7.089-4.726,10.24-2.363s4.726,7.089,2.363,10.24l-45.686,68.529
	C378.486,495.458,376.123,496.246,373.76,496.246z"/>
<path style="fill:#183651;" d="M419.446,496.246c-1.575,0-3.151-0.788-3.938-1.575c-3.151-2.363-4.726-7.089-2.363-10.24
	l44.898-66.954c2.363-3.151,7.089-4.726,10.24-2.363s4.726,7.089,2.363,10.24l-44.898,66.954
	C424.172,495.458,421.809,496.246,419.446,496.246z"/>
<path style="fill:#FFFFFF;" d="M305.231,257.575c34.658,0,63.015-28.357,63.015-63.015c0-31.508-23.631-58.289-54.351-62.228
	c-4.726-0.788-7.877-4.726-6.302-9.452c2.363-7.877,4.726-20.48,4.726-29.932c0-34.658-28.357-63.015-63.015-63.015
	c-34.658,0-63.015,28.357-63.015,63.015c0,8.665,3.938,20.48,7.089,29.145c1.575,4.726-1.575,9.452-6.302,10.24
	c-29.932,4.726-52.775,30.72-52.775,62.228c0,34.658,28.357,63.015,63.015,63.015"/>
<path style="fill:#183651;" d="M305.231,264.665c-3.938,0-7.877-3.151-7.877-7.877c0-4.726,3.151-7.877,7.877-7.877
	c30.72,0,55.138-25.206,55.138-55.138c0-27.569-20.48-51.2-48.049-55.138c-4.726-0.788-7.877-3.151-10.24-6.302
	c-2.363-3.151-3.151-7.877-2.363-11.815c3.151-11.815,4.726-21.268,4.726-27.569c0-30.72-25.206-55.138-55.138-55.138
	s-55.138,25.206-55.138,55.138c0,5.514,2.363,14.966,6.302,25.994c1.575,3.938,1.575,8.665-0.788,12.603
	c-2.363,3.938-6.302,7.089-11.028,7.877c-26.782,3.938-46.474,27.569-46.474,55.138c0,30.72,25.206,55.138,55.138,55.138
	c3.938,0,7.877,3.151,7.877,7.877c0,4.726-3.151,7.877-7.877,7.877c-38.597,0-70.892-31.508-70.892-70.892
	c0-34.658,25.206-63.803,59.077-69.317c-4.726-13.391-7.089-23.631-7.089-31.508c0-38.597,31.508-70.892,70.892-70.892
	s70.892,31.508,70.892,70.892c0,9.452-3.151,22.843-5.514,31.508c34.658,4.726,60.652,34.658,60.652,70.105
	C376.123,233.157,344.615,264.665,305.231,264.665z"/>
<path style="fill:#183651;" d="M251.668,445.046c-3.938,0-7.877-3.151-7.877-7.877V122.88c0-3.938,3.151-7.877,7.877-7.877
	c3.938,0,7.877,3.151,7.877,7.877v314.289C259.545,441.895,255.606,445.046,251.668,445.046z"/>
<path style="fill:#183651;" d="M251.668,186.683c-1.575,0-3.938-0.788-5.514-2.363c-3.151-3.151-3.151-7.877,0-11.028l31.508-31.508
	c3.151-3.151,7.877-3.151,11.028,0c3.151,3.151,3.151,7.877,0,11.028l-31.508,31.508
	C255.606,185.895,254.031,186.683,251.668,186.683z"/>
<g>
	<path style="fill:#183651;" d="M251.668,213.465c-1.575,0-3.938-0.788-5.514-2.363l-31.508-31.508
		c-3.151-3.151-3.151-7.877,0-11.028c3.151-3.151,7.877-3.151,11.028,0l31.508,31.508c3.151,3.151,3.151,7.877,0,11.028
		C255.606,212.677,254.031,213.465,251.668,213.465z"/>
	<polygon style="fill:#183651;" points="317.834,436.382 302.868,436.382 302.868,343.434 414.72,231.582 414.72,62.228 
		429.686,62.228 429.686,237.883 317.834,349.735 	"/>
	<polygon style="fill:#183651;" points="442.289,97.674 422.597,74.043 402.117,97.674 391.089,88.222 422.597,50.412 
		454.105,88.222 	"/>
	<polygon style="fill:#183651;" points="435.2,331.618 332.8,331.618 332.8,316.652 428.111,316.652 477.735,254.425 
		477.735,186.683 492.702,186.683 492.702,259.938 	"/>
	<rect x="477.735" y="159.902" style="fill:#183651;" width="14.966" height="13.391"/>
	<rect x="477.735" y="129.969" style="fill:#183651;" width="14.966" height="13.391"/>
	<rect x="477.735" y="100.037" style="fill:#183651;" width="14.966" height="13.391"/>
	<polygon style="fill:#183651;" points="200.468,436.382 185.502,436.382 185.502,349.735 73.649,237.883 73.649,62.228 
		88.615,62.228 88.615,231.582 200.468,343.434 	"/>
	<polygon style="fill:#183651;" points="61.046,97.674 49.231,88.222 80.738,50.412 112.246,88.222 101.218,97.674 80.738,74.043 	
		"/>
	<polygon style="fill:#183651;" points="170.535,331.618 68.135,331.618 10.634,259.938 10.634,186.683 25.6,186.683 25.6,254.425 
		75.225,316.652 170.535,316.652 	"/>
	<rect x="10.634" y="159.902" style="fill:#183651;" width="14.966" height="13.391"/>
	<rect x="10.634" y="129.969" style="fill:#183651;" width="14.966" height="13.391"/>
	<rect x="10.634" y="100.037" style="fill:#183651;" width="14.966" height="13.391"/>
</g>
<g>
</g>
<g>
</g>
<g>
</g>
<g>
</g>
<g>
</g>
<g>
</g>
<g>
</g>
<g>
</g>
<g>
</g>
<g>
</g>
<g>
</g>
<g>
</g>
<g>
</g>
<g>
</g>
<g>
</g>
</svg>
