<?xml version="1.0" encoding="iso-8859-1"?>
<!-- Generator: Adobe Illustrator 19.0.0, SVG Export Plug-In . SVG Version: 6.00 Build 0)  -->
<svg version="1.1" id="Capa_1" xmlns="http://www.w3.org/2000/svg" xmlns:xlink="http://www.w3.org/1999/xlink" x="0px" y="0px"
	 viewBox="0 0 504.123 504.123" style="enable-background:new 0 0 504.123 504.123;" xml:space="preserve">
<path style="fill:#FFFFFF;" d="M337.526,7.877H49.231c-17.329,0-31.508,14.178-31.508,31.508v417.477
	c0,17.329,14.178,31.508,31.508,31.508h288.295c17.329,0,31.508-14.178,31.508-31.508V39.385
	C369.034,22.055,354.855,7.877,337.526,7.877z"/>
<path style="fill:#183651;" d="M338.314,496.246H49.231c-21.268,0-38.597-17.329-38.597-38.597V38.597
	C10.634,17.329,27.963,0,49.231,0h289.083c21.268,0,38.597,17.329,38.597,38.597v419.052
	C376.911,478.917,359.582,496.246,338.314,496.246z M49.231,15.754c-12.603,0-23.631,10.24-23.631,23.631v419.052
	c0,12.603,10.24,23.631,23.631,23.631h289.083c12.603,0,23.631-10.24,23.631-23.631V38.597c0-12.603-10.24-23.631-23.631-23.631
	H49.231V15.754z"/>
<rect x="49.231" y="38.597" style="fill:#2EA0DA;" width="289.083" height="91.372"/>
<g>
	<rect x="49.231" y="409.6" style="fill:#E0E4E8;" width="47.262" height="47.262"/>
	<rect x="129.575" y="409.6" style="fill:#E0E4E8;" width="47.262" height="47.262"/>
	<rect x="209.92" y="409.6" style="fill:#E0E4E8;" width="47.262" height="47.262"/>
</g>
<rect x="291.052" y="339.495" style="fill:#4FBF9F;" width="47.262" height="118.154"/>
<g>
	<rect x="49.231" y="339.495" style="fill:#E0E4E8;" width="47.262" height="47.262"/>
	<rect x="129.575" y="339.495" style="fill:#E0E4E8;" width="47.262" height="47.262"/>
	<rect x="209.92" y="339.495" style="fill:#E0E4E8;" width="47.262" height="47.262"/>
	<rect x="49.231" y="269.391" style="fill:#E0E4E8;" width="47.262" height="47.262"/>
	<rect x="129.575" y="269.391" style="fill:#E0E4E8;" width="47.262" height="47.262"/>
	<rect x="209.92" y="269.391" style="fill:#E0E4E8;" width="47.262" height="47.262"/>
	<rect x="291.052" y="269.391" style="fill:#E0E4E8;" width="47.262" height="47.262"/>
	<rect x="49.231" y="198.498" style="fill:#E0E4E8;" width="47.262" height="47.262"/>
	<rect x="129.575" y="198.498" style="fill:#E0E4E8;" width="47.262" height="47.262"/>
	<rect x="209.92" y="198.498" style="fill:#E0E4E8;" width="47.262" height="47.262"/>
	<rect x="291.052" y="198.498" style="fill:#E0E4E8;" width="47.262" height="47.262"/>
</g>
<g>
	<rect x="49.231" y="160.689" style="fill:#F06151;" width="47.262" height="14.966"/>
	<rect x="129.575" y="160.689" style="fill:#F06151;" width="47.262" height="14.966"/>
	<rect x="209.92" y="160.689" style="fill:#F06151;" width="47.262" height="14.966"/>
	<rect x="291.052" y="160.689" style="fill:#F06151;" width="47.262" height="14.966"/>
	<path style="fill:#F06151;" d="M410.782,196.135v174.868c0,44.111,11.815,87.434,33.871,125.243
		c22.055-37.809,33.871-81.132,33.871-125.243V196.135H410.782z"/>
</g>
<path style="fill:#183651;" d="M444.652,504.123L444.652,504.123c-2.363,0-5.514-1.575-6.302-3.938
	c-22.843-39.385-34.658-83.495-34.658-129.182V196.135c0-3.938,3.151-7.877,7.877-7.877h67.742c3.938,0,7.877,3.151,7.877,7.877
	v174.868c0,44.898-11.815,89.797-34.658,129.182C450.166,502.548,447.015,504.123,444.652,504.123z M418.658,204.012v166.991
	c0,37.809,8.665,74.831,25.994,108.702c17.329-33.871,25.994-70.892,25.994-108.702V204.012H418.658z"/>
<path style="fill:#FFFFFF;" d="M444.652,439.532c-7.089-22.055-11.028-44.898-11.028-68.529V219.766h21.268v152.025
	C454.892,394.634,451.742,417.477,444.652,439.532z"/>
<rect x="403.692" y="56.714" style="fill:#FBBD5E;" width="81.92" height="139.422"/>
<path style="fill:#183651;" d="M485.612,204.012h-81.92c-3.938,0-7.877-3.151-7.877-7.877V56.714c0-3.938,3.151-7.877,7.877-7.877
	h81.92c3.938,0,7.877,3.151,7.877,7.877v139.422C492.702,200.862,489.551,204.012,485.612,204.012z M411.569,189.046h66.166V64.591
	h-66.166L411.569,189.046L411.569,189.046z"/>
<rect x="427.323" y="80.345" style="fill:#FFFFFF;" width="35.446" height="92.948"/>
<rect x="422.597" y="7.877" style="fill:#E0E4E8;" width="44.111" height="49.625"/>
<g>
	<path style="fill:#183651;" d="M466.708,64.591h-44.111c-3.938,0-7.877-3.151-7.877-7.877V7.877c0-3.938,3.151-7.877,7.877-7.877
		h44.111c3.938,0,7.877,3.151,7.877,7.877v49.625C473.797,61.44,470.646,64.591,466.708,64.591z M430.474,49.625h28.357V15.754
		h-28.357V49.625z"/>
	<rect x="135.089" y="76.406" style="fill:#183651;" width="15.754" height="15.754"/>
	<rect x="185.502" y="76.406" style="fill:#183651;" width="15.754" height="15.754"/>
	<rect x="236.702" y="76.406" style="fill:#183651;" width="15.754" height="15.754"/>
</g>
<g>
</g>
<g>
</g>
<g>
</g>
<g>
</g>
<g>
</g>
<g>
</g>
<g>
</g>
<g>
</g>
<g>
</g>
<g>
</g>
<g>
</g>
<g>
</g>
<g>
</g>
<g>
</g>
<g>
</g>
</svg>
